<?xml version="1.0" encoding="utf-8"?>
<svg id="svg3962" style="enable-background:new 0 0 604.3 665;" x="0px" y="0px" viewBox="0 0 604.3 665" xmlns="http://www.w3.org/2000/svg">
  <style type="text/css" id="style3680">.wireColor{fill: #777777;}.nofloorColor{fill: #F2F2F2;}.arrowColor{fill: #EA5906;}.eventColor{opacity: 0.3; fill: #F59E16; transition: 1s fill;}.wcColor{opacity: 0.3; fill: #3693B2;}.stairsColor{opacity: 0.3; fill: #73cc15;}.transparentObject{fill: 0;}.riverColor{fill: #B9DDEF;}.mapElements{fill: #E2E2E2;}.tramColor{fill: #73CC15;}.mapArrows{fill: #BFBFBF;}.buildingFill{fill: #E5E5E5;}.eventColor.active{opacity: 0.3; fill: red; -webkit-animation: alertOpacity 2s infinite alternate; animation: alertOpacity 2s infinite alternate;}@-webkit-keyframes alertOpacity{0%{opacity: 0.3;}50%{opacity: 0.5;}100%{opacity: 0.3;}}@keyframes alertOpacity{0%{opacity: 0.3;}50%{opacity: 0.5;}100%{opacity: 0.3;}}#guideSpot .eventColor.active{fill: red; opacity: 1; r: 10; transform-origin: 150px 150px; -webkit-transform-origin: 50% 50%; -webkit-animation: alertScale 2s infinite alternate; animation: alertScale 2s infinite alternate;}@-webkit-keyframes alertScale{0%{-webkit-transform: scale(1, 1);}50%{-webkit-transform: scale(2, 2);}100%{-webkit-transform: scale(1, 1);}}@keyframes alertScale{0%{transform: scale(1, 1);}50%{transform: scale(2, 2);}100%{transform: scale(1, 1);}}</style>
  <path style="fill:#be9568;stroke:none;stroke-width:1px;stroke-linecap:butt;stroke-linejoin:miter;stroke-opacity:1;fill-opacity:0.2820513" d="m 367.7,371.9 77.3,-63.2 67.1,84 -11.5,50.8 -45.8,37.4 z" id="CW3"/>
  <path style="fill:#be6d68;stroke:none;stroke-width:1px;stroke-linecap:butt;stroke-linejoin:miter;stroke-opacity:1;fill-opacity:0.2820513" d="m 441.4,301.7 98.1,-77.7 9.3,9.3 -36.7,159.4 z" id="path4361"/>
  <path style="fill:#68b9be;stroke:none;stroke-width:1px;stroke-linecap:butt;stroke-linejoin:miter;stroke-opacity:1;fill-opacity:0.2820513" d="m 292.1,433.8 74.5,-60.9 87.1,109 -74.5,60.9 z" id="CW2"/>
  <path style="fill:#6abcaa;fill-opacity:0.2820513;stroke:none;stroke-width:1px;stroke-linecap:butt;stroke-linejoin:miter;stroke-opacity:1" d="m 350,591.6 34.3,43.3 v 26.2 H 402 L 431.24638,637.21621 377.2,569.6 Z" id="path4363"/>
  <path style="fill:#6a0daa;stroke:none;stroke-width:1px;stroke-linecap:butt;stroke-linejoin:miter;stroke-opacity:1;fill-opacity:0.2820513" d="m 350.7,613 14,17.3 -25.1,19.2 -13.3,-16.3 z" id="path5182"/>
  <path style="fill:#6a0daa;stroke:none;stroke-width:1px;stroke-linecap:butt;stroke-linejoin:miter;stroke-opacity:1;fill-opacity:0.2820513" d="m 339.9,599.7 9.9,12.1 -24.4,20.2 -10.1,-12.4 z" id="path5180"/>
  <path class="wcColor" d="m 127.7,555.9 46.8,-37.7 3.7,4.9 2.4,-3.1 30.6,38.3 -9.5,7.7 23.9,30 9.4,-7.7 35,43.5 -37,30.5 h -27 c 0,0 -13.7,-38.8 -34.8,-63.7 -21.2,-24.7 -43.5,-42.7 -43.5,-42.7 z" id="WC1-CW" style="opacity:0.3;fill:#3693b2;stroke:#000000;stroke-opacity:0.93846154;stroke-width:2.4;stroke-miterlimit:4;stroke-dasharray:none"/>
  <polygon class="wcColor" points="254.7,91.5 233.8,108.8 253.4,132.6 284.5,107.9 270.5,91.5 " id="WC2-CW" style="opacity:0.3;fill:#3693b2"/>
  <path style="fill:#777777" id="path3914" d="M 13.3,7.2 H 6.1 v 7.1 h 7.2 z m -1.5,5.6 H 7.6 V 8.7 h 4.2 z" class="wireColor"/>
  <path style="fill:#777777" id="path3916" d="m 68.4,7.2 h -7.2 v 7.1 h 7.2 z m -1.5,5.6 H 62.7 V 8.7 h 4.2 z" class="wireColor"/>
  <path style="fill:#777777" id="path3918" d="m 117.7,7.2 h -7.2 v 7.1 h 7.2 z m -1.5,5.6 H 112 V 8.7 h 4.2 z" class="wireColor"/>
  <path style="fill:#777777" id="path3920" d="m 167,7.2 h -7.2 v 7.1 h 7.2 z m -1.5,5.6 h -4.2 V 8.7 h 4.2 z" class="wireColor"/>
  <path style="fill:#777777" id="path3922" d="m 216.3,7.2 h -7.2 v 7.1 h 7.2 z m -1.5,5.6 h -4.2 V 8.7 h 4.2 z" class="wireColor"/>
  <path style="fill:#777777" id="path3924" d="m 265.5,7.2 h -7.2 v 7.1 h 7.2 z m -1.5,5.6 h -4.2 V 8.7 h 4.2 z" class="wireColor"/>
  <path style="fill:#777777" id="path3926" d="m 314.8,7.2 h -7.2 v 7.1 h 7.2 z m -1.5,5.6 h -4.2 V 8.7 h 4.2 z" class="wireColor"/>
  <path style="fill:#777777" id="path3928" d="m 364.1,7.2 h -7.2 v 7.1 h 7.2 z m -1.5,5.6 h -4.2 V 8.7 h 4.2 z" class="wireColor"/>
  <path style="fill:#777777" id="path3930" d="m 413.4,7.2 h -7.2 v 7.1 h 7.2 z m -1.5,5.6 h -4.2 V 8.7 h 4.2 z" class="wireColor"/>
  <path style="fill:#777777" id="path3932" d="m 462.7,7.2 h -7.2 v 7.1 h 7.2 z m -1.5,5.6 H 457 V 8.7 h 4.2 z" class="wireColor"/>
  <path style="fill:#777777" id="path3934" d="m 439,185.4 49.5,-40 -23,-29.7 -50.3,40.8 z m -21.7,-28.8 23.7,-19.2 21.6,27 -9.1,7.4 c -1.3,-1.4 -3.1,-2.4 -5,-2.6 -2.1,-0.2 -4.3,0.4 -5.9,1.7 l -0.1,0.1 4.7,6 -7.8,6.3 z m 29.9,20.2 -4.6,-5.8 c 1.6,-1.3 3.7,-1.8 5.7,-1.6 1.9,0.2 3.6,1.1 4.9,2.5 z m 23.6,-19.1 c -1.1,-1.6 -1.6,-3.5 -1.4,-5.5 0.2,-2.1 1.2,-3.9 2.8,-5.2 l 4.6,5.8 z m 15.6,-12.6 -9.4,7.6 -4.7,-5.9 -0.1,0.1 c -1.7,1.3 -2.8,3.3 -3,5.4 -0.2,2 0.3,4 1.5,5.6 l -7.5,6.1 -21.6,-27 23.7,-19.2 z" class="wireColor"/>
  <path style="fill:#777777" id="path3936" d="m 385.8,118.8 8.8,-7.4 5,5.9 0.1,0.1 0.1,-0.1 c 1.7,-1.4 2.7,-3.3 2.9,-5.5 0.2,-2.1 -0.4,-4.1 -1.7,-5.7 L 419,91 h 25.6 l 4.6,6 1.2,-0.9 -5.1,-6.5 h -71.7 c -2.1,0 -3.8,1.1 -4.7,3 -0.9,1.9 -0.7,3.9 0.6,5.5 z m 16.6,-7 c -0.2,2.1 -1.1,3.9 -2.7,5.3 l -4.9,-5.8 5.9,-5 c 1.3,1.6 1.9,3.5 1.7,5.5 z M 370.2,93.2 c 0.6,-1.3 1.9,-2.1 3.4,-2.1 h 43 L 386,116.7 370.6,97.1 c -0.9,-1.1 -1.1,-2.6 -0.4,-3.9 z" class="wireColor"/>
  <path style="fill:#777777" id="path3938" d="m 106.3,593.4 -0.3,-0.2 -1.9,2.1 0.3,0.3 c 0.1,0.1 0.3,0.2 0.4,0.4 l -7.8,9.3 c -0.1,-0.1 -0.2,-0.2 -0.3,-0.3 l -0.3,-0.2 -2.2,2.6 0.3,0.2 c 17.8,14.8 32.3,32.8 42.9,53.4 l 0.1,0.2 h 20.4 l -0.2,-0.5 c -11.9,-25.9 -29.6,-49.1 -51.4,-67.3 z m -0.9,3 c 0.4,0.3 0.8,0.6 1.1,1 l -7.9,9.2 c -0.3,-0.3 -0.7,-0.6 -1,-0.9 z m 27.5,50 c -0.2,-0.4 -0.5,-0.8 -0.7,-1.1 l 10.3,-6.6 c 0.3,0.4 0.5,0.8 0.8,1.3 z m 10.7,-5.9 c 3.6,5.8 6.9,11.8 9.8,18 h -13.6 c -2.1,-4 -4.3,-7.8 -6.6,-11.6 z m -11.8,4.1 c -0.2,-0.4 -0.5,-0.8 -0.7,-1.1 l 10.2,-6.7 c 0.3,0.4 0.5,0.8 0.8,1.3 z m -1.2,-1.8 c -0.3,-0.4 -0.5,-0.8 -0.8,-1.1 l 10.1,-6.8 c 0.3,0.4 0.6,0.8 0.8,1.3 z m -1.2,-1.7 c -0.3,-0.4 -0.5,-0.7 -0.8,-1.1 l 10,-7 c 0.3,0.4 0.6,0.8 0.9,1.2 z m -1.2,-1.8 c -0.3,-0.4 -0.5,-0.7 -0.8,-1.1 l 9.9,-7.1 c 0.3,0.4 0.6,0.8 0.9,1.2 z m -1.2,-1.7 c -0.3,-0.4 -0.5,-0.7 -0.8,-1.1 l 9.8,-7.2 c 0.3,0.4 0.6,0.8 0.9,1.2 z m -1.2,-1.7 c -0.3,-0.4 -0.5,-0.7 -0.8,-1.1 l 9.8,-7.3 c 0.3,0.4 0.6,0.8 0.9,1.2 z m -1.3,-1.7 c -0.3,-0.4 -0.5,-0.7 -0.8,-1.1 l 9.7,-7.4 c 0.3,0.4 0.6,0.8 0.9,1.2 z m -1.3,-1.7 c -0.3,-0.4 -0.6,-0.7 -0.8,-1.1 l 9.6,-7.5 c 0.3,0.4 0.6,0.8 0.9,1.2 z m -1.3,-1.6 c -0.3,-0.4 -0.6,-0.7 -0.8,-1.1 l 9.5,-7.7 c 0.3,0.4 0.6,0.8 0.9,1.2 z m -1.3,-1.7 c -2.5,-3.1 -5.1,-6.1 -7.8,-9 l 8.9,-8.3 c 2.9,3.1 5.7,6.3 8.4,9.6 z m -8.3,-9.5 c -0.3,-0.3 -0.6,-0.7 -0.9,-1 l 8.8,-8.4 c 0.3,0.4 0.7,0.7 1,1.1 z m -1.5,-1.5 c -0.3,-0.3 -0.6,-0.7 -0.9,-1 l 8.7,-8.5 c 0.4,0.4 0.7,0.7 1,1.1 z m -1.4,-1.5 c -0.3,-0.3 -0.6,-0.6 -1,-1 l 8.6,-8.6 c 0.4,0.4 0.7,0.7 1.1,1.1 z m -1.5,-1.5 c -0.3,-0.3 -0.6,-0.6 -1,-1 l 8.5,-8.7 c 0.4,0.4 0.7,0.7 1.1,1.1 z m -1.5,-1.5 c -0.3,-0.3 -0.7,-0.6 -1,-0.9 l 8.4,-8.8 c 0.4,0.3 0.7,0.7 1.1,1 z m -1.6,-1.5 c -0.3,-0.3 -0.7,-0.6 -1,-0.9 l 8.3,-8.9 c 0.4,0.3 0.7,0.7 1.1,1 z m -1.5,-1.4 c -0.3,-0.3 -0.7,-0.6 -1,-0.9 l 8.2,-9 c 0.4,0.3 0.7,0.7 1.1,1 z m -1.6,-1.4 c -0.3,-0.3 -0.7,-0.6 -1,-0.9 l 8.1,-9.1 c 0.4,0.3 0.8,0.7 1.1,1 z m -1.5,-1.4 c -0.3,-0.3 -0.7,-0.6 -1,-0.9 l 7.9,-9.2 c 0.4,0.3 0.8,0.7 1.1,1 z m 37.7,52.4 C 127.3,639.9 113,622 95.3,607.2 l 1.2,-1.4 c 17.8,14.8 32.2,32.8 42.8,53.3 l 0.1,0.2 h 15.2 l -0.3,-0.5 c -11.7,-24.6 -28.3,-46 -49.2,-63.5 l 0.9,-1 c 21.5,17.9 39,40.8 50.6,66.2 z" class="wireColor"/>
  <path style="fill:#777777" id="path3940" d="M 468.3,40.7 H 143.6 c -0.6,-3.8 -3.9,-6.8 -7.9,-6.8 h -0.1 v 6.8 H 53.1 V 34 H 53 c -4,0 -7.3,2.9 -7.9,6.8 H 33.8 C 33.3,36.9 30,34 26,34 h -0.1 v 6.8 H 8.7 v 64.6 H 1.9 v 0.1 c 0,4 3,7.3 6.8,7.9 V 375.6 H 0 v 0.1 c 0,5.1 3.8,9.3 8.7,9.9 V 386 H 0 v 0.1 c 0,5.1 3.8,9.3 8.7,9.9 v 0.4 H 0 v 0.1 c 0,5.1 3.8,9.3 8.7,9.9 v 103 l 1.7,0.2 c 10.6,1.2 21.2,3.1 31.5,5.7 75.9,19.1 136.3,74.7 161.8,148.7 l 0.4,1.3 198.6,-0.5 h 0.7 l 62.3,-51.3 87,-380.4 0.2,-1 -13.1,-13.1 -48.1,38.9 v 0 c -1.7,-2 -4,-3.3 -6.6,-3.6 -2.6,-0.3 -5.1,0.5 -7.1,2.1 l -0.2,-0.3 7.5,-6.1 -0.1,-0.1 c -1.7,-2 -4,-3.3 -6.6,-3.6 -2.5,-0.3 -5.1,0.5 -7.1,2 l -0.4,-0.4 c 1.9,-1.6 3.2,-3.9 3.4,-6.5 0.3,-2.6 -0.5,-5.2 -2.1,-7.2 l -0.1,-0.1 -7.5,6 -0.3,-0.3 c 4.1,-3.4 4.7,-9.5 1.3,-13.7 l 91.3,-74 z m 15.1,223.6 -0.2,0.1 0.7,0.9 -21.8,17.6 -0.6,-0.7 7.5,-6.1 V 276 c -1.7,-2 -4,-3.3 -6.6,-3.6 -2.6,-0.3 -5.1,0.5 -7.1,2 l -0.3,-0.3 7.5,-6.1 -0.1,-0.1 c -3.4,-4.2 -9.5,-4.9 -13.7,-1.5 l -0.4,-0.4 c 2,-1.6 3.2,-3.9 3.4,-6.5 0.3,-2.6 -0.5,-5.2 -2.1,-7.2 l -0.1,-0.1 -7.5,6.1 -0.3,-0.3 c 4.1,-3.4 4.7,-9.5 1.3,-13.7 l -0.1,-0.1 -7.5,6.1 -0.6,-0.8 21.9,-17.7 z m -27.9,10.3 c 2,-1.5 4.4,-2.2 6.9,-2 2.5,0.3 4.8,1.5 6.4,3.4 l -7.4,6 z m -6.5,-8.1 c 4.1,-3.2 10,-2.6 13.4,1.4 l -7.4,6 z m -6.6,-8.1 7.3,-5.9 c 1.6,2 2.3,4.5 2,7 -0.3,2.5 -1.5,4.7 -3.4,6.3 z m -6.5,-8.1 7.3,-5.9 c 3.2,4.1 2.6,10 -1.3,13.3 z m -8.8,5.6 c 1.1,1.6 1.5,3.4 1.3,5.3 -0.2,2.1 -1.2,3.9 -2.8,5.2 l -4.5,-5.6 z m -68.1,53.2 -19,-23.4 51.3,-41.4 17.3,21.1 -10.6,8.6 -8.2,-9.9 0.5,-0.4 -0.9,-1.2 -0.5,0.4 -7.5,-9.1 -0.2,0.1 7.5,9.1 -1.6,1.3 c -2.5,-3.1 -5,-6.1 -7.5,-9.2 l -0.2,0.1 c 2.5,3.1 5,6.1 7.5,9.2 l -1.6,1.3 -7.6,-9.2 -0.2,0.1 7.6,9.2 -1.6,1.3 -7.6,-9.2 -0.2,0.1 7.6,9.2 -1.6,1.3 c -2.5,-3.1 -5.1,-6.2 -7.6,-9.2 l -0.2,0.1 c 2.5,3.1 5.1,6.2 7.6,9.2 l -1.6,1.3 -7.6,-9.3 -0.2,0.1 7.6,9.3 -1.6,1.3 -7.6,-9.3 -0.2,0.1 7.6,9.3 -1.6,1.3 -7.6,-9.3 -0.2,0.1 7.6,9.3 -1.6,1.3 c -2.5,-3.1 -5.1,-6.2 -7.6,-9.4 l -0.2,0.1 c 2.5,3.1 5.1,6.2 7.6,9.4 l -1.6,1.3 -7.7,-9.4 -0.2,0.1 7.7,9.4 -1.6,1.3 -7.7,-9.4 -0.2,0.1 7.7,9.4 -1.6,1.3 -7.7,-9.4 -0.2,0.1 7.7,9.4 -1.6,1.3 0.9,1.2 1.6,-1.3 8.1,9.9 -1.6,1.3 -16.7,-20.5 -0.2,0.1 17.2,21.1 0.1,-0.1 0.5,0.6 33.4,-27 -19.1,-23.5 -0.3,0.2 -8.8,-10.7 20.6,-16.4 -0.2,-0.3 0.8,-0.6 1.1,1.4 -5.9,4.7 -0.1,0.1 0.1,0.1 c 1.3,1.7 3.3,2.8 5.4,3 0.3,0 0.6,0.1 0.9,0.1 1.7,0 3.4,-0.6 4.8,-1.6 l 1.2,1.5 -0.3,0.2 21.2,26.8 z m 13.7,-9.1 c 2.2,3.3 1.5,7.8 -1.6,10.4 l -4.4,-5.5 z m -52.5,28.1 6.3,3.1 c -1.8,3.6 -6.1,5.2 -9.9,3.8 1.2,-2.3 2.4,-4.6 3.6,-6.9 z m -42.3,49.3 C 225.1,420.3 151.8,422 107.3,381.3 93.5,368.7 86.9,356.5 86.8,356.4 55.5,304 71.9,232.1 124.9,189 c 42.2,-34.3 98.2,-42.9 143,-22.1 l -0.6,0.8 6.8,7.2 48.7,60 5.2,7.5 0.9,-0.6 c 11.2,48.2 -8.7,101.2 -51,135.6 z m -13.6,12.6 7.3,11.4 c -0.5,0.3 -1.1,0.7 -1.6,1 l -7.1,-11.5 c 0.4,-0.3 0.9,-0.6 1.4,-0.9 z m 0.6,-0.4 c 0.5,-0.3 0.9,-0.6 1.4,-0.9 l 7.5,11.2 c -0.5,0.4 -1.1,0.7 -1.6,1 z m 2,-1.3 c 0.5,-0.3 0.9,-0.6 1.4,-0.9 l 7.7,11.1 c -0.5,0.4 -1.1,0.7 -1.6,1.1 z m 2,-1.4 c 0.5,-0.3 0.9,-0.6 1.4,-0.9 l 7.9,10.9 c -0.5,0.4 -1,0.7 -1.6,1.1 z m 2,-1.3 c 0.4,-0.3 0.9,-0.6 1.3,-1 l 8.1,10.8 c -0.5,0.4 -1,0.7 -1.5,1.1 z m 1.9,-1.4 c 0.4,-0.3 0.9,-0.6 1.3,-1 l 8.3,10.6 c -0.5,0.4 -1,0.8 -1.5,1.1 z m 1.9,-1.5 c 0.4,-0.3 0.9,-0.7 1.3,-1 l 8.5,10.4 c -0.5,0.4 -1,0.8 -1.5,1.2 z m 1.9,-1.4 c 0.4,-0.3 0.9,-0.7 1.3,-1 l 8.7,10.3 c -0.5,0.4 -1,0.8 -1.5,1.2 z m 1.9,-1.5 c 0.3,-0.2 0.6,-0.5 0.9,-0.7 0.1,-0.1 0.3,-0.2 0.4,-0.3 l 8.9,10.1 c -0.3,0.2 -0.6,0.5 -0.9,0.7 -0.2,0.2 -0.4,0.3 -0.6,0.5 z m 1.9,-1.5 c 0.4,-0.3 0.8,-0.7 1.2,-1 l 9.1,9.9 c -0.5,0.4 -1,0.8 -1.4,1.2 z m 1.8,-1.5 c 0.4,-0.3 0.8,-0.6 1.1,-1 l 9.6,9.5 c -0.5,0.5 -1,0.9 -1.6,1.4 z m 1.7,-1.5 c 0.4,-0.4 0.9,-0.8 1.3,-1.2 l 9.5,9.6 c -0.4,0.4 -0.8,0.8 -1.3,1.1 z m 1.8,-1.7 c 1.5,-1.3 2.9,-2.7 4.3,-4 1.6,1.4 3.7,2.1 5.7,2.1 2.3,0 4.6,-0.9 6.4,-2.7 l 0.1,-0.1 -5.9,-5.9 c 0.8,-0.9 1.6,-1.8 2.4,-2.7 l 10.2,8.8 c -4.3,5 -8.9,9.7 -13.8,14.1 z m 10.5,-10.4 5.7,5.8 c -3.3,3.2 -8.4,3.3 -11.8,0.5 2.2,-2.1 4.2,-4.2 6.1,-6.3 z m 3.1,-3.5 c 0.6,-0.7 1.2,-1.3 1.7,-2 l 10.4,8.6 c -0.6,0.7 -1.2,1.5 -1.9,2.2 z m 2.2,-2.6 c 0.5,-0.7 1.1,-1.3 1.6,-2 l 10.6,8.4 c -0.6,0.7 -1.2,1.5 -1.8,2.2 z m 2.1,-2.6 c 0.5,-0.6 0.9,-1.2 1.4,-1.8 l 11,8 c -0.6,0.8 -1.2,1.5 -1.7,2.2 z m 1.8,-2.3 c 0.6,-0.7 1.1,-1.5 1.6,-2.2 l 10.9,8 c -0.5,0.7 -1.1,1.4 -1.6,2.1 z M 155.4,167.3 149.9,155 c 0.8,-0.4 1.6,-0.8 2.4,-1.1 l 5.6,12.3 c -0.9,0.3 -1.7,0.7 -2.5,1.1 z m -0.7,0.3 c -0.7,0.3 -1.3,0.6 -2,1 l -6,-12 c 0.8,-0.4 1.7,-0.8 2.5,-1.2 z m -2.7,1.3 c -0.8,0.4 -1.5,0.8 -2.3,1.2 l -6.3,-11.9 c 0.8,-0.4 1.7,-0.9 2.5,-1.3 z m -2.9,1.5 c -0.8,0.4 -1.5,0.8 -2.3,1.3 l -6.5,-11.8 c 0.8,-0.5 1.7,-0.9 2.5,-1.4 z m -3,1.6 c -1.2,0.7 -2.4,1.3 -3.6,2 l -4.7,-7.1 -0.1,-0.1 -0.1,0.1 c -3.9,2.6 -5.1,7.8 -2.8,11.9 -1.6,1 -3.1,2.1 -4.6,3.2 l -7.4,-11.2 c 5.4,-3.9 10.9,-7.4 16.7,-10.6 z m -11,6.7 c -2.3,-4 -1.1,-9.1 2.6,-11.6 l 4.6,7 c -2.4,1.5 -4.8,3 -7.2,4.6 z m -5.4,3.8 c -0.5,0.3 -1,0.7 -1.4,1 L 121,172.2 c 0.5,-0.3 0.9,-0.7 1.4,-1 z m -2,1.5 c -0.4,0.3 -0.8,0.6 -1.2,0.9 L 118.7,174 c 0.6,-0.4 1.1,-0.8 1.7,-1.3 z m -1.8,1.4 c -0.4,0.3 -0.9,0.7 -1.3,1 l -8,-10.8 c 0.5,-0.4 1,-0.8 1.5,-1.2 z m -1.9,1.4 c -0.2,0.2 -0.4,0.3 -0.6,0.5 -0.2,0.2 -0.5,0.4 -0.7,0.6 l -8.2,-10.6 c 0.2,-0.2 0.4,-0.3 0.6,-0.5 0.3,-0.2 0.6,-0.5 0.9,-0.7 z m -1.8,1.6 c -0.4,0.3 -0.8,0.7 -1.3,1 l -8.4,-10.5 c 0.5,-0.4 1,-0.8 1.5,-1.2 z m -1.8,1.5 c -0.4,0.4 -0.8,0.7 -1.2,1.1 l -8.6,-10.3 c 0.5,-0.4 1,-0.8 1.4,-1.2 z m -1.8,1.6 c -0.4,0.4 -0.8,0.7 -1.2,1.1 l -8.8,-10.1 c 0.5,-0.4 0.9,-0.8 1.4,-1.3 z m -1.8,1.6 c -0.4,0.4 -0.8,0.7 -1.2,1.1 l -9,-10 c 0.5,-0.4 0.9,-0.9 1.4,-1.3 z m -1.8,1.6 c -0.4,0.4 -0.8,0.8 -1.2,1.1 l -9.2,-9.8 c 0.5,-0.4 0.9,-0.9 1.4,-1.3 z m -1.7,1.6 c -0.4,0.4 -0.8,0.8 -1.2,1.2 l -9.4,-9.6 c 0.5,-0.4 0.9,-0.9 1.4,-1.3 z m -1.7,1.7 c -0.4,0.4 -0.8,0.8 -1.2,1.2 l -9.6,-9.4 c 0.4,-0.5 0.9,-0.9 1.4,-1.4 z m -1.7,1.7 c -0.4,0.4 -0.8,0.8 -1.1,1.2 L 99,191.6 c 0.4,-0.5 0.9,-0.9 1.3,-1.4 z m 65.7,-45.3 c 1,-1.8 2.7,-3.1 4.7,-3.6 l 1.9,6.9 c -2.5,0.6 -5,1.3 -7.4,2.1 -0.4,-1.8 -0.1,-3.7 0.8,-5.4 z m 67,-9.4 c 4.1,0.7 6.9,4.6 6.4,8.8 l -7.4,-1.1 z m -1.1,7.9 7.7,1.1 v -0.1 c 0.6,-4.3 -2.3,-8.3 -6.6,-9.1 l 0.3,-2.2 c 18.5,3.3 35.8,10.3 50.7,20.4 -2.1,3.6 -1.1,8.2 2.4,10.6 l 0.1,0.1 4.1,-5.9 c 2.6,2 5.1,4.2 7.6,6.4 0.4,0.4 0.8,0.7 1.2,1.1 0.6,0.6 1.3,1.2 1.9,1.8 0.7,0.7 1.3,1.3 2,2 0.3,0.3 0.7,0.7 1,1 0.9,0.9 1.7,1.9 2.6,2.8 0.2,0.2 0.4,0.5 0.6,0.7 0.9,1.1 1.9,2.1 2.7,3.2 1,1.3 2.1,2.6 3,3.9 0.2,0.2 0.3,0.5 0.5,0.7 0.8,1.1 1.6,2.2 2.4,3.3 0.1,0.2 0.3,0.4 0.4,0.7 0.8,1.2 1.6,2.3 2.3,3.5 0.1,0.2 0.2,0.3 0.3,0.5 0.8,1.2 1.5,2.5 2.3,3.8 0.1,0.1 0.1,0.2 0.2,0.3 0.8,1.3 1.5,2.7 2.2,4 0,0.1 0.1,0.1 0.1,0.2 0.3,0.7 0.7,1.4 1,2 l -6.8,3.1 v 0.1 c 0.9,2 2.5,3.5 4.5,4.2 0.9,0.4 1.9,0.5 2.9,0.5 0.9,0 1.9,-0.2 2.8,-0.5 0.5,1.3 1.1,2.6 1.6,4 4.4,11.8 7.1,24.3 7.9,37.3 v 0 l -13.5,0.6 c -0.5,-6.6 -1.6,-13.2 -3.2,-19.6 l -0.4,-1.6 -1.7,1.2 -0.9,-1.3 c 3.4,-2.7 4.1,-7.6 1.5,-11.1 l -0.1,-0.1 -6.2,4.6 -46.6,-57.1 5.6,-4.9 -0.1,-0.1 c -2.9,-3.2 -7.7,-3.6 -11.1,-1 l -0.5,-0.5 1.1,-1.4 -1.3,-0.6 c -9.3,-4.4 -19,-7.6 -29,-9.6 z m 20,-65.3 c -4.1,-0.2 -7.3,-3.5 -7.4,-7.6 h 7.4 z m 0.7,-9.2 h 189.4 l 54.7,68.2 -94.7,76.5 -7.6,-9.2 25,-20.5 -61.5,-75.2 5.8,-4.7 -0.1,-0.1 c -1.4,-1.7 -3.3,-2.7 -5.4,-3 -2,-0.2 -3.9,0.3 -5.5,1.4 l -4.4,-5.4 c 3,-2.9 3.4,-7.6 0.7,-10.9 l -0.1,-0.1 -5.8,4.7 -7.5,-9.1 -0.2,-0.3 h -14.7 c -0.3,-4.1 -3.8,-7.3 -7.9,-7.3 h -0.1 v 7.3 h -31.1 c -0.3,-4.1 -3.8,-7.3 -7.9,-7.3 h -0.1 v 7.3 H 262.1 V 78.4 Z m -39.7,16.7 -16.7,-20.5 1.6,-1.3 7.5,9.2 -1.6,1.3 0.9,1.2 1.6,-1.3 8.3,10.2 z m 4.5,-37.7 7.4,9 -1.6,1.3 -7.4,-9 z m -1.8,1.5 7.4,9 -1.6,1.3 -7.4,-9.1 z m -1.8,1.4 7.4,9.1 -1.6,1.3 -7.4,-9.1 z m -1.8,1.4 7.4,9.1 -1.6,1.3 L 220,63 Z m -1.7,1.5 7.4,9.1 -1.6,1.3 -7.4,-9.1 z m -1.8,1.4 7.4,9.1 -1.6,1.3 -7.4,-9.1 z m -1.8,1.5 7.4,9.1 -1.6,1.3 -7.4,-9.1 z m -1.8,1.4 7.4,9.1 -1.6,1.3 -7.4,-9.1 z m -1.8,1.4 7.4,9.1 -1.6,1.3 -7.4,-9.1 z m -1.7,1.5 7.5,9.1 -1.6,1.3 -7.5,-9.1 z m -1.8,1.4 7.5,9.1 -1.6,1.3 -7.5,-9.2 z m 15.1,21.9 -8.3,-10.3 1.6,-1.3 8.3,10.2 z m 1.8,-1.5 -8.4,-10.2 1.6,-1.3 8.3,10.2 z m 1.8,-1.4 -8.3,-10.2 1.6,-1.3 8.4,10.2 z m 1.8,-1.5 -8.4,-10.2 1.6,-1.3 8.4,10.3 z m 1.8,-1.4 -8.4,-10.3 1.6,-1.3 8.4,10.3 z m 1.8,-1.4 -8.4,-10.3 1.6,-1.3 8.4,10.3 z m 1.8,-1.5 -8.4,-10.3 1.6,-1.3 8.5,10.3 z m 1.8,-1.4 -8.5,-10.3 1.6,-1.3 8.5,10.3 z m 1.8,-1.5 -8.5,-10.3 1.6,-1.3 8.5,10.3 z m 1.8,-1.4 -8.5,-10.3 1.6,-1.3 8.5,10.3 z m 1.8,-1.4 -8.5,-10.3 1.6,-1.3 8.5,10.4 z m 1.8,-1.5 -8.5,-10.4 0.5,-0.4 -0.9,-1.2 -0.5,0.4 -7.4,-9 9.8,-7.9 17,20.6 z m 184.6,-0.9 c -0.4,-4 -3.8,-7.2 -7.9,-7.2 h -0.1 v 7.2 H 410.2 V 44.5 h 39 v 32.4 z m -7.8,0 v -7 c 4,0.1 7.2,3.1 7.6,7 z m -11.5,0 h -19.8 v -7.2 h -0.1 c -4.1,0 -7.5,3.2 -7.9,7.2 H 361.4 V 44.5 h 48.1 v 32.4 z m -20.1,0 h -7.6 c 0.4,-3.9 3.6,-6.9 7.6,-7 z m -28.8,0 h -30.1 c -0.4,-4.1 -3.8,-7.3 -7.9,-7.3 h -0.1 v 7.3 H 311.8 V 44.5 h 48.7 z m -37.9,0 v -7 c 4,0.1 7.2,3.1 7.6,7 z m -11.6,0 h -19.7 c -0.4,-4.1 -3.8,-7.3 -7.9,-7.3 h -0.1 v 7.3 H 265.1 V 44.5 H 311 Z m -27.5,0 v -7 c 4,0.1 7.2,3.1 7.6,7 z m -22.2,-28.1 -24.1,-0.2 -3.3,-4 h 27.5 v 4.2 z m -23.5,0.5 23.5,0.2 V 64 l -6.8,5.4 z M 261.3,65 v 11.9 h -0.5 v 0.2 l -5.8,-7 z m 218.3,45.8 c 1.4,-1.3 2.3,-3.1 2.5,-5 0.2,-2.1 -0.4,-4.3 -1.7,-5.9 l -0.1,-0.1 -5.9,4.7 -8.8,-11 L 490,74 520.3,112 496,131.4 Z m -5,-6.2 5.7,-4.5 c 1.3,1.6 1.8,3.7 1.6,5.7 -0.2,1.9 -1.1,3.6 -2.5,4.8 z M 459.9,86.3 c 3.4,-2.4 8.1,-1.8 10.7,1.4 l -5.9,4.6 z m 46,57.4 -4.8,-6 5.6,-4.4 c 2.5,3.1 2.1,7.6 -0.8,10.4 z m -43.5,40.4 4.6,5.8 c -1.6,1.3 -3.7,1.8 -5.7,1.6 -1.9,-0.2 -3.7,-1.1 -4.9,-2.6 z m -6.1,4.9 c 1.3,1.5 3.1,2.4 5.1,2.6 0.3,0 0.6,0.1 0.9,0.1 1.8,0 3.6,-0.6 5,-1.7 l 0.1,-0.1 -4.8,-6 1.8,-1.4 19.5,24.1 -26.6,21.6 -19.6,-24.2 z m 28.1,17.1 -19.5,-24.1 15.2,-12.3 c 1.3,1.4 3,2.2 4.9,2.4 0.3,0 0.6,0.1 0.9,0.1 1.8,0 3.6,-0.6 5,-1.7 l 0.1,-0.1 -4.6,-5.8 20.8,-16.8 19.3,24.1 z m 1.9,-41.3 4.5,5.6 c -1.6,1.3 -3.7,1.8 -5.7,1.6 -1.8,-0.2 -3.5,-1 -4.8,-2.4 z m -58.9,47.6 c 2.4,3.4 1.8,8.1 -1.4,10.7 l -4.6,-5.8 z m -17.7,9.5 c -1.6,1.2 -3.6,1.7 -5.6,1.5 -2,-0.2 -3.9,-1.2 -5.2,-2.8 l 5.8,-4.6 z m -21.9,17.5 c -1.6,1.2 -3.5,1.7 -5.5,1.5 -2,-0.2 -3.9,-1.2 -5.2,-2.8 l 5.8,-4.6 z m -10.9,-1.5 v 0 0.2 c 1.3,1.7 3.3,2.8 5.4,3 0.3,0 0.6,0.1 0.9,0.1 1.7,0 3.3,-0.6 4.7,-1.6 l 2.8,3.4 -51.7,41.6 -5.2,-6.4 c 0.4,-6 0.4,-12.1 0,-18.1 l 2.5,-0.1 0.3,7.7 v 0.1 h 0.1 c 4.4,-0.2 7.8,-3.8 7.7,-8.2 l 3.3,-0.2 0.4,0.5 33.7,-27.7 0.8,1 z m -32.6,21.7 c 0,4.2 -3.2,7.7 -7.4,7.9 l -0.3,-7.6 z m -3.5,-38.7 c -0.6,-1.5 -1.1,-2.9 -1.7,-4.4 0,-0.1 -0.1,-0.2 -0.1,-0.3 -0.6,-1.5 -1.3,-2.9 -1.9,-4.4 0,-0.1 -0.1,-0.2 -0.1,-0.2 -0.7,-1.4 -1.4,-2.9 -2.1,-4.3 0,-0.1 -0.1,-0.2 -0.1,-0.3 -0.7,-1.4 -1.4,-2.7 -2.2,-4.1 -0.1,-0.1 -0.1,-0.2 -0.2,-0.4 -0.7,-1.3 -1.5,-2.5 -2.3,-3.8 -0.1,-0.2 -0.2,-0.4 -0.3,-0.5 -0.7,-1.2 -1.5,-2.3 -2.3,-3.5 -0.2,-0.2 -0.3,-0.5 -0.5,-0.7 -0.8,-1.1 -1.6,-2.2 -2.4,-3.3 -0.2,-0.3 -0.4,-0.5 -0.6,-0.8 -0.9,-1.2 -1.8,-2.3 -2.7,-3.5 l 15.4,-11.4 28.6,35.8 -21.9,17.5 c -0.8,-2.6 -1.6,-5.1 -2.6,-7.6 v 0 c 0,0.2 0,0.2 0,0.2 z m -5.2,-8.7 c 0,0.1 0.1,0.1 0.1,0.2 0.7,1.4 1.3,2.9 1.9,4.4 0,0.1 0.1,0.2 0.1,0.2 0,0.1 0.1,0.1 0.1,0.2 -1.8,0.7 -3.7,0.7 -5.5,0 -1.9,-0.7 -3.5,-2.2 -4.3,-4 l 6.6,-3 c 0.3,0.7 0.6,1.3 1,2 z m -18,-30.1 c -0.9,-1 -1.7,-1.9 -2.6,-2.9 -0.3,-0.3 -0.7,-0.7 -1,-1 -0.7,-0.7 -1.3,-1.4 -2,-2 -0.6,-0.6 -1.3,-1.3 -1.9,-1.9 -0.4,-0.4 -0.8,-0.8 -1.2,-1.1 -5.2,-4.7 -10.7,-9.1 -16.7,-12.9 v 0 c -3.8,-2.4 -7.7,-4.7 -11.7,-6.7 l 24,-19 32,40 -15.7,11.4 c -0.9,-1.1 -1.8,-2.1 -2.7,-3.2 -0.1,-0.2 -0.3,-0.5 -0.5,-0.7 z m -17.6,-14.4 -4,5.7 c -3.3,-2.4 -4.2,-6.8 -2.2,-10.3 2.1,1.5 4.2,3 6.2,4.6 z m -47.2,-35.6 -9.9,-12 30.5,-24.5 9.7,11.9 -0.3,0.2 0.2,0.3 z m -1.4,-0.5 -5.8,4.7 c -1.3,-1.6 -1.9,-3.6 -1.6,-5.7 0.2,-2 1.1,-3.7 2.6,-5 z m 32.1,-40.9 v -7.1 c 4,0.1 7.3,3.1 7.6,7.1 z m 18.7,1.5 -18.5,14.8 -12.1,-14.8 z m 20.4,-1.5 v -7.1 c 4,0.1 7.3,3.1 7.6,7.1 z m 21.9,1.5 4.4,5.3 -24.2,19.6 -19.7,-24.6 0.3,-0.3 z m 8.5,8.1 5.6,-4.6 c 2.5,3.2 2.2,7.8 -0.8,10.5 z m 5.8,9.5 -7.8,6.4 -3.7,-4.6 c 3.3,-2.8 3.7,-7.8 1,-11.2 l -0.1,-0.1 -6.1,4.9 -0.6,-0.7 7.8,-6.3 z m 3.8,2.3 c 1.5,-1.1 3.4,-1.6 5.3,-1.4 2.1,0.2 3.9,1.2 5.2,2.8 l -5.6,4.6 z m 4.9,8.3 -24.5,19.7 -8,-10 24.3,-19.7 z m 10.8,13.3 c -1.6,1.2 -3.5,1.7 -5.5,1.5 -2.1,-0.2 -3.9,-1.2 -5.2,-2.8 l 5.8,-4.7 z m -10.9,-1.4 v 0 c 1.4,1.8 3.4,2.8 5.5,3 0.3,0 0.6,0 0.9,0 1.7,0 3.4,-0.5 4.8,-1.6 l 26.7,32.7 -24.9,20.4 -36.8,-46.1 24.4,-19.7 5.3,6.5 z m -26.5,-27.4 9.5,11.7 -15.9,12.9 -9.4,-11.7 z m 1.3,0.5 5.9,-4.8 c 2.6,3.3 2.1,8.1 -1,10.8 z m 2,39.9 55.6,69.7 -17.4,13.9 L 286,108 303.2,94.3 Z m -51.1,-24.8 c -1.5,1 -3.4,1.5 -5.2,1.3 -2.1,-0.2 -3.9,-1.2 -5.2,-2.8 l 5.6,-4.6 z m 72.7,91.1 15.4,19.2 -32.5,26.7 c -0.7,-9.7 -2.4,-19.2 -5.1,-28.2 z m 15,-24.2 24.9,-20.4 6.9,8.5 -5.8,4.7 0.1,0.1 c 1.6,2 3.9,3 6.3,3 1.6,0 3.2,-0.5 4.6,-1.4 l 9.2,11.3 -25.2,20.7 z m 36.8,-5.7 c -3.3,2.3 -7.9,1.7 -10.5,-1.4 l 5.6,-4.5 z M 270.7,92.2 273,95 242.5,119.5 234,109.1 255,92.2 Z M 238.6,116 c -1.6,1.2 -3.5,1.7 -5.5,1.5 -2.1,-0.2 -3.9,-1.2 -5.2,-2.8 l 5.8,-4.7 z m -5.3,-6.4 0.2,0.3 -5.9,4.8 0.1,0.1 c 1.6,2 3.9,3 6.3,3 1.7,0 3.3,-0.5 4.8,-1.6 l 7.6,9.3 c -1.5,1.3 -2.4,3.2 -2.7,5.2 -0.2,2.1 0.4,4.3 1.8,5.9 l 0.1,0.1 6,-4.9 0.7,0.8 -10.4,8.3 -17.9,-23.8 z m 50.7,-0.5 4.1,5.2 -5.8,4.7 0.1,0.1 c 1.4,1.7 3.3,2.7 5.4,3 0.3,0 0.6,0 0.9,0 1.6,0 3.2,-0.5 4.5,-1.4 l 10.6,13.2 -24.2,19.2 c -3.8,-1.9 -7.7,-3.6 -11.6,-5.1 0.6,-1.9 0.5,-3.9 -0.4,-5.7 -0.9,-2 -2.5,-3.4 -4.5,-4.2 H 263 l -2.7,7.3 c -5.4,-1.7 -10.9,-3.1 -16.5,-4.1 z m -23.6,36.3 2.6,-7.1 c 1.9,0.7 3.5,2.2 4.3,4 0.8,1.8 0.9,3.7 0.4,5.6 -2.4,-0.9 -4.8,-1.7 -7.3,-2.5 z m 64.2,88.2 -1.6,-2 6.1,-4.4 c 1.2,1.7 1.7,3.7 1.4,5.8 -0.3,2 -1.3,3.7 -2.9,4.9 z m -48.8,-60.2 -4.9,-5.2 c 3.2,-2.5 7.9,-2.2 10.7,0.9 l -5.4,4.8 z m 58,105.9 8.7,10.7 -12.2,10.4 c 1.7,-7 2.9,-14.1 3.5,-21.1 z m 9.6,11.8 11.9,14.6 -13.3,10.7 -11.7,-14.2 z m 34.9,-1.1 -8.1,-9.9 1.6,-1.3 8.1,9.9 z m 1.8,-1.5 -8.1,-9.9 1.6,-1.3 8.1,9.9 z m 1.7,-1.5 -8.1,-9.9 1.6,-1.3 c 2.7,3.3 5.4,6.6 8.1,9.9 z m 1.8,-1.4 c -2.7,-3.3 -5.4,-6.6 -8.1,-9.9 l 1.6,-1.3 8.1,9.9 z m 1.8,-1.5 -8.1,-9.9 1.6,-1.3 8.1,9.9 z m 1.8,-1.4 -8.1,-9.9 1.6,-1.3 8.1,9.9 z m 1.8,-1.5 -8.1,-9.9 1.6,-1.3 c 2.7,3.3 5.4,6.6 8.1,9.9 z m 1.8,-1.4 c -2.7,-3.3 -5.4,-6.6 -8.1,-9.9 l 1.6,-1.3 8.1,9.9 z m 1.8,-1.5 -8.2,-9.9 1.6,-1.3 8.2,9.9 z m 1.8,-1.4 -8.2,-9.9 1.6,-1.3 c 2.7,3.3 5.4,6.6 8.2,9.9 z m 1.8,-1.5 c -2.7,-3.3 -5.4,-6.6 -8.2,-9.9 l 1.6,-1.3 8.2,9.9 z m 37,-26.4 -20.2,-25 8.3,-6.7 4.7,6 0.1,-0.1 c 3.4,-2.7 4,-7.6 1.5,-11.1 l 9.6,-7.7 19.5,24.1 -1.1,0.9 0.7,0.9 z m 94.6,-78 -21.7,-27.1 c 3,-2.8 3.4,-7.6 0.7,-10.8 l -0.1,-0.1 -5.8,4.6 -4.4,-5.5 24.3,-19.4 31,38.9 z m -38.2,-97.6 -24.4,19.5 -0.3,-0.4 6,-4.7 0.1,-0.1 -0.1,-0.1 c -2.7,-3.4 -7.6,-4 -11.1,-1.5 l -7.2,-8.9 -0.2,-0.3 h -2.5 V 44.5 h 16.7 z M 135.8,34.2 c 3.8,0.1 7,2.9 7.5,6.5 h -7.5 z m 38.7,63.6 4.6,5.7 c -3.2,2.5 -7.8,2.1 -10.6,-0.8 z m -61.2,48 L 66,87.9 97.6,62.5 h 61.6 l 22.4,27.6 z m 9.8,-6 c 2.2,3.3 1.6,7.8 -1.5,10.4 l -4.5,-5.5 z m -18.8,15.3 4.6,5.7 c -1.6,1.3 -3.6,1.9 -5.7,1.6 -1.9,-0.2 -3.6,-1.1 -4.9,-2.5 z M 34,210.6 24.5,198.7 c 3.2,-2.8 3.7,-7.8 1,-11.2 l -0.1,-0.1 -6,4.9 -2.2,-2.7 -0.1,-0.1 H 12.5 V 131 l 46.1,-37.1 47.3,58 z m 11.6,-7.5 c 1.1,1.6 1.6,3.5 1.4,5.4 -0.2,2.1 -1.2,3.9 -2.8,5.2 L 39.6,208 Z M 12.5,190.3 h 4.2 l 16.7,20.8 -20.9,17.1 z m 6.9,2.2 5.8,-4.7 c 2.6,3.3 2.1,8 -1,10.8 z M 49.5,99.2 C 47.4,95.9 48,91.5 51.1,88.9 l 4.4,5.4 z m 10.2,-6.3 5.1,-4.1 47.3,58 -5.1,4.2 z M 66.4,85.6 62,80.1 c 3.2,-2.5 7.7,-2.2 10.4,0.6 z m 57.9,-32.9 c 4.1,0.2 7.3,3.5 7.4,7.6 h -7.4 z M 52.9,34.2 v 6.5 h -7.5 c 0.5,-3.6 3.7,-6.4 7.5,-6.5 z m -26.8,0 c 3.8,0.1 7,2.9 7.5,6.5 h -7.5 z m 97.4,10.3 V 60.9 H 97 L 72.5,80.7 C 69.6,77.8 64.9,77.5 61.7,80.1 l -0.1,0.1 4.6,5.6 -10.5,8.5 -4.5,-5.6 -0.1,0.1 C 47.9,91.4 47.2,96 49.4,99.4 L 12.5,129.1 V 44.5 Z M 2.1,105.6 h 6.6 v 7.5 C 5,112.5 2.2,109.4 2.1,105.6 Z M 0.2,375.7 h 8.5 v 9.6 C 4,384.7 0.3,380.6 0.2,375.7 Z m 0,10.4 h 8.5 v 9.6 C 4,395.1 0.3,391 0.2,386.1 Z m 0,10.4 h 8.5 v 9.6 C 4,405.4 0.3,401.4 0.2,396.5 Z m 12.3,19.9 h 8.1 c -0.1,4.6 -3.6,8.4 -8.1,9 z m 0,89.5 v -80.4 c 4.7,-0.5 8.3,-4.5 8.3,-9.3 v -0.1 h -8.3 v -186 l 26.9,-22 4.8,5.9 0.1,-0.1 c 1.7,-1.4 2.7,-3.3 3,-5.4 0.2,-2 -0.3,-3.9 -1.5,-5.6 l 52.5,-42.8 c 1.3,1.4 3.1,2.3 5.1,2.5 0.3,0 0.6,0 0.9,0 1.8,0 3.6,-0.6 5.1,-1.8 l 0.1,-0.1 -4.8,-5.9 12.4,-10.2 4.6,5.7 0.1,-0.1 c 3.3,-2.7 3.9,-7.4 1.6,-10.8 l 45.1,-36.8 c 1.6,1.7 3.7,2.6 5.9,2.6 1.8,0 3.6,-0.6 5.1,-1.8 l 0.1,-0.1 -4.8,-5.9 8.5,-6.9 0.6,-0.5 -23.8,-29.4 h -35.7 v -0.4 h 7.6 v -0.1 c 0,-4.3 -3.4,-7.7 -7.6,-7.9 v -8 H 233 l 3.6,4.3 -31.2,25.3 0.2,0.3 -0.1,0.1 17.2,21.1 0.1,-0.1 0.2,0.3 31.6,-25.2 6.4,7.7 v 0.2 h 0.7 v 1.4 h -7.6 v 0.1 c 0,4.3 3.4,7.7 7.6,7.9 v 2.9 h -7.1 l -32.5,26.1 19.6,26.2 0.6,-0.5 c 0,0 0,0 0,0 l -1.8,13.2 c -18.9,-3.6 -38.7,-2.9 -58,1.9 l -1.9,-7 v -0.1 h -0.1 c -2.1,0.6 -3.8,1.9 -4.9,3.8 -1,1.7 -1.3,3.6 -0.9,5.5 -5.4,1.7 -10.7,3.6 -15.9,5.9 l -5.6,-12.3 c 0,0 0.1,0 0.1,-0.1 l -0.3,-0.7 c -13.6,6.1 -26.4,13.9 -38.1,23.4 -6,4.9 -11.7,10.2 -17,15.8 l 0.5,0.5 c 0.1,-0.1 0.2,-0.2 0.2,-0.2 l 9.8,9.3 c -18,19.2 -30.7,42.5 -36.3,67.3 -7.1,31.4 -2.5,62.9 12.9,88.7 0.3,0.5 6.8,12.6 20.9,25.5 21.3,19.5 49.9,30.1 80.7,30.1 1.1,0 2.1,0 3.2,0 25.2,-0.6 50.3,-8.2 72.5,-21.8 l 7.1,11.5 c -0.1,0.1 -0.2,0.1 -0.3,0.2 l 0.4,0.6 c 6.6,-4 13,-8.5 19,-13.4 11.7,-9.5 22,-20.4 30.8,-32.5 l -0.6,-0.4 c 0,0 -0.1,0.1 -0.1,0.1 l -10.9,-8 c 3.3,-4.6 6.3,-9.3 9,-14.2 1,0.4 2,0.6 3,0.6 3,0 5.9,-1.7 7.3,-4.5 v -0.1 l -6.5,-3.2 c 3.8,-7.9 6.9,-16.1 9.2,-24.4 l 12.4,15 14.4,-11.6 2.7,3.3 0.3,-0.2 0.5,0.6 6.9,-5.6 4.5,5.7 0.1,-0.1 c 3.3,-2.6 4,-7.3 1.8,-10.7 l 48,-38.9 4.6,5.8 0.1,-0.1 c 1.7,-1.3 2.8,-3.3 3,-5.4 0.2,-1.9 -0.3,-3.9 -1.3,-5.5 l 7.3,-5.9 27.1,33.5 -22.3,18 4.9,6.1 -4.6,3.7 -4.7,-6 -0.1,0.1 c -1.7,1.3 -2.8,3.3 -3,5.4 -0.2,2 0.3,4 1.5,5.7 l -56.6,46.2 c -2.8,-3.2 -7.7,-3.6 -11.1,-1 l -0.1,0.1 4.8,6.1 -7.7,6.3 -4.6,-5.8 -0.1,-0.1 -0.1,0.1 c -3.4,2.7 -4,7.5 -1.6,11 l -56.6,46.2 c -2.8,-3.1 -7.7,-3.6 -11,-0.9 l -0.1,0.1 4.8,6 -7.7,6.3 -4.4,-5.5 -0.1,-0.1 -0.1,0.1 c -1.7,1.3 -2.8,3.3 -3,5.4 -0.2,1.9 0.2,3.7 1.2,5.3 l -56.6,46.3 c -2.9,-2.9 -7.5,-3.2 -10.7,-0.6 l -0.1,0.1 4.5,5.7 -4.4,3.6 -0.6,0.5 29.1,36.4 -11.1,9.2 0.1,0.1 -0.3,0.2 45.7,57 0.6,-0.5 -1.3,-1.6 10.7,-8.9 1.3,1.6 -10.8,9 0.1,0.2 10.8,-9 13.6,17 0.5,0.6 2.6,-2.1 44.1,54.3 -50.9,0.1 v -5.5 l -13.8,-16 c 3.1,-2.9 3.4,-7.8 0.6,-11.1 l -0.1,-0.1 -5.9,5 -4.6,-5.3 -2.8,2.3 -39.3,-49.2 -1.2,0.9 5,6.2 -1.4,1.1 c -2.8,-3.4 -7.8,-3.9 -11.2,-1.2 l -0.1,0.1 5,6.3 -1,0.8 -6.5,-8.1 6.2,-4.9 -0.1,-0.1 c -2.7,-3.4 -7.7,-4.1 -11.2,-1.4 l -11.9,-14.9 1,-0.8 4.7,6 0.1,0.1 0.1,-0.1 c 3.4,-2.7 4,-7.7 1.5,-11.1 l 1.3,-1.1 9.3,11.6 1.2,-0.9 -40.8,-50.8 -2.8,2.4 -3.2,-4.3 -13,10.5 -28.1,-34.9 12.7,-10.2 -0.5,-0.6 -57.3,46.2 C 74.1,521.1 58.9,515.5 43,511.5 32.9,509 22.7,507.1 12.5,505.9 Z m 440.9,-214 c 2.4,3.4 1.8,8 -1.4,10.6 l -4.6,-5.8 z m -27.1,237.7 c 2.4,3.3 1.9,7.8 -1.2,10.5 l -4.8,-5.7 z m -6.1,5 4.9,5.7 0.1,0.1 0.1,-0.1 c 3.2,-2.7 3.8,-7.5 1.3,-10.9 l 14.6,-11.8 26.6,32.9 0.2,0.2 7.8,1.8 -9.2,40.1 -24.8,-5.7 -34.5,-41.9 z m 48.5,14.8 -27.4,-33.9 -92.9,75.3 -0.6,0.5 21.4,27 -7.4,5.9 -4.4,-5.4 5.8,-4.9 0.1,-0.1 -0.1,-0.1 c -1.4,-1.6 -3.3,-2.7 -5.5,-2.8 -1.9,-0.2 -3.8,0.4 -5.4,1.5 l -2.1,-2.6 5.8,-4.9 0.1,-0.1 -0.1,-0.1 c -2.8,-3.3 -7.6,-3.8 -10.9,-1.3 l -4.8,-6 -25.7,20.9 -10.1,-12.5 136.5,-111.6 7.9,10 0.1,-0.1 0.2,0.3 22.9,-18.7 c 0.6,-0.5 1.5,-0.6 2.2,-0.1 0.7,0.4 1,1.2 0.8,2 l -6.9,29.7 0.7,0.2 0.2,-0.9 12.5,3.1 -0.1,0.5 0.7,0.2 6.3,-27.6 c 2.1,-8 -0.3,-15.1 -6.3,-18.9 -4.3,-2.7 -9.7,-3.1 -14.6,-1.4 L 500.3,445.8 476,551.1 Z m -70.4,2.9 4.6,5.4 c -1.6,1.3 -3.6,1.9 -5.6,1.8 -1.9,-0.2 -3.6,-1 -4.9,-2.3 z m -36.1,29.3 c 2.4,3.3 1.9,7.9 -1.2,10.6 l -4.8,-5.7 z m 22,56.1 c 3.9,0.3 7,3.6 7.1,7.6 h -7 z m -39.1,-34 c 3.3,-2.4 7.9,-1.9 10.6,1.2 l -5.7,4.8 z m 4.7,8.1 -24.4,20.2 -10.1,-12.4 24.6,-19.9 z m 0.9,1.2 14,17.3 -25.1,19.2 -13.3,-16.3 z m 1.7,-0.4 c 1.5,-1.1 3.4,-1.6 5.3,-1.5 2.1,0.2 3.9,1.1 5.3,2.7 l -5.7,4.8 z m 14.5,17.9 -4.6,-5.7 0.3,-0.3 c 1.3,1.6 3.2,2.6 5.3,2.8 0.3,0 0.6,0 0.9,0 1.8,0 3.6,-0.6 5,-1.8 l 0.1,-0.1 -4.9,-6.1 0.7,-0.6 13,16.4 0.1,25.7 -33.6,0.1 -8.6,-10.6 z m 1.9,-10.9 4.8,5.9 c -1.6,1.3 -3.6,1.8 -5.7,1.6 -2,-0.2 -3.8,-1.2 -5.1,-2.7 z m -155.2,-121.7 77.3,-63.2 87.1,109 -77.3,63.2 z m 59.2,98.8 c 3.6,-3 7.1,-5.9 10.7,-8.9 l 1.3,1.6 -10.7,8.9 z M 242,535.9 c -1.7,1.4 -3.5,2.9 -5.3,4.4 -1.9,1.6 -3.8,3.2 -5.5,4.6 l -1.3,-1.6 10.8,-9 z m -5.1,4.5 c 1.8,-1.5 3.6,-3 5.3,-4.4 l 1.3,1.6 c -1.7,1.4 -3.5,2.9 -5.3,4.4 -1.9,1.6 -3.8,3.2 -5.6,4.6 l -1.3,-1.6 c 1.8,-1.4 3.7,-3 5.6,-4.6 z m 1.5,1.8 c 1.8,-1.5 3.6,-3 5.3,-4.4 l 1.3,1.6 c -1.7,1.4 -3.5,2.9 -5.3,4.4 -1.9,1.6 -3.8,3.2 -5.5,4.6 l -1.3,-1.6 c 1.6,-1.4 3.6,-3 5.5,-4.6 z m 1.4,1.8 c 1.8,-1.5 3.6,-3 5.3,-4.4 l 1.3,1.6 c -1.6,1.4 -3.5,2.9 -5.2,4.3 -1.9,1.6 -3.8,3.2 -5.6,4.6 l -1.3,-1.6 c 1.7,-1.3 3.6,-2.9 5.5,-4.5 z m 1.5,1.8 c 1.8,-1.5 3.6,-3 5.2,-4.3 l 1.3,1.6 c -1.7,1.4 -3.5,2.9 -5.2,4.4 -1.9,1.6 -3.8,3.2 -5.5,4.6 l -1.3,-1.6 c 1.6,-1.5 3.6,-3.2 5.5,-4.7 z m 1.4,1.8 c 1.8,-1.5 3.6,-3 5.2,-4.4 l 1.3,1.6 c -1.7,1.4 -3.5,2.9 -5.2,4.4 -1.9,1.6 -3.8,3.2 -5.5,4.6 l -1.3,-1.6 c 1.7,-1.4 3.6,-3 5.5,-4.6 z m 1.4,1.8 c 1.8,-1.5 3.6,-3 5.2,-4.4 l 1.3,1.6 c -1.7,1.4 -3.5,2.9 -5.2,4.4 -1.9,1.6 -3.8,3.2 -5.5,4.6 l -1.3,-1.6 c 1.7,-1.4 3.6,-3 5.5,-4.6 z m 1.4,1.8 c 1.8,-1.5 3.6,-3 5.2,-4.4 l 1.3,1.6 c -1.7,1.4 -3.5,2.9 -5.3,4.4 -1.9,1.6 -3.8,3.2 -5.5,4.6 l -1.3,-1.6 c 1.8,-1.4 3.8,-3 5.6,-4.6 z m 1.5,1.8 c 1.8,-1.5 3.6,-3 5.2,-4.4 l 1.3,1.6 c -1.6,1.4 -3.4,2.9 -5.2,4.4 -1.9,1.6 -3.8,3.2 -5.5,4.6 l -1.3,-1.6 c 1.7,-1.4 3.6,-3 5.5,-4.6 z m 1.4,1.8 c 1.8,-1.5 3.6,-3 5.2,-4.4 l 1.3,1.6 c -1.6,1.4 -3.5,2.9 -5.2,4.4 -1.9,1.6 -3.8,3.2 -5.5,4.6 l -1.3,-1.6 c 1.7,-1.4 3.7,-3.1 5.5,-4.6 z m 1.5,1.8 c 1.8,-1.5 3.6,-3 5.2,-4.4 l 1.3,1.6 c -1.6,1.4 -3.4,2.9 -5.2,4.4 -1.9,1.6 -3.8,3.2 -5.5,4.6 l -1.3,-1.6 c 1.7,-1.4 3.6,-3.1 5.5,-4.6 z m 1.4,1.7 c 1.8,-1.5 3.6,-3 5.2,-4.4 l 1.3,1.6 -10.7,9 -1.3,-1.6 c 1.7,-1.3 3.6,-3 5.5,-4.6 z m 6.7,-2.5 11.1,13.9 -10.8,8.8 -11,-13.7 z m 11.2,14.1 1.3,1.6 -10.8,8.8 -1.3,-1.6 z m 1.4,1.8 1.3,1.6 -10.8,8.8 -1.3,-1.6 z m 1.5,1.7 1.3,1.6 -10.8,8.8 -1.3,-1.6 z m 1.4,1.8 1.3,1.6 -10.8,8.8 -1.3,-1.6 z m 1.4,1.8 1.3,1.6 -10.8,8.8 -1.3,-1.6 z m 1.5,1.8 1.3,1.6 -10.8,8.8 -1.3,-1.6 z m 1.4,1.8 1.3,1.6 -10.8,8.8 -1.3,-1.6 z m 1.4,1.8 1.3,1.6 c -3.6,2.9 -7.2,5.9 -10.7,8.8 l -1.3,-1.6 z m 1.5,1.8 1.3,1.6 -10.7,8.9 -1.3,-1.6 c 3.5,-3 7.1,-5.9 10.7,-8.9 z m 1.4,1.8 1.3,1.6 c -3.6,3 -7.1,5.9 -10.7,8.9 l -1.3,-1.6 z m -65.4,-92.5 -4.4,-5.5 c 3.1,-2.4 7.6,-2.1 10.3,0.7 z m 62.9,-51.4 c -1,-1.5 -1.4,-3.3 -1.2,-5.1 0.2,-2 1.2,-3.9 2.8,-5.2 l 4.3,5.4 z m 14,-11.5 -4.6,-5.8 c 3.3,-2.5 7.9,-2.1 10.6,1 z m 73,-57.7 87.1,109 -74.5,60.9 -87.1,-109 z m -10.1,6.3 c -2.4,-3.4 -1.8,-8 1.4,-10.6 l 4.5,5.7 z m 124.9,140.4 -12.5,-3.1 0.5,-2 12.5,3.1 z m 0.6,-2.3 -12.5,-3.1 0.5,-2 12.5,3.1 z m 0.5,-2.2 -12.5,-3.1 0.5,-2 12.5,3.1 z m 0.5,-2.3 -12.5,-3.1 0.5,-2 12.5,3.1 z m 0.5,-2.2 -12.5,-3.1 0.5,-2 12.5,3 z m 0.5,-2.3 -12.5,-3 0.5,-2 12.5,3 z m 0.5,-2.2 -12.5,-3 0.5,-2 12.5,3 z m 0.5,-2.3 -12.5,-3 0.5,-2 12.5,3 z m 0.6,-2.2 -12.5,-3 0.5,-2 12.5,3 z m 0.5,-2.3 -12.5,-3 0.5,-2 12.4,2.9 z m 0.5,-2.2 -12.4,-2.9 0.5,-2 12.3,2.8 z m 0.5,-2.3 -12.4,-2.9 0.5,-2 12.4,2.9 z m 0.5,-2.2 -12.4,-2.9 0.4,-1.8 c 0.3,-1.1 -0.2,-2.2 -1.2,-2.8 -1,-0.6 -2.2,-0.5 -3,0.2 l -1.4,1.1 -7.8,-9.5 3.1,-2.5 c 5.3,-2.8 11.5,-2.8 16.3,0.2 5.7,3.6 8,10.3 6,18 z M 462,477 l 7.8,9.5 -1.6,1.3 -7.8,-9.5 z m -1.8,1.4 7.8,9.5 -1.6,1.3 -7.8,-9.6 z m -1.7,1.5 7.8,9.6 -1.6,1.3 -7.8,-9.6 z m -1.8,1.4 7.8,9.6 -1.6,1.3 -7.8,-9.6 z m -1.8,1.5 7.8,9.6 -1.6,1.3 -7.7,-9.6 z m -6.4,21.1 -7.7,-9.6 1.6,-1.3 7.7,9.6 z m 1.8,-1.5 -7.7,-9.6 1.6,-1.3 7.7,9.6 z m 1.8,-1.4 -7.7,-9.6 1.6,-1.3 7.7,9.6 z m 1.8,-1.5 -7.7,-9.6 1.6,-1.3 7.7,9.6 z m 1.8,-1.4 -7.7,-9.6 1.6,-1.3 7.7,9.6 z m 1.8,-1.5 -7.7,-9.6 1.6,-1.3 7.7,9.6 z m 1.8,-1.5 -7.7,-9.6 1.6,-1.3 7.7,9.6 z m 41.3,-51.6 -45.8,37.4 -87.1,-109 77.3,-63.2 67.1,84 z m -130,-75.8 -4.7,-5.9 c 3.3,-2.5 7.9,-2.1 10.7,1 z m 62.8,-51.4 c -1.2,-1.6 -1.7,-3.5 -1.4,-5.5 0.2,-2.1 1.2,-3.9 2.8,-5.2 l 4.6,5.8 z m -156,317.5 5.7,-4.8 c 2.6,3.2 2.3,7.8 -0.6,10.7 z m 17.4,22.5 v 5 l -59.4,0.1 37.1,-31 z m -68.1,-61.6 -4.8,-6.1 c 3.3,-2.6 8.2,-2 10.8,1.2 l -4.5,3.7 z m -12.5,-13.4 c 3.4,-2.5 8.2,-2 10.8,1.3 l -6,4.8 z m -4.9,-20.9 c 2.5,3.4 1.9,8.1 -1.3,10.8 l -4.7,-5.9 z m -86,-31.5 c -2,1.5 -4.4,2.2 -6.9,2 -2.5,-0.3 -4.8,-1.5 -6.4,-3.4 l 7.3,-6 z m -6.4,-7.9 c -2,1.5 -4.4,2.2 -6.8,2 -2.5,-0.3 -4.8,-1.5 -6.4,-3.4 l 7.3,-5.9 z m -13.5,-1.6 v 0 0.2 c 1.7,2 4,3.3 6.6,3.6 0.3,0 0.7,0.1 1,0.1 2.2,0 4.3,-0.7 6,-2.1 l 0.2,0.2 -7.4,6 -0.1,0.1 0.1,0.1 c 1.7,2 4,3.3 6.6,3.6 0.3,0 0.7,0.1 1,0.1 2.2,0 4.3,-0.7 6,-2.1 l 0.4,0.5 c -1.9,1.6 -3.2,3.9 -3.4,6.4 -0.3,2.6 0.4,5.2 2.1,7.2 l 0.1,0.1 7.5,-6 0.3,0.3 c -2,1.6 -3.2,3.9 -3.5,6.5 -0.3,2.6 0.4,5.2 2.1,7.2 l 0.1,0.1 7.6,-6 1.2,1.4 -8.5,6.8 C 116.9,544 103.5,535.6 89.2,528.6 l 20.6,-16.6 1.2,1.4 z m 26.6,17.8 -7.4,5.9 c -1.6,-2 -2.3,-4.5 -2,-7 0.3,-2.5 1.5,-4.7 3.4,-6.3 z m 6.5,8.1 -7.4,5.9 c -1.6,-2 -2.3,-4.5 -2,-7 0.3,-2.5 1.5,-4.7 3.4,-6.3 z m 1.8,1.1 -28.1,-34.9 22.7,-18.3 1.2,1.5 -7.3,5.9 -0.1,0.1 0.1,0.1 c 1.9,2.4 4.8,3.6 7.7,3.6 2.1,0 4.1,-0.6 5.9,-2 l 0.2,0.3 -7.3,5.9 -0.1,0.1 0.1,0.1 c 1.7,2 4,3.3 6.6,3.6 0.4,0 0.7,0.1 1,0.1 2.1,0 4.1,-0.7 5.8,-1.9 l 0.4,0.5 c -3.9,3.5 -4.4,9.4 -1.1,13.5 l 0.1,0.1 7.3,-5.9 0.3,0.3 c -1.8,1.6 -3,3.8 -3.2,6.3 -0.3,2.6 0.5,5.2 2.1,7.2 l 0.1,0.1 7.3,-5.9 1.2,1.4 z m 21.4,-19.9 -7.1,5.7 c -1.6,-2 -2.3,-4.5 -2,-7 0.3,-2.4 1.4,-4.6 3.2,-6.2 z m -6.5,-8.1 -7.1,5.7 c -3.2,-4 -2.6,-9.8 1.1,-13.1 z m -6.6,-8.1 c -1.9,1.4 -4.3,2.1 -6.7,1.8 -2.5,-0.3 -4.8,-1.5 -6.4,-3.4 l 7.2,-5.8 z m -6.5,-8.1 c -4.1,3.1 -9.9,2.4 -13.2,-1.6 l 7.2,-5.8 z m -9.6,52.4 43.8,-35.3 3.2,4.3 2.9,-2.4 29.9,37.4 -9.2,7.5 24.3,30.6 9.3,-7.5 33.9,42.5 -35.6,29.8 -26.3,0.1 c -14.9,-43 -41.6,-79.8 -76.2,-107 z m 331.7,56.8 -60.2,49.7 h -17.7 v -15.6 h 7.3 v -0.1 c 0,-4.2 -3.2,-7.6 -7.3,-7.9 v -2.6 l -34.3,-43.3 6.1,-4.9 4.9,5.8 0.1,0.1 0.1,-0.1 c 3.3,-2.8 3.8,-7.6 1.3,-10.9 l 14.7,-12 46.3,57.9 1.2,-0.9 -46.3,-57.9 13.9,-11.2 c 1.4,1.4 3.1,2.2 5.1,2.4 0.2,0 0.5,0 0.7,0 1.9,0 3.7,-0.7 5.2,-1.9 l 0.1,-0.1 -4.7,-5.5 7.6,-6.1 34.8,42.3 25.3,5.8 z m 50.5,-220.5 -71.3,-89.2 5.9,-4.7 4.7,5.9 0.1,-0.1 c 3.4,-2.7 4,-7.5 1.6,-11 l 31.3,-25.3 0.7,0.9 53.8,-43.4 9.3,9.3 z M 484.9,254.4 c 2.5,0.3 4.8,1.5 6.4,3.4 l -7.4,6 -6,-7.4 c 2,-1.6 4.5,-2.3 7,-2 z m -6.5,-8 c 2.5,0.3 4.8,1.5 6.4,3.4 l -7.4,6 -6,-7.4 c 2.1,-1.6 4.5,-2.3 7,-2 z m -6.2,-12.1 c 1.6,2 2.3,4.5 2,7 -0.3,2.5 -1.4,4.7 -3.3,6.3 l -6,-7.4 z m -7.8,5.2 -6,-7.4 7.3,-5.9 c 3.2,4.1 2.6,10 -1.3,13.3 z" class="wireColor"/>
  <path style="fill:#777777" id="path3942" d="M 531.2,7.5 V 0 h -0.1 c -4.2,0 -7.7,3.3 -7.9,7.4 h -1.9 C 521,3.3 517.6,0 513.3,0 h -0.1 V 7.5 H 512 V 7.2 h -7.2 v 0.2 h -6.2 v 16.8 c -4.1,0.3 -7.4,3.7 -7.4,7.9 v 0.1 h 7.4 V 43 L 575,137.3 604.3,7.5 Z M 531,0.2 v 7.2 h -7.6 c 0.3,-3.9 3.5,-7.1 7.6,-7.2 z m -17.6,0 c 4.1,0.1 7.4,3.2 7.6,7.2 h -7.6 z m -7.1,8.5 h 4.2 v 4.1 h -4.2 z m -14.9,23.4 c 0.1,-4 3.2,-7.3 7.2,-7.6 v 7.6 z M 573,128.9 502.4,41.7 V 11.2 h 2.5 v 3.1 h 7.2 v -3.1 h 87.6 z" class="wireColor"/>
  <path style="fill:#777777" id="path3944" d="m 130.3,466.1 0.1,-0.3 -20.3,-8.6 -0.1,0.4 c -4.6,12.8 -17.4,21.8 -31.1,21.8 -18.3,0 -33.1,-14.9 -33.1,-33.1 0,-3.5 0.1,-5.5 1.2,-8.8 l 0.1,-0.4 -21.6,-4.6 -0.1,0.4 c -1.1,4.4 -1.7,8.9 -1.7,13.4 0,30.4 24.7,55.1 55.1,55.1 22.7,0 43.4,-14.2 51.5,-35.3 z m -69.7,8.6 c 0.4,0.3 0.8,0.5 1.2,0.8 l -10.1,17.8 c -0.8,-0.5 -1.6,-1 -2.4,-1.5 z m -11.9,16.7 c -0.8,-0.5 -1.5,-1.1 -2.3,-1.6 l 12.4,-16.4 c 0.4,0.3 0.8,0.6 1.2,0.8 z m 13.8,-15.5 c 0.4,0.2 0.9,0.5 1.3,0.7 l -9,18.4 c -0.8,-0.4 -1.7,-0.8 -2.5,-1.3 z m 2,1 c 0.4,0.2 0.9,0.4 1.3,0.6 l -7.7,19 c -0.9,-0.4 -1.7,-0.7 -2.5,-1.1 z m 2,0.8 c 0.4,0.2 0.9,0.3 1.4,0.5 l -6.5,19.4 c -0.9,-0.3 -1.7,-0.6 -2.6,-1 z m 2.1,0.8 c 0.5,0.1 0.9,0.3 1.4,0.4 l -5.2,19.8 c -0.9,-0.2 -1.8,-0.5 -2.7,-0.8 z m 2.1,0.6 c 0.5,0.1 0.9,0.2 1.4,0.3 l -3.9,20.1 c -0.9,-0.2 -1.8,-0.4 -2.7,-0.6 z m 2.1,0.5 c 0.5,0.1 1,0.2 1.4,0.2 l -2.6,20.3 c -0.9,-0.1 -1.8,-0.3 -2.7,-0.4 z m 2.2,0.3 c 0.5,0.1 1,0.1 1.4,0.1 l -1.3,20.5 c -0.9,-0.1 -1.9,-0.2 -2.8,-0.3 z m 2.2,0.2 c 0.5,0 1,0 1.5,0 l 0.1,20.5 c -0.9,0 -1.9,0 -2.8,-0.1 z m 35.4,8.8 c -0.8,0.6 -1.6,1.2 -2.4,1.8 L 98.5,473.9 c 0.4,-0.3 0.8,-0.6 1.2,-0.9 z m -12.2,-16.5 c 0.4,-0.3 0.8,-0.7 1.2,-1 l 13.9,15.1 c -0.7,0.7 -1.5,1.3 -2.2,1.9 z m 9.2,18.6 c -0.8,0.6 -1.6,1.1 -2.5,1.6 L 96.6,475 c 0.4,-0.3 0.9,-0.5 1.3,-0.8 z m -3.1,2 c -8.1,4.8 -17.4,7.5 -27.1,7.6 l -0.1,-20.5 c 5.9,-0.1 11.6,-1.8 16.6,-4.7 z m 20.3,-21 c -0.5,0.9 -1,1.7 -1.5,2.5 l -17.4,-10.8 c 0.3,-0.4 0.5,-0.9 0.8,-1.3 z M 109,461.8 c 0.2,-0.5 0.5,-0.9 0.7,-1.4 l 18.7,8.3 c -0.4,0.9 -0.8,1.8 -1.3,2.6 z m 15.9,13.4 c -0.5,0.8 -1.1,1.6 -1.6,2.4 l -16.6,-12 c 0.3,-0.4 0.6,-0.8 0.9,-1.3 z m -2.1,3.1 c -0.6,0.8 -1.2,1.6 -1.8,2.3 l -15.8,-13.1 c 0.3,-0.4 0.6,-0.8 0.9,-1.2 z m -2.3,2.9 c -0.6,0.7 -1.3,1.5 -2,2.2 l -14.9,-14.1 c 0.4,-0.4 0.7,-0.8 1,-1.2 z m -9.9,-23 18.9,8 c -0.2,0.6 -0.5,1.2 -0.8,1.9 L 110,459.7 c 0.2,-0.5 0.4,-1 0.6,-1.5 z m -7.4,11.6 14.9,14.1 c -0.7,0.7 -1.4,1.4 -2.1,2.1 l -13.9,-15.1 c 0.4,-0.4 0.7,-0.7 1.1,-1.1 z m -58,-27.6 c 0,0.4 -0.1,0.9 -0.1,1.4 l -20.4,-1.4 c 0.1,-0.9 0.1,-1.8 0.3,-2.7 z m -20.1,-3.4 c 0.1,-0.9 0.3,-1.8 0.4,-2.6 l 20,3.9 c -0.1,0.5 -0.2,0.9 -0.2,1.4 z m 20,5.5 c 0,0.4 0,0.9 0,1.4 l -20.5,-0.1 c 0,-0.9 0,-1.8 0.1,-2.7 z m 0,2.2 c 0,0.5 0,0.9 0,1.4 L 24.6,449 c 0,-0.9 -0.1,-1.8 -0.1,-2.7 z m 0,2.1 c 0,0.5 0.1,0.9 0.1,1.4 l -20.3,2.5 c -0.1,-0.9 -0.2,-1.8 -0.2,-2.7 z m 0.3,2.1 c 0.1,0.5 0.1,0.9 0.2,1.4 l -20.1,3.8 c -0.2,-0.9 -0.3,-1.8 -0.4,-2.6 z m 0.3,2.1 c 0.1,0.5 0.2,0.9 0.3,1.4 l -19.9,5 c -0.2,-0.9 -0.4,-1.7 -0.6,-2.6 z m 0.5,2.1 c 0.1,0.4 0.2,0.9 0.4,1.3 L 27,462.5 c -0.3,-0.8 -0.5,-1.7 -0.7,-2.6 z m 0.6,2 c 0.1,0.4 0.3,0.9 0.5,1.3 l -19.1,7.5 c -0.3,-0.8 -0.6,-1.7 -0.9,-2.5 z m -0.7,-19.2 c -0.2,0.6 -0.3,1.2 -0.5,1.7 l -20,-3.9 c 0.1,-0.7 0.3,-1.4 0.4,-2.1 z m -17.6,28.7 19.1,-7.5 c 2.3,5.6 6,10.4 10.7,14.1 L 45.9,489.3 C 38.2,483.5 32.1,475.6 28.5,466.4 Z" class="wireColor"/>
  <path style="fill:#6acf66;stroke:none;stroke-width:1px;stroke-linecap:butt;stroke-linejoin:miter;stroke-opacity:1;fill-opacity:0.2820513;fill-rule:nonzero" d="m 211.8,497.6 79.1,-62.9 88.3,108.1 -78.5,64.1 z" id="CW1"/>
  <path style="fill:#429f60;stroke:none;stroke-width:1px;stroke-linecap:butt;stroke-linejoin:miter;stroke-opacity:1;fill-opacity:0.21649487" d="m 66,87.9 47.3,57.9 68.3,-55.7 -22.4,-27.6 H 97.6 Z" id="CW6"/>
  <path style="fill:#729f42;stroke:none;stroke-width:1px;stroke-linecap:butt;stroke-linejoin:miter;stroke-opacity:1;fill-opacity:0.21649484" d="m 58.6,93.9 47.3,58 -71.9,58.7 -16.9,-21.1 -4.6,0.8 V 131 Z" id="CW5"/>
  <path style="fill:#beaa68;stroke:none;stroke-width:1px;stroke-linecap:butt;stroke-linejoin:miter;stroke-opacity:1;fill-opacity:0.2820513" d="m 272.5,630.4 22.3,25.9 v 5 l -59.4,0.1 z" id="path5178"/>
  <path style="fill:#e6bc16;stroke:none;stroke-width:1px;stroke-linecap:butt;stroke-linejoin:miter;stroke-opacity:1;fill-opacity:0.2820513" d="m 369.7,618.7 -7.4,6.1 4.6,5.7 -26.3,19.8 8.6,10.6 33.6,-0.1 -0.1,-25.7 z" id="path5184"/>
  <path style="fill:#6a89bc;fill-opacity:0.2820513;stroke:none;stroke-width:1px;stroke-linecap:butt;stroke-linejoin:miter;stroke-opacity:1" d="m 378.4,568.7 27.9,-22.4 34.8,42.3 25.3,5.8 -4.2,17 -29.4767,25.16026 z" id="path5186"/>
  <path style="fill:#ae59cd;stroke:none;stroke-width:1px;stroke-linecap:butt;stroke-linejoin:miter;stroke-opacity:1;fill-opacity:0.2820513" d="m 407.3,545 33.9,-27.4 26.6,32.9 8,2 -9.2,40.1 -24.8,-5.7 z" id="path5188"/>
  <path style="fill:#569892;stroke:none;stroke-width:1px;stroke-linecap:butt;stroke-linejoin:miter;stroke-opacity:1;fill-opacity:0.21649484" d="m 158.8,165.5 c 0,0 54.40127,-26.11853 109.1,1.4 2.92076,1.46941 58.75136,71.18825 60.1,75.5 17.13374,54.77845 -20.3,106.7 -20.3,106.7 0,0 -88.28248,-28.46806 -115.31687,-62.77268 C 167.27719,254.46975 158.8,165.5 158.8,165.5 Z" id="CW4"/>
  <path style="fill:#785698;fill-opacity:0.21649487;stroke:none;stroke-width:1px;stroke-linecap:butt;stroke-linejoin:miter;stroke-opacity:1" d="m 194.55942,288.06834 c -3.60612,-3.90542 -99.673622,82.69863 -99.673622,82.69863 0,0 87.964312,107.57815 211.243692,-19.4612 5.65764,-5.8302 -73.07015,-21.54208 -111.57007,-63.23743 z" id="path5194"/>
  <path style="fill:#d79e4d;stroke:none;stroke-width:1px;stroke-linecap:butt;stroke-linejoin:miter;stroke-opacity:1;fill-opacity:0.21649487" d="M 194.55942,288.06834 C 163.11784,255.11744 164.04964,162.3423 158.8,165.5 7.1874874,256.6961 94.885798,370.76697 94.885798,370.76697 126.95881,338.89124 194.55942,288.06834 194.55942,288.06834 Z" id="path5196"/>
</svg>