<?xml version="1.0" encoding="utf-8"?>
<!-- Generator: Adobe Illustrator 20.0.0, SVG Export Plug-In . SVG Version: 6.00 Build 0)  -->
<svg version="1.1" id="Warstwa_1" xmlns="http://www.w3.org/2000/svg" xmlns:xlink="http://www.w3.org/1999/xlink" x="0px" y="0px"
	 viewBox="0 0 1267 182.7" style="enable-background:new 0 0 1267 182.7;" xml:space="preserve">
<style type="text/css">.wireColor{fill: #777777;}.nofloorColor{fill: #F2F2F2;}.arrowColor{fill: #EA5906;}.eventColor{opacity: 0.3; fill: #F59E16; transition: 1s fill;}.wcColor{opacity: 0.3; fill: #3693B2;}.stairsColor{opacity: 0.3; fill: #73cc15;}.transparentObject{fill: 0;}.riverColor{fill: #B9DDEF;}.mapElements{fill: #E2E2E2;}.tramColor{fill: #73CC15;}.mapArrows{fill: #BFBFBF;}.buildingFill{fill: #E5E5E5;}.eventColor.active{opacity: 0.3; fill: red; -webkit-animation: alertOpacity 2s infinite alternate; animation: alertOpacity 2s infinite alternate;}@-webkit-keyframes alertOpacity{0%{opacity: 0.3;}50%{opacity: 0.5;}100%{opacity: 0.3;}}@keyframes alertOpacity{0%{opacity: 0.3;}50%{opacity: 0.5;}100%{opacity: 0.3;}}#guideSpot .eventColor.active{fill: red; opacity: 1; r: 10; transform-origin: 150px 150px; -webkit-transform-origin: 50% 50%; -webkit-animation: alertScale 2s infinite alternate; animation: alertScale 2s infinite alternate;}@-webkit-keyframes alertScale{0%{-webkit-transform: scale(1, 1);}50%{-webkit-transform: scale(2, 2);}100%{-webkit-transform: scale(1, 1);}}@keyframes alertScale{0%{transform: scale(1, 1);}50%{transform: scale(2, 2);}100%{transform: scale(1, 1);}}</style>
<g id="description">
	<g>
		<path class="wireColor" d="M702.3,18.4v0.4h-1.4v-0.4c0-1.2-0.5-1.9-1.5-1.9s-1.5,0.7-1.5,1.9c0,3,4.4,3.3,4.4,7c0,2-1,3.3-3,3.3
			s-3-1.3-3-3.3v-0.8h1.4v0.8c0,1.2,0.5,1.9,1.6,1.9s1.6-0.7,1.6-1.9c0-3-4.4-3.2-4.4-7c0-2,0.9-3.3,2.9-3.3
			C701.3,15.1,702.3,16.4,702.3,18.4z"/>
		<path class="wireColor" d="M705.1,25.8l-0.5,2.7h-1.4l2.5-13.2h2.1l2.5,13.2h-1.5l-0.5-2.7H705.1z M705.2,24.6h3l-1.5-7.6L705.2,24.6z"
			/>
		<path class="wireColor" d="M711.5,28.5V15.3h1.5v11.9h3.8v1.3H711.5z"/>
		<path class="wireColor" d="M719.4,25.8l-0.5,2.7h-1.4l2.5-13.2h2.1l2.5,13.2h-1.5l-0.5-2.7H719.4z M719.6,24.6h3l-1.5-7.6L719.6,24.6z"
			/>
		<path class="wireColor" d="M709,43.1c0,8-9,10.9-9,17v0.4h8.7v2.7h-11.6v-2.3c0-8.6,9-10.2,9-17.7c0-2.7-0.9-4.2-3.1-4.2
			c-2.2,0-3.1,1.6-3.1,3.9v2.3h-2.8V43c0-4.1,1.9-6.7,5.9-6.7C707.1,36.4,709,39.1,709,43.1z"/>
		<path class="wireColor" d="M722.5,57.9v5.3h-2.9v-5.3H711v-2.7l8.2-18.5h3.2v18.5h2.1v2.7H722.5z M713.8,55.2h5.8v-13L713.8,55.2z"/>
	</g>
	<g>
		<path class="wireColor" d="M549.8,85.2h3.5V82h1.1v4.4h-3.3l0.8,0.8h-1.1l-0.8-0.8h-6.6v-1.2h5.3l-1.8-1.7h1.1L549.8,85.2z"/>
		<path class="wireColor" d="M554.4,75.9c0.3,0.4,0.8,0.6,1.1,0.6s0.5-0.3,0.5-0.6c0-0.3-0.1-0.5-0.1-0.6h0.6c0.1,0.3,0.2,0.6,0.2,1
			c0,0.7-0.3,1.2-0.9,1.2c-0.4,0-0.9-0.3-1.3-0.8l-2.3,0.5V80l2.2,0.4v1.1l-11-2.1v-1.8l11-2.1V75.9z M551.1,79.7v-2.5l-6.4,1.2
			L551.1,79.7z"/>
		<path class="wireColor" d="M546,69.6h1v1.2h-1c-1,0-1.6,0.4-1.6,1.3s0.6,1.3,1.6,1.3h5.8c1,0,1.6-0.4,1.6-1.3s-0.6-1.3-1.6-1.3h-1.4
			v-1.2h1.4c1.7,0,2.8,0.8,2.8,2.5s-1.1,2.5-2.8,2.5H546c-1.7,0-2.8-0.8-2.8-2.5C543.3,70.4,544.4,69.6,546,69.6z"/>
		<path class="wireColor" d="M554.4,63.7v5h-1.1l-8.8-3.8v3.6h-1.1v-4.9h1.1l8.8,3.8v-3.8h1.1V63.7z"/>
		<path class="wireColor" d="M554.4,61.5v1.1h-11V61l8-2.6h-8v-1.1h11v1.3l-8.9,2.8L554.4,61.5L554.4,61.5z"/>
		<path class="wireColor" d="M543.4,54.9h11v1.2h-11V54.9z"/>
		<path class="wireColor" d="M549.6,51.8l1.1,0.6h3.7v1.2h-11v-1.2h5.3l-5.3-2.9v-1.2l5,2.8l6-2.9v1.3L549.6,51.8z"/>
	</g>
	<g id="arrowBM">
		<polygon class="wireColor" points="548.6,15.3 539.9,30.5 544,30.5 544.1,43.8 553.3,43.8 553.3,30.5 557.4,30.4 		"/>
	</g>
</g>
<g id="hotSpot">
	<rect x="152.6" y="3.1" class="stairsColor" width="43.9" height="69.8"/>
	<rect x="567.1" y="3.1" class="stairsColor" width="43.9" height="69.8"/>
	<rect x="987.1" y="3.1" class="stairsColor" width="43.9" height="69.8"/>
	<rect x="1031" y="37.6" class="stairsColor" width="45.5" height="35.8"/>
	<rect x="196.5" y="38.2" class="stairsColor" width="25.2" height="35.2"/>
</g>
<g id="wire">
	<path class="wireColor" d="M8.9,0v75.1H0v0.4c0,5.2,3.9,9.5,8.9,10.1v12.2c-5,0.6-8.9,4.9-8.9,10.1v0.4h8.9v74.6H1267V0H8.9z
		 M1263.3,72.6h-33.1V3.8h33.1V72.6z M12.7,74.1h22.5V75h-9.9v0.4c0,5.5,4.4,10,9.9,10.1v12.1c-5.5,0.1-9.9,4.6-9.9,10.1v0.4h9.9
		v0.9H12.7V74.1z M356.4,14V3.8h72.5v68.9h-72.5V25.4h-0.8v47.2h-24.1V3.8h24.1V14H356.4z M497.5,14V3.8h32.7v68.9h-32.7V25.4h-0.8
		v47.2h-66.3V3.8h66.3V14H497.5z M548.2,3.8c-0.8,5.9-5.8,10.6-11.9,10.7V3.8H548.2z M535.9,15.2c6.7,0,12.2-5,13-11.5h0.6
		c0.8,6.5,6.3,11.5,13,11.5h0.4V3.8h3.9V73h1.5l0,0h0.6h7.9h9.9h7.9h7.1h7.9h0.3v1.3l48.8-0.4V74l0,0v4.9v13.5v0.3v13.5v3.1
		l-127.2,0.2V109h-8.3v-3h12.7v-0.4c0-7.1-5.7-12.9-12.7-13.1v-0.4c7-0.2,12.7-6,12.7-13.1v-0.4h-12.7v-4.7h8.3V3.8h3.9v11.5h0.5
		L535.9,15.2L535.9,15.2z M562.1,3.8v10.7C556,14.3,551,9.7,550.2,3.8H562.1z M767.8,72.9V3.8h31V73H736V3.8h31V73L767.8,72.9
		L767.8,72.9z M941.9,93.5v20.3h-43.8v-13.1h-33.3v31.4h-205v-22.9h-0.3v-3.1h12.7v-0.4c0-7.1-5.7-12.9-12.7-13.1v-0.4
		c7-0.2,12.7-6,12.7-13.1v-0.4h-12.7v-4.9h0.7v-0.1l25.3-0.2v-0.2h0.2v-0.2h49.5v0.6h63.4v29.9H828V64.5h36.9v14.3h33.3V59h43.1
		v14.1h45.5v0.3h1.5v-0.3h0.6h7.9h9.9h7.9h7.1h7.9h0.6v1h7.1c0.4,5.5,5,9.9,10.6,9.9h0.4v-9.9h12.4c0.4,5.5,5,9.9,10.6,9.9h0.4v-9.9
		h86.5v13.8h-10.5v0.4c0,6,4.6,11,10.5,11.5v9.6l-170.3-0.2V93.5H941.9z M659.6,79.6h11.9c-0.2,6.5-5.4,11.8-11.9,11.9V79.6z
		 M659.6,93.4c6.5,0.2,11.8,5.4,11.9,11.9h-11.9V93.4z M610,72.1h-0.3V65h-0.4c-4,0-7.3,3.2-7.5,7.2h-7.2c-0.2-4-3.5-7.2-7.5-7.2
		h-0.4v7.2h-9.9c-0.2-4-3.5-7.2-7.5-7.2h-0.4v7.2h-0.6V57.8h20.1v0.1h1.5v-3.5H610V72.1z M608.9,72.1h-6.4c0.2-3.5,3-6.2,6.4-6.4
		V72.1z M593.9,72.1h-6.4v-6.4C590.9,65.9,593.7,68.7,593.9,72.1z M576,72.1h-6.4v-6.4C573.1,65.9,575.8,68.7,576,72.1z M568.2,18.9
		h20.1v2.8h-20.1V18.9z M610,39.6h-20.1v-3.1H610V39.6z M610,35.7h-20.1v-2.6H610V35.7z M610,32.4h-20.1v-2.8H610V32.4z M610,28.8
		h-20.1v-3H610V28.8z M610,25.1h-20.1v-2.6H610V25.1z M589.9,40.3H610v2.8h-20.1V40.3z M610,21.7h-20.1v-2.8H610V21.7z M568.2,22.5
		h20.1v2.6h-20.1V22.5z M568.2,25.8h20.1v3h-20.1V25.8z M568.2,29.5h20.1v2.8h-20.1V29.5z M568.2,33.1h20.1v2.6h-20.1V33.1z
		 M568.2,36.4h20.1v3.1h-20.1V36.4z M568.2,40.3h20.1v2.8h-20.1V40.3z M568.2,43.9h20.1v2.6h-20.1V43.9z M568.2,47.2h20.1v3h-20.1
		V47.2z M568.2,51h20.1v2.7h-20.1V51z M568.2,54.4h20.1v2.7h-20.1V54.4z M610,53.7h-20.1V51H610V53.7z M610,50.2h-20.1v-3H610V50.2z
		 M610,46.5h-20.1v-2.6H610V46.5z M611.5,43.9h23.3v28.6l-23.3,0.2V43.9z M635.5,43.9h23.3v28.4l-23.3,0.2V43.9z M988.3,19.3h20.1
		v2.8h-20.1V19.3z M1030.2,54.1h-20.4v-2.7h20.4V54.1z M1030.2,50.6h-20.4v-3h20.4V50.6z M1030.2,46.9h-20.4v-2.6h20.4V46.9z
		 M1030.2,43.6h-20.4v-2.8h20.4V43.6z M1030.2,40h-20.4v-3.1h20.4V40z M1030.2,36.1h-20.4v-2.6h20.4V36.1z M1030.2,32.8h-20.4V30
		h20.4V32.8z M1030.2,29.2h-20.4v-3h20.4V29.2z M1030.2,25.5h-20.4v-2.6h20.4V25.5z M1030.2,22.1h-20.4v-2.8h20.4V22.1z M988.3,22.9
		h20.1v2.6h-20.1V22.9z M988.3,26.2h20.1v3h-20.1V26.2z M988.3,29.9h20.1v2.8h-20.1V29.9z M988.3,33.5h20.1v2.6h-20.1V33.5z
		 M988.3,36.8h20.1V40h-20.1V36.8z M988.3,40.7h20.1v2.8h-20.1V40.7z M988.3,44.3h20.1v2.6h-20.1V44.3z M988.3,47.6h20.1v3h-20.1
		V47.6z M988.3,51.4h20.1v2.7h-20.1V51.4z M988.3,54.8h20.1v2.7h-20.1V54.8z M988.3,58.2h20.1v0.1h1.5v-3.5h20.4v17.5h-0.6v-7.2
		h-0.4c-4,0-7.3,3.2-7.5,7.2h-7.2c-0.2-4-3.5-7.2-7.5-7.2h-0.4v7.2h-9.9c-0.2-4-3.5-7.2-7.5-7.2h-0.4v7.2h-0.6L988.3,58.2
		L988.3,58.2z M1028.9,72.4h-6.4c0.2-3.5,3-6.2,6.4-6.4V72.4z M1013.9,72.4h-6.4V66C1010.9,66.1,1013.7,68.9,1013.9,72.4z M996,72.4
		h-6.4V66C993.1,66.1,995.8,68.9,996,72.4z M1075.8,72.6h-21.3V38.4h21.3V72.6z M1071,74.1v9.1c-5-0.2-9.1-4.1-9.4-9.1H1071z
		 M1053,72.6h-21.3V38.4h21.3V72.6z M1047.6,74.1v9.1c-5-0.2-9.1-4.1-9.4-9.1H1047.6z M1158.2,99c-5.3-0.5-9.5-4.9-9.7-10.4h9.7V99z
		 M1124.4,72.6V3.8h34.2v68.9h-34.2V72.6z M1122.9,72.6h-45.6V36.9h-45.5V3.8h91.1V72.6z M1030.2,18.5h-20.4v-0.2h-1.5v0.2h-20.1
		V3.8h42V18.5z M986.8,72.4H942V3.8h44.8V72.4z M941.2,58.2h-43.1V3.8h43.1V58.2z M897.4,58.2v0.4v19.5h-31.8V3.8h31.8V58.2z
		 M864.9,63.8H828v-60h36.9V63.8z M827.2,64.1v0.4v38.4h-27.7V3.8h27.7V64.1z M735.3,72.4h-49.5V3.8h49.5V72.4z M684.3,72.1l-24,0.2
		V42.4h-48.8V3.8h72.8V72.1z M610,18.1h-20.1v-0.2h-1.5v0.2h-20.1V3.8H610V18.1z M290.5,109v-0.9V97.6v-12V75.1v-0.9h55.8
		c0.4,4.3,4,7.6,8.4,7.6h0.4v-7.6h157.4c0.4,4.3,4,7.6,8.4,7.6h0.4v-7.6h1.5v4.7v13.5v0.3v13.5v3H290.5V109z M289.7,107.4h-9
		c0.2-4.9,4.1-8.8,9-9V107.4z M289.7,84.8c-4.9-0.2-8.8-4.1-9-9h9V84.8z M354.3,74.1V81c-3.8-0.2-6.9-3.1-7.2-6.9H354.3z
		 M520.4,74.1V81c-3.8-0.2-6.9-3.1-7.2-6.9H520.4z M523.4,79.6h11.9c-0.2,6.5-5.4,11.8-11.9,11.9V79.6z M523.4,93.4
		c6.5,0.2,11.8,5.4,11.9,11.9h-11.9V93.4z M330.8,72.6h-42V3.8h42V72.6z M288.1,72.6h-40.4V37.5h-50.4V3.8h90.8L288.1,72.6
		L288.1,72.6z M222.5,56c3.9,0.4,7.1,3.6,7.2,7.6h-7.2V56z M222.5,47.2h7.2c-0.2,4-3.3,7.2-7.2,7.6V47.2z M197.3,39H221v33.7h-23.7
		V39z M195.8,72.4h-0.9v-7.2h-0.4c-4,0-7.3,3.2-7.5,7.2h-7.2c-0.2-4-3.5-7.2-7.5-7.2h-0.4v7.2H162c-0.2-4-3.5-7.2-7.5-7.2H154v7.2
		h-0.6V58.2h20.1v0.1h1.5v-3.5h20.8V72.4z M194.1,72.4h-6.4c0.2-3.5,3-6.2,6.4-6.4V72.4z M179.1,72.4h-6.4V66
		C176.1,66.2,178.9,69,179.1,72.4z M161.2,72.4h-6.4V66C158.2,66.2,161,69,161.2,72.4z M153.4,19.2h20.1V22h-20.1V19.2z M153.4,22.8
		h20.1v2.6h-20.1V22.8z M153.4,26.1h20.1v3h-20.1V26.1z M153.4,29.8h20.1v2.8h-20.1V29.8z M153.4,33.4h20.1V36h-20.1V33.4z
		 M153.4,36.8h20.1v3.1h-20.1V36.8z M153.4,40.6h20.1v2.8h-20.1V40.6z M153.4,44.2h20.1v2.6h-20.1V44.2z M153.4,47.6h20.1v3h-20.1
		V47.6z M153.4,51.3h20.1V54h-20.1V51.3z M153.4,54.7h20.1v2.7h-20.1V54.7z M195.8,54H175v-2.7h20.8V54z M195.8,50.5H175v-3h20.8
		V50.5z M195.8,46.8H175v-2.6h20.8V46.8z M195.8,43.5H175v-2.8h20.8V43.5z M195.8,39.9H175v-3.1h20.8V39.9z M195.8,36H175v-2.6h20.8
		V36z M195.8,32.7H175v-2.8h20.8V32.7z M195.8,29.1H175v-3h20.8V29.1z M195.8,25.4H175v-2.6h20.8V25.4z M195.8,22H175v-2.8h20.8V22z
		 M195.8,18.5H175v-0.2h-1.5v0.2h-20.1V3.8h42.4L195.8,18.5L195.8,18.5z M115.4,72.6h-34V3.8h34V72.6z M116.2,3.8h35.7v68.9h-35.7
		V3.8z M80.7,39H46.3V3.8h34.4V39z M80.7,39.7v32.9h-68V39.7H80.7z M35,75.8v9c-4.9-0.2-8.8-4.1-9-9H35z M35,98.4v9h-9
		C26.2,102.5,30.2,98.6,35,98.4z M36,74.1h24.7V75h-9.8v0.4c0,5.5,4.3,9.9,9.8,10.1v12.1c-5.4,0.2-9.8,4.6-9.8,10.1v0.4h9.8v0.9H36
		V74.1z M60.7,107.4h-9c0.2-4.9,4.1-8.8,9-9V107.4z M60.7,84.8c-4.9-0.2-8.8-4.1-9-9h9V84.8z M61.4,108.1V97.6v-12V75.1v-0.9h92
		v-0.9h0.6h7.9h9.9h7.9h7.1h7.9h0.9v0.9h26.7v-9.8h8V64c0-4.2-3-7.8-7-8.6c4-0.8,7-4.3,7-8.6v-0.4h-8V39H246v35.2h43.5v0.9H280v0.4
		c0,5.5,4.3,9.9,9.8,10.1v12.1c-5.4,0.2-9.8,4.6-9.8,10.1v0.4h9.8v0.9h-0.4h-228C61.4,109.1,61.4,108.1,61.4,108.1z M115.1,110.5
		v22.2H81v-22.2H115.1z M81,133.4h27.5v39.1h6.6v6.4H81V133.4z M109.2,171.8v-38.4h6.6v-22.9h173.5v68.4H115.8v-7.1L109.2,171.8
		L109.2,171.8z M290.8,110.5h32.7v68.4h-32.7V110.5z M324.2,110.5H358v68.4h-33.7L324.2,110.5L324.2,110.5z M358.7,110.5h70.2v68.4
		h-70.2V110.5z M430.4,110.5h99.7v68.4h-99.7L430.4,110.5L430.4,110.5z M531.7,110.2l127.5-0.2v69H531.7V110.2z M659.9,132.8h205
		v46.1h-205V132.8z M865.6,101.4h31.8v12.4v0.4V179h-31.8V101.4z M898.1,114.5h43.8v64.4h-43.8V114.5z M942.6,94.3h44.5v15.3v0.4v69
		h-44.5V94.3z M987.9,109.9l170.3,0.2v68.7H987.9V109.9z M1159.3,72.6V3.8h33.4v68.9h-33.4V72.6z M1229.4,50.5h-35.2V3.8h35.2V50.5z
		 M1194.2,51.3h35.2v21.4h-35.2V51.3z M45.6,3.8V39H12.7V3.8H45.6z M0.8,75.8H9v8.9C4.5,84.2,0.9,80.4,0.8,75.8z M0.8,107.4
		C1,102.8,4.5,99,9,98.5v8.9H0.8z M12.7,110.5h66.8v68.4H12.7V110.5z M1159.7,178.9V74.1h103.6v104.8H1159.7z"/>
</g>
<g id="eventSpot">
	<rect id="sala24" x="685.6" y="3.6" class="eventColor" width="49.7" height="69.2"/>
</g>
</svg>
