<?xml version="1.0" encoding="utf-8"?>
<!-- Generator: Adobe Illustrator 20.0.0, SVG Export Plug-In . SVG Version: 6.00 Build 0)  -->
<svg version="1.1" id="Warstwa_1" xmlns="http://www.w3.org/2000/svg" xmlns:xlink="http://www.w3.org/1999/xlink" x="0px" y="0px"
	 viewBox="0 0 1258.1 291.2" style="enable-background:new 0 0 1258.1 291.2;" xml:space="preserve">
<style type="text/css">.wireColor{fill: #777777;}.nofloorColor{fill: #F2F2F2;}.arrowColor{fill: #EA5906;}.eventColor{opacity: 0.3; fill: #F59E16; transition: 1s fill;}.wcColor{opacity: 0.3; fill: #3693B2;}.stairsColor{opacity: 0.3; fill: #73cc15;}.transparentObject{fill: 0;}.riverColor{fill: #B9DDEF;}.mapElements{fill: #E2E2E2;}.tramColor{fill: #73CC15;}.mapArrows{fill: #BFBFBF;}.buildingFill{fill: #E5E5E5;}.eventColor.active{opacity: 0.3; fill: red; -webkit-animation: alertOpacity 2s infinite alternate; animation: alertOpacity 2s infinite alternate;}@-webkit-keyframes alertOpacity{0%{opacity: 0.3;}50%{opacity: 0.5;}100%{opacity: 0.3;}}@keyframes alertOpacity{0%{opacity: 0.3;}50%{opacity: 0.5;}100%{opacity: 0.3;}}#guideSpot .eventColor.active{fill: red; opacity: 1; r: 10; transform-origin: 150px 150px; -webkit-transform-origin: 50% 50%; -webkit-animation: alertScale 2s infinite alternate; animation: alertScale 2s infinite alternate;}@-webkit-keyframes alertScale{0%{-webkit-transform: scale(1, 1);}50%{-webkit-transform: scale(2, 2);}100%{-webkit-transform: scale(1, 1);}}@keyframes alertScale{0%{transform: scale(1, 1);}50%{transform: scale(2, 2);}100%{transform: scale(1, 1);}}</style>
<g id="description">
	<g id="arrowE">
		<polygon class="arrowColor" points="1009.9,195.5 997.2,217.7 1003.2,217.7 1003.3,237.3 1016.8,237.2 1016.7,217.6 1022.8,217.6 		"/>
	</g>
	<g>
		<path class="wireColor" d="M989.9,258.6h-1.5l-1.3-9.5h1l1.1,8.1l1.1-8.1h1l1,8.1l1.1-8.1h0.9l-1.3,9.5h-1.4l-0.9-6.5L989.9,258.6z"/>
		<path class="wireColor" d="M998.7,253.3v1h-2.3v3.4h2.9v1h-3.9v-9.5h3.9v1h-2.9v3.2h2.3V253.3z"/>
		<path class="wireColor" d="M999.9,257.6c0.2,0,0.4,0,0.5,0c0.7,0,1.1-0.4,1.1-1.3v-7.2h1v7.2c0,1.8-0.9,2.3-2,2.4c-0.2,0-0.4,0-0.7,0
			v-1.1H999.9z"/>
		<path class="wireColor" d="M1007.8,251.4v0.3h-1v-0.3c0-0.9-0.3-1.4-1.1-1.4s-1.1,0.5-1.1,1.3c0,2.1,3.2,2.3,3.2,5
			c0,1.4-0.7,2.4-2.1,2.4s-2.1-0.9-2.1-2.4v-0.5h1v0.6c0,0.9,0.4,1.4,1.1,1.4s1.1-0.5,1.1-1.4c0-2.1-3.2-2.3-3.2-5
			c0-1.5,0.7-2.4,2.1-2.4S1007.8,249.9,1007.8,251.4z M1007,247.1l-1.3,1.4h-0.7l0.9-1.4H1007z"/>
		<path class="wireColor" d="M1012.9,251.4v0.9h-1v-0.9c0-0.9-0.3-1.4-1.1-1.4s-1.1,0.5-1.1,1.4v5c0,0.9,0.4,1.4,1.1,1.4
			c0.8,0,1.1-0.5,1.1-1.4v-1.2h1v1.2c0,1.4-0.7,2.4-2.1,2.4c-1.5,0-2.1-1-2.1-2.4v-4.9c0-1.4,0.7-2.4,2.1-2.4
			C1012.2,249,1012.9,249.9,1012.9,251.4z"/>
		<path class="wireColor" d="M1014.9,249.1v9.5h-1.1v-9.5H1014.9z"/>
		<path class="wireColor" d="M1019.4,253.3v1h-2.3v3.4h2.9v1h-3.9v-9.5h3.9v1h-2.9v3.2h2.3V253.3z"/>
		<path class="wireColor" d="M1025.2,249.1c1.5,0,2.2,0.9,2.2,2.4v4.8c0,1.5-0.7,2.3-2.2,2.3h-2.2v-9.5L1025.2,249.1L1025.2,249.1z
			 M1025.2,257.6c0.8,0,1.1-0.5,1.1-1.3v-4.9c0-0.9-0.4-1.3-1.1-1.3h-1.1v7.6h1.1V257.6z"/>
		<path class="wireColor" d="M1028.3,251.4c0-1.5,0.7-2.4,2.2-2.4s2.2,0.9,2.2,2.4v4.9c0,1.4-0.7,2.4-2.2,2.4s-2.2-1-2.2-2.4V251.4z
			 M1029.3,256.4c0,0.9,0.4,1.4,1.1,1.4c0.8,0,1.1-0.5,1.1-1.4v-5c0-0.9-0.4-1.4-1.1-1.4c-0.8,0-1.1,0.5-1.1,1.4V256.4z"/>
		<path class="wireColor" d="M971.9,265.4c1.5,0,2.1,0.7,2.1,2.1v0.4c0,1-0.3,1.6-1.1,1.9c0.9,0.3,1.3,1,1.3,2v0.8c0,1.4-0.7,2.2-2.2,2.2
			h-2.2v-9.5h2.1V265.4z M971.6,269.4c0.8,0,1.3-0.3,1.3-1.3v-0.6c0-0.8-0.3-1.2-1-1.2h-1v3.1H971.6z M972,273.9
			c0.8,0,1.1-0.4,1.1-1.3v-0.8c0-1.1-0.4-1.4-1.3-1.4h-0.9v3.5L972,273.9L972,273.9z"/>
		<path class="wireColor" d="M976.1,272.6c0,0.9,0.3,1.4,1.1,1.4s1.1-0.5,1.1-1.4v-7.3h1v7.2c0,1.4-0.7,2.4-2.1,2.4c-1.5,0-2.1-1-2.1-2.4
			v-7.2h1V272.6z"/>
		<path class="wireColor" d="M982.6,265.4c1.5,0,2.2,0.9,2.2,2.4v4.8c0,1.5-0.7,2.3-2.2,2.3h-2.2v-9.5L982.6,265.4L982.6,265.4z
			 M982.6,273.9c0.8,0,1.1-0.5,1.1-1.3v-4.9c0-0.9-0.4-1.3-1.1-1.3h-1.1v7.6h1.1V273.9z"/>
		<path class="wireColor" d="M987.2,271.5l-2-6.1h1.1l1.5,4.7l1.5-4.7h1l-2,6.1v3.4h-1L987.2,271.5L987.2,271.5z"/>
		<path class="wireColor" d="M992,274.9h-1v-9.5h1.3l2.2,6.9v-6.9h0.9v9.5h-1.1l-2.4-7.7L992,274.9L992,274.9z"/>
		<path class="wireColor" d="M998.2,270.8l-0.6,0.9v3.2h-1.1v-9.5h1.1v4.6l2.5-4.6h1.1l-2.4,4.3l2.5,5.2h-1.1L998.2,270.8z"/>
		<path class="wireColor" d="M1003.1,272.6c0,0.9,0.3,1.4,1.1,1.4s1.1-0.5,1.1-1.4v-7.3h1v7.2c0,1.4-0.7,2.4-2.1,2.4c-1.5,0-2.1-1-2.1-2.4
			v-7.2h1V272.6z"/>
		<path class="wireColor" d="M1012,274.9h-1.5l-1.3-9.5h1l1.1,8.1l1.1-8.1h1l1,8.1l1.1-8.1h0.9l-1.3,9.5h-1.4l-0.9-6.5L1012,274.9z"/>
		<path class="wireColor" d="M1019,271.5l-2-6.1h1.1l1.5,4.7l1.5-4.7h1l-2,6.1v3.4h-1L1019,271.5L1019,271.5z"/>
		<path class="wireColor" d="M1025.1,265.4c1.5,0,2.2,0.9,2.2,2.4v4.8c0,1.5-0.7,2.3-2.2,2.3h-2.2v-9.5L1025.1,265.4L1025.1,265.4z
			 M1025.1,273.9c0.8,0,1.1-0.5,1.1-1.3v-4.9c0-0.9-0.4-1.3-1.1-1.3h-1.1v7.6h1.1V273.9z"/>
		<path class="wireColor" d="M1032.4,274.9h-4.3v-1l3.3-7.6h-3.1v-1h4.2v1l-3.3,7.6h3.2L1032.4,274.9L1032.4,274.9z"/>
		<path class="wireColor" d="M1034.5,265.4v9.5h-1.1v-9.5H1034.5z"/>
		<path class="wireColor" d="M1036.6,273l-0.4,1.9h-1l1.8-9.5h1.5l1.8,9.5h-1.1l-0.4-1.9H1036.6z M1036.8,272.1h2.1l-1.1-5.5L1036.8,272.1
			z"/>
		<path class="wireColor" d="M1042.5,270.9v3h2.7v1h-3.8v-2.8l-0.7,0.7v-1l0.7-0.7v-5.7h1v4.6l1.5-1.5v1L1042.5,270.9z"/>
		<path class="wireColor" d="M1047,272.6c0,0.9,0.3,1.4,1.1,1.4c0.8,0,1.1-0.5,1.1-1.4v-7.3h1v7.2c0,1.4-0.7,2.4-2.1,2.4
			c-1.5,0-2.1-1-2.1-2.4v-7.2h1V272.6z"/>
		<path class="wireColor" d="M977.2,281.7c1.5,0,2.1,0.7,2.1,2.1v0.4c0,1-0.3,1.6-1.1,1.9c0.9,0.3,1.3,1,1.3,2v0.8c0,1.4-0.7,2.2-2.2,2.2
			h-2.2v-9.5h2.1V281.7z M977,285.7c0.8,0,1.3-0.3,1.3-1.3v-0.6c0-0.8-0.3-1.2-1-1.2h-1v3.1H977z M977.3,290.2
			c0.8,0,1.1-0.4,1.1-1.3v-0.8c0-1.1-0.4-1.4-1.3-1.4h-0.9v3.5L977.3,290.2L977.3,290.2z"/>
		<path class="wireColor" d="M981.4,288.9c0,0.9,0.3,1.4,1.1,1.4s1.1-0.5,1.1-1.4v-7.3h1v7.2c0,1.4-0.7,2.4-2.1,2.4c-1.5,0-2.1-1-2.1-2.4
			v-7.2h1V288.9z"/>
		<path class="wireColor" d="M987.9,281.7c1.5,0,2.2,0.9,2.2,2.4v4.8c0,1.5-0.7,2.3-2.2,2.3h-2.2v-9.5L987.9,281.7L987.9,281.7z
			 M987.9,290.2c0.8,0,1.1-0.5,1.1-1.3V284c0-0.9-0.4-1.3-1.1-1.3h-1.1v7.6h1.1V290.2z"/>
		<path class="wireColor" d="M991,284c0-1.5,0.7-2.4,2.2-2.4s2.2,0.9,2.2,2.4v4.9c0,1.4-0.7,2.4-2.2,2.4s-2.2-1-2.2-2.4V284z M992,288.9
			c0,0.9,0.4,1.4,1.1,1.4c0.8,0,1.1-0.5,1.1-1.4v-5c0-0.9-0.4-1.4-1.1-1.4c-0.8,0-1.1,0.5-1.1,1.4V288.9z"/>
		<path class="wireColor" d="M998.8,291.2h-1.5l-1.3-9.5h1l1.1,8.1l1.1-8.1h1l1,8.1l1.1-8.1h0.9l-1.3,9.5h-1.4l-0.9-6.5L998.8,291.2z"/>
		<path class="wireColor" d="M1005.9,287.8l-2-6.1h1.1l1.5,4.7l1.5-4.7h1l-2,6.1v3.4h-1L1005.9,287.8L1005.9,287.8z"/>
		<path class="wireColor" d="M1015.4,291.2h-1l-1.6-7.6v7.6h-0.9v-9.5h1.5l1.6,7.6l1.5-7.6h1.5v9.5h-1v-7.6L1015.4,291.2z"/>
		<path class="wireColor" d="M1020,289.3l-0.4,1.9h-1l1.8-9.5h1.5l1.8,9.5h-1.1l-0.4-1.9H1020z M1020.2,288.4h2.1l-1.1-5.5L1020.2,288.4z"
			/>
		<path class="wireColor" d="M1028.8,284v0.3h-1V284c0-0.9-0.3-1.4-1.1-1.4c-0.8,0-1.1,0.5-1.1,1.3c0,2.1,3.2,2.3,3.2,5
			c0,1.4-0.7,2.4-2.1,2.4s-2.1-0.9-2.1-2.4v-0.5h1v0.6c0,0.9,0.4,1.4,1.1,1.4c0.8,0,1.1-0.5,1.1-1.4c0-2.1-3.2-2.3-3.2-5
			c0-1.5,0.7-2.4,2.1-2.4C1028.1,281.6,1028.8,282.5,1028.8,284z"/>
		<path class="wireColor" d="M1033.9,291.2h-4.3v-1l3.3-7.6h-3.1v-1h4.2v1l-3.3,7.6h3.2L1033.9,291.2L1033.9,291.2z"/>
		<path class="wireColor" d="M1036.6,287.8l-2-6.1h1.1l1.5,4.7l1.5-4.7h1l-2,6.1v3.4h-1L1036.6,287.8L1036.6,287.8z"/>
		<path class="wireColor" d="M1041.3,291.2h-1v-9.5h1.3l2.2,6.9v-6.9h0.9v9.5h-1.1l-2.4-7.7L1041.3,291.2L1041.3,291.2z"/>
	</g>
	<g>
		<path class="wireColor" d="M669.7,54.3h-2.2l-2-14.5h1.6l1.7,12.3l1.6-12.3h1.6l1.6,12.3l1.6-12.3h1.4l-2,14.5h-2.1l-1.4-9.8L669.7,54.3
			z"/>
		<path class="wireColor" d="M684.3,43.4v1.3h-1.5v-1.4c0-1.3-0.5-2.1-1.7-2.1s-1.7,0.8-1.7,2.1v7.6c0,1.3,0.5,2.1,1.7,2.1
			s1.7-0.8,1.7-2.1V49h1.5v1.8c0,2.2-1,3.6-3.3,3.6c-2.2,0-3.2-1.4-3.2-3.6v-7.5c0-2.2,1-3.6,3.2-3.6
			C683.3,39.7,684.3,41.2,684.3,43.4z"/>
	</g>
	<g>
		<path class="wireColor" d="M255.4,54.3h-2.2l-2-14.5h1.6l1.7,12.3l1.6-12.3h1.6l1.6,12.3l1.6-12.3h1.4l-2,14.5h-2.1l-1.4-9.8L255.4,54.3
			z"/>
		<path class="wireColor" d="M270,43.4v1.3h-1.5v-1.4c0-1.3-0.5-2.1-1.7-2.1s-1.7,0.8-1.7,2.1v7.6c0,1.3,0.5,2.1,1.7,2.1s1.7-0.8,1.7-2.1
			V49h1.5v1.8c0,2.2-1,3.6-3.3,3.6c-2.2,0-3.2-1.4-3.2-3.6v-7.5c0-2.2,1-3.6,3.2-3.6C269,39.7,270,41.2,270,43.4z"/>
	</g>
	<g>
		<path class="wireColor" d="M1090.3,54.3h-2.2l-2-14.5h1.6l1.7,12.3l1.6-12.3h1.6l1.6,12.3l1.6-12.3h1.4l-2,14.5h-2.1l-1.4-9.8
			L1090.3,54.3z"/>
		<path class="wireColor" d="M1104.9,43.4v1.3h-1.5v-1.4c0-1.3-0.5-2.1-1.7-2.1s-1.7,0.8-1.7,2.1v7.6c0,1.3,0.5,2.1,1.7,2.1
			s1.7-0.8,1.7-2.1V49h1.5v1.8c0,2.2-1,3.6-3.3,3.6c-2.2,0-3.2-1.4-3.2-3.6v-7.5c0-2.2,1-3.6,3.2-3.6
			C1103.8,39.7,1104.9,41.2,1104.9,43.4z"/>
	</g>
	<g>
		<path class="wireColor" d="M737.3,150.1v0.2h-0.9V150c0-0.8-0.3-1.2-1-1.2s-1,0.4-1,1.2c0,1.9,2.8,2.1,2.8,4.4c0,1.3-0.6,2.1-1.9,2.1
			c-1.3,0-1.9-0.8-1.9-2.1V154h0.9v0.5c0,0.8,0.3,1.2,1,1.2s1-0.4,1-1.2c0-1.9-2.8-2.1-2.8-4.4c0-1.3,0.6-2.1,1.9-2.1
			S737.3,148.9,737.3,150.1z"/>
		<path class="wireColor" d="M741.9,156.5H738v-0.8l2.9-6.7h-2.7v-0.9h3.7v0.8l-2.9,6.7h2.9V156.5z"/>
		<path class="wireColor" d="M743.7,154.8l-0.3,1.7h-0.9l1.6-8.4h1.4l1.6,8.4h-0.9l-0.3-1.7H743.7z M743.8,154h1.9l-0.9-4.8L743.8,154z"/>
		<path class="wireColor" d="M749,156.5V149h-1.5v-0.9h4v0.9H750v7.5H749z"/>
		<path class="wireColor" d="M753,156.5h-0.8v-8.4h1.2l1.9,6.1v-6.1h0.8v8.4h-1l-2.1-6.8L753,156.5L753,156.5z"/>
		<path class="wireColor" d="M758,148.1v8.4h-0.9v-8.4H758z"/>
		<path class="wireColor" d="M759.9,154.8l-0.3,1.7h-0.9l1.6-8.4h1.4l1.6,8.4h-0.9l-0.3-1.7H759.9z M760,154h1.9l-0.9-4.8L760,154z"/>
	</g>
	<g>
		<path class="wireColor" d="M741.9,15.8v0.4h-1.6v-0.5c0-1.3-0.5-2.1-1.7-2.1s-1.7,0.8-1.7,2.1c0,3.3,5,3.7,5,7.8c0,2.3-1.1,3.7-3.4,3.7
			c-2.3,0-3.3-1.5-3.3-3.7v-0.8h1.6v0.9c0,1.3,0.6,2.1,1.7,2.1s1.7-0.8,1.7-2.1c0-3.3-5-3.6-5-7.8c0-2.3,1.1-3.7,3.3-3.7
			C740.9,12.1,741.9,13.5,741.9,15.8z"/>
		<path class="wireColor" d="M745.1,24.1l-0.6,3H743l2.8-14.9h2.4l2.8,14.9h-1.7l-0.6-3H745.1z M745.3,22.7h3.3l-1.7-8.6L745.3,22.7z"/>
		<path class="wireColor" d="M752.4,27.1V12.2h1.7v13.4h4.2v1.5C758.3,27.1,752.4,27.1,752.4,27.1z"/>
		<path class="wireColor" d="M761.2,24.1l-0.6,3h-1.5l2.8-14.9h2.4l2.8,14.9h-1.7l-0.6-3H761.2z M761.4,22.7h3.3l-1.7-8.6L761.4,22.7z"/>
		<path class="wireColor" d="M743.5,41.7c-1.1,0.7-2.5,1.2-4.1,1.3v-2.7c3.2-0.1,4.3-1.9,5.1-3.9h2.3V66h-3.3V41.7z"/>
		<path class="wireColor" d="M765.1,43.5v15.2c0,4.7-2.1,7.7-6.9,7.7c-4.5,0-6.7-2.9-6.7-7.5v-0.6h3.1V59c0,2.7,1.1,4.2,3.5,4.2
			c2.5,0,3.7-1.6,3.7-4.8v-6.7c-0.8,2-2.4,3.1-4.8,3.1c-3.8,0-5.5-2.7-5.5-7v-4.5c0-4.5,2.2-7.5,6.8-7.5
			C762.8,36,765.1,38.9,765.1,43.5z M754.7,43.3v4.5c0,2.7,1.1,4.3,3.5,4.3s3.5-1.6,3.5-4.3v-4.5c0-2.7-1.1-4.3-3.5-4.3
			C755.9,39,754.7,40.6,754.7,43.3z"/>
	</g>
	<g>
		<polygon class="wireColor" points="648.8,179.9 647.3,179.9 647.3,112.4 454.1,112.4 454.1,110.9 648.8,110.9 		"/>
	</g>
</g>
<g id="hotSpot">
	<rect x="1022" y="38.6" class="stairsColor" width="45.5" height="35.8"/>
	<rect x="978.5" y="1.9" class="stairsColor" width="43.2" height="70.9"/>
	<rect x="143.7" y="1.9" class="stairsColor" width="43.2" height="70.9"/>
	<polygon class="wcColor" points="186.9,1.9 186.9,38.2 244.5,38.2 244.5,75.2 278.4,75.2 278.4,38.2 278.4,1.9 	"/>
	<polygon class="wcColor" points="1060.5,1.9 1060.5,25.8 1067.1,25.7 1067.1,38.6 1067.5,38.6 1067.5,74.4 1113.2,74.3 1113.2,38.2
		1113.2,1.9 	"/>
	<rect x="602.6" y="38.6" class="stairsColor" width="45.5" height="35.8"/>
	<polygon class="wcColor" points="641.1,1.9 641.1,25.8 647.7,25.7 647.7,38.6 648,38.6 648,74.4 693.8,74.3 693.8,38.2 693.8,1.9 	"/>
	<rect x="558.5" y="2.8" class="stairsColor" width="43.2" height="69.7"/>
	<rect x="186.9" y="38.5" class="stairsColor" width="25.2" height="35.2"/>
</g>
<g id="wire">
	<g>
		<path class="wireColor" d="M1258.1,0H0v182.7h979.6v12.1h0.4c6.8,0,12.4-5.4,12.8-12.1h4v12.1h0.4c5.9,0,10.8-3.9,12.4-9.3
			c1.6,5.4,6.5,9.3,12.4,9.3h0.4v-12.1h5.1c0.4,6.7,6,12.1,12.8,12.1h0.4v-12.1h217.5V0H1258.1z M1254.3,73.5H1216V3.8h38.3V73.5z
			 M975.6,178.9V133h4v12.1h0.4c6.8,0,12.4-5.4,12.8-12.1h4v12.1h0.4c5.9,0,10.8-3.9,12.4-9.3c1.6,5.4,6.5,9.3,12.4,9.3h0.4V133h5.1
			c0.4,6.7,6,12.1,12.8,12.1h0.4V133h3.1v45.9H975.6z M692.8,112.4v66.5H454.9v-68H3.8v-35h140.7v-2.7h1.6h7.9h8.9h7.9h6.1h7.9h1.3
			v1.3h26.7v-9.8h8v-0.4c0-4.2-3-7.8-7-8.6c4-0.8,7-4.3,7-8.6v-0.4h-8V39h20c0.2,5,4.4,9,9.4,9h0.4v-9h1.1v36.2l0,0V76H266
			c0.4,4.9,4.5,8.7,9.4,8.7h0.4V76h283.5v-3.1h2.5h7.9h8h7.9h5.8h7.9h1.6V76h7.9c0.5,5.4,5,9.7,10.6,9.7h0.4V76h12.5
			c0.5,5.4,5,9.7,10.6,9.7h0.4V76h6.3v8.4h0.4c4.9,0,8.9-3.7,9.4-8.4h22.1c0.4,4.9,4.5,8.7,9.4,8.7h0.4V76h10v9h0.4
			c5.1,0,9.2-4,9.4-9h91.8c0.2,5,4.4,9,9.4,9h0.4v-9h7.6V3.8h157.6v69.3h0.7l0,0h2.4h7.9h8.9h7.9h6.1h7.9h1.3V75h7.3
			c0.3,5.5,4.9,10,10.6,10h0.4V75h12.4c0.3,5.5,4.9,10,10.6,10h0.4V75h6.3v8.7h0.4c5,0,9-3.8,9.4-8.7h22.1c0.2,5,4.3,9.1,9.4,9.1
			h0.4V75h2v37.7h-1.6v18.8H833.5v47.4H694.3v-68H648v1.5C648,112.4,692.8,112.4,692.8,112.4z M139.6,112.4v66.5H73.2v-66.5
			C73.2,112.4,139.6,112.4,139.6,112.4z M140.3,112.4h35.5v66.5h-35.5V112.4z M176.5,112.4h49v66.5h-49V112.4z M226.2,112.4h121.3
			v66.5H226.2V112.4z M348.3,112.4h69.5v66.5h-69.5V112.4z M419.3,112.4h34v66.5h-34V112.4z M227.1,25.4V3.8h33.3v21.6h-16.5v12.1
			h-56.1V3.8h38.6v22.4h7v-0.8H227.1z M647.3,37.9h-44.8v1.5h22v35h1.5v-35h21.3v35h1.5V37.9H648V25.4h-6.6V3.8h34.3v21.6h-16.5v49
			h0.8V26.1h16.5V3.8h16.7v70.7h-90.7V3.8h38.2v22.4h6.6V37.9z M811.8,75.9v8.3c-4.5-0.2-8.1-3.8-8.3-8.3H811.8z M693.9,74.4
			L693.9,74.4l0.2-0.1V3.8h124.6v70.7L693.9,74.4L693.9,74.4z M701.9,75.9h8.3c-0.2,4.5-3.8,8.1-8.3,8.3V75.9z M690.5,75.9v7.9
			c-4.4-0.2-7.9-3.6-8.3-7.9H690.5z M650.3,75.9h8.3c-0.5,4.2-4,7.5-8.3,7.7V75.9z M642.5,75.9v8.9c-4.9-0.2-9-4-9.4-8.9H642.5z
			 M619.1,75.9v8.9c-4.9-0.2-9-4-9.4-8.9H619.1z M601,72.1h-1.6V65H599c-4,0-7.3,3.2-7.5,7.2h-5.9c-0.2-4-3.5-7.2-7.5-7.2h-0.4v7.2
			h-8.1c-0.2-4-3.5-7.2-7.5-7.2h-0.4v7.2h-2.5V57.8h20.1v0.1h1.5v-3.5H601V72.1z M598.7,72.1h-6.4c0.2-3.5,3-6.2,6.4-6.4V72.1z
			 M584.9,72.1h-6.4v-6.4C582,65.9,584.7,68.7,584.9,72.1z M569,72.1h-6.4v-6.4C566,65.9,568.8,68.7,569,72.1z M559.3,18.9h20.1v2.8
			h-20.1V18.9z M559.3,22.5h20.1v2.6h-20.1V22.5z M559.3,25.8h20.1v3h-20.1V25.8z M559.3,29.5h20.1v2.8h-20.1V29.5z M559.3,33.1
			h20.1v2.6h-20.1V33.1z M559.3,36.4h20.1v3.1h-20.1V36.4z M559.3,40.3h20.1v2.8h-20.1V40.3z M559.3,43.9h20.1v2.6h-20.1V43.9z
			 M559.3,47.2h20.1v3h-20.1V47.2z M559.3,51h20.1v2.7h-20.1V51z M559.3,54.4h20.1v2.7h-20.1V54.4z M601,53.7h-20.1V51H601V53.7z
			 M601,50.2h-20.1v-3H601V50.2z M601,46.5h-20.1v-2.6H601V46.5z M601,43.2h-20.1v-2.8H601V43.2z M601,39.6h-20.1v-3.1H601V39.6z
			 M601,35.7h-20.1v-2.6H601V35.7z M601,32.4h-20.1v-2.8H601V32.4z M601,28.8h-20.1v-3H601V28.8z M601,25.1h-20.1v-2.6H601V25.1z
			 M601,21.7h-20.1v-2.8H601V21.7z M601,18.1h-20.1v-0.2h-1.5v0.2h-20.1V3.8H601V18.1z M417.8,74.4H278.7V3.8h139.1L417.8,74.4
			L417.8,74.4z M419.3,3.8h138.4v70.7H419.3V3.8z M278,74.4h-33.4V26.1h16.5V3.8H278V74.4z M275.1,75.9v7.9
			c-4.4-0.2-7.9-3.6-8.3-7.9H275.1z M242,39v8.3c-4.5-0.2-8.1-3.8-8.3-8.3H242z M212.9,56.3c3.9,0.4,7.1,3.6,7.2,7.6h-7.2V56.3z
			 M212.9,47.5h7.2c-0.2,4-3.3,7.2-7.2,7.6V47.5z M186.2,72.4h-1.3v-7.2h-0.4c-4,0-7.3,3.2-7.5,7.2h-6.2c-0.2-4-3.5-7.2-7.5-7.2
			h-0.4v7.2H154c-0.2-4-3.5-7.2-7.5-7.2h-0.4v7.2h-1.6V58.1h20.1v0.1h1.5v-3.5h20.1L186.2,72.4L186.2,72.4z M184.2,72.4h-6.4
			c0.2-3.5,3-6.2,6.4-6.4V72.4z M170.1,72.4h-6.4V66C167.1,66.2,169.9,69,170.1,72.4z M153.3,72.4h-6.4V66
			C150.3,66.2,153.1,69,153.3,72.4z M144.5,19.2h20.1V22h-20.1V19.2z M186.2,32.7h-20.1v-2.8h20.1V32.7z M186.2,29.1h-20.1v-3h20.1
			V29.1z M186.2,25.4h-20.1v-2.6h20.1V25.4z M166.1,33.4h20.1V36h-20.1V33.4z M186.2,22h-20.1v-2.8h20.1V22z M144.5,22.8h20.1v2.6
			h-20.1V22.8z M144.5,26.1h20.1v3h-20.1V26.1z M144.5,29.8h20.1v2.8h-20.1V29.8z M144.5,33.4h20.1V36h-20.1V33.4z M144.5,36.8h20.1
			v3.1h-20.1V36.8z M144.5,40.6h20.1v2.8h-20.1V40.6z M144.5,44.2h20.1v2.6h-20.1V44.2z M144.5,47.6h20.1v3h-20.1V47.6z M144.5,51.3
			h20.1V54h-20.1V51.3z M144.5,54.7h20.1v2.7h-20.1V54.7z M186.2,54h-20.1v-2.7h20.1V54z M186.2,50.5h-20.1v-3h20.1V50.5z
			 M186.2,46.8h-20.1v-2.6h20.1V46.8z M186.2,43.5h-20.1v-2.8h20.1V43.5z M186.2,39.9h-20.1v-3.1h20.1V39.9z M187.7,39h23.7v34
			h-23.7V39z M186.2,18.5h-20.1v-0.2h-1.5v0.2h-20.1V3.8h41.7L186.2,18.5L186.2,18.5z M73.2,74.4V3.8H143v70.7L73.2,74.4L73.2,74.4z
			 M1181.2,73.5V3.8h34.1v69.8h-34.1V73.5z M1180.5,73.5h-33.3V3.8h33.3V73.5z M1146.5,73.5h-32.9V3.8h32.9V73.5z M1112.6,73.5
			h-33.2V26.1h16.5V3.8h16.7V73.5z M1109.9,75v8.3c-4.5-0.2-8.1-3.8-8.3-8.3H1109.9z M1069.8,75h8.3c-0.4,4.3-3.9,7.7-8.3,7.9V75z
			 M1095.2,25.4h-16.5v48.2h-10.4V37.9h-0.7V25.4h-6.6V3.8h34.3v21.6H1095.2z M1061.9,75v9.2c-5-0.2-9.1-4.2-9.4-9.2H1061.9z
			 M1045.5,73.5V39.4h21.3v34.1H1045.5z M1038.5,75v9.2c-5-0.2-9.1-4.2-9.4-9.2H1038.5z M1022.5,73.5V39.4h21.4v34.1H1022.5z
			 M1066.7,26.1v11.8h-44.2V3.8h37.6v22.4L1066.7,26.1L1066.7,26.1z M1021,72.4h-1.3v-7.2h-0.4c-4,0-7.3,3.2-7.5,7.2h-6.2
			c-0.2-4-3.5-7.2-7.5-7.2h-0.4v7.2h-8.9c-0.2-4-3.5-7.2-7.5-7.2h-0.4v7.2h-1.6V58.2h20.1v0.1h1.5v-3.5h20.1L1021,72.4L1021,72.4z
			 M1019,72.4h-6.4c0.2-3.5,3-6.2,6.4-6.4V72.4z M1004.9,72.4h-6.4V66C1002,66.1,1004.7,68.9,1004.9,72.4z M988.1,72.4h-6.4V66
			C985.1,66.1,987.9,68.9,988.1,72.4z M979.3,19.3h20.1v2.8h-20.1V19.3z M979.3,22.9h20.1v2.6h-20.1V22.9z M979.3,26.2h20.1v3h-20.1
			V26.2z M979.3,29.9h20.1v2.8h-20.1V29.9z M979.3,33.5h20.1v2.6h-20.1V33.5z M979.3,36.8h20.1V40h-20.1V36.8z M979.3,40.7h20.1v2.8
			h-20.1V40.7z M979.3,44.3h20.1v2.6h-20.1V44.3z M979.3,47.6h20.1v3h-20.1V47.6z M979.3,51.4h20.1v2.7h-20.1V51.4z M979.3,54.8
			h20.1v2.7h-20.1V54.8z M1021,54.1h-20.1v-2.7h20.1V54.1z M1021,50.6h-20.1v-3h20.1V50.6z M1021,46.9h-20.1v-2.6h20.1V46.9z
			 M1021,43.6h-20.1v-2.8h20.1V43.6z M1021,40h-20.1v-3.1h20.1V40z M1021,36.1h-20.1v-2.6h20.1V36.1z M1021,32.8h-20.1V30h20.1V32.8
			z M1021,29.2h-20.1v-3h20.1V29.2z M1021,25.5h-20.1v-2.6h20.1V25.5z M1021,22.1h-20.1v-2.8h20.1V22.1z M1021,18.5h-20.1v-0.2h-1.5
			v0.2h-20.1V3.8h41.7L1021,18.5L1021,18.5z M1039.8,133v11.4c-6.3-0.2-11.3-5.2-11.7-11.4H1039.8z M997.5,133h11.5
			c0,0.3,0.1,0.7,0.1,1c-0.8,5.7-5.7,10.2-11.6,10.3V133z M1010,133h11.5v11.4c-5.9-0.2-10.8-4.6-11.6-10.3
			C1009.9,133.7,1010,133.4,1010,133z M980.3,133H992c-0.4,6.2-5.5,11.2-11.7,11.4V133z M835,133h71.1v45.9H835V133z M906.9,133h68
			v45.9h-68V133z M1044.4,133h33.4v45.9h-33.4V133z M1078.5,133h32.8v45.9h-32.8V133z M1112.1,133h0.4v-18.8h34v64.6h-34.3
			L1112.1,133L1112.1,133z M1147.2,114.3h34.1v64.6h-34.1V114.3z M1113.4,112.8V75h140.9v37.7h-140.9V112.8z M72.4,3.8v70.7H3.8V3.8
			H72.4z M3.8,112.4h68.7v66.5H3.8V112.4z M980.3,194v-11.3H992C991.6,188.9,986.6,193.8,980.3,194z M997.5,194v-11.3h11.5
			c0,0.3,0.1,0.7,0.1,1C1008.3,189.4,1003.4,193.8,997.5,194z M1021.5,194c-5.9-0.2-10.8-4.6-11.6-10.3c0-0.3,0.1-0.7,0.1-1h11.5
			V194z M1039.8,194c-6.3-0.2-11.3-5.1-11.7-11.3h11.7V194z M1182,178.9v-64.6h72.3v64.6H1182z"/>
		<path class="wireColor" d="M1047,109.3h-6v10.5h6V109.3z M1045.5,118.3h-3v-7.5h3V118.3z"/>
		<path class="wireColor" d="M978.3,109.3h-6v10.5h6V109.3z M976.8,118.3h-3v-7.5h3V118.3z"/>
		<path class="wireColor" d="M909.5,109.3h-6v10.5h6V109.3z M908,118.3h-3v-7.5h3V118.3z"/>
		<path class="wireColor" d="M767,109.3h-6v10.5h6V109.3z M765.5,118.3h-3v-7.5h3V118.3z"/>
		<path class="wireColor" d="M841.3,109.3h-10.5v10.5h10.5V109.3z M839.8,118.3h-7.5v-7.5h7.5V118.3z"/>
	</g>
</g>
<g id="eventSpot">
	<rect id="sala19" x="694.1" y="3.7" class="eventColor" width="124.6" height="70.7"/>
</g>
</svg>
