<?xml version="1.0" encoding="utf-8"?>
<!-- Generator: Adobe Illustrator 20.0.0, SVG Export Plug-In . SVG Version: 6.00 Build 0)  -->
<svg version="1.1" xmlns="http://www.w3.org/2000/svg" xmlns:xlink="http://www.w3.org/1999/xlink" x="0px" y="0px"
	 viewBox="0 0 678.7 655.5" style="enable-background:new 0 0 678.7 655.5;" xml:space="preserve">
<style type="text/css">.wireColor{fill: #777777;}.nofloorColor{fill: #F2F2F2;}.arrowColor{fill: #EA5906;}.eventColor{opacity: 0.3; fill: #F59E16; transition: 1s fill;}.wcColor{opacity: 0.3; fill: #3693B2;}.stairsColor{opacity: 0.3; fill: #73cc15;}.transparentObject{fill: 0;}.riverColor{fill: #B9DDEF;}.mapElements{fill: #E2E2E2;}.tramColor{fill: #73CC15;}.mapArrows{fill: #BFBFBF;}.buildingFill{fill: #E5E5E5;}.eventColor.active{opacity: 0.3; fill: red; -webkit-animation: alertOpacity 2s infinite alternate; animation: alertOpacity 2s infinite alternate;}@-webkit-keyframes alertOpacity{0%{opacity: 0.3;}50%{opacity: 0.5;}100%{opacity: 0.3;}}@keyframes alertOpacity{0%{opacity: 0.3;}50%{opacity: 0.5;}100%{opacity: 0.3;}}#guideSpot .eventColor.active{fill: red; opacity: 1; r: 10; transform-origin: 150px 150px; -webkit-transform-origin: 50% 50%; -webkit-animation: alertScale 2s infinite alternate; animation: alertScale 2s infinite alternate;}@-webkit-keyframes alertScale{0%{-webkit-transform: scale(1, 1);}50%{-webkit-transform: scale(2, 2);}100%{-webkit-transform: scale(1, 1);}}@keyframes alertScale{0%{transform: scale(1, 1);}50%{transform: scale(2, 2);}100%{transform: scale(1, 1);}}</style>
<g id="wire_1_">
	<g id="description">
		<g>
			<path class="wireColor" d="M507.3,81v0.5h-2.1v-0.6c0-1.8-0.7-2.8-2.2-2.8c-1.6,0-2.2,1-2.2,2.8c0,4.4,6.6,4.8,6.6,10.3
				c0,3-1.4,4.9-4.4,4.9c-3,0-4.4-1.9-4.4-4.9V90h2v1.2c0,1.8,0.7,2.8,2.3,2.8c1.6,0,2.3-1,2.3-2.8c0-4.3-6.5-4.8-6.5-10.3
				c0-3,1.4-4.9,4.3-4.9C505.9,76.1,507.3,78,507.3,81z"/>
			<path class="wireColor" d="M511.4,91.9l-0.8,3.9h-2l3.7-19.5h3.2l3.7,19.5h-2.2l-0.8-3.9H511.4z M511.7,90h4.3l-2.2-11.3L511.7,90z"/>
			<path class="wireColor" d="M521,95.8V76.3h2.2v17.5h5.6v2H521z"/>
			<path class="wireColor" d="M532.6,91.9l-0.8,3.9h-2l3.7-19.5h3.2l3.7,19.5h-2.2l-0.8-3.9H532.6z M532.9,90h4.3L535,78.8L532.9,90z"/>
			<path class="wireColor" d="M505.6,121.9c1.1-1.9,2.9-3,5.3-3c4.6,0,6.6,3.4,6.6,8.5v7c0,5.5-2.6,9-8.1,9c-5.5,0-8-3.6-8-9V132h3.7v2.7
				c0,3.2,1.3,5.2,4.2,5.2c2.9,0,4.2-1.9,4.2-5.2v-7c0-3.2-1.3-5.2-4.2-5.2c-2.2,0-3.7,1.2-4,3.8v0.8h-3.7l1-19.9h14.1v3.6h-10.5
				L505.6,121.9z"/>
			<path class="wireColor" d="M537.3,116v0.9c0,3.7-1.5,6.3-4.3,7.4c3,1.1,4.3,3.8,4.3,7.4v2.8c0,5.5-2.6,9-8.1,9c-5.5,0-8-3.6-8-9V132
				h3.7v2.7c0,3.2,1.3,5.2,4.2,5.2c2.9,0,4.2-1.9,4.2-5.5v-2.8c0-3.5-1.5-5.2-4.5-5.3h-2.1v-3.6h2.4c2.7-0.1,4.3-1.8,4.3-4.9v-1.6
				c0-3.7-1.3-5.6-4.2-5.6c-2.9,0-4.2,2-4.2,5.2v1.8h-3.7V116c0-5.5,2.6-9,8-9C534.8,107,537.3,110.5,537.3,116z"/>
		</g>
		<g>
			<path class="wireColor" d="M341.1,58.7v0.4h-1.5v-0.5c0-1.3-0.5-2-1.6-2c-1.1,0-1.6,0.8-1.6,2c0,3.2,4.8,3.5,4.8,7.5
				c0,2.2-1,3.6-3.2,3.6s-3.2-1.4-3.2-3.6v-0.8h1.5v0.9c0,1.3,0.5,2,1.7,2c1.1,0,1.7-0.8,1.7-2c0-3.2-4.8-3.5-4.8-7.5
				c0-2.2,1-3.6,3.2-3.6C340.1,55.1,341.1,56.5,341.1,58.7z"/>
			<path class="wireColor" d="M344.1,66.7l-0.6,2.9h-1.5l2.7-14.3h2.3l2.7,14.3h-1.6l-0.6-2.9H344.1z M344.3,65.3h3.2l-1.6-8.2L344.3,65.3
				z"/>
			<path class="wireColor" d="M351.1,69.5V55.3h1.6v12.8h4.1v1.4H351.1z"/>
			<path class="wireColor" d="M359.6,66.7l-0.6,2.9h-1.5l2.7-14.3h2.3l2.7,14.3h-1.6l-0.6-2.9H359.6z M359.8,65.3h3.2l-1.6-8.2L359.8,65.3
				z"/>
			<path class="wireColor" d="M340.8,88.6c0.8-1.4,2.1-2.2,3.9-2.2c3.4,0,4.9,2.5,4.9,6.2v5.1c0,4-1.9,6.6-5.9,6.6c-4,0-5.9-2.6-5.9-6.6
				V96h2.7V98c0,2.4,1,3.8,3.1,3.8c2.1,0,3.1-1.4,3.1-3.8v-5.1c0-2.4-1-3.8-3.1-3.8c-1.6,0-2.7,0.9-3,2.8v0.6h-2.7l0.7-14.5h10.3
				v2.6h-7.7L340.8,88.6z"/>
			<path class="wireColor" d="M357.7,82.7c-1,0.6-2.2,1-3.6,1.1v-2.4c2.8-0.1,3.8-1.6,4.5-3.5h2v26.2h-2.9V82.7z"/>
		</g>
		<g>
			<path class="wireColor" d="M550.9,460.2v13.4h-3.3v-29.9h3.3v13.4h7.3v-13.4h3.3v29.9h-3.3v-13.4H550.9z"/>
			<path class="wireColor" d="M564.7,451c0-4.6,2.3-7.5,6.8-7.5c4.6,0,6.9,2.9,6.9,7.5v15.4c0,4.5-2.3,7.5-6.9,7.5c-4.6,0-6.8-3-6.8-7.5
				V451z M568,466.6c0,2.7,1.2,4.3,3.5,4.3c2.4,0,3.5-1.6,3.5-4.3v-15.8c0-2.7-1.1-4.3-3.5-4.3c-2.4,0-3.5,1.6-3.5,4.3V466.6z"/>
			<path class="wireColor" d="M581.5,473.7v-29.9h3.3v26.8h8.5v3H581.5z"/>
		</g>
		<g>
			<path class="wireColor" d="M314.8,165.8c2.1,3.5,1,6.2-2.4,8.3l-2.7,1.6c-3.5,2.1-6.4,1.6-8.5-1.9l-1.3-2.2l-8.8,5.3l-1.5-2.5
				l22.3-13.5L314.8,165.8z M303.4,172.4c1.1,1.8,2.5,2.2,4.6,0.9l3-1.8c2-1.2,2.6-2.6,1.5-4.4l-1.4-2.4l-9,5.5L303.4,172.4z"/>
			<path class="wireColor" d="M302.5,185.7l-5,1.9l-1.4-2.3L321,176l2.2,3.6l-19.7,17.8l-1.5-2.5l4-3.6L302.5,185.7z M304.9,184.7l3,5
				l11.3-10.3L304.9,184.7z"/>
			<path class="wireColor" d="M327.4,198.7l-0.6,0.4l-1.4-2.4l0.7-0.4c2-1.2,2.7-2.7,1.6-4.5c-1.1-1.8-2.7-1.8-4.7-0.6
				c-5,3-0.9,10.8-7.2,14.6c-3.4,2-6.6,1.8-8.6-1.7c-2.1-3.4-0.8-6.3,2.5-8.4l1.3-0.8l1.4,2.3l-1.4,0.8c-2,1.2-2.7,2.8-1.6,4.5
				c1.1,1.8,2.8,1.9,4.8,0.7c5-3,0.9-10.7,7.2-14.5c3.4-2.1,6.5-1.8,8.6,1.6C332,193.7,330.8,196.6,327.4,198.7z"/>
			<path class="wireColor" d="M317.8,210.9l-5,1.9l-1.4-2.3l24.9-9.2l2.2,3.6l-19.7,17.8l-1.5-2.5l4-3.6L317.8,210.9z M320.2,210l3,5
				l11.3-10.3L320.2,210z"/>
			<path class="wireColor" d="M325.9,234.3l-6.1-10.1l2.2-1.3l22.4-3.1l-4.4-7.3l2.3-1.4l6,9.8l-2.2,1.4l-22.4,3.1l4.6,7.6L325.9,234.3z
				 M350.1,214.6l-2.9,1.7l-1.3-2.2l2.9-1.7L350.1,214.6z"/>
		</g>
		<g>
			<path class="wireColor" d="M317.8,550.4v9h-2.2v-20h2.2v9h4.9v-9h2.2v20h-2.2v-9H317.8z"/>
			<path class="wireColor" d="M327,544.2c0-3.1,1.5-5,4.6-5c3.1,0,4.6,2,4.6,5v10.3c0,3-1.5,5-4.6,5c-3.1,0-4.6-2-4.6-5V544.2z
				 M329.2,554.7c0,1.8,0.8,2.9,2.4,2.9c1.6,0,2.4-1.1,2.4-2.9v-10.6c0-1.8-0.7-2.9-2.4-2.9c-1.6,0-2.4,1.1-2.4,2.9V554.7z"/>
			<path class="wireColor" d="M338.3,559.4v-20h2.2v17.9h5.7v2H338.3z"/>
		</g>
		<g>
			<path class="wireColor" d="M204.4,556.9h-4.5l-4.1-29.7h3.2l3.5,25.3l3.3-25.2h3.3l3.3,25.3l3.4-25.3h2.9l-4,29.7h-4.4l-2.8-20.1
				L204.4,556.9z"/>
			<path class="wireColor" d="M234.3,534.3v2.7h-3.1v-2.8c0-2.7-1.1-4.3-3.5-4.3c-2.4,0-3.5,1.6-3.5,4.3v15.7c0,2.7,1.1,4.3,3.5,4.3
				c2.4,0,3.5-1.6,3.5-4.3V546h3.1v3.7c0,4.5-2.1,7.5-6.7,7.5c-4.5,0-6.7-3-6.7-7.5v-15.4c0-4.5,2.1-7.5,6.7-7.5
				C232.2,526.9,234.3,529.8,234.3,534.3z"/>
		</g>
		<g>
			<path class="wireColor" d="M204.2,287.8l-0.5,2.7h-1.4l2.6-13.6h2.2l2.6,13.6h-1.5l-0.5-2.7H204.2z M204.4,286.5h3l-1.5-7.9
				L204.4,286.5z"/>
			<path class="wireColor" d="M213.2,284.6l-0.8,1.3v4.6h-1.5v-13.6h1.5v6.6l3.6-6.6h1.5l-3.4,6.2l3.6,7.4h-1.6L213.2,284.6z"/>
			<path class="wireColor" d="M222.4,290.6h-2.1l-1.9-13.6h1.5l1.6,11.6l1.5-11.6h1.5l1.5,11.6l1.5-11.6h1.3l-1.8,13.6h-2l-1.3-9.2
				L222.4,290.6z"/>
			<path class="wireColor" d="M231.4,287.8l-0.5,2.7h-1.4l2.6-13.6h2.2l2.6,13.6h-1.5l-0.5-2.7H231.4z M231.6,286.5h3l-1.5-7.9
				L231.6,286.5z"/>
			<path class="wireColor" d="M241.1,276.9c2.1,0,3,1.1,3,3.1v1.1c0,1.5-0.5,2.4-1.7,2.8c1.2,0.4,1.7,1.4,1.7,2.8v2.1c0,0.6,0,1.2,0.3,1.6
				h-1.5c-0.2-0.4-0.3-0.7-0.3-1.7v-2.1c0-1.5-0.7-2-2-2h-1.1v5.8h-1.5v-13.6H241.1z M240.7,283.4c1.2,0,1.9-0.4,1.9-1.9v-1.3
				c0-1.2-0.4-1.9-1.6-1.9h-1.5v5H240.7z"/>
			<path class="wireColor" d="M247.3,276.9v13.6h-1.5v-13.6H247.3z"/>
			<path class="wireColor" d="M250.3,287.3c0,1.2,0.5,2,1.6,2c1.1,0,1.6-0.7,1.6-2v-10.4h1.4v10.3c0,2.1-1,3.4-3.1,3.4c-2.1,0-3-1.4-3-3.4
				v-10.3h1.5V287.3z"/>
			<path class="wireColor" d="M261.4,290.5h-1.5l-2.3-10.8v10.9h-1.3v-13.6h2.1l2.2,10.9l2.2-10.9h2.1v13.6h-1.4v-11L261.4,290.5z"/>
		</g>
		<g>
			<path class="wireColor" d="M261.8,495.5v1.7l-11.4,1.6v-1.2l9.7-1.3l-9.7-1.3v-1.3l9.7-1.3l-9.7-1.3V490l11.4,1.6v1.7l-7.8,1.1
				L261.8,495.5z"/>
			<path class="wireColor" d="M257.7,486.9l-7.3,2.4V488l5.6-1.8l-5.6-1.8v-1.2l7.3,2.4h4.1v1.3H257.7z"/>
			<path class="wireColor" d="M250.4,479.8c0-1.8,1.1-2.6,2.8-2.6h1.4c1.8,0,2.8,0.8,2.8,2.7v1.1h4.5v1.3h-11.4V479.8z M256.2,479.9
				c0-0.9-0.4-1.4-1.5-1.4h-1.5c-1,0-1.6,0.4-1.6,1.3v1.2h4.6V479.9z"/>
			<path class="wireColor" d="M253.1,476.3c-1.7,0-2.9-0.9-2.9-2.6c0-1.8,1.1-2.6,2.9-2.6h5.9c1.7,0,2.9,0.9,2.9,2.6
				c0,1.7-1.1,2.6-2.9,2.6H253.1z M259.1,475.1c1,0,1.6-0.4,1.6-1.4c0-0.9-0.6-1.4-1.6-1.4h-6c-1,0-1.6,0.4-1.6,1.4
				c0,0.9,0.6,1.4,1.6,1.4H259.1z"/>
			<path class="wireColor" d="M248.2,466.8h1.5v1.1h-1.5V466.8z M261.8,464.9v5.2h-1.1l-9.1-3.9v3.7h-1.2v-5h1.1l9.1,3.9v-3.9H261.8z"/>
			<path class="wireColor" d="M257.7,461.7l-7.3,2.4v-1.3l5.6-1.8l-5.6-1.8V458l7.3,2.4h4.1v1.3H257.7z"/>
			<path class="wireColor" d="M253.1,452.3h1v1.2h-1.1c-1,0-1.6,0.4-1.6,1.3c0,0.9,0.6,1.3,1.6,1.3h6c1,0,1.6-0.4,1.6-1.3
				c0-0.9-0.6-1.3-1.6-1.3h-1.5v-1.2h1.4c1.7,0,2.9,0.8,2.9,2.6c0,1.7-1.1,2.6-2.9,2.6h-5.9c-1.7,0-2.9-0.8-2.9-2.6
				C250.3,453.1,251.4,452.3,253.1,452.3z"/>
			<path class="wireColor" d="M261.8,446.1v5.2h-1.1l-9.1-3.9v3.7h-1.2v-5h1.1l9.1,3.9v-3.9H261.8z"/>
			<path class="wireColor" d="M259.5,443.6l2.3,0.4v1.2l-11.4-2.2v-1.8l11.4-2.2v1.3l-2.3,0.4V443.6z M258.4,443.5v-2.5l-6.6,1.3
				L258.4,443.5z"/>
			<path class="wireColor" d="M261.8,438h-11.4v-1.3h10.3v-3.3h1.2V438z"/>
			<path class="wireColor" d="M261.8,431.4v1.1h-11.4v-1.6l8.3-2.6h-8.3v-1.1h11.4v1.3l-9.2,2.9H261.8z"/>
			<path class="wireColor" d="M250.4,424.6h11.4v1.3h-11.4V424.6z"/>
			<path class="wireColor" d="M259.5,422l2.3,0.4v1.2l-11.4-2.2v-1.8l11.4-2.2v1.3l-2.3,0.4V422z M258.4,421.8v-2.5l-6.6,1.3L258.4,421.8z
				"/>
		</g>
		<polygon id="arrowBT" class="wireColor" points="654.5,377.3 639.4,368.6 639.4,372.7 626.2,372.8 626.2,382 639.5,381.9 639.5,386
			"/>
		<g id="BTenter">
			<path class="wireColor" d="M612.8,400.7h-1.3l-1.2-8.5h0.9l1,7.2l0.9-7.2h0.9l0.9,7.2l1-7.2h0.8l-1.2,8.5h-1.2l-0.8-5.8L612.8,400.7z"
				/>
			<path class="wireColor" d="M620.6,395.9v0.8h-2.1v3h2.5v0.9h-3.5v-8.5h3.5v0.9h-2.5v2.9H620.6z"/>
			<path class="wireColor" d="M621.7,399.8c0.2,0,0.3,0,0.5,0c0.6,0,1-0.3,1-1.2v-6.4h0.9v6.4c0,1.6-0.8,2.1-1.8,2.1c-0.2,0-0.4,0-0.6,0
				V399.8z"/>
			<path class="wireColor" d="M628.7,394.2v0.2h-0.9v-0.3c0-0.8-0.3-1.2-1-1.2s-1,0.4-1,1.2c0,1.9,2.8,2.1,2.8,4.5c0,1.3-0.6,2.1-1.9,2.1
				c-1.3,0-1.9-0.8-1.9-2.1v-0.5h0.9v0.5c0,0.8,0.3,1.2,1,1.2s1-0.4,1-1.2c0-1.9-2.8-2.1-2.8-4.5c0-1.3,0.6-2.1,1.9-2.1
				C628.1,392.1,628.7,392.9,628.7,394.2z M628.1,390.4l-1.1,1.2h-0.7l0.8-1.2H628.1z"/>
			<path class="wireColor" d="M633.3,394.2v0.8h-0.9v-0.8c0-0.8-0.3-1.2-1-1.2c-0.7,0-1,0.5-1,1.2v4.5c0,0.8,0.3,1.2,1,1.2
				c0.7,0,1-0.5,1-1.2v-1.1h0.9v1.1c0,1.3-0.6,2.1-1.9,2.1c-1.3,0-1.9-0.8-1.9-2.1v-4.4c0-1.3,0.6-2.1,1.9-2.1
				C632.7,392.1,633.3,392.9,633.3,394.2z"/>
			<path class="wireColor" d="M635.1,392.2v8.5h-0.9v-8.5H635.1z"/>
			<path class="wireColor" d="M639.1,395.9v0.8H637v3h2.5v0.9h-3.5v-8.5h3.5v0.9H637v2.9H639.1z"/>
			<path class="wireColor" d="M644.3,392.2c1.3,0,1.9,0.8,1.9,2.1v4.3c0,1.3-0.6,2.1-1.9,2.1h-2v-8.5H644.3z M644.3,399.8
				c0.7,0,1-0.4,1-1.2v-4.4c0-0.8-0.3-1.2-1-1.2h-1v6.8H644.3z"/>
			<path class="wireColor" d="M647,394.2c0-1.3,0.6-2.1,1.9-2.1c1.3,0,2,0.8,2,2.1v4.4c0,1.3-0.6,2.1-2,2.1c-1.3,0-1.9-0.8-1.9-2.1V394.2z
				 M648,398.7c0,0.8,0.3,1.2,1,1.2c0.7,0,1-0.4,1-1.2v-4.5c0-0.8-0.3-1.2-1-1.2c-0.7,0-1,0.5-1,1.2V398.7z"/>
			<path class="wireColor" d="M617.9,408.8v0.8H617v-0.8c0-0.8-0.3-1.2-1-1.2c-0.7,0-1,0.5-1,1.2v4.5c0,0.8,0.3,1.2,1,1.2
				c0.7,0,1-0.5,1-1.2v-1.1h0.9v1.1c0,1.3-0.6,2.1-1.9,2.1c-1.3,0-1.9-0.8-1.9-2.1v-4.4c0-1.3,0.6-2.1,1.9-2.1
				C617.2,406.6,617.9,407.5,617.9,408.8z"/>
			<path class="wireColor" d="M621.7,410.5v0.8h-2.1v3h2.5v0.9h-3.5v-8.5h3.5v0.9h-2.5v2.9H621.7z"/>
			<path class="wireColor" d="M623.9,415.2h-0.8v-8.5h1.2l2,6.1v-6.1h0.8v8.5h-1l-2.2-6.9V415.2z"/>
			<path class="wireColor" d="M629.3,415.2v-7.6h-1.6v-0.9h4.1v0.9h-1.6v7.6H629.3z"/>
			<path class="wireColor" d="M634.3,406.7c1.3,0,1.9,0.7,1.9,1.9v0.7c0,0.9-0.3,1.5-1.1,1.7c0.8,0.2,1.1,0.9,1.1,1.8v1.3
				c0,0.4,0,0.7,0.2,1h-1c-0.1-0.2-0.2-0.5-0.2-1v-1.3c0-1-0.4-1.3-1.2-1.3h-0.7v3.6h-0.9v-8.5H634.3z M634.1,410.7
				c0.8,0,1.2-0.2,1.2-1.2v-0.8c0-0.8-0.3-1.2-1-1.2h-0.9v3.1H634.1z"/>
			<path class="wireColor" d="M638.1,413.2c0,0.8,0.3,1.2,1,1.2c0.7,0,1-0.5,1-1.2v-6.5h0.9v6.4c0,1.3-0.6,2.1-1.9,2.1
				c-1.3,0-1.9-0.9-1.9-2.1v-6.4h0.9V413.2z"/>
			<path class="wireColor" d="M645,415.2h-0.9l-1.4-6.7v6.8h-0.8v-8.5h1.3l1.4,6.8l1.3-6.8h1.3v8.5h-0.9v-6.8L645,415.2z"/>
			<path class="wireColor" d="M605.1,429.7h-1.3l-1.2-8.5h0.9l1,7.2l0.9-7.2h0.9l0.9,7.2l1-7.2h0.8l-1.2,8.5h-1.2L606,424L605.1,429.7z"/>
			<path class="wireColor" d="M611.5,426.7l-1.8-5.4h1l1.3,4.2l1.3-4.2h0.9l-1.8,5.4v3h-0.9V426.7z"/>
			<path class="wireColor" d="M616.3,426.1l-0.5,0.8v2.8h-0.9v-8.5h0.9v4.1l2.3-4.1h1l-2.1,3.9l2.2,4.6h-1L616.3,426.1z"/>
			<path class="wireColor" d="M620.9,426.2v2.7h2.4v0.9H620v-2.5l-0.6,0.6V427l0.6-0.6v-5.1h0.9v4.1l1.3-1.4v0.9L620.9,426.2z"/>
			<path class="wireColor" d="M625,428l-0.3,1.7h-0.9l1.6-8.5h1.4l1.6,8.5h-0.9l-0.3-1.7H625z M625.1,427.2h1.9l-1-4.9L625.1,427.2z"/>
			<path class="wireColor" d="M631.1,421.3c1.3,0,1.9,0.8,1.9,2.1v4.3c0,1.3-0.6,2.1-1.9,2.1h-2v-8.5H631.1z M631.1,428.9
				c0.7,0,1-0.4,1-1.2v-4.4c0-0.8-0.3-1.2-1-1.2h-1v6.8H631.1z"/>
			<path class="wireColor" d="M633.9,423.3c0-1.3,0.6-2.1,1.9-2.1c1.3,0,2,0.8,2,2.1v4.4c0,1.3-0.6,2.1-2,2.1c-1.3,0-1.9-0.8-1.9-2.1
				V423.3z M634.8,427.7c0,0.8,0.3,1.2,1,1.2c0.7,0,1-0.4,1-1.2v-4.5c0-0.8-0.3-1.2-1-1.2c-0.7,0-1,0.5-1,1.2V427.7z"/>
			<path class="wireColor" d="M640.9,429.7h-1.3l-1.2-8.5h0.9l1,7.2l0.9-7.2h0.9l0.9,7.2l1-7.2h0.8l-1.2,8.5h-1.2l-0.8-5.8L640.9,429.7z"
				/>
			<path class="wireColor" d="M648.7,425v0.8h-2.1v3h2.5v0.9h-3.5v-8.5h3.5v0.9h-2.5v2.9H648.7z"/>
			<path class="wireColor" d="M653.8,423.3v0.7h-0.9v-0.8c0-0.8-0.3-1.2-1-1.2c-0.7,0-1,0.5-1,1.2v4.5c0,0.8,0.3,1.2,1,1.2
				c0.7,0,1-0.5,1-1.2V426h-0.9v-0.8h1.8v2.5c0,1.3-0.6,2.1-1.9,2.1c-1.3,0-1.9-0.8-1.9-2.1v-4.4c0-1.3,0.6-2.1,1.9-2.1
				C653.2,421.2,653.8,422,653.8,423.3z"/>
			<path class="wireColor" d="M654.7,423.3c0-1.3,0.6-2.1,1.9-2.1c1.3,0,2,0.8,2,2.1v4.4c0,1.3-0.6,2.1-2,2.1c-1.3,0-1.9-0.8-1.9-2.1
				V423.3z M655.6,427.7c0,0.8,0.3,1.2,1,1.2c0.7,0,1-0.4,1-1.2v-4.5c0-0.8-0.3-1.2-1-1.2c-0.7,0-1,0.5-1,1.2V427.7z"/>
		</g>
		<polygon id="arrowCW" class="arrowColor" points="571.4,530 569,556.8 574.7,554.1 583.3,572.8 596.3,566.8 587.6,548.1 593.4,545.5
			"/>
		<g id="BTenter_1_">
			<path class="wireColor" d="M587.2,591.5h-1.6l-1.4-10.5h1.1l1.2,9l1.2-9h1.2l1.2,9l1.2-9h1l-1.4,10.5h-1.5l-1-7.1L587.2,591.5z"/>
			<path class="wireColor" d="M596.9,585.7v1.1h-2.6v3.7h3.2v1.1h-4.3V581h4.3v1.1h-3.2v3.6H596.9z"/>
			<path class="wireColor" d="M598.3,590.5c0.2,0,0.4,0,0.6,0c0.8,0,1.2-0.4,1.2-1.5v-8h1.2v7.9c0,2-1,2.6-2.2,2.6c-0.3,0-0.5,0-0.7,0
				V590.5z"/>
			<path class="wireColor" d="M607,583.5v0.3h-1.1v-0.3c0-0.9-0.4-1.5-1.2-1.5c-0.8,0-1.2,0.6-1.2,1.5c0,2.4,3.5,2.6,3.5,5.6
				c0,1.6-0.8,2.6-2.4,2.6c-1.6,0-2.4-1-2.4-2.6v-0.6h1.1v0.7c0,0.9,0.4,1.5,1.2,1.5c0.8,0,1.2-0.6,1.2-1.5c0-2.3-3.5-2.6-3.5-5.5
				c0-1.6,0.8-2.6,2.3-2.6C606.2,580.9,607,581.9,607,583.5z M606.2,578.8l-1.4,1.5H604l1-1.5H606.2z"/>
			<path class="wireColor" d="M612.7,583.5v0.9h-1.1v-1c0-0.9-0.4-1.5-1.2-1.5c-0.8,0-1.2,0.6-1.2,1.5v5.6c0,0.9,0.4,1.5,1.2,1.5
				c0.9,0,1.2-0.6,1.2-1.5v-1.4h1.1v1.3c0,1.6-0.8,2.6-2.4,2.6c-1.6,0-2.4-1.1-2.4-2.6v-5.4c0-1.6,0.8-2.6,2.4-2.6
				C611.9,580.9,612.7,581.9,612.7,583.5z"/>
			<path class="wireColor" d="M614.9,581v10.5h-1.2V581H614.9z"/>
			<path class="wireColor" d="M619.9,585.7v1.1h-2.6v3.7h3.2v1.1h-4.3V581h4.3v1.1h-3.2v3.6H619.9z"/>
			<path class="wireColor" d="M574.9,599c1.6,0,2.4,1,2.4,2.6v5.3c0,1.6-0.8,2.6-2.4,2.6h-2.5V599H574.9z M574.9,608.5
				c0.8,0,1.2-0.5,1.2-1.5v-5.4c0-1-0.4-1.5-1.3-1.5h-1.3v8.4H574.9z"/>
			<path class="wireColor" d="M578.3,601.6c0-1.6,0.8-2.6,2.4-2.6c1.6,0,2.4,1,2.4,2.6v5.4c0,1.6-0.8,2.6-2.4,2.6c-1.6,0-2.4-1.1-2.4-2.6
				V601.6z M579.5,607.1c0,1,0.4,1.5,1.2,1.5c0.9,0,1.2-0.6,1.2-1.5v-5.6c0-0.9-0.4-1.5-1.2-1.5c-0.8,0-1.2,0.6-1.2,1.5V607.1z"/>
			<path class="wireColor" d="M589,599c1.6,0,2.3,0.8,2.3,2.3v0.5c0,1.1-0.3,1.8-1.2,2.1c1,0.3,1.4,1.1,1.4,2.3v0.9c0,1.6-0.8,2.5-2.4,2.5
				h-2.4V599H589z M588.7,603.5c0.9,0,1.4-0.3,1.4-1.4v-0.6c0-0.9-0.3-1.4-1.2-1.4h-1.2v3.4H588.7z M589,608.5
				c0.9,0,1.2-0.5,1.2-1.4v-0.9c0-1.2-0.5-1.6-1.5-1.6h-1v3.9H589z"/>
			<path class="wireColor" d="M593.7,599v10.5h-1.2V599H593.7z"/>
			<path class="wireColor" d="M597.2,599c1.6,0,2.3,0.8,2.3,2.3v0.5c0,1.1-0.3,1.8-1.2,2.1c1,0.3,1.4,1.1,1.4,2.3v0.9
				c0,1.6-0.8,2.5-2.4,2.5h-2.4V599H597.2z M596.9,603.5c0.9,0,1.4-0.3,1.4-1.4v-0.6c0-0.9-0.3-1.4-1.2-1.4H596v3.4H596.9z
				 M597.3,608.5c0.9,0,1.2-0.5,1.2-1.4v-0.9c0-1.2-0.5-1.6-1.5-1.6h-1v3.9H597.3z"/>
			<path class="wireColor" d="M600.8,609.6V599h1.2v9.5h3v1.1H600.8z"/>
			<path class="wireColor" d="M607,599v10.5h-1.2V599H607z"/>
			<path class="wireColor" d="M608.1,601.6c0-1.6,0.8-2.6,2.4-2.6c1.6,0,2.4,1,2.4,2.6v5.4c0,1.6-0.8,2.6-2.4,2.6c-1.6,0-2.4-1.1-2.4-2.6
				V601.6z M609.3,607.1c0,1,0.4,1.5,1.2,1.5c0.9,0,1.2-0.6,1.2-1.5v-5.6c0-0.9-0.4-1.5-1.2-1.5c-0.8,0-1.2,0.6-1.2,1.5V607.1z"/>
			<path class="wireColor" d="M615.6,609.6v-9.5h-1.9V599h5.1v1.1h-1.9v9.5H615.6z"/>
			<path class="wireColor" d="M623.3,603.7v1.1h-2.6v3.7h3.2v1.1h-4.3V599h4.3v1.1h-3.2v3.6H623.3z"/>
			<path class="wireColor" d="M626.7,605l-0.6,1v3.5h-1.2V599h1.2v5.1l2.8-5.1h1.2l-2.7,4.8l2.8,5.7H629L626.7,605z"/>
			<path class="wireColor" d="M632.3,599v10.5h-1.2V599H632.3z"/>
			<path class="wireColor" d="M575.4,627.6v-9.5h-1.9v-1.1h5.1v1.1h-1.9v9.5H575.4z"/>
			<path class="wireColor" d="M583.1,621.8v1.1h-2.6v3.7h3.2v1.1h-4.3v-10.5h4.3v1.1h-3.2v3.6H583.1z"/>
			<path class="wireColor" d="M589.4,619.6v0.9h-1.1v-1c0-0.9-0.4-1.5-1.2-1.5c-0.8,0-1.2,0.6-1.2,1.5v5.6c0,0.9,0.4,1.5,1.2,1.5
				c0.9,0,1.2-0.6,1.2-1.5v-1.4h1.1v1.3c0,1.6-0.8,2.6-2.4,2.6c-1.6,0-2.4-1.1-2.4-2.6v-5.4c0-1.6,0.8-2.6,2.4-2.6
				C588.7,617,589.4,618.1,589.4,619.6z"/>
			<path class="wireColor" d="M591.7,622.9v4.7h-1.2v-10.5h1.2v4.7h2.6v-4.7h1.2v10.5h-1.2v-4.7H591.7z"/>
			<path class="wireColor" d="M597.7,627.6h-1.1v-10.5h1.5l2.4,7.6v-7.6h1v10.5h-1.2l-2.7-8.5V627.6z"/>
			<path class="wireColor" d="M604,617.1v10.5h-1.2v-10.5H604z"/>
			<path class="wireColor" d="M609.8,619.6v0.9h-1.1v-1c0-0.9-0.4-1.5-1.2-1.5c-0.8,0-1.2,0.6-1.2,1.5v5.6c0,0.9,0.4,1.5,1.2,1.5
				c0.9,0,1.2-0.6,1.2-1.5v-1.4h1.1v1.3c0,1.6-0.8,2.6-2.4,2.6c-1.6,0-2.4-1.1-2.4-2.6v-5.4c0-1.6,0.8-2.6,2.4-2.6
				C609.1,617,609.8,618.1,609.8,619.6z"/>
			<path class="wireColor" d="M615.5,627.6h-4.8v-1.1l3.6-8.4h-3.4v-1.1h4.6v1.1l-3.6,8.4h3.6V627.6z"/>
			<path class="wireColor" d="M617.6,627.6h-1.1v-10.5h1.5l2.4,7.6v-7.6h1v10.5h-1.2l-2.7-8.5V627.6z"/>
			<path class="wireColor" d="M626.5,621.8v1.1h-2.6v3.7h3.2v1.1h-4.3v-10.5h4.3v1.1h-3.2v3.6H626.5z"/>
			<path class="wireColor" d="M627.9,626.6c0.2,0,0.4,0,0.6,0c0.8,0,1.2-0.4,1.2-1.5v-8h1.2v7.9c0,2-1,2.6-2.2,2.6c-0.3,0-0.5,0-0.7,0
				V626.6z"/>
		</g>
	</g>
	<g id="hotSpot">
		<path class="stairsColor" d="M556.7,368.8c-22.6,0-40.9,18.3-40.9,40.9c0,6,1.3,11.9,3.9,17.4l19.5-7.2l37.9-10.3l20.3-4
			C595.3,384.7,577.7,368.8,556.7,368.8z"/>
		<polygon class="stairsColor" points="323.5,602.5 323.5,642.8 276.4,642.4 276.4,602.5 		"/>
		<polygon class="stairsColor" points="268.8,384.7 252.5,384.7 252.5,303 268.5,303 		"/>
		<path class="stairsColor" d="M226.9,207l58.8,0.1c0,0,6.9,0,10,3.1s2.9,4.9,2.9,4.9l0,13.6c0,0-1.7,11.8-14.2,11.8s-57.5,0-57.5,0V207z"/>
		<polygon class="stairsColor" points="583.2,179.9 609.8,179.9 615.1,239.9 583.2,239.9 		"/>
		<polygon class="stairsColor" points="666.7,357.2 649.5,358 650.3,240.6 666.5,240.6 		"/>
		<polygon class="stairsColor" points="351.3,299.6 374.9,299.6 455.5,434.7 437,444.3 		"/>
		<polygon class="wcColor" points="172.9,506.5 263.2,506.5 263.2,531.7 245.8,531.7 245.8,559.7 263.2,559.7 263.2,578.5 180.7,578.5
			180.5,533.4 172.9,533.2 		"/>
	</g>
	<g id="wire">
		<polygon class="wireColor" points="584.6,509.8 582.8,512.8 580.9,515.7 585.9,514.3 591,512.8 587.8,511.3 		"/>
		<polygon class="wireColor" points="542.1,527.2 541,530.5 539.8,533.8 544.4,531.2 548.9,528.6 545.5,527.9 		"/>
		<path class="wireColor" d="M521.9,359.4c1.1,0,1.9-0.9,1.9-1.9s-0.9-1.9-1.9-1.9c-1.1,0-1.9,0.9-1.9,1.9S520.8,359.4,521.9,359.4z
			 M521.9,356.1c0.7,0,1.3,0.6,1.3,1.3s-0.6,1.3-1.3,1.3c-0.7,0-1.3-0.6-1.3-1.3S521.2,356.1,521.9,356.1z"/>
		<path class="wireColor" d="M449.2,355.5c-1.1,0-1.9,0.9-1.9,1.9s0.9,1.9,1.9,1.9c1.1,0,1.9-0.9,1.9-1.9S450.2,355.5,449.2,355.5z
			 M449.2,358.8c-0.7,0-1.3-0.6-1.3-1.3s0.6-1.3,1.3-1.3s1.3,0.6,1.3,1.3S449.9,358.8,449.2,358.8z"/>
		<path class="wireColor" d="M472.7,355.5c-1.1,0-1.9,0.9-1.9,1.9s0.9,1.9,1.9,1.9c1.1,0,1.9-0.9,1.9-1.9
			C474.7,356.4,473.8,355.5,472.7,355.5z M474.1,357.4c0,0.7-0.6,1.3-1.3,1.3s-1.3-0.6-1.3-1.3s0.6-1.3,1.3-1.3
			C473.5,356.1,474.1,356.7,474.1,357.4L474.1,357.4z"/>
		<path class="wireColor" d="M624.8,416.6c-1.1,0-1.9,0.9-1.9,1.9s0.9,1.9,1.9,1.9c1.1,0,1.9-0.9,1.9-1.9
			C626.8,417.5,625.9,416.6,624.8,416.6z M626.2,418.6c0,0.7-0.6,1.3-1.3,1.3s-1.3-0.6-1.3-1.3s0.6-1.3,1.3-1.3
			S626.2,417.8,626.2,418.6L626.2,418.6z"/>
		<path class="wireColor" d="M504.4,449.7c-1.1,0-1.9,0.9-1.9,1.9s0.9,1.9,1.9,1.9s1.9-0.9,1.9-1.9C506.4,450.5,505.5,449.7,504.4,449.7z
			 M505.8,451.6c0,0.7-0.6,1.3-1.3,1.3c-0.7,0-1.3-0.6-1.3-1.3s0.6-1.3,1.3-1.3C505.2,450.3,505.8,450.9,505.8,451.6L505.8,451.6z"
			/>
		<path class="wireColor" d="M483.8,414.5c-1.1,0-1.9,0.9-1.9,1.9c0,1.1,0.9,1.9,1.9,1.9c1.1,0,1.9-0.9,1.9-1.9
			C485.7,415.4,484.9,414.5,483.8,414.5z M485.1,416.4c0,0.7-0.6,1.3-1.3,1.3s-1.3-0.6-1.3-1.3s0.6-1.3,1.3-1.3
			C484.5,415.1,485.1,415.7,485.1,416.4L485.1,416.4z"/>
		<path class="wireColor" d="M571.1,359.4c1.1,0,1.9-0.9,1.9-1.9s-0.9-1.9-1.9-1.9c-1.1,0-1.9,0.9-1.9,1.9S570,359.4,571.1,359.4z
			 M571.1,356.1c0.7,0,1.3,0.6,1.3,1.3s-0.6,1.3-1.3,1.3s-1.3-0.6-1.3-1.3S570.3,356.1,571.1,356.1z"/>
		<path class="wireColor" d="M620.2,355.5c-1.1,0-1.9,0.9-1.9,1.9s0.9,1.9,1.9,1.9c1.1,0,1.9-0.9,1.9-1.9
			C622.2,356.4,621.3,355.5,620.2,355.5z M621.6,357.4c0,0.7-0.6,1.3-1.3,1.3s-1.3-0.6-1.3-1.3s0.6-1.3,1.3-1.3
			C621,356.1,621.6,356.7,621.6,357.4L621.6,357.4z"/>
		<path class="wireColor" d="M576.9,423.6c-1.1,0-1.9,0.9-1.9,1.9c0,1.1,0.9,1.9,1.9,1.9s1.9-0.9,1.9-1.9
			C578.8,424.5,577.9,423.6,576.9,423.6z M576.9,426.9c-0.7,0-1.3-0.6-1.3-1.3c0-0.7,0.6-1.3,1.3-1.3s1.3,0.6,1.3,1.3
			C578.2,426.3,577.6,426.9,576.9,426.9z"/>
		<path class="wireColor" d="M549.2,431.2c-1.1,0-1.9,0.9-1.9,1.9c0,1.1,0.9,1.9,1.9,1.9s1.9-0.9,1.9-1.9
			C551.1,432.1,550.3,431.2,549.2,431.2z M550.5,433.1c0,0.7-0.6,1.3-1.3,1.3s-1.3-0.6-1.3-1.3c0-0.7,0.6-1.3,1.3-1.3
			C549.9,431.8,550.6,432.4,550.5,433.1L550.5,433.1z"/>
		<path class="wireColor" d="M549.6,381c0-1.1-0.9-1.9-1.9-1.9c-1.1,0-1.9,0.9-1.9,1.9c0,1.1,0.9,1.9,1.9,1.9
			C548.7,383,549.6,382.1,549.6,381z M546.3,381c0-0.7,0.6-1.3,1.3-1.3s1.3,0.6,1.3,1.3s-0.6,1.3-1.3,1.3S546.3,381.8,546.3,381z"/>
		<path class="wireColor" d="M416.4,355.5c-1.1,0-1.9,0.9-1.9,1.9s0.9,1.9,1.9,1.9c1.1,0,1.9-0.9,1.9-1.9S417.4,355.5,416.4,355.5z
			 M416.4,358.8c-0.7,0-1.3-0.6-1.3-1.3s0.6-1.3,1.3-1.3c0.7,0,1.3,0.6,1.3,1.3S417.1,358.8,416.4,358.8z"/>
		<g>
			<path class="wireColor" d="M547.6,383c1.1,0,1.9-0.9,1.9-1.9c0-1.1-0.9-1.9-1.9-1.9c-1.1,0-1.9,0.9-1.9,1.9
				C545.7,382.1,546.6,383,547.6,383z M547.6,379.7c0.7,0,1.3,0.6,1.3,1.3s-0.6,1.3-1.3,1.3s-1.3-0.6-1.3-1.3
				S546.9,379.7,547.6,379.7z"/>
			<path class="wireColor" d="M597,405.7l0.7-0.1c-2.1-21.2-19.8-37.2-41.1-37.2c-22.8,0-41.3,18.5-41.3,41.3c0,6,1.4,12.1,3.9,17.5
				l0.7-0.3c-2.5-5.4-3.8-11.3-3.8-17.2c0-1,0.1-2.1,0.1-3.1l20,1.6c-0.1,0.6-0.1,1.2-0.1,1.8c0,3.5,0.9,7,2.6,10.1l0.1,0.3l11.1-3
				l1.9-5.3c0.9,0.3,1.8,0.4,2.8,0.4c2.8,0,5.4-1.3,7.1-3.2l4.5,3.7l11-3l0-0.3c0-1.3-0.2-2.5-0.4-3.7l19.5-3.6
				C596.8,403.4,596.9,404.5,597,405.7z M576.6,404c-0.2-0.5-0.3-1-0.5-1.5l18.7-7c0.4,1,0.7,2.1,1,3.2L576.6,404z M572.3,396.4
				l15.3-13c0.7,0.8,1.4,1.7,2,2.6l-16.3,11.7C573,397.2,572.7,396.8,572.3,396.4z M589.7,386.2c0.6,0.9,1.2,1.8,1.8,2.8l-17.2,10.1
				l0.1,0.2l17.2-10.1c0.6,1,1.1,1.9,1.6,2.9l-18,8.6c-0.5-1-1.1-2-1.8-2.9L589.7,386.2z M593.3,392.2c0.5,1,0.9,2,1.3,3.1l-18.7,7
				c-0.2-0.5-0.4-1-0.7-1.4L593.3,392.2z M587.4,383.2l-15.3,13.1c-0.4-0.4-0.7-0.8-1.1-1.1l14.1-14.3
				C585.9,381.6,586.7,382.4,587.4,383.2z M561.8,390l5.1-19.5c1.1,0.3,2.1,0.6,3.2,1l-6.7,19C562.8,390.3,562.3,390.1,561.8,390z
				 M570.3,371.5c1,0.4,2.1,0.8,3.1,1.2l-8.4,18.4c-0.5-0.2-1-0.4-1.5-0.6L570.3,371.5z M573.6,372.8c1,0.5,2,1,3,1.5l-9.9,17.5
				c-0.5-0.2-0.9-0.5-1.4-0.7L573.6,372.8z M576.7,374.4c1,0.5,1.9,1.1,2.8,1.8l-11.4,16.6c-0.4-0.3-0.9-0.6-1.3-0.8L576.7,374.4z
				 M579.7,376.3c0.9,0.6,1.8,1.3,2.7,2l-12.8,15.5c-0.4-0.3-0.8-0.6-1.3-0.9L579.7,376.3z M582.5,378.4c0.9,0.7,1.7,1.4,2.5,2.2
				L570.9,395c-0.4-0.4-0.8-0.7-1.2-1L582.5,378.4z M563.2,369.7l-3.3,19.9l0.2,0l3.3-19.9c1.1,0.2,2.2,0.4,3.2,0.7l-5.1,19.5
				c-1.1-0.3-2.1-0.4-3.2-0.5l1.6-20.1l-0.2,0l-1.6,20.1c-0.4,0-0.9-0.1-1.3-0.1c-4.4,0-8.5,1.4-11.9,3.8l-11.7-16.5
				c6.6-4.7,14.7-7.5,23.4-7.5C558.9,369.2,561.1,369.4,563.2,369.7z M543.6,394.2l-13.1-15.4c0.8-0.7,1.7-1.4,2.6-2l11.7,16.5
				C544.4,393.6,544,393.9,543.6,394.2z M530.3,379l13.1,15.4c-0.4,0.3-0.8,0.7-1.1,1l-14.4-14.2C528.7,380.4,529.5,379.7,530.3,379
				z M537,404.5l-19.5-5.1c0.3-1.1,0.6-2.1,1-3.2l19,6.8l0.1-0.2l-19-6.8c0.4-1,0.8-2.1,1.3-3.1l18.3,8.4
				C537.6,402.4,537.3,403.4,537,404.5z M536.9,404.7c-0.1,0.5-0.3,1-0.4,1.5l-19.8-3.4c0.2-1.1,0.4-2.2,0.7-3.2L536.9,404.7z
				 M538.2,401.2l-18.3-8.4c0.5-1,1-2,1.5-3l17.5,10C538.7,400.2,538.4,400.7,538.2,401.2z M539,399.6l-17.5-10
				c0.5-1,1.1-1.9,1.8-2.8l16.6,11.5C539.6,398.7,539.3,399.2,539,399.6z M540,398.1l-16.6-11.5c0.6-0.9,1.3-1.8,2-2.6l15.5,12.9
				C540.6,397.3,540.3,397.7,540,398.1z M541.1,396.7l-15.6-12.9c0.7-0.9,1.5-1.7,2.2-2.5l14.4,14.2
				C541.7,395.9,541.4,396.3,541.1,396.7z M516.3,406.4c0.1-1.1,0.2-2.2,0.4-3.3l19.8,3.4c-0.1,0.5-0.2,1-0.2,1.6L516.3,406.4z
				 M554.8,411.7c-1.1,0-2.1-0.2-3.1-0.6c-0.4-0.1-0.7-0.3-1-0.5c-0.1,0-0.1-0.1-0.2-0.1c-0.3-0.2-0.6-0.4-0.9-0.6
				c-0.1-0.1-0.2-0.1-0.3-0.2c-0.3-0.2-0.6-0.5-0.8-0.7c-0.1-0.1-0.1-0.1-0.2-0.2c-0.2-0.2-0.4-0.5-0.6-0.8c0-0.1-0.1-0.1-0.1-0.2
				c-0.2-0.3-0.4-0.7-0.6-1c0-0.1-0.1-0.1-0.1-0.2c-0.2-0.3-0.3-0.7-0.4-1.1c0,0,0,0,0-0.1c-0.1-0.4-0.2-0.8-0.3-1.2
				c0-0.1,0-0.2,0-0.3c-0.1-0.4-0.1-0.8-0.1-1.2c0-4.9,3.9-8.8,8.8-8.8c4.9,0,8.8,3.9,8.8,8.8c0,0.3,0,0.6,0,0.8c0,0.1,0,0.2,0,0.3
				c0,0.2,0,0.3-0.1,0.5c0,0.1-0.1,0.3-0.1,0.4c0,0.1-0.1,0.3-0.1,0.4c0,0.1-0.1,0.3-0.1,0.4c0,0.1-0.1,0.3-0.1,0.4
				c0,0.1-0.1,0.2-0.1,0.3c-0.1,0.2-0.1,0.3-0.2,0.5c0,0.1-0.1,0.2-0.1,0.2C561,409.8,558.1,411.7,554.8,411.7z M566.7,412.1
				l-4.2-3.4c0.1-0.1,0.2-0.2,0.2-0.3c0,0,0.1-0.1,0.1-0.1c0.1-0.2,0.3-0.4,0.4-0.6c0-0.1,0.1-0.1,0.1-0.2c0.1-0.3,0.3-0.5,0.4-0.8
				c0-0.1,0.1-0.2,0.1-0.2c0.1-0.2,0.1-0.4,0.2-0.5c0-0.1,0.1-0.2,0.1-0.4c0-0.2,0.1-0.3,0.1-0.5c0-0.1,0.1-0.3,0.1-0.4
				c0-0.2,0.1-0.4,0.1-0.5c0-0.1,0-0.2,0-0.3c0-0.3,0-0.6,0-0.9c0-5.3-4.3-9.5-9.5-9.5s-9.5,4.3-9.5,9.5c0,0.4,0,0.9,0.1,1.3
				c0,0.1,0,0.2,0,0.3c0.1,0.9,0.4,1.7,0.8,2.4c0,0.1,0.1,0.2,0.1,0.2c0.2,0.4,0.4,0.7,0.6,1.1c0,0,0,0.1,0.1,0.1
				c0.2,0.3,0.5,0.6,0.7,0.9c0.1,0.1,0.2,0.2,0.2,0.3c0.3,0.3,0.6,0.6,0.9,0.8c0.1,0.1,0.2,0.1,0.2,0.2c0.3,0.2,0.5,0.4,0.8,0.6
				c0.1,0.1,0.2,0.1,0.3,0.2c0.4,0.2,0.7,0.4,1.1,0.5c0,0,0.1,0,0.1,0l-1.7,4.9l-10.2,2.8c-1.6-2.9-2.4-6.2-2.4-9.5
				c0-11,8.9-19.9,19.9-19.9c10.7,0,19.5,8.6,19.9,19.3L566.7,412.1z M577,405.7c-0.1-0.5-0.3-1-0.4-1.5l19.2-5.3
				c0.3,1.1,0.5,2.1,0.8,3.2L577,405.7z"/>
			<path class="wireColor" d="M554.8,396.6c-3.5,0-6.3,2.8-6.3,6.3s2.8,6.3,6.3,6.3s6.3-2.8,6.3-6.3S558.3,396.6,554.8,396.6z
				 M554.8,408.4c-3.1,0-5.5-2.5-5.5-5.5s2.5-5.5,5.5-5.5s5.5,2.5,5.5,5.5S557.9,408.4,554.8,408.4z"/>
		</g>
		<path class="wireColor" d="M595,7.1h7.1V0H595h-0.1h-7.1v7.1h7.1H595z M596.4,1.5h4.2v4.1h-4.2V1.5z M593.5,5.6h-4.2V1.5h4.2V5.6z"/>
		<path class="wireColor" d="M673.9,0h-7.2v7.1h7.2V0z M672.4,5.6h-4.2V1.5h4.2V5.6z"/>
		<path class="wireColor" d="M574.3,0h-7.2v7.1h7.2V0z M572.8,5.6h-4.2V1.5h4.2V5.6z"/>
		<path class="wireColor" d="M525,0h-7.2v7.1h7.2V0z M523.5,5.6h-4.2V1.5h4.2V5.6z"/>
		<path class="wireColor" d="M475.8,0h-7.2v7.1h7.2V0z M474.3,5.6h-4.2V1.5h4.2V5.6z"/>
		<path class="wireColor" d="M426.6,0h-7.2v7.1h7.2V0z M425.1,5.6h-4.2V1.5h4.2V5.6z"/>
		<path class="wireColor" d="M377.4,0h-7.2v7.1h7.2V0z M375.9,5.6h-4.2V1.5h4.2V5.6z"/>
		<path class="wireColor" d="M328.1,0h-7.2v7.1h7.2V0z M326.6,5.6h-4.2V1.5h4.2V5.6z"/>
		<path class="wireColor" d="M278.9,0h-7.2v7.1h7.2V0z M277.4,5.6h-4.2V1.5h4.2V5.6z"/>
		<path class="wireColor" d="M156,0h-7.2v7.1h7.2V0z M154.5,5.6h-4.2V1.5h4.2V5.6z"/>
		<path class="wireColor" d="M106.8,0h-7.2v7.1h7.2V0z M105.3,5.6h-4.2V1.5h4.2V5.6z"/>
		<path class="wireColor" d="M57.6,0h-7.2v7.1h7.2V0z M56.1,5.6h-4.2V1.5h4.2V5.6z"/>
		<path class="wireColor" d="M8.3,0H1.1v7.1h7.2V0z M6.8,5.6H2.6V1.5h4.2V5.6z"/>
		<path class="wireColor" d="M251.1,7.1h7V0h-7h-0.2h-7v7.1h7H251.1z M252.4,1.5h4.2v4.1h-4.2V1.5z M249.6,5.6h-4.2V1.5h4.2V5.6z"/>
		<path class="wireColor" d="M177.2,7.2h7V0.2h-7H177h-7v7.1h7H177.2z M178.5,1.7h4.2v4.1h-4.2V1.7z M175.7,5.7h-4.2V1.7h4.2V5.7z"/>
		<g>
			<rect x="180.6" y="545.2" class="wireColor" width="65.3" height="1"/>
		</g>
		<path class="wireColor" d="M670.5,407l-0.7-350.9H664v-6.8h-0.1c-4.3,0-7.9,3-8.5,6.8h-40.7c-0.6-3.9-4.2-6.8-8.5-6.8h-0.1v6.8h-4.3
			l-2.1-23.1H363.3v-6.3h-0.1c-4,0-7.3,2.7-7.9,6.3H171.4c-0.6-3.5-3.9-6.3-7.9-6.3h-0.1v6.3H-0.9L0,655.5h426.9l0.4-1.2
			c35.7-100.8,134.9-164,241.3-153.8l2.1,0.2l-0.2-83.8c4.6-0.5,8.3-4.7,8.3-9.8V407H670.5z M666.8,395.1c-3.2-0.7-5.7-3.8-5.8-7.5
			h5.7L666.8,395.1z M666.7,385.2c-3.2-0.7-5.7-3.8-5.7-7.5h5.7L666.7,385.2z M666.7,375.3c-3.2-0.7-5.7-3.8-5.7-7.5h5.7
			L666.7,375.3z M666.7,357.2h-16.4V240.6h1.9v71.6h0.8v-2.4h13.7L666.7,357.2z M666.6,309.7h-13.7v-2h13.7L666.6,309.7z
			 M666.6,307.4h-13.7v-2h13.7L666.6,307.4z M666.6,305.2h-13.7v-2h13.7L666.6,305.2z M666.6,303h-13.7v-2h13.7L666.6,303z
			 M666.6,300.7h-13.7v-2h13.7L666.6,300.7z M666.5,298.5h-13.7v-2h13.7L666.5,298.5z M666.5,296.3h-13.7v-2h13.7L666.5,296.3z
			 M666.5,294h-13.6v-2h13.6L666.5,294z M666.5,291.8h-13.6v-2h13.6L666.5,291.8z M666.5,289.6h-13.6v-2h13.6L666.5,289.6z
			 M666.5,287.3h-13.6v-2h13.6L666.5,287.3z M666.5,285.1h-13.6v-14.9h13.6L666.5,285.1z M666.5,270h-13.6v-2h13.6L666.5,270z
			 M666.5,267.8h-13.6v-2h13.6L666.5,267.8z M666.5,265.5h-13.6v-2h13.6L666.5,265.5z M666.5,263.3h-13.6v-2h13.6L666.5,263.3z
			 M666.5,261.1h-13.6v-2h13.6L666.5,261.1z M666.5,258.8h-13.6v-2h13.6L666.5,258.8z M666.5,256.6h-13.6v-2h13.6L666.5,256.6z
			 M666.5,254.4h-13.6v-2h13.6L666.5,254.4z M666.5,252.1h-13.6v-2h13.6L666.5,252.1z M666.4,249.9h-13.6v-2h13.6L666.4,249.9z
			 M666.4,247.6h-13.6v-2h13.5L666.4,247.6z M663.8,49.4v6.6h-8.2C656.2,52.4,659.6,49.5,663.8,49.4z M606.3,49.4
			c4.1,0,7.6,2.9,8.2,6.6h-8.2V49.4z M560.4,36.7v6.6c-4.1,0-7.6-2.9-8.2-6.6H560.4z M532.6,36.7h8.2c-0.6,3.7-4,6.6-8.2,6.6V36.7z
			 M511.1,36.7v6.6c-4.1,0-7.6-2.9-8.2-6.6H511.1z M483.3,36.7h8.2c-0.6,3.7-4,6.6-8.2,6.6V36.7z M461.4,36.7v6.6
			c-4.1,0-7.6-2.9-8.2-6.6H461.4z M433.6,36.7h8.2c-0.6,3.7-4,6.6-8.2,6.6V36.7z M413.5,36.7h19.8v6.8h0.1c4.3,0,7.9-3,8.5-6.8h11
			c0.6,3.9,4.2,6.8,8.5,6.8h0.1v-6.8h21.5v6.8h0.1c4.3,0,7.9-3,8.5-6.8h11c0.6,3.9,4.2,6.8,8.5,6.8h0.1v-6.8h21v6.8h0.1
			c4.3,0,7.9-3,8.5-6.8h11c0.6,3.9,4.2,6.8,8.5,6.8h0.1v-6.8h35.7l2.1,23.1h0.8l7.8,87.6h-25.2v39.1h-7.3v0.1c0,4.3,3.3,7.9,7.3,8
			v20.6h-9.3v-19h-65.4v-1.7h-34.7v-10.1h-0.8v10.5v0.4v14.3h6.8v0.4c-0.1,0-0.2,0-0.2,0c-4.1,0-7.4,3.6-7.4,8v0.1h7.7v1.3h-19.7
			v-14.9H353.8l-15.5-26.2h22.2v-6.5h7.5v-0.1l0.1,0c0-0.2,0-0.4,0-0.6c0-4-3.4-7.2-7.6-7.4v-4.5h-0.8v18.4h-21.9l-11-18.7h33.3
			v-0.8h-2.1v-18.2h15.6v38.6h2.1v16.5h3.1c0.1,4,3.6,7.3,8,7.3h0.1v-7.3h23.3v7.3h0.1c4.3,0,7.9-3.3,8-7.3h2.4v-16.5h21.1v7.6h18.7
			v-67.1h-24.9v-10.9h-22.2V36.7z M583.2,154.7h7.1c-0.1,4.2-3.2,7.6-7.1,7.6V154.7z M590.3,170.2h-7.1v-7.6
			C587.1,162.7,590.3,166.1,590.3,170.2z M611,344.4c4.1,0,7.4-3.4,7.4-7.5v-0.1h-7.7v-0.5h12.9l1.1,12.1h-14v-4
			C610.9,344.4,611,344.4,611,344.4z M610.8,344.1V337h7.5c-0.1,4-3.3,7.2-7.2,7.2C611,344.1,610.9,344.1,610.8,344.1z M590.4,335.5
			v-17.4h31.6l1.5,17.4H590.4z M394.5,273.1c4.1-2.4,5.3-7.9,2.7-12.3l-0.1-0.1l-7.4,4.4L375.5,241h11.3h0.4h24.6l15.4,24.8
			l-16.8,9.9c0-0.1-0.1-0.1-0.1-0.2c-0.9-1.6-2.5-2.7-4.4-3.1c-1.9-0.4-3.8-0.1-5.5,0.9l-0.1,0.1l3.7,6.1l-4.3,2.5L394.5,273.1
			C394.5,273.2,394.5,273.1,394.5,273.1z M394.4,272.9C394.4,273,394.3,273,394.4,272.9l-4.6-7.6l7.2-4.3
			C399.5,265.3,398.3,270.6,394.4,272.9z M367.5,212.7c4.4,0,8-3.3,8-7.4c0-0.1,0-0.2,0-0.2h11v35.2H375L354.3,205h13.2v7.7H367.5z
			 M367.6,212.5V205h7.6c0,0.1,0,0.2,0,0.2C375.3,209.2,371.9,212.5,367.6,212.5z M394.5,212.7c4.4,0,8-3.3,8-7.4c0-0.1,0-0.2,0-0.2
			h6.1v35.2h-21.4V205h7.2v7.7H394.5z M394.6,212.5V205h7.6c0,0.1,0,0.2,0,0.2C402.2,209.2,398.8,212.5,394.6,212.5z M416.4,212.7
			c4.4,0,8-3.3,8-7.4c0-0.1,0-0.2,0-0.2h7.1v34.7l-20.4,0l0.3,0.5h-2V205h7v7.7H416.4z M416.5,212.5V205h7.6c0,0.1,0,0.2,0,0.2
			C424.1,209.2,420.7,212.5,416.5,212.5z M448.7,212.7h0.1V205h9v34.6l-25.6,0V205h8.6c0,0.1,0,0.2,0,0.2
			C440.8,209.4,444.3,212.7,448.7,212.7z M441,205.3c0-0.1,0-0.2,0-0.2h7.6v7.5C444.4,212.5,441,209.2,441,205.3z M568.4,241.8V298
			l-118.5,0l-34.8-56L568.4,241.8z M459.8,227.6c4.4,0,8-3.3,8-7.4c0-0.1,0-0.2,0-0.2h26.9v19.7l-36,0V220h1.1v7.7H459.8z
			 M459.9,227.4V220h7.6c0,0.1,0,0.2,0,0.2C467.5,224.2,464.1,227.4,459.9,227.4z M478.3,217.7h-7.5c0.1-4.2,3.3-7.6,7.2-7.6
			c0.1,0,0.2,0,0.2,0V217.7z M472.3,208.7v-13.5h33.9v14.4c-0.1,0-0.2,0-0.2,0c-4.1,0-7.4,3.6-7.4,8v0.1h7.7v1.5H479v-10.5H472.3z
			 M507.9,204.6c4.4,0,8-3.3,8-7.4c0-0.1,0-0.2,0-0.2h33.2v19h11.1v23.6l-64.9,0.1V220h11.6v-23.1h0.9v7.7H507.9z M508.1,204.4v-7.5
			h7.6c0,0.1,0,0.2,0,0.2C515.7,201.1,512.3,204.3,508.1,204.4z M555.7,204.6c4.4,0,8-3.3,8-7.4c0-0.1,0-0.2,0-0.2h8v18.3h-21.8
			v-18.3h5.7v7.7H555.7z M555.8,204.4v-7.5h7.6c0,0.1,0,0.2,0,0.2C563.4,201.1,560,204.3,555.8,204.4z M581.2,223.6h0.1v-7.7h0.4v24
			h-11.1v-0.4l-9.7,0v-23.6h12.3c0,0.1,0,0.2,0,0.2C573.2,220.3,576.8,223.6,581.2,223.6z M573.4,216.2c0-0.1,0-0.2,0-0.2h7.6v7.5
			C576.8,223.4,573.4,220.1,573.4,216.2z M567.9,327.8v-27.5l2.7,0v-0.8h19.1v28.2H567.9z M588.8,330v6.7c-3.8-0.1-6.9-3-7.2-6.7
			H588.8z M576.5,330c-0.3,3.7-3.4,6.7-7.2,6.7V330H576.5z M570.6,298.8v-18.7h19.1v18.7H570.6z M570.6,279.3v-28.1h19.1v28.1H570.6
			z M506.2,217.5h-7.5c0.1-4.2,3.3-7.6,7.2-7.6c0.1,0,0.2,0,0.2,0V217.5z M498.9,335.3v-2.8h7.7v-0.1c0-4.4-3.3-8-7.4-8
			c-0.1,0-0.2,0-0.2,0v-24.1l68.3,0v35H498.9z M519.3,336v7.5c-4.2-0.1-7.6-3.3-7.6-7.2c0-0.1,0-0.2,0-0.2H519.3z M498.9,332.3v-7.6
			c0.1,0,0.2,0,0.2,0c3.9,0,7.2,3.4,7.2,7.6H498.9z M451.4,327.6h-0.1v7.7h-1.7v-35l48.6,0v35h-38.8c0-0.1,0-0.2,0-0.2
			C459.4,330.9,455.8,327.6,451.4,327.6z M459.2,335c0,0.1,0,0.2,0,0.2h-7.6v-7.5C455.8,327.9,459.2,331.1,459.2,335z M410.3,275.8
			l-6.1,3.6l-3.5-5.9c1.6-0.9,3.5-1.3,5.3-0.9c1.8,0.4,3.3,1.5,4.2,3C410.2,275.7,410.2,275.8,410.3,275.8z M427.6,266.5l10.7,17.2
			l-28,16.5l-10.3-17.5L427.6,266.5z M438.7,284.3l9.9,15.9l0.3,0v35h-1.1v-7.7h-0.1c-4.4,0-8,3.3-8,7.4c0,0.1,0,0.2,0,0.2H431
			l-20.3-34.4L438.7,284.3z M447.6,327.8v7.5H440c0-0.1,0-0.2,0-0.2C440,331.1,443.4,327.9,447.6,327.8z M511.4,336
			c0,0.1,0,0.2,0,0.2c0,4.1,3.6,7.4,8,7.4h0.1V336h48.5v-6h1.2v6.9h0.1c4,0,7.2-3.1,7.5-6.9h4.6c0.3,3.9,3.5,6.9,7.5,6.9h0.1V330
			h0.7v6.3H610v12.1H438.8l-7.3-12.3H511.4z M590.4,317.4v-17.8h4.5v17.8H590.4z M595.7,317.4v-15.2h25l1.4,15.2H595.7z
			 M595.7,301.4v-2.6h-5.3v-18.7h28.2l1.9,21.4H595.7z M590.4,279.3v-28.1h15.2v28.1H590.4z M606.4,279.3v-28.1h9.7l2.5,28.1H606.4z
			 M590.1,250.4h-0.4h-19.1v-9h11.1h0.8h32.8l0.8,9H590.1z M581.7,194.3c-3.9-0.1-7-3.5-7.1-7.6h7.1V194.3z M583.2,239.9v-14.3h13.5
			l0,0.6l1.5,0l0-0.6h15.5v-0.2h-15.5l0-2.2h15.3v-0.2h-15.3l0-2.2h15.1v-0.2h-15.1l0-2.2h14.9v-0.2h-14.9l0-2.2H613V216l2.1,23.9
			H583.2z M596.9,202l0,2.2h-13.7V202H596.9z M583.2,201.8v-2.2h13.7l0,2.2H583.2z M596.9,204.3l0,2.2h-13.7v-2.2H596.9z
			 M596.9,206.7l0,2.2h-13.6v-2.2H596.9z M596.9,209.1l0,2.2h-13.6v-2.2H596.9z M596.9,211.4l0,2.2h-13.6v-2.2H596.9z M596.8,213.8
			l0,2.2h-13.6v-2.2H596.8z M596.8,216.2l0,2.2h-13.6v-2.2H596.8z M596.8,218.5l0,2.2h-13.5v-2.2H596.8z M596.8,220.9l0,2.2h-13.5
			v-2.2H596.8z M596.8,223.3l0,2.2h-13.5v-2.2H596.8z M612.8,213.8l0.2,2.2h-14.7l0-2.2H612.8z M598.3,213.6l0-2.2h14.2l0.2,2.2
			H598.3z M612.4,183.6l8.5-0.7c0.3,4.8-3,9-7.5,9.3c-0.1,0-0.1,0-0.2,0L612.4,183.6z M612.4,209.1l0.2,2.2h-14.2l0-2.2H612.4z
			 M598.4,208.9l0-2.2h13.8l0.2,2.2H598.4z M598.4,206.5l0-2.2H612l0.2,2.2H598.4z M598.4,204.1l0-2.2h13.3l0.2,2.2H598.4z
			 M598.4,201.8l0-2.2h13.1l0.2,2.2H598.4z M598.4,199.4l0-4.7l-1.5,0l0,4.7h-13.7v-19.5h26.6l1.7,19.5H598.4z M360.6,171.3v-7.7
			c4.1,0.2,7.4,3.3,7.4,7.2c0,0.2,0,0.3,0,0.5H360.6z M313.5,127.6v0.1c4.4,0,8-3.3,8-7.4c0-0.1,0-0.2,0-0.2h52.4v19h-58.5l-11.2-19
			h9.2v7.6H313.5z M313.6,127.5V120h7.6c0,0.1,0,0.2,0,0.2C321.2,124.2,317.8,127.4,313.6,127.5z M357.4,139.7v9.5
			c-4.2,0.2-7.6,3.4-7.6,7.4c0,0.2,0,0.4,0,0.6l0.1,0v0.1h7.5v0.5h-31l-10.7-18.2H357.4z M357.4,149.5v7.7h-7.3c0-0.2,0-0.3,0-0.5
			C350,152.8,353.3,149.6,357.4,149.5z M459.1,120.4v64.1h-15.7v-7.6h-24.1v16.5h-41.9v-16.5h-2.1v-56.5h36.5v-10.9h22.5v10.9H459.1
			z M418.1,194.8c-0.1,3.9-3.5,7-7.6,7.1v-7.1H418.1z M386.8,194.8v7.1c-4.2-0.1-7.6-3.2-7.6-7.1H386.8z M412.3,36.7v6.6
			c-4.1,0-7.6-2.9-8.2-6.6H412.3z M384.6,36.7h8.2c-0.6,3.7-4,6.6-8.2,6.6V36.7z M363.1,26.9v6h-7.6
			C356.1,29.5,359.3,26.9,363.1,26.9z M335.3,36.7h8.2c-0.6,3.7-4,6.6-8.2,6.6V36.7z M314.1,36.7v6.6c-4.1,0-7.6-2.9-8.2-6.6H314.1z
			 M286.2,36.7h8.2c-0.6,3.7-4,6.6-8.2,6.6V36.7z M286,36.7v6.8h0.1c4.3,0,7.9-3,8.5-6.8h11c0.6,3.9,4.2,6.8,8.5,6.8h0.1v-6.8h20.8
			v6.8h0.1c4.3,0,7.9-3,8.5-6.8h40.6v6.8h0.1c4.3,0,7.9-3,8.5-6.8h10.9c0.6,3.9,4.2,6.8,8.5,6.8h0.1v-6.8h0.3v71.3h-2.5v10.9h-36.5
			v0.4h-70.1L255,36.7H286z M301.6,120.2l-6.3,3.7c-1.1-1.9-1.4-4.1-1-6.2c0.4-2,1.5-3.6,3.1-4.7L301.6,120.2z M296.8,112
			c-3.6,1.9-8.3,0.4-10.5-3.4l6.3-3.7L296.8,112z M163.6,26.9c3.8,0,7,2.6,7.6,6h-7.6V26.9z M2.9,36.7H193l54.9,92.7l-22.5,13.2
			v90.2h-29v25.8v0.8V303h55.3l0,81.8h0.8v-2.4h16v2.4h0.2l0-81.8h2.9v202.8h-7V505h-91.8v-84.8h20.9v26.3h46.8v-34.3h-46v-16.2
			h-21.7V183.5h-0.8v-28.8h-44.5h-0.8h-53v28.8h-3v-7.4h-0.1c-3.7,0-6.8,2.7-7.4,6.3c-0.6-3.6-3.7-6.3-7.4-6.3h-0.1v7.4h-3.5v-28.8
			H3.1L2.9,36.7z M248.6,130.7l6.5,10.9v40.1h-28.2v-38.3L248.6,130.7z M250.7,207v0.4v1.5V223H250v1.5h0.7v16h-23.8V207H250.7z
			 M230.3,205.5v-7.8c4.7,0.1,8.6,3.5,8.6,7.8H230.3z M253.4,224.5v16h-2.5v-16H253.4z M250.9,223v-14.2v-1.5V207h2.5v0.4h0V223
			H250.9z M271.7,242v60.2h-74.5V269c0.1,0,0.2,0,0.3,0c4.5,0,8.1-4,8.1-8.9h-0.1V260h-8.3v-0.7h29.4V254c0.1,0,0.2,0,0.3,0
			c4.5,0,8.1-4,8.1-8.9h-0.1V245h-8.3V242H271.7z M256.1,224.5v16h-2.5v-16H256.1z M253.6,223v-14.2h0V207h2.5v0.4h0V223H253.6z
			 M258.8,224.5v16h-2.5v-16H258.8z M256.3,223v-14.2h0V207h2.5v0.4h0V223H256.3z M261.5,224.5v16H259v-16H261.5z M259,223v-14.2h0
			V207h2.5v0.4h0V223H259z M264.2,208.8V223h-2.5v-14.2h0V207h2.5L264.2,208.8L264.2,208.8z M264.2,224.5v16h-2.5v-16H264.2z
			 M267,208.8V223h-2.5v-15.6h0V207h2.5L267,208.8L267,208.8z M267,224.5v16h-2.5v-16H267z M269.7,208.8V223h-2.5v-15.6h0V207h2.5
			L269.7,208.8L269.7,208.8z M269.7,224.5v16h-2.5v-16H269.7z M269.9,223v-15.6h0V207h2.5v0.4h0V223H269.9z M272.4,224.5v16h-2.5
			v-16H272.4z M252.5,379.6l0-2.2h16l0,2.2H252.5z M268.5,379.8v2.2h-16v-2.2H268.5z M268.5,306l0,2.3h-16l0-2.3H268.5z
			 M252.5,305.8V303h16v2.9H252.5z M252.5,313.3V311h16v2.3H252.5z M268.5,313.5v2.3h-16v-2.3H268.5z M252.5,310.8v-2.3h16v2.3
			H252.5z M268.5,315.9l0,2.3h-16l0-2.3H268.5z M252.5,333v-2.3h16v2.3H252.5z M268.5,333.3v2.3h-16v-2.3H268.5z M252.5,330.6v-2.3
			h16v2.3H252.5z M268.5,320.9v2.3h-16v-2.3H268.5z M252.5,320.7v-2.3h16v2.3H252.5z M268.5,323.4v2.3h-16v-2.3H268.5z M252.5,325.8
			h16v2.3h-16V325.8z M268.5,335.7l0,14.5h-16l0-14.5H268.5z M252.5,355.1v-2.2h16v2.2H252.5z M268.5,355.3v2.2h-16v-2.2H268.5z
			 M252.5,352.7v-2.2h16v2.2H252.5z M268.5,357.8l0,2.2h-16l0-2.2H268.5z M252.5,364.9v-2.2h16v2.2H252.5z M268.5,365.1v2.2h-16
			v-2.2H268.5z M252.5,362.5v-2.2h16v2.2H252.5z M268.5,367.6l0,2.2h-16l0-2.2H268.5z M252.5,374.7v-2.2h16v2.2H252.5z M268.5,374.9
			v2.2h-16v-2.2H268.5z M252.5,372.3V370h16v2.2H252.5z M197.2,268.8v-8.6h8.2c-0.1,4.8-3.6,8.6-7.9,8.6
			C197.4,268.8,197.3,268.8,197.2,268.8z M225.8,242v16.6h-28.6v-25h28.2v8.5H225.8z M226.5,253.8v-8.6h8.2
			c-0.1,4.8-3.6,8.6-7.9,8.6C226.7,253.8,226.6,253.8,226.5,253.8z M251.6,524.3v0.1h-0.1v7.3h-5.6v28h5.6v7.3h0.1v0.1
			c4.1,0,7.5-3.3,7.5-7.4h4.1v18.8h-82.5v-45.3h-7.8v-26.7h90.3v25.2h-4.1C259,527.6,255.7,524.3,251.6,524.3z M258.9,531.7h-7.2
			v-7.2C255.6,524.6,258.8,527.8,258.9,531.7z M251.7,567v-7.2h7.2C258.8,563.7,255.6,566.9,251.7,567z M120.1,567.5v11.4H75v-2.2
			h7.8v-0.1c0-4.2-3.4-7.5-7.5-7.5c-0.1,0-0.2,0-0.3,0v-1.6h8.7v-0.8H75v-32h45v32h-8.7v0.8H120.1z M83.4,585c0.1,0,0.2,0,0.3,0
			c4,0,7.3,3.2,7.3,7.2h-7.6V585z M75,576.5v-7.2c0.1,0,0.2,0,0.3,0c4,0,7.3,3.2,7.3,7.2H75z M82.8,499.3v-0.1
			c0-4.1-3.4-7.5-7.5-7.5c-0.1,0-0.2,0-0.3,0v-22h50v-0.8H75v-35.2c0.1,0,0.2,0,0.3,0c4.1,0,7.5-3.4,7.5-7.5v-0.1H75v-6.6h48.9
			l0,1.5h22.3v7h0.1c4,0,7.2-3.1,7.5-7h16.8v111.6h-44.8v-19.6H75v-13.6H82.8z M75,499.1v-7.2c0.1,0,0.2,0,0.3,0
			c4,0,7.2,3.2,7.3,7.2H75z M75,433.5v-7.2h7.5c-0.1,4-3.3,7.2-7.3,7.2C75.2,433.5,75.1,433.5,75,433.5z M172.9,397.6v-0.8h11.4
			c0,0.1,0,0.2,0,0.3c0,4.1,3.7,7.5,8.3,7.5v-0.1h0.1v-7.7h1.1v22.6h-1.1v-7.7h-0.1v-0.1c-4.6,0-8.3,3.4-8.3,7.5c0,0.1,0,0.2,0,0.3
			h-11.4v-0.8h-46.7l0-21.1H172.9z M146.4,395.4v-6.8c3.8,0.1,6.9,3,7.2,6.8H146.4z M163.6,161.3v0.1c0,4.1,3.4,7.5,7.5,7.5
			c0.1,0,0.2,0,0.3,0v14.6h-43.8v-28.1h43.8v5.9H163.6z M171.4,161.6v7.2c-0.1,0-0.2,0-0.3,0c-4,0-7.2-3.2-7.3-7.2H171.4z
			 M184.5,397.1c0-0.1,0-0.2,0-0.3h7.9v7.5C188,404.3,184.5,401.1,184.5,397.1z M192.4,412v7.5h-7.9c0-0.1,0-0.2,0-0.3
			C184.5,415.3,188,412,192.4,412z M153.6,421c-0.3,3.8-3.4,6.7-7.2,6.8V421H153.6z M75.4,533.2v-18.8h48.9v18.8H75.4z M120.8,569.6
			c0.1,0,0.2,0,0.3,0c4,0,7.3,3.2,7.3,7.2h-7.6V569.6z M120.8,577h7.8v-0.1c0-4.2-3.4-7.5-7.5-7.5c-0.1,0-0.2,0-0.3,0v-34.6h4.2v0.1
			h46.7v-0.1h7.4v44.2h-58.4V577z M232.1,421.4v0.1H232c0,4.6,3.4,8.3,7.5,8.3c0.1,0,0.2,0,0.3,0v16h-45.3v-25.9v-0.4V413h45.3v8.4
			H232.1z M239.8,421.6v7.9c-0.1,0-0.2,0-0.3,0c-4,0-7.2-3.6-7.3-7.9H239.8z M119.1,161.3v0.1c0,4.1,3.4,7.5,7.5,7.5
			c0.1,0,0.2,0,0.3,0v14.6h-1.8v0.4h-24.4h-1.5H75.8v-0.4h-1.2v-28.1h52.3v5.9H119.1z M126.9,161.6v7.2c-0.1,0-0.2,0-0.3,0
			c-4,0-7.2-3.2-7.3-7.2H126.9z M124.3,185.4v18.5h-23.6v-18.5H124.3z M99.2,185.4v18.5H76.5v-18.5H99.2z M70.6,176.3v7.2h-7.2
			C63.4,179.6,66.6,176.4,70.6,176.3z M63.1,183.5H56v-7.2C59.9,176.4,63.1,179.6,63.1,183.5z M3.1,155.5h48.4v4.4h-9.2v0.1
			c0,4.9,4,8.8,8.8,8.8c0.1,0,0.2,0,0.4,0v14.7h-1.2v0.4H25.9h-1.5H3.1L3.1,155.5z M51.5,160.1v8.5c-0.1,0-0.2,0-0.4,0
			c-4.7,0-8.5-3.8-8.6-8.5H51.5z M51,189.6h7.2c-0.1,3.9-3.2,7.1-7.2,7.2V189.6z M49.5,185.4v18.5H25.9v-18.5H49.5z M3.1,185.4h21.3
			v18.5H3.1L3.1,185.4z M3.1,205.4h21.3h1.5H51V197c4.1-0.1,7.4-3.4,7.4-7.5v-0.1H51v-3.7h24v19.6h24.2h1.5h25.1v-19.6h44.8v209.6
			h-16.8c-0.3-3.9-3.5-7-7.5-7v0.1h-0.1v6.9h-20.1l0-2.7H97.5v-57.4h27.3v-0.4h0.2v-0.8h-0.2v-0.4H96v0.4H70.8v-7.8h-0.1
			c-3.7,0-6.8,2.7-7.4,6.3c-0.6-3.6-3.7-6.3-7.4-6.3h-0.1v7.8H3.3L3.1,205.4z M123.9,415.5h-6.8c0.1-3.8,3-6.9,6.8-7.2L123.9,415.5z
			 M123.9,408.1c-3.7-0.3-6.7-3.4-6.8-7.2h6.8L123.9,408.1z M116.5,394.9v8.6c-5.3-0.1-9.5-3.9-9.8-8.6H116.5z M79.5,363.1h-0.8H74
			v-28.2H96v28.2H79.5z M96,364.6v33.6H74v-18.6h6.3v-14.9H96z M70.6,326.6v7.6h-7.2c0-0.1,0-0.2,0-0.3
			C63.4,329.9,66.6,326.6,70.6,326.6z M63.2,333.8c0,0.1,0,0.2,0,0.3H56v-7.6C59.9,326.6,63.2,329.9,63.2,333.8z M51.9,611.1h7.6
			c-0.1,4-3.3,7.2-7.3,7.2c-0.1,0-0.2,0-0.3,0V611.1z M3.6,514.4h20.6v25.4H3.6L3.6,514.4z M51.2,589.9c-0.1,0-0.1,0-0.2,0
			c-4.1,0-7.5-3.3-7.5-7.4h7.7V589.9z M51.2,582.2h-7.9v0.1c0,4.3,3.5,7.8,7.8,7.8c0.1,0,0.1,0,0.2,0v61.7H3.8l-0.1-70.2h47.5V582.2
			z M51.2,576.7h-9.3c0.1-4.9,4-8.8,8.9-8.8c0.1,0,0.2,0,0.3,0V576.7z M51.2,567.7c-0.1,0-0.2,0-0.3,0c-5.1,0-9.2,4.1-9.2,9.2v0.1
			h9.5v3.9H3.7l-0.1-39.6h20.6h1.5h25.4V567.7z M25.7,539.8v-25.4h25.1v25.4H25.7z M51.2,499.4h-7.5c0.1-4,3.3-7.2,7.3-7.2
			c0.1,0,0.1,0,0.2,0V499.4z M51.2,492c-0.1,0-0.1,0-0.2,0c-4.1,0-7.5,3.4-7.5,7.5v0.1h7.7v13.3H25.7h-1.5H3.6l0-31.4h47.6V492z
			 M51.2,466.5h-7.5c0.1-4,3.3-7.2,7.3-7.2c0.1,0,0.1,0,0.2,0V466.5z M51.2,459.1c-0.1,0-0.1,0-0.2,0c-4.1,0-7.5,3.4-7.5,7.5v0.1
			h7.7v14.1H3.5l-0.1-35h47.7V459.1z M51.2,433.5c-0.1,0-0.1,0-0.2,0c-4,0-7.2-3.2-7.3-7.2h7.5V433.5z M51.2,426.1h-7.7v0.1
			c0,4.1,3.4,7.5,7.5,7.5c0.1,0,0.1,0,0.2,0V445H3.5l0-33.4h47.7V426.1z M51.2,395.6c-0.1,0-0.1,0-0.2,0c-4,0-7.2-3.2-7.3-7.2h7.5
			V395.6z M51.2,388.2h-7.7v0.1c0,4.1,3.4,7.5,7.5,7.5c0.1,0,0.1,0,0.2,0v15.1H3.4l0-29.8h47.8V388.2z M51.2,380.3H3.4l0-14.9h47.8
			V380.3z M51.2,364.7H3.4l0-29.8h47.9V364.7z M82.7,651.8H51.9v-33.3c0.1,0,0.2,0,0.3,0c4.2,0,7.5-3.4,7.5-7.5v-0.1h-7.8v-12h7.3
			v7.8h0.1c4.2,0,7.5-3.4,7.5-7.5c0-0.1,0-0.2,0-0.3h15.8V651.8z M59.4,606.4v-7.6h7.2c0,0.1,0,0.2,0,0.3
			C66.6,603.1,63.4,606.4,59.4,606.4z M82.7,598.1H51.9v-56.8h0.4v-28.4h-0.4V334.9h20.6v2.6h-6.7v0.1c0,3.7,3,6.8,6.7,6.9v10.8
			c-3.7,0.1-6.7,3.1-6.7,6.9v0.1h6.7v2.3h6.3V378h-6.3v21.6H96v0.2h1.5v-5h9c0.2,4.9,4.6,8.8,10.1,8.8h0.1v-8.8h7.2l0,5.9h-7v0.1
			c0,3.7,2.7,6.8,6.3,7.4c-3.6,0.6-6.3,3.7-6.3,7.4v0.1h7l0,3H74.3v94.2h-0.4v21.8h0.4v44.9h8.4V598.1z M72.5,337.7v6.6
			c-3.6-0.1-6.4-3-6.5-6.6H72.5z M72.5,355.5v6.6H66C66,358.5,68.9,355.6,72.5,355.5z M156.5,651.8H83.4v-52.9h17.1v7.8h0.1
			c4.2,0,7.5-3.4,7.5-7.5c0-0.1,0-0.2,0-0.3h30.1v7.8h0.1c4.2,0,7.5-3.4,7.5-7.5c0-0.1,0-0.2,0-0.3h10.6V651.8z M100.7,606.4v-7.6
			h7.2c0,0.1,0,0.2,0,0.3C108,603.1,104.7,606.4,100.7,606.4z M138.5,606.4v-7.6h7.2c0,0.1,0,0.2,0,0.3
			C145.7,603.1,142.5,606.4,138.5,606.4z M199.5,651.8h-42.2v-52.9h42.2V651.8z M274.2,651.8h-73.9v-52.9h73.9V651.8z M205,598.1
			v-7.6c4,0.1,7.2,3.3,7.2,7.3c0,0.1,0,0.2,0,0.3H205z M256.4,598.1v-7.6c4,0.1,7.2,3.3,7.2,7.3c0,0.1,0,0.2,0,0.3H256.4z
			 M276.4,651.8v-8.6h47v-0.4h0.1V627h-0.1v-0.4h-33.2v-8.2h33.2v-0.1h0.1v-15.8h1.9v-4.2h4.3l11.9,4.8c-0.1,0.2-0.2,0.4-0.3,0.6
			c-0.8,2-0.9,4.3,0,6.3c0.8,2,2.4,3.6,4.4,4.5l0.1,0l3.4-8.2l0,0l9.8,3.9c-2.3,5.3-4.4,10.7-6.4,16.1l-5.8-2l-0.1,0l0,0.1
			c-0.6,1.8-0.6,3.7,0.1,5.4c0.7,1.6,1.9,2.8,3.4,3.4c-2.1,6.2-4,12.4-5.8,18.7H276.4z M276.4,601.8v-3.5h48.2v3.5H276.4z
			 M323.3,602.5v15.1H321v-15.1H323.3z M320.8,602.5v15.1h-2.3v-15.1H320.8z M318.3,602.5v15.1h-2.3v-15.1H318.3z M315.9,602.5v15.1
			h-2.3v-15.1H315.9z M313.4,602.5v15.1h-2.3v-15.1H313.4z M310.9,602.5v15.1h-2.3v-15.1H310.9z M308.4,602.5v15.1h-2.3v-15.1H308.4
			z M306,602.5v15.1h-2.3v-15.1H306z M303.5,602.5v15.1h-2.3v-15.1H303.5z M301,602.5v15.1h-2.3v-15.1H301z M298.6,602.5v15.1h-2.3
			v-15.1H298.6z M296.1,602.5v15.1h-2.3v-15.1H296.1z M293.6,602.5v15.1h-2.3v-15.1H293.6z M291.1,602.5v15.1h-1.7v9.7h1.7v15.1
			h-14.7v-39.9H291.1z M291.4,642.4v-15.1h2.3v15.1H291.4z M293.8,642.4v-15.1h2.3v15.1H293.8z M296.3,642.4v-15.1h2.3v15.1H296.3z
			 M298.8,642.4v-15.1h2.3v15.1H298.8z M301.2,642.4v-15.1h2.3v15.1H301.2z M303.7,642.4v-15.1h2.3v15.1H303.7z M306.2,642.4v-15.1
			h2.3v15.1H306.2z M308.7,642.4v-15.1h2.3v15.1H308.7z M311.1,642.4v-15.1h2.3v15.1H311.1z M313.6,642.4v-15.1h2.3v15.1H313.6z
			 M316.1,642.4v-15.1h2.3v15.1H316.1z M318.5,642.4v-15.1h2.3v15.1H318.5z M321,642.4v-15.1h2.3v15.1H321z M341.8,603.2l7.3,3
			l-3.3,7.9c-1.9-0.8-3.4-2.4-4.2-4.3c-0.8-2-0.8-4.2,0-6.1C341.6,603.5,341.7,603.4,341.8,603.2z M352.6,626.5
			c-0.8,2.1-1.6,4.3-2.3,6.5c-1.5-0.6-2.6-1.7-3.3-3.3c-0.7-1.6-0.7-3.4-0.1-5.2L352.6,626.5z M424.3,651.8H346
			c2.7-9.9,6-19.6,9.6-29.2l69.7,26.4C425,649.9,424.6,650.9,424.3,651.8z M425.8,647.6l-69.7-26.4c9.1-23.5,21-45.7,35.1-66.2
			l60.9,42.6C441.5,613.1,432.6,629.9,425.8,647.6z M360,608.2l-7.5-3.4c1.8-4,6.6-5.7,10.6-3.9c0.1,0,0.2,0.1,0.2,0.1
			C362.1,603.4,361,605.8,360,608.2z M384.9,562.1c-0.1-0.1-0.3-0.2-0.4-0.2c-1.6-1.1-2.5-2.8-2.8-4.7c-0.3-1.9,0.2-3.9,1.4-5.6
			l6.1,4.2c-0.6,0.9-1.3,1.8-1.9,2.7C386.5,559.7,385.7,560.9,384.9,562.1z M453.1,596.4l-61-42.6c18.4-26.3,40.7-49.7,66.1-69
			l38.3,64.7C480,563.1,465.4,578.9,453.1,596.4z M392,551.6l-6.1-4.2c2.5-3.5,7-4.5,10.2-2.3c0.1,0.1,0.2,0.2,0.4,0.3
			C395,547.4,393.5,549.5,392,551.6z M445.3,493.3c-2.4-2.9-1.9-7.4,1.2-10.2l4.8,5.3C449.2,490,447.3,491.6,445.3,493.3z
			 M519.9,532.6c-7.5,4.7-14.7,9.9-21.5,15.4l-38.9-65.7l-2.7,1.7c-1.8,1.4-3.6,2.8-5.3,4.2l-4.8-5.4l-0.1-0.1l-0.1,0.1
			c-3.2,2.9-3.8,7.6-1.3,10.6c-17.9,15.1-34.2,32.5-48.5,51.8c-0.1-0.1-0.2-0.2-0.4-0.3c-3.3-2.3-8-1.2-10.6,2.5l-0.1,0.1l6.2,4.3
			c-0.9,1.2-1.7,2.5-2.6,3.7l-6.3-4.3l-0.1,0.1c-1.2,1.8-1.7,3.9-1.5,5.9c0.3,2,1.3,3.8,2.9,4.9c0.1,0.1,0.3,0.2,0.4,0.2
			c-8,12.4-15.2,25.3-21.4,38.5c-0.1,0-0.2-0.1-0.2-0.1c-4.1-1.9-9,0-10.9,4.1l0,0.1l7.7,3.5c-0.2,0.3-0.3,0.7-0.5,1l-29.5-11.9
			l-0.1,0h-54.6v0.4h-1.1v0.2h-10.4c0-0.1,0-0.2,0-0.3c0-4.2-3.4-7.5-7.5-7.5h-0.1v7.8h-43.7c0-0.1,0-0.2,0-0.3
			c0-4.2-3.4-7.5-7.5-7.5h-0.1v7.8H83.4v-5.7h7.8v-0.1c0-4.2-3.4-7.5-7.5-7.5c-0.1,0-0.2,0-0.3,0v-5.1h95.8v0.4h85.5v-20.3v-1.5
			v-5.3h-1.5v5.3h-15.9v-25h15.9v6.1h1.5v-6.1v-0.8v-25.9h7.7v-60.7h8.3v-0.1h0.1c0-5.1-3.6-9.2-8.1-9.2c-0.1,0-0.2,0-0.3,0v-0.4
			c0.1,0,0.2,0,0.3,0c4.5,0,8.1-4,8.1-8.9h-0.1v-0.1h-8.3V303h0.4v-34.7c4.4-0.1,8-4,8-8.9h-0.1v-0.1h-7.9V242h10.8h0.7
			c8.2,0,15.6-6.8,15.7-14.2l0.1-10.2l33.3,56.3l-30.2,17.8v8h-6.4v0.1h-0.1c0,4,2.9,7.3,6.5,7.4v41.8c-3.6,0.1-6.5,3.4-6.5,7.4h0.1
			v0.1h6.4v12.2h-6.4v0.1h-0.1c0,4,2.9,7.3,6.5,7.4v31.8c-3.6,0.1-6.5,3.4-6.5,7.4h0.1v0.1h6.4v12.2h-6.4v0.1h-0.1
			c0,4,2.9,7.3,6.5,7.4V487c-3.6,0.1-6.5,3.4-6.5,7.4h0.1v0.1h6.4v12.5h80.3l14.1-13l4.5,4.5l0.1,0.1l0.1-0.1
			c0.1-0.1,0.3-0.2,0.4-0.4c1.3-1.3,2-3.1,1.9-5c-0.1-1.5-0.6-2.9-1.5-4.2l37.2-34.4l1.7-1.6l-90.8-153.3h5l84,142.9l0.6-0.4
			l-71.1-121l13.2-7.6l70.5,120.7l-1.7,1L416.5,375l-0.6,0.4l0.9,1.6l-10.5,6.1l0.1,0.2l10.5-6.1l1.1,1.9l-10.5,6.1l0.1,0.2
			l10.5-6.1l1.1,1.9l-10.5,6.1l0.1,0.2l10.5-6.1l1.1,1.9l-10.4,6.1l0.1,0.2l10.4-6.1l1.1,1.9l-10.4,6.1l0.1,0.2l10.4-6.1l1.1,1.9
			l-10.4,6.1l0.1,0.2l10.4-6.1l1.1,1.9l-10.4,6.1l0.1,0.2l10.4-6.1l1.1,1.9l-10.4,6.1l0.1,0.2l10.4-6.1l1.1,1.9l-10.4,6.1l0.1,0.2
			l10.4-6.1l1.1,1.9c-3.4,2-6.9,4-10.3,6l0.1,0.2c3.5-2,6.9-4,10.3-6l1.1,1.9l-10.3,6l0.1,0.2l10.3-6l7.3,12.5l-10.4,6.1l0.1,0.2
			l10.4-6.1l1.1,1.9l-10.3,6l0.1,0.2l10.3-6l1.1,1.9l-10.3,6l0.1,0.2l10.3-6l1.1,1.9l-10.3,6l0.1,0.2l10.3-6l1.1,1.9l-10.3,6
			l0.1,0.2l10.3-6l1.1,1.9l-10.2,6l0.1,0.2l10.2-6l1.1,1.9l-10.2,6l0.1,0.2l10.2-6l1.1,1.9l-10.2,6l0.1,0.2l10.2-6l1.1,1.9
			l-10.2,5.9l0.1,0.2l10.2-5.9l1.1,1.9l-10.1,5.9l0.1,0.2l10.1-5.9l1.1,1.9l-10.1,5.9l0.1,0.2l10.1-5.9l1.1,1.9l-10.1,5.9l0.1,0.2
			l10.1-5.9l0.6,1l-0.2,0.1l0.8,1.3l3.9-2.3l-79.8-136.6h-25.3l-58.2-98.2l-2.1,0.9l2.8,4.7h-10.5h-0.1h-43.2c0-4.4-4-8-8.9-8v0.1
			h-0.1v7.9h-3.2v-22.2h29.7v-39.1l3.4,5.7l1.9-1.2l-66.3-112h56.8l40.1,68l-6.4,3.8l0.1,0.1l-0.1,0.1c1.6,2.8,4.5,4.4,7.4,4.4
			c1.2,0,2.4-0.3,3.5-0.8l0.4,0.7c-1.6,1.1-2.8,2.8-3.2,4.8c-0.5,2.2-0.1,4.5,1.1,6.4l0.1-0.1l0.1,0.1l6.4-3.8L437.1,350l0.3,0.6
			h189.7l-14.1-158.1c0.1,0,0.1,0,0.2,0c4.6-0.4,8.1-4.7,7.7-9.7l0-0.1l-8.7,0.7l-0.6-7.3h-2.3l0.1,1.5h-26.4v-7.2h7.3v-0.1
			c0-4-2.7-7.3-6.3-7.9c3.5-0.6,6.3-3.9,6.3-7.9v-0.1h-7.3v-5.6H607l0.2,1.7h2.3l-8.1-90.8h64.7l0.4,185.6h-13.5v-5.6h-3.4V358h17.1
			l0,9.7h-5.9v0.1c0,3.8,2.5,7,5.9,7.8l0,2h-5.9v0.1c0,3.8,2.6,7.1,6,7.8l0,1.9h-6v0.1c0,3.9,2.6,7.1,6,7.8l0.2,101.3
			C615.7,492.1,563.6,504.9,519.9,532.6z M272.4,445.6v-8.8c0.1,0,0.2,0,0.3,0c4.3,0,7.8,4,7.9,8.8H272.4z M272.4,435.9v-8.6h8.2
			c-0.1,4.8-3.6,8.6-7.9,8.6C272.7,435.9,272.5,435.9,272.4,435.9z M275.1,208.8V223h-2.5v-14.2h0V207h2.5L275.1,208.8L275.1,208.8z
			 M275.1,224.5v16h-2.5v-16H275.1z M272.9,259.4h7.8c-0.1,4.7-3.5,8.6-7.8,8.6V259.4z M275.3,223v-15.6h0V207h2.5v0.4h0V223H275.3z
			 M277.8,224.5v16h-2.5v-16H277.8z M278,223v-14.2h0V207h4.4c4.3,0,9.9,0.4,13.3,3.2l2.9,4.9l-0.1,12.7c0,6.7-6.8,12.8-14.2,12.8
			h-0.7H278v-16h1.5V223H278z M293,207h0.8l0.3,0.4C293.7,207.3,293.4,207.1,293,207z M383,505.4h-8.4v-82.5h39.9l5.3-3.1l19.8,33.4
			L383,505.4z M403,489c0.9,1.2,1.4,2.6,1.4,4.1c0.1,1.9-0.6,3.6-1.8,4.8c-0.1,0.1-0.2,0.2-0.3,0.3l-4.4-4.4L403,489z M414.1,421.4
			H304.7v-58.1h74l5.6-3.3l34.7,58.5L414.1,421.4z M373.1,422.9v82.5h-68.4v-82.5H373.1z M378.4,361.8h-73.6v-69.3l29.5-17.4
			l49.4,83.5L378.4,361.8z M303.2,299.9v7.1c-3.5-0.1-6.2-3.2-6.3-7.1H303.2z M303.2,349.3v7.1h-6.3
			C297,352.5,299.8,349.4,303.2,349.3z M303.2,369v7.1c-3.5-0.1-6.2-3.2-6.3-7.1H303.2z M303.2,408.3v7.1h-6.3
			C297,411.5,299.8,408.4,303.2,408.3z M303.2,428v7.1c-3.5-0.1-6.2-3.2-6.3-7.1H303.2z M303.2,487.2v7.1h-6.3
			C297,490.4,299.8,487.3,303.2,487.2z M357.1,299.6h17.8l7.7,13.2l-13.2,7.6L357.1,299.6z M670.5,416.7l0-9.5h8.1
			C678.5,412.1,675,416.2,670.5,416.7z"/>
	</g>
</g>
<g id="eventSpot">
	<polygon id="wypozyczalnia" class="eventColor" points="240.5,412.3 271.7,412.3 271.7,505.8 264.7,505.8 264.7,505 213.5,505
		213.5,446.5 240.5,446.5 	"/>
	<polygon id="akwarium" class="eventColor" points="197.2,259.3 226.5,259.3 226.5,242 271.7,242 271.7,302.2 197.2,302.2 	"/>
	<polygon id="sala53" class="eventColor" points="599.1,59.8 598.3,59.8 596.3,36.7 413.5,36.7 413.5,107.9 435.8,107.9 435.8,118.9
		460.6,118.9 460.6,184.3 472.3,184.3 472.3,194.5 506.9,194.5 506.9,196.2 581.7,196.2 581.7,147.4 606.9,147.4 	"/>
	<polygon id="sala51" class="eventColor" points="255,36.7 412.8,36.7 412.8,107.9 410.3,107.9 410.3,118.9 373.8,118.9 373.8,119.2
		303.7,119.2 	"/>
	<path id="pasaz" class="eventColor" d="M252.4,36.7h-56.8l154.8,261.4h25.3l38.7,66.3c7.6-5.2,15.3-9.8,22.9-14L252.4,36.7z"/>
	<path id="hol" class="eventColor" d="M666.7,358h-17.1v-7.4h-22.3H437.5l-0.2-0.3c-7.6,4.2-15.3,8.9-22.9,14l41.1,70.4l-3.9,2.3l-0.1-0.2
		l-14.5,7.5l5.1,8.5l17.5,29.5l38.9,65.7c6.9-5.5,14-10.7,21.5-15.4c43.7-27.7,95.8-40.5,147.1-36L666.7,358z M577.1,409.7
		l-37.9,10.3l-19.5,7.2c-2.6-5.4-3.9-11.4-3.9-17.4c0-22.6,18.3-40.9,40.9-40.9c21,0,38.6,15.9,40.7,36.9L577.1,409.7z"/>
</g>
<g id="guideSpot">
	<circle id="BT-0-D05" class="wireColor" cx="658.1" cy="186.7" r="5.1"/>
	<circle id="BT-0-D04" class="wireColor" cx="340.9" cy="515.7" r="5.1"/>
	<circle id="BT-0-D03" class="wireColor" cx="280.6" cy="344.3" r="5.1"/>
	<circle id="BT-0-D02" class="wireColor" cx="364.3" cy="247.6" r="5.1"/>
	<circle id="BT-0-D01" class="wireColor" cx="552.3" cy="492.3" r="5.1"/>
</g>
</svg>
