<?xml version="1.0" encoding="utf-8"?>
<!-- Generator: Adobe Illustrator 20.0.0, SVG Export Plug-In . SVG Version: 6.00 Build 0)  -->
<svg version="1.1" id="Warstwa_1" xmlns="http://www.w3.org/2000/svg" xmlns:xlink="http://www.w3.org/1999/xlink" x="0px" y="0px"
	 viewBox="0 0 674.4 655" style="enable-background:new 0 0 674.4 655;" xml:space="preserve">
<style type="text/css">.wireColor{fill: #777777;}.nofloorColor{fill: #F2F2F2;}.arrowColor{fill: #EA5906;}.eventColor{opacity: 0.3; fill: #F59E16; transition: 1s fill;}.wcColor{opacity: 0.3; fill: #3693B2;}.stairsColor{opacity: 0.3; fill: #73cc15;}.transparentObject{fill: 0;}.riverColor{fill: #B9DDEF;}.mapElements{fill: #E2E2E2;}.tramColor{fill: #73CC15;}.mapArrows{fill: #BFBFBF;}.buildingFill{fill: #E5E5E5;}.eventColor.active{opacity: 0.3; fill: red; -webkit-animation: alertOpacity 2s infinite alternate; animation: alertOpacity 2s infinite alternate;}@-webkit-keyframes alertOpacity{0%{opacity: 0.3;}50%{opacity: 0.5;}100%{opacity: 0.3;}}@keyframes alertOpacity{0%{opacity: 0.3;}50%{opacity: 0.5;}100%{opacity: 0.3;}}#guideSpot .eventColor.active{fill: red; opacity: 1; r: 10; transform-origin: 150px 150px; -webkit-transform-origin: 50% 50%; -webkit-animation: alertScale 2s infinite alternate; animation: alertScale 2s infinite alternate;}@-webkit-keyframes alertScale{0%{-webkit-transform: scale(1, 1);}50%{-webkit-transform: scale(2, 2);}100%{-webkit-transform: scale(1, 1);}}@keyframes alertScale{0%{transform: scale(1, 1);}50%{transform: scale(2, 2);}100%{transform: scale(1, 1);}}</style>
<g id="wire_1_">
	<g id="hotSpot">
		<path class="stairsColor" d="M557.2,368.8c-22.6,0-40.9,18.3-40.9,40.9c0,6,2,12.4,4.6,17.9l18.7-7.2l38.5-10.4l20.1-3.2
			C596,385.9,578.2,368.8,557.2,368.8z"/>
		<polygon class="stairsColor" points="324,602.5 324,642.8 276.9,642.4 276.9,602.5 		"/>
		<polygon class="stairsColor" points="269.2,384.7 252.9,384.7 252.9,303 269,303 		"/>
		<path class="stairsColor" d="M227.4,207l58.8,0.1c0,0,6.9,0,10,3.1s2.9,4.9,2.9,4.9v13.6c0,0-1.7,11.8-14.2,11.8s-57.5,0-57.5,0L227.4,207
			L227.4,207z"/>
		<polygon class="stairsColor" points="583.8,179.9 610.3,179.9 615.6,239.9 583.8,239.9 		"/>
		<polygon class="wcColor" points="173.4,506.5 263.7,506.5 263.7,531.7 246.4,531.7 246.4,559.7 263.7,559.7 263.7,578.5 181.2,578.5
			181.1,533.4 173.4,533.2 		"/>
	</g>
	<g id="description">
		<g>
			<path class="wireColor" d="M626.8,442.4v0.4h-1.6v-0.5c0-1.4-0.5-2.2-1.7-2.2s-1.7,0.8-1.7,2.2c0,3.4,5.1,3.8,5.1,8.1
				c0,2.3-1.1,3.8-3.4,3.8c-2.3,0-3.4-1.5-3.4-3.8v-0.9h1.6v1c0,1.4,0.6,2.2,1.8,2.2s1.8-0.8,1.8-2.2c0-3.4-5.1-3.7-5.1-8
				c0-2.4,1.1-3.8,3.4-3.8C625.7,438.6,626.8,440.1,626.8,442.4z"/>
			<path class="wireColor" d="M630,450.9l-0.6,3.1h-1.6l2.9-15.3h2.5l2.9,15.3h-1.7l-0.6-3.1H630z M630.2,449.5h3.4l-1.7-8.8L630.2,449.5z
				"/>
			<path class="wireColor" d="M637.5,454v-15.3h1.7v13.7h4.4v1.6L637.5,454L637.5,454z"/>
			<path class="wireColor" d="M646.6,450.9L646,454h-1.6l2.9-15.3h2.5l2.9,15.3H651l-0.6-3.1H646.6z M646.8,449.5h3.4l-1.7-8.8
				L646.8,449.5z"/>
		</g>
		<g>
			<path class="wireColor" d="M625,464.9c-0.8,0.5-1.9,0.9-3.1,1v-2.1c2.5-0.1,3.3-1.4,3.9-3h1.7v22.6H625V464.9z"/>
			<path class="wireColor" d="M641.5,466.3c0,6.8-7.7,9.3-7.7,14.5v0.4h7.4v2.3h-9.9v-1.9c0-7.3,7.7-8.7,7.7-15.1c0-2.3-0.8-3.6-2.6-3.6
				s-2.6,1.3-2.6,3.3v2h-2.4v-1.8c0-3.5,1.6-5.8,5.1-5.8C639.9,460.6,641.5,462.8,641.5,466.3z"/>
			<path class="wireColor" d="M648.4,464.9c-0.8,0.5-1.9,0.9-3.1,1v-2.1c2.5-0.1,3.3-1.4,3.9-3h1.7v22.6h-2.5L648.4,464.9L648.4,464.9z"/>
		</g>
		<g>
			<path class="wireColor" d="M499.5,478v0.4H498v-0.5c0-1.3-0.5-2.1-1.7-2.1s-1.7,0.8-1.7,2.1c0,3.3,4.9,3.6,4.9,7.6
				c0,2.2-1.1,3.6-3.3,3.6s-3.3-1.4-3.3-3.6v-0.8h1.5v0.9c0,1.3,0.5,2.1,1.7,2.1s1.7-0.8,1.7-2.1c0-3.2-4.8-3.5-4.8-7.6
				c0-2.2,1-3.6,3.2-3.6C498.4,474.4,499.5,475.8,499.5,478z"/>
			<path class="wireColor" d="M502.5,486.1L502,489h-1.5l2.8-14.5h2.3l2.8,14.5h-1.6l-0.6-2.9H502.5z M502.7,484.7h3.2l-1.6-8.4
				L502.7,484.7z"/>
			<path class="wireColor" d="M509.7,489v-14.5h1.6v13h4.1v1.5H509.7z"/>
			<path class="wireColor" d="M518.3,486.1l-0.6,2.9h-1.5l2.8-14.5h2.3l2.8,14.5h-1.6l-0.6-2.9H518.3z M518.5,484.7h3.2l-1.6-8.4
				L518.5,484.7z"/>
		</g>
		<g>
			<path class="wireColor" d="M497,499.3c-0.8,0.5-1.8,0.9-3,0.9v-2c2.3-0.1,3.1-1.3,3.7-2.9h1.7v21.5H497V499.3z"/>
			<path class="wireColor" d="M512.6,500.7c0,6.5-7.3,8.8-7.3,13.7v0.3h7.1v2.2H503v-1.8c0-6.9,7.3-8.3,7.3-14.3c0-2.2-0.7-3.4-2.5-3.4
				c-1.7,0-2.5,1.3-2.5,3.2v1.9H503v-1.7c0-3.3,1.5-5.5,4.8-5.5C511.1,495.2,512.6,497.4,512.6,500.7z"/>
			<path class="wireColor" d="M524.5,500.7c0,6.5-7.3,8.8-7.3,13.7v0.3h7.1v2.2h-9.4v-1.8c0-6.9,7.3-8.3,7.3-14.3c0-2.2-0.7-3.4-2.5-3.4
				c-1.7,0-2.5,1.3-2.5,3.2v1.9H515v-1.7c0-3.3,1.5-5.5,4.8-5.5C523,495.2,524.5,497.4,524.5,500.7z"/>
		</g>
		<g>
			<path class="wireColor" d="M416.7,562v0.4h-1.5v-0.5c0-1.3-0.5-2.1-1.7-2.1s-1.7,0.8-1.7,2.1c0,3.3,4.9,3.6,4.9,7.6
				c0,2.2-1.1,3.6-3.3,3.6s-3.3-1.4-3.3-3.6v-0.8h1.5v0.9c0,1.3,0.5,2.1,1.7,2.1s1.7-0.8,1.7-2.1c0-3.2-4.8-3.5-4.8-7.6
				c0-2.2,1-3.6,3.2-3.6C415.7,558.4,416.7,559.8,416.7,562z"/>
			<path class="wireColor" d="M419.8,570.1l-0.6,2.9h-1.5l2.8-14.5h2.3l2.8,14.5H424l-0.6-2.9H419.8z M420,568.7h3.2l-1.6-8.4L420,568.7z"
				/>
			<path class="wireColor" d="M426.9,573v-14.5h1.6v13h4.1v1.5H426.9z"/>
			<path class="wireColor" d="M435.5,570.1L435,573h-1.5l2.8-14.5h2.3l2.8,14.5h-1.6l-0.6-2.9H435.5z M435.7,568.7h3.2l-1.6-8.4
				L435.7,568.7z"/>
		</g>
		<g>
			<path class="wireColor" d="M414.2,583.3c-0.8,0.5-1.8,0.9-3,0.9v-2c2.3-0.1,3.1-1.3,3.7-2.9h1.7v21.5h-2.4L414.2,583.3L414.2,583.3z"/>
			<path class="wireColor" d="M429.9,584.7c0,6.5-7.3,8.8-7.3,13.7v0.3h7.1v2.2h-9.4v-1.8c0-6.9,7.3-8.3,7.3-14.3c0-2.2-0.7-3.4-2.5-3.4
				c-1.7,0-2.5,1.3-2.5,3.2v1.9h-2.2v-1.7c0-3.3,1.5-5.5,4.8-5.5C428.4,579.2,429.9,581.4,429.9,584.7z"/>
			<path class="wireColor" d="M441.6,584.6v0.6c0,2.2-0.9,3.8-2.6,4.4c1.8,0.7,2.6,2.3,2.6,4.4v1.7c0,3.3-1.5,5.4-4.8,5.4
				s-4.8-2.1-4.8-5.4v-1.5h2.2v1.6c0,1.9,0.8,3.1,2.5,3.1s2.5-1.1,2.5-3.3V594c0-2.1-0.9-3.1-2.7-3.2h-1.3v-2.1h1.4
				c1.6-0.1,2.6-1.1,2.6-2.9v-1c0-2.2-0.8-3.3-2.5-3.3s-2.5,1.2-2.5,3.1v1.1H432v-1c0-3.3,1.5-5.4,4.8-5.4
				C440.1,579.2,441.6,581.4,441.6,584.6z"/>
		</g>
		<g>
			<path class="wireColor" d="M13.9,623h0.3v1.1h-0.4c-1,0-1.5,0.4-1.5,1.2s0.6,1.2,1.5,1.2c2.4,0,2.6-3.6,5.7-3.6c1.6,0,2.7,0.8,2.7,2.4
				c0,1.6-1.1,2.4-2.7,2.4h-0.6v-1.1h0.7c1,0,1.5-0.4,1.5-1.3s-0.6-1.3-1.5-1.3c-2.4,0-2.6,3.6-5.7,3.6c-1.7,0-2.7-0.8-2.7-2.4
				C11.2,623.7,12.2,623,13.9,623z"/>
			<path class="wireColor" d="M19.9,620.7l2.2,0.4v1.1l-10.8-2.1v-1.7l10.8-2.1v1.2l-2.2,0.4V620.7z M18.8,620.5v-2.4l-6.2,1.2L18.8,620.5
				z"/>
			<path class="wireColor" d="M22,615.4H11.3v-1.2H21v-3.1h1V615.4z"/>
			<path class="wireColor" d="M19.9,609l2.2,0.4v1.1l-10.8-2.1v-1.7l10.8-2.1v1.2l-2.2,0.4V609z M18.8,608.9v-2.4l-6.2,1.2L18.8,608.9z"/>
			<path class="wireColor" d="M32.3,642.4h0.3v1.1h-0.4c-1,0-1.5,0.4-1.5,1.2s0.6,1.2,1.5,1.2c2.4,0,2.6-3.6,5.7-3.6
				c1.6,0,2.7,0.8,2.7,2.4c0,1.6-1.1,2.4-2.7,2.4h-0.6V646H38c1,0,1.5-0.4,1.5-1.3s-0.6-1.3-1.5-1.3c-2.4,0-2.6,3.6-5.7,3.6
				c-1.7,0-2.7-0.8-2.7-2.4C29.6,643.2,30.7,642.4,32.3,642.4z"/>
			<path class="wireColor" d="M34.5,637.5h1.1v2.6h3.8v-3.2h1.1v4.4H29.7v-4.4h1.1v3.2h3.7V637.5z"/>
			<path class="wireColor" d="M40.5,631.9v1.2l-8.6,1.8h8.6v1H29.7v-1.7l8.6-1.8l-8.6-1.7V629h10.8v1.1h-8.7L40.5,631.9z"/>
			<path class="wireColor" d="M29.7,626.6h10.8v1.2H29.7V626.6z"/>
			<path class="wireColor" d="M40.5,624.3v1.1H29.7v-1.5l7.8-2.5h-7.8v-1.1h10.8v1.2l-8.7,2.8H40.5z"/>
			<path class="wireColor" d="M38.3,617.9l2.2,0.4v1.1l-10.8-2.1v-1.7l10.8-2.1v1.2l-2.2,0.4V617.9z M37.3,617.7v-2.4l-6.2,1.2L37.3,617.7
				z"/>
			<path class="wireColor" d="M29.7,610.2c0-1.7,0.9-2.4,2.5-2.4h0.9c1.2,0,1.9,0.4,2.2,1.3c0.3-1,1.1-1.4,2.2-1.4h1.7
				c0.5,0,0.9,0,1.3-0.2v1.2c-0.3,0.1-0.6,0.2-1.3,0.2h-1.7c-1.2,0-1.6,0.6-1.6,1.6v0.8h4.6v1.2H29.7V610.2z M34.8,610.5
				c0-1-0.3-1.5-1.5-1.5h-1c-1,0-1.5,0.4-1.5,1.2v1.2h4V610.5z"/>
			<path class="wireColor" d="M36.6,604.8l-6.9,2.3v-1.2l5.3-1.7l-5.3-1.7v-1.1l6.9,2.3h3.9v1.2L36.6,604.8L36.6,604.8z"/>
			<path class="wireColor" d="M39.4,601.3c0-0.2,0-0.4,0-0.6c0-0.8-0.4-1.3-1.5-1.3h-8.2v-1.2h8.1c2,0,2.6,1,2.7,2.3c0,0.3,0,0.5,0,0.8
				H39.4z"/>
			<path class="wireColor" d="M40.5,596v1.1H29.7v-1.5l7.8-2.5h-7.8V592h10.8v1.2l-8.7,2.8H40.5z"/>
			<path class="wireColor" d="M38.3,589.6l2.2,0.4v1.1L29.7,589v-1.7l10.8-2.1v1.2l-2.2,0.4V589.6z M37.3,589.4V587l-6.2,1.2L37.3,589.4z"
				/>
		</g>
		<g>
			<path class="wireColor" d="M182,457.6V470h-1.4v-12.4H182z"/>
			<path class="wireColor" d="M184.7,470h-1.2v-12.4h1.8l2.9,8.9v-8.9h1.2V470H188l-3.2-10v10H184.7z"/>
			<path class="wireColor" d="M194.9,463.4v1.3h-2.8v5.4h-1.4v-12.4h4.9v1.3h-3.5v4.5L194.9,463.4L194.9,463.4z"/>
			<path class="wireColor" d="M196.6,460.6c0-1.9,0.9-3.1,2.8-3.1c1.9,0,2.8,1.2,2.8,3.1v6.4c0,1.9-0.9,3.1-2.8,3.1
				c-1.9,0-2.8-1.2-2.8-3.1V460.6z M197.9,467.1c0,1.1,0.5,1.8,1.5,1.8s1.5-0.7,1.5-1.8v-6.5c0-1.1-0.5-1.8-1.5-1.8
				s-1.5,0.7-1.5,1.8V467.1z"/>
			<path class="wireColor" d="M206.3,457.6c1.9,0,2.8,1,2.8,2.8v1c0,1.4-0.5,2.2-1.5,2.5c1.1,0.3,1.6,1.3,1.6,2.6v1.9c0,0.5,0,1.1,0.2,1.5
				H208c-0.2-0.4-0.2-0.7-0.2-1.5v-1.9c0-1.4-0.7-1.8-1.8-1.8h-1v5.3h-1.4v-12.4H206.3z M206,463.5c1.1,0,1.8-0.4,1.8-1.7v-1.2
				c0-1.1-0.4-1.7-1.4-1.7h-1.3v4.6L206,463.5L206,463.5z"/>
			<path class="wireColor" d="M215.1,470h-1.3l-2.1-9.9v9.9h-1.2v-12.4h1.9l2,9.9l2-9.9h1.9V470H217v-10L215.1,470z"/>
			<path class="wireColor" d="M221.2,467.5l-0.5,2.5h-1.3l2.4-12.4h2l2.4,12.4h-1.4l-0.5-2.5H221.2z M221.4,466.3h2.8l-1.4-7.1
				L221.4,466.3z"/>
			<path class="wireColor" d="M229,470v-11.1h-2.3v-1.3h5.9v1.3h-2.3V470H229z"/>
			<path class="wireColor" d="M233.6,460.6c0-1.9,0.9-3.1,2.8-3.1c1.9,0,2.8,1.2,2.8,3.1v6.4c0,1.9-0.9,3.1-2.8,3.1
				c-1.9,0-2.8-1.2-2.8-3.1V460.6z M234.9,467.1c0,1.1,0.5,1.8,1.5,1.8s1.5-0.7,1.5-1.8v-6.5c0-1.1-0.5-1.8-1.5-1.8
				s-1.5,0.7-1.5,1.8V467.1z"/>
			<path class="wireColor" d="M243.3,457.6c1.9,0,2.8,1,2.8,2.8v1c0,1.4-0.5,2.2-1.5,2.5c1.1,0.3,1.6,1.3,1.6,2.6v1.9c0,0.5,0,1.1,0.2,1.5
				H245c-0.2-0.4-0.2-0.7-0.2-1.5v-1.9c0-1.4-0.7-1.8-1.8-1.8h-1v5.3h-1.4v-12.4H243.3z M243,463.5c1.1,0,1.8-0.4,1.8-1.7v-1.2
				c0-1.1-0.4-1.7-1.4-1.7h-1.3v4.6L243,463.5L243,463.5z"/>
			<path class="wireColor" d="M248.9,457.6V470h-1.4v-12.4H248.9z"/>
			<path class="wireColor" d="M251.6,467.1c0,1.1,0.4,1.8,1.5,1.8c1,0,1.4-0.7,1.4-1.8v-9.5h1.3v9.4c0,1.9-0.9,3.1-2.8,3.1
				c-1.9,0-2.8-1.3-2.8-3.1v-9.4h1.4L251.6,467.1L251.6,467.1z"/>
			<path class="wireColor" d="M261.7,470h-1.3l-2.1-9.9v9.9h-1.2v-12.4h1.9l2,9.9l2-9.9h1.9V470h-1.3v-10L261.7,470z"/>
		</g>
		<g>
			<path class="wireColor" d="M204.9,556.9h-4.5l-4.1-29.7h3.2l3.5,25.3l3.3-25.2h3.3l3.3,25.3l3.4-25.3h2.9l-4,29.7h-4.4l-2.8-20.1
				L204.9,556.9z"/>
			<path class="wireColor" d="M234.8,534.3v2.7h-3.1v-2.8c0-2.7-1.1-4.3-3.5-4.3s-3.5,1.6-3.5,4.3v15.7c0,2.7,1.1,4.3,3.5,4.3
				s3.5-1.6,3.5-4.3V546h3.1v3.7c0,4.5-2.1,7.5-6.7,7.5c-4.5,0-6.7-3-6.7-7.5v-15.4c0-4.5,2.1-7.5,6.7-7.5
				C232.7,526.9,234.8,529.8,234.8,534.3z"/>
		</g>
		<g>
			<path class="wireColor" d="M390.4,435.1v0.3h-1.2v-0.4c0-1-0.4-1.7-1.3-1.7s-1.3,0.6-1.3,1.6c0,2.6,3.9,2.9,3.9,6.1
				c0,1.8-0.8,2.9-2.6,2.9s-2.6-1.1-2.6-2.9v-0.7h1.2v0.7c0,1,0.4,1.7,1.4,1.7s1.4-0.6,1.4-1.7c0-2.6-3.9-2.8-3.9-6.1
				c0-1.8,0.8-2.9,2.6-2.9C389.6,432.2,390.4,433.4,390.4,435.1z"/>
			<path class="wireColor" d="M392.9,441.6l-0.4,2.3h-1.2l2.2-11.6h1.9l2.2,11.6h-1.3l-0.4-2.3H392.9z M393,440.5h2.6l-1.3-6.7L393,440.5z
				"/>
			<path class="wireColor" d="M398.6,444v-11.6h1.3v10.4h3.3v1.2H398.6z"/>
			<path class="wireColor" d="M405.5,441.6L405,444h-1.2l2.2-11.6h1.9l2.2,11.6h-1.3l-0.4-2.3H405.5z M405.6,440.5h2.6l-1.3-6.7
				L405.6,440.5z"/>
			<path class="wireColor" d="M387.3,453c-0.7,0.4-1.7,0.8-2.7,0.8v-1.8c2.1-0.1,2.8-1.2,3.3-2.6h1.5v19.3h-2.1V453z"/>
			<path class="wireColor" d="M401.4,454.2c0,5.8-6.5,7.9-6.6,12.4v0.3h6.4v2h-8.5v-1.7c0-6.2,6.5-7.5,6.5-12.9c0-2-0.7-3-2.3-3
				c-1.6,0-2.3,1.1-2.3,2.8v1.7h-2v-1.6c0-3,1.4-4.9,4.3-4.9C400,449.3,401.4,451.2,401.4,454.2z"/>
			<path class="wireColor" d="M412,454.1v0.4h-2V454c0-1.7-0.7-2.8-2.3-2.8c-1.6,0-2.3,1-2.3,3.1v4.3c0.5-1.3,1.6-2.1,3.1-2.1
				c2.5,0,3.6,1.8,3.6,4.6v2.9c0,3-1.5,4.9-4.4,4.9c-3,0-4.4-1.9-4.4-4.9v-9.9c0-3.1,1.4-5,4.4-5C410.6,449.3,412,451.2,412,454.1z
				 M405.4,461.4v2.9c0,1.7,0.7,2.8,2.3,2.8c1.5,0,2.3-1,2.3-2.8v-2.9c0-1.7-0.7-2.8-2.3-2.8C406.1,458.6,405.4,459.6,405.4,461.4z"
				/>
		</g>
	</g>
	<g id="wire">
		<g id="empty">
			<path class="nofloorColor" d="M294.8,207.5l-0.3-0.5h-0.9C294,207.2,294.4,207.3,294.8,207.5z"/>
			<polygon class="nofloorColor" points="196.9,36.7 230.8,94.3 273,69.3 253.8,36.7 			"/>
			<polygon class="nofloorColor" points="231.1,94.9 286.1,188.4 343.2,188.4 273.4,70 			"/>
			<path class="nofloorColor" d="M351.2,201.9h-57.1l156,265.2c13.2-9.8,27.3-18.7,41.9-26.4L351.2,201.9z"/>
			<path class="nofloorColor" d="M609.7,147.8l13,0.2v0.3l18.9,254.2c8.4-0.1,16.9,0.1,25.3,0.6V59.8h-65L609.7,147.8z"/>
			<path class="nofloorColor" d="M619.7,403.5l-4-52.9H477.2v25.5l32.4,56.1c3.4-1.6,6.9-3.1,10.4-4.6c-2.7-5.5-4.1-11.7-4.1-17.9
				c0-22.8,18.5-41.3,41.3-41.3c21.2,0,39.2,16.5,41.1,37.6C606.2,404.8,613.2,404,619.7,403.5z"/>
			<rect x="126.7" y="185.8" class="nofloorColor" width="44.5" height="209.6"/>
			<rect x="126.7" y="421" class="nofloorColor" width="44.5" height="111.6"/>
		</g>
		<path class="wireColor" d="M522.4,355.5c-1.1,0-1.9,0.9-1.9,1.9s0.9,1.9,1.9,1.9c1.1,0,1.9-0.9,1.9-1.9S523.5,355.5,522.4,355.5z
			 M521.1,357.4c0-0.7,0.6-1.3,1.3-1.3s1.3,0.6,1.3,1.3s-0.6,1.3-1.3,1.3C521.7,358.8,521.1,358.2,521.1,357.4z"/>
		<path class="wireColor" d="M449.7,355.5c-1.1,0-1.9,0.9-1.9,1.9s0.9,1.9,1.9,1.9c1.1,0,1.9-0.9,1.9-1.9S450.7,355.5,449.7,355.5z
			 M449.7,358.8c-0.7,0-1.3-0.6-1.3-1.3s0.6-1.3,1.3-1.3s1.3,0.6,1.3,1.3l0,0C451,358.2,450.4,358.8,449.7,358.8z"/>
		<path class="wireColor" d="M473.3,355.5c-1.1,0-1.9,0.9-1.9,1.9s0.9,1.9,1.9,1.9c1.1,0,1.9-0.9,1.9-1.9S474.3,355.5,473.3,355.5z
			 M473.3,358.8c-0.7,0-1.3-0.6-1.3-1.3s0.6-1.3,1.3-1.3c0.7,0,1.3,0.6,1.3,1.3S474,358.8,473.3,358.8z"/>
		<path class="wireColor" d="M625.3,416.6c-1.1,0-1.9,0.9-1.9,1.9c0,1.1,0.9,1.9,1.9,1.9s1.9-0.9,1.9-1.9
			C627.3,417.5,626.4,416.6,625.3,416.6z M624,418.6c0-0.7,0.6-1.3,1.3-1.3s1.3,0.6,1.3,1.3c0,0.7-0.6,1.3-1.3,1.3
			S624,419.3,624,418.6z"/>
		<path class="wireColor" d="M505,449.7L505,449.7c-0.5,0-1,0.2-1.4,0.6s-0.6,0.9-0.6,1.4c0,1.1,0.9,1.9,1.9,1.9s1.9-0.9,1.9-1.9
			C506.9,450.5,506,449.7,505,449.7z M505,453c-0.7,0-1.3-0.6-1.3-1.3c0-0.4,0.1-0.7,0.4-0.9c0.3-0.3,0.6-0.4,0.9-0.4l0,0
			c0.7,0,1.3,0.6,1.3,1.3S505.7,453,505,453z"/>
		<path class="wireColor" d="M484.3,414.5c-1.1,0-1.9,0.9-1.9,1.9c0,1.1,0.9,1.9,1.9,1.9s1.9-0.9,1.9-1.9
			C486.2,415.4,485.4,414.5,484.3,414.5z M483,416.4c0-0.7,0.6-1.3,1.3-1.3s1.3,0.6,1.3,1.3s-0.6,1.3-1.3,1.3S483,417.2,483,416.4z"
			/>
		<path class="wireColor" d="M571.6,355.5c-1.1,0-1.9,0.9-1.9,1.9s0.9,1.9,1.9,1.9s1.9-0.9,1.9-1.9S572.7,355.5,571.6,355.5z M572.9,357.4
			c0,0.7-0.6,1.3-1.3,1.3s-1.3-0.6-1.3-1.3s0.6-1.3,1.3-1.3S572.9,356.7,572.9,357.4z"/>
		<path class="wireColor" d="M620.8,355.5c-1.1,0-1.9,0.9-1.9,1.9s0.9,1.9,1.9,1.9c1.1,0,1.9-0.9,1.9-1.9S621.8,355.5,620.8,355.5z
			 M620.8,358.8c-0.7,0-1.3-0.6-1.3-1.3s0.6-1.3,1.3-1.3s1.3,0.6,1.3,1.3S621.5,358.8,620.8,358.8z"/>
		<path class="wireColor" d="M577.4,423.6c-1.1,0-1.9,0.9-1.9,1.9c0,1.1,0.9,1.9,1.9,1.9c1.1,0,1.9-0.9,1.9-1.9
			C579.3,424.5,578.5,423.6,577.4,423.6z M577.4,424.2c0.7,0,1.3,0.6,1.3,1.3c0,0.7-0.6,1.3-1.3,1.3s-1.3-0.6-1.3-1.3
			C576,424.8,576.6,424.2,577.4,424.2z"/>
		<path class="wireColor" d="M549.7,431.2c-1.1,0-1.9,0.9-1.9,1.9c0,1.1,0.9,1.9,1.9,1.9s1.9-0.9,1.9-1.9
			C551.7,432.1,550.8,431.2,549.7,431.2z M548.4,433.1c0-0.7,0.6-1.3,1.3-1.3s1.3,0.6,1.3,1.3s-0.6,1.3-1.3,1.3
			S548.4,433.9,548.4,433.1z"/>
		<path class="wireColor" d="M548.2,379.1c-1.1,0-1.9,0.9-1.9,1.9s0.9,1.9,1.9,1.9c1.1,0,1.9-0.9,1.9-1.9S549.2,379.1,548.2,379.1z
			 M548.2,382.4c-0.7,0-1.3-0.6-1.3-1.3s0.6-1.3,1.3-1.3s1.3,0.6,1.3,1.3S548.9,382.4,548.2,382.4z"/>
		<path class="wireColor" d="M416.9,355.5c-1.1,0-1.9,0.9-1.9,1.9s0.9,1.9,1.9,1.9s1.9-0.9,1.9-1.9S418,355.5,416.9,355.5z M415.6,357.4
			c0-0.7,0.6-1.3,1.3-1.3s1.3,0.6,1.3,1.3s-0.6,1.3-1.3,1.3S415.6,358.2,415.6,357.4z"/>
		<path class="wireColor" d="M555.3,396.6c-3.5,0-6.3,2.8-6.3,6.3s2.8,6.3,6.3,6.3s6.3-2.8,6.3-6.3S558.8,396.6,555.3,396.6z M555.3,408.4
			c-3.1,0-5.5-2.5-5.5-5.5c0-3.1,2.5-5.5,5.5-5.5c3.1,0,5.5,2.5,5.5,5.5C560.9,405.9,558.4,408.4,555.3,408.4z"/>
		<path class="wireColor" d="M595.5,7.1h7.1V0h-7.1h-0.1h-7.1v7.1H595.5L595.5,7.1z M596.9,1.5h4.2v4.1h-4.2V1.5z M594,5.6h-4.2V1.5h4.2
			V5.6z"/>
		<path class="wireColor" d="M674.4,0h-7.2v7.1h7.2V0z M672.9,5.6h-4.2V1.5h4.2V5.6z"/>
		<path class="wireColor" d="M574.8,0h-7.2v7.1h7.2V0z M573.3,5.6h-4.2V1.5h4.2V5.6z"/>
		<path class="wireColor" d="M525.6,0h-7.2v7.1h7.2V0z M524.1,5.6h-4.2V1.5h4.2V5.6z"/>
		<path class="wireColor" d="M279.4,0h-7.2v7.1h7.2V0z M277.9,5.6h-4.2V1.5h4.2V5.6z"/>
		<path class="wireColor" d="M156.5,0h-7.2v7.1h7.2V0z M155,5.6h-4.2V1.5h4.2V5.6z"/>
		<path class="wireColor" d="M107.3,0h-7.2v7.1h7.2V0z M105.8,5.6h-4.2V1.5h4.2V5.6z"/>
		<path class="wireColor" d="M58.1,0h-7.2v7.1h7.2V0z M56.6,5.6h-4.2V1.5h4.2V5.6z"/>
		<path class="wireColor" d="M8.9,0H1.7v7.1h7.2V0z M7.4,5.6H3.2V1.5h4.2L7.4,5.6z"/>
		<path class="wireColor" d="M251.6,7.1h7V0h-7h-0.2h-7v7.1h7H251.6z M252.9,1.5h4.2v4.1h-4.2L252.9,1.5L252.9,1.5z M250.1,5.6h-4.2V1.5
			h4.2V5.6z"/>
		<path class="wireColor" d="M177.7,7.2h7v-7h-7h-0.2h-7v7.1h7L177.7,7.2L177.7,7.2z M179,1.7h4.2v4.1H179V1.7z M176.2,5.7H172v-4h4.2V5.7
			z"/>
		<path class="wireColor" d="M374,181.7h87.4v-17.6c4-0.4,7.2-3.5,7.2-7.4c0-0.2,0-0.4,0-0.6h-0.1V156h-7.1v-7.1H374v7.1h-7.1v0.1h-0.1
			c0,0.2,0,0.4,0,0.6c0,3.9,3.2,7,7.2,7.4V181.7z M468.3,156.2c0,0.2,0,0.3,0,0.5c0,3.7-3.1,6.8-7,7.2v-7.7H468.3z M375.5,150.4
			h84.4v29.9h-84.4V150.4z M367,156.7c0-0.2,0-0.3,0-0.5h7v7.7C370,163.6,367,160.5,367,156.7z"/>
		<path class="wireColor" d="M550.8,148.9h-78.5v32.9h78.5V148.9z M489.8,180.2h-7.7c0.4-3.9,3.4-7,7.2-7c0.2,0,0.3,0,0.5,0V180.2z
			 M549.3,180.2H490v-7.1h-0.1V173c-0.2,0-0.4,0-0.6,0c-3.9,0-7,3.2-7.4,7.2h-8.1v-29.9h75.5V180.2z"/>
		<path class="wireColor" d="M476.4,0h-7.2v7.1h7.2V0z M474.9,5.6h-4.2V1.5h4.2V5.6z"/>
		<path class="wireColor" d="M427.2,0H420v7.1h7.2V0z M425.7,5.6h-4.2V1.5h4.2V5.6z"/>
		<path class="wireColor" d="M378,0h-7.2v7.1h7.2V0z M376.5,5.6h-4.2V1.5h4.2V5.6z"/>
		<path class="wireColor" d="M328.9,0h-7.2v7.1h7.2V0z M327.4,5.6h-4.2V1.5h4.2V5.6z"/>
		<path class="wireColor" d="M591.9,155.9c0-0.2,0-0.4,0-0.6h-0.1v-0.1h-7.9v8v0.2v8h7.9v-0.1h0.1c0-0.2,0-0.4,0-0.6
			c0-3.7-2.9-6.7-6.7-7.3C589,162.7,591.9,159.6,591.9,155.9z M591.7,170.6c0,0.2,0,0.3,0,0.5h-7.6v-7.7
			C588.3,163.4,591.7,166.6,591.7,170.6z M584.1,163.2v-7.7h7.6c0,0.2,0,0.3,0,0.5C591.7,159.9,588.3,163.1,584.1,163.2z"/>
		<path class="wireColor" d="M679.2,408.3L679.2,408.3l-0.1-0.1h-8.4V56.1h-69.8L600.4,33H0v621.8h424.6l0.6,0.2c0-0.1,0-0.1,0.1-0.2h1.6
			l0.4-1.2c35.7-100.8,134.9-164,241.3-153.8l2.1,0.2v-82.5c4.8-0.2,8.6-3.9,8.6-8.4C679.2,408.8,679.2,408.6,679.2,408.3z
			 M600.5,69.6l2.6,28.8h-30.3v-4h7.1v-0.1h0.1c0-0.2,0-0.4,0-0.6c0-3.9-3.2-7-7.2-7.4V69.6H600.5z M563.2,408.3
			c0-0.1,0.1-0.1,0.1-0.2c0.1-0.2,0.2-0.4,0.4-0.6c0-0.1,0.1-0.1,0.1-0.2c0.1-0.3,0.3-0.5,0.4-0.8c0-0.1,0.1-0.2,0.1-0.2
			c0.1-0.2,0.1-0.4,0.2-0.5c0-0.1,0.1-0.2,0.1-0.4c0-0.2,0.1-0.3,0.1-0.5c0-0.1,0.1-0.3,0.1-0.4c0-0.2,0.1-0.4,0.1-0.5s0-0.2,0-0.3
			c0-0.3,0-0.6,0-0.9c0-5.3-4.3-9.5-9.5-9.5s-9.5,4.3-9.5,9.5c0,0.4,0,0.9,0.1,1.3c0,0.1,0,0.2,0,0.3c0.1,0.9,0.4,1.7,0.8,2.4
			c0,0.1,0.1,0.2,0.1,0.2c0.2,0.4,0.4,0.7,0.6,1.1c0,0,0,0.1,0.1,0.1c0.2,0.3,0.5,0.6,0.7,0.9c0.1,0.1,0.2,0.2,0.2,0.3
			c0.3,0.3,0.6,0.6,0.9,0.8c0.1,0.1,0.1,0.1,0.2,0.2c0.3,0.2,0.5,0.4,0.8,0.6c0.1,0.1,0.2,0.1,0.3,0.2c0.4,0.2,0.7,0.4,1.1,0.5
			c0,0,0,0,0.1,0l-1.7,4.9l-10.2,2.8c-1.6-2.9-2.4-6.2-2.4-9.5c0-11,8.9-19.9,19.9-19.9c10.7,0,19.5,8.6,19.9,19.3l-10.1,2.7
			l-4.2-3.4C563,408.5,563.1,408.4,563.2,408.3z M562.6,407.8L562.6,407.8c-1.6,2.3-4.3,3.9-7.3,3.9c-1.1,0-2.1-0.2-3.1-0.6
			c-0.4-0.1-0.7-0.3-1-0.5c0,0-0.1,0-0.1-0.1c-0.3-0.2-0.6-0.4-0.9-0.6c-0.1-0.1-0.2-0.1-0.3-0.2c-0.3-0.2-0.6-0.5-0.8-0.7
			c-0.1-0.1-0.1-0.1-0.2-0.2c-0.2-0.2-0.4-0.5-0.6-0.8c0-0.1-0.1-0.1-0.1-0.2c-0.2-0.3-0.4-0.7-0.6-1c0-0.1-0.1-0.1-0.1-0.2
			c-0.2-0.3-0.3-0.7-0.4-1.1c0,0,0,0,0-0.1c-0.1-0.4-0.2-0.8-0.3-1.2c0-0.1,0-0.2,0-0.3c-0.1-0.4-0.1-0.8-0.1-1.2
			c0-4.9,3.9-8.8,8.8-8.8c4.9,0,8.8,3.9,8.8,8.8c0,0.3,0,0.6,0,0.8c0,0.1,0,0.2,0,0.3c0,0.2,0,0.3-0.1,0.5c0,0.1-0.1,0.3-0.1,0.4
			s-0.1,0.3-0.1,0.4s-0.1,0.3-0.1,0.4s-0.1,0.3-0.1,0.4s-0.1,0.2-0.1,0.4c-0.1,0.2-0.1,0.3-0.2,0.4c0,0.1-0.1,0.2-0.1,0.3
			C562.9,407.4,562.8,407.6,562.6,407.8z M576.5,402.3c-0.2-0.5-0.4-1-0.7-1.4l18-8.6c0.5,1,0.9,2,1.3,3L576.5,402.3z M595.2,395.5
			c0.4,1,0.7,2.1,1,3.1l-19.1,5.3c-0.2-0.5-0.3-1-0.5-1.5L595.2,395.5z M575.7,400.7c-0.2-0.5-0.5-0.9-0.8-1.4l17.2-10.1
			c0.6,0.9,1.1,1.9,1.6,2.9L575.7,400.7z M574.8,399.1c-0.3-0.4-0.6-0.9-0.9-1.3l16.2-11.6c0.6,0.9,1.3,1.8,1.8,2.8L574.8,399.1z
			 M573.8,397.6c-0.3-0.4-0.6-0.8-0.9-1.2l15.1-13c0.7,0.8,1.4,1.7,2,2.6L573.8,397.6z M572.7,396.3c-0.4-0.4-0.7-0.8-1.1-1.2
			l14-14.3c0.8,0.8,1.5,1.6,2.3,2.4L572.7,396.3z M571.4,395c-0.4-0.4-0.8-0.7-1.2-1l12.7-15.4c0.9,0.7,1.7,1.4,2.5,2.2L571.4,395z
			 M570.1,393.8c-0.4-0.3-0.8-0.6-1.3-0.9l11.3-16.5c0.9,0.6,1.8,1.3,2.6,2L570.1,393.8z M568.7,392.8c-0.4-0.3-0.9-0.6-1.3-0.8
			l9.9-17.5c1,0.5,1.9,1.1,2.8,1.8L568.7,392.8z M567.1,391.8c-0.5-0.2-0.9-0.5-1.4-0.7l8.3-18.3c1,0.5,2,1,2.9,1.5L567.1,391.8z
			 M565.5,391.1c-0.5-0.2-1-0.4-1.5-0.6l6.7-19c1,0.4,2.1,0.8,3.1,1.2L565.5,391.1z M563.9,390.4c-0.5-0.2-1-0.3-1.5-0.4l5.1-19.5
			c1.1,0.3,2.1,0.6,3.2,1L563.9,390.4z M562.2,390c-0.5-0.1-1-0.2-1.5-0.3l3.3-19.9c1.1,0.2,2.2,0.4,3.2,0.7L562.2,390z
			 M560.4,389.6c-0.5-0.1-1-0.1-1.5-0.2l1.6-20.1c1.1,0.1,2.2,0.2,3.3,0.4L560.4,389.6z M558.7,389.4c-0.4,0-0.9-0.1-1.3-0.1
			c-4.4,0-8.5,1.4-11.9,3.8l-11.7-16.5c6.6-4.7,14.7-7.5,23.4-7.5c1,0,2,0,3,0.1L558.7,389.4z M545.3,393.3
			c-0.4,0.3-0.8,0.6-1.2,0.9L531,378.8c0.8-0.7,1.7-1.4,2.6-2L545.3,393.3z M543.9,394.4c-0.4,0.3-0.8,0.7-1.1,1l-14.4-14.2
			c0.8-0.8,1.6-1.5,2.4-2.3L543.9,394.4z M542.6,395.6c-0.4,0.4-0.7,0.8-1,1.1L526,383.8c0.7-0.9,1.5-1.7,2.2-2.5L542.6,395.6z
			 M541.4,396.9c-0.3,0.4-0.6,0.8-0.9,1.2l-16.6-11.5c0.6-0.9,1.3-1.8,2-2.6L541.4,396.9z M540.4,398.3c-0.3,0.4-0.6,0.9-0.8,1.3
			l-17.5-10c0.5-1,1.1-1.9,1.8-2.8L540.4,398.3z M539.4,399.8c-0.3,0.5-0.5,0.9-0.7,1.4l-18.3-8.4c0.5-1,1-2,1.5-3L539.4,399.8z
			 M538.6,401.4c-0.2,0.5-0.4,1-0.6,1.4l-19-6.8c0.4-1,0.8-2.1,1.3-3.1L538.6,401.4z M538,403c-0.2,0.5-0.3,1-0.5,1.5l-19.5-5.1
			c0.3-1.1,0.6-2.1,1-3.2L538,403z M537.4,404.7c-0.1,0.5-0.3,1-0.4,1.5l-19.8-3.4c0.2-1.1,0.4-2.2,0.7-3.2L537.4,404.7z
			 M537.1,406.5c-0.1,0.5-0.2,1-0.2,1.6l-20-1.6c0.1-1.1,0.2-2.2,0.4-3.3L537.1,406.5z M536.8,408.2c0,0.5-0.1,1-0.1,1.6l-20,0.1
			c0-0.1,0-0.1,0-0.2c0-1,0.1-2.1,0.1-3.1L536.8,408.2z M536.7,410c0,0.5,0,1,0.1,1.6l-19.9,1.9c-0.1-1.1-0.2-2.2-0.2-3.3L536.7,410
			z M536.8,411.8c0,0.5,0.1,1,0.2,1.6l-19.7,3.6c-0.2-1.1-0.3-2.2-0.5-3.3L536.8,411.8z M537,413.6c0.1,0.5,0.2,1,0.3,1.5l-19.2,5.3
			c-0.3-1.1-0.5-2.1-0.7-3.2L537,413.6z M537.4,415.3c0.1,0.5,0.3,1,0.5,1.5l-18.7,6.9c-0.4-1-0.7-2.1-1-3.2L537.4,415.3z
			 M577.1,404.2l19.1-5.3c0.3,1.1,0.5,2.1,0.8,3.2l-19.5,3.6C577.4,405.2,577.3,404.7,577.1,404.2z M557.2,368.4
			c-22.8,0-41.3,18.5-41.3,41.3c0,6.1,1.4,12.3,4.1,17.9c-3.5,1.5-7,3-10.4,4.6l-32.4-56.1v-25.5h138.6l4,52.9
			c-6.5,0.5-13.5,1.3-21.4,2.5C596.4,384.9,578.5,368.4,557.2,368.4z M464.1,348.4V337H562h0.4h6.3v-6.6h1.4v7.5h0.1v0.1
			c0.2,0,0.4,0,0.6,0c4,0,7.2-3.4,7.4-7.6h3c0.2,4.2,3.4,7.6,7.4,7.6c0.2,0,0.4,0,0.6,0v-0.1h0.1v-7.5h0.8v6h34l1.1,12.1H464.1
			V348.4z M435.1,300.3h12.2h2.3h24.7v35.9h-1v-7.5h-0.1v-0.1c-0.2,0-0.4,0-0.6,0c-4,0-7.2,3.4-7.4,7.6h-9.8l0.4-0.2L435.1,300.3z
			 M411.9,241h-12.2l-14.3-24.7v-15.7h5.4v-0.7h80.6v1.1H464v0.1h-0.1c0,0.2,0,0.4,0,0.6c0,4,3.4,7.2,7.6,7.4v30.5H411L411.9,241z
			 M451.1,199.1c0.2-4.1,3.3-7.4,7.2-7.4c0.2,0,0.3,0,0.5,0v7.4H451.1z M471.4,201.1v7.7c-4.1-0.2-7.4-3.3-7.4-7.2
			c0-0.2,0-0.3,0-0.5H471.4z M568.9,241.8V298H449.6h-1L415,241.8H568.9z M472.2,239.5v-39.7h25.6v39.7H472.2z M506.2,201.7
			c0-0.2,0-0.4,0-0.6h-0.1V201h-7.5v-1.1h83.7v40h-11.1v-0.4h-72.6V209C502.8,208.9,506.2,205.6,506.2,201.7z M498.6,208.9v-7.7h7.4
			c0,0.2,0,0.3,0,0.5C506,205.5,502.7,208.7,498.6,208.9z M510.5,199.1v-7.4c0.2,0,0.3,0,0.5,0c3.9,0,7,3.3,7.2,7.4H510.5z
			 M568.7,329.5v-29.2h2.5v-0.7h19.1v30L568.7,329.5L568.7,329.5z M589.2,330.3v7.4c-0.2,0-0.3,0-0.5,0c-3.9,0-7-3.3-7.2-7.4H589.2z
			 M578,330.3c-0.2,4.1-3.3,7.4-7.2,7.4c-0.2,0-0.3,0-0.5,0v-7.4H578z M571.2,298.8v-18.7h19.1v18.7H571.2z M571.2,279.3v-28.1h19.1
			v28.1H571.2z M567.9,300.3v35.9h-5.5v-35.9H567.9z M557,328.7v-0.1c-0.2,0-0.4,0-0.6,0c-4,0-7.2,3.4-7.4,7.6h-12.4v-35.9h25v35.9
			h-4.5L557,328.7L557,328.7z M556.9,328.8v7.4h-7.7c0.2-4.1,3.3-7.4,7.2-7.4C556.6,328.8,556.8,328.8,556.9,328.8z M526,328.7v-0.1
			c-0.2,0-0.4,0-0.6,0c-4,0-7.2,3.4-7.4,7.6h-9.5v-35.9h27.4v35.9h-9.8v-7.5H526z M525.9,328.8v7.4h-7.7c0.2-4.1,3.3-7.4,7.2-7.4
			C525.5,328.8,525.7,328.8,525.9,328.8z M495.3,328.7v-0.1c-0.2,0-0.4,0-0.6,0c-4,0-7.2,3.4-7.4,7.6h-12.2v-35.9h32.6v35.9h-12.3
			v-7.5H495.3z M495.2,328.8v7.4h-7.7c0.2-4.1,3.3-7.4,7.2-7.4C494.9,328.8,495.1,328.8,495.2,328.8z M473.1,328.8v7.4h-7.7
			c0.2-4.1,3.3-7.4,7.2-7.4C472.8,328.8,473,328.8,473.1,328.8z M591,335.5v-17.4h31.6l1.5,17.4H591z M591,317.4v-17.8h4.5v17.8H591
			z M596.2,317.4v-15.2h25l1.4,15.2H596.2z M596.2,301.4v-2.6H591v-18.7h28.2l1.9,21.4L596.2,301.4L596.2,301.4z M591,279.3v-28.1
			h15.2v28.1H591z M606.9,279.3v-28.1h9.7l2.5,28.1H606.9z M590.6,250.4h-0.4h-19.1v-9h11.1h0.8h32.8l0.8,9H590.6z M583.8,239.9
			v-14.3h13.5v0.6h1.5v-0.6h15.5v-0.2h-15.5v-2.2h15.3V223h-15.3v-2.2h15.1v-0.2h-15.1v-2.2h14.9v-0.2h-14.9V216h14.7l0,0l2.1,23.9
			H583.8z M597.5,202v2.2h-13.7V202H597.5z M583.8,201.8v-2.2h13.7v2.2H583.8z M597.4,204.3v2.2h-13.7v-2.2H597.4z M597.4,206.7v2.2
			h-13.6v-2.2H597.4z M597.4,209.1v2.2h-13.6v-2.2H597.4z M597.4,211.4v2.2h-13.6v-2.2H597.4z M597.4,213.8v2.2h-13.6v-2.2H597.4z
			 M597.3,216.2v2.2h-13.6v-2.2H597.3z M597.3,218.5v2.2h-13.6v-2.2H597.3z M597.3,220.9v2.2h-13.5v-2.2H597.3z M597.3,223.3v2.2
			h-13.5v-2.2H597.3z M598.8,216v-2.2h14.5l0.2,2.2H598.8z M598.9,213.6v-2.2h14.2l0.2,2.2H598.9z M598.9,211.2V209h14l0.2,2.2
			H598.9z M598.9,208.9v-2.2h13.8l0.2,2.2H598.9z M598.9,206.5v-2.2h13.5l0.2,2.2H598.9z M598.9,204.1v-2.2h13.3l0.2,2.2H598.9z
			 M599,201.8v-2.2h13.1l0.2,2.2H599z M599,199.4v-4.7h-1.5v4.7h-13.7v-50.5h23.8l4.5,50.5H599z M582.3,147.4v0.9h-10l0.1-31h32.3
			l2.7,30.2L582.3,147.4L582.3,147.4z M550.4,125.5V92.6c0-4.3-3.5-7.9-7.9-7.9h-168v0.4v4.7h-14.1v-4.7v-0.4h-54.1L289,94.9
			l-14.4-24.4H562c0.2,4.2,3.4,7.6,7.4,7.6c0.2,0,0.4,0,0.6,0V78h0.1v-7.5h1.1v29.3h12.2v0.8H576v0.1h-0.1c0,0.2,0,0.4,0,0.6
			c0,4,3.4,7.2,7.6,7.4v7.7h-1.2V109h-0.1v-0.1c-0.2,0-0.4,0-0.6,0c-4,0-7.2,3.4-7.4,7.6h-2.5v9.1L550.4,125.5L550.4,125.5z
			 M564.9,126.3c-0.2,4.1-3.3,7.4-7.2,7.4c-0.2,0-0.3,0-0.5,0v-7.4L564.9,126.3z M492.2,131.3V85.6h50.3c3.9,0,7.1,3.2,7.1,7.1v38.7
			L492.2,131.3L492.2,131.3z M531.5,132.1v7.4c-0.2,0-0.3,0-0.5,0c-3.9,0-7-3.3-7.2-7.4H531.5z M433.4,131.3V85.6h58.1v45.8
			L433.4,131.3L433.4,131.3z M470,132.1v7.4c-0.2,0-0.3,0-0.5,0c-3.9,0-7-3.3-7.2-7.4H470z M375.3,131.3V90.6v-5h57.4v45.8
			L375.3,131.3L375.3,131.3z M408.6,132.1v7.4c-0.2,0-0.3,0-0.5,0c-3.9,0-7-3.3-7.2-7.4H408.6z M368.1,109.3c0-0.2,0-0.4,0-0.6H368
			v-0.1h-7.5v-18h2.5c0.2,4.2,3.4,7.6,7.4,7.6c0.2,0,0.4,0,0.6,0v-0.1h0.1v-7.5h3.5v40.8h-14.1v-14.6
			C364.7,116.6,368.1,113.3,368.1,109.3z M360.5,116.5v-7.7h7.4c0,0.2,0,0.3,0,0.5C367.9,113.2,364.6,116.4,360.5,116.5z
			 M363.2,90.6h7.7V98c-0.2,0-0.3,0-0.5,0C366.5,98,363.3,94.7,363.2,90.6z M352.3,136.6v0.1h-0.1c0,0.2,0,0.4,0,0.6
			c0,4,3.4,7.2,7.6,7.4v33.4h-16.5l-3.9,2.3l-25.4-43l8.9-5.3h36.8v4.5H352.3z M359.7,136.8v7.7c-4.1-0.2-7.4-3.3-7.4-7.2
			c0-0.2,0-0.3,0-0.5H359.7z M383.5,505.4h-8.4v-82.5H415l4.8-2.8l19.7,33.6L383.5,505.4z M403.2,489.3c2.4,3.1,2.2,7.5-0.5,10
			c-0.1,0.1-0.3,0.2-0.4,0.3l-4.7-5.1L403.2,489.3z M305.3,421.4v-58.1h74l5.3-3.1l34.5,58.6l-4.4,2.6H305.3z M373.6,422.9v82.5
			h-68.4v-82.5H373.6z M305.3,361.8v-69.3l29.4-17.3l49.2,83.7l-4.9,2.9L305.3,361.8L305.3,361.8z M294.1,201.9h57.1L492,440.7
			c-14.6,7.7-28.7,16.6-41.9,26.4L294.1,201.9z M296.5,210.4l2.7,4.5l-0.1,12.8c0,6.7-6.8,12.8-14.2,12.8h-0.7H284v-16h0.7V223H284
			v-16C288.3,207.1,293.4,207.6,296.5,210.4z M283,205.5L283,205.5h-55.5v-9.2c4-0.4,7.2-3.5,7.2-7.4c0-0.2,0-0.4,0-0.6h-0.1v-0.1
			h-7.1v-4.9h29.7v-39.7l36.4,61.9H283z M281.5,223v-16h1.4c0.3,0,0.6,0,0.9,0v16H281.5z M283.8,224.5v16h-2.3v-16H283.8z M279,223
			v-16h2.3v16H279z M281.3,224.5v16H279v-16H281.3z M276.5,223v-16h2.3v16H276.5z M278.8,224.5v16h-2.3v-16H278.8z M274,223v-16h2.3
			v16H274z M276.3,224.5v16H274v-16H276.3z M264.8,246.5v0.1h-0.1c0,0.2,0,0.4,0,0.6c0,4,3.4,7.2,7.6,7.4v5.2h-45.2V242h45.2v4.4
			h-7.5V246.5z M272.2,246.7v7.7c-4.1-0.2-7.4-3.3-7.4-7.2c0-0.2,0-0.3,0-0.5H272.2z M251.2,224.5v16h-13.3c-0.1-4-3.6-7.3-8-7.3
			h-0.1v7.3h-2.4V207h23.8v16h-0.7v1.5H251.2z M237.7,240.5h-7.6v-7.1C234.3,233.5,237.6,236.6,237.7,240.5z M253.7,224.5v16h-2.3
			v-16H253.7z M251.4,223v-16h2.3v16H251.4z M256.2,224.5v16h-2.3v-16H256.2z M253.9,223v-16h2.3v16H253.9z M258.7,224.5v16h-2.3
			v-16H258.7z M256.5,223v-16h2.3v16H256.5z M261.3,224.5v16H259v-16H261.3z M259,223v-16h2.3v16H259z M263.8,224.5v16h-2.3v-16
			H263.8z M261.5,223v-16h2.3v16H261.5z M266.3,224.5v16H264v-16H266.3z M264,223v-16h2.3v16H264z M268.8,224.5v16h-2.3v-16H268.8z
			 M266.5,223v-16h2.3v16H266.5z M271.3,224.5v16H269v-16H271.3z M269,223v-16h2.3v16H269z M271.5,240.5v-16h2.3v16H271.5z
			 M271.5,223v-16h2.3v16H271.5z M227.4,196.1v-7.7h7c0,0.2,0,0.3,0,0.5C234.4,192.6,231.3,195.7,227.4,196.1z M227.4,181.8v-38.3
			l22.1-13l6.2,10.5l0,0v40.8H227.4z M231.1,94.9L273.4,70l69.8,118.4h-57.1L231.1,94.9z M322.7,131.3l-9.1,5.4l-24.3-41.2l17.3-10
			h53.1v5v40.8H322.7z M286.3,69.7c0.2-4.1,3.3-7.4,7.2-7.4c0.2,0,0.3,0,0.5,0v7.4H286.3z M304.8,69.7v-7.4c0.2,0,0.3,0,0.5,0
			c3.9,0,7,3.3,7.2,7.4H304.8z M334.2,69.7v-7.4c0.2,0,0.3,0,0.5,0c3.9,0,7,3.3,7.2,7.4H334.2z M363.9,69.7v-7.4c0.2,0,0.3,0,0.5,0
			c3.9,0,7,3.3,7.2,7.4H363.9z M393.4,69.7v-7.4c0.2,0,0.3,0,0.5,0c3.9,0,7,3.3,7.2,7.4H393.4z M425.4,69.7c0.2-4.1,3.3-7.4,7.2-7.4
			c0.2,0,0.3,0,0.5,0v7.4H425.4z M453.5,69.7v-7.4c0.2,0,0.3,0,0.5,0c3.9,0,7,3.3,7.2,7.4H453.5z M483,69.7v-7.4c0.2,0,0.3,0,0.5,0
			c3.9,0,7,3.3,7.2,7.4H483z M512.5,69.7v-7.4c0.2,0,0.4,0,0.5,0c3.9,0,7,3.3,7.2,7.4H512.5z M542.1,69.7v-7.4c0.2,0,0.4,0,0.5,0
			c3.9,0,7,3.3,7.2,7.4H542.1z M562.3,70.5h7.7v7.3c-0.2,0-0.3,0-0.5,0C565.6,77.9,562.4,74.6,562.3,70.5z M583.5,100.9v7.7
			c-4.1-0.2-7.4-3.3-7.4-7.2c0-0.2,0-0.3,0-0.5H583.5z M582.1,109.1v7.4h-7.7c0.2-4.1,3.3-7.4,7.2-7.4
			C581.7,109.1,581.9,109.1,582.1,109.1z M584.2,116.5V99.8h19l1.5,16.6L584.2,116.5L584.2,116.5z M572.8,94.2v-7.7
			c3.9,0.4,7,3.4,7,7.2c0,0.2,0,0.3,0,0.5H572.8z M561.7,36.7h35l0.5,23.1h2.5l0.7,8.3h-29.1v1.7h-9.6L561.7,36.7L561.7,36.7z
			 M532.6,36.7H561v33.1h-11c-0.2-4.2-3.4-7.6-7.4-7.6c-0.2,0-0.4,0-0.6,0h-0.1v7.6h-9.3L532.6,36.7L532.6,36.7z M502.4,36.7h29.4
			v33.1h-11.4c-0.2-4.2-3.4-7.6-7.4-7.6c-0.2,0-0.4,0-0.6,0h-0.1v7.6h-9.8V36.7H502.4z M473,36.7h28.7v33.1H491
			c-0.2-4.2-3.4-7.6-7.4-7.6c-0.2,0-0.4,0-0.6,0v0.1h-0.1v7.5H473V36.7z M443.6,36.7h28.6v33.1h-10.8c-0.2-4.2-3.4-7.6-7.4-7.6
			c-0.2,0-0.4,0-0.6,0v0.1h-0.1v7.5h-9.7V36.7z M414.1,36.7h28.8v33.1h-9.5v-7.5h-0.1v-0.1c-0.2,0-0.4,0-0.6,0c-4,0-7.2,3.4-7.4,7.6
			h-11.1L414.1,36.7L414.1,36.7z M384.4,36.7h29v33.1h-12c-0.2-4.2-3.4-7.6-7.4-7.6c-0.2,0-0.4,0-0.6,0v0.1h-0.1v7.5h-8.8V36.7
			H384.4z M354.7,36.7h29v33.1h-11.8c-0.2-4.2-3.4-7.6-7.4-7.6c-0.2,0-0.4,0-0.6,0v0.1h-0.1v7.5h-9V36.7H354.7z M325.1,36.7h28.8
			v33.1h-11.7c-0.2-4.2-3.4-7.6-7.4-7.6c-0.2,0-0.4,0-0.6,0v0.1H334v7.5h-8.9V36.7z M295.6,36.7h28.8v33.1h-11.6
			c-0.2-4.2-3.4-7.6-7.4-7.6c-0.2,0-0.4,0-0.6,0v0.1h-0.1v7.5h-9L295.6,36.7L295.6,36.7z M265.1,36.7h29.7v33.1h-0.6v-7.5h-0.1v-0.1
			c-0.2,0-0.4,0-0.6,0c-4,0-7.2,3.4-7.4,7.6h-12l-9-15.3V36.7z M264.4,36.7v16.5l-9.7-16.5H264.4z M253.8,36.7L273,69.3l-42.3,24.9
			l-33.9-57.6L253.8,36.7L253.8,36.7z M3.8,36.7h190.5l54.4,92.5l-22.8,13.4V242h0.4v18.5h45.9v41.6h-41.9v96.6h41.9v22h-56.6
			c-0.2-4.2-3.4-7.6-7.4-7.6c-0.2,0-0.4,0-0.6,0v0.1h-0.1v7.5h-34.1v-2h-46.7v-19.4h53.8v-0.8h-53.8v-0.9h46.7v-0.8h28.1v-38.4
			h-28.1v-175h-0.8v-28.8h-44.5h-0.8h-53V183h-2.5v-6.9h-0.1c-4,0-7.3,2.7-7.9,6.3c-0.6-3.5-3.9-6.3-7.9-6.3h-0.1v6.9h-3.2v-28.4
			h-49V36.7H3.8z M253,384.7v-2.4h16v2.4h0.2V303h2.9v95.1h-41.2V303h21.2v81.8L253,384.7L253,384.7z M269.1,306v2.3h-16V306H269.1z
			 M253,305.8V303h16v2.9h-16V305.8z M269.1,308.5v2.3h-16v-2.3H269.1z M269.1,311v2.3h-16V311H269.1z M269.1,313.5v2.3h-16v-2.3
			H269.1z M269.1,315.9v2.3h-16v-2.3H269.1z M269.1,318.4v2.3h-16v-2.3H269.1z M269.1,320.9v2.3h-16v-2.3H269.1z M269.1,323.4v2.3
			h-16v-2.3H269.1z M269.1,325.8v2.3h-16v-2.3H269.1z M269.1,328.3v2.3h-16v-2.3H269.1z M269.1,330.8v2.3h-16v-2.3H269.1z
			 M269.1,333.3v2.3h-16v-2.3H269.1z M269.1,335.7v14.5h-16v-14.5H269.1z M269.1,350.4v2.2h-16v-2.2H269.1z M269.1,352.9v2.2h-16
			v-2.2H269.1z M269.1,355.3v2.2h-16v-2.2H269.1z M269.1,357.8v2.2h-16v-2.2H269.1z M269.1,360.2v2.2h-16v-2.2H269.1z M269.1,362.7
			v2.2h-16v-2.2H269.1z M269.1,365.1v2.2h-16v-2.2H269.1z M269.1,367.6v2.2h-16v-2.2H269.1z M269.1,370v2.2h-16V370H269.1z
			 M269.1,372.5v2.2h-16v-2.2H269.1z M269.1,374.9v2.2h-16v-2.2H269.1z M269.1,377.4v2.2h-16v-2.2H269.1z M269.1,379.8v2.2h-16v-2.2
			H269.1z M173.4,505v-83.5h98.8v84.3h-7V505H173.4z M246.4,531.7v28h17.4v18.8h-82.5v-45.3h-7.8v-26.7h90.3v25.2H246.4z
			 M256.4,533.2c-0.4,3.9-3.4,7-7.2,7c-0.2,0-0.3,0-0.5,0v-7H256.4z M247.9,541.9c3.9,0.1,7,3.5,7.1,7.6h-7.1V541.9z M248.7,558.2
			v-7c0.2,0,0.3,0,0.5,0c3.7,0,6.8,3.1,7.2,7H248.7z M255.8,586.4c4.1,0.2,7.4,3.3,7.4,7.2c0,0.2,0,0.3,0,0.5h-7.4L255.8,586.4
			L255.8,586.4z M170.8,571.4L170.8,571.4c-0.2-0.1-0.4-0.1-0.6-0.1c-3.9,0-7,3.2-7.4,7.2H137v-43.7h35.3v-0.1h7.4v43.8h-8.8
			L170.8,571.4L170.8,571.4L170.8,571.4z M170.7,571.5v7H163c0.4-3.9,3.4-7,7.2-7C170.4,571.5,170.5,571.5,170.7,571.5z
			 M135.4,571.4L135.4,571.4c-0.2-0.1-0.4-0.1-0.6-0.1c-3.9,0-7,3.2-7.4,7.2H99.3v-43.8h26.3v0.1h10.6v43.7h-0.7v-7.1L135.4,571.4
			L135.4,571.4z M135.3,571.5v7h-7.7c0.4-3.9,3.4-7,7.2-7C135,571.5,135.2,571.5,135.3,571.5z M82.7,571.3c-0.2,0-0.4,0-0.6,0v0.1
			H82v7.1H52.8v-13h7.3v-0.1c0-4.3-3.3-7.9-7.3-8v-16.1v-6.9h2.4v7.1h0.1v0.1c0.2,0,0.4,0,0.6,0c3.7,0,6.7-2.9,7.3-6.7
			c0.6,3.8,3.6,6.7,7.3,6.7c0.2,0,0.4,0,0.6,0v-0.1h0.1v-6.9h3.1l0,0h24.1v43.8H90C89.7,574.5,86.5,571.3,82.7,571.3z M89.8,578.5
			h-7.7v-7c0.2,0,0.3,0,0.5,0C86.4,571.5,89.5,574.6,89.8,578.5z M52.8,565.3v-7.6c3.9,0.1,7,3.5,7.1,7.6H52.8z M55.4,541.5v-7
			l7.7,0.1c-0.4,3.9-3.4,7-7.2,7C55.7,541.5,55.6,541.5,55.4,541.5z M63.4,534.6l7.7,0.1v6.8c-0.2,0-0.3,0-0.5,0
			C66.8,541.5,63.8,538.5,63.4,534.6z M75.9,533.2v-18.8h48.5v18.8H75.9z M81.8,379.5v-14.9h14.7v33.6H75.9v-18.6h5.9V379.5z
			 M80.3,363.1h-4.4v-13.6h20.6v13.6H81.1H80.3z M96.6,399.7v0.2h1.5v-0.6h26.4v3.3H117v0.1h-0.1c0,0.2,0,0.4,0,0.6
			c0,3.7,2.9,6.7,6.7,7.3c-3.8,0.6-6.7,3.6-6.7,7.3c0,0.2,0,0.4,0,0.6h0.1v0.1h7.5v4.1H75.6v-23.1h21V399.7z M112.1,376.1V374h12.3
			v2.1H112.1z M124.5,376.3v2.1h-12.3v-2.1H124.5z M112.1,373.8v-2.1h12.3v2.1H112.1z M112.1,371.5v-2.1h12.3v2.1H112.1z
			 M112.1,369.2v-2.1h12.3v2.1H112.1z M112.1,366.9v-2.1h12.3v2.1H112.1z M112.1,364.6v-2.1h12.3v2.1H112.1z M112.1,362.3v-2.1h12.3
			v2.1H112.1z M112.1,360v-2.1h12.3v2.1H112.1z M112.1,357.6v-2.1h12.3v2.1H112.1z M112.1,355.3v-2.1h12.3v2.1H112.1z M112.1,353v-2
			h12.3v2.1h-12.3V353z M112.1,350.7V350h-1.5v0.7H98.1v-15.5h26.4v15.5H112.1z M110.6,351v2.1H98.1V351H110.6z M110.6,353.3v2.1
			H98.1v-2.1H110.6z M110.6,355.6v2.1H98.1v-2.1H110.6z M110.6,357.9v2.1H98.1v-2.1H110.6z M110.6,360.2v2.1H98.1v-2.1H110.6z
			 M110.6,362.5v2.1H98.1v-2.1H110.6z M110.6,364.8v2.1H98.1v-2.1H110.6z M110.6,367.1v2.1H98.1v-2.1H110.6z M110.6,369.4v2.1H98.1
			v-2.1H110.6z M110.6,371.7v2.1H98.1v-2.1H110.6z M110.6,374v2.1H98.1V374H110.6z M110.6,376.3v2.1H98.1v-2.1H110.6z M110.6,378.6
			v3.3h1.5v-3.3h12.3V393H98.1v-14.4H110.6z M124.5,394.5v4.1H98.1v-4.1H124.5z M124.5,402.8v7.7c-4.1-0.1-7.5-3.3-7.5-7.2
			c0-0.2,0-0.3,0-0.5H124.5z M124.5,410.8v7.7H117c0-0.2,0-0.3,0-0.5C117,414.1,120.3,410.9,124.5,410.8z M75.1,183.1v-27.6h52.3
			v6.7h-7.5h-0.1v0.1c0,0.2,0,0.4,0,0.6c0,4,3.4,7.2,7.6,7.4v13.2h-0.7v-0.4H75.1z M99.7,185.4v18.5H75.9v-18.5H99.7z M164.5,162.2
			h-0.1v0.1c0,0.2,0,0.4,0,0.6c0,4,3.4,7.2,7.6,7.4v13.2h-43.8v-28.1H172v6.7h-7.5V162.2z M171.9,162.4v7.7
			c-4.1-0.2-7.4-3.3-7.4-7.2c0-0.2,0-0.3,0-0.5H171.9z M171.2,185.8v209.6h-44.5V185.8H171.2z M127.4,170.1
			c-4.1-0.2-7.4-3.3-7.4-7.2c0-0.2,0-0.3,0-0.5h7.4V170.1z M101.2,185.4h23.3v18.5h-23.3V185.4z M126.7,532.6V421h44.5v111.6H126.7z
			 M207.7,420.8v-7.4c0.2,0,0.3,0,0.5,0c3.9,0,7,3.3,7.2,7.4H207.7z M193.6,388.7v-0.1c-0.2,0-0.4,0-0.6,0c-4,0-7.2,3.4-7.4,7.6
			h-12.2v-36.9h27.3v36.9h-7v-7.5H193.6z M193.5,388.8v7.4h-7.7c0.2-4.1,3.3-7.4,7.2-7.4C193.2,388.7,193.4,388.7,193.5,388.8z
			 M71.6,176.4v6.7H64C64.3,179.4,67.6,176.4,71.6,176.4z M63.8,183.1h-7.6v-6.7C60.2,176.4,63.5,179.4,63.8,183.1z M3.8,155.5H52
			v6.7h-7.5v0.1h-0.1c0,0.2,0,0.4,0,0.6c0,4,3.4,7.2,7.6,7.4v12.8H3.8V155.5z M52,162.4v7.7c-4.1-0.2-7.4-3.3-7.4-7.2
			c0-0.2,0-0.3,0-0.5H52z M51.3,185.4v18.5H26.4v-18.5H51.3z M3.8,185.4H25v18.5H3.8V185.4z M3.8,205.4H25h1.5h26.4v-20h21.6v20
			h25.3h1.5h23.3v128.4h-28V348H74.4v6.3c-4,0.4-7.2,3.5-7.2,7.4c0,0.2,0,0.4,0,0.6h0.1v0.1h7.1v2.2h5.9V378h-5.9v21.6h0.4v5.8h-7.5
			h-0.1v0.1c0,0.2,0,0.4,0,0.6c0,4,3.4,7.2,7.6,7.4v9.9h49.6v89.4h-50v20.3l-21.6-0.3v-19.3v-0.8H26.3h-1.5h-21L3.8,205.4z
			 M74.4,354.5v7.7h-7c0-0.2,0-0.3,0-0.5C67.4,358,70.5,354.9,74.4,354.5z M74.8,405.7v7.7c-4.1-0.2-7.4-3.3-7.4-7.2
			c0-0.2,0-0.3,0-0.5H74.8z M52.8,585c3.9,0.1,7,3.5,7.1,7.6h-7.1V585z M3.8,514.4h21v25.4h-21L3.8,514.4z M51.3,651H3.8v-69.4h47.6
			L51.3,651L51.3,651z M51.3,580.9H3.8v-39.6h21h1.5h25.1v39.6H51.3z M51.3,539.8h-25v-25.4h25.1v25.4H51.3z M83.2,651H52.8v-52.2
			h6.5v7.5h0.1v0.1c0.2,0,0.4,0,0.6,0c4,0,7.2-3.4,7.4-7.6h15.8V651z M59.5,606.2v-7.4h7.7c-0.2,4.1-3.3,7.4-7.2,7.4
			C59.8,606.2,59.7,606.2,59.5,606.2z M104.2,651H83.9v-52.2h11.5c0.2,4.2,3.4,7.6,7.4,7.6c0.2,0,0.4,0,0.6,0v-0.1h0.1v-7.5h0.6
			L104.2,651L104.2,651z M95.6,598.9h7.7v7.4c-0.2,0-0.3,0-0.5,0C99,606.2,95.8,603,95.6,598.9z M131.6,651H105v-52.2h0.8v7.5h0.1
			v0.1c0.2,0,0.4,0,0.6,0c4,0,7.2-3.4,7.4-7.6h17.7V651z M106,606.2v-7.4h7.7c-0.2,4.1-3.3,7.4-7.2,7.4
			C106.3,606.2,106.2,606.2,106,606.2z M176.6,651h-44.3v-52.2h7.2v7.5h0.1v0.1c0.2,0,0.4,0,0.6,0c4,0,7.2-3.4,7.4-7.6h9.7v8.3h19.3
			V651z M139.7,606.2v-7.4h7.7c-0.2,4.1-3.3,7.4-7.2,7.4C140.1,606.2,139.9,606.2,139.7,606.2z M158.1,606.5v-7.6h31.4v7.6H158.1z
			 M203.6,651h-26.2v-43.8h12.9v-8.3h4.2c0.2,4.2,3.4,7.6,7.4,7.6c0.2,0,0.4,0,0.6,0v-0.1h0.1v-7.5h0.9V651H203.6z M194.7,598.9h7.7
			v7.4c-0.2,0-0.3,0-0.5,0C198.1,606.2,194.9,603,194.7,598.9z M230.4,651h-26v-52.2h0.4v7.5h0.1v0.1c0.2,0,0.4,0,0.6,0
			c4,0,7.2-3.4,7.4-7.6h0.3v8.3h17.2V651z M205,606.2v-7.4h7.7c-0.2,4.1-3.3,7.4-7.2,7.4C205.3,606.2,205.1,606.2,205,606.2z
			 M214,606.5v-7.6h31.4v7.6H214z M255,651h-23.9v-43.8h15v-8.3h0.2c0.2,4.2,3.4,7.6,7.4,7.6c0.2,0,0.4,0,0.6,0v-0.1h0.1v-7.5h0.5
			L255,651L255,651z M246.6,598.9h7.7v7.4c-0.2,0-0.3,0-0.5,0C249.9,606.2,246.8,603,246.6,598.9z M255,598.1h-8.9h-32.9h-23h-32.9
			H52.8v-5.3h7.3v-0.1c0-4.3-3.3-7.9-7.3-8V580h126.9h0.8H255V598.1z M274.7,651h-18.9v-52.2h0.6v7.5h0.1v0.1c0.2,0,0.4,0,0.6,0
			c4,0,7.2-3.4,7.4-7.6h10.1L274.7,651L274.7,651z M256.6,606.2v-7.4h7.7c-0.2,4.1-3.3,7.4-7.2,7.4
			C256.9,606.2,256.8,606.2,256.6,606.2z M274.7,598.1h-18.9v-3.8h7.5v-0.1h0.1c0-0.2,0-0.4,0-0.6c0-4-3.4-7.2-7.6-7.4V580h9.5v-21
			v-0.8v-4.7h-1.5v4.7h-7.1c-0.4-4-3.5-7.2-7.4-7.2c-0.2,0-0.4,0-0.6,0v0.1h-0.1v7.1H248v-8.5h7.2v-0.1h0.1c0-4.3-3.3-7.9-7.3-8
			v-8.5h0.6v7.1h0.1v0.1c0.2,0,0.4,0,0.6,0c3.9,0,7-3.2,7.4-7.2h7.1v5h1.5v-5v-0.5v-26.2h7.7V398.8v-96.6v-41.6V242h11.2h0.7
			c8.2,0,15.6-6.8,15.7-14.2l0.1-10.3l33.2,56.5l-30.1,17.7v8.7h-7.1h-0.1v0.1c0,0.2,0,0.4,0,0.6c0,3.9,3.2,7,7.2,7.4v41.3
			c-4,0.4-7.2,3.5-7.2,7.4c0,0.2,0,0.4,0,0.6v0.1h7.2V371h-7h-0.1v0.1c0,0.2,0,0.4,0,0.6c0,3.8,3.1,7,7.1,7.4v29.6
			c-4,0.4-7.2,3.5-7.2,7.4c0,0.2,0,0.4,0,0.6v0.1h7.2v12.4h-7.1h-0.1v0.1c0,0.2,0,0.4,0,0.6c0,3.9,3.2,7,7.2,7.4v50.2
			c-4,0.4-7.2,3.5-7.2,7.4c0,0.2,0,0.4,0,0.6v0.1h7.2v11.1h80.3l13.3-12.3l4.8,5.2l0.1-0.1l0.1,0.1c0.2-0.1,0.3-0.3,0.5-0.4
			c2.8-2.6,3-7.1,0.5-10.3l37-34.1l19.7,33.6c-7.1,5.5-14.1,11.3-20.8,17.4c-3.1-2.9-7.8-3.1-10.6-0.3c-0.1,0.1-0.3,0.3-0.4,0.4
			l0.1,0.1l-0.1,0.1l5.1,5.3c-0.2,0.2-0.4,0.4-0.6,0.6l-3.1-3.2l-0.3,0.3l-0.3-0.3c-9.3,9.1-18.2,18.9-26.3,29.1l0.6,0.5
			c8-10.1,16.8-19.7,26-28.7l7.9,8.1c-0.1,0.1-0.3,0.3-0.4,0.4l-5.3-5.3l-0.1,0.1l-0.1-0.1c-0.2,0.1-0.3,0.3-0.5,0.4
			c-1.4,1.4-2.1,3.3-2.1,5.4c0.1,1.9,0.9,3.8,2.2,5.3c-10.9,11.2-20.8,23.2-29.7,35.9l-9.6-6.7l-0.9,1.2l9.6,6.7
			c-9.3,13.4-17.5,27.5-24.5,42.4c-1.8-0.8-3.8-0.9-5.7-0.3c-2,0.6-3.5,2-4.3,3.8c-0.1,0.2-0.2,0.4-0.2,0.6h0.1l-0.1,0.1l6.8,3.2
			c-0.1,0.2-0.2,0.4-0.3,0.7l-9.7-4.3c0.2-0.5,0.4-1,0.7-1.5l-1-0.5l0.3,0.2c5.3-11.9,11.5-23.7,18.3-34.8l-0.6-0.4
			c-6.7,11.1-12.8,22.7-18.2,34.6l-12.3-5.4h-72.9v-1.4h-2.3l0,0L274.7,598.1L274.7,598.1z M303.8,300.6v7.7c-3.9-0.4-7-3.4-7-7.2
			c0-0.2,0-0.3,0-0.5H303.8z M303.8,350.1v7.7h-7c0-0.2,0-0.3,0-0.5C296.8,353.5,299.8,350.4,303.8,350.1z M303.8,371.3v7.7
			c-3.9-0.4-6.9-3.5-6.9-7.2c0-0.2,0-0.3,0-0.5H303.8z M303.8,409v7.7h-7c0-0.2,0-0.3,0-0.5C296.8,412.5,299.8,409.4,303.8,409z
			 M303.8,429.6v7.7c-3.9-0.4-7-3.4-7-7.2c0-0.2,0-0.3,0-0.5H303.8z M303.8,487.9v7.7h-7c0-0.2,0-0.3,0-0.5
			C296.8,491.4,299.8,488.3,303.8,487.9z M439.2,506.1c-1.9,1.7-3.8,3.5-5.6,5.3l-5-5.2c0.1-0.1,0.2-0.3,0.4-0.4
			C431.7,503.1,436.2,503.3,439.2,506.1z M436.7,518.3c-1.8,1.8-3.7,3.6-5.4,5.5c-1.3-1.4-2.1-3.2-2.2-5.1c-0.1-2,0.6-3.8,2-5.2
			c0.1-0.1,0.2-0.2,0.4-0.4L436.7,518.3z M376,603.6c-1.1,2.3-2.2,4.7-3.2,7l-6.7-3.1c0.1-0.2,0.1-0.3,0.2-0.5
			c0.8-1.7,2.3-3,4.2-3.7C372.2,602.8,374.2,602.9,376,603.6z M348.7,600.1v7.4c-0.2,0-0.3,0-0.5,0c-3.9,0-7-3.3-7.2-7.4H348.7z
			 M276.9,601.8v-1.6h48.2v1.6H276.9z M323.8,602.5v15.1h-2.3v-15.1H323.8z M321.3,602.5v15.1H319v-15.1H321.3z M318.9,602.5v15.1
			h-2.3v-15.1H318.9z M316.4,602.5v15.1h-2.3v-15.1H316.4z M313.9,602.5v15.1h-2.3v-15.1H313.9z M311.4,602.5v15.1h-2.3v-15.1H311.4
			z M309,602.5v15.1h-2.3v-15.1H309z M306.5,602.5v15.1h-2.3v-15.1H306.5z M304,602.5v15.1h-2.3v-15.1H304z M301.6,602.5v15.1h-2.3
			v-15.1H301.6z M299.1,602.5v15.1h-2.3v-15.1H299.1z M296.6,602.5v15.1h-2.3v-15.1H296.6z M294.1,602.5v15.1h-2.3v-15.1H294.1z
			 M291.7,627.3v15.1H277v-39.9h14.7v15.1H290v9.7L291.7,627.3L291.7,627.3z M323.5,651h-46.6v-7.8h46.6V651z M291.9,642.4v-15.1
			h2.3v15.1H291.9z M294.4,642.4v-15.1h2.3v15.1H294.4z M296.8,642.4v-15.1h2.3v15.1H296.8z M299.3,642.4v-15.1h2.3v15.1H299.3z
			 M301.8,642.4v-15.1h2.3v15.1H301.8z M304.2,642.4v-15.1h2.3v15.1H304.2z M306.7,642.4v-15.1h2.3v15.1H306.7z M309.2,642.4v-15.1
			h2.3v15.1H309.2z M311.7,642.4v-15.1h2.3v15.1H311.7z M314.1,642.4v-15.1h2.3v15.1H314.1z M316.6,642.4v-15.1h2.3v15.1H316.6z
			 M319.1,642.4v-15.1h2.3v15.1H319.1z M323.8,642.4h-2.3v-15.1h2.3V642.4z M324.3,651v-8.2H324V627h-0.1v-0.4h-33.2v-8.2h33.2v-0.1
			h0.1v-15.8h1.9v-2.4h14.9c0.2,4.2,3.4,7.6,7.4,7.6c0.2,0,0.4,0,0.6,0v-0.1h0.1v-7.5h0.7l11.4,5c-3.2,7.1-6.1,14.4-8.7,21.8
			l-6.4-2.2v0.1h-0.1c-0.1,0.2-0.2,0.4-0.2,0.6c-0.6,1.9-0.5,3.9,0.5,5.7c0.8,1.5,2.1,2.7,3.6,3.4c-1.8,5.4-3.4,10.9-4.9,16.4h-20.5
			V651z M352.3,627.2c-0.9,2.4-1.7,4.8-2.5,7.2c-1.5-0.7-2.7-1.9-3.5-3.3c-0.9-1.8-1.1-3.7-0.5-5.6c0.1-0.2,0.1-0.3,0.2-0.5
			L352.3,627.2z M347.2,651c2.2-8.2,4.8-16.4,7.7-24.5l56,24.5H347.2z M424.2,651h-9.6l-59.2-25.9c2.1-5.8,4.4-11.5,6.9-17.2
			l67.3,29.5C427.7,641.9,425.9,646.4,424.2,651z M418.7,631.8c0-0.1,0.1-0.2,0.2-0.4c0.8-1.7,2.3-3,4.2-3.7
			c1.9-0.6,3.9-0.5,5.8,0.4l-3.1,6.7L418.7,631.8z M452.9,595.8L452,597c-8.6,12.5-16.1,25.7-22.1,39.7l-4.1-1.8l3.2-6.8V628h-0.1
			c-1.9-0.9-4.1-1-6-0.4c-2,0.6-3.5,2-4.3,3.8c-0.1,0.1-0.1,0.2-0.2,0.4l-45.4-20c7.8-17.8,17.2-34.6,28.2-50.3l0.9-1.2
			c10.5-15,22.5-29,35.7-42l43.2,44.3C470.7,572.8,461.2,584,452.9,595.8z M481.6,562.1l-48.3-49.5c8.6-8.3,17.7-16.2,27.2-23.4
			l35.3,60.1C490.9,553.4,486.1,557.7,481.6,562.1z M519.8,531.8c-7.7,4.9-15.2,10.3-22.2,16l-35.7-60.7
			c21.3-16,44.6-29.2,69.3-39.2l26.3,64.6C544.4,517.7,531.8,524.2,519.8,531.8z M516,453.7c-0.7-1.8-0.8-3.7-0.2-5.5
			c0.6-1.9,2-3.4,3.7-4.2c0.2-0.1,0.3-0.1,0.5-0.2l3,6.7C520.7,451.5,518.3,452.6,516,453.7z M666.9,495.8
			c-18.8-1.6-37.7-1-56.3,1.9L599.8,429c15.3-2.4,31-3.5,46.5-3.5c6.8,0,13.8,0.2,20.6,0.7v-0.7L666.9,495.8L666.9,495.8z
			 M608.3,427.1l-0.8-7.3c0.2,0,0.3-0.1,0.5-0.1c1.9-0.2,3.8,0.4,5.3,1.7c1.4,1.2,2.4,2.9,2.7,4.8
			C613.4,426.4,610.8,426.7,608.3,427.1z M666.9,425.4c-6.9-0.5-13.8-0.7-20.7-0.7c-10,0-20.1,0.5-30.1,1.5c-0.3-2-1.3-3.7-2.7-5
			c-1.6-1.3-3.5-1.9-5.5-1.7c-0.2,0-0.4,0.1-0.6,0.1v0.1h-0.1l0.8,7.4c-2.9,0.4-5.9,0.8-8.8,1.2l-0.4,0.1l11,69.5
			c-17.7,2.8-35.1,7.6-51.7,14.3l-26.4-64.9l-0.1-0.3l-0.3,0.1c-2.7,1.1-5.3,2.2-8,3.4l-3.1-6.8l-0.1,0.1v-0.1
			c-0.2,0.1-0.4,0.1-0.6,0.2c-1.8,0.8-3.2,2.3-3.8,4.3c-0.6,1.8-0.5,3.8,0.2,5.7c-19.2,9-37.4,20-54.3,32.7l-11-18.7
			c13.3-9.9,27.5-18.8,42.2-26.6l-0.1-0.2l0.4-0.2L351.7,201.3l-0.1-0.2h-58l-7.1-12h57.9l-4.8-8.1l3.7-2.2h17.1V132h40.1
			c0.2,4.2,3.4,7.6,7.4,7.6c0.2,0,0.4,0,0.6,0v-0.1h0.1V132h53.3c0.2,4.2,3.4,7.6,7.4,7.6c0.2,0,0.4,0,0.6,0v-0.1h0.1V132h53.3
			c0.2,4.2,3.4,7.6,7.4,7.6c0.2,0,0.4,0,0.6,0v-0.1h0.1V132h18.4v-0.4h0.4v-5.4h6.5v7.5h0.1v0.1c0.2,0,0.4,0,0.6,0
			c4,0,7.2-3.4,7.4-7.6h6.5l-0.1,22.7h10.7V199h-63.8c-0.2-4.2-3.4-7.6-7.4-7.6c-0.2,0-0.4,0-0.6,0v0.1H510v7.5h-51.3v-7.5h-0.1
			v-0.1c-0.2,0-0.4,0-0.6,0c-4,0-7.2,3.4-7.4,7.6h-60.1v-0.8h-18.4l25.9,44.9h14.8L446,298h-14.7l22.5,39l0.5-0.3v0.1h9v2h-7.5v0.1
			h-0.1c0,0.2,0,0.4,0,0.6c0,4,3.4,7.2,7.6,7.4v1.6h0.1v1.9h13v25.7l32.7,56.5l0,0l0.1,0.3c3.7-1.7,7.6-3.4,11.4-5l0.3-0.2l-0.2-0.3
			c-0.6-1.2-1.1-2.4-1.6-3.6L538,417c0.4,1.1,0.8,2.1,1.4,3.1l0.1,0.3l11.1-3l1.9-5.3c0.9,0.3,1.8,0.4,2.8,0.4
			c2.8,0,5.4-1.3,7.1-3.2l4.5,3.7l11-3v-0.3c0-1.3-0.2-2.5-0.4-3.7l19.5-3.6c0.3,1.4,0.4,2.7,0.6,4.1v0.4l0.4-0.1
			c8.1-1.2,15.4-2.1,22.1-2.6h0.4l-4.1-53.6h11.2l-17.9-202.1l12.2,0.1L641,403.2h0.3l0,0c8.5-0.1,17.1,0.1,25.7,0.6L666.9,425.4
			L666.9,425.4z M383.2,200.6v11.8l-6.8-11.8H383.2z M463.3,339.1v7.7c-4.1-0.2-7.4-3.3-7.4-7.2c0-0.2,0-0.3,0-0.5H463.3z
			 M666.9,403.1c-8.4-0.5-16.9-0.7-25.3-0.6l-18.9-254.2V148l-13-0.2l-7.8-88h65V403.1z M670.7,417.2v-8.8h8.3c0,0.2,0,0.4,0,0.6
			C679,413.4,675.3,417,670.7,417.2z"/>
		<g>
			<rect x="181.1" y="545.2" class="wireColor" width="65.3" height="1"/>
		</g>
	</g>
</g>
<g id="eventSpot">
	<polygon id="informatorium" class="eventColor" points="173.4,421.5 272.2,421.5 272.2,505.8 265.2,505.8 265.2,505 173.4,505 	"/>
	<path id="sala121" class="eventColor" d="M666.9,495.8v-70.4v0.7c-6.8-0.5-13.8-0.7-20.6-0.7c-15.5,0-31.2,1.2-46.5,3.5l10.9,68.7
		C629.2,494.8,648.1,494.2,666.9,495.8z"/>
	<path id="sala122" class="eventColor" d="M557.5,512.4l-26.3-64.6c-24.7,10-48,23.2-69.3,39.2l35.7,60.7c7.1-5.8,14.5-11.1,22.2-16
		C531.8,524.2,544.4,517.7,557.5,512.4z"/>
	<path id="sala123" class="eventColor" d="M452.9,595.8c8.3-11.9,17.8-23,28.1-33.2l-43.2-44.3c-13.3,12.9-25.2,27-35.7,42l-0.9,1.2
		c-11,15.7-20.4,32.6-28.2,50.3l56.9,24.9c6.1-13.9,13.5-27.2,22.1-39.7L452.9,595.8z"/>
	<rect id="ss" x="3.8" y="581.6" class="eventColor" width="47.6" height="69.4"/>
	<polygon id="sala126" class="eventColor" points="439.5,453.7 419.8,420.1 415,422.9 375.1,422.9 375.1,505.4 383.5,505.4 	"/>
</g>
<g id="guideSpot">
	<circle id="BT-1-D17" class="wireColor" cx="597.5" cy="156.1" r="5.1"/>
	<circle id="BT-1-D16" class="wireColor" cx="239.3" cy="216.2" r="5.1"/>
	<circle id="BT-1-D15" class="wireColor" cx="250.4" cy="269.9" r="5.1"/>
	<circle id="BT-1-D14" class="wireColor" cx="296" cy="394.5" r="5.1"/>
	<circle id="BT-1-D13" class="wireColor" cx="339.4" cy="514.4" r="5.1"/>
	<circle id="BT-1-D12" class="wireColor" cx="339.6" cy="642.8" r="5.1"/>
	<circle id="BT-1-D11" class="wireColor" cx="541.4" cy="448.8" r="5.1"/>
</g>
</svg>
