<?xml version="1.0" encoding="utf-8"?>
<!-- Generator: Adobe Illustrator 20.0.0, SVG Export Plug-In . SVG Version: 6.00 Build 0)  -->
<svg version="1.1" id="Warstwa_1" xmlns="http://www.w3.org/2000/svg" xmlns:xlink="http://www.w3.org/1999/xlink" x="0px" y="0px"
	 viewBox="0 0 790.9 433.2" style="enable-background:new 0 0 790.9 433.2;" xml:space="preserve">
<style type="text/css">.wireColor{fill: #777777;}.nofloorColor{fill: #F2F2F2;}.arrowColor{fill: #EA5906;}.eventColor{opacity: 0.3; fill: #F59E16; transition: 1s fill;}.wcColor{opacity: 0.3; fill: #3693B2;}.stairsColor{opacity: 0.3; fill: #73cc15;}.transparentObject{fill: 0;}.riverColor{fill: #B9DDEF;}.mapElements{fill: #E2E2E2;}.tramColor{fill: #73CC15;}.mapArrows{fill: #BFBFBF;}.buildingFill{fill: #E5E5E5;}.eventColor.active{opacity: 0.3; fill: red; -webkit-animation: alertOpacity 2s infinite alternate; animation: alertOpacity 2s infinite alternate;}@-webkit-keyframes alertOpacity{0%{opacity: 0.3;}50%{opacity: 0.5;}100%{opacity: 0.3;}}@keyframes alertOpacity{0%{opacity: 0.3;}50%{opacity: 0.5;}100%{opacity: 0.3;}}#guideSpot .eventColor.active{fill: red; opacity: 1; r: 10; transform-origin: 150px 150px; -webkit-transform-origin: 50% 50%; -webkit-animation: alertScale 2s infinite alternate; animation: alertScale 2s infinite alternate;}@-webkit-keyframes alertScale{0%{-webkit-transform: scale(1, 1);}50%{-webkit-transform: scale(2, 2);}100%{-webkit-transform: scale(1, 1);}}@keyframes alertScale{0%{transform: scale(1, 1);}50%{transform: scale(2, 2);}100%{transform: scale(1, 1);}}</style>
<g id="description">
	<g>
		<path class="wireColor" d="M371.4,272h-2.2l-2-14.3h1.6l1.7,12.2l1.6-12.2h1.6l1.6,12.2l1.6-12.2h1.4l-1.9,14.3h-2.1l-1.4-9.7L371.4,272
			z"/>
		<path class="wireColor" d="M385.8,261.2v1.3h-1.5v-1.4c0-1.3-0.5-2.1-1.7-2.1c-1.1,0-1.7,0.8-1.7,2.1v7.6c0,1.3,0.5,2.1,1.7,2.1
			s1.7-0.8,1.7-2.1v-1.9h1.5v1.8c0,2.2-1,3.6-3.2,3.6s-3.2-1.4-3.2-3.6v-7.4c0-2.2,1-3.6,3.2-3.6S385.8,259,385.8,261.2z"/>
	</g>
	<g>
		<path class="wireColor" d="M32.5,210.5v-10.8h1.2v9.7h3.1v1.1H32.5z"/>
		<path class="wireColor" d="M38.9,208.4l-0.4,2.2h-1.1l2.1-10.8h1.7l2.1,10.8H42l-0.4-2.2H38.9z M39.1,207.3h2.4l-1.2-6.2L39.1,207.3z"/>
		<path class="wireColor" d="M46.6,199.7c1.7,0,2.3,0.8,2.3,2.4v0.5c0,1.1-0.3,1.8-1.3,2.1c1,0.3,1.4,1.1,1.4,2.3v0.9
			c0,1.6-0.8,2.5-2.5,2.5H44v-10.8h2.6V199.7z M46.3,204.3c1,0,1.4-0.3,1.4-1.4v-0.6c0-1-0.3-1.4-1.2-1.4h-1.2v3.5h1V204.3z
			 M46.7,209.4c0.9,0,1.3-0.5,1.3-1.5v-1c0-1.2-0.5-1.6-1.5-1.6h-1v4h1.2V209.4z"/>
		<path class="wireColor" d="M50.1,202.3c0-1.6,0.8-2.7,2.5-2.7s2.5,1.1,2.5,2.7v5.6c0,1.6-0.8,2.7-2.5,2.7c-1.6,0-2.5-1.1-2.5-2.7V202.3z
			 M51.3,208c0,1,0.4,1.6,1.3,1.6c0.9,0,1.3-0.6,1.3-1.6v-5.7c0-1-0.4-1.6-1.3-1.6c-0.9,0-1.3,0.6-1.3,1.6V208z"/>
		<path class="wireColor" d="M58.6,199.7c1.7,0,2.4,0.9,2.4,2.5v0.9c0,1.2-0.4,1.9-1.3,2.2c1,0.3,1.4,1.1,1.4,2.3v1.7c0,0.5,0,0.9,0.2,1.3
			H60c-0.1-0.3-0.2-0.6-0.2-1.3v-1.7c0-1.2-0.6-1.6-1.6-1.6h-0.8v4.6h-1.2v-10.8L58.6,199.7L58.6,199.7z M58.3,204.8
			c1,0,1.5-0.3,1.5-1.5v-1c0-1-0.4-1.5-1.2-1.5h-1.2v4H58.3z"/>
		<path class="wireColor" d="M63.5,208.4l-0.4,2.2H62l2.1-10.8h1.7l2.1,10.8h-1.2l-0.4-2.2H63.5z M63.7,207.3h2.4l-1.2-6.2L63.7,207.3z"/>
		<path class="wireColor" d="M70.4,210.5v-9.7h-2v-1.1h5.2v1.1h-2v9.7H70.4z"/>
		<path class="wireColor" d="M74.3,202.3c0-1.6,0.8-2.7,2.5-2.7s2.5,1.1,2.5,2.7v5.6c0,1.6-0.8,2.7-2.5,2.7c-1.6,0-2.5-1.1-2.5-2.7V202.3z
			 M75.5,208c0,1,0.4,1.6,1.3,1.6s1.3-0.6,1.3-1.6v-5.7c0-1-0.4-1.6-1.3-1.6s-1.3,0.6-1.3,1.6V208z"/>
		<path class="wireColor" d="M82.8,199.7c1.7,0,2.4,0.9,2.4,2.5v0.9c0,1.2-0.4,1.9-1.3,2.2c1,0.3,1.4,1.1,1.4,2.3v1.7c0,0.5,0,0.9,0.2,1.3
			h-1.2c-0.1-0.3-0.2-0.6-0.2-1.3v-1.7c0-1.2-0.6-1.6-1.6-1.6h-0.8v4.6h-1.2v-10.8L82.8,199.7L82.8,199.7z M82.5,204.8
			c1,0,1.5-0.3,1.5-1.5v-1c0-1-0.4-1.5-1.2-1.5h-1.2v4H82.5z"/>
		<path class="wireColor" d="M87.7,199.7v10.8h-1.2v-10.8H87.7z"/>
		<path class="wireColor" d="M90,208c0,1,0.4,1.6,1.3,1.6s1.2-0.6,1.2-1.6v-8.2h1.1v8.2c0,1.6-0.8,2.7-2.4,2.7s-2.4-1.1-2.4-2.7v-8.2H90
			V208z"/>
		<path class="wireColor" d="M98.8,210.5h-1.2l-1.8-8.6v8.6h-1v-10.8h1.7l1.8,8.6l1.7-8.6h1.7v10.8h-1.1v-8.7L98.8,210.5z"/>
		<path class="wireColor" d="M49.8,221.5c0-3.4,1.7-5.5,5-5.5c3.4,0,5.1,2.2,5.1,5.5v11.4c0,3.4-1.7,5.6-5.1,5.6c-3.4,0-5-2.2-5-5.6V221.5
			z M52.2,233.1c0,2,0.9,3.2,2.6,3.2c1.8,0,2.6-1.2,2.6-3.2v-11.7c0-2-0.8-3.2-2.6-3.2s-2.6,1.2-2.6,3.2V233.1z"/>
		<path class="wireColor" d="M62,221.5c0-3.4,1.7-5.5,5-5.5c3.4,0,5.1,2.2,5.1,5.5v11.4c0,3.4-1.7,5.6-5.1,5.6s-5-2.2-5-5.6V221.5z
			 M64.5,233.1c0,2,0.9,3.2,2.6,3.2c1.8,0,2.6-1.2,2.6-3.2v-11.7c0-2-0.8-3.2-2.6-3.2c-1.8,0-2.6,1.2-2.6,3.2V233.1z"/>
		<path class="wireColor" d="M84.4,221.5v11.3c0,3.5-1.6,5.7-5.1,5.7c-3.4,0-5-2.2-5-5.5v-0.4h2.3v0.6c0,2,0.9,3.2,2.6,3.2
			c1.9,0,2.7-1.2,2.7-3.5V228c-0.6,1.5-1.8,2.3-3.6,2.3c-2.8,0-4.1-2-4.1-5.2v-3.4c0-3.4,1.6-5.5,5-5.5
			C82.7,216,84.4,218.2,84.4,221.5z M76.7,221.4v3.3c0,2,0.9,3.2,2.6,3.2c1.8,0,2.6-1.2,2.6-3.2v-3.3c0-2-0.8-3.2-2.6-3.2
			S76.7,219.4,76.7,221.4z"/>
	</g>
	<g>
		<path class="wireColor" d="M407.4,272h-2.2l-2-14.3h1.6l1.7,12.2l1.6-12.2h1.6l1.6,12.2l1.6-12.2h1.4l-1.9,14.3h-2.1l-1.4-9.7L407.4,272
			z"/>
		<path class="wireColor" d="M421.8,261.2v1.3h-1.5v-1.4c0-1.3-0.5-2.1-1.7-2.1c-1.1,0-1.7,0.8-1.7,2.1v7.6c0,1.3,0.5,2.1,1.7,2.1
			s1.7-0.8,1.7-2.1v-1.9h1.5v1.8c0,2.2-1,3.6-3.2,3.6s-3.2-1.4-3.2-3.6v-7.4c0-2.2,1-3.6,3.2-3.6S421.8,259,421.8,261.2z"/>
	</g>
	<g>
		<g>
			<rect x="392.2" y="416.8" class="wireColor" width="35.2" height="1.5"/>
		</g>
		<g>
			<rect x="392.4" y="402.1" class="wireColor" width="26.4" height="1.5"/>
		</g>
		<g>
			<rect x="396.7" y="387.8" class="wireColor" width="0.8" height="15.1"/>
		</g>
		<g>
			<rect x="400" y="387.8" class="wireColor" width="0.8" height="15.1"/>
		</g>
		<g>
			<rect x="403.1" y="387.8" class="wireColor" width="0.8" height="15.1"/>
		</g>
		<g>
			<rect x="406.2" y="387.8" class="wireColor" width="0.8" height="15.1"/>
		</g>
		<g>
			<rect x="409.6" y="387.8" class="wireColor" width="0.8" height="15.1"/>
		</g>
		<g>
			<rect x="412.4" y="387.8" class="wireColor" width="0.8" height="15.1"/>
		</g>
		<g>
			<rect x="415.8" y="387.8" class="wireColor" width="0.8" height="15.1"/>
		</g>
		<g>
			<rect x="396.7" y="402.8" class="wireColor" width="0.8" height="15.1"/>
		</g>
		<g>
			<rect x="400" y="402.8" class="wireColor" width="0.8" height="15.1"/>
		</g>
		<g>
			<rect x="403.1" y="402.8" class="wireColor" width="0.8" height="15.1"/>
		</g>
		<g>
			<rect x="406.2" y="402.8" class="wireColor" width="0.8" height="15.1"/>
		</g>
		<g>
			<rect x="409.6" y="402.8" class="wireColor" width="0.8" height="15.1"/>
		</g>
		<g>
			<rect x="412.4" y="402.8" class="wireColor" width="0.8" height="15.1"/>
		</g>
		<g>
			<rect x="415.8" y="402.8" class="wireColor" width="0.8" height="15.1"/>
		</g>
	</g>
</g>
<g id="hotSpot">
	<polygon class="stairsColor" points="260.5,236.3 260.5,249.5 243.5,290.1 206.2,276.1 222.1,236.3 	"/>
	<rect x="358.4" y="249.4" class="wcColor" width="71.9" height="30.9"/>
	<polygon class="stairsColor" points="535.3,237.8 573.2,237.8 588.3,275.2 549.5,291.2 535.3,252.4 	"/>
	<polygon class="stairsColor" points="427.4,417.5 427.4,387.1 393.1,387.1 393.1,417.9 	"/>
	<rect x="373.7" y="218.4" class="stairsColor" width="42.5" height="14.7"/>
</g>
<g id="wire">
	<g>
		<path class="wireColor" d="M775.3,246.4v-63.3H617.1L170.7,0L96.5,185.9H17.6v35.5H0v28.1h17v46.1H2.2v111.9h118.5
			c1.4,0.3,130.8,24.6,239.8,24.6c6.8,0,13.5-0.1,20.2-0.3v1.5h59.6v-1.6c16.6-0.8,142.2-7.3,265.8-31.4l0.3-0.1V387l69-0.7v-2.7
			h15.5V246.4H775.3z M617.5,217.2v-13h4.5v-0.8h-4.5v-16.7h23.4v16.7h-4.4v0.8h4.4v18h82.2v14.6h-9.3v9.7h-13.6v-11.4H641v2.3
			H534.9v2.2c-4.2,0.2-7.6,3.7-7.6,7.9v0.1h7.6v1.4h-18.5v-0.4h-33.6v0.4h-52.1h-0.4H358v43.3h-15.6v-43.5h-63.2h-0.7h-17.3v-1.6
			h7.2V247c0-4.1-3.2-7.5-7.2-7.9v-3.6h-39.6l-4.8,12.2h-58v56.5v0.8v15h-30.2v-90.2h33.5v-24.6l-33.5-13.5V187h-0.1l10.9-29.3
			l19.1,8.1l-2.1,5.8l0.7,0.3l2.1-5.8l0.3,0.1l25.8-65.2l-0.3-0.1l9.6-22.3l23.3,9.4L186,168.6l-0.1,0.1V207l28.2,11h148v-29.5h90
			V218h64.2v-26.5h17v25.7H617.5z M742.6,247.9V295H642.5v-27.3h10V263h47.7v-8.5h12.7V248h2.4v-9.7h7.6v9.6L742.6,247.9
			L742.6,247.9z M724.4,246.4v-8.1h0.2v-16.1h18v24.2L724.4,246.4L724.4,246.4z M642.5,266.3v-29.7h56.2v10.7v0.8v13.6H651v4.7h-8.5
			V266.3z M700.2,253.8V248h12v5.8H700.2z M562.4,274.7l3.6,9.3l-1.6,0.6l-3.6-9.3L562.4,274.7z M559.4,274.2l-6.8-17.6l10.4-4.1
			l6.8,17.6L559.4,274.2z M563.1,274.4l1.7-0.7l3.6,9.2l-1.7,0.7L563.1,274.4z M565.5,273.5l1.7-0.7l3.6,9.2l-1.7,0.7L565.5,273.5z
			 M567.9,272.6l1.7-0.7l3.5,9.1l-1.7,0.7L567.9,272.6z M570.3,271.6l1.5-0.6l-0.5-1.3l12.4-4.8l4,10.1l-13.9,5.7L570.3,271.6z
			 M571,269l-0.7-1.7l12.4-4.8l0.7,1.7L571,269z M570.1,266.6l-0.7-1.7l12.4-4.8l0.7,1.7L570.1,266.6z M569.2,264.2l-0.7-1.7
			l12.3-4.8l0.7,1.7L569.2,264.2z M568.2,261.7l-0.7-1.7l12.3-4.8l0.7,1.7L568.2,261.7z M567.3,259.3l-0.7-1.7l12.3-4.8l0.7,1.7
			L567.3,259.3z M566.3,256.9l-0.7-1.7l12.3-4.8l0.7,1.7L566.3,256.9z M565.4,254.5l-0.7-1.8L577,248l0.7,1.8L565.4,254.5z
			 M564.4,252l-0.5-1.3l-13.2,5.1l0.5,1.3l-12,4.7l-3.5-9.5v-14.2h37.4l3.6,9.1L564.4,252z M551.5,257.9l0.7,1.8l-12.1,4.7l-0.6-1.8
			L551.5,257.9z M552.4,260.3l0.7,1.7l-12.1,4.7l-0.6-1.7L552.4,260.3z M553.4,262.7l0.7,1.7l-12.2,4.7l-0.6-1.7L553.4,262.7z
			 M554.3,265.2l0.7,1.7l-12.2,4.7l-0.6-1.7L554.3,265.2z M555.2,267.6l0.7,1.7l-12.3,4.8l-0.6-1.7L555.2,267.6z M556.2,270l0.7,1.7
			l-12.3,4.8l-0.6-1.7L556.2,270z M557.1,272.4l0.7,1.7l-12.4,4.8l-0.6-1.7L557.1,272.4z M558.1,274.8l0.5,1.3l1.5-0.6l3.6,9.3
			l-14,5.8l-4-11L558.1,274.8z M588.7,275.4l-14.9-37.3H641v57.3h-89.5l-1.5-4L588.7,275.4z M534.9,247.4h-7.4
			c0.1-4.1,3.3-7.4,7.4-7.6V247.4z M390.4,325v12.7h-31.2v-13h71.6v-30.5h31v43.6h-70.7V325H390.4z M390,279.9v-30.2h4.9l-0.3,30.2
			h-35.8v-30.2h30.5v30.2H390z M394.6,280.7v43.1h-35.4v-31.5h-0.4v-11.6H394.6z M411.3,266.9v-17.1H430V280h-34.6l0.3-30.2h14.9
			v16.4h-15v0.8h15.7V266.9z M430,280.7v43.1h-34.6v-43.1H430z M430.7,293.3v-43.5h52.1v43.4h-21.1v0.1H430.7z M463.3,294.7h20.3
			h0.8H515v42.5h-51.7V294.7z M484.4,293.2v-43.1H515v43.1H484.4z M340.9,293.8h0.8h16v43.8h-77.8l0.1-43.8H340.9z M280,292.3
			l0.1-42H341v42H280z M261.2,239.3c3.9,0.4,6.9,3.6,7,7.6h-7V239.3z M260.6,353.2h-13.1V405c-19.2-3-36-6.4-50.2-9.5v-40.3h40.1
			v-0.8h-40.1V320h-37.1v-14.2h45v-9.2h55.3v56.6H260.6z M261.4,354.7h90.7v60.4c-38.6-1.4-73.5-5.3-103.1-9.9v-50.5h11.6H261.4z
			 M96.8,273.6v-25.2H127v25.4H67.5v-0.4h-0.8v0.4h-5l11.7-25.4H96v25.2L96.8,273.6L96.8,273.6z M127,274.6v45.3H67.5v-45.3H127z
			 M60.9,273.8H20.7v-25.4h51.9L60.9,273.8z M66.7,274.6v21h-46v-21H66.7z M66.7,296.3v23.6h-46v-23.6H66.7z M127,321.4h0.8h31.7
			h0.8h35.6V395c-29.4-6.6-46.4-12.3-46.8-12.5l-0.3-0.1H20.7l0.1-61.1H127V321.4z M127,242.1c-3.9-0.4-6.9-3.6-7-7.6h7V242.1z
			 M127,228h-16.4v-39.5H127V228z M203.8,295v9.2h-43.5v-26.4h26.9v-28.6h29l-11,27.3l37.7,14.2l-1.8,4.4h-37.3V295z M160.2,277.1
			v-27.9h26.1v27.9H160.2z M226.2,262.6l-0.7,1.7l-11.9-4.6l0.7-1.7L226.2,262.6z M214.6,257.2l0.7-1.7l11.9,4.6l-0.7,1.7
			L214.6,257.2z M225.2,265l-0.7,1.7l-11.9-4.6l0.7-1.7L225.2,265z M224.3,267.4l-0.7,1.7l-12-4.6l0.7-1.7L224.3,267.4z
			 M223.4,269.8l-0.5,1.3l1.5,0.6l-3.5,9.1l-13.7-5.1l4.2-10.5L223.4,269.8z M225,272l1.6,0.6l-3.5,9.1l-1.6-0.6L225,272z
			 M227.3,272.9l1.7,0.7l-3.5,9l-1.7-0.6L227.3,272.9z M229.7,273.8l1.7,0.7l-3.5,9l-1.7-0.6L229.7,273.8z M232.1,274.7l1.7,0.6
			l-3.5,9l-1.7-0.6L232.1,274.7z M224.8,270.3l6.8-17.5l10.4,4l-6.8,17.5L224.8,270.3z M229.2,254.6l-11.8-4.6l0.3-0.8l0,0l0.4-0.9
			l11.8,4.6L229.2,254.6z M229,255.3l-0.7,1.7l-11.8-4.6l0.7-1.7L229,255.3z M228,257.7l-0.7,1.7l-11.9-4.6l0.7-1.7L228,257.7z
			 M231,284.6l3.5-9l1.5,0.6l0.5-1.3l11,4.3l-4.1,10.1L231,284.6z M236.8,274.2l0.7-1.7l11.1,4.3l-0.7,1.7L236.8,274.2z
			 M237.7,271.8l0.7-1.7l11.1,4.3l-0.7,1.7L237.7,271.8z M238.7,269.4l0.7-1.7l11.2,4.3l-0.7,1.7L238.7,269.4z M239.6,267l0.7-1.7
			l11.2,4.3l-0.7,1.7L239.6,267z M240.5,264.6l0.7-1.7l11.2,4.4l-0.7,1.7L240.5,264.6z M241.5,262.2l0.7-1.7l11.3,4.4l-0.7,1.7
			L241.5,262.2z M242.4,259.8l0.7-1.7l11.3,4.4l-0.7,1.7L242.4,259.8z M243.4,257.3l0.5-1.3l-13.2-5.1l-0.5,1.3l-11.8-4.6l4.2-10.6
			h37.1v12.3l-5,12.4L243.4,257.3z M128.5,228.3v-35l32,12.9v22.1H128.5z M240.1,216.5v-28h33.7v28h-59.3l-27-10.5v-17.5h51.1v28
			H240.1z M327.2,188.5v28h-52v-28h85.4v28h-31.9v-28H327.2z M306.7,187l13.3-32.9l45,17.9l-5.9,14.9h-52.4V187z M305.9,187h-53.4
			l20.9-51.4l45.9,18.3L305.9,187z M482.3,190.2V187h-28.6h-0.8H432v-6.3l11.6-29.1l71.3,28.2V190l0,0L482.3,190.2z M514.9,191.5v25
			h-32.6v-24.8L514.9,191.5z M480.8,188.5v28h-27.1v-28H480.8z M534.9,215.7v-24.2h22.2v24.2H534.9z M558.6,215.7v-24.2h26.6v24.2
			H558.6z M616,186.7v29h-29.3v-24.8l5.8-13.8L616,186.7z M591.1,176.5l-5.7,13.5h-50.6H534h-17.8v-11.2l-48.6-19.2l11.5-28.9
			L591.1,176.5z M478.6,130.3l-11.5,28.9l-22.9-9.1l11.7-29.2L478.6,130.3z M454.4,120.4l-24,60v6.5h-69.1h-0.8h-0.7l6.1-15.4
			l-93.1-37L251.6,187h-64.2v-18L228,65.9l43,16.8l0.7-1.9l144.7,59.1l12.8-29.8L454.4,120.4z M428.6,109.8L416.1,139l-77.2-31.5
			l11.7-29.6L428.6,109.8z M349.9,77.6l-11.7,29.6l-66.1-27l11.1-29.9L349.9,77.6z M172.7,4.9l109.1,44.7l-11.6,31.2l-43-16.8
			l-0.1,0.3L160,36.8L172.7,4.9z M159.7,37.5L226.9,65l-8.8,22.3L150.8,60L159.7,37.5z M150.5,60.8L180.7,73l-9.1,22.2l0.7,0.3
			l9.1-22.2l12.4,5l-9.6,22.3L141.6,83L150.5,60.8z M141,84.5l42.3,17.4L169.4,137l-42.6-16.8L141,84.5z M126.2,121.6l42.6,16.8
			l-10.2,25.8l-42.3-18L126.2,121.6z M115.8,147.7l22.9,9.7l-11,29.6h-27.6L115.8,147.7z M3.8,245.7v-20.6h17.6v-35.5h77.7l0.4-1.1
			h10.4v40.2H127v5.6h-7.2v0.1c0,4.1,3.2,7.5,7.2,7.9v4.6H20.8v-1.2H3.8z M380.7,431c-112.4,3.4-258.4-24-259.9-24.3H3V296.3h14
			l-0.1,90h131.3c6.1,2,101.7,32.8,232.4,33.1V431H380.7z M353.6,415.2v-60.5h22.9v60.9C368.7,415.6,361.1,415.4,353.6,415.2z
			 M436.5,429.4h-52.1v-13.7h-1.9c-1.5,0-3,0-4.5,0v-62.5H262.1V295h-19.3l6.2-15.3l0,0l0.3-0.7l0,0l0.7-1.7l0,0l0.1-0.3l10.9-26.8
			h17.5l-0.1,88.8h80.8v-0.7h31.2l0,0h0.8l0,0h70.7v0.4h54.7v-89h18.5v2.7l15.9,43.5l0.1,0.2H641v0.4h49.4v12.3h-158v30.1h4.8v15.3
			H393v33.6h33.7v30.4h9.9v11.2H436.5z M639.1,341.4V386c-10,2.5-28.3,6.8-50.9,11.4v-56.3h-0.8v56.4c-8.8,1.8-18.3,3.6-28.2,5.4
			v-20.7h-14.6v0.8h13.9v20.1c-7.1,1.3-14.5,2.5-21.9,3.7v-20.3h-0.8V407c-5.9,0.9-11.8,1.8-17.8,2.6v-27.2h7.7v-0.8h-8.4v28
			c-10.7,1.5-21.6,2.8-32.3,3.8v-57.7h53.7v-18.3h-4.8v-27.1h17.7v26.5H548v0.8h4.3v-27.2h138.1v73l-42.4,0.4h-0.2l-0.2,0.1
			c-0.2,0-2.9,0.8-7.6,1.9v-44.5h-0.9V341.4z M426.6,355.7v30.6h-32.2v-30.6H426.6z M438.4,415.7h-1.9v1.1h-8.4v-29.6v-0.8v-30.6
			h55.3v57.9C467.9,415,452.6,415.8,438.4,415.7z M705.6,399.5c-123.3,24-248.6,30.5-265.3,31.3v-11.4c0.4,0,0.8,0,1.2,0
			c83.6,0,200.8-30.3,206.8-31.8l57.3-0.6V399.5z M717.1,383.1l-25.2,0.3v-45.6h25.2V383.1z M717.1,337h-25.2v-26.7h25.2V337z
			 M771.6,382.5l-53,0.6v-74.2h-26.7v-12.3h79.7V382.5z M771.6,295h-27.5v-47.1h27.5V295z M744.1,246.4v-24.2h11.2v24.2H744.1z
			 M771.6,246.4h-14.8v-24.2h14.8V246.4z M771.6,220.7h-27.5h-0.8h-18.7h-0.8h-81.5v-33.9h31.5v33.9h1.5v-33.9h32.1v33.9h1.5v-33.9
			h62.6v33.9H771.6z M789.4,382.1h-14V247.9h14V382.1z"/>
		<path class="wireColor" d="M372.9,233.8h43.9v-16.2h-43.9V233.8z M395.5,219.1h19.8v13.2h-19.8V219.1z M374.4,219.1H394v13.2h-19.6
			V219.1z"/>

			<rect x="141.4" y="191" transform="matrix(0.3777 -0.9259 0.9259 0.3777 -84.4787 257.0876)" class="wireColor" width="15.2" height="0.7"/>
	</g>
</g>
<g id="eventSpot">
	<polygon id="laboratorium009" class="eventColor" points="99.5,188.5 99.1,189.6 21.3,189.6 21.3,225.1 3.8,225.1 3.8,245.7 20.8,245.7
		20.8,246.9 127,246.9 127,228.7 109.9,228.7 109.9,188.5 	"/>
</g>
<g id="guideSpot">
	<circle id="CMBIN--1-D-13" class="wireColor" cx="462.5" cy="241.8" r="5.1"/>
	<circle id="CMBIN--1-D-12" class="wireColor" cx="384.7" cy="400.2" r="5.1"/>
	<circle id="CMBIN--1-D-11" class="wireColor" cx="313" cy="241.8" r="5.1"/>
</g>
</svg>
