<?xml version="1.0" encoding="utf-8"?>
<!-- Generator: Adobe Illustrator 20.0.0, SVG Export Plug-In . SVG Version: 6.00 Build 0)  -->
<svg version="1.1" id="Warstwa_1" xmlns="http://www.w3.org/2000/svg" xmlns:xlink="http://www.w3.org/1999/xlink" x="0px" y="0px"
	 viewBox="0 0 796.9 433.1" style="enable-background:new 0 0 796.9 433.1;" xml:space="preserve">
<style type="text/css">.wireColor{fill: #777777;}.nofloorColor{fill: #F2F2F2;}.arrowColor{fill: #EA5906;}.eventColor{opacity: 0.3; fill: #F59E16; transition: 1s fill;}.wcColor{opacity: 0.3; fill: #3693B2;}.stairsColor{opacity: 0.3; fill: #73cc15;}.transparentObject{fill: 0;}.riverColor{fill: #B9DDEF;}.mapElements{fill: #E2E2E2;}.tramColor{fill: #73CC15;}.mapArrows{fill: #BFBFBF;}.buildingFill{fill: #E5E5E5;}.eventColor.active{opacity: 0.3; fill: red; -webkit-animation: alertOpacity 2s infinite alternate; animation: alertOpacity 2s infinite alternate;}@-webkit-keyframes alertOpacity{0%{opacity: 0.3;}50%{opacity: 0.5;}100%{opacity: 0.3;}}@keyframes alertOpacity{0%{opacity: 0.3;}50%{opacity: 0.5;}100%{opacity: 0.3;}}#guideSpot .eventColor.active{fill: red; opacity: 1; r: 10; transform-origin: 150px 150px; -webkit-transform-origin: 50% 50%; -webkit-animation: alertScale 2s infinite alternate; animation: alertScale 2s infinite alternate;}@-webkit-keyframes alertScale{0%{-webkit-transform: scale(1, 1);}50%{-webkit-transform: scale(2, 2);}100%{-webkit-transform: scale(1, 1);}}@keyframes alertScale{0%{transform: scale(1, 1);}50%{transform: scale(2, 2);}100%{transform: scale(1, 1);}}</style>
<g id="description">
	<g>
		<path class="wireColor" d="M130.2,161.6v0.2h-0.7v-0.2c0-0.6-0.2-1-0.8-1s-0.8,0.4-0.8,1c0,1.5,2.3,1.7,2.3,3.6c0,1-0.5,1.7-1.6,1.7
			s-1.5-0.7-1.5-1.7v-0.4h0.7v0.4c0,0.6,0.3,1,0.8,1s0.8-0.4,0.8-1c0-1.5-2.3-1.7-2.3-3.6c0-1.1,0.5-1.7,1.5-1.7
			C129.7,159.9,130.2,160.6,130.2,161.6z"/>
		<path class="wireColor" d="M131.6,165.5l-0.3,1.4h-0.7l1.3-6.9h1.1l1.3,6.9h-0.8l-0.3-1.4H131.6z M131.7,164.8h1.5l-0.8-4L131.7,164.8z"
			/>
		<path class="wireColor" d="M135,166.8V160h0.8v6.2h2v0.7L135,166.8L135,166.8z"/>
		<path class="wireColor" d="M139.1,165.5l-0.3,1.4h-0.7l1.3-6.9h1.1l1.3,6.9H141l-0.3-1.4H139.1z M139.2,164.8h1.5l-0.8-4L139.2,164.8z"
			/>
		<path class="wireColor" d="M128.7,172.2c-0.4,0.3-1,0.5-1.6,0.5v-1c1.2,0,1.7-0.7,2-1.5h0.9v11.5h-1.3V172.2z"/>
		<path class="wireColor" d="M134.2,172.2c-0.4,0.3-1,0.5-1.6,0.5v-1c1.2,0,1.7-0.7,2-1.5h0.9v11.5h-1.3L134.2,172.2L134.2,172.2z"/>
		<path class="wireColor" d="M137.3,172.9c0-1.8,0.9-2.9,2.6-2.9c1.8,0,2.6,1.1,2.6,2.9v5.9c0,1.8-0.9,2.9-2.6,2.9c-1.8,0-2.6-1.1-2.6-2.9
			V172.9z M138.6,178.9c0,1,0.4,1.7,1.4,1.7c0.9,0,1.4-0.6,1.4-1.7v-6.1c0-1-0.4-1.7-1.4-1.7c-0.9,0-1.4,0.6-1.4,1.7V178.9z"/>
	</g>
	<g>
		<path class="wireColor" d="M148.9,122v0.3h-1.1V122c0-0.9-0.3-1.4-1.1-1.4s-1.1,0.5-1.1,1.4c0,2.2,3.3,2.5,3.3,5.3
			c0,1.5-0.7,2.5-2.3,2.5s-2.2-1-2.2-2.5v-0.6h1v0.6c0,0.9,0.4,1.4,1.2,1.4s1.2-0.5,1.2-1.4c0-2.2-3.3-2.4-3.3-5.2
			c0-1.5,0.7-2.5,2.2-2.5C148.1,119.5,148.9,120.5,148.9,122z"/>
		<path class="wireColor" d="M151,127.6l-0.4,2h-1l1.9-10h1.6l1.9,10h-1.1l-0.4-2C153.5,127.6,151,127.6,151,127.6z M151.1,126.7h2.2
			l-1.1-5.8L151.1,126.7z"/>
		<path class="wireColor" d="M155.9,129.6v-10h1.1v9h2.9v1H155.9z"/>
		<path class="wireColor" d="M161.8,127.6l-0.4,2h-1l1.9-10h1.6l1.9,10h-1.1l-0.4-2C164.3,127.6,161.8,127.6,161.8,127.6z M161.9,126.7
			h2.2l-1.1-5.8L161.9,126.7z"/>
		<path class="wireColor" d="M146.1,137.4c-0.6,0.4-1.4,0.7-2.3,0.7v-1.5c1.8-0.1,2.4-1,2.8-2.2h1.3V151h-1.8V137.4z"/>
		<path class="wireColor" d="M150.6,138.4c0-2.5,1.3-4.2,3.8-4.2c2.6,0,3.8,1.6,3.8,4.2v8.6c0,2.5-1.3,4.2-3.8,4.2s-3.8-1.7-3.8-4.2V138.4
			z M152.4,147.1c0,1.5,0.6,2.4,2,2.4s2-0.9,2-2.4v-8.8c0-1.5-0.6-2.4-2-2.4c-1.3,0-2,0.9-2,2.4V147.1z"/>
		<path class="wireColor" d="M167.5,138.4v8.5c0,2.6-1.2,4.3-3.8,4.3c-2.5,0-3.8-1.6-3.8-4.2v-0.3h1.7v0.4c0,1.5,0.6,2.4,2,2.4
			s2-0.9,2-2.7v-3.7c-0.5,1.1-1.4,1.8-2.7,1.8c-2.1,0-3.1-1.5-3.1-3.9v-2.5c0-2.5,1.2-4.2,3.8-4.2
			C166.2,134.2,167.5,135.8,167.5,138.4z M161.7,138.3v2.5c0,1.5,0.6,2.4,2,2.4s2-0.9,2-2.4v-2.5c0-1.5-0.6-2.4-2-2.4
			C162.3,135.9,161.7,136.8,161.7,138.3z"/>
	</g>
	<g>
		<path class="wireColor" d="M166.4,79.4v0.3h-1.1v-0.3c0-0.9-0.3-1.4-1.1-1.4s-1.1,0.5-1.1,1.4c0,2.2,3.3,2.5,3.3,5.3
			c0,1.5-0.7,2.5-2.3,2.5s-2.2-1-2.2-2.5V84h1v0.6c0,0.9,0.4,1.4,1.2,1.4s1.2-0.5,1.2-1.4c0-2.2-3.3-2.4-3.3-5.2
			c0-1.5,0.7-2.5,2.2-2.5C165.6,76.9,166.4,77.9,166.4,79.4z"/>
		<path class="wireColor" d="M168.5,85l-0.4,2h-1l1.9-10h1.6l1.9,10h-1.1l-0.4-2H168.5z M168.6,84h2.2l-1.1-5.8L168.6,84z"/>
		<path class="wireColor" d="M173.3,87V77h1.1v9h2.9v1H173.3z"/>
		<path class="wireColor" d="M179.3,85l-0.4,2h-1l1.9-10h1.6l1.9,10h-1.1l-0.4-2H179.3z M179.4,84h2.2l-1.1-5.8L179.4,84z"/>
		<path class="wireColor" d="M163.6,94.7c-0.6,0.4-1.4,0.7-2.3,0.7v-1.5c1.8-0.1,2.4-1,2.8-2.2h1.3v16.6h-1.8V94.7z"/>
		<path class="wireColor" d="M168.1,95.7c0-2.5,1.3-4.2,3.8-4.2c2.6,0,3.8,1.6,3.8,4.2v8.6c0,2.5-1.3,4.2-3.8,4.2s-3.8-1.7-3.8-4.2V95.7z
			 M169.9,104.4c0,1.5,0.6,2.4,2,2.4s2-0.9,2-2.4v-8.8c0-1.5-0.6-2.4-2-2.4c-1.3,0-2,0.9-2,2.4V104.4z"/>
		<path class="wireColor" d="M185.1,95.7v0.5c0,1.7-0.6,2.9-1.9,3.4c1.4,0.5,1.9,1.9,1.9,3.5v1.2c0,2.6-1.3,4.2-3.9,4.2
			c-2.6,0-3.9-1.6-3.9-4.2v-1.2c0-1.7,0.5-2.9,1.9-3.5c-1.4-0.5-1.9-1.7-1.9-3.4v-0.5c0-2.6,1.4-4.1,3.9-4.1
			C183.7,91.6,185.1,93.1,185.1,95.7z M179.1,95.7v0.8c0,1.6,0.8,2.3,2.1,2.3s2.1-0.7,2.1-2.3v-0.8c0-1.7-0.8-2.5-2.1-2.5
			C179.8,93.2,179.1,94,179.1,95.7z M179.1,102.9v1.4c0,1.7,0.8,2.5,2.1,2.5s2.1-0.8,2.1-2.5v-1.4c0-1.6-0.7-2.4-2.1-2.4
			S179.1,101.3,179.1,102.9z"/>
	</g>
	<g>
		<path class="wireColor" d="M186.5,29.7V30h-1.1v-0.3c0-0.9-0.3-1.4-1.1-1.4s-1.1,0.5-1.1,1.4c0,2.2,3.3,2.5,3.3,5.3
			c0,1.5-0.7,2.5-2.3,2.5s-2.2-1-2.2-2.5v-0.6h1V35c0,0.9,0.4,1.4,1.2,1.4s1.2-0.5,1.2-1.4c0-2.2-3.3-2.4-3.3-5.2
			c0-1.5,0.7-2.5,2.2-2.5C185.8,27.2,186.5,28.2,186.5,29.7z"/>
		<path class="wireColor" d="M188.6,35.3l-0.4,2h-1l1.9-10h1.6l1.9,10h-1.1l-0.4-2H188.6z M188.8,34.3h2.2l-1.1-5.8L188.8,34.3z"/>
		<path class="wireColor" d="M193.5,37.3v-10h1.1v9h2.9v1H193.5z"/>
		<path class="wireColor" d="M199.4,35.3l-0.4,2h-1l1.9-10h1.6l1.9,10h-1.1l-0.4-2H199.4z M199.6,34.3h2.2l-1.1-5.8L199.6,34.3z"/>
		<path class="wireColor" d="M183.8,45.1c-0.6,0.4-1.4,0.7-2.3,0.7v-1.5c1.8-0.1,2.4-1,2.8-2.2h1.3v16.6h-1.8V45.1z"/>
		<path class="wireColor" d="M188.3,46.1c0-2.5,1.3-4.2,3.8-4.2c2.6,0,3.8,1.6,3.8,4.2v8.6c0,2.5-1.3,4.2-3.8,4.2s-3.8-1.7-3.8-4.2V46.1z
			 M190.1,54.8c0,1.5,0.6,2.4,2,2.4s2-0.9,2-2.4V46c0-1.5-0.6-2.4-2-2.4c-1.3,0-2,0.9-2,2.4V54.8z"/>
		<path class="wireColor" d="M203.2,43.7h-5.7V42h7.5v1.6l-4.3,15H199L203.2,43.7z"/>
	</g>
	<g id="arrowCW">
		<polygon class="arrowColor" points="74.7,214.8 51.4,201.3 51.4,207.6 30.8,207.5 30.7,221.8 51.3,221.9 51.3,228.2 		"/>
	</g>
	<g id="BTenter_1_">
		<path class="wireColor" d="M31.1,157.1H30l-1-7h0.8l0.8,6l0.8-5.9h0.8l0.8,6l0.8-6h0.7l-0.9,7h-1l-0.7-4.7L31.1,157.1z"/>
		<path class="wireColor" d="M37.5,153.2v0.7h-1.7v2.5h2.1v0.7H35v-7h2.9v0.7h-2.1v2.4L37.5,153.2L37.5,153.2z"/>
		<path class="wireColor" d="M38.4,156.3c0.1,0,0.3,0,0.4,0c0.5,0,0.8-0.3,0.8-1V150h0.8v5.3c0,1.3-0.6,1.7-1.5,1.7c-0.2,0-0.3,0-0.5,0
			V156.3z"/>
		<path class="wireColor" d="M44.2,151.7v0.2h-0.7v-0.2c0-0.6-0.2-1-0.8-1s-0.8,0.4-0.8,1c0,1.6,2.3,1.7,2.3,3.7c0,1.1-0.5,1.7-1.6,1.7
			s-1.6-0.7-1.6-1.7V155h0.7v0.4c0,0.6,0.3,1,0.8,1s0.8-0.4,0.8-1c0-1.6-2.3-1.7-2.3-3.7c0-1.1,0.5-1.7,1.5-1.7
			C43.7,150,44.2,150.7,44.2,151.7z M43.7,148.6l-0.9,1h-0.5l0.7-1H43.7z"/>
		<path class="wireColor" d="M48,151.8v0.6h-0.7v-0.7c0-0.6-0.3-1-0.8-1c-0.6,0-0.8,0.4-0.8,1v3.7c0,0.6,0.3,1,0.8,1c0.6,0,0.8-0.4,0.8-1
			v-0.9H48v0.9c0,1.1-0.5,1.8-1.6,1.8s-1.6-0.7-1.6-1.8v-3.6c0-1.1,0.5-1.8,1.6-1.8S48,150.7,48,151.8z"/>
		<path class="wireColor" d="M49.5,150.1v7h-0.8v-7H49.5z"/>
		<path class="wireColor" d="M52.8,153.2v0.7h-1.7v2.5h2.1v0.7h-2.9v-7h2.9v0.7h-2.1v2.4L52.8,153.2L52.8,153.2z"/>
		<path class="wireColor" d="M57.1,150.1c1.1,0,1.6,0.7,1.6,1.7v3.5c0,1.1-0.5,1.7-1.6,1.7h-1.6v-7h1.6V150.1z M57.1,156.3
			c0.6,0,0.8-0.4,0.8-1v-3.6c0-0.6-0.3-1-0.8-1h-0.8v5.6H57.1z"/>
		<path class="wireColor" d="M59.3,151.8c0-1.1,0.5-1.8,1.6-1.8s1.6,0.7,1.6,1.8v3.6c0,1.1-0.5,1.8-1.6,1.8s-1.6-0.7-1.6-1.8V151.8z
			 M60.1,155.4c0,0.6,0.3,1,0.8,1c0.6,0,0.8-0.4,0.8-1v-3.7c0-0.6-0.3-1-0.8-1c-0.6,0-0.8,0.4-0.8,1V155.4z"/>
		<path class="wireColor" d="M11.8,163.8v0.6h-0.7v-0.7c0-0.6-0.3-1-0.8-1c-0.6,0-0.8,0.4-0.8,1v3.7c0,0.6,0.3,1,0.8,1
			c0.6,0,0.8-0.4,0.8-1v-0.9h0.7v0.9c0,1.1-0.5,1.8-1.6,1.8s-1.6-0.7-1.6-1.8v-3.6c0-1.1,0.5-1.8,1.6-1.8S11.8,162.7,11.8,163.8z"/>
		<path class="wireColor" d="M15,165.2v0.7h-1.7v2.5h2.1v0.7h-2.9v-7h2.9v0.7h-2.1v2.4L15,165.2L15,165.2z"/>
		<path class="wireColor" d="M16.8,169.1h-0.7v-7h1l1.6,5.1v-5.1h0.7v7h-0.8l-1.8-5.7C16.8,163.4,16.8,169.1,16.8,169.1z"/>
		<path class="wireColor" d="M21.2,169.1v-6.3H20v-0.7h3.4v0.7H22v6.3H21.2z"/>
		<path class="wireColor" d="M25.4,162.1c1.1,0,1.6,0.6,1.6,1.6v0.6c0,0.8-0.3,1.2-0.9,1.4c0.6,0.2,0.9,0.7,0.9,1.5v1.1
			c0,0.3,0,0.6,0.1,0.8h-0.8c-0.1-0.2-0.1-0.4-0.1-0.8v-1.1c0-0.8-0.4-1-1-1h-0.5v3h-0.8v-7h1.5V162.1z M25.2,165.4c0.6,0,1-0.2,1-1
			v-0.7c0-0.6-0.2-1-0.8-1h-0.8v2.6L25.2,165.4L25.2,165.4z"/>
		<path class="wireColor" d="M28.5,167.4c0,0.6,0.3,1,0.8,1c0.6,0,0.8-0.4,0.8-1v-5.3h0.7v5.3c0,1.1-0.5,1.8-1.6,1.8s-1.6-0.7-1.6-1.8
			v-5.3h0.8v5.3H28.5z"/>
		<path class="wireColor" d="M34.2,169h-0.7l-1.2-5.6v5.6h-0.7v-7h1.1l1.1,5.6l1.1-5.6H36v7h-0.7v-5.6L34.2,169z"/>
		<path class="wireColor" d="M41,169h-0.7l-1.2-5.6v5.6h-0.7v-7h1.1l1.1,5.6l1.1-5.6h1.1v7h-0.7v-5.6L41,169z"/>
		<path class="wireColor" d="M46.2,165.2v0.7h-1.7v2.5h2.1v0.7h-2.9v-7h2.9v0.7h-2.1v2.4L46.2,165.2L46.2,165.2z"/>
		<path class="wireColor" d="M50.4,163.8v0.6h-0.7v-0.7c0-0.6-0.3-1-0.8-1c-0.6,0-0.8,0.4-0.8,1v3.7c0,0.6,0.3,1,0.8,1
			c0.6,0,0.8-0.4,0.8-1v-0.9h0.7v0.9c0,1.1-0.5,1.8-1.6,1.8s-1.6-0.7-1.6-1.8v-3.6c0-1.1,0.5-1.8,1.6-1.8S50.4,162.7,50.4,163.8z"/>
		<path class="wireColor" d="M51.9,165.9v3.1h-0.8v-7h0.8v3.1h1.7V162h0.8v7h-0.8v-3.1H51.9z"/>
		<path class="wireColor" d="M55.9,167.6l-0.3,1.4H55l1.3-7h1.1l1.3,7H58l-0.3-1.4H55.9z M56,167h1.6l-0.8-4L56,167z"/>
		<path class="wireColor" d="M60.4,169.1v-6.3h-1.3v-0.7h3.4v0.7h-1.3v6.3H60.4z"/>
		<path class="wireColor" d="M64.6,162.1c1.1,0,1.6,0.6,1.6,1.6v0.6c0,0.8-0.3,1.2-0.9,1.4c0.6,0.2,0.9,0.7,0.9,1.5v1.1
			c0,0.3,0,0.6,0.1,0.8h-0.8c-0.1-0.2-0.1-0.4-0.1-0.8v-1.1c0-0.8-0.4-1-1-1h-0.5v3H63v-7h1.6V162.1z M64.4,165.4c0.6,0,1-0.2,1-1
			v-0.7c0-0.6-0.2-1-0.8-1h-0.8v2.6L64.4,165.4L64.4,165.4z"/>
		<path class="wireColor" d="M66.9,163.8c0-1.1,0.5-1.8,1.6-1.8s1.6,0.7,1.6,1.8v3.6c0,1.1-0.5,1.8-1.6,1.8s-1.6-0.7-1.6-1.8V163.8z
			 M67.7,167.4c0,0.6,0.3,1,0.8,1c0.6,0,0.8-0.4,0.8-1v-3.7c0-0.6-0.3-1-0.8-1c-0.6,0-0.8,0.4-0.8,1V167.4z"/>
		<path class="wireColor" d="M71.5,169.1h-0.7v-7h1l1.6,5.1v-5.1h0.7v7h-0.8l-1.8-5.7C71.5,163.4,71.5,169.1,71.5,169.1z"/>
		<path class="wireColor" d="M75.7,162.1v7h-0.8v-7H75.7z"/>
		<path class="wireColor" d="M77.7,166l-0.4,0.7v2.3h-0.8v-7h0.8v3.4l1.9-3.4H80l-1.8,3.2L80,169h-0.8L77.7,166z"/>
		<path class="wireColor" d="M81.4,162.1v7h-0.8v-7H81.4z"/>
		<path class="wireColor" d="M82.5,169.1h-0.3v-1H83v0.9l-0.4,0.9h-0.3L82.5,169.1z"/>
		<path class="wireColor" d="M1.6,174.1c1.1,0,1.5,0.5,1.5,1.5v0.3c0,0.7-0.2,1.2-0.8,1.4c0.7,0.2,0.9,0.7,0.9,1.5v0.6
			c0,1-0.5,1.6-1.6,1.6H0v-7L1.6,174.1L1.6,174.1z M1.4,177c0.6,0,0.9-0.2,0.9-0.9v-0.4c0-0.6-0.2-0.9-0.8-0.9H0.8v2.3h0.6V177z
			 M1.6,180.3c0.6,0,0.8-0.3,0.8-0.9v-0.6c0-0.8-0.3-1-1-1H0.8v2.6h0.8V180.3z"/>
		<path class="wireColor" d="M4.7,174.1v7H3.9v-7H4.7z"/>
		<path class="wireColor" d="M5.4,175.8c0-1.1,0.5-1.8,1.6-1.8s1.6,0.7,1.6,1.8v3.6c0,1.1-0.5,1.8-1.6,1.8s-1.6-0.7-1.6-1.8
			C5.4,179.4,5.4,175.8,5.4,175.8z M6.2,179.4c0,0.6,0.3,1,0.8,1c0.6,0,0.8-0.4,0.8-1v-3.7c0-0.6-0.3-1-0.8-1c-0.6,0-0.8,0.4-0.8,1
			V179.4z"/>
		<path class="wireColor" d="M12,181h-0.7l-1.2-5.6v5.6H9.4v-7h1.1l1.1,5.6l1.1-5.6h1.1v7h-0.7v-5.6L12,181z"/>
		<path class="wireColor" d="M17.1,177.2v0.7h-1.7v2.5h2.1v0.7h-2.9v-7h2.9v0.7h-2.1v2.4L17.1,177.2L17.1,177.2z"/>
		<path class="wireColor" d="M21.3,175.8v0.6h-0.7v-0.7c0-0.6-0.3-1-0.8-1c-0.6,0-0.8,0.4-0.8,1v3.7c0,0.6,0.3,1,0.8,1
			c0.6,0,0.8-0.4,0.8-1v-0.9h0.7v0.9c0,1.1-0.5,1.8-1.6,1.8s-1.6-0.7-1.6-1.8v-3.6c0-1.1,0.5-1.8,1.6-1.8S21.3,174.7,21.3,175.8z"/>
		<path class="wireColor" d="M22.8,177.9v3.1H22v-7h0.8v3.1h1.7V174h0.8v7h-0.8v-3.1H22.8z"/>
		<path class="wireColor" d="M26.9,179.6l-0.3,1.4h-0.7l1.3-7h1.1l1.3,7h-0.8l-0.3-1.4H26.9z M27,179h1.6l-0.8-4L27,179z"/>
		<path class="wireColor" d="M31,181.1h-0.7v-7h1l1.6,5.1v-5.1h0.7v7h-0.8l-1.8-5.7V181.1z"/>
		<path class="wireColor" d="M35.2,174.1v7h-0.8v-7H35.2z"/>
		<path class="wireColor" d="M37.2,178l-0.4,0.7v2.3H36v-7h0.8v3.4l1.9-3.4h0.8l-1.8,3.2l1.8,3.8h-0.8L37.2,178z"/>
		<path class="wireColor" d="M40.9,174.1v7h-0.8v-7H40.9z"/>
		<path class="wireColor" d="M44,174.1v7h-0.8v-7H44z"/>
		<path class="wireColor" d="M47,181.1h-0.7v-7h1l1.6,5.1v-5.1h0.7v7h-0.8l-1.8-5.7V181.1z"/>
		<path class="wireColor" d="M51.2,179.6l-0.3,1.4h-0.7l1.3-7h1.1l1.3,7h-0.8l-0.3-1.4H51.2z M51.3,179h1.6l-0.8-4L51.3,179z"/>
		<path class="wireColor" d="M55.3,181.1h-0.7v-7h1l1.6,5.1v-5.1h0.7v7h-0.8l-1.8-5.7V181.1z"/>
		<path class="wireColor" d="M58.7,175.8c0-1.1,0.5-1.8,1.6-1.8s1.6,0.7,1.6,1.8v3.6c0,1.1-0.5,1.8-1.6,1.8s-1.6-0.7-1.6-1.8V175.8z
			 M59.4,179.4c0,0.6,0.3,1,0.8,1c0.6,0,0.8-0.4,0.8-1v-3.7c0-0.6-0.3-1-0.8-1c-0.6,0-0.8,0.4-0.8,1V179.4z"/>
		<path class="wireColor" d="M63.4,174.1v7h-0.8v-7H63.4z"/>
		<path class="wireColor" d="M64.9,181.1h-0.7v-7h1l1.6,5.1v-5.1h0.7v7h-0.8l-1.8-5.7C64.9,175.4,64.9,181.1,64.9,181.1z"/>
		<path class="wireColor" d="M71.4,181.1h-3.2v-0.7l2.4-5.6h-2.3v-0.7h3.1v0.7l-2.4,5.6h2.4V181.1z M70.2,172.7v0.9h-0.7v-0.9H70.2z"/>
		<path class="wireColor" d="M73.3,178.5l-1.5-4.5h0.8l1.1,3.4l1.1-3.4h0.7l-1.5,4.5v2.5h-0.8v-2.5H73.3z"/>
		<path class="wireColor" d="M76.8,181.1h-0.7v-7h1l1.6,5.1v-5.1h0.7v7h-0.8l-1.8-5.7C76.8,175.4,76.8,181.1,76.8,181.1z"/>
		<path class="wireColor" d="M81,174.1v7h-0.8v-7H81z"/>
		<path class="wireColor" d="M84.3,177.2v0.7h-1.7v2.5h2.1v0.7h-2.9v-7h2.9v0.7h-2.1v2.4L84.3,177.2L84.3,177.2z"/>
		<path class="wireColor" d="M87,174.1c1.1,0,1.6,0.6,1.6,1.6v0.6c0,0.8-0.3,1.2-0.9,1.4c0.6,0.2,0.9,0.7,0.9,1.5v1.1c0,0.3,0,0.6,0.1,0.8
			h-0.8c-0.1-0.2-0.1-0.4-0.1-0.8v-1.1c0-0.8-0.4-1-1-1h-0.5v3h-0.8v-7H87V174.1z M86.8,177.4c0.6,0,1-0.2,1-1v-0.7
			c0-0.6-0.2-1-0.8-1h-0.8v2.6L86.8,177.4L86.8,177.4z"/>
		<path class="wireColor" d="M90.1,174.1v7h-0.8v-7H90.1z"/>
		<path class="wireColor" d="M91.7,174.1v7h-0.8v-7H91.7z"/>
		<path class="wireColor" d="M19.1,185.6c-0.4,0-0.6,0.2-0.6,0.7v3.1c0,0.5,0.1,0.7,0.6,0.7h0.2v0.5H19c-0.9,0-1.2-0.4-1.2-1.2v-3.1
			c0-0.8,0.3-1.2,1.2-1.2h0.2v0.5H19.1z"/>
		<path class="wireColor" d="M20.9,186.4c0-0.9,0.4-1.4,1.3-1.4s1.3,0.6,1.3,1.4v2.9c0,0.8-0.4,1.4-1.3,1.4s-1.3-0.6-1.3-1.4V186.4z
			 M21.6,189.3c0,0.5,0.2,0.8,0.7,0.8s0.7-0.3,0.7-0.8v-3c0-0.5-0.2-0.8-0.7-0.8c-0.4,0-0.7,0.3-0.7,0.8V189.3z"/>
		<path class="wireColor" d="M25.4,185.1c0.9,0,1.3,0.5,1.3,1.4v2.8c0,0.9-0.4,1.4-1.3,1.4h-1.3v-5.6L25.4,185.1L25.4,185.1z M25.4,190.1
			c0.4,0,0.7-0.3,0.7-0.8v-2.9c0-0.5-0.2-0.8-0.7-0.8h-0.7v4.5H25.4z"/>
		<path class="wireColor" d="M30.9,186.4v0.2h-0.6v-0.2c0-0.5-0.2-0.8-0.6-0.8s-0.6,0.3-0.6,0.8c0,1.3,1.9,1.4,1.9,3
			c0,0.8-0.4,1.4-1.3,1.4s-1.3-0.6-1.3-1.4V189H29v0.4c0,0.5,0.2,0.8,0.7,0.8s0.7-0.3,0.7-0.8c0-1.2-1.9-1.4-1.9-2.9
			c0-0.9,0.4-1.4,1.2-1.4C30.5,185,30.9,185.6,30.9,186.4z"/>
		<path class="wireColor" d="M32.3,190.7v-5h-1v-0.6H34v0.6h-1v5H32.3z"/>
		<path class="wireColor" d="M35.6,185.1c0.9,0,1.2,0.4,1.2,1.3v0.5c0,0.6-0.2,1-0.7,1.2c0.5,0.2,0.7,0.6,0.7,1.2v0.9c0,0.2,0,0.5,0.1,0.7
			h-0.6c-0.1-0.2-0.1-0.3-0.1-0.7v-0.9c0-0.6-0.3-0.8-0.8-0.8H35v2.4h-0.6v-5.6h1.2V185.1z M35.5,187.7c0.5,0,0.8-0.2,0.8-0.8v-0.5
			c0-0.5-0.2-0.8-0.6-0.8H35v2.1H35.5z"/>
		<path class="wireColor" d="M37.5,186.4c0-0.9,0.4-1.4,1.3-1.4c0.9,0,1.3,0.6,1.3,1.4v2.9c0,0.8-0.4,1.4-1.3,1.4c-0.9,0-1.3-0.6-1.3-1.4
			V186.4z M38.1,189.3c0,0.5,0.2,0.8,0.7,0.8s0.7-0.3,0.7-0.8v-3c0-0.5-0.2-0.8-0.7-0.8c-0.4,0-0.7,0.3-0.7,0.8V189.3z"/>
		<path class="wireColor" d="M41.2,190.7h-0.6v-5.6h0.8l1.3,4v-4h0.6v5.6h-0.6l-1.4-4.5L41.2,190.7L41.2,190.7z"/>
		<path class="wireColor" d="M44.9,188.7l-1.2-3.6h0.6l0.9,2.8l0.9-2.8h0.6l-1.2,3.6v2h-0.6V188.7z"/>
		<path class="wireColor" d="M49.3,188.2l-0.3,0.6v1.9h-0.6v-5.6H49v2.7l1.5-2.7h0.6l-1.4,2.6l1.5,3h-0.6L49.3,188.2z"/>
		<path class="wireColor" d="M52.3,189.5l-0.2,1.1h-0.6l1.1-5.6h0.9l1.1,5.6H54l-0.2-1.1H52.3z M52.4,189h1.2l-0.6-3.2L52.4,189z"/>
		<path class="wireColor" d="M57.1,190.6h-0.6l-0.9-4.5v4.5H55V185h0.9l0.9,4.5l0.9-4.5h0.9v5.6H58v-4.5L57.1,190.6z"/>
		<path class="wireColor" d="M60.4,185.1c0.9,0,1.3,0.5,1.3,1.4v0.7c0,0.9-0.4,1.4-1.3,1.4h-0.6v2.2h-0.6v-5.6L60.4,185.1L60.4,185.1z
			 M60.4,187.9c0.5,0,0.7-0.2,0.7-0.8v-0.7c0-0.5-0.2-0.8-0.6-0.8h-0.6v2.3H60.4z"/>
		<path class="wireColor" d="M62.8,189.3c0,0.5,0.2,0.8,0.7,0.8c0.4,0,0.6-0.3,0.6-0.8V185h0.6v4.2c0,0.8-0.4,1.4-1.3,1.4
			c-0.9,0-1.2-0.6-1.2-1.4V185h0.6C62.8,185,62.8,189.3,62.8,189.3z"/>
		<path class="wireColor" d="M67.7,186.4v0.2h-0.6v-0.2c0-0.5-0.2-0.8-0.6-0.8s-0.6,0.3-0.6,0.8c0,1.3,1.9,1.4,1.9,3
			c0,0.8-0.4,1.4-1.3,1.4s-1.3-0.6-1.3-1.4V189h0.6v0.4c0,0.5,0.2,0.8,0.7,0.8s0.7-0.3,0.7-0.8c0-1.2-1.9-1.4-1.9-2.9
			c0-0.9,0.4-1.4,1.2-1.4C67.3,185,67.7,185.6,67.7,186.4z"/>
		<path class="wireColor" d="M68.9,189.3c0,0.5,0.2,0.8,0.7,0.8c0.4,0,0.6-0.3,0.6-0.8V185h0.6v4.2c0,0.8-0.4,1.4-1.3,1.4
			s-1.2-0.6-1.2-1.4V185h0.6C68.9,185,68.9,189.3,68.9,189.3z"/>
		<path class="wireColor" d="M72.7,185.1c0.9,0,1.2,0.4,1.2,1.2v3.1c0,0.8-0.3,1.2-1.2,1.2h-0.2v-0.5h0.2c0.4,0,0.6-0.2,0.6-0.7v-3.1
			c0-0.5-0.1-0.7-0.6-0.7h-0.2v-0.5H72.7z"/>
	</g>
	<g id="arrowCW_1_">
		<polygon class="arrowColor" points="753,216.8 776.3,230.3 776.3,224 796.9,224.1 796.9,209.8 776.3,209.7 776.4,203.4 		"/>
	</g>
	<g id="BTenter_2_">
		<path class="wireColor" d="M726.1,141.4H725l-1-7h0.8l0.8,6l0.8-5.9h0.8l0.8,6l0.8-6h0.7l-0.9,7h-1l-0.7-4.7L726.1,141.4z"/>
		<path class="wireColor" d="M732.5,137.5v0.7h-1.7v2.5h2.1v0.7H730v-7h2.9v0.7h-2.1v2.4L732.5,137.5L732.5,137.5z"/>
		<path class="wireColor" d="M733.4,140.7c0.1,0,0.3,0,0.4,0c0.5,0,0.8-0.3,0.8-1v-5.3h0.8v5.3c0,1.3-0.6,1.7-1.5,1.7c-0.2,0-0.3,0-0.5,0
			V140.7z"/>
		<path class="wireColor" d="M739.2,136.1v0.2h-0.7V136c0-0.6-0.2-1-0.8-1s-0.8,0.4-0.8,1c0,1.6,2.3,1.7,2.3,3.7c0,1.1-0.5,1.7-1.6,1.7
			s-1.6-0.7-1.6-1.7v-0.4h0.7v0.4c0,0.6,0.3,1,0.8,1s0.8-0.4,0.8-1c0-1.6-2.3-1.7-2.3-3.7c0-1.1,0.5-1.7,1.5-1.7
			C738.7,134.3,739.2,135,739.2,136.1z M738.7,133l-0.9,1h-0.5l0.7-1H738.7z"/>
		<path class="wireColor" d="M743,136.1v0.6h-0.7V136c0-0.6-0.3-1-0.8-1c-0.6,0-0.8,0.4-0.8,1v3.7c0,0.6,0.3,1,0.8,1c0.6,0,0.8-0.4,0.8-1
			v-0.9h0.7v0.9c0,1.1-0.5,1.8-1.6,1.8s-1.6-0.7-1.6-1.8v-3.6c0-1.1,0.5-1.8,1.6-1.8S743,135,743,136.1z"/>
		<path class="wireColor" d="M744.5,134.4v7h-0.8v-7H744.5z"/>
		<path class="wireColor" d="M747.8,137.5v0.7h-1.7v2.5h2.1v0.7h-2.9v-7h2.9v0.7h-2.1v2.4L747.8,137.5L747.8,137.5z"/>
		<path class="wireColor" d="M752.1,134.4c1.1,0,1.6,0.7,1.6,1.7v3.5c0,1.1-0.5,1.7-1.6,1.7h-1.6v-7h1.6V134.4z M752.1,140.7
			c0.6,0,0.8-0.4,0.8-1v-3.6c0-0.6-0.3-1-0.8-1h-0.8v5.6H752.1z"/>
		<path class="wireColor" d="M754.3,136.1c0-1.1,0.5-1.8,1.6-1.8s1.6,0.7,1.6,1.8v3.6c0,1.1-0.5,1.8-1.6,1.8s-1.6-0.7-1.6-1.8V136.1z
			 M755.1,139.8c0,0.6,0.3,1,0.8,1c0.6,0,0.8-0.4,0.8-1v-3.7c0-0.6-0.3-1-0.8-1c-0.6,0-0.8,0.4-0.8,1V139.8z"/>
		<path class="wireColor" d="M706.8,148.1v0.6h-0.7V148c0-0.6-0.3-1-0.8-1c-0.6,0-0.8,0.4-0.8,1v3.7c0,0.6,0.3,1,0.8,1
			c0.6,0,0.8-0.4,0.8-1v-0.9h0.7v0.9c0,1.1-0.5,1.8-1.6,1.8s-1.6-0.7-1.6-1.8v-3.6c0-1.1,0.5-1.8,1.6-1.8S706.8,147,706.8,148.1z"/>
		<path class="wireColor" d="M710,149.5v0.7h-1.7v2.5h2.1v0.7h-2.9v-7h2.9v0.7h-2.1v2.4L710,149.5L710,149.5z"/>
		<path class="wireColor" d="M711.8,153.4h-0.7v-7h1l1.6,5.1v-5.1h0.7v7h-0.8l-1.8-5.7V153.4z"/>
		<path class="wireColor" d="M716.2,153.4v-6.3H715v-0.7h3.4v0.7H717v6.3H716.2z"/>
		<path class="wireColor" d="M720.4,146.4c1.1,0,1.6,0.6,1.6,1.6v0.6c0,0.8-0.3,1.2-0.9,1.4c0.6,0.2,0.9,0.7,0.9,1.5v1.1
			c0,0.3,0,0.6,0.1,0.8h-0.8c-0.1-0.2-0.1-0.4-0.1-0.8v-1.1c0-0.8-0.4-1-1-1h-0.5v3h-0.8v-7h1.5V146.4z M720.2,149.7
			c0.6,0,1-0.2,1-1V148c0-0.6-0.2-1-0.8-1h-0.8v2.6L720.2,149.7L720.2,149.7z"/>
		<path class="wireColor" d="M723.5,151.8c0,0.6,0.3,1,0.8,1c0.6,0,0.8-0.4,0.8-1v-5.3h0.7v5.3c0,1.1-0.5,1.8-1.6,1.8s-1.6-0.7-1.6-1.8
			v-5.3h0.8L723.5,151.8L723.5,151.8z"/>
		<path class="wireColor" d="M729.2,153.4h-0.8l-1.2-5.6v5.6h-0.7v-7h1.1l1.1,5.6l1.1-5.6h1.1v7h-0.7v-5.6L729.2,153.4z"/>
		<path class="wireColor" d="M736,153.4h-0.7l-1.2-5.6v5.6h-0.7v-7h1.1l1.1,5.6l1.1-5.6h1.1v7h-0.7v-5.6L736,153.4z"/>
		<path class="wireColor" d="M741.2,149.5v0.7h-1.7v2.5h2.1v0.7h-2.9v-7h2.9v0.7h-2.1v2.4L741.2,149.5L741.2,149.5z"/>
		<path class="wireColor" d="M745.4,148.1v0.6h-0.7V148c0-0.6-0.3-1-0.8-1c-0.6,0-0.8,0.4-0.8,1v3.7c0,0.6,0.3,1,0.8,1
			c0.6,0,0.8-0.4,0.8-1v-0.9h0.7v0.9c0,1.1-0.5,1.8-1.6,1.8s-1.6-0.7-1.6-1.8v-3.6c0-1.1,0.5-1.8,1.6-1.8S745.4,147,745.4,148.1z"/>
		<path class="wireColor" d="M746.9,150.3v3.1h-0.8v-7h0.8v3.1h1.7v-3.1h0.8v7h-0.8v-3.1H746.9z"/>
		<path class="wireColor" d="M750.9,152l-0.3,1.4H750l1.3-7h1.1l1.3,7H753l-0.3-1.4H750.9z M751,151.3h1.6l-0.8-4L751,151.3z"/>
		<path class="wireColor" d="M755.4,153.4v-6.3h-1.3v-0.7h3.4v0.7h-1.3v6.3H755.4z"/>
		<path class="wireColor" d="M759.6,146.4c1.1,0,1.6,0.6,1.6,1.6v0.6c0,0.8-0.3,1.2-0.9,1.4c0.6,0.2,0.9,0.7,0.9,1.5v1.1
			c0,0.3,0,0.6,0.1,0.8h-0.8c-0.1-0.2-0.1-0.4-0.1-0.8v-1.1c0-0.8-0.4-1-1-1h-0.5v3H758v-7h1.6V146.4z M759.4,149.7c0.6,0,1-0.2,1-1
			V148c0-0.6-0.2-1-0.8-1h-0.8v2.6L759.4,149.7L759.4,149.7z"/>
		<path class="wireColor" d="M761.9,148.1c0-1.1,0.5-1.8,1.6-1.8s1.6,0.7,1.6,1.8v3.6c0,1.1-0.5,1.8-1.6,1.8s-1.6-0.7-1.6-1.8V148.1z
			 M762.7,151.8c0,0.6,0.3,1,0.8,1c0.6,0,0.8-0.4,0.8-1v-3.7c0-0.6-0.3-1-0.8-1c-0.6,0-0.8,0.4-0.8,1V151.8z"/>
		<path class="wireColor" d="M766.5,153.4h-0.7v-7h1l1.6,5.1v-5.1h0.7v7h-0.8l-1.8-5.7V153.4z"/>
		<path class="wireColor" d="M770.7,146.4v7h-0.8v-7H770.7z"/>
		<path class="wireColor" d="M772.7,150.4l-0.4,0.7v2.3h-0.8v-7h0.8v3.4l1.9-3.4h0.8l-1.8,3.2l1.8,3.8h-0.8L772.7,150.4z"/>
		<path class="wireColor" d="M776.4,146.4v7h-0.8v-7H776.4z"/>
		<path class="wireColor" d="M777.5,153.4h-0.3v-1h0.8v0.9l-0.4,0.9h-0.3L777.5,153.4z"/>
		<path class="wireColor" d="M696.6,158.4c1.1,0,1.5,0.5,1.5,1.5v0.3c0,0.7-0.2,1.2-0.8,1.4c0.7,0.2,0.9,0.7,0.9,1.5v0.6
			c0,1-0.5,1.6-1.6,1.6H695v-7L696.6,158.4L696.6,158.4z M696.4,161.4c0.6,0,0.9-0.2,0.9-0.9V160c0-0.6-0.2-0.9-0.8-0.9h-0.8v2.3
			L696.4,161.4L696.4,161.4z M696.6,164.7c0.6,0,0.8-0.3,0.8-0.9v-0.6c0-0.8-0.3-1-1-1h-0.7v2.6h0.9V164.7z"/>
		<path class="wireColor" d="M699.7,158.4v7h-0.8v-7H699.7z"/>
		<path class="wireColor" d="M700.4,160.1c0-1.1,0.5-1.8,1.6-1.8s1.6,0.7,1.6,1.8v3.6c0,1.1-0.5,1.8-1.6,1.8s-1.6-0.7-1.6-1.8V160.1z
			 M701.2,163.8c0,0.6,0.3,1,0.8,1c0.6,0,0.8-0.4,0.8-1v-3.7c0-0.6-0.3-1-0.8-1c-0.6,0-0.8,0.4-0.8,1V163.8z"/>
		<path class="wireColor" d="M707,165.4h-0.7l-1.2-5.6v5.6h-0.7v-7h1.1l1.1,5.6l1.1-5.6h1.1v7h-0.7v-5.6L707,165.4z"/>
		<path class="wireColor" d="M712.1,161.5v0.7h-1.7v2.5h2.1v0.7h-2.9v-7h2.9v0.7h-2.1v2.4L712.1,161.5L712.1,161.5z"/>
		<path class="wireColor" d="M716.3,160.1v0.6h-0.7V160c0-0.6-0.3-1-0.8-1c-0.6,0-0.8,0.4-0.8,1v3.7c0,0.6,0.3,1,0.8,1
			c0.6,0,0.8-0.4,0.8-1v-0.9h0.7v0.9c0,1.1-0.5,1.8-1.6,1.8s-1.6-0.7-1.6-1.8v-3.6c0-1.1,0.5-1.8,1.6-1.8S716.3,159,716.3,160.1z"/>
		<path class="wireColor" d="M717.8,162.3v3.1H717v-7h0.8v3.1h1.7v-3.1h0.8v7h-0.8v-3.1H717.8z"/>
		<path class="wireColor" d="M721.9,164l-0.3,1.4h-0.7l1.3-7h1.1l1.3,7h-0.8l-0.3-1.4H721.9z M722,163.3h1.6l-0.8-4L722,163.3z"/>
		<path class="wireColor" d="M726,165.4h-0.7v-7h1l1.6,5.1v-5.1h0.7v7h-0.8l-1.8-5.7V165.4z"/>
		<path class="wireColor" d="M730.2,158.4v7h-0.8v-7H730.2z"/>
		<path class="wireColor" d="M732.2,162.4l-0.4,0.7v2.3H731v-7h0.8v3.4l1.9-3.4h0.8l-1.8,3.2l1.8,3.8h-0.8L732.2,162.4z"/>
		<path class="wireColor" d="M735.9,158.4v7h-0.8v-7H735.9z"/>
		<path class="wireColor" d="M739,158.4v7h-0.8v-7H739z"/>
		<path class="wireColor" d="M742,165.4h-0.7v-7h1l1.6,5.1v-5.1h0.7v7h-0.8l-1.8-5.7V165.4z"/>
		<path class="wireColor" d="M746.2,164l-0.3,1.4h-0.7l1.3-7h1.1l1.3,7h-0.8L748,164H746.2z M746.3,163.3h1.6l-0.8-4L746.3,163.3z"/>
		<path class="wireColor" d="M750.3,165.4h-0.7v-7h1l1.6,5.1v-5.1h0.7v7h-0.8l-1.8-5.7V165.4z"/>
		<path class="wireColor" d="M753.7,160.1c0-1.1,0.5-1.8,1.6-1.8s1.6,0.7,1.6,1.8v3.6c0,1.1-0.5,1.8-1.6,1.8s-1.6-0.7-1.6-1.8V160.1z
			 M754.4,163.8c0,0.6,0.3,1,0.8,1c0.6,0,0.8-0.4,0.8-1v-3.7c0-0.6-0.3-1-0.8-1c-0.6,0-0.8,0.4-0.8,1V163.8z"/>
		<path class="wireColor" d="M758.4,158.4v7h-0.8v-7H758.4z"/>
		<path class="wireColor" d="M759.9,165.4h-0.7v-7h1l1.6,5.1v-5.1h0.7v7h-0.8l-1.8-5.7V165.4z"/>
		<path class="wireColor" d="M766.4,165.4h-3.2v-0.7l2.4-5.6h-2.3v-0.7h3.1v0.7l-2.4,5.6h2.4V165.4z M765.2,157.1v0.9h-0.7v-0.9H765.2z"/>
		<path class="wireColor" d="M768.3,162.9l-1.5-4.5h0.8l1.1,3.4l1.1-3.4h0.7l-1.5,4.5v2.5h-0.8v-2.5H768.3z"/>
		<path class="wireColor" d="M771.8,165.4h-0.7v-7h1l1.6,5.1v-5.1h0.7v7h-0.8l-1.8-5.7V165.4z"/>
		<path class="wireColor" d="M776,158.4v7h-0.8v-7H776z"/>
		<path class="wireColor" d="M779.3,161.5v0.7h-1.7v2.5h2.1v0.7h-2.9v-7h2.9v0.7h-2.1v2.4L779.3,161.5L779.3,161.5z"/>
		<path class="wireColor" d="M782,158.4c1.1,0,1.6,0.6,1.6,1.6v0.6c0,0.8-0.3,1.2-0.9,1.4c0.6,0.2,0.9,0.7,0.9,1.5v1.1
			c0,0.3,0,0.6,0.1,0.8h-0.8c-0.1-0.2-0.1-0.4-0.1-0.8v-1.1c0-0.8-0.4-1-1-1h-0.5v3h-0.8v-7h1.5V158.4z M781.8,161.7
			c0.6,0,1-0.2,1-1V160c0-0.6-0.2-1-0.8-1h-0.8v2.6L781.8,161.7L781.8,161.7z"/>
		<path class="wireColor" d="M785.1,158.4v7h-0.8v-7H785.1z"/>
		<path class="wireColor" d="M786.7,158.4v7h-0.8v-7H786.7z"/>
		<path class="wireColor" d="M705.1,169.9c-0.4,0-0.6,0.2-0.6,0.7v3.1c0,0.5,0.1,0.7,0.6,0.7h0.2v0.5h-0.2c-0.9,0-1.2-0.4-1.2-1.2v-3.1
			c0-0.8,0.3-1.2,1.2-1.2h0.2v0.5H705.1z"/>
		<path class="wireColor" d="M707,170.8c0-0.9,0.4-1.4,1.3-1.4c0.9,0,1.3,0.6,1.3,1.4v2.9c0,0.8-0.4,1.4-1.3,1.4c-0.9,0-1.3-0.6-1.3-1.4
			V170.8z M707.6,173.7c0,0.5,0.2,0.8,0.7,0.8s0.7-0.3,0.7-0.8v-3c0-0.5-0.2-0.8-0.7-0.8c-0.4,0-0.7,0.3-0.7,0.8V173.7z"/>
		<path class="wireColor" d="M711.5,169.4c0.9,0,1.3,0.5,1.3,1.4v2.8c0,0.9-0.4,1.4-1.3,1.4h-1.3v-5.6L711.5,169.4L711.5,169.4z
			 M711.5,174.4c0.4,0,0.7-0.3,0.7-0.8v-2.9c0-0.5-0.2-0.8-0.7-0.8h-0.7v4.5H711.5z"/>
		<path class="wireColor" d="M717,170.8v0.2h-0.6v-0.2c0-0.5-0.2-0.8-0.6-0.8c-0.4,0-0.6,0.3-0.6,0.8c0,1.3,1.9,1.4,1.9,3
			c0,0.8-0.4,1.4-1.3,1.4s-1.3-0.6-1.3-1.4v-0.3h0.6v0.4c0,0.5,0.2,0.8,0.7,0.8c0.4,0,0.7-0.3,0.7-0.8c0-1.2-1.9-1.4-1.9-2.9
			c0-0.9,0.4-1.4,1.2-1.4C716.6,169.4,717,169.9,717,170.8z"/>
		<path class="wireColor" d="M718.4,175v-5h-1v-0.6h2.7v0.6h-1v5H718.4z"/>
		<path class="wireColor" d="M721.7,169.4c0.9,0,1.2,0.4,1.2,1.3v0.5c0,0.6-0.2,1-0.7,1.2c0.5,0.2,0.7,0.6,0.7,1.2v0.9
			c0,0.2,0,0.5,0.1,0.7h-0.6c-0.1-0.2-0.1-0.3-0.1-0.7v-0.9c0-0.6-0.3-0.8-0.8-0.8h-0.4v2.4h-0.6v-5.6h1.2V169.4z M721.5,172
			c0.5,0,0.8-0.2,0.8-0.8v-0.5c0-0.5-0.2-0.8-0.6-0.8h-0.6v2.1H721.5z"/>
		<path class="wireColor" d="M723.6,170.8c0-0.9,0.4-1.4,1.3-1.4c0.9,0,1.3,0.6,1.3,1.4v2.9c0,0.8-0.4,1.4-1.3,1.4c-0.9,0-1.3-0.6-1.3-1.4
			V170.8z M724.2,173.7c0,0.5,0.2,0.8,0.7,0.8s0.7-0.3,0.7-0.8v-3c0-0.5-0.2-0.8-0.7-0.8c-0.4,0-0.7,0.3-0.7,0.8V173.7z"/>
		<path class="wireColor" d="M727.3,175h-0.6v-5.6h0.8l1.3,4v-4h0.6v5.6h-0.6l-1.4-4.5L727.3,175L727.3,175z"/>
		<path class="wireColor" d="M731,173l-1.2-3.6h0.6l0.9,2.8l0.9-2.8h0.6l-1.2,3.6v2H731V173z"/>
		<path class="wireColor" d="M735.1,173.7c0,0.5,0.2,0.8,0.7,0.8c0.4,0,0.6-0.3,0.6-0.8v-4.3h0.6v4.2c0,0.8-0.4,1.4-1.3,1.4
			c-0.9,0-1.2-0.6-1.2-1.4v-4.2h0.6L735.1,173.7L735.1,173.7z"/>
		<path class="wireColor" d="M737.6,175v-5.6h0.6v5h1.6v0.6H737.6z"/>
		<path class="wireColor" d="M740.9,174.2v0.8h-0.6v-0.8H740.9z"/>
		<path class="wireColor" d="M744,169.4c0.9,0,1.2,0.4,1.2,1.2v0.3c0,0.6-0.2,1-0.7,1.1c0.5,0.2,0.8,0.6,0.8,1.2v0.5
			c0,0.8-0.4,1.3-1.3,1.3h-1.3v-5.6H744z M743.9,171.8c0.5,0,0.8-0.2,0.8-0.7v-0.3c0-0.5-0.2-0.7-0.6-0.7h-0.6v1.8h0.4V171.8z
			 M744,174.4c0.5,0,0.7-0.2,0.7-0.8v-0.5c0-0.6-0.2-0.8-0.8-0.8h-0.5v2.1H744z"/>
		<path class="wireColor" d="M747.9,171.9v0.6h-1.4v2h1.7v0.6h-2.3v-5.6h2.3v0.6h-1.7v1.9h1.4V171.9z"/>
		<path class="wireColor" d="M750,169.4c0.9,0,1.2,0.4,1.2,1.3v0.5c0,0.6-0.2,1-0.7,1.2c0.5,0.2,0.7,0.6,0.7,1.2v0.9c0,0.2,0,0.5,0.1,0.7
			h-0.6c-0.1-0.2-0.1-0.3-0.1-0.7v-0.9c0-0.6-0.3-0.8-0.8-0.8h-0.4v2.4h-0.6v-5.6h1.2V169.4z M749.9,172c0.5,0,0.8-0.2,0.8-0.8v-0.5
			c0-0.5-0.2-0.8-0.6-0.8h-0.6v2.1H749.9z"/>
		<path class="wireColor" d="M753.2,169.4c0.9,0,1.3,0.5,1.3,1.4v2.8c0,0.9-0.4,1.4-1.3,1.4h-1.3v-5.6L753.2,169.4L753.2,169.4z
			 M753.2,174.4c0.4,0,0.7-0.3,0.7-0.8v-2.9c0-0.5-0.2-0.8-0.7-0.8h-0.7v4.5H753.2z"/>
		<path class="wireColor" d="M756,173l-1.2-3.6h0.6l0.9,2.8l0.9-2.8h0.6l-1.2,3.6v2H756V173z"/>
		<path class="wireColor" d="M760.6,170.8v0.5H760v-0.5c0-0.5-0.2-0.8-0.7-0.8c-0.4,0-0.7,0.3-0.7,0.8v3c0,0.5,0.2,0.8,0.7,0.8
			s0.7-0.3,0.7-0.8V173h0.6v0.7c0,0.8-0.4,1.4-1.3,1.4c-0.9,0-1.3-0.6-1.3-1.4v-2.9c0-0.8,0.4-1.4,1.3-1.4
			C760.2,169.4,760.6,169.9,760.6,170.8z"/>
		<path class="wireColor" d="M761.8,172.5v2.5h-0.6v-5.6h0.6v2.5h1.4v-2.5h0.6v5.6h-0.6v-2.5H761.8z"/>
		<path class="wireColor" d="M764.3,170.8c0-0.9,0.4-1.4,1.3-1.4c0.9,0,1.3,0.6,1.3,1.4v2.9c0,0.8-0.4,1.4-1.3,1.4c-0.9,0-1.3-0.6-1.3-1.4
			V170.8z M765,173.7c0,0.5,0.2,0.8,0.7,0.8s0.7-0.3,0.7-0.8v-3c0-0.5-0.2-0.8-0.7-0.8c-0.4,0-0.7,0.3-0.7,0.8V173.7z"/>
		<path class="wireColor" d="M769,175h-0.9l-0.8-5.6h0.6l0.7,4.8l0.6-4.8h0.6l0.6,4.8l0.6-4.8h0.5l-0.8,5.6h-0.8l-0.5-3.8L769,175z"/>
		<path class="wireColor" d="M772.1,170.8c0-0.9,0.4-1.4,1.3-1.4c0.9,0,1.3,0.6,1.3,1.4v2.9c0,0.8-0.4,1.4-1.3,1.4c-0.9,0-1.3-0.6-1.3-1.4
			V170.8z M772.7,173.7c0,0.5,0.2,0.8,0.7,0.8s0.7-0.3,0.7-0.8v-3c0-0.5-0.2-0.8-0.7-0.8c-0.4,0-0.7,0.3-0.7,0.8V173.7z"/>
		<path class="wireColor" d="M776.6,169.4c0.9,0,1.2,0.4,1.2,1.2v3.1c0,0.8-0.3,1.2-1.2,1.2h-0.2v-0.5h0.2c0.4,0,0.6-0.2,0.6-0.7v-3.1
			c0-0.5-0.1-0.7-0.6-0.7h-0.2v-0.5H776.6z"/>
	</g>
	<g>
		<path class="wireColor" d="M386.4,270h-2.2l-2-14.3h1.6l1.7,12.2l1.6-12.2h1.6l1.6,12.2l1.6-12.2h1.4l-1.9,14.3h-2.1l-1.4-9.7L386.4,270
			z"/>
		<path class="wireColor" d="M400.8,259.2v1.3h-1.5v-1.4c0-1.3-0.5-2.1-1.7-2.1c-1.1,0-1.7,0.8-1.7,2.1v7.6c0,1.3,0.5,2.1,1.7,2.1
			s1.7-0.8,1.7-2.1v-1.9h1.5v1.8c0,2.2-1,3.6-3.2,3.6s-3.2-1.4-3.2-3.6v-7.4c0-2.2,1-3.6,3.2-3.6S400.8,257,400.8,259.2z"/>
	</g>
	<g>
		<path class="wireColor" d="M422.4,270h-2.2l-2-14.3h1.6l1.7,12.2l1.6-12.2h1.6l1.6,12.2l1.6-12.2h1.4l-1.9,14.3h-2.1l-1.4-9.7L422.4,270
			z"/>
		<path class="wireColor" d="M436.8,259.2v1.3h-1.5v-1.4c0-1.3-0.5-2.1-1.7-2.1c-1.1,0-1.7,0.8-1.7,2.1v7.6c0,1.3,0.5,2.1,1.7,2.1
			s1.7-0.8,1.7-2.1v-1.9h1.5v1.8c0,2.2-1,3.6-3.2,3.6s-3.2-1.4-3.2-3.6v-7.4c0-2.2,1-3.6,3.2-3.6S436.8,257,436.8,259.2z"/>
	</g>
	<g>
		<path class="wireColor" d="M525.4,168v0.3h-1V168c0-0.8-0.3-1.3-1.1-1.3s-1.1,0.5-1.1,1.3c0,2.1,3.1,2.3,3.1,4.9c0,1.4-0.7,2.3-2.1,2.3
			s-2.1-0.9-2.1-2.3v-0.5h1v0.6c0,0.8,0.3,1.3,1.1,1.3s1.1-0.5,1.1-1.3c0-2.1-3.1-2.3-3.1-4.9c0-1.4,0.7-2.3,2-2.3
			C524.7,165.7,525.4,166.6,525.4,168z"/>
		<path class="wireColor" d="M530.3,175h-4.2v-0.9l3.2-7.4h-3v-0.9h4.1v0.9l-3.2,7.4h3.2L530.3,175L530.3,175z"/>
		<path class="wireColor" d="M532.3,173.1L532,175h-1l1.8-9.2h1.5l1.8,9.2h-1l-0.4-1.9H532.3z M532.5,172.2h2.1l-1-5.3L532.5,172.2z"/>
		<path class="wireColor" d="M538.2,175v-8.3h-1.7v-0.9h4.4v0.9h-1.7v8.3H538.2z"/>
		<path class="wireColor" d="M542.5,175h-0.9v-9.2h1.3l2.1,6.7v-6.7h0.9v9.2h-1.1l-2.4-7.5v7.5H542.5z"/>
		<path class="wireColor" d="M548,165.8v9.2h-1v-9.2H548z"/>
		<path class="wireColor" d="M550.1,173.1l-0.4,1.9h-0.9l1.8-9.2h1.5l1.8,9.2h-1l-0.4-1.9H550.1z M550.3,172.2h2.1l-1-5.3L550.3,172.2z"/>
	</g>
</g>
<g id="hotSpot">
	<polygon class="wcColor" points="447.5,280 374.4,280 374.4,247.2 447.6,247.2 	"/>
	<rect x="389.1" y="211" class="stairsColor" width="43.8" height="21.3"/>
	<polygon class="stairsColor" points="548.6,253.2 588.7,236.6 605.9,276.4 565.1,292.9 	"/>
	<polygon class="stairsColor" points="277.6,253.2 237.5,236.6 220.7,277.6 261.7,293.1 	"/>
	<polygon class="stairsColor" points="448.2,387.8 392.6,387.9 392.6,431.3 448.5,431.3 	"/>
</g>
<g id="wire">
	<g>
		<path class="wireColor" d="M764.8,186.1h-6.1v6.1h6.1V186.1z M763.3,190.7h-3.1v-3.1h3.1V190.7z"/>
		<path class="wireColor" d="M792.6,186.3h-6.1v6.1h6.1V186.3z M791.1,190.9H788v-3.1h3.1V190.9z"/>
		<path class="wireColor" d="M606.9,183.8H602v8.2h4.9V183.8z M605.4,190.6h-1.9v-5.2h1.9V190.6z"/>
		<path class="wireColor" d="M554.3,183.6h-4.9v8.2h4.9V183.6z M552.8,190.3h-1.9v-5.2h1.9V190.3z"/>
		<path class="wireColor" d="M786.4,296.3h6.1v-6.1h-6.1V296.3z M787.9,291.6h3.1v3.1h-3.1V291.6z"/>
		<path class="wireColor" d="M786.4,341.4h6.1v-6.1h-6.1V341.4z M787.9,336.8h3.1v3.1h-3.1V336.8z"/>
		<path class="wireColor" d="M759.2,341.4h6.1v-6.1h-6.1V341.4z M760.7,336.8h3.1v3.1h-3.1V336.8z"/>
		<path class="wireColor" d="M786.4,385.6h6.1v-6.1h-6.1V385.6z M787.9,381h3.1v3.1h-3.1V381z"/>
		<path class="wireColor" d="M759.2,385.6h6.1v-6.1h-6.1V385.6z M760.7,381h3.1v3.1h-3.1V381z"/>
		<path class="wireColor" d="M36.1,290H30v6.1h6.1V290z M34.6,294.6h-3.1v-3.1h3.1V294.6z"/>
		<path class="wireColor" d="M30,341.8h6.1v-6.1H30V341.8z M31.5,337.1h3.1v3.1h-3.1C31.5,340.2,31.5,337.1,31.5,337.1z"/>
		<polygon class="wireColor" points="733.8,200 734.5,200 734.5,190 739.4,190 739.4,186.3 693.6,186.3 693.6,190 733.8,190 		"/>
		<path class="wireColor" d="M388.4,158l-96-37.5l-74,0.4L189,190.3h186.4L388.4,158z M364.3,150.2l-3.3,8.4l-22.9-8.8l3.4-8.5
			L364.3,150.2z M360.7,159.2l-7.9,19.9l-22.9-9.1l7.9-19.6L360.7,159.2z M292.1,121.9L292.1,121.9l-5.3,12.9l-33.1-12.7
			L292.1,121.9z M219.3,122.3l32.3-0.2l34.9,13.4l-14.7,36.2l-62.6-25.3L219.3,122.3z M191.3,188.8l17.6-41.7l62.6,25.3l-6.7,16.4
			H191.3z M265.6,188.8l6.6-16.1l39.9,16.1H265.6z M314.1,188.8L272.5,172l20.3-49.8l48,18.8l-19.3,47.8H314.1z M322.3,188.8l7.3-18
			l22.9,9.1l-3.6,9h-26.6V188.8z M349.7,188.8l15.3-38.3l21.4,8.4l-12,30L349.7,188.8L349.7,188.8z"/>
		<path class="wireColor" d="M433.7,233v-22.8h-45.3l-0.1,22.8H433.7z M411.6,211.7h20.6v19.8h-20.6V211.7z M389.9,211.7h20.2v19.8h-20.3
			L389.9,211.7z"/>
		<path class="wireColor" d="M589.2,235.6l-15.2,6.3l-2.8-6.9h-0.1c-2,0.8-3.5,2.3-4.3,4.3c-0.7,1.6-0.8,3.3-0.4,4.9
			c-0.9-1.4-2.1-2.5-3.7-3.2c-2-0.8-4.1-0.8-6.1,0h-0.1l2.9,7l-11.6,4.8l16.3,40.8h-14.4v46.6H659v-94.6h-65.6L589.2,235.6z
			 M571,235.2l2.8,6.7l-7,2.9C565.4,241.1,567.2,236.8,571,235.2z M556.7,241.1c1.9-0.7,4-0.7,5.8,0.1c1.8,0.7,3.2,2.1,4,3.8l-7,2.9
			L556.7,241.1z M549.6,253.6l38.7-16l4.1,10l-12.3,5l-0.6-1.4l-13.7,5.5l0.6,1.4l-13,5.2L549.6,253.6z M578.9,275.8l1.8-0.7
			l3.9,9.6l-1.8,0.7L578.9,275.8z M582,285.7l-1.7,0.6l-3.8-9.5l1.7-0.7L582,285.7z M581.4,274.8l1.8-0.7l3.9,9.7l-1.8,0.7
			L581.4,274.8z M583.9,273.8l1.8-0.7l3.9,9.7l-1.8,0.7L583.9,273.8z M586.4,272.8l1.6-0.6l-0.6-1.4l12.5-5l4.7,11.4l-14.2,5.4
			L586.4,272.8z M587.1,270.1l-0.7-1.8l12.5-5l0.7,1.8L587.1,270.1z M586.1,267.6l-0.7-1.8l12.4-5l0.7,1.8L586.1,267.6z
			 M585.1,265.1l-0.7-1.8l12.4-5l0.7,1.8L585.1,265.1z M584.1,262.6l-0.7-1.8l12.4-5l0.7,1.8L584.1,262.6z M583.1,260.1l-0.7-1.8
			l12.4-5l0.7,1.8L583.1,260.1z M586,271.4l-10.9,4.4l-7.3-18.3l10.9-4.4L586,271.4z M553.7,263.9l13-5.2l0.7,1.9l-13,5.2
			L553.7,263.9z M554.7,266.4l13-5.2l0.7,1.8l-13,5.2L554.7,266.4z M555.7,268.9l13-5.2l0.7,1.8l-13,5.2L555.7,268.9z M556.7,271.5
			l13-5.2l0.7,1.8l-13,5.2L556.7,271.5z M557.7,274l13-5.2l0.7,1.8l-13,5.2L557.7,274z M558.7,276.5l13-5.2l0.7,1.8l-13,5.2
			L558.7,276.5z M559.7,279l13-5.2l0.7,1.8l-13,5.2L559.7,279z M560.8,281.5l13-5.2l0.6,1.4l1.6-0.6l3.8,9.5l-14.7,5.5L560.8,281.5z
			 M605.2,338.7H551v-43.6h54.1v43.6H605.2z M605.2,293.6h-39.8l39.8-15V293.6z M657.3,338.7h-50.7v-43.6h50.7V338.7z M617.5,247.1
			h39.9v46.5h-50.7v-16.4h10.8V247.1z M616,247.1v28.6h-10.4l-11.7-28.6H616z M594.5,252.6l-12.4,5l-0.7-1.8l12.4-5L594.5,252.6z
			 M581.1,255l-0.7-1.9l12.4-5l0.8,1.9L581.1,255z"/>
		<path class="wireColor" d="M443.3,239.2h-0.1c-4.1,0-7.5,3.1-7.9,7.1h-32.7c-0.4-4-3.8-7.1-7.9-7.1h-0.1v7.1H291.7V340h238.6v-93.7h-87
			L443.3,239.2L443.3,239.2z M443.1,239.4v6.9h-7.6C435.9,242.5,439.1,239.5,443.1,239.4z M412,247.8h15.2v17.8H412V247.8z
			 M406.8,247.8h4.5V266v0.4v12.9h-4.5V247.8z M394.8,239.4c3.9,0.1,7.2,3.1,7.6,6.9h-7.6V239.4z M375.2,247.8H406v31.4h-30.8V247.8
			z M375.2,280.7h34.9v42h-34.9V280.7z M373.7,338.5h-80.5v-90.7h80.5V338.5z M406.4,338.5h-31.2v-14.2h31.2V338.5z M446.8,338.5
			h-39.7v-14.2h39.7V338.5z M446.8,322.7h-35.2v-42h35.2V322.7z M448.3,247.8h80.5v90.7h-80.5V247.8z M446.8,247.8v31.4H412v-12.9
			h16v-18.6L446.8,247.8L446.8,247.8z"/>
		<path class="wireColor" d="M734.2,220.9v-5.8h-0.8v5.5l-73.3-29.3v-5.2H654v2.7L180.8,0l-74.1,185.8H78v57.4H27.5v33.1h38.7l-37.7,110
			h129.8c6.1,2,101.7,32.8,232.4,33.1v13.7h59.6v-13.7c0.4,0,0.8,0,1.2,0c83.6,0,200.9-30.3,206.8-31.8l79-1.3l44.2-111h11.6v-30.8
			L734.2,220.9z M655.5,187.7h3.1v3.1l-3.1-1.2V187.7z M515.8,137.8l-17.9,44.8l-22.2-9l17.8-44.7L515.8,137.8z M492.8,128.6
			L475,173.3l-22-8.9l18.5-44.3L492.8,128.6z M470.7,119.8l-18.5,44.3l-29-11.7l17.8-44.5L470.7,119.8z M440.3,107.6l-17.8,44.5
			l-28.7-11.5l17.7-44.4L440.3,107.6z M410.9,95.9l-17.7,44.4l-44.7-18L366.2,78L410.9,95.9z M365.5,77.8l-17.7,44.3L301,103.2
			L318.4,59L365.5,77.8z M317.7,58.7l-17.4,44.2l-40.6-16.4l18.2-43.8L317.7,58.7z M277.1,42.5L259,86.3l-45.7-18.4
			c5.5-13.9,15.3-38.4,17.6-43.8L277.1,42.5z M182.9,4.9l47.3,18.9c-2.7,6.4-14.6,36.2-17.6,43.8l-0.1-0.1l-0.7-0.3l-2.5,6.3
			c-3.9-1.2-8.2,0.8-9.7,4.7v0.1l6.8,2.6l-0.7,1.8l-46.3-18.6L182.9,4.9z M206.3,80.8l-6.6-2.6c1.5-3.7,5.6-5.6,9.4-4.5L206.3,80.8z
			 M158.9,64.9l46.4,18.6l-11.6,29.3c-1.8-0.6-3.8-0.5-5.6,0.3c-1.9,0.9-3.4,2.4-4.2,4.4v0.1l6.9,2.7l-0.9,2.2L143.3,104L158.9,64.9
			z M190.7,120.1l-6.7-2.6c1.5-3.7,5.7-5.7,9.5-4.5L190.7,120.1z M143,104.7l46.5,18.5l-13.2,33.3c-1.7-0.4-3.5-0.3-5.1,0.4
			c-1.9,0.9-3.4,2.4-4.2,4.4v0.1l6.4,2.5l-0.9,2.4L126,147.7L143,104.7z M173.4,163.8l-6.2-2.4c1.5-3.6,5.3-5.5,9-4.6L173.4,163.8z
			 M125.6,148.5l46.5,18.6l-1.3,3.3l-6.6-2.6v0.1c-0.8,2-0.7,4.1,0.1,6.1c0.7,1.7,2,3,3.6,3.8l-3.6,9.2h-54L125.6,148.5z
			 M167.9,177.6c-3.4-1.8-5-5.9-3.6-9.6l6.4,2.5L167.9,177.6z M81.7,221.9c3.3,0.8,5.8,3.8,5.8,7.4h-5.8V221.9z M81.7,202.8h5.8
			c0,3.6-2.5,6.6-5.8,7.4V202.8z M31.2,272.6V247h46.2l-9.9,25.6H31.2z M70.6,275.1L81.5,247h0.3v-0.2h5.5l-18.7,47.3h-4.5
			L70.6,275.1z M88.1,246.8h61v47.7l-79.6-0.4L88.1,246.8z M63.6,295.6H68l-8.4,21.2l-3-1.1L63.6,295.6z M56.2,317.1l2.9,1.1
			l-7.5,19.1l-2-0.7L56.2,317.1z M49.1,338l2,0.7l-6.7,17.1l-1.1-0.5L49.1,338z M77.8,382.5h-44l9.1-26.6l1.8,0.8l7-17.8l14.3,5
			h11.7v38.6H77.8z M77.8,336.6v0.8v5H66.4l-14.2-4.9l7.5-19l18,6.8v11.3H77.8z M60.3,317.1l8.5-21.4L149,296v27.9H78.6L60.3,317.1z
			 M79.3,337.4H90V355H79.3V337.4z M107.4,382.5H79.3v-26.7h11.5v-18.4h16.7L107.4,382.5L107.4,382.5z M134.1,382.5h-25.9v-45.1
			h25.9V382.5z M165.6,384.6c-4-1.2-6.2-1.9-6.4-2l-0.3-0.1h-24.2v-45.1h30.8L165.6,384.6L165.6,384.6z M195.6,392.6
			c-13.2-3.2-23.1-6-29.2-7.8v-47.5h29.2V392.6z M223,398.7c-9.9-2-18.9-4-26.7-5.9v-55.4H223V398.7z M272.7,407.2
			c-18.2-2.6-34.6-5.5-48.9-8.3v-61.5h46.3v17.2h2.6V407.2z M331.9,413.5c-21-1.5-40.6-3.7-58.5-6.2v-52.7h58.5V413.5z M391.9,415.7
			c-20.7,0-40.5-0.8-59.2-2.1v-59h59.2V415.7z M447.4,415.6h-0.8v1.1h-14.9v-13.2h2.3V402h-2.3v-14h15.8v27.6H447.4z M447.4,387.4
			h-16.3v-34h16.3V387.4z M497.9,413.2c-15.9,1.6-31.6,2.5-46.3,2.5c-0.9,0-1.8,0-2.7,0v-62.1h49V413.2z M552.8,405.8
			c-17.6,2.9-36.1,5.5-54.2,7.3v-59.6h54.2V405.8z M601.9,396.7c-14.5,3-31,6.2-48.3,9v-52.2h48.3V396.7z M632.2,390.1
			c-8.3,1.9-18.3,4.1-29.5,6.5v-43h29.5V390.1z M658.1,383.8h-0.3l-0.2,0.1c-0.3,0.1-9.6,2.5-24.7,6v-36.4H658v30.3H658.1z
			 M447.4,352v0.6h-17v3.8H423v0.8h7.5v30.2h-22.7v-30.2h7.6v-0.8H407v31.7h1.7v14h-1.1v1.5h1.1v13.2h-1.3v1.5h39.3v11.1h-52.1
			v-13.7h-1.1v-62.6H271.6v-17.2H79.3v-10.5h71.3v-80.1H81.7v-15.8h6.1v-0.1c0-3.7-2.6-6.9-6.1-7.7v-11.2c3.5-0.9,6.1-4,6.1-7.7
			v-0.1h-6.1v-13h27.4l0.4-1.1h55.6l47.3-119.3L497.5,184v17.9h40.4V191h-0.8v10.2h-38.9v-16.8l0.5,0.2l18.4-46.2l218.8,87.3v20H681
			V352H447.4z M428.3,402.1v-14h2.1h0.4h0.1v14H428.3z M430.9,403.6v13.2h-2.6v-13.2H430.9z M425.5,402.1v-14h2v14H425.5z
			 M427.5,403.6v13.2h-2v-13.2H427.5z M422.1,402.1v-14h2.6v14H422.1z M424.7,403.6v13.2h-2.6v-13.2H424.7z M418.9,402.1v-14h2.4v14
			H418.9z M421.4,403.6v13.2H419v-13.2H421.4z M415.9,402.1v-14h2.3v14H415.9z M418.2,403.6v13.2h-2.3v-13.2H418.2z M412.5,402.1
			v-14h2.6v14H412.5z M415.2,403.6v13.2h-2.6v-13.2H415.2z M409.4,402.1v-14h2.4v14H409.4z M411.8,403.6v13.2h-2.4v-13.2H411.8z
			 M686.1,383.4l-27.3,0.5v-30.3h23.7v-0.4h3.6V383.4z M734.8,382.5l-47.9,0.8v-31h-4.3v-13.1H752L734.8,382.5z M752.3,338.5h-69.8
			v-46.1h88.2L752.3,338.5z M789.4,271.5H779l-8.1,20.2h-88.5v-44.6H736v3.8h53.4V271.5z M789.4,250.2h-52.7v-3.1h0.7v-20.9l52,20.8
			V250.2z"/>
		<path class="wireColor" d="M268.7,240.6L268.7,240.6l-0.1-0.1c-2-0.8-4.1-0.8-6.1,0c-1.6,0.6-2.9,1.8-3.7,3.2c0.4-1.6,0.3-3.3-0.4-4.9
			c-0.8-2-2.3-3.5-4.3-4.3H254l-2.9,7l-14-5.8l-4.1,10h-60.1v80.2h98.5v-32.2h-9.2l16.3-40.8l-12.8-5.3L268.7,240.6z M262.6,240.7
			c1.9-0.8,3.9-0.8,5.8,0l-2.8,6.8l-7-2.9C259.4,242.7,260.8,241.4,262.6,240.7z M254.1,234.7c1.9,0.8,3.3,2.3,4.1,4.2
			c0.7,1.8,0.8,3.7,0.1,5.6l-7-2.9L254.1,234.7z M233.3,248.9l12.6,4.9l-0.7,1.9l-12.7-4.9L233.3,248.9z M243.9,258.9l-0.7,1.8
			l-12.8-5l0.7-1.8L243.9,258.9z M231.5,253.2l0.7-1.8l12.7,4.9l-0.7,1.8L231.5,253.2z M242.9,261.4l-0.7,1.8l-12.8-5l0.7-1.8
			L242.9,261.4z M242,263.9l-0.7,1.8l-12.8-5l0.7-1.8L242,263.9z M241,266.5l-0.7,1.8l-12.9-5l0.7-1.8L241,266.5z M241.4,284.6
			l-1.8-0.7l3.6-9.2l1.8,0.7L241.4,284.6z M245.6,275.7l1.8,0.7l-3.6,9.2l-1.8-0.7L245.6,275.7z M238.8,283.7l-1.7-0.6l3.6-9.3
			l1.7,0.7L238.8,283.7z M240,269l-0.7,1.8l-12.9-5l0.7-1.8L240,269z M239,271.5l-0.5,1.4l1.6,0.6l-3.6,9.3l-14.8-5.6l4.4-10.7
			L239,271.5z M260.9,293.6h-39.8v-15L260.9,293.6z M244.6,285.8l3.6-9.2l1.8,0.7l-3.6,9.2L244.6,285.8z M240.4,272l7.1-18.4l11,4.3
			l-7.1,18.4L240.4,272z M210.3,247.1h22.1l-6,14.7l-16.1-7.6V247.1z M210.3,255l15.8,7.5l-5.4,13.2h-10.4L210.3,255L210.3,255z
			 M201.4,247.1h7.3v26.6h-7.3V247.1z M174.4,247.1h26.2v26.6v0.4v3.9h-26.2V247.1z M199.1,278.7v4.6h-21.3v-4.6H199.1z M270,295.1
			v29.2h-95.5v-45.6h2.6v5.3h22.8v-5.3h1.6v-4.2h7.3v2.7h10.8v17.9H270z M261.2,292.1l-14.1-5.3l3.6-9.2l1.6,0.6l0.5-1.4l12.6,4.9
			L261.2,292.1z M265.7,281.1l-12.6-4.9l0.7-1.8l12.6,4.9L265.7,281.1z M266.7,278.5l-12.7-4.9l0.7-1.8l12.7,4.9L266.7,278.5z
			 M267.7,276l-12.7-4.9l0.7-1.8l12.7,4.9L267.7,276z M268.7,273.5l-12.7-4.9l0.7-1.8l12.7,4.9L268.7,273.5z M269.7,271l-12.7-5
			l0.7-1.8l12.7,5L269.7,271z M270.7,268.5l-12.8-5l0.7-1.8l12.8,5L270.7,268.5z M271.7,266l-12.8-5l0.7-1.9l12.8,5L271.7,266z
			 M276.6,253.6l-3.9,9.8l-12.8-5l0.5-1.4l-13.7-5.3l-0.5,1.4l-12.6-4.9l4.3-10.6L276.6,253.6z"/>
	</g>
</g>
<g id="eventSpot">
	<polygon id="sala110" class="eventColor" points="172.1,167.1 125.6,148.5 110.2,187 164.2,187 	"/>
	<polygon id="sala109" class="eventColor" points="143,104.7 125.8,147.8 172.4,166.4 189.5,123.2 	"/>
	<polygon id="sala108" class="eventColor" points="158.9,64.9 143.3,104 189.8,122.5 205.3,83.5 	"/>
	<path id="sala107" class="eventColor" d="M205.5,82.8l6.2-15.6l0.7,0.3l0.1,0.1c3-7.6,14.9-37.4,17.6-43.8L182.9,4.9l-23.7,59.4
		L205.5,82.8z"/>
</g>
<g id="guideSpot">
	<circle id="CMBIN-0-D03" class="wireColor" cx="632.3" cy="232.3" r="5.1"/>
	<circle id="CMBIN-0-D02" class="wireColor" cx="407.6" cy="346.8" r="5.1"/>
	<circle id="CMBIN-0-D01" class="wireColor" cx="138" cy="232.9" r="5.1"/>
</g>
</svg>
