<?xml version="1.0" encoding="utf-8"?>
<!-- Generator: Adobe Illustrator 20.0.0, SVG Export Plug-In . SVG Version: 6.00 Build 0)  -->
<svg version="1.1" id="Warstwa_1" xmlns="http://www.w3.org/2000/svg" xmlns:xlink="http://www.w3.org/1999/xlink" x="0px" y="0px"
	 viewBox="0 0 772.6 248.6" style="enable-background:new 0 0 772.6 248.6;" xml:space="preserve">
<style type="text/css">.wireColor{fill: #777777;}.nofloorColor{fill: #F2F2F2;}.arrowColor{fill: #EA5906;}.eventColor{opacity: 0.3; fill: #F59E16; transition: 1s fill;}.wcColor{opacity: 0.3; fill: #3693B2;}.stairsColor{opacity: 0.3; fill: #73cc15;}.transparentObject{fill: 0;}.riverColor{fill: #B9DDEF;}.mapElements{fill: #E2E2E2;}.tramColor{fill: #73CC15;}.mapArrows{fill: #BFBFBF;}.buildingFill{fill: #E5E5E5;}.eventColor.active{opacity: 0.3; fill: red; -webkit-animation: alertOpacity 2s infinite alternate; animation: alertOpacity 2s infinite alternate;}@-webkit-keyframes alertOpacity{0%{opacity: 0.3;}50%{opacity: 0.5;}100%{opacity: 0.3;}}@keyframes alertOpacity{0%{opacity: 0.3;}50%{opacity: 0.5;}100%{opacity: 0.3;}}#guideSpot .eventColor.active{fill: red; opacity: 1; r: 10; transform-origin: 150px 150px; -webkit-transform-origin: 50% 50%; -webkit-animation: alertScale 2s infinite alternate; animation: alertScale 2s infinite alternate;}@-webkit-keyframes alertScale{0%{-webkit-transform: scale(1, 1);}50%{-webkit-transform: scale(2, 2);}100%{-webkit-transform: scale(1, 1);}}@keyframes alertScale{0%{transform: scale(1, 1);}50%{transform: scale(2, 2);}100%{transform: scale(1, 1);}}</style>
<g id="description">
	<g>
		<path class="wireColor" d="M352.9,90.9h-2.2l-2-14.3h1.6l1.7,12.2l1.6-12.2h1.6l1.6,12.2l1.6-12.2h1.4l-1.9,14.3h-2.1l-1.4-9.7
			L352.9,90.9z"/>
		<path class="wireColor" d="M367.4,80v1.3h-1.5v-1.4c0-1.3-0.5-2.1-1.7-2.1c-1.1,0-1.7,0.8-1.7,2.1v7.6c0,1.3,0.5,2.1,1.7,2.1
			s1.7-0.8,1.7-2.1v-1.9h1.5v1.8c0,2.2-1,3.6-3.2,3.6s-3.2-1.4-3.2-3.6V80c0-2.2,1-3.6,3.2-3.6S367.4,77.8,367.4,80z"/>
	</g>
	<g>
		<path class="wireColor" d="M389,90.9h-2.2l-2-14.3h1.6l1.7,12.2l1.6-12.2h1.6l1.6,12.2l1.6-12.2h1.4L394,90.9h-2.1l-1.4-9.7L389,90.9z"
			/>
		<path class="wireColor" d="M403.4,80v1.3h-1.5v-1.4c0-1.3-0.5-2.1-1.7-2.1c-1.1,0-1.7,0.8-1.7,2.1v7.6c0,1.3,0.5,2.1,1.7,2.1
			s1.7-0.8,1.7-2.1v-1.9h1.5v1.8c0,2.2-1,3.6-3.2,3.6s-3.2-1.4-3.2-3.6V80c0-2.2,1-3.6,3.2-3.6S403.4,77.8,403.4,80z"/>
	</g>
	<g>
		<path class="wireColor" d="M318.5,181.4v0.4h-1.4v-0.4c0-1.2-0.5-1.9-1.5-1.9c-1.1,0-1.5,0.7-1.5,1.9c0,3,4.5,3.3,4.5,7c0,2-1,3.3-3,3.3
			s-3-1.3-3-3.3v-0.8h1.4v0.8c0,1.2,0.5,1.9,1.6,1.9s1.6-0.7,1.6-1.9c0-3-4.4-3.2-4.4-7c0-2.1,0.9-3.3,2.9-3.3
			C317.5,178.1,318.5,179.4,318.5,181.4z"/>
		<path class="wireColor" d="M321.3,188.8l-0.5,2.7h-1.4l2.5-13.3h2.1l2.5,13.3H325l-0.5-2.7H321.3z M321.5,187.5h3l-1.5-7.7L321.5,187.5z
			"/>
		<path class="wireColor" d="M327.8,191.5v-13.3h1.5v11.9h3.8v1.3h-5.3V191.5z"/>
		<path class="wireColor" d="M335.7,188.8l-0.5,2.7h-1.4l2.5-13.3h2.1l2.5,13.3h-1.5l-0.5-2.7H335.7z M335.9,187.5h3l-1.5-7.7L335.9,187.5
			z"/>
		<path class="wireColor" d="M319.4,203.2v0.6c0,2.3-0.9,3.9-2.7,4.6c1.9,0.7,2.7,2.4,2.7,4.6v1.7c0,3.4-1.6,5.6-5,5.6s-5-2.2-5-5.6v-1.5
			h2.3v1.7c0,2,0.8,3.2,2.6,3.2c1.8,0,2.6-1.2,2.6-3.4V213c0-2.2-0.9-3.2-2.8-3.3h-1.3v-2.2h1.5c1.6-0.1,2.7-1.1,2.7-3v-1
			c0-2.3-0.8-3.5-2.6-3.5c-1.8,0-2.6,1.2-2.6,3.2v1.1h-2.3v-1c0-3.4,1.6-5.6,5-5.6C317.8,197.6,319.4,199.8,319.4,203.2z"/>
		<path class="wireColor" d="M331.8,203.2c0,6.7-7.5,9.1-7.5,14.2v0.3h7.3v2.2h-9.7V218c0-7.2,7.5-8.6,7.5-14.8c0-2.3-0.8-3.5-2.6-3.5
			c-1.8,0-2.6,1.3-2.6,3.3v2h-2.3v-1.8c0-3.4,1.6-5.6,5-5.6C330.2,197.6,331.8,199.8,331.8,203.2z"/>
		<path class="wireColor" d="M333.9,203.2c0-3.4,1.7-5.6,5.1-5.6s5.1,2.2,5.1,5.6v11.4c0,3.4-1.7,5.6-5.1,5.6s-5.1-2.2-5.1-5.6V203.2z
			 M336.3,214.8c0,2,0.9,3.2,2.6,3.2c1.8,0,2.6-1.2,2.6-3.2v-11.7c0-2-0.8-3.2-2.6-3.2c-1.8,0-2.6,1.2-2.6,3.2V214.8z"/>
	</g>
	<g>
		<path class="wireColor" d="M205.2,166.7v0.4h-1.4v-0.4c0-1.2-0.5-1.9-1.5-1.9c-1.1,0-1.5,0.7-1.5,1.9c0,3,4.5,3.3,4.5,7c0,2-1,3.3-3,3.3
			s-3-1.3-3-3.3v-0.8h1.4v0.8c0,1.2,0.5,1.9,1.6,1.9s1.6-0.7,1.6-1.9c0-3-4.4-3.2-4.4-7c0-2.1,0.9-3.3,2.9-3.3
			C204.2,163.4,205.2,164.7,205.2,166.7z"/>
		<path class="wireColor" d="M208,174.2l-0.5,2.7h-1.4l2.5-13.3h2.1l2.5,13.3h-1.5l-0.5-2.7H208z M208.2,172.9h3l-1.5-7.7L208.2,172.9z"/>
		<path class="wireColor" d="M214.5,176.9v-13.3h1.5v11.9h3.8v1.3h-5.3V176.9z"/>
		<path class="wireColor" d="M222.4,174.2l-0.5,2.7h-1.4l2.5-13.3h2.1l2.5,13.3h-1.5l-0.5-2.7H222.4z M222.6,172.9h3l-1.5-7.7L222.6,172.9
			z"/>
		<path class="wireColor" d="M206.9,188.5v0.6c0,2.3-0.9,3.9-2.7,4.6c1.9,0.7,2.7,2.4,2.7,4.6v1.7c0,3.4-1.6,5.6-5,5.6s-5-2.2-5-5.6v-1.5
			h2.3v1.7c0,2,0.8,3.2,2.6,3.2s2.6-1.2,2.6-3.4v-1.7c0-2.2-0.9-3.2-2.8-3.3h-1.3v-2.2h1.5c1.6-0.1,2.7-1.1,2.7-3v-1
			c0-2.3-0.8-3.5-2.6-3.5s-2.6,1.2-2.6,3.2v1.1H197v-1c0-3.4,1.6-5.6,5-5.6C205.4,183,206.9,185.1,206.9,188.5z"/>
		<path class="wireColor" d="M213.9,187.2c-0.8,0.5-1.9,0.9-3.1,1v-2c2.4-0.1,3.2-1.4,3.8-2.9h1.7v22.2h-2.4V187.2z"/>
		<path class="wireColor" d="M227.4,185.4h-7.5v-2.2h10v2.2l-5.7,20h-2.5L227.4,185.4z"/>
	</g>
</g>
<g id="hotSpot">
	<polygon class="stairsColor" points="203.3,51.4 243.4,68 227.5,107.9 186.5,92.5 	"/>
	<polygon class="stairsColor" points="510,69.7 550.1,53.1 566.9,94.2 525.9,109.6 	"/>
	<rect x="353.7" y="29.4" class="stairsColor" width="43.9" height="21.3"/>
	<polygon class="wcColor" points="339.1,67.6 411.7,67.6 411.7,98.3 338.7,98.3 	"/>
	<polygon class="stairsColor" points="375.8,199.3 414.3,199.3 414.3,231.5 376.3,231.5 	"/>
</g>
<g id="wire">
	<path class="wireColor" d="M97.5,5.4L96.6,0H74.7L49.8,63.7l0.1,0.1L1.5,63.9V90H0l1.3,111.7H123c6.1,2,101.7,32.8,232.4,33.1v13.7H415
		v-13.7c0.4,0,0.7,0,1.1,0c83.7,0,204.9-31.6,211.1-33.3h123.2V65.3l22.2-60L97.5,5.4L97.5,5.4z M746.7,110.3H711v-0.4h-42.2V64.8
		h35.3v-0.4h42.6l-0.1,0.2v45.7H746.7z M711,140.7v-29.6h35.7v35.1h-10.5v-5.5H711z M617.3,109.9V64.8H668v45.1H617.3z M651.9,37.7
		V9.1h51v28.6H651.9z M426.3,9.1h54.5v28.5l-54.5-3.3V9.1z M481.6,9.1h33.9v28.6h-33.9V9.1z M516.2,9.1h39.7v28.6h-39.7V9.1z
		 M556.7,9.1h35.1v28.6h-35.1V9.1z M592.5,9.1h34.2v28.6h-34.2V9.1z M627.5,9.1h23.7v28.6h-23.7V9.1z M97.7,38.8V9.1h33.7v29.6
		L97.7,38.8L97.7,38.8z M132.1,9.1h40v29.6h-40V9.1z M172.9,9.1h30.5v29.6h-30.5V9.1z M204.2,9.1h31.7v29.6h-31.7V9.1z M236.7,9.1
		h32.1V38l-10.2,0.7h-21.9L236.7,9.1L236.7,9.1z M269.6,9.1h27v27l-27,1.9V9.1z M297.3,9.1h28.4V34l-28.4,2V9.1z M77.3,3.8h16.1
		l0.9,5.4H97v29.6h-2.2v3.6H68.3l-5.4-1.7L77.3,3.8z M3.8,93.8h46.4v19.5h-1.1v19.2H4.3L3.8,93.8z M4.3,133.3h44.8v18.5H4.5
		L4.3,133.3z M50.9,93.7h2.5v-9.5h-2.6l7.4-16.6l-2.7-3h39.2V66h23v47.3H50.9V93.7z M62.6,41.3l5.5,1.8h26.7v20.8H54.9L54.1,63
		L62.6,41.3z M2.3,64.7l48.3-0.1l3.3,3.7L45,88h4.7v2H2.3V64.7z M4.5,152.5h44.6v1.2h16.5V198H5L4.5,152.5z M98.1,198H66.3v-44.2
		h61.4v23.7H98.1V198z M123.6,198H98.9v-19.7h29.6v-24.5H190v60.9c-41.1-8.2-65.6-16.4-66.1-16.6L123.6,198z M219.2,152.2v-7.4
		c4.1,0.1,7.5,3.3,7.6,7.4H219.2z M236.9,153.7v16h0.4v52.9c-17.2-2.4-32.8-5.1-46.5-7.9v-61L236.9,153.7L236.9,153.7z M298.2,169.8
		V229c-10.1-0.7-19.8-1.6-29.2-2.5v-56.7H298.2z M268.2,226.4c-10.5-1.1-20.6-2.3-30.2-3.7v-53h30.2V226.4z M298.9,229.1v-59.3h57.9
		v61.3C336.6,231.1,317.2,230.3,298.9,229.1z M302.5,168.3v-6.9c3.9,0.1,7.2,3.1,7.6,6.9H302.5z M359.2,244.8v-13.7h-0.9v-62.8
		h-47.9c-0.4-4-3.8-7.1-7.9-7.1h-0.1v7.1h-63.9v-16h-11.3c-0.2-4.2-3.7-7.7-7.9-7.7H219v7.7H50.6v-37.4h68.7V64.5h-23V40.3h162.4
		l68.5-4.8V9.1h97.6v26.7l56.4,3.4h221.4v24.2h-86.8v48.1h93.7v30.7h25.2v9.2H514.6v21h-7.8v-3.8h-99.4v3.7h-32v26.3h-0.1v1.5h5.2
		V215h-4.3v1.5h4.3v0.2v14.1h-4.7v1.5h35.4v12.6h-52V244.8z M699,152.9v45h-27v-45H699z M699.7,152.9h22.7v45h-22.7V152.9z
		 M505.3,170.1v3.8h9.7v47.6c-12.3,2-24.8,3.9-37.4,5.4v-56.8L505.3,170.1L505.3,170.1z M515.7,173.9h0.4v-21h48.2v59.4
		c-14.8,3.1-31.4,6.2-48.6,9.1L515.7,173.9L515.7,173.9z M565.1,152.9h28.2V206c-8.3,1.9-17.8,4-28.2,6.1V152.9z M594,152.9h26.1
		v46.7c-5.6,1.4-14.6,3.6-26.1,6.3V152.9z M413.9,230.7h-13.5v-14.1v-0.2h2.3V215h-2.3v-15h7h0.8h5.7V230.7z M381.3,216.5h2.6v0.2
		v14.1h-2.6v-14.1V216.5z M387,200v15h-2.3v-15H387z M387.7,200h2.4v15h-2.4V200z M390.9,200h2.6v15h-2.6V200z M394.3,200h2v15h-2
		V200z M397,200h2.6v15H397V200z M407.4,198.5h-31.2V173h31.2V198.5z M383.9,200v15h-2.6v-15H383.9z M384.7,216.7v-0.2h2.3v0.2v14.1
		h-2.3V216.7z M387.7,216.7v-0.2h2.4v0.2v14.1h-2.4V216.7z M390.9,216.7v-0.2h2.6v0.2v14.1h-2.6V216.7z M394.3,216.7v-0.2h2v0.2
		v14.1h-2V216.7z M397,216.7v-0.2h2.6v0.2v14.1H397V216.7z M415.4,231.1v-32.6h-6.5v-28.4h67.9V227
		C455.6,229.5,434.5,231.1,415.4,231.1z M626.8,197.9l-0.2,0.1c-0.2,0-2.1,0.6-5.6,1.5V153h50.4v45h-44.6V197.9z M723.2,197.9v-45
		h13V147h10.5v50.9H723.2z M747,63.7h-42.9v-26h-0.4V9.1h63.5L747,63.7z"/>
	<path class="wireColor" d="M496,155.8V66.9h-84h-0.8h-71.4H339h-79.3v89.2h79.7l0,0l72.5-0.3H496z M411.3,140.7h-35.1V99h35.1V140.7z
		 M412.8,68.4h81.8v85.9h-81.8V68.4z M411.3,97.5h-35.1V85.4h15.3v-17h19.8L411.3,97.5L411.3,97.5z M375.4,84.6V85v12.5h-4.7V68.4
		h4.7V84.6z M376.2,68.4h14.6v16.3h-14.6V68.4z M370,68.4v29.2h-30.2l0.1-29.2C339.9,68.4,370,68.4,370,68.4z M338,154.6h-76.7V68.4
		h77.1L338,154.6z M339.7,99h35.7v41.7h-35.8v0.8h71.7v12.9l-40.1,0.2v-13h-0.8v13l-30.9,0.1L339.7,99z"/>
	<path class="wireColor" d="M398.4,28.6h-45.3L353,51.4h45.4V28.6z M354.6,30.1h20.8v19.8h-20.9L354.6,30.1z M396.9,49.9h-20V30.1h20V49.9
		z"/>
	<path class="wireColor" d="M525.2,109.9h-15.5v29.7h48.8v-2.8h7.9v5.4h38.1V64.4h-27.6v0.4h-21.3l-5.2-12.6l-14.5,6l-2.9-6.5v-0.1h-0.1
		c-3.6,1.6-5.5,5.6-4.5,9.3c-0.9-1.4-2.2-2.5-3.8-3.1c-2-0.8-4.1-0.7-6.1,0.1h-0.1l2.8,6.3L509,69.3L525.2,109.9z M528.5,77.1
		l-12.7,5.2l-0.7-1.9l12.6-5.2L528.5,77.1z M529.5,79.6l-12.7,5.2l-0.7-1.8l12.7-5.2L529.5,79.6z M529.8,80.3l0.7,1.8l-12.7,5.2
		l-0.7-1.8L529.8,80.3z M530.8,82.8l0.7,1.8l-12.7,5.2l-0.7-1.8L530.8,82.8z M531.8,85.3l0.7,1.8l-12.8,5.2l-0.7-1.8L531.8,85.3z
		 M532.9,87.8l0.7,1.8l-12.8,5.2l-0.7-1.8L532.9,87.8z M533.9,90.3l0.7,1.8l-12.8,5.3l-0.7-1.8L533.9,90.3z M534.9,92.8l0.6,1.4
		l1.6-0.6l3.9,9.6l-14.6,5.5l-4.2-10.6L534.9,92.8z M541.7,102.8l-3.9-9.6l1.7-0.7l4,9.7L541.7,102.8z M544.1,101.9l-4-9.7l1.8-0.7
		l4,9.7L544.1,101.9z M546.6,101l-4-9.7l1.8-0.7l4,9.8L546.6,101z M549.1,100l-4-9.8l1.8-0.7l4.1,9.9L549.1,100z M551.6,99.1
		l-4.1-9.9l1.6-0.6l-0.6-1.4l12.6-5.2l4.8,11.7L551.6,99.1z M548.3,86.5l-0.7-1.8l12.6-5.2l0.7,1.8L548.3,86.5z M547.2,84l-0.7-1.8
		l12.6-5.2l0.7,1.8L547.2,84z M546.2,81.5l-0.7-1.8l12.6-5.2l0.7,1.8L546.2,81.5z M545.2,79l-0.7-1.8L557,72l0.7,1.8L545.2,79z
		 M544.2,76.5l-0.7-1.8l12.6-5.2l0.7,1.8L544.2,76.5z M543.1,74l-0.7-1.8L555,67l0.7,1.8L543.1,74z M542.1,71.5l-0.8-1.9l12.6-5.2
		l0.8,1.9L542.1,71.5z M547.2,87.7l-10.9,4.5L528.8,74l10.9-4.5L547.2,87.7z M566.4,95.1v14.8h-39.2L566.4,95.1z M557.8,136.1v2.8
		h-47.3v-28.2h56v25.4H557.8z M603.1,140.7H568V93.8h11l-0.6-28H603L603.1,140.7L603.1,140.7z M576.9,65.5l0.6,26.8h-10.6l-11-26.8
		H576.9z M553.6,63.8L541,69l-0.6-1.4l-13.6,5.6l0.6,1.4l-12.6,5.2l-3.8-9.6l38.7-16L553.6,63.8z M533,51.8l2.8,6.4l-7,2.9
		C527.7,57.4,529.4,53.4,533,51.8z M518.8,58c1.9-0.8,3.9-0.8,5.8-0.1c1.6,0.6,3,1.8,3.9,3.3l-7,2.9L518.8,58z"/>
	<rect x="422" y="123.1" class="wireColor" width="60.5" height="0.8"/>
	<path class="wireColor" d="M234.6,55.4h-0.1c-2-0.8-4.1-0.7-6.1,0.1c-1.6,0.7-2.8,1.8-3.7,3.3c0.4-1.6,0.2-3.3-0.5-4.9
		c-0.9-1.9-2.4-3.4-4.4-4.2h-0.1l-2.6,6.6l-14.2-5.9l-4.1,10h-60.1v80.2h98.5v-32.2H228l16.3-40.8l-12.6-5.2L234.6,55.4z
		 M228.4,55.7c1.9-0.8,3.9-0.9,5.8-0.2l-2.6,6.8l-7-2.9C225.4,57.8,226.8,56.5,228.4,55.7z M219.8,49.9c1.9,0.8,3.4,2.2,4.2,4.1
		c0.7,1.7,0.9,3.5,0.3,5.3l-7-2.9L219.8,49.9z M225.6,74l12.7,4.9l-0.7,1.9L225,75.9L225.6,74z M186.5,90.5h-10.4V69.8l15.8,7.5
		L186.5,90.5z M198,66.3l12.8,5l-0.7,1.8l-12.9-5L198,66.3z M197,68.8l12.9,5l-0.7,1.8l-12.9-5L197,68.8z M196,71.3l12.9,5l-0.7,1.8
		l-12.9-5L196,71.3z M195,73.8l13,5l-0.7,1.8l-13-5L195,73.8z M193.9,76.3l13,5.1l-0.7,1.8l-13-5.1L193.9,76.3z M205.2,85.7
		l-13.1-5.1l0.7-1.8l13,5.1L205.2,85.7z M191.9,81.3l13.1,5.1l-0.5,1.4l1.6,0.6l-3.6,9.2l-15-5.6L191.9,81.3z M206.7,88.7l1.7,0.7
		l-3.6,9.2l-1.7-0.6L206.7,88.7z M209.1,89.6l1.8,0.7l-3.6,9.2l-1.8-0.7L209.1,89.6z M211.6,90.6l1.8,0.7l-3.6,9.2l-1.8-0.7
		L211.6,90.6z M214.1,91.6l1.8,0.7l-3.6,9.1l-1.8-0.7L214.1,91.6z M216.6,92.5l1.6,0.6l0.5-1.4l12.5,4.9l-4.1,10.3l-14-5.3
		L216.6,92.5z M219,91l0.7-1.8l12.5,4.9l-0.7,1.8L219,91z M220,88.5l0.7-1.8l12.5,4.9l-0.7,1.8L220,88.5z M220.9,86l0.7-1.8
		l12.6,4.9l-0.7,1.8L220.9,86z M221.9,83.5l0.7-1.8l12.6,4.9l-0.7,1.8L221.9,83.5z M222.9,81l0.7-1.8l12.6,4.9l-0.7,1.8L222.9,81z
		 M223.9,78.4l0.7-1.8l12.6,4.9l-0.7,1.8L223.9,78.4z M217.3,91.2l-11-4.3l7.1-18.4l11,4.3L217.3,91.2z M211.1,70.6l-12.8-5l0.8-1.9
		l12.8,5L211.1,70.6z M198.2,61.9l-6,14.7L176.1,69v-7L198.2,61.9L198.2,61.9z M174.6,88.6h-7.3V61.9h7.3V88.6z M166.5,61.9v26.6
		v0.4v3.9h-26.2V61.9H166.5z M143.6,93.5h21.3v4.6h-21.3V93.5z M235.8,139.1h-95.5V93.5h2.6v5.3h22.8v-5.3h1.6v-4.2h7.3V92h10.8
		v17.9h50.4L235.8,139.1L235.8,139.1z M186.9,108.4v-15l39.8,15H186.9z M238.5,78.3l-12.7-4.9l0.5-1.4l-13.7-5.3l-0.5,1.4l-12.8-5
		l4.4-10.7l38.7,16L238.5,78.3z"/>
</g>
<g id="eventSpot">
	<path id="sala320" class="eventColor" d="M356.8,231.1v-61.3h-57.9v59.3C317.2,230.3,336.6,231.1,356.8,231.1z"/>
	<path id="sala317" class="eventColor" d="M190.7,153.7v61c13.8,2.7,29.4,5.4,46.5,7.9v-52.9h-0.4v-16L190.7,153.7L190.7,153.7z"/>
</g>
<g id="guideSpot">
	<circle id="CMBIN-2-D24" class="wireColor" cx="248.5" cy="160.1" r="5.1"/>
	<circle id="CMBIN-2-D23" class="wireColor" cx="450.4" cy="48" r="5.1"/>
	<circle id="CMBIN-2-D22" class="wireColor" cx="366.7" cy="213" r="5.1"/>
	<circle id="CMBIN-2-D21" class="wireColor" cx="302" cy="48" r="5.1"/>
</g>
</svg>
