<?xml version="1.0" encoding="utf-8"?>
<!-- Generator: Adobe Illustrator 20.0.0, SVG Export Plug-In . SVG Version: 6.00 Build 0)  -->
<svg version="1.1" id="Warstwa_1" xmlns="http://www.w3.org/2000/svg" xmlns:xlink="http://www.w3.org/1999/xlink" x="0px" y="0px"
	 viewBox="0 0 772.6 248.6" style="enable-background:new 0 0 772.6 248.6;" xml:space="preserve">
<style type="text/css">.wireColor{fill: #777777;}.nofloorColor{fill: #F2F2F2;}.arrowColor{fill: #EA5906;}.eventColor{opacity: 0.3; fill: #F59E16; transition: 1s fill;}.wcColor{opacity: 0.3; fill: #3693B2;}.stairsColor{opacity: 0.3; fill: #73cc15;}.transparentObject{fill: 0;}.riverColor{fill: #B9DDEF;}.mapElements{fill: #E2E2E2;}.tramColor{fill: #73CC15;}.mapArrows{fill: #BFBFBF;}.buildingFill{fill: #E5E5E5;}.eventColor.active{opacity: 0.3; fill: red; -webkit-animation: alertOpacity 2s infinite alternate; animation: alertOpacity 2s infinite alternate;}@-webkit-keyframes alertOpacity{0%{opacity: 0.3;}50%{opacity: 0.5;}100%{opacity: 0.3;}}@keyframes alertOpacity{0%{opacity: 0.3;}50%{opacity: 0.5;}100%{opacity: 0.3;}}#guideSpot .eventColor.active{fill: red; opacity: 1; r: 10; transform-origin: 150px 150px; -webkit-transform-origin: 50% 50%; -webkit-animation: alertScale 2s infinite alternate; animation: alertScale 2s infinite alternate;}@-webkit-keyframes alertScale{0%{-webkit-transform: scale(1, 1);}50%{-webkit-transform: scale(2, 2);}100%{-webkit-transform: scale(1, 1);}}@keyframes alertScale{0%{transform: scale(1, 1);}50%{transform: scale(2, 2);}100%{transform: scale(1, 1);}}</style>
<g id="description">
	<g>
		<path class="wireColor" d="M352.9,90.2h-2.2l-2-14.3h1.6l1.7,12.2l1.6-12.2h1.6l1.6,12.2l1.6-12.2h1.4l-1.9,14.3h-2.1l-1.4-9.7
			L352.9,90.2z"/>
		<path class="wireColor" d="M367.4,79.4v1.3h-1.5v-1.4c0-1.3-0.5-2.1-1.7-2.1c-1.1,0-1.7,0.8-1.7,2.1v7.6c0,1.3,0.5,2.1,1.7,2.1
			s1.7-0.8,1.7-2.1V85h1.5v1.8c0,2.2-1,3.6-3.2,3.6S361,89,361,86.8v-7.4c0-2.2,1-3.6,3.2-3.6C366.3,75.8,367.4,77.2,367.4,79.4z"/>
	</g>
	<g>
		<path class="wireColor" d="M388.9,90.2h-2.2l-2-14.3h1.6l1.7,12.2l1.6-12.2h1.6l1.6,12.2l1.6-12.2h1.4l-1.9,14.3h-2.1l-1.4-9.7
			L388.9,90.2z"/>
		<path class="wireColor" d="M403.4,79.4v1.3h-1.5v-1.4c0-1.3-0.5-2.1-1.7-2.1c-1.1,0-1.7,0.8-1.7,2.1v7.6c0,1.3,0.5,2.1,1.7,2.1
			s1.7-0.8,1.7-2.1V85h1.5v1.8c0,2.2-1,3.6-3.2,3.6S397,89,397,86.8v-7.4c0-2.2,1-3.6,3.2-3.6S403.4,77.2,403.4,79.4z"/>
	</g>
	<g>
		<path class="wireColor" d="M550.4,167.1v0.3h-1.3V167c0-1.1-0.4-1.7-1.4-1.7s-1.4,0.6-1.4,1.7c0,2.7,4.1,3,4.1,6.4
			c0,1.9-0.9,3.1-2.8,3.1c-1.9,0-2.7-1.2-2.7-3.1v-0.7h1.3v0.8c0,1.1,0.5,1.7,1.4,1.7s1.4-0.6,1.4-1.7c0-2.7-4.1-3-4.1-6.4
			c0-1.9,0.9-3.1,2.7-3.1C549.5,164,550.4,165.2,550.4,167.1z"/>
		<path class="wireColor" d="M552.9,173.9l-0.5,2.5h-1.3l2.3-12.2h2l2.3,12.2h-1.4l-0.5-2.5H552.9z M553.1,172.7h2.7l-1.4-7.1L553.1,172.7
			z"/>
		<path class="wireColor" d="M558.9,176.4v-12.2h1.4v11h3.5v1.2H558.9z"/>
		<path class="wireColor" d="M566.2,173.9l-0.5,2.5h-1.3l2.3-12.2h2l2.3,12.2h-1.4l-0.5-2.5H566.2z M566.4,172.7h2.7l-1.4-7.1L566.4,172.7
			z"/>
		<path class="wireColor" d="M551.2,187.1c0,6.1-6.9,8.4-6.9,13v0.3h6.7v2.1h-9v-1.7c0-6.6,6.9-7.9,6.9-13.6c0-2.1-0.7-3.2-2.4-3.2
			s-2.4,1.2-2.4,3v1.8H542v-1.7c0-3.1,1.4-5.2,4.6-5.2C549.7,182,551.2,184,551.2,187.1z"/>
		<path class="wireColor" d="M562.4,187.1c0,6.1-6.9,8.4-6.9,13v0.3h6.7v2.1h-8.9v-1.7c0-6.6,6.9-7.9,6.9-13.6c0-2.1-0.7-3.2-2.4-3.2
			s-2.4,1.2-2.4,3v1.8h-2.1v-1.7c0-3.1,1.4-5.2,4.6-5.2C561,182,562.4,184,562.4,187.1z"/>
		<path class="wireColor" d="M572.8,198.4v4.1h-2.2v-4.1H564v-2.1l6.3-14.2h2.5v14.2h1.6v2.1H572.8z M566.1,196.4h4.5v-10L566.1,196.4z"/>
	</g>
	<g>
		<path class="wireColor" d="M683.9,161.1v0.3h-1.2V161c0-1-0.4-1.6-1.3-1.6c-0.9,0-1.3,0.6-1.3,1.6c0,2.5,3.7,2.7,3.7,5.8
			c0,1.7-0.8,2.7-2.5,2.7s-2.5-1.1-2.5-2.7v-0.6h1.1v0.7c0,1,0.4,1.6,1.3,1.6c0.9,0,1.3-0.6,1.3-1.6c0-2.4-3.7-2.7-3.7-5.8
			c0-1.7,0.8-2.7,2.4-2.7C683.1,158.4,683.9,159.5,683.9,161.1z"/>
		<path class="wireColor" d="M686.2,167.2l-0.4,2.2h-1.1l2.1-11h1.8l2.1,11h-1.2l-0.4-2.2H686.2z M686.4,166.2h2.4l-1.2-6.3L686.4,166.2z"
			/>
		<path class="wireColor" d="M691.6,169.5v-11h1.2v9.9h3.1v1.1H691.6z"/>
		<path class="wireColor" d="M698.1,167.2l-0.4,2.2h-1.1l2.1-11h1.8l2.1,11h-1.2l-0.4-2.2H698.1z M698.2,166.2h2.4l-1.2-6.3L698.2,166.2z"
			/>
		<path class="wireColor" d="M684.8,179.1c0,5.5-6.2,7.5-6.2,11.7v0.3h6v1.9h-8v-1.6c0-5.9,6.2-7,6.2-12.2c0-1.9-0.6-2.9-2.1-2.9
			s-2.1,1.1-2.1,2.7v1.6h-1.9v-1.5c0-2.8,1.3-4.6,4.1-4.6C683.5,174.5,684.8,176.3,684.8,179.1z"/>
		<path class="wireColor" d="M694.9,179.1c0,5.5-6.2,7.5-6.2,11.7v0.3h6v1.9h-8v-1.6c0-5.9,6.2-7,6.2-12.2c0-1.9-0.6-2.9-2.1-2.9
			s-2.1,1.1-2.1,2.7v1.6h-1.9v-1.5c0-2.8,1.3-4.6,4.1-4.6C693.6,174.5,694.9,176.3,694.9,179.1z"/>
		<path class="wireColor" d="M698.8,182.1c0.6-1,1.5-1.5,2.7-1.5c2.3,0,3.4,1.7,3.4,4.3v3.6c0,2.8-1.3,4.6-4.1,4.6s-4.1-1.8-4.1-4.6v-1.2
			h1.9v1.4c0,1.6,0.7,2.6,2.1,2.6s2.1-1,2.1-2.6v-3.6c0-1.6-0.7-2.6-2.1-2.6c-1.1,0-1.9,0.6-2.1,2v0.4h-1.9l0.5-10.2h7.2v1.8H699
			L698.8,182.1z"/>
	</g>
	<g>
		<path class="wireColor" d="M700.3,119.6v0.3h-1.2v-0.4c0-1-0.4-1.6-1.3-1.6c-0.9,0-1.3,0.6-1.3,1.6c0,2.5,3.7,2.7,3.7,5.8
			c0,1.7-0.8,2.7-2.5,2.7s-2.5-1.1-2.5-2.7v-0.6h1.1v0.7c0,1,0.4,1.6,1.3,1.6c0.9,0,1.3-0.6,1.3-1.6c0-2.4-3.7-2.7-3.7-5.8
			c0-1.7,0.8-2.7,2.4-2.7C699.5,116.9,700.3,118,700.3,119.6z"/>
		<path class="wireColor" d="M702.6,125.7l-0.4,2.2H701l2.1-11h1.8l2.1,11h-1.2l-0.4-2.2H702.6z M702.7,124.7h2.4l-1.2-6.3L702.7,124.7z"
			/>
		<path class="wireColor" d="M708,128v-11h1.2v9.9h3.1v1.1H708z"/>
		<path class="wireColor" d="M714.5,125.7l-0.4,2.2H713l2.1-11h1.8l2.1,11h-1.2l-0.4-2.2H714.5z M714.6,124.7h2.4l-1.2-6.3L714.6,124.7z"
			/>
		<path class="wireColor" d="M701.1,137.6c0,5.5-6.2,7.5-6.2,11.7v0.3h6v1.9h-8v-1.6c0-5.9,6.2-7,6.2-12.2c0-1.9-0.6-2.9-2.1-2.9
			s-2.1,1.1-2.1,2.7v1.6H693v-1.5c0-2.8,1.3-4.6,4.1-4.6C699.9,133,701.1,134.8,701.1,137.6z"/>
		<path class="wireColor" d="M711.3,137.6c0,5.5-6.2,7.5-6.2,11.7v0.3h6v1.9h-8v-1.6c0-5.9,6.2-7,6.2-12.2c0-1.9-0.6-2.9-2.1-2.9
			s-2.1,1.1-2.1,2.7v1.6H703v-1.5c0-2.8,1.3-4.6,4.1-4.6C710,133,711.3,134.8,711.3,137.6z"/>
		<path class="wireColor" d="M721.3,137.6v0.3h-1.9v-0.5c0-1.6-0.7-2.6-2.2-2.6s-2.2,1-2.2,3v4.1c0.5-1.3,1.5-2,3-2c2.3,0,3.4,1.7,3.4,4.3
			v2.8c0,2.8-1.4,4.6-4.2,4.6s-4.2-1.8-4.2-4.6v-9.3c0-2.9,1.3-4.7,4.2-4.7C720,133,721.3,134.8,721.3,137.6z M715,144.4v2.7
			c0,1.6,0.7,2.6,2.2,2.6s2.2-1,2.2-2.6v-2.7c0-1.6-0.7-2.6-2.2-2.6C715.7,141.8,715,142.8,715,144.4z"/>
	</g>
</g>
<g id="hotSpot">
	<polygon class="stairsColor" points="353.1,31.4 396.9,31.4 396.9,52.7 353,52.7 	"/>
	<polygon class="stairsColor" points="204.4,54 244.5,70.6 228.6,110.5 187.6,95 	"/>
	<polygon class="stairsColor" points="511,71 551.2,54.4 567.9,95.4 527,110.9 	"/>
	<polygon class="wcColor" points="340,68.4 412.3,67.7 412.1,98.2 340,98.2 	"/>
	<polygon class="stairsColor" points="370.5,200.7 408.7,200.7 408.7,232.9 370.4,232.9 	"/>
</g>
<g id="wire">
	<path class="wireColor" d="M97.5,5.4L96.6,0H74.7L49.8,63.7l0.9,1.1L2.1,65.1V90H0l1.3,111.7H123c6.1,2,101.7,32.8,232.4,33.1v13.7H415
		v-13.7c0.4,0,0.7,0,1.1,0c83.7,0,204.9-31.6,211.1-33.3h123.2V65.3l22.2-60L97.5,5.4L97.5,5.4z M679,38.4V9.1h20.9v29.3H679z
		 M424.1,9.1h35.8v27.6l-35.8-1.8V9.1z M460.6,9.1h25.8V38l-25.8-1.3V9.1z M487.2,9.1h25.2v29.3h-18.5l-6.8-0.3L487.2,9.1L487.2,9.1
		z M513.1,9.1h26.2v29.3h-26.2V9.1z M540,9.1h24.3v29.3H540V9.1z M565.1,9.1h24.7v29.3h-24.7V9.1z M590.6,9.1h26.9v29.3h-26.9V9.1z
		 M618.2,9.1h40v29.3h-40V9.1z M659,9.1h19.2v29.3H659V9.1z M116.9,77.5v34H55.1v0.8h-16V93.7h14.4v-9.5h-2.6l6.4-14.3h41V57.1h19.2
		v10.1h-3.2v10.3H116.9z M4.5,153L3.8,93.8h34.5v48.1H37V153H4.5z M39.1,113h16.1v28.8H39.1V113z M97.8,39.4V9.1h27.1v30.3H97.8z
		 M125.6,9.1h24.6v30.3h-24.6V9.1z M151,9.1h27.3v30.3H151V9.1z M179,9.1h24.5v30.3h-1.1H179V9.1z M204.2,9.1h31.9v30l-31.9,0.3V9.1
		z M236.8,9.1H261v29.7L236.8,39V9.1z M261.8,9.1h23.5v28l-23.5,1.7V9.1z M286.1,9.1h23.4v26.2L286.1,37V9.1z M77.3,3.8h16.1
		l0.9,5.4H97v30.3h-0.6v3.7h-27l-6.5-2.6L77.3,3.8z M62.6,41.3l6.6,2.6h27.2v13.2h1.1v12.1H57.6l0.7-1.6L54.1,63L62.6,41.3z
		 M3.6,66.6L52,66.3l1.8,2L45,88h4.7v2H3.6V66.6z M4.5,154.5h59.8V198H5L4.5,154.5z M65.1,198v-43.5h58V198H65.1z M123.8,198v-43.6
		h66.3v60.2C148.9,206.4,124.4,198.2,123.8,198L123.8,198z M235.8,170.6v51.8c-16.5-2.4-31.6-5-44.9-7.6v-60.3h44.5v16.2
		L235.8,170.6L235.8,170.6z M289.7,170.6v57.7c-10.5-0.8-20.6-1.8-30.3-2.9v-54.8H289.7z M258.7,225.4c-7.6-0.9-15-1.8-22.2-2.9
		v-51.9h22.2V225.4z M290.4,228.4v-57.8h66.1V231C333.3,231.1,311.2,230.1,290.4,228.4z M413.2,231.1h-1.9v1.1h-1.9v-32.3h-2.9
		v-29.5h82.9v54.9c-25.2,3.4-50.7,5.8-73.3,5.8C415.1,231.1,414.1,231.1,413.2,231.1z M375.5,217.9h2.6v0.2v14.1h-2.6v-14.1V217.9z
		 M378.1,201.4v14.9h-2.6v-14.9H378.1z M393.9,201.4v14.9h-2.6v-14.9H393.9z M390.5,216.4h-2v-14.9h2V216.4z M387.7,216.4h-2.6
		v-14.9h2.6V216.4z M384.3,216.4h-2.4v-14.9h2.4V216.4z M381.1,216.4h-2.3v-14.9h2.3V216.4z M378.9,218.1v-0.2h2.3v0.2v14.1h-2.3
		V218.1z M381.9,218.1v-0.2h2.4v0.2v14.1h-2.4V218.1z M385.1,218.1v-0.2h2.6v0.2v14.1h-2.6V218.1z M388.4,218.1v-0.2h2v0.2v14.1h-2
		V218.1z M391.2,218.1v-0.2h2.6v0.2v14.1h-2.6V218.1z M394.6,218.1v-0.2h2.3v-1.5h-2.3v-14.9h10.8l0,0h2.5v30.8h-13.3V218.1z
		 M553.7,155.1h7.6c-0.3,4-3.6,7.1-7.6,7.2V155.1z M553.6,162.5c4.2,0,7.6-3.3,7.9-7.4h46.4v47.5c-20.3,4.9-54.9,12.7-92.7,18.9v-51
		h0.4v-15.4h37.9L553.6,162.5L553.6,162.5z M628,155.1h16.6v42.8H628V155.1z M626.5,197.9c-0.4,0.1-7,1.8-17.9,4.5v-47.3h17.9V197.9
		z M514.4,221.6c-8,1.3-16,2.5-24.2,3.6v-54.8h24.2V221.6z M645.3,197.9v-42.8h6.1v7.4h0.1c4.2,0,7.6-3.3,7.9-7.4h7.6v-0.4h79.6
		v43.2H645.3z M651.6,155.1h7.6c-0.3,4-3.6,7.1-7.6,7.2V155.1z M615.8,112.4V65.6h31.7v46.8C647.5,112.4,615.8,112.4,615.8,112.4z
		 M648.2,65.6h27.6v47.2H667v-0.4h-18.9V65.6H648.2z M676.6,86.3h15.5v12.1h-15.5V86.3z M692.1,85.5h-15.5V74.1h15.5V85.5z
		 M676.6,99.1h15.5v13.6h-15.5V99.1z M746.7,113.5v40.4h-79.6v-40.4C667.1,113.5,746.7,113.5,746.7,113.5z M746.7,112.7h-53.8V65.6
		h53.8V112.7z M692.1,73.4h-15.5v-7.8h15.5V73.4z M665.6,135.4c-3.9-0.3-7-3.6-7.1-7.6h7.1V135.4z M746.9,64.1H614.3v49.8h51.3v13.7
		h-7.3v0.1c0,4.2,3.2,7.6,7.3,7.9v17.9h-96.5v-13.9h32.5V63.4h-46l-4.1-10l-14.2,5.9l-2.7-6.6v-0.1h-0.1c-2,0.8-3.5,2.3-4.3,4.3
		c-0.7,1.6-0.8,3.3-0.4,4.9c-0.9-1.4-2.1-2.5-3.7-3.2c-2-0.8-4.1-0.8-6.1,0h-0.1l2.8,6.8l-12.6,5.2l16.2,40.6h-15.5v29.7h48.8v-2.8
		h8v1.6v13.9H514V169H405v31h-34.5v1.5h4.2v14.9h-4.3v1.5h4.3v0.2v14.1H370v1.5h37.8l0,0h3.4v11.1h-52.1v-13.7H358v-61.9H236.9V153
		H38.5v-9.6h18.1V113h61.7V76h-2.6v-7.3h3.2V55.6h-21V40.9h104.5l59.3-0.6l49.2-3.6V9.1h14.9V34l-5.2,1l0.1,0.7l5.8-1.1V9.1h96v27.2
		l71.3,3.5h205.6v24h1.5V38.4h-0.4V9.1h66.7L746.9,64.1z M530.1,62.3c-0.6-1.7-0.5-3.6,0.2-5.3c0.8-1.9,2.2-3.3,4.1-4.1l2.7,6.5
		L530.1,62.3z M522.8,65.3l-2.7-6.6c3.7-1.5,7.9,0.2,9.7,3.7L522.8,65.3z M550.7,55.3l4.2,10.3l-12.3,4.7l-0.5-1.4l-13.8,5.3
		l0.5,1.4l-13.1,5.1l0.3,0.7l13.1-5.1l0.7,1.9l-13.1,5.1L517,84l13.1-5.1l0.7,1.8l-13.1,5.1L512,71.4L550.7,55.3z M569.1,112.1v-5.9
		h25.4v-0.8h-25.4V95h10.8V64.9h20.2v73.3h-31V112.1z M578.4,93.5H568l-11.7-28.6h22.1L578.4,93.5L578.4,93.5z M542.5,104.2
		l-3.7-9.6l1.7-0.6l3.7,9.6L542.5,104.2z M530.3,75.2l11-4.2l7.1,18.4l-11,4.2L530.3,75.2z M548.8,86.3l12.6-4.9l0.7,1.8l-12.6,4.9
		L548.8,86.3z M548.6,85.6l-0.7-1.8l12.5-4.8l0.7,1.8L548.6,85.6z M547.6,83.1l-0.7-1.8l12.5-4.8l0.7,1.8L547.6,83.1z M546.6,80.5
		l-0.7-1.8l12.4-4.8l0.7,1.8L546.6,80.5z M545.6,78l-0.7-1.8l12.4-4.8l0.7,1.8L545.6,78z M544.7,75.5l-0.7-1.8l12.3-4.8l0.7,1.8
		L544.7,75.5z M556,68.2L543.7,73l-0.7-1.9l12.3-4.7L556,68.2z M544.9,103.3l-3.7-9.6L543,93l3.7,9.6L544.9,103.3z M547.5,102.3
		l-3.7-9.6l1.8-0.7l3.7,9.6L547.5,102.3z M550,101.4l-3.7-9.6l1.8-0.7l3.7,9.6L550,101.4z M552.5,100.4l-3.7-9.6l1.6-0.6l-0.5-1.4
		l12.6-4.9L567,95L552.5,100.4z M531.2,81.5l0.7,1.8l-13.1,5.1l-0.7-1.8L531.2,81.5z M532.1,84l0.7,1.8l-13.1,5L519,89L532.1,84z
		 M533.1,86.5l0.7,1.8l-13,5l-0.7-1.8L533.1,86.5z M534.1,89.1l0.7,1.8l-13,5l-0.7-1.8L534.1,89.1z M535.1,91.6l0.7,1.8l-13,5
		l-0.7-1.8L535.1,91.6z M536.1,94.1l0.5,1.4l1.6-0.6l3.7,9.6l-14.5,5.4l-4.3-10.8L536.1,94.1z M567.6,96.4v14.8h-39.3L567.6,96.4z
		 M567.6,111.9v0.2v25.2h-8.8v2.8h-47.3v-28.2C511.5,111.9,567.6,111.9,567.6,111.9z"/>
	<path class="wireColor" d="M234.1,65.4l2.9-6.9v-0.1h-0.1c-2-0.8-4.1-0.8-6.1,0c-1.6,0.6-2.9,1.8-3.7,3.2c0.4-1.6,0.3-3.3-0.4-4.9
		c-0.8-2-2.3-3.5-4.3-4.3h-0.1l-3,7.1L204,53l-4.1,10h-60.1v80.2h98.5V111h-9.2l16.3-40.8L234.1,65.4z M230.9,58.5
		c1.9-0.8,3.9-0.8,5.8,0l-2.9,6.8l-7-2.9C227.7,60.7,229.1,59.3,230.9,58.5z M222.5,52.5c1.9,0.8,3.3,2.3,4.1,4.2
		c0.7,1.8,0.8,3.8,0.1,5.6l-7-2.9L222.5,52.5z M204.8,54.9l38.7,16l-3.9,9.8L227,75.8l0.5-1.4l-13.7-5.3l-0.5,1.4l-12.7-5
		L204.8,54.9z M187.6,93.1h-10.4V72.3l15.8,7.5L187.6,93.1z M200.2,66.2l12.8,5l-0.7,1.9l-12.8-5L200.2,66.2z M218.5,93.6l-11-4.3
		l7.1-18.4l11,4.3L218.5,93.6z M206.4,88.2l-13.1-5.1l0.7-1.8l13,5.1L206.4,88.2z M199.2,68.7l12.8,5l-0.7,1.8l-12.8-5L199.2,68.7z
		 M198.2,71.3l12.8,5l-0.7,1.8l-12.9-5L198.2,71.3z M197.1,73.8l12.9,5l-0.7,1.8l-12.9-5L197.1,73.8z M196.1,76.3l12.9,5l-0.7,1.8
		l-13-5L196.1,76.3z M195.1,78.8l13,5l-0.7,1.8l-13-5.1L195.1,78.8z M193,83.8l13.1,5.1l-0.5,1.4l1.6,0.6l-3.6,9.3l-14.9-5.6
		L193,83.8z M207.8,91.1l1.7,0.7l-3.6,9.3l-1.7-0.6L207.8,91.1z M210.2,92.1l1.8,0.7l-3.6,9.3l-1.8-0.7L210.2,92.1z M212.7,93
		l1.8,0.7L211,103l-1.8-0.7L212.7,93z M215.3,94l1.8,0.7l-3.6,9.2l-1.8-0.7L215.3,94z M217.7,95l1.6,0.6l0.5-1.4l12.5,4.9l-4.2,10.4
		l-14-5.3L217.7,95z M220.1,93.5l0.7-1.8l12.5,4.9l-0.7,1.8L220.1,93.5z M221.1,91l0.7-1.8l12.6,4.9l-0.7,1.8L221.1,91z M222.1,88.5
		l0.7-1.8l12.6,4.9l-0.7,1.8L222.1,88.5z M223.1,85.9l0.7-1.8l12.6,4.9l-0.7,1.8L223.1,85.9z M224,83.4l0.7-1.8l12.6,4.9l-0.7,1.8
		L224,83.4z M225,80.9l0.7-1.8l12.6,4.9l-0.7,1.8L225,80.9z M226,78.4l0.7-1.9l12.7,4.9l-0.7,1.9L226,78.4z M199.3,64.5l-6,14.7
		l-16.1-7.6v-7L199.3,64.5L199.3,64.5z M175.7,90.7h-7V64.5h7V90.7z M167.2,64.5v26.3v0.8V95h-25.9V64.5H167.2z M145.1,96.5h20.6
		v3.8h-20.6V96.5z M236.9,141.7h-95.5V96.5h2.2v5.3h23.6v-5.3h1.6v-4.2h7v2.3h10.8v17.9H237v29.2H236.9z M188,110.9V96l39.8,15
		L188,110.9L188,110.9z"/>
	<path class="wireColor" d="M411.6,67h-71.2h-0.8h-80.8l-1.4,89.4h82.1h0.8h69.9h0.8h82.1V67h-80.8H411.6z M340.3,140.2V98.9h34.3v41.3
		H340.3z M374.6,84.2V85v12.5h-4v-29h4V84.2z M376.1,68.5h13.8v15.7h-13.8V68.5z M376.1,98.9h35l-0.6,41.3h-34.3V98.9H376.1z
		 M411.1,97.4h-35V85.7h15.3V68.5h20.1L411.1,97.4z M369.2,68.5v29h-28.8v-29H369.2z M338.8,154.9H259l1.3-86.4h78.5V154.9z
		 M340.3,141.7H370v13.2h-29.7V141.7z M370.8,154.9v-13.2h39.6l-0.2,13.2H370.8z M413,68.5h78.5v86.4h-79.9L413,68.5z"/>
	<path class="wireColor" d="M397.6,30.6h-45.3l-0.1,22.8h45.4V30.6z M353.8,32.1h20.8v19.8h-20.9L353.8,32.1z M396.1,51.9h-20V32.1h20
		V51.9z"/>
</g>
<g id="eventSpot">
	<path id="sala224" class="eventColor" d="M608.6,202.4v-47.3h17.9V198C626.1,198,619.6,199.8,608.6,202.4z M553.7,155.1v7.2
		c4-0.1,7.3-3.2,7.6-7.2H553.7z M515.5,155.1v15.4h-0.4v51c37.8-6.2,72.4-14,92.7-18.9v-47.5h-46.4c-0.3,4.1-3.7,7.4-7.9,7.4h-0.1
		v-7.4H515.5z"/>
	<path id="sala225" class="eventColor" d="M644.6,155.1v42.8H628v-42.8H644.6z M645.3,155.1v42.8h101.3v-43.2H667v0.4h-7.6
		c-0.3,4.1-3.7,7.4-7.9,7.4h-0.1v-7.4H645.3z M651.6,155.1v7.2c4-0.1,7.3-3.2,7.6-7.2H651.6z"/>
	<rect id="sala226" x="667.1" y="113.5" class="eventColor" width="79.6" height="40.4"/>
</g>
<g id="guideSpot">
	<circle id="CMBIN-1-D14" class="wireColor" cx="639.9" cy="124.3" r="5.1"/>
	<circle id="CMBIN-1-D13" class="wireColor" cx="441.8" cy="44" r="5.1"/>
	<circle id="CMBIN-1-D12" class="wireColor" cx="366.4" cy="184.4" r="5.1"/>
	<circle id="CMBIN-1-D11" class="wireColor" cx="286.8" cy="45.5" r="5.1"/>
</g>
</svg>
