<?xml version="1.0" encoding="utf-8"?>
<!-- Generator: Adobe Illustrator 20.0.0, SVG Export Plug-In . SVG Version: 6.00 Build 0)  -->
<svg version="1.1" id="Warstwa_1" xmlns="http://www.w3.org/2000/svg" xmlns:xlink="http://www.w3.org/1999/xlink" x="0px" y="0px"
	 viewBox="0 0 772.6 248.6" style="enable-background:new 0 0 772.6 248.6;" xml:space="preserve">
<style type="text/css">.wireColor{fill: #777777;}.nofloorColor{fill: #F2F2F2;}.arrowColor{fill: #EA5906;}.eventColor{opacity: 0.3; fill: #F59E16; transition: 1s fill;}.wcColor{opacity: 0.3; fill: #3693B2;}.stairsColor{opacity: 0.3; fill: #73cc15;}.transparentObject{fill: 0;}.riverColor{fill: #B9DDEF;}.mapElements{fill: #E2E2E2;}.tramColor{fill: #73CC15;}.mapArrows{fill: #BFBFBF;}.buildingFill{fill: #E5E5E5;}.eventColor.active{opacity: 0.3; fill: red; -webkit-animation: alertOpacity 2s infinite alternate; animation: alertOpacity 2s infinite alternate;}@-webkit-keyframes alertOpacity{0%{opacity: 0.3;}50%{opacity: 0.5;}100%{opacity: 0.3;}}@keyframes alertOpacity{0%{opacity: 0.3;}50%{opacity: 0.5;}100%{opacity: 0.3;}}#guideSpot .eventColor.active{fill: red; opacity: 1; r: 10; transform-origin: 150px 150px; -webkit-transform-origin: 50% 50%; -webkit-animation: alertScale 2s infinite alternate; animation: alertScale 2s infinite alternate;}@-webkit-keyframes alertScale{0%{-webkit-transform: scale(1, 1);}50%{-webkit-transform: scale(2, 2);}100%{-webkit-transform: scale(1, 1);}}@keyframes alertScale{0%{transform: scale(1, 1);}50%{transform: scale(2, 2);}100%{transform: scale(1, 1);}}</style>
<g id="description">
	<g>
		<path class="wireColor" d="M650.1,84.1V72.9h1.3V83h3.2v1.1H650.1z"/>
		<path class="wireColor" d="M656.8,81.9l-0.4,2.3h-1.2l2.2-11.2h1.8l2.2,11.2h-1.3l-0.4-2.3H656.8z M656.9,80.8h2.5l-1.3-6.5L656.9,80.8z
			"/>
		<path class="wireColor" d="M664.8,72.9c1.8,0,2.4,0.8,2.4,2.5v0.5c0,1.2-0.3,1.9-1.3,2.2c1.1,0.3,1.5,1.2,1.5,2.4v0.9
			c0,1.7-0.8,2.6-2.6,2.6h-2.6V72.9H664.8z M664.5,77.7c1,0,1.5-0.3,1.5-1.5v-0.7c0-1-0.3-1.5-1.2-1.5h-1.2v3.6L664.5,77.7
			L664.5,77.7z M664.9,83c0.9,0,1.3-0.5,1.3-1.5v-1c0-1.3-0.5-1.7-1.6-1.7h-1.1V83H664.9z"/>
		<path class="wireColor" d="M668.5,75.6c0-1.7,0.9-2.8,2.6-2.8c1.7,0,2.6,1.1,2.6,2.8v5.8c0,1.7-0.9,2.8-2.6,2.8c-1.7,0-2.6-1.1-2.6-2.8
			V75.6z M669.7,81.5c0,1,0.4,1.6,1.3,1.6c0.9,0,1.3-0.6,1.3-1.6v-5.9c0-1-0.4-1.6-1.3-1.6c-0.9,0-1.3,0.6-1.3,1.6V81.5z"/>
		<path class="wireColor" d="M677.3,72.9c1.8,0,2.5,0.9,2.5,2.6v0.9c0,1.2-0.4,2-1.4,2.3c1,0.3,1.4,1.1,1.4,2.3v1.8c0,0.5,0,1,0.2,1.3
			h-1.3c-0.1-0.3-0.2-0.6-0.2-1.4V81c0-1.3-0.6-1.7-1.6-1.7H676v4.8h-1.3V72.9H677.3z M677,78.2c1,0,1.6-0.3,1.6-1.5v-1.1
			c0-1-0.4-1.5-1.3-1.5h-1.2v4.2L677,78.2L677,78.2z"/>
		<path class="wireColor" d="M682.4,81.9l-0.4,2.3h-1.2L683,73h1.8l2.2,11.2h-1.3l-0.4-2.3H682.4z M682.6,80.8h2.5l-1.3-6.5L682.6,80.8z"
			/>
		<path class="wireColor" d="M689.6,84.1V74h-2.1v-1.1h5.4V74h-2.1v10.1H689.6z"/>
		<path class="wireColor" d="M693.7,75.6c0-1.7,0.9-2.8,2.6-2.8c1.7,0,2.6,1.1,2.6,2.8v5.8c0,1.7-0.9,2.8-2.6,2.8c-1.7,0-2.6-1.1-2.6-2.8
			V75.6z M694.9,81.5c0,1,0.4,1.6,1.3,1.6c0.9,0,1.3-0.6,1.3-1.6v-5.9c0-1-0.4-1.6-1.3-1.6c-0.9,0-1.3,0.6-1.3,1.6V81.5z"/>
		<path class="wireColor" d="M702.5,72.9c1.8,0,2.5,0.9,2.5,2.6v0.9c0,1.2-0.4,2-1.4,2.3c1,0.3,1.4,1.1,1.4,2.3v1.8c0,0.5,0,1,0.2,1.3H704
			c-0.1-0.3-0.2-0.6-0.2-1.4V81c0-1.3-0.6-1.7-1.6-1.7h-0.9v4.8H700V72.9H702.5z M702.2,78.2c1,0,1.6-0.3,1.6-1.5v-1.1
			c0-1-0.4-1.5-1.3-1.5h-1.2v4.2L702.2,78.2L702.2,78.2z"/>
		<path class="wireColor" d="M707.6,72.9v11.2h-1.3V72.9H707.6z"/>
		<path class="wireColor" d="M710.1,81.5c0,1,0.4,1.6,1.3,1.6c0.9,0,1.3-0.6,1.3-1.6v-8.6h1.2v8.5c0,1.7-0.8,2.8-2.5,2.8s-2.5-1.1-2.5-2.8
			v-8.5h1.2V81.5z"/>
		<path class="wireColor" d="M719.3,84.1H718l-1.9-8.9v9H715V72.9h1.8l1.8,9l1.8-9h1.8v11.2H721v-9L719.3,84.1z"/>
		<path class="wireColor" d="M679.8,104.5v3.8h-2v-3.8h-6.1v-1.9l5.8-13.1h2.3v13.1h1.5v1.9H679.8z M673.6,102.6h4.1v-9.2L673.6,102.6z"/>
		<path class="wireColor" d="M691.2,94v0.5c0,1.9-0.8,3.3-2.3,3.9c1.6,0.6,2.3,2,2.3,3.9v1.4c0,2.9-1.3,4.7-4.2,4.7s-4.2-1.9-4.2-4.7v-1.3
			h2v1.4c0,1.7,0.7,2.7,2.2,2.7s2.2-1,2.2-2.9v-1.4c0-1.8-0.8-2.7-2.4-2.8h-1.1v-1.9h1.2c1.4-0.1,2.2-0.9,2.2-2.6V94
			c0-1.9-0.7-2.9-2.2-2.9s-2.2,1-2.2,2.7v1h-2V94c0-2.9,1.3-4.7,4.2-4.7C689.9,89.3,691.2,91.2,691.2,94z"/>
		<path class="wireColor" d="M697.1,92.9c-0.7,0.4-1.6,0.7-2.6,0.8V92c2-0.1,2.7-1.2,3.2-2.5h1.4v18.7H697L697.1,92.9L697.1,92.9z"/>
	</g>
	<g>
		<path class="wireColor" d="M352.6,90.2h-2.2l-2-14.3h1.6l1.7,12.2l1.6-12.2h1.6l1.6,12.2l1.6-12.2h1.4l-1.9,14.3h-2.1l-1.4-9.7
			L352.6,90.2z"/>
		<path class="wireColor" d="M367,79.3v1.3h-1.5v-1.4c0-1.3-0.5-2.1-1.7-2.1c-1.1,0-1.7,0.8-1.7,2.1v7.6c0,1.3,0.5,2.1,1.7,2.1
			s1.7-0.8,1.7-2.1v-1.9h1.5v1.8c0,2.2-1,3.6-3.2,3.6s-3.2-1.4-3.2-3.6v-7.4c0-2.2,1-3.6,3.2-3.6C366,75.7,367,77.1,367,79.3z"/>
	</g>
	<g>
		<path class="wireColor" d="M388.6,90.2h-2.2l-2-14.3h1.6l1.7,12.2l1.6-12.2h1.6l1.6,12.2l1.6-12.2h1.4l-1.9,14.3h-2.1l-1.4-9.7
			L388.6,90.2z"/>
		<path class="wireColor" d="M403,79.3v1.3h-1.5v-1.4c0-1.3-0.5-2.1-1.7-2.1c-1.1,0-1.7,0.8-1.7,2.1v7.6c0,1.3,0.5,2.1,1.7,2.1
			s1.7-0.8,1.7-2.1v-1.9h1.5v1.8c0,2.2-1,3.6-3.2,3.6s-3.2-1.4-3.2-3.6v-7.4c0-2.2,1-3.6,3.2-3.6C402,75.7,403,77.1,403,79.3z"/>
	</g>
</g>
<g id="hotSpot">
	<path class="stairsColor" d="M354.7,29h43.9c0,0,0.8,21.7,0,21.7s-43.9,0-43.9,0V29z"/>
	<polygon class="wcColor" points="340.1,67.6 413,67.6 413,98.3 340,98.3 	"/>
	<polygon class="stairsColor" points="511,69.7 551.1,53.1 567.8,94 526.9,109.6 	"/>
	<polygon class="stairsColor" points="204.3,51.4 204.8,51.6 244.4,68 228.5,107.9 187.5,92.5 	"/>
	<polygon class="stairsColor" points="413,231.9 413,201.7 409.2,201.7 409.2,199.6 375.2,199.6 375.2,231.5 	"/>
</g>
<g id="wire">
	<path class="wireColor" d="M97.5,5.4L96.6,0H74.7L49.8,63.7l4,4.6L45,88h4.7v2H0l1.3,111.7H123c6.1,2,101.7,32.8,232.4,33.1v13.7H415
		v-13.7c0.4,0,0.7,0,1.1,0c83.7,0,204.9-31.6,211.1-33.3h123.2V65.3l22.2-60L97.5,5.4L97.5,5.4z M746.7,113.2h-41.2v-0.4h-9.4v-7.2
		H696c-4.1,0-7.5,3.2-7.9,7.2h-48.4V66.5h64.2v-1.3h42.8L746.7,113.2L746.7,113.2z M683.1,154.6h18.2v43.3h-52.5v-20.3h34.3V154.6z
		 M702,154.6h3.4v-24.5h41.2v34.2H702V154.6z M705.5,129.4V114h41.2v15.4H705.5z M695.8,112.8h-7.6c0.4-3.9,3.6-6.9,7.6-7V112.8z
		 M619.6,112.8V66.5h19.3v46.4L619.6,112.8L619.6,112.8z M661.4,65h-7.6c0.4-3.9,3.6-6.9,7.6-7V65z M673.3,38.3V9.1H707v29.5h-3.2
		v-0.4L673.3,38.3z M424.8,9.1H452v25.7l-27.2-1.6V9.1z M452.7,9.1h28.9v27.4l-28.9-1.7V9.1z M482.4,9.1h31.5v29.2h-1.1l-30.4-1.8
		L482.4,9.1L482.4,9.1z M514.6,9.1h25.9v29.2h-25.9V9.1z M541.3,9.1h25.1v29.2h-25.1V9.1z M567.1,9.1h25.7v29.2h-25.7V9.1z
		 M593.5,9.1h24.2v29.2h-24.2V9.1z M618.5,9.1h26.4v29.2h-26.4V9.1z M645.7,9.1h26.9v29.2h-26.9V9.1z M132.6,38.2V9.1h30.6v29.1
		H132.6z M164,9.1h24.7v29.1H164V9.1z M189.4,9.1h26.8v29.1h-26.8V9.1z M217,9.1h25.5v29.1H217V9.1z M243.2,9.1h24.4v28l-16.9,1.1
		h-7.5L243.2,9.1L243.2,9.1z M268.4,9.1h27.4v26.1L268.4,37V9.1z M296.6,9.1h28.3v24.2l-28.3,1.9V9.1z M131.9,9.1v29.1H96.3V9.1
		H131.9z M77.3,3.8h16.1l0.9,5.4h1.2v29.1h-3.8v18.1H68.8l-10.1-5.1L77.3,3.8z M53.5,93.7v-9.5h-2.6l7.4-16.6L54.1,63l4.3-11.1
		L68.5,57h23.2v8h23.6v47.3H47.5v0.4h-4.6v-19L53.5,93.7z M47.5,154.6v1.6h43V198H29.3v-43.3L47.5,154.6L47.5,154.6z M42.2,93.7
		v19.8h5.3v40.4h-43L3.8,93.8L42.2,93.7z M4.5,154.6h24V198H5L4.5,154.6z M123.6,198H91.2v-41.8H124v41.9c-0.1,0-0.1,0-0.2-0.1
		H123.6z M237.1,170.5v29.6h-21.8v-43.9H235v14.3L237.1,170.5L237.1,170.5z M355.6,200.1h-41.5v-29.6h41.5V200.1z M313.4,200.1
		h-27.8v-29.6h27.8V200.1z M284.8,200.1h-46.9v-29.6h46.9V200.1z M214.6,200.1h-84c-2.8-0.8-4.7-1.5-5.8-1.8v-42.2h89.8V200.1z
		 M135.7,201.6h219.9V231C248.7,230.9,165.5,210.2,135.7,201.6z M359.2,244.8v-13.7h-1.9c-0.1,0-0.1,0-0.2,0v-29.4v-0.8V169H236.6
		v-14.3H49v-40.8h67.8v-1.4h23v28.1h98.5V113h22.5v43.1h79.7l0,0l72.5-0.3h84V66.9h-84h-0.8h-71.4H340h-79.3v45.4h-22.5v-3.9H229
		l16.3-40.8l-13-5.4l2.9-6.9h-0.1c-3.7-1.5-7.8-0.1-9.8,3.2c0.4-1.6,0.3-3.3-0.4-4.9c-0.8-2-2.3-3.5-4.3-4.3h-0.1l-2.9,6.9
		l-13.8-5.7l-4.1,10h-60.1v51.3h-23V63.6H93.2V39.7h157.5l75.6-4.9V9.1h97v25.5l58.3,3.4l0,0h0.8l0,0l30.4,1.8h189.6V65h-40.7v-7.2
		h-0.1c-4.1,0-7.5,3.2-7.9,7.2h-35.6v49.4H704v38.8H515.9v17.4H408.4v1.8h-36v27.4h7.1V215h-4.3v1.5h4.3v0.2v14.1h-4.7v1.5h36.4
		v12.6h-52V244.8z M225.2,59.2c1.8-3.6,6.1-5.3,9.8-3.8l-2.8,6.7L225.2,59.2z M217.9,56.2l2.8-6.7c1.9,0.8,3.3,2.3,4.1,4.2
		c0.7,1.8,0.8,3.7,0.1,5.5L217.9,56.2z M243.5,68.4l-3.7,9.3l-12.9-5l0.5-1.4L213.6,66l-0.5,1.4l-12.5-4.9l4.1-10.1L243.5,68.4z
		 M141.3,93.5h2.6v5.3h22.8v-5.3h1.6v-4.2h7.3V92h10.8v17.9h50.4v29.2h-95.5L141.3,93.5L141.3,93.5z M144.6,93.5h21.3v4.6h-21.3
		V93.5z M177.1,69.8l15.8,7.5l-5.4,13.2h-10.4L177.1,69.8L177.1,69.8z M200.3,63.2l12.5,4.9l-0.7,1.9l-12.6-4.9L200.3,63.2z
		 M218.3,90.6l-11-4.3l7.1-18.4l11,4.3L218.3,90.6z M211.3,100.6l3.8-9.7l1.8,0.7l-3.8,9.7L211.3,100.6z M206.2,85.1l-12.8-5
		l0.7-1.8l12.8,5L206.2,85.1z M193.1,80.8l12.9,5l-0.5,1.4l1.6,0.6l-3.8,9.8L188.5,92L193.1,80.8z M207.7,88.1l1.7,0.7l-3.8,9.8
		l-1.7-0.6L207.7,88.1z M210.1,89l1.8,0.7l-3.8,9.7l-1.8-0.7L210.1,89z M212.6,90l1.8,0.7l-3.8,9.7l-1.8-0.7L212.6,90z M199.2,65.8
		l12.6,4.9l-0.7,1.8l-12.6-4.9L199.2,65.8z M198.2,68.3l12.6,4.9l-0.7,1.8l-12.7-4.9L198.2,68.3z M197.2,70.8l12.7,4.9l-0.7,1.8
		l-12.7-4.9L197.2,70.8z M196.2,73.3l12.7,4.9l-0.7,1.8l-12.8-5L196.2,73.3z M195.1,75.8l12.8,5l-0.7,1.8l-12.8-5L195.1,75.8z
		 M187.9,108.4v-15l39.8,15H187.9z M213.8,101.6l3.8-9.7l1.6,0.6l0.5-1.4l12.7,4.9l-4.3,10.9L213.8,101.6z M232.7,95.4l-12.7-5
		l0.7-1.8l12.7,4.9L232.7,95.4z M233.7,92.9L221,88l0.7-1.8l12.8,5L233.7,92.9z M234.7,90.3l-12.8-5l0.7-1.8l12.8,5L234.7,90.3z
		 M235.7,87.8l-12.8-5l0.7-1.8l12.8,5L235.7,87.8z M236.7,85.3l-12.8-5l0.7-1.8l12.8,5L236.7,85.3z M237.7,82.8l-12.8-5l0.7-1.8
		l12.9,5L237.7,82.8z M238.7,80.3l-12.9-5l0.7-1.9l12.9,5L238.7,80.3z M193.2,76.6L177.1,69v-7h22.1L193.2,76.6z M175.6,88.6h-7.3
		V61.9h7.3V88.6z M167.5,88.6V89v3.9h-26.2v-31h26.2V88.6z M262.3,154.6V68.4h77.1l-0.4,86.2H262.3z M340.9,68.4H371v29.5h-30.2
		L340.9,68.4z M412.3,140.7h-35.1v-42h35.1V140.7z M412.3,97.9h-35.1V85.4h15.3v-17h19.8L412.3,97.9L412.3,97.9z M391.7,84.6h-14.6
		V68.4h14.6V84.6z M376.4,84.6V85v12.9h-4.7V68.4h4.7V84.6z M340.7,98.6h35.7v42h-35.8v0.8h71.7v12.9l-40.1,0.2v-13h-0.8v13
		l-30.9,0.1L340.7,98.6z M413.8,154.3V68.4h81.8v85.9H413.8z M517,200.9v-29h0.4v-17.4h52.3v46.3L517,200.9L517,200.9z M412.3,230.7
		h-12.8v-14.1v-0.2h2.3V215h-2.3v-15.3h9v2.8h3.8V230.7z M380.3,216.5h2.6v0.2v14.1h-2.6v-14.1V216.5z M408.4,198.9h-35.2V173h35.2
		V198.9z M385.9,199.6V215h-2.3v-15.3L385.9,199.6L385.9,199.6z M386.7,199.6h2.4V215h-2.4V199.6z M389.8,199.6h2.6V215h-2.6V199.6z
		 M393.2,199.6h2V215h-2V199.6z M396,199.6h2.6V215H396V199.6z M382.9,199.6V215h-2.6v-15.3L382.9,199.6L382.9,199.6z M383.7,216.7
		v-0.2h2.3v0.2v14.1h-2.3V216.7z M386.7,216.7v-0.2h2.4v0.2v14.1h-2.4V216.7z M389.8,216.7v-0.2h2.6v0.2v14.1h-2.6V216.7z
		 M393.2,216.7v-0.2h2v0.2v14.1h-2V216.7z M396,216.7v-0.2h2.6v0.2v14.1H396V216.7z M409.9,200.9v-29H452v29H409.9z M452.8,171.9
		h63.5v29h-63.5V171.9z M413.8,231.1v-28.7h194.8C570.4,211.6,479.6,231.6,413.8,231.1z M626.8,197.9l-0.2,0.1
		c-0.2,0.1-4.5,1.2-11.8,3h-44.3v-46.3h111.9v22.2H648V198h-21.2V197.9z M702,197.9v-32.8h44.6v32.8H702z M746.8,64.4L746.8,64.4
		l-42.9,0.1V39.4h3.9V9.1h59.5L746.8,64.4z"/>
	<path class="wireColor" d="M354,51.4h45.4V28.6h-45.3L354,51.4z M397.9,49.9h-20V30.1h20V49.9z M355.6,30.1h20.8v19.8h-20.9L355.6,30.1z"
		/>
	<path class="wireColor" d="M510.7,109.9v29.7h48.8v-2.8h7.9v5.4h40.4V64.4h-29.9v0.4h-21.3l-5.2-12.6l-13.6,5.6L535,51h-0.1
		c-2,0.8-3.5,2.3-4.3,4.3c-0.7,1.6-0.8,3.3-0.4,4.9c-2-3.3-6.2-4.7-9.8-3.2h-0.1l2.8,6.9L510,69.3l16.2,40.6H510.7z M558.8,136.1
		v2.8h-47.3v-28.2h56v25.4H558.8z M606.3,65.9v26.5H580l-0.6-26.5H606.3z M580,93.8h26.3v46.8h-37.4V93.8h10.3H580z M577.9,65.5
		l0.6,26.8h-10.6l-11-26.8H577.9z M529.5,76.7l-12.9,5l-0.7-1.9l12.9-5L529.5,76.7z M556.8,69l-12.6,4.9l-0.7-1.8l12.5-4.8L556.8,69
		z M548.4,84.7l12.8-4.9l0.7,1.8l-12.8,5L548.4,84.7z M548.1,84l-0.7-1.8l12.7-4.9l0.7,1.8L548.1,84z M547.2,81.5l-0.7-1.8l12.7-4.9
		l0.7,1.8L547.2,81.5z M546.2,79l-0.7-1.8l12.6-4.9l0.7,1.8L546.2,79z M545.2,76.4l-0.7-1.8l12.6-4.9l0.7,1.8L545.2,76.4z
		 M543.3,71.4l-0.7-1.9l12.5-4.8l0.8,1.9L543.3,71.4z M548,87.8L537,92l-7.1-18.4l11-4.2L548,87.8z M529.8,77.4l0.7,1.8l-12.9,5
		l-0.7-1.8L529.8,77.4z M530.7,79.9l0.7,1.8l-12.9,5l-0.7-1.8L530.7,79.9z M531.7,82.4l0.7,1.8l-12.8,5l-0.7-1.8L531.7,82.4z
		 M532.7,85l0.7,1.8l-12.8,4.9l-0.7-1.8L532.7,85z M533.7,87.5l0.7,1.8l-12.8,4.9l-0.7-1.8L533.7,87.5z M534.6,90l0.7,1.8l-12.7,4.9
		l-0.7-1.8L534.6,90z M535.6,92.6l0.5,1.4l1.6-0.6l3.8,9.9l-14.2,5.4l-4.5-11.1L535.6,92.6z M542.3,103l-3.8-9.9l1.7-0.6l3.8,10
		L542.3,103z M544.7,102.1l-3.8-10l1.8-0.7l3.9,10L544.7,102.1z M547.2,101.1l-3.9-10l1.8-0.7l3.9,10L547.2,101.1z M549.7,100.2
		l-3.9-10l1.8-0.7l3.9,10L549.7,100.2z M552.2,99.3l-3.9-10l1.6-0.6l-0.5-1.4l12.8-5l4.7,11.4L552.2,99.3z M530.9,55.3
		c0.8-1.9,2.2-3.3,4.1-4.1l2.7,6.6l-7,2.9C530.1,59,530.2,57.1,530.9,55.3z M520.7,57.1c3.7-1.5,8,0.2,9.8,3.7l-7,2.9L520.7,57.1z
		 M550.7,54.1l4.1,9.9l-12.5,4.8l-0.5-1.4L528,72.8l0.5,1.4l-13,5l-3.6-9L550.7,54.1z M567.4,95.1v14.8h-39.2L567.4,95.1z"/>
	<rect x="423" y="123.1" class="wireColor" width="60.5" height="0.8"/>
</g>
<g id="eventSpot">
	<path id="sala431" class="eventColor" d="M705.5,113.2v-0.4h-9.4v-7.2H696c-4.1,0-7.5,3.2-7.9,7.2h-48.4V66.5h64.2v-1.3h42.8v48H705.5z
		 M638.9,112.8V66.5h-19.3v46.4L638.9,112.8L638.9,112.8z M695.8,112.8v-7c-4,0.1-7.2,3.1-7.6,7H695.8z"/>
</g>
<g id="guideSpot">
	<circle id="CMBIN-3-D33" class="wireColor" cx="448.2" cy="48" r="5.1"/>
	<circle id="CMBIN-3-D32" class="wireColor" cx="365.6" cy="215.7" r="5.1"/>
	<circle id="CMBIN-3-D31" class="wireColor" cx="299.6" cy="47.4" r="5.1"/>
</g>
</svg>
