<?xml version="1.0" encoding="utf-8"?>
<!-- Generator: Adobe Illustrator 20.0.0, SVG Export Plug-In . SVG Version: 6.00 Build 0)  -->
<svg version="1.1" xmlns="http://www.w3.org/2000/svg" xmlns:xlink="http://www.w3.org/1999/xlink" x="0px" y="0px"
	 viewBox="0 0 604.3 665" style="enable-background:new 0 0 604.3 665;" xml:space="preserve">
<style type="text/css">.wireColor{fill: #777777;}.nofloorColor{fill: #F2F2F2;}.arrowColor{fill: #EA5906;}.eventColor{opacity: 0.3; fill: #F59E16; transition: 1s fill;}.wcColor{opacity: 0.3; fill: #3693B2;}.stairsColor{opacity: 0.3; fill: #73cc15;}.transparentObject{fill: 0;}.riverColor{fill: #B9DDEF;}.mapElements{fill: #E2E2E2;}.tramColor{fill: #73CC15;}.mapArrows{fill: #BFBFBF;}.buildingFill{fill: #E5E5E5;}.eventColor.active{opacity: 0.3; fill: red; -webkit-animation: alertOpacity 2s infinite alternate; animation: alertOpacity 2s infinite alternate;}@-webkit-keyframes alertOpacity{0%{opacity: 0.3;}50%{opacity: 0.5;}100%{opacity: 0.3;}}@keyframes alertOpacity{0%{opacity: 0.3;}50%{opacity: 0.5;}100%{opacity: 0.3;}}#guideSpot .eventColor.active{fill: red; opacity: 1; r: 10; transform-origin: 150px 150px; -webkit-transform-origin: 50% 50%; -webkit-animation: alertScale 2s infinite alternate; animation: alertScale 2s infinite alternate;}@-webkit-keyframes alertScale{0%{-webkit-transform: scale(1, 1);}50%{-webkit-transform: scale(2, 2);}100%{-webkit-transform: scale(1, 1);}}@keyframes alertScale{0%{transform: scale(1, 1);}50%{transform: scale(2, 2);}100%{transform: scale(1, 1);}}</style>
<g id="wire_1_">
	<g id="description">
		<g id="arrowCW">
			<polygon class="arrowColor" points="105.5,544.3 81.9,548.3 85.5,552.7 71.4,564.4 79.5,574.1 93.6,562.5 97.2,566.8 			"/>
		</g>
		<g id="arrowBT">
			<polygon class="wireColor" points="17.9,392.7 33,401.3 32.9,397.2 46.2,397.1 46.2,387.9 32.9,388 32.9,383.9 			"/>
		</g>
		<g id="BTenter">
			<path class="wireColor" d="M25.4,344.6h-1.3l-1.2-8.5h0.9l1,7.2l0.9-7.2h0.9l0.9,7.2l1-7.2h0.8l-1.2,8.5h-1.2l-0.8-5.8L25.4,344.6z"/>
			<path class="wireColor" d="M33.3,339.9v0.8h-2.1v3h2.5v0.9h-3.5v-8.5h3.5v0.9h-2.5v2.9H33.3z"/>
			<path class="wireColor" d="M34.4,343.7c0.2,0,0.3,0,0.5,0c0.6,0,1-0.3,1-1.2v-6.4h0.9v6.4c0,1.6-0.8,2.1-1.8,2.1c-0.2,0-0.4,0-0.6,0
				V343.7z"/>
			<path class="wireColor" d="M41.4,338.2v0.2h-0.9v-0.3c0-0.8-0.3-1.2-1-1.2c-0.7,0-1,0.4-1,1.2c0,1.9,2.8,2.1,2.8,4.5
				c0,1.3-0.6,2.1-1.9,2.1s-1.9-0.8-1.9-2.1v-0.5h0.9v0.5c0,0.8,0.3,1.2,1,1.2c0.7,0,1-0.4,1-1.2c0-1.9-2.8-2.1-2.8-4.5
				c0-1.3,0.6-2.1,1.9-2.1C40.8,336,41.4,336.9,41.4,338.2z M40.7,334.4l-1.1,1.2h-0.7l0.8-1.2H40.7z"/>
			<path class="wireColor" d="M45.9,338.2v0.8H45v-0.8c0-0.8-0.3-1.2-1-1.2c-0.7,0-1,0.5-1,1.2v4.5c0,0.8,0.3,1.2,1,1.2c0.7,0,1-0.5,1-1.2
				v-1.1h0.9v1.1c0,1.3-0.6,2.1-1.9,2.1c-1.3,0-1.9-0.8-1.9-2.1v-4.4c0-1.3,0.6-2.1,1.9-2.1C45.3,336,45.9,336.9,45.9,338.2z"/>
			<path class="wireColor" d="M47.7,336.1v8.5h-0.9v-8.5H47.7z"/>
			<path class="wireColor" d="M51.7,339.9v0.8h-2.1v3h2.5v0.9h-3.5v-8.5h3.5v0.9h-2.5v2.9H51.7z"/>
			<path class="wireColor" d="M56.9,336.1c1.3,0,1.9,0.8,1.9,2.1v4.3c0,1.3-0.6,2.1-1.9,2.1h-2v-8.5H56.9z M56.9,343.7c0.7,0,1-0.4,1-1.2
				v-4.4c0-0.8-0.3-1.2-1-1.2h-1v6.8H56.9z"/>
			<path class="wireColor" d="M59.7,338.2c0-1.3,0.6-2.1,1.9-2.1c1.3,0,2,0.8,2,2.1v4.4c0,1.3-0.6,2.1-2,2.1c-1.3,0-1.9-0.8-1.9-2.1V338.2
				z M60.6,342.6c0,0.8,0.3,1.2,1,1.2c0.7,0,1-0.4,1-1.2v-4.5c0-0.8-0.3-1.2-1-1.2c-0.7,0-1,0.5-1,1.2V342.6z"/>
			<path class="wireColor" d="M26.8,350.7c1.3,0,1.8,0.6,1.8,1.9v0.4c0,0.9-0.3,1.5-1,1.7c0.8,0.2,1.1,0.9,1.1,1.8v0.7c0,1.3-0.6,2-1.9,2
				h-2v-8.5H26.8z M26.6,354.3c0.8,0,1.1-0.2,1.1-1.1v-0.5c0-0.8-0.3-1.1-0.9-1.1h-0.9v2.7H26.6z M26.9,358.3c0.7,0,1-0.4,1-1.2
				v-0.8c0-0.9-0.4-1.3-1.2-1.3h-0.8v3.2H26.9z"/>
			<path class="wireColor" d="M30.6,350.7v8.5h-0.9v-8.5H30.6z"/>
			<path class="wireColor" d="M33.5,350.7c1.3,0,1.8,0.6,1.8,1.9v0.4c0,0.9-0.3,1.5-1,1.7c0.8,0.2,1.1,0.9,1.1,1.8v0.7c0,1.3-0.6,2-1.9,2
				h-2v-8.5H33.5z M33.3,354.3c0.8,0,1.1-0.2,1.1-1.1v-0.5c0-0.8-0.3-1.1-0.9-1.1h-0.9v2.7H33.3z M33.6,358.3c0.7,0,1-0.4,1-1.2
				v-0.8c0-0.9-0.4-1.3-1.2-1.3h-0.8v3.2H33.6z"/>
			<path class="wireColor" d="M36.4,359.1v-8.5h0.9v7.6h2.4v0.9H36.4z"/>
			<path class="wireColor" d="M41.4,350.7v8.5h-0.9v-8.5H41.4z"/>
			<path class="wireColor" d="M42.3,352.7c0-1.3,0.6-2.1,1.9-2.1c1.3,0,2,0.8,2,2.1v4.4c0,1.3-0.6,2.1-2,2.1c-1.3,0-1.9-0.8-1.9-2.1V352.7
				z M43.2,357.1c0,0.8,0.3,1.2,1,1.2c0.7,0,1-0.4,1-1.2v-4.5c0-0.8-0.3-1.2-1-1.2c-0.7,0-1,0.5-1,1.2V357.1z"/>
			<path class="wireColor" d="M48.3,359.1v-7.6h-1.6v-0.9h4.1v0.9h-1.6v7.6H48.3z"/>
			<path class="wireColor" d="M54.5,354.4v0.8h-2.1v3H55v0.9h-3.5v-8.5H55v0.9h-2.5v2.9H54.5z"/>
			<path class="wireColor" d="M57.3,355.5l-0.5,0.8v2.8h-0.9v-8.5h0.9v4.1l2.3-4.1h1l-2.1,3.9l2.2,4.6h-1L57.3,355.5z"/>
			<path class="wireColor" d="M61.7,350.7v8.5h-0.9v-8.5H61.7z"/>
			<path class="wireColor" d="M21.7,373.7v-7.6h-1.6v-0.9h4.1v0.9h-1.6v7.6H21.7z"/>
			<path class="wireColor" d="M27.8,368.9v0.8h-2.1v3h2.5v0.9h-3.5v-8.5h3.5v0.9h-2.5v2.9H27.8z"/>
			<path class="wireColor" d="M32.9,367.2v0.8H32v-0.8c0-0.8-0.3-1.2-1-1.2c-0.7,0-1,0.5-1,1.2v4.5c0,0.8,0.3,1.2,1,1.2c0.7,0,1-0.5,1-1.2
				v-1.1h0.9v1.1c0,1.3-0.6,2.1-1.9,2.1c-1.3,0-1.9-0.8-1.9-2.1v-4.4c0-1.3,0.6-2.1,1.9-2.1C32.3,365.1,32.9,366,32.9,367.2z"/>
			<path class="wireColor" d="M34.7,369.9v3.8h-0.9v-8.5h0.9v3.8h2.1v-3.8h0.9v8.5h-0.9v-3.8H34.7z"/>
			<path class="wireColor" d="M39.6,373.7h-0.8v-8.5h1.2l2,6.1v-6.1h0.8v8.5h-1l-2.2-6.9V373.7z"/>
			<path class="wireColor" d="M44.6,365.2v8.5h-0.9v-8.5H44.6z"/>
			<path class="wireColor" d="M49.4,367.2v0.8h-0.9v-0.8c0-0.8-0.3-1.2-1-1.2c-0.7,0-1,0.5-1,1.2v4.5c0,0.8,0.3,1.2,1,1.2
				c0.7,0,1-0.5,1-1.2v-1.1h0.9v1.1c0,1.3-0.6,2.1-1.9,2.1c-1.3,0-1.9-0.8-1.9-2.1v-4.4c0-1.3,0.6-2.1,1.9-2.1
				C48.7,365.1,49.4,366,49.4,367.2z"/>
			<path class="wireColor" d="M53.9,373.7h-3.9v-0.8l2.9-6.8h-2.8v-0.9H54v0.8l-2.9,6.8h2.9V373.7z"/>
			<path class="wireColor" d="M55.6,373.7h-0.8v-8.5H56l2,6.1v-6.1h0.8v8.5h-1l-2.2-6.9V373.7z"/>
			<path class="wireColor" d="M62.8,368.9v0.8h-2.1v3h2.5v0.9h-3.5v-8.5h3.5v0.9h-2.5v2.9H62.8z"/>
			<path class="wireColor" d="M63.9,372.8c0.2,0,0.3,0,0.5,0c0.6,0,1-0.3,1-1.2v-6.4h0.9v6.4c0,1.6-0.8,2.1-1.8,2.1c-0.2,0-0.4,0-0.6,0
				V372.8z"/>
		</g>
		<g id="BTenter_1_">
			<path class="wireColor" d="M30.4,564.6h-1.6l-1.4-10.5h1.1l1.2,9l1.2-9H32l1.2,9l1.2-9h1L34,564.6h-1.5l-1-7.1L30.4,564.6z"/>
			<path class="wireColor" d="M40.1,558.8v1.1h-2.6v3.7h3.2v1.1h-4.3v-10.5h4.3v1.1h-3.2v3.6H40.1z"/>
			<path class="wireColor" d="M41.4,563.6c0.2,0,0.4,0,0.6,0c0.8,0,1.2-0.4,1.2-1.5v-8h1.2v7.9c0,2-1,2.6-2.2,2.6c-0.3,0-0.5,0-0.7,0
				V563.6z"/>
			<path class="wireColor" d="M50.1,556.6v0.3H49v-0.3c0-0.9-0.4-1.5-1.2-1.5c-0.8,0-1.2,0.6-1.2,1.5c0,2.4,3.5,2.6,3.5,5.6
				c0,1.6-0.8,2.6-2.4,2.6s-2.4-1-2.4-2.6v-0.6h1.1v0.7c0,0.9,0.4,1.5,1.2,1.5c0.8,0,1.2-0.6,1.2-1.5c0-2.3-3.5-2.6-3.5-5.5
				c0-1.6,0.8-2.6,2.3-2.6C49.4,554,50.1,555,50.1,556.6z M49.3,551.9l-1.4,1.5h-0.8l1-1.5H49.3z"/>
			<path class="wireColor" d="M55.8,556.6v0.9h-1.1v-1c0-0.9-0.4-1.5-1.2-1.5c-0.8,0-1.2,0.6-1.2,1.5v5.6c0,0.9,0.4,1.5,1.2,1.5
				c0.9,0,1.2-0.6,1.2-1.5v-1.4h1.1v1.3c0,1.6-0.8,2.6-2.4,2.6c-1.6,0-2.4-1.1-2.4-2.6v-5.4c0-1.6,0.8-2.6,2.4-2.6
				C55.1,554,55.8,555,55.8,556.6z"/>
			<path class="wireColor" d="M58.1,554.1v10.5h-1.2v-10.5H58.1z"/>
			<path class="wireColor" d="M63,558.8v1.1h-2.6v3.7h3.2v1.1h-4.3v-10.5h4.3v1.1h-3.2v3.6H63z"/>
			<path class="wireColor" d="M20.3,572.2c1.6,0,2.4,1,2.4,2.6v5.3c0,1.6-0.8,2.6-2.4,2.6h-2.5v-10.5H20.3z M20.3,581.6
				c0.8,0,1.2-0.5,1.2-1.5v-5.4c0-1-0.4-1.5-1.3-1.5H19v8.4H20.3z"/>
			<path class="wireColor" d="M23.7,574.7c0-1.6,0.8-2.6,2.4-2.6c1.6,0,2.4,1,2.4,2.6v5.4c0,1.6-0.8,2.6-2.4,2.6c-1.6,0-2.4-1.1-2.4-2.6
				V574.7z M24.9,580.2c0,1,0.4,1.5,1.2,1.5c0.9,0,1.2-0.6,1.2-1.5v-5.6c0-0.9-0.4-1.5-1.2-1.5c-0.8,0-1.2,0.6-1.2,1.5V580.2z"/>
			<path class="wireColor" d="M36.7,574.7v0.9h-1.1v-1c0-0.9-0.4-1.5-1.2-1.5c-0.8,0-1.2,0.6-1.2,1.5v5.6c0,0.9,0.4,1.5,1.2,1.5
				c0.9,0,1.2-0.6,1.2-1.5v-1.4h1.1v1.3c0,1.6-0.8,2.6-2.4,2.6c-1.6,0-2.4-1.1-2.4-2.6v-5.4c0-1.6,0.8-2.6,2.4-2.6
				C35.9,572,36.7,573.1,36.7,574.7z"/>
			<path class="wireColor" d="M41.5,576.8v1.1h-2.6v3.7h3.2v1.1h-4.3v-10.5h4.3v1.1h-3.2v3.6H41.5z"/>
			<path class="wireColor" d="M44.2,582.7h-1.1v-10.5h1.5l2.4,7.6v-7.6h1v10.5h-1.2l-2.7-8.5V582.7z"/>
			<path class="wireColor" d="M50.8,582.7v-9.5h-1.9v-1.1h5.1v1.1H52v9.5H50.8z"/>
			<path class="wireColor" d="M57.1,572.2c1.7,0,2.3,0.8,2.3,2.4v0.9c0,1.2-0.4,1.9-1.3,2.2c1,0.3,1.3,1.1,1.3,2.2v1.6
				c0,0.5,0,0.9,0.2,1.3h-1.2c-0.1-0.3-0.2-0.6-0.2-1.3v-1.7c0-1.2-0.6-1.6-1.5-1.6h-0.8v4.5h-1.2v-10.5H57.1z M56.8,577.1
				c0.9,0,1.5-0.3,1.5-1.4v-1c0-0.9-0.3-1.4-1.2-1.4h-1.1v3.9H56.8z"/>
			<path class="wireColor" d="M61.8,580.2c0,0.9,0.4,1.5,1.2,1.5c0.8,0,1.2-0.6,1.2-1.5v-8h1.1v8c0,1.6-0.7,2.7-2.4,2.7
				c-1.6,0-2.3-1.1-2.3-2.7v-8h1.2V580.2z"/>
			<path class="wireColor" d="M70.4,582.7h-1.1l-1.7-8.4v8.4h-1v-10.5h1.6l1.7,8.4l1.7-8.4h1.6v10.5h-1.1v-8.5L70.4,582.7z"/>
			<path class="wireColor" d="M13.8,600.7h-1.6l-1.4-10.5h1.1l1.2,9l1.2-9h1.2l1.2,9l1.2-9h1l-1.4,10.5h-1.5l-1-7.1L13.8,600.7z"/>
			<path class="wireColor" d="M21.6,597l-2.2-6.8h1.2l1.6,5.2l1.7-5.2H25l-2.2,6.8v3.8h-1.2V597z"/>
			<path class="wireColor" d="M27.7,596.2l-0.6,1v3.5h-1.2v-10.5h1.2v5.1l2.8-5.1H31l-2.7,4.8l2.8,5.7h-1.2L27.7,596.2z"/>
			<path class="wireColor" d="M33.4,596.4v3.3h3v1.1h-4.2v-3.1l-0.8,0.8v-1.1l0.8-0.8v-6.3h1.2v5.1l1.6-1.7v1.1L33.4,596.4z"/>
			<path class="wireColor" d="M38.5,598.6l-0.4,2.1H37l2-10.5h1.7l2,10.5h-1.2l-0.4-2.1H38.5z M38.6,597.6H41l-1.2-6.1L38.6,597.6z"/>
			<path class="wireColor" d="M46.1,590.2c1.6,0,2.4,1,2.4,2.6v5.3c0,1.6-0.8,2.6-2.4,2.6h-2.5v-10.5H46.1z M46.1,599.7
				c0.8,0,1.2-0.5,1.2-1.5v-5.4c0-1-0.4-1.5-1.3-1.5h-1.3v8.4H46.1z"/>
			<path class="wireColor" d="M49.5,592.7c0-1.6,0.8-2.6,2.4-2.6c1.6,0,2.4,1,2.4,2.6v5.4c0,1.6-0.8,2.6-2.4,2.6c-1.6,0-2.4-1.1-2.4-2.6
				V592.7z M50.7,598.3c0,1,0.4,1.5,1.2,1.5c0.9,0,1.2-0.6,1.2-1.5v-5.6c0-0.9-0.4-1.5-1.2-1.5c-0.8,0-1.2,0.6-1.2,1.5V598.3z"/>
			<path class="wireColor" d="M58.2,600.7h-1.6l-1.4-10.5h1.1l1.2,9l1.2-9h1.2l1.2,9l1.2-9h1l-1.4,10.5h-1.5l-1-7.1L58.2,600.7z"/>
			<path class="wireColor" d="M68,594.9v1.1h-2.6v3.7h3.2v1.1h-4.3v-10.5h4.3v1.1h-3.2v3.6H68z"/>
			<path class="wireColor" d="M74.3,592.7v0.9h-1.1v-1c0-0.9-0.4-1.5-1.2-1.5c-0.8,0-1.2,0.6-1.2,1.5v5.6c0,0.9,0.4,1.5,1.2,1.5
				c0.9,0,1.2-0.6,1.2-1.5v-2.1h-1.1v-1.1h2.2v3.1c0,1.6-0.8,2.6-2.4,2.6c-1.6,0-2.4-1.1-2.4-2.6v-5.4c0-1.6,0.8-2.6,2.4-2.6
				C73.5,590.1,74.3,591.2,74.3,592.7z"/>
			<path class="wireColor" d="M75.3,592.7c0-1.6,0.8-2.6,2.4-2.6c1.6,0,2.4,1,2.4,2.6v5.4c0,1.6-0.8,2.6-2.4,2.6c-1.6,0-2.4-1.1-2.4-2.6
				V592.7z M76.5,598.3c0,1,0.4,1.5,1.2,1.5c0.9,0,1.2-0.6,1.2-1.5v-5.6c0-0.9-0.4-1.5-1.2-1.5c-0.8,0-1.2,0.6-1.2,1.5V598.3z"/>
		</g>
		<g>
			<path class="wireColor" d="M187.1,601.5h-3l-2.7-19.8h2.2l2.3,16.9l2.2-16.8h2.2l2.2,16.9l2.2-16.9h1.9l-2.7,19.8h-2.9L189,588
				L187.1,601.5z"/>
			<path class="wireColor" d="M207,586.4v1.8h-2.1v-1.9c0-1.8-0.7-2.9-2.3-2.9c-1.6,0-2.3,1.1-2.3,2.9v10.5c0,1.8,0.7,2.9,2.3,2.9
				c1.6,0,2.3-1.1,2.3-2.9v-2.6h2.1v2.5c0,3-1.4,5-4.5,5c-3,0-4.4-2-4.4-5v-10.2c0-3,1.4-5,4.4-5C205.6,581.5,207,583.4,207,586.4z"
				/>
		</g>
		<g>
			<path class="wireColor" d="M157,264.7l-1.4,7.1H152l6.7-35.2h5.7l6.7,35.2h-3.9l-1.4-7.1H157z M157.5,261.3h7.8l-4-20.3L157.5,261.3z"
				/>
			<path class="wireColor" d="M177.9,263.5c0,3.2,1.3,5.1,4.1,5.1c2.8,0,4.1-1.9,4.1-5.1v-26.9h3.7v26.7c0,5.3-2.5,8.9-7.9,8.9
				c-5.4,0-7.8-3.6-7.8-8.9v-26.7h3.9V263.5z"/>
			<path class="wireColor" d="M193.7,271.8v-35.2h3.9v31.6h10v3.6H193.7z"/>
			<path class="wireColor" d="M214.6,264.7l-1.4,7.1h-3.6l6.7-35.2h5.7l6.7,35.2h-3.9l-1.4-7.1H214.6z M215.1,261.3h7.8l-4-20.3
				L215.1,261.3z"/>
			<path class="wireColor" d="M151.1,332h-3.8l-5.8-28v28h-3.4v-35.2h5.5l5.8,28.1l5.6-28.1h5.5v35.2h-3.7v-28.3L151.1,332z"/>
			<path class="wireColor" d="M168.4,325l-1.4,7.1h-3.6l6.7-35.2h5.7l6.7,35.2h-3.9l-1.4-7.1H168.4z M168.9,321.6h7.8l-4-20.3L168.9,321.6
				z"/>
			<path class="wireColor" d="M201.2,305.4v3h-3.7v-3.2c0-3.2-1.3-5.1-4.1-5.1c-2.8,0-4.1,1.9-4.1,5.1v18.6c0,3.2,1.3,5.1,4.1,5.1
				c2.9,0,4.1-1.9,4.1-5.1v-7h-3.6v-3.5h7.3v10.4c0,5.3-2.5,8.8-7.9,8.8c-5.4,0-7.9-3.5-7.9-8.8v-18.2c0-5.3,2.5-8.8,7.9-8.8
				C198.7,296.5,201.2,300.1,201.2,305.4z"/>
			<path class="wireColor" d="M208.4,332.1h-3.5v-35.2h5l8.1,25.4v-25.4h3.5v35.2h-4.1l-9-28.4V332.1z"/>
			<path class="wireColor" d="M229.4,325l-1.4,7.1h-3.6l6.7-35.2h5.7l6.7,35.2h-3.9l-1.4-7.1H229.4z M229.9,321.6h7.8l-4-20.3L229.9,321.6
				z"/>
		</g>
		<g>
			<path class="wireColor" d="M69.8,419.2v11.3H67v-25.2h2.8v11.3H76v-11.3h2.8v25.2H76v-11.3H69.8z"/>
			<path class="wireColor" d="M81.4,411.5c0-3.9,1.9-6.3,5.8-6.3c3.9,0,5.8,2.5,5.8,6.3v13c0,3.8-1.9,6.3-5.8,6.3c-3.9,0-5.8-2.5-5.8-6.3
				V411.5z M84.2,424.6c0,2.3,1,3.6,3,3.6c2.1,0,3-1.3,3-3.6v-13.3c0-2.3-0.9-3.6-3-3.6c-2,0-3,1.4-3,3.6V424.6z"/>
			<path class="wireColor" d="M95.7,430.6v-25.2h2.8V428h7.2v2.6H95.7z"/>
		</g>
		<g>
			<path class="wireColor" d="M428.6,364.9v0.6h-2.3v-0.7c0-2-0.8-3.2-2.5-3.2s-2.5,1.2-2.5,3.1c0,5,7.4,5.4,7.4,11.7c0,3.4-1.6,5.5-5,5.5
				c-3.4,0-5-2.2-5-5.5v-1.3h2.3v1.4c0,2,0.8,3.2,2.6,3.2c1.8,0,2.6-1.2,2.6-3.2c0-4.9-7.4-5.4-7.4-11.6c0-3.4,1.6-5.5,4.9-5.5
				C427.1,359.4,428.6,361.6,428.6,364.9z"/>
			<path class="wireColor" d="M433.3,377.3l-0.9,4.5h-2.3l4.2-22.2h3.6l4.2,22.2h-2.5l-0.9-4.5H433.3z M433.6,375.2h4.9l-2.5-12.8
				L433.6,375.2z"/>
			<path class="wireColor" d="M444.2,381.7v-22.2h2.5v19.9h6.3v2.2H444.2z"/>
			<path class="wireColor" d="M457.4,377.3l-0.9,4.5h-2.3l4.2-22.2h3.6l4.2,22.2h-2.5l-0.9-4.5H457.4z M457.7,375.2h4.9l-2.5-12.8
				L457.7,375.2z"/>
			<path class="wireColor" d="M449.8,404v0.9c0,3.4-1.4,5.8-4,6.8c2.8,1,4,3.6,4,6.9v2.6c0,5.1-2.4,8.4-7.5,8.4c-5.1,0-7.5-3.3-7.5-8.4
				v-2.3h3.5v2.5c0,3,1.2,4.8,3.9,4.8c2.7,0,3.9-1.8,3.9-5.1v-2.6c0-3.3-1.4-4.8-4.2-4.9h-2v-3.3h2.2c2.5-0.1,4-1.7,4-4.6v-1.5
				c0-3.4-1.2-5.2-3.9-5.2c-2.7,0-3.9,1.9-3.9,4.8v1.7h-3.5V404c0-5.1,2.4-8.4,7.5-8.4C447.5,395.7,449.8,398.9,449.8,404z"/>
		</g>
		<g>
			<path class="wireColor" d="M356.5,432.2v0.6h-2.3v-0.7c0-2-0.8-3.2-2.5-3.2s-2.5,1.2-2.5,3.1c0,5,7.4,5.4,7.4,11.7c0,3.4-1.6,5.5-5,5.5
				c-3.4,0-5-2.2-5-5.5v-1.3h2.3v1.4c0,2,0.8,3.2,2.6,3.2c1.8,0,2.6-1.2,2.6-3.2c0-4.9-7.4-5.4-7.4-11.6c0-3.4,1.6-5.5,4.9-5.5
				C354.9,426.7,356.5,428.9,356.5,432.2z"/>
			<path class="wireColor" d="M361.2,444.6l-0.9,4.5H358l4.2-22.2h3.6l4.2,22.2h-2.5l-0.9-4.5H361.2z M361.5,442.5h4.9l-2.5-12.8
				L361.5,442.5z"/>
			<path class="wireColor" d="M372,449v-22.2h2.5v19.9h6.3v2.2H372z"/>
			<path class="wireColor" d="M385.2,444.6l-0.9,4.5H382l4.2-22.2h3.6l4.2,22.2h-2.5l-0.9-4.5H385.2z M385.5,442.5h4.9l-2.5-12.8
				L385.5,442.5z"/>
			<path class="wireColor" d="M377.9,471.4c0,10-11.3,13.6-11.3,21.3v0.5h10.9v3.4h-14.6v-2.8c0-10.7,11.3-12.8,11.3-22.2
				c0-3.4-1.1-5.2-3.9-5.2c-2.7,0-3.9,1.9-3.9,4.9v2.9h-3.5v-2.7c0-5.1,2.3-8.5,7.5-8.5C375.5,463,377.9,466.3,377.9,471.4z"/>
		</g>
		<g>
			<path class="wireColor" d="M280.6,495.1v0.6h-2.3V495c0-2-0.8-3.2-2.5-3.2s-2.5,1.2-2.5,3.1c0,5,7.4,5.4,7.4,11.7c0,3.4-1.6,5.5-5,5.5
				c-3.4,0-5-2.2-5-5.5v-1.3h2.3v1.4c0,2,0.8,3.2,2.6,3.2c1.8,0,2.6-1.2,2.6-3.2c0-4.9-7.4-5.4-7.4-11.6c0-3.4,1.6-5.5,4.9-5.5
				C279,489.6,280.6,491.8,280.6,495.1z"/>
			<path class="wireColor" d="M285.2,507.5l-0.9,4.5h-2.3l4.2-22.2h3.6l4.2,22.2h-2.5l-0.9-4.5H285.2z M285.6,505.4h4.9l-2.5-12.8
				L285.6,505.4z"/>
			<path class="wireColor" d="M296.1,512v-22.2h2.5v19.9h6.3v2.2H296.1z"/>
			<path class="wireColor" d="M309.3,507.5l-0.9,4.5h-2.3l4.2-22.2h3.6l4.2,22.2h-2.5l-0.9-4.5H309.3z M309.6,505.4h4.9l-2.5-12.8
				L309.6,505.4z"/>
			<path class="wireColor" d="M294.9,532.2c-1.2,0.8-2.8,1.3-4.6,1.4v-3c3.6-0.1,4.8-2.1,5.7-4.4h2.6v33.2h-3.7V532.2z"/>
		</g>
		<g class="transparentObject">
			<path class="wireColor" d="M40.6,134.8v0.3h-1.2v-0.4c0-1-0.4-1.6-1.3-1.6c-0.9,0-1.3,0.6-1.3,1.6c0,2.5,3.8,2.8,3.8,5.9
				c0,1.7-0.8,2.8-2.5,2.8c-1.7,0-2.5-1.1-2.5-2.8V140h1.2v0.7c0,1,0.4,1.6,1.3,1.6c0.9,0,1.3-0.6,1.3-1.6c0-2.5-3.7-2.7-3.7-5.9
				c0-1.7,0.8-2.8,2.5-2.8C39.8,132,40.6,133.1,40.6,134.8z"/>
			<path class="wireColor" d="M42.9,141l-0.4,2.3h-1.2l2.1-11.2h1.8l2.1,11.2h-1.2l-0.4-2.3H42.9z M43.1,140h2.5l-1.3-6.5L43.1,140z"/>
			<path class="wireColor" d="M48.4,143.3v-11.2h1.2v10.1h3.2v1.1H48.4z"/>
			<path class="wireColor" d="M55.1,141l-0.4,2.3h-1.2l2.1-11.2h1.8l2.1,11.2h-1.2l-0.4-2.3H55.1z M55.2,140h2.5l-1.3-6.5L55.2,140z"/>
			<path class="wireColor" d="M45.7,157.3c0.5-0.9,1.4-1.4,2.5-1.4c2.2,0,3.1,1.6,3.1,4v3.3c0,2.6-1.2,4.2-3.8,4.2c-2.6,0-3.8-1.7-3.8-4.2
				v-1.1h1.8v1.2c0,1.5,0.6,2.4,2,2.4s2-0.9,2-2.4v-3.3c0-1.5-0.6-2.4-2-2.4c-1,0-1.7,0.6-1.9,1.8v0.4h-1.8l0.5-9.3h6.6v1.7h-4.9
				L45.7,157.3z"/>
		</g>
		<g>
			<path class="wireColor" d="M111.4,77.4v0.4h-1.6v-0.5c0-1.4-0.5-2.2-1.7-2.2c-1.2,0-1.7,0.8-1.7,2.1c0,3.4,5.1,3.7,5.1,8
				c0,2.3-1.1,3.8-3.4,3.8s-3.4-1.5-3.4-3.8v-0.9h1.6v0.9c0,1.4,0.6,2.2,1.8,2.2c1.2,0,1.8-0.8,1.8-2.2c0-3.4-5-3.7-5-7.9
				c0-2.3,1.1-3.8,3.3-3.8C110.4,73.7,111.4,75.1,111.4,77.4z"/>
			<path class="wireColor" d="M114.6,85.9l-0.6,3h-1.6l2.9-15.1h2.4l2.9,15.1H119l-0.6-3H114.6z M114.9,84.4h3.4l-1.7-8.7L114.9,84.4z"/>
			<path class="wireColor" d="M122,88.9V73.8h1.7v13.6h4.3v1.5H122z"/>
			<path class="wireColor" d="M131,85.9l-0.6,3h-1.6l2.9-15.1h2.4l2.9,15.1h-1.7l-0.6-3H131z M131.2,84.4h3.4l-1.7-8.7L131.2,84.4z"/>
			<path class="wireColor" d="M126.4,102.5v0.5h-2.6v-0.6c0-2.2-0.9-3.5-2.9-3.5c-2.1,0-3,1.3-3,4v5.5c0.7-1.7,2-2.6,4-2.6
				c3.2,0,4.6,2.3,4.6,5.9v3.7c0,3.8-1.9,6.2-5.6,6.2c-3.8,0-5.7-2.5-5.7-6.2v-12.6c0-3.9,1.8-6.4,5.7-6.4
				C124.7,96.3,126.4,98.7,126.4,102.5z M117.9,111.8v3.7c0,2.2,0.9,3.6,2.9,3.6c2,0,2.9-1.3,2.9-3.6v-3.7c0-2.2-1-3.6-2.9-3.6
				C118.8,108.2,117.9,109.5,117.9,111.8z"/>
		</g>
	</g>
	<g id="hotSpot">
		<path class="wcColor" d="M127.7,555.9l46.8-37.7l3.7,4.9l2.4-3.1l30.6,38.3l-9.5,7.7l23.9,30l9.4-7.7l35,43.5l-37,30.5h-27
			c0,0-13.7-38.8-34.8-63.7C150,573.9,127.7,555.9,127.7,555.9z"/>
		<polygon class="wcColor" points="233.8,108.8 253.4,132.6 284.5,107.9 270.5,91.5 254.7,91.5 		"/>
		<polygon class="stairsColor" points="241.6,533.7 229.3,543 275.3,600.3 286.9,590.8 		"/>
		<polygon class="stairsColor" points="329.9,301.7 343.2,290.3 339.2,285.4 391.4,243.2 411.4,267.6 359.2,309.9 356.1,306.1 341.9,317.5
					"/>
		<polygon class="stairsColor" points="205.5,74.3 222.6,95.5 254.5,70.1 236.9,48.9 		"/>
		<path class="stairsColor" d="M440.3,493.7l23.8-19.4c0,0,9.5-5.3,18.1,0s6.1,16.9,6.1,16.9l-6.6,29.1l-13.3-2.8l6.8-30.1
			c0,0,0.5-2.7-2.9-2.2l-23.5,19.1L440.3,493.7z"/>
		<path class="stairsColor" d="M110.5,457.5c-4.5,13.6-16.6,22.4-31.4,22.4c-18.5,0-33.5-15.4-33.5-34.4c0-3.3,0.1-4.9,0.9-7.9
			c-6.9-1.5-13.5-3.6-20.6-4.7c-1.4,5-2.1,9.3-2,14.7c0.5,29.8,25.4,53.5,55.6,53c23.2-0.4,42.8-14.5,50.4-34.7
			C123.7,462.7,116.9,460.3,110.5,457.5z"/>
	</g>
	<g id="wire">
		<g>
			<path class="wireColor" d="M13.3,7.2H6.1v7.1h7.2V7.2z M11.8,12.8H7.6V8.7h4.2V12.8z"/>
			<path class="wireColor" d="M68.4,7.2h-7.2v7.1h7.2V7.2z M66.9,12.8h-4.2V8.7h4.2V12.8z"/>
			<path class="wireColor" d="M117.7,7.2h-7.2v7.1h7.2V7.2z M116.2,12.8H112V8.7h4.2V12.8z"/>
			<path class="wireColor" d="M167,7.2h-7.2v7.1h7.2V7.2z M165.5,12.8h-4.2V8.7h4.2V12.8z"/>
			<path class="wireColor" d="M216.3,7.2h-7.2v7.1h7.2V7.2z M214.8,12.8h-4.2V8.7h4.2V12.8z"/>
			<path class="wireColor" d="M265.5,7.2h-7.2v7.1h7.2V7.2z M264,12.8h-4.2V8.7h4.2V12.8z"/>
			<path class="wireColor" d="M314.8,7.2h-7.2v7.1h7.2V7.2z M313.3,12.8h-4.2V8.7h4.2V12.8z"/>
			<path class="wireColor" d="M364.1,7.2h-7.2v7.1h7.2V7.2z M362.6,12.8h-4.2V8.7h4.2V12.8z"/>
			<path class="wireColor" d="M413.4,7.2h-7.2v7.1h7.2V7.2z M411.9,12.8h-4.2V8.7h4.2V12.8z"/>
			<path class="wireColor" d="M462.7,7.2h-7.2v7.1h7.2V7.2z M461.2,12.8H457V8.7h4.2V12.8z"/>
			<path class="wireColor" d="M439,185.4l49.5-40l-23-29.7l-50.3,40.8L439,185.4z M417.3,156.6l23.7-19.2l21.6,27l-9.1,7.4
				c-1.3-1.4-3.1-2.4-5-2.6c-2.1-0.2-4.3,0.4-5.9,1.7l-0.1,0.1l4.7,6l-7.8,6.3L417.3,156.6z M447.2,176.8l-4.6-5.8
				c1.6-1.3,3.7-1.8,5.7-1.6c1.9,0.2,3.6,1.1,4.9,2.5L447.2,176.8z M470.8,157.7c-1.1-1.6-1.6-3.5-1.4-5.5c0.2-2.1,1.2-3.9,2.8-5.2
				l4.6,5.8L470.8,157.7z M486.4,145.1l-9.4,7.6l-4.7-5.9l-0.1,0.1c-1.7,1.3-2.8,3.3-3,5.4c-0.2,2,0.3,4,1.5,5.6l-7.5,6.1l-21.6-27
				l23.7-19.2L486.4,145.1z"/>
			<path class="wireColor" d="M385.8,118.8l8.8-7.4l5,5.9l0.1,0.1l0.1-0.1c1.7-1.4,2.7-3.3,2.9-5.5c0.2-2.1-0.4-4.1-1.7-5.7l18-15.1h25.6
				l4.6,6l1.2-0.9l-5.1-6.5h-71.7c-2.1,0-3.8,1.1-4.7,3c-0.9,1.9-0.7,3.9,0.6,5.5L385.8,118.8z M402.4,111.8
				c-0.2,2.1-1.1,3.9-2.7,5.3l-4.9-5.8l5.9-5C402,107.9,402.6,109.8,402.4,111.8z M370.2,93.2c0.6-1.3,1.9-2.1,3.4-2.1h43L386,116.7
				l-15.4-19.6C369.7,96,369.5,94.5,370.2,93.2z"/>
			<path class="wireColor" d="M106.3,593.4l-0.3-0.2l-1.9,2.1l0.3,0.3c0.1,0.1,0.3,0.2,0.4,0.4l-7.8,9.3c-0.1-0.1-0.2-0.2-0.3-0.3
				l-0.3-0.2l-2.2,2.6l0.3,0.2c17.8,14.8,32.3,32.8,42.9,53.4l0.1,0.2l20.4,0l-0.2-0.5C145.8,634.8,128.1,611.6,106.3,593.4z
				 M105.4,596.4c0.4,0.3,0.8,0.6,1.1,1l-7.9,9.2c-0.3-0.3-0.7-0.6-1-0.9L105.4,596.4z M132.9,646.4c-0.2-0.4-0.5-0.8-0.7-1.1
				l10.3-6.6c0.3,0.4,0.5,0.8,0.8,1.3L132.9,646.4z M143.6,640.5c3.6,5.8,6.9,11.8,9.8,18l-13.6,0c-2.1-4-4.3-7.8-6.6-11.6
				L143.6,640.5z M131.8,644.6c-0.2-0.4-0.5-0.8-0.7-1.1l10.2-6.7c0.3,0.4,0.5,0.8,0.8,1.3L131.8,644.6z M130.6,642.8
				c-0.3-0.4-0.5-0.8-0.8-1.1l10.1-6.8c0.3,0.4,0.6,0.8,0.8,1.3L130.6,642.8z M129.4,641.1c-0.3-0.4-0.5-0.7-0.8-1.1l10-7
				c0.3,0.4,0.6,0.8,0.9,1.2L129.4,641.1z M128.2,639.3c-0.3-0.4-0.5-0.7-0.8-1.1l9.9-7.1c0.3,0.4,0.6,0.8,0.9,1.2L128.2,639.3z
				 M127,637.6c-0.3-0.4-0.5-0.7-0.8-1.1l9.8-7.2c0.3,0.4,0.6,0.8,0.9,1.2L127,637.6z M125.8,635.9c-0.3-0.4-0.5-0.7-0.8-1.1
				l9.8-7.3c0.3,0.4,0.6,0.8,0.9,1.2L125.8,635.9z M124.5,634.2c-0.3-0.4-0.5-0.7-0.8-1.1l9.7-7.4c0.3,0.4,0.6,0.8,0.9,1.2
				L124.5,634.2z M123.2,632.5c-0.3-0.4-0.6-0.7-0.8-1.1l9.6-7.5c0.3,0.4,0.6,0.8,0.9,1.2L123.2,632.5z M121.9,630.9
				c-0.3-0.4-0.6-0.7-0.8-1.1l9.5-7.7c0.3,0.4,0.6,0.8,0.9,1.2L121.9,630.9z M120.6,629.2c-2.5-3.1-5.1-6.1-7.8-9l8.9-8.3
				c2.9,3.1,5.7,6.3,8.4,9.6L120.6,629.2z M112.3,619.7c-0.3-0.3-0.6-0.7-0.9-1l8.8-8.4c0.3,0.4,0.7,0.7,1,1.1L112.3,619.7z
				 M110.8,618.2c-0.3-0.3-0.6-0.7-0.9-1l8.7-8.5c0.4,0.4,0.7,0.7,1,1.1L110.8,618.2z M109.4,616.7c-0.3-0.3-0.6-0.6-1-1l8.6-8.6
				c0.4,0.4,0.7,0.7,1.1,1.1L109.4,616.7z M107.9,615.2c-0.3-0.3-0.6-0.6-1-1l8.5-8.7c0.4,0.4,0.7,0.7,1.1,1.1L107.9,615.2z
				 M106.4,613.7c-0.3-0.3-0.7-0.6-1-0.9l8.4-8.8c0.4,0.3,0.7,0.7,1.1,1L106.4,613.7z M104.8,612.2c-0.3-0.3-0.7-0.6-1-0.9l8.3-8.9
				c0.4,0.3,0.7,0.7,1.1,1L104.8,612.2z M103.3,610.8c-0.3-0.3-0.7-0.6-1-0.9l8.2-9c0.4,0.3,0.7,0.7,1.1,1L103.3,610.8z
				 M101.7,609.4c-0.3-0.3-0.7-0.6-1-0.9l8.1-9.1c0.4,0.3,0.8,0.7,1.1,1L101.7,609.4z M100.2,608c-0.3-0.3-0.7-0.6-1-0.9l7.9-9.2
				c0.4,0.3,0.8,0.7,1.1,1L100.2,608z M137.9,660.4c-10.6-20.5-24.9-38.4-42.6-53.2l1.2-1.4c17.8,14.8,32.2,32.8,42.8,53.3l0.1,0.2
				l15.2,0l-0.3-0.5c-11.7-24.6-28.3-46-49.2-63.5l0.9-1c21.5,17.9,39,40.8,50.6,66.2L137.9,660.4z"/>
			<path class="wireColor" d="M468.3,40.7H143.6c-0.6-3.8-3.9-6.8-7.9-6.8h-0.1v6.8H53.1V34H53c-4,0-7.3,2.9-7.9,6.8H33.8
				C33.3,36.9,30,34,26,34h-0.1v6.8H8.7v64.6H1.9v0.1c0,4,3,7.3,6.8,7.9v262.2H0v0.1c0,5.1,3.8,9.3,8.7,9.9v0.4H0v0.1
				c0,5.1,3.8,9.3,8.7,9.9v0.4H0v0.1c0,5.1,3.8,9.3,8.7,9.9v103l1.7,0.2c10.6,1.2,21.2,3.1,31.5,5.7
				C117.8,534.4,178.2,590,203.7,664l0.4,1.3l198.6-0.5l0.7,0l62.3-51.3l87-380.4l0.2-1l-13.1-13.1l-48.1,38.9l0,0
				c-1.7-2-4-3.3-6.6-3.6c-2.6-0.3-5.1,0.5-7.1,2.1l-0.2-0.3l7.5-6.1l-0.1-0.1c-1.7-2-4-3.3-6.6-3.6c-2.5-0.3-5.1,0.5-7.1,2
				l-0.4-0.4c1.9-1.6,3.2-3.9,3.4-6.5c0.3-2.6-0.5-5.2-2.1-7.2l-0.1-0.1l-7.5,6l-0.3-0.3c4.1-3.4,4.7-9.5,1.3-13.7l91.3-74
				L468.3,40.7z M483.4,264.3l-0.2,0.1l0.7,0.9l-21.8,17.6l-0.6-0.7l7.5-6.1L469,276c-1.7-2-4-3.3-6.6-3.6c-2.6-0.3-5.1,0.5-7.1,2
				l-0.3-0.3l7.5-6.1l-0.1-0.1c-3.4-4.2-9.5-4.9-13.7-1.5l-0.4-0.4c2-1.6,3.2-3.9,3.4-6.5c0.3-2.6-0.5-5.2-2.1-7.2l-0.1-0.1
				l-7.5,6.1l-0.3-0.3c4.1-3.4,4.7-9.5,1.3-13.7l-0.1-0.1l-7.5,6.1l-0.6-0.8l21.9-17.7L483.4,264.3z M455.5,274.6
				c2-1.5,4.4-2.2,6.9-2c2.5,0.3,4.8,1.5,6.4,3.4l-7.4,6L455.5,274.6z M449,266.5c4.1-3.2,10-2.6,13.4,1.4l-7.4,6L449,266.5z
				 M442.4,258.4l7.3-5.9c1.6,2,2.3,4.5,2,7c-0.3,2.5-1.5,4.7-3.4,6.3L442.4,258.4z M435.9,250.3l7.3-5.9c3.2,4.1,2.6,10-1.3,13.3
				L435.9,250.3z M427.1,255.9c1.1,1.6,1.5,3.4,1.3,5.3c-0.2,2.1-1.2,3.9-2.8,5.2l-4.5-5.6L427.1,255.9z M359,309.1l-19-23.4
				l51.3-41.4l17.3,21.1L398,274l-8.2-9.9l0.5-0.4l-0.9-1.2l-0.5,0.4l-7.5-9.1l-0.2,0.1l7.5,9.1l-1.6,1.3c-2.5-3.1-5-6.1-7.5-9.2
				l-0.2,0.1c2.5,3.1,5,6.1,7.5,9.2l-1.6,1.3l-7.6-9.2l-0.2,0.1l7.6,9.2l-1.6,1.3l-7.6-9.2l-0.2,0.1l7.6,9.2l-1.6,1.3
				c-2.5-3.1-5.1-6.2-7.6-9.2l-0.2,0.1c2.5,3.1,5.1,6.2,7.6,9.2l-1.6,1.3l-7.6-9.3l-0.2,0.1l7.6,9.3l-1.6,1.3l-7.6-9.3l-0.2,0.1
				l7.6,9.3l-1.6,1.3l-7.6-9.3l-0.2,0.1l7.6,9.3l-1.6,1.3c-2.5-3.1-5.1-6.2-7.6-9.4l-0.2,0.1c2.5,3.1,5.1,6.2,7.6,9.4l-1.6,1.3
				l-7.7-9.4l-0.2,0.1l7.7,9.4l-1.6,1.3l-7.7-9.4l-0.2,0.1l7.7,9.4l-1.6,1.3l-7.7-9.4l-0.2,0.1l7.7,9.4l-1.6,1.3l0.9,1.2l1.6-1.3
				l8.1,9.9l-1.6,1.3l-16.7-20.5l-0.2,0.1l17.2,21.1l0.1-0.1l0.5,0.6l33.4-27l-19.1-23.5l-0.3,0.2l-8.8-10.7l20.6-16.4l-0.2-0.3
				l0.8-0.6l1.1,1.4l-5.9,4.7l-0.1,0.1l0.1,0.1c1.3,1.7,3.3,2.8,5.4,3c0.3,0,0.6,0.1,0.9,0.1c1.7,0,3.4-0.6,4.8-1.6l1.2,1.5
				l-0.3,0.2L432,250L359,309.1z M372.7,300c2.2,3.3,1.5,7.8-1.6,10.4l-4.4-5.5L372.7,300z M320.2,328.1l6.3,3.1
				c-1.8,3.6-6.1,5.2-9.9,3.8C317.8,332.7,319,330.4,320.2,328.1z M277.9,377.4c-52.8,42.9-126.1,44.6-170.6,3.9
				c-13.8-12.6-20.4-24.8-20.5-24.9C55.5,304,71.9,232.1,124.9,189c42.2-34.3,98.2-42.9,143-22.1l-0.6,0.8l6.8,7.2l48.7,60l5.2,7.5
				l0.9-0.6C340.1,290,320.2,343,277.9,377.4z M264.3,390l7.3,11.4c-0.5,0.3-1.1,0.7-1.6,1l-7.1-11.5
				C263.3,390.6,263.8,390.3,264.3,390z M264.9,389.6c0.5-0.3,0.9-0.6,1.4-0.9l7.5,11.2c-0.5,0.4-1.1,0.7-1.6,1L264.9,389.6z
				 M266.9,388.3c0.5-0.3,0.9-0.6,1.4-0.9l7.7,11.1c-0.5,0.4-1.1,0.7-1.6,1.1L266.9,388.3z M268.9,386.9c0.5-0.3,0.9-0.6,1.4-0.9
				l7.9,10.9c-0.5,0.4-1,0.7-1.6,1.1L268.9,386.9z M270.9,385.6c0.4-0.3,0.9-0.6,1.3-1l8.1,10.8c-0.5,0.4-1,0.7-1.5,1.1L270.9,385.6
				z M272.8,384.2c0.4-0.3,0.9-0.6,1.3-1l8.3,10.6c-0.5,0.4-1,0.8-1.5,1.1L272.8,384.2z M274.7,382.7c0.4-0.3,0.9-0.7,1.3-1
				l8.5,10.4c-0.5,0.4-1,0.8-1.5,1.2L274.7,382.7z M276.6,381.3c0.4-0.3,0.9-0.7,1.3-1l8.7,10.3c-0.5,0.4-1,0.8-1.5,1.2L276.6,381.3
				z M278.5,379.8c0.3-0.2,0.6-0.5,0.9-0.7c0.1-0.1,0.3-0.2,0.4-0.3l8.9,10.1c-0.3,0.2-0.6,0.5-0.9,0.7c-0.2,0.2-0.4,0.3-0.6,0.5
				L278.5,379.8z M280.4,378.3c0.4-0.3,0.8-0.7,1.2-1l9.1,9.9c-0.5,0.4-1,0.8-1.4,1.2L280.4,378.3z M282.2,376.8
				c0.4-0.3,0.8-0.6,1.1-1l9.6,9.5c-0.5,0.5-1,0.9-1.6,1.4L282.2,376.8z M283.9,375.3c0.4-0.4,0.9-0.8,1.3-1.2l9.5,9.6
				c-0.4,0.4-0.8,0.8-1.3,1.1L283.9,375.3z M285.7,373.6c1.5-1.3,2.9-2.7,4.3-4c1.6,1.4,3.7,2.1,5.7,2.1c2.3,0,4.6-0.9,6.4-2.7
				l0.1-0.1l-5.9-5.9c0.8-0.9,1.6-1.8,2.4-2.7l10.2,8.8c-4.3,5-8.9,9.7-13.8,14.1L285.7,373.6z M296.2,363.2l5.7,5.8
				c-3.3,3.2-8.4,3.3-11.8,0.5C292.3,367.4,294.3,365.3,296.2,363.2z M299.3,359.7c0.6-0.7,1.2-1.3,1.7-2l10.4,8.6
				c-0.6,0.7-1.2,1.5-1.9,2.2L299.3,359.7z M301.5,357.1c0.5-0.7,1.1-1.3,1.6-2l10.6,8.4c-0.6,0.7-1.2,1.5-1.8,2.2L301.5,357.1z
				 M303.6,354.5c0.5-0.6,0.9-1.2,1.4-1.8l11,8c-0.6,0.8-1.2,1.5-1.7,2.2L303.6,354.5z M305.4,352.2c0.6-0.7,1.1-1.5,1.6-2.2l10.9,8
				c-0.5,0.7-1.1,1.4-1.6,2.1L305.4,352.2z M155.4,167.3l-5.5-12.3c0.8-0.4,1.6-0.8,2.4-1.1l5.6,12.3
				C157,166.5,156.2,166.9,155.4,167.3z M154.7,167.6c-0.7,0.3-1.3,0.6-2,1l-6-12c0.8-0.4,1.7-0.8,2.5-1.2L154.7,167.6z M152,168.9
				c-0.8,0.4-1.5,0.8-2.3,1.2l-6.3-11.9c0.8-0.4,1.7-0.9,2.5-1.3L152,168.9z M149.1,170.4c-0.8,0.4-1.5,0.8-2.3,1.3l-6.5-11.8
				c0.8-0.5,1.7-0.9,2.5-1.4L149.1,170.4z M146.1,172c-1.2,0.7-2.4,1.3-3.6,2l-4.7-7.1l-0.1-0.1l-0.1,0.1c-3.9,2.6-5.1,7.8-2.8,11.9
				c-1.6,1-3.1,2.1-4.6,3.2l-7.4-11.2c5.4-3.9,10.9-7.4,16.7-10.6L146.1,172z M135.1,178.7c-2.3-4-1.1-9.1,2.6-11.6l4.6,7
				C139.9,175.6,137.5,177.1,135.1,178.7z M129.7,182.5c-0.5,0.3-1,0.7-1.4,1l-7.3-11.3c0.5-0.3,0.9-0.7,1.4-1L129.7,182.5z
				 M127.7,184c-0.4,0.3-0.8,0.6-1.2,0.9l-7.8-10.9c0.6-0.4,1.1-0.8,1.7-1.3L127.7,184z M125.9,185.4c-0.4,0.3-0.9,0.7-1.3,1
				l-8-10.8c0.5-0.4,1-0.8,1.5-1.2L125.9,185.4z M124,186.8c-0.2,0.2-0.4,0.3-0.6,0.5c-0.2,0.2-0.5,0.4-0.7,0.6l-8.2-10.6
				c0.2-0.2,0.4-0.3,0.6-0.5c0.3-0.2,0.6-0.5,0.9-0.7L124,186.8z M122.2,188.4c-0.4,0.3-0.8,0.7-1.3,1l-8.4-10.5
				c0.5-0.4,1-0.8,1.5-1.2L122.2,188.4z M120.4,189.9c-0.4,0.4-0.8,0.7-1.2,1.1l-8.6-10.3c0.5-0.4,1-0.8,1.4-1.2L120.4,189.9z
				 M118.6,191.5c-0.4,0.4-0.8,0.7-1.2,1.1l-8.8-10.1c0.5-0.4,0.9-0.8,1.4-1.3L118.6,191.5z M116.8,193.1c-0.4,0.4-0.8,0.7-1.2,1.1
				l-9-10c0.5-0.4,0.9-0.9,1.4-1.3L116.8,193.1z M115,194.7c-0.4,0.4-0.8,0.8-1.2,1.1l-9.2-9.8c0.5-0.4,0.9-0.9,1.4-1.3L115,194.7z
				 M113.3,196.3c-0.4,0.4-0.8,0.8-1.2,1.2l-9.4-9.6c0.5-0.4,0.9-0.9,1.4-1.3L113.3,196.3z M111.6,198c-0.4,0.4-0.8,0.8-1.2,1.2
				l-9.6-9.4c0.4-0.5,0.9-0.9,1.4-1.4L111.6,198z M109.9,199.7c-0.4,0.4-0.8,0.8-1.1,1.2l-9.8-9.3c0.4-0.5,0.9-0.9,1.3-1.4
				L109.9,199.7z M175.6,154.4c1-1.8,2.7-3.1,4.7-3.6l1.9,6.9c-2.5,0.6-5,1.3-7.4,2.1C174.4,158,174.7,156.1,175.6,154.4z
				 M242.6,145c4.1,0.7,6.9,4.6,6.4,8.8l-7.4-1.1L242.6,145z M241.5,152.9l7.7,1.1l0-0.1c0.6-4.3-2.3-8.3-6.6-9.1l0.3-2.2
				c18.5,3.3,35.8,10.3,50.7,20.4c-2.1,3.6-1.1,8.2,2.4,10.6l0.1,0.1l4.1-5.9c2.6,2,5.1,4.2,7.6,6.4c0.4,0.4,0.8,0.7,1.2,1.1
				c0.6,0.6,1.3,1.2,1.9,1.8c0.7,0.7,1.3,1.3,2,2c0.3,0.3,0.7,0.7,1,1c0.9,0.9,1.7,1.9,2.6,2.8c0.2,0.2,0.4,0.5,0.6,0.7
				c0.9,1.1,1.9,2.1,2.7,3.2c1,1.3,2.1,2.6,3,3.9c0.2,0.2,0.3,0.5,0.5,0.7c0.8,1.1,1.6,2.2,2.4,3.3c0.1,0.2,0.3,0.4,0.4,0.7
				c0.8,1.2,1.6,2.3,2.3,3.5c0.1,0.2,0.2,0.3,0.3,0.5c0.8,1.2,1.5,2.5,2.3,3.8c0.1,0.1,0.1,0.2,0.2,0.3c0.8,1.3,1.5,2.7,2.2,4
				c0,0.1,0.1,0.1,0.1,0.2c0.3,0.7,0.7,1.4,1,2l-6.8,3.1l0,0.1c0.9,2,2.5,3.5,4.5,4.2c0.9,0.4,1.9,0.5,2.9,0.5
				c0.9,0,1.9-0.2,2.8-0.5c0.5,1.3,1.1,2.6,1.6,4c4.4,11.8,7.1,24.3,7.9,37.3l0,0l-13.5,0.6c-0.5-6.6-1.6-13.2-3.2-19.6l-0.4-1.6
				l-1.7,1.2l-0.9-1.3c3.4-2.7,4.1-7.6,1.5-11.1l-0.1-0.1l-6.2,4.6L276.3,174l5.6-4.9l-0.1-0.1c-2.9-3.2-7.7-3.6-11.1-1l-0.5-0.5
				l1.1-1.4l-1.3-0.6c-9.3-4.4-19-7.6-29-9.6L241.5,152.9z M261.5,87.6c-4.1-0.2-7.3-3.5-7.4-7.6h7.4V87.6z M262.2,78.4h189.4
				l54.7,68.2l-94.7,76.5l-7.6-9.2l25-20.5l-61.5-75.2l5.8-4.7l-0.1-0.1c-1.4-1.7-3.3-2.7-5.4-3c-2-0.2-3.9,0.3-5.5,1.4l-4.4-5.4
				c3-2.9,3.4-7.6,0.7-10.9l-0.1-0.1l-5.8,4.7l-7.5-9.1l-0.2-0.3h-14.7c-0.3-4.1-3.8-7.3-7.9-7.3h-0.1v7.3h-31.1
				c-0.3-4.1-3.8-7.3-7.9-7.3h-0.1v7.3h-21.1V78.4z M222.5,95.1l-16.7-20.5l1.6-1.3l7.5,9.2l-1.6,1.3l0.9,1.2l1.6-1.3l8.3,10.2
				L222.5,95.1z M227,57.4l7.4,9l-1.6,1.3l-7.4-9L227,57.4z M225.2,58.9l7.4,9l-1.6,1.3l-7.4-9.1L225.2,58.9z M223.4,60.3l7.4,9.1
				l-1.6,1.3l-7.4-9.1L223.4,60.3z M221.6,61.7l7.4,9.1l-1.6,1.3L220,63L221.6,61.7z M219.9,63.2l7.4,9.1l-1.6,1.3l-7.4-9.1
				L219.9,63.2z M218.1,64.6l7.4,9.1l-1.6,1.3l-7.4-9.1L218.1,64.6z M216.3,66.1l7.4,9.1l-1.6,1.3l-7.4-9.1L216.3,66.1z M214.5,67.5
				l7.4,9.1l-1.6,1.3l-7.4-9.1L214.5,67.5z M212.7,68.9l7.4,9.1l-1.6,1.3l-7.4-9.1L212.7,68.9z M211,70.4l7.5,9.1l-1.6,1.3l-7.5-9.1
				L211,70.4z M209.2,71.8l7.5,9.1l-1.6,1.3l-7.5-9.2L209.2,71.8z M224.3,93.7L216,83.4l1.6-1.3l8.3,10.2L224.3,93.7z M226.1,92.2
				L217.7,82l1.6-1.3l8.3,10.2L226.1,92.2z M227.9,90.8l-8.3-10.2l1.6-1.3l8.4,10.2L227.9,90.8z M229.7,89.3l-8.4-10.2l1.6-1.3
				l8.4,10.3L229.7,89.3z M231.5,87.9l-8.4-10.3l1.6-1.3l8.4,10.3L231.5,87.9z M233.3,86.5l-8.4-10.3l1.6-1.3l8.4,10.3L233.3,86.5z
				 M235.1,85l-8.4-10.3l1.6-1.3l8.5,10.3L235.1,85z M236.9,83.6l-8.5-10.3L230,72l8.5,10.3L236.9,83.6z M238.7,82.1l-8.5-10.3
				l1.6-1.3l8.5,10.3L238.7,82.1z M240.5,80.7L232,70.4l1.6-1.3l8.5,10.3L240.5,80.7z M242.3,79.3l-8.5-10.3l1.6-1.3l8.5,10.4
				L242.3,79.3z M244.1,77.8l-8.5-10.4l0.5-0.4l-0.9-1.2l-0.5,0.4l-7.4-9l9.8-7.9l17,20.6L244.1,77.8z M428.7,76.9
				c-0.4-4-3.8-7.2-7.9-7.2h-0.1v7.2h-10.5V44.5h39v32.4H428.7z M420.9,76.9v-7c4,0.1,7.2,3.1,7.6,7H420.9z M409.4,76.9h-19.8v-7.2
				h-0.1c-4.1,0-7.5,3.2-7.9,7.2h-20.2V44.5h48.1V76.9z M389.3,76.9h-7.6c0.4-3.9,3.6-6.9,7.6-7V76.9z M360.5,76.9h-30.1
				c-0.4-4.1-3.8-7.3-7.9-7.3h-0.1v7.3h-10.6V44.5h48.7V76.9z M322.6,76.9v-7c4,0.1,7.2,3.1,7.6,7H322.6z M311,76.9h-19.7
				c-0.4-4.1-3.8-7.3-7.9-7.3h-0.1v7.3h-18.2V44.5H311V76.9z M283.5,76.9v-7c4,0.1,7.2,3.1,7.6,7H283.5z M261.3,48.8l-24.1-0.2
				l-3.3-4h27.5V48.8z M237.8,49.3l23.5,0.2v14.5l-6.8,5.4L237.8,49.3z M261.3,65v11.9h-0.5v0.2l-5.8-7L261.3,65z M479.6,110.8
				c1.4-1.3,2.3-3.1,2.5-5c0.2-2.1-0.4-4.3-1.7-5.9l-0.1-0.1l-5.9,4.7l-8.8-11L490,74l30.3,38l-24.3,19.4L479.6,110.8z M474.6,104.6
				l5.7-4.5c1.3,1.6,1.8,3.7,1.6,5.7c-0.2,1.9-1.1,3.6-2.5,4.8L474.6,104.6z M459.9,86.3c3.4-2.4,8.1-1.8,10.7,1.4l-5.9,4.6
				L459.9,86.3z M505.9,143.7l-4.8-6l5.6-4.4C509.2,136.4,508.8,140.9,505.9,143.7z M462.4,184.1l4.6,5.8c-1.6,1.3-3.7,1.8-5.7,1.6
				c-1.9-0.2-3.7-1.1-4.9-2.6L462.4,184.1z M456.3,189c1.3,1.5,3.1,2.4,5.1,2.6c0.3,0,0.6,0.1,0.9,0.1c1.8,0,3.6-0.6,5-1.7l0.1-0.1
				l-4.8-6l1.8-1.4l19.5,24.1l-26.6,21.6L437.7,204L456.3,189z M484.4,206.1L464.9,182l15.2-12.3c1.3,1.4,3,2.2,4.9,2.4
				c0.3,0,0.6,0.1,0.9,0.1c1.8,0,3.6-0.6,5-1.7l0.1-0.1l-4.6-5.8l20.8-16.8l19.3,24.1L484.4,206.1z M486.3,164.8l4.5,5.6
				c-1.6,1.3-3.7,1.8-5.7,1.6c-1.8-0.2-3.5-1-4.8-2.4L486.3,164.8z M427.4,212.4c2.4,3.4,1.8,8.1-1.4,10.7l-4.6-5.8L427.4,212.4z
				 M409.7,221.9c-1.6,1.2-3.6,1.7-5.6,1.5c-2-0.2-3.9-1.2-5.2-2.8l5.8-4.6L409.7,221.9z M387.8,239.4c-1.6,1.2-3.5,1.7-5.5,1.5
				c-2-0.2-3.9-1.2-5.2-2.8l5.8-4.6L387.8,239.4z M376.9,237.9L376.9,237.9l0,0.2c1.3,1.7,3.3,2.8,5.4,3c0.3,0,0.6,0.1,0.9,0.1
				c1.7,0,3.3-0.6,4.7-1.6l2.8,3.4L339,284.6l-5.2-6.4c0.4-6,0.4-12.1,0-18.1l2.5-0.1l0.3,7.7l0,0.1l0.1,0c4.4-0.2,7.8-3.8,7.7-8.2
				l3.3-0.2l0.4,0.5l33.7-27.7l0.8,1L376.9,237.9z M344.3,259.6c0,4.2-3.2,7.7-7.4,7.9l-0.3-7.6L344.3,259.6z M340.8,220.9
				c-0.6-1.5-1.1-2.9-1.7-4.4c0-0.1-0.1-0.2-0.1-0.3c-0.6-1.5-1.3-2.9-1.9-4.4c0-0.1-0.1-0.2-0.1-0.2c-0.7-1.4-1.4-2.9-2.1-4.3
				c0-0.1-0.1-0.2-0.1-0.3c-0.7-1.4-1.4-2.7-2.2-4.1c-0.1-0.1-0.1-0.2-0.2-0.4c-0.7-1.3-1.5-2.5-2.3-3.8c-0.1-0.2-0.2-0.4-0.3-0.5
				c-0.7-1.2-1.5-2.3-2.3-3.5c-0.2-0.2-0.3-0.5-0.5-0.7c-0.8-1.1-1.6-2.2-2.4-3.3c-0.2-0.3-0.4-0.5-0.6-0.8
				c-0.9-1.2-1.8-2.3-2.7-3.5l15.4-11.4l28.6,35.8l-21.9,17.5c-0.8-2.6-1.6-5.1-2.6-7.6l0,0C340.8,220.9,340.8,220.9,340.8,220.9z
				 M335.6,212.2c0,0.1,0.1,0.1,0.1,0.2c0.7,1.4,1.3,2.9,1.9,4.4c0,0.1,0.1,0.2,0.1,0.2c0,0.1,0.1,0.1,0.1,0.2
				c-1.8,0.7-3.7,0.7-5.5,0c-1.9-0.7-3.5-2.2-4.3-4l6.6-3C334.9,210.9,335.2,211.5,335.6,212.2z M317.6,182.1
				c-0.9-1-1.7-1.9-2.6-2.9c-0.3-0.3-0.7-0.7-1-1c-0.7-0.7-1.3-1.4-2-2c-0.6-0.6-1.3-1.3-1.9-1.9c-0.4-0.4-0.8-0.8-1.2-1.1
				c-5.2-4.7-10.7-9.1-16.7-12.9l0,0c-3.8-2.4-7.7-4.7-11.7-6.7l24-19l32,40L320.8,186c-0.9-1.1-1.8-2.1-2.7-3.2
				C318,182.6,317.8,182.3,317.6,182.1z M300,167.7l-4,5.7c-3.3-2.4-4.2-6.8-2.2-10.3C295.9,164.6,298,166.1,300,167.7z
				 M252.8,132.1l-9.9-12l30.5-24.5l9.7,11.9l-0.3,0.2l0.2,0.3L252.8,132.1z M251.4,131.6l-5.8,4.7c-1.3-1.6-1.9-3.6-1.6-5.7
				c0.2-2,1.1-3.7,2.6-5L251.4,131.6z M283.5,90.7v-7.1c4,0.1,7.3,3.1,7.6,7.1H283.5z M302.2,92.2L283.7,107l-12.1-14.8H302.2z
				 M322.6,90.7v-7.1c4,0.1,7.3,3.1,7.6,7.1H322.6z M344.5,92.2l4.4,5.3l-24.2,19.6L305,92.5l0.3-0.3H344.5z M353,100.3l5.6-4.6
				c2.5,3.2,2.2,7.8-0.8,10.5L353,100.3z M358.8,109.8l-7.8,6.4l-3.7-4.6c3.3-2.8,3.7-7.8,1-11.2l-0.1-0.1l-6.1,4.9l-0.6-0.7
				l7.8-6.3L358.8,109.8z M362.6,112.1c1.5-1.1,3.4-1.6,5.3-1.4c2.1,0.2,3.9,1.2,5.2,2.8l-5.6,4.6L362.6,112.1z M367.5,120.4
				L343,140.1l-8-10l24.3-19.7L367.5,120.4z M378.3,133.7c-1.6,1.2-3.5,1.7-5.5,1.5c-2.1-0.2-3.9-1.2-5.2-2.8l5.8-4.7L378.3,133.7z
				 M367.4,132.3L367.4,132.3c1.4,1.8,3.4,2.8,5.5,3c0.3,0,0.6,0,0.9,0c1.7,0,3.4-0.5,4.8-1.6l26.7,32.7l-24.9,20.4l-36.8-46.1
				L368,121l5.3,6.5L367.4,132.3z M340.9,104.9l9.5,11.7l-15.9,12.9l-9.4-11.7L340.9,104.9z M342.2,105.4l5.9-4.8
				c2.6,3.3,2.1,8.1-1,10.8L342.2,105.4z M344.2,145.3l55.6,69.7l-17.4,13.9L286,108l17.2-13.7L344.2,145.3z M293.1,120.5
				c-1.5,1-3.4,1.5-5.2,1.3c-2.1-0.2-3.9-1.2-5.2-2.8l5.6-4.6L293.1,120.5z M365.8,211.6l15.4,19.2l-32.5,26.7
				c-0.7-9.7-2.4-19.2-5.1-28.2L365.8,211.6z M380.8,187.4l24.9-20.4l6.9,8.5l-5.8,4.7l0.1,0.1c1.6,2,3.9,3,6.3,3
				c1.6,0,3.2-0.5,4.6-1.4l9.2,11.3l-25.2,20.7L380.8,187.4z M417.6,181.7c-3.3,2.3-7.9,1.7-10.5-1.4l5.6-4.5L417.6,181.7z
				 M270.7,92.2L273,95l-30.5,24.5l-8.5-10.4l21-16.9H270.7z M238.6,116c-1.6,1.2-3.5,1.7-5.5,1.5c-2.1-0.2-3.9-1.2-5.2-2.8l5.8-4.7
				L238.6,116z M233.3,109.6l0.2,0.3l-5.9,4.8l0.1,0.1c1.6,2,3.9,3,6.3,3c1.7,0,3.3-0.5,4.8-1.6l7.6,9.3c-1.5,1.3-2.4,3.2-2.7,5.2
				c-0.2,2.1,0.4,4.3,1.8,5.9l0.1,0.1l6-4.9l0.7,0.8l-10.4,8.3L224,117.1L233.3,109.6z M284,109.1l4.1,5.2l-5.8,4.7l0.1,0.1
				c1.4,1.7,3.3,2.7,5.4,3c0.3,0,0.6,0,0.9,0c1.6,0,3.2-0.5,4.5-1.4l10.6,13.2l-24.2,19.2c-3.8-1.9-7.7-3.6-11.6-5.1
				c0.6-1.9,0.5-3.9-0.4-5.7c-0.9-2-2.5-3.4-4.5-4.2l-0.1,0l-2.7,7.3c-5.4-1.7-10.9-3.1-16.5-4.1L284,109.1z M260.4,145.4l2.6-7.1
				c1.9,0.7,3.5,2.2,4.3,4c0.8,1.8,0.9,3.7,0.4,5.6C265.3,147,262.9,146.2,260.4,145.4z M324.6,233.6l-1.6-2l6.1-4.4
				c1.2,1.7,1.7,3.7,1.4,5.8c-0.3,2-1.3,3.7-2.9,4.9L324.6,233.6z M275.8,173.4l-4.9-5.2c3.2-2.5,7.9-2.2,10.7,0.9l-5.4,4.8
				L275.8,173.4z M333.8,279.3l8.7,10.7l-12.2,10.4C332,293.4,333.2,286.3,333.8,279.3z M343.4,291.1l11.9,14.6L342,316.4
				l-11.7-14.2L343.4,291.1z M378.3,290l-8.1-9.9l1.6-1.3l8.1,9.9L378.3,290z M380.1,288.5l-8.1-9.9l1.6-1.3l8.1,9.9L380.1,288.5z
				 M381.8,287l-8.1-9.9l1.6-1.3c2.7,3.3,5.4,6.6,8.1,9.9L381.8,287z M383.6,285.6c-2.7-3.3-5.4-6.6-8.1-9.9l1.6-1.3l8.1,9.9
				L383.6,285.6z M385.4,284.1l-8.1-9.9l1.6-1.3l8.1,9.9L385.4,284.1z M387.2,282.7l-8.1-9.9l1.6-1.3l8.1,9.9L387.2,282.7z
				 M389,281.2l-8.1-9.9l1.6-1.3c2.7,3.3,5.4,6.6,8.1,9.9L389,281.2z M390.8,279.8c-2.7-3.3-5.4-6.6-8.1-9.9l1.6-1.3l8.1,9.9
				L390.8,279.8z M392.6,278.3l-8.2-9.9l1.6-1.3l8.2,9.9L392.6,278.3z M394.4,276.9l-8.2-9.9l1.6-1.3c2.7,3.3,5.4,6.6,8.2,9.9
				L394.4,276.9z M396.2,275.4c-2.7-3.3-5.4-6.6-8.2-9.9l1.6-1.3l8.2,9.9L396.2,275.4z M433.2,249l-20.2-25l8.3-6.7l4.7,6l0.1-0.1
				c3.4-2.7,4-7.6,1.5-11.1l9.6-7.7l19.5,24.1l-1.1,0.9l0.7,0.9L433.2,249z M527.8,171l-21.7-27.1c3-2.8,3.4-7.6,0.7-10.8l-0.1-0.1
				l-5.8,4.6l-4.4-5.5l24.3-19.4l31,38.9L527.8,171z M489.6,73.4l-24.4,19.5l-0.3-0.4l6-4.7l0.1-0.1l-0.1-0.1
				c-2.7-3.4-7.6-4-11.1-1.5l-7.2-8.9l-0.2-0.3h-2.5V44.5h16.7L489.6,73.4z M135.8,34.2c3.8,0.1,7,2.9,7.5,6.5h-7.5V34.2z
				 M174.5,97.8l4.6,5.7c-3.2,2.5-7.8,2.1-10.6-0.8L174.5,97.8z M113.3,145.8L66,87.9l31.6-25.4h61.6l22.4,27.6L113.3,145.8z
				 M123.1,139.8c2.2,3.3,1.6,7.8-1.5,10.4l-4.5-5.5L123.1,139.8z M104.3,155.1l4.6,5.7c-1.6,1.3-3.6,1.9-5.7,1.6
				c-1.9-0.2-3.6-1.1-4.9-2.5L104.3,155.1z M34,210.6l-9.5-11.9c3.2-2.8,3.7-7.8,1-11.2l-0.1-0.1l-6,4.9l-2.2-2.7l-0.1-0.1h-4.6V131
				l46.1-37.1l47.3,58L34,210.6z M45.6,203.1c1.1,1.6,1.6,3.5,1.4,5.4c-0.2,2.1-1.2,3.9-2.8,5.2l-4.6-5.7L45.6,203.1z M12.5,190.3
				h4.2l16.7,20.8l-20.9,17.1V190.3z M19.4,192.5l5.8-4.7c2.6,3.3,2.1,8-1,10.8L19.4,192.5z M49.5,99.2c-2.1-3.3-1.5-7.7,1.6-10.3
				l4.4,5.4L49.5,99.2z M59.7,92.9l5.1-4.1l47.3,58l-5.1,4.2L59.7,92.9z M66.4,85.6l-4.4-5.5c3.2-2.5,7.7-2.2,10.4,0.6L66.4,85.6z
				 M124.3,52.7c4.1,0.2,7.3,3.5,7.4,7.6h-7.4V52.7z M52.9,34.2v6.5h-7.5C45.9,37.1,49.1,34.3,52.9,34.2z M26.1,34.2
				c3.8,0.1,7,2.9,7.5,6.5h-7.5V34.2z M123.5,44.5v16.4H97L72.5,80.7c-2.9-2.9-7.6-3.2-10.8-0.6l-0.1,0.1l4.6,5.6l-10.5,8.5
				l-4.5-5.6l-0.1,0.1c-3.2,2.6-3.9,7.2-1.7,10.6l-36.9,29.7V44.5H123.5z M2.1,105.6h6.6v7.5C5,112.5,2.2,109.4,2.1,105.6z
				 M0.2,375.7h8.5v9.6C4,384.7,0.3,380.6,0.2,375.7z M0.2,386.1h8.5v9.6C4,395.1,0.3,391,0.2,386.1z M0.2,396.5h8.5v9.6
				C4,405.4,0.3,401.4,0.2,396.5z M12.5,416.4h8.1c-0.1,4.6-3.6,8.4-8.1,9V416.4z M12.5,505.9v-80.4c4.7-0.5,8.3-4.5,8.3-9.3v-0.1
				h-8.3V230.1l26.9-22l4.8,5.9l0.1-0.1c1.7-1.4,2.7-3.3,3-5.4c0.2-2-0.3-3.9-1.5-5.6l52.5-42.8c1.3,1.4,3.1,2.3,5.1,2.5
				c0.3,0,0.6,0,0.9,0c1.8,0,3.6-0.6,5.1-1.8l0.1-0.1l-4.8-5.9l12.4-10.2l4.6,5.7l0.1-0.1c3.3-2.7,3.9-7.4,1.6-10.8l45.1-36.8
				c1.6,1.7,3.7,2.6,5.9,2.6c1.8,0,3.6-0.6,5.1-1.8l0.1-0.1l-4.8-5.9l8.5-6.9l0.6-0.5l-23.8-29.4h-35.7v-0.4h7.6v-0.1
				c0-4.3-3.4-7.7-7.6-7.9v-8h108.6l3.6,4.3l-31.2,25.3l0.2,0.3l-0.1,0.1l17.2,21.1l0.1-0.1l0.2,0.3l31.6-25.2l6.4,7.7v0.2h0.7v1.4
				h-7.6v0.1c0,4.3,3.4,7.7,7.6,7.9v2.9h-7.1l-32.5,26.1l19.6,26.2l0.6-0.5c0,0,0,0,0,0l-1.8,13.2c-18.9-3.6-38.7-2.9-58,1.9l-1.9-7
				l0-0.1l-0.1,0c-2.1,0.6-3.8,1.9-4.9,3.8c-1,1.7-1.3,3.6-0.9,5.5c-5.4,1.7-10.7,3.6-15.9,5.9l-5.6-12.3c0,0,0.1,0,0.1-0.1
				l-0.3-0.7c-13.6,6.1-26.4,13.9-38.1,23.4c-6,4.9-11.7,10.2-17,15.8l0.5,0.5c0.1-0.1,0.2-0.2,0.2-0.2l9.8,9.3
				c-18,19.2-30.7,42.5-36.3,67.3c-7.1,31.4-2.5,62.9,12.9,88.7c0.3,0.5,6.8,12.6,20.9,25.5c21.3,19.5,49.9,30.1,80.7,30.1
				c1.1,0,2.1,0,3.2,0c25.2-0.6,50.3-8.2,72.5-21.8l7.1,11.5c-0.1,0.1-0.2,0.1-0.3,0.2l0.4,0.6c6.6-4,13-8.5,19-13.4
				c11.7-9.5,22-20.4,30.8-32.5l-0.6-0.4c0,0-0.1,0.1-0.1,0.1l-10.9-8c3.3-4.6,6.3-9.3,9-14.2c1,0.4,2,0.6,3,0.6
				c3,0,5.9-1.7,7.3-4.5l0-0.1l-6.5-3.2c3.8-7.9,6.9-16.1,9.2-24.4l12.4,15l14.4-11.6l2.7,3.3l0.3-0.2l0.5,0.6l6.9-5.6l4.5,5.7
				l0.1-0.1c3.3-2.6,4-7.3,1.8-10.7l48-38.9l4.6,5.8l0.1-0.1c1.7-1.3,2.8-3.3,3-5.4c0.2-1.9-0.3-3.9-1.3-5.5l7.3-5.9l27.1,33.5
				l-22.3,18l4.9,6.1l-4.6,3.7l-4.7-6l-0.1,0.1c-1.7,1.3-2.8,3.3-3,5.4c-0.2,2,0.3,4,1.5,5.7l-56.6,46.2c-2.8-3.2-7.7-3.6-11.1-1
				l-0.1,0.1l4.8,6.1l-7.7,6.3l-4.6-5.8l-0.1-0.1l-0.1,0.1c-3.4,2.7-4,7.5-1.6,11l-56.6,46.2c-2.8-3.1-7.7-3.6-11-0.9l-0.1,0.1
				l4.8,6l-7.7,6.3l-4.4-5.5l-0.1-0.1l-0.1,0.1c-1.7,1.3-2.8,3.3-3,5.4c-0.2,1.9,0.2,3.7,1.2,5.3l-56.6,46.3
				c-2.9-2.9-7.5-3.2-10.7-0.6l-0.1,0.1l4.5,5.7l-4.4,3.6l-0.6,0.5l29.1,36.4l-11.1,9.2l0.1,0.1l-0.3,0.2l45.7,57l0.6-0.5l-1.3-1.6
				l10.7-8.9l1.3,1.6l-10.8,9l0.1,0.2l10.8-9l13.6,17l0.5,0.6l2.6-2.1l44.1,54.3l-50.9,0.1v-5.5l-13.8-16c3.1-2.9,3.4-7.8,0.6-11.1
				l-0.1-0.1l-5.9,5l-4.6-5.3l-2.8,2.3l-39.3-49.2l-1.2,0.9l5,6.2l-1.4,1.1c-2.8-3.4-7.8-3.9-11.2-1.2l-0.1,0.1l5,6.3l-1,0.8
				l-6.5-8.1l6.2-4.9l-0.1-0.1c-2.7-3.4-7.7-4.1-11.2-1.4l-11.9-14.9l1-0.8l4.7,6l0.1,0.1l0.1-0.1c3.4-2.7,4-7.7,1.5-11.1l1.3-1.1
				l9.3,11.6l1.2-0.9L180.7,519l-2.8,2.4l-3.2-4.3l-13,10.5l-28.1-34.9l12.7-10.2l-0.5-0.6l-57.3,46.2c-14.4-7-29.6-12.6-45.5-16.6
				C32.9,509,22.7,507.1,12.5,505.9z M453.4,291.9c2.4,3.4,1.8,8-1.4,10.6l-4.6-5.8L453.4,291.9z M426.3,529.6
				c2.4,3.3,1.9,7.8-1.2,10.5l-4.8-5.7L426.3,529.6z M420.2,534.6l4.9,5.7l0.1,0.1l0.1-0.1c3.2-2.7,3.8-7.5,1.3-10.9l14.6-11.8
				l26.6,32.9l0.2,0.2l7.8,1.8l-9.2,40.1l-24.8-5.7l-34.5-41.9L420.2,534.6z M468.7,549.4l-27.4-33.9l-92.9,75.3l-0.6,0.5l21.4,27
				l-7.4,5.9l-4.4-5.4l5.8-4.9l0.1-0.1l-0.1-0.1c-1.4-1.6-3.3-2.7-5.5-2.8c-1.9-0.2-3.8,0.4-5.4,1.5l-2.1-2.6l5.8-4.9l0.1-0.1
				l-0.1-0.1c-2.8-3.3-7.6-3.8-10.9-1.3l-4.8-6l-25.7,20.9l-10.1-12.5l136.5-111.6l7.9,10l0.1-0.1l0.2,0.3l22.9-18.7
				c0.6-0.5,1.5-0.6,2.2-0.1c0.7,0.4,1,1.2,0.8,2l-6.9,29.7l0.7,0.2l0.2-0.9l12.5,3.1l-0.1,0.5l0.7,0.2l6.3-27.6
				c2.1-8-0.3-15.1-6.3-18.9c-4.3-2.7-9.7-3.1-14.6-1.4l32.7-26.7L476,551.1L468.7,549.4z M398.3,552.3l4.6,5.4
				c-1.6,1.3-3.6,1.9-5.6,1.8c-1.9-0.2-3.6-1-4.9-2.3L398.3,552.3z M362.2,581.6c2.4,3.3,1.9,7.9-1.2,10.6l-4.8-5.7L362.2,581.6z
				 M384.2,637.7c3.9,0.3,7,3.6,7.1,7.6h-7L384.2,637.7z M345.1,603.7c3.3-2.4,7.9-1.9,10.6,1.2l-5.7,4.8L345.1,603.7z M349.8,611.8
				L325.4,632l-10.1-12.4l24.6-19.9L349.8,611.8z M350.7,613l14,17.3l-25.1,19.2l-13.3-16.3L350.7,613z M352.4,612.6
				c1.5-1.1,3.4-1.6,5.3-1.5c2.1,0.2,3.9,1.1,5.3,2.7l-5.7,4.8L352.4,612.6z M366.9,630.5l-4.6-5.7l0.3-0.3c1.3,1.6,3.2,2.6,5.3,2.8
				c0.3,0,0.6,0,0.9,0c1.8,0,3.6-0.6,5-1.8l0.1-0.1l-4.9-6.1l0.7-0.6l13,16.4l0.1,25.7l-33.6,0.1l-8.6-10.6L366.9,630.5z
				 M368.8,619.6l4.8,5.9c-1.6,1.3-3.6,1.8-5.7,1.6c-2-0.2-3.8-1.2-5.1-2.7L368.8,619.6z M213.6,497.9l77.3-63.2l87.1,109
				l-77.3,63.2L213.6,497.9z M272.8,596.7c3.6-3,7.1-5.9,10.7-8.9l1.3,1.6l-10.7,8.9L272.8,596.7z M242,535.9
				c-1.7,1.4-3.5,2.9-5.3,4.4c-1.9,1.6-3.8,3.2-5.5,4.6l-1.3-1.6l10.8-9L242,535.9z M236.9,540.4c1.8-1.5,3.6-3,5.3-4.4l1.3,1.6
				c-1.7,1.4-3.5,2.9-5.3,4.4c-1.9,1.6-3.8,3.2-5.6,4.6l-1.3-1.6C233.1,543.6,235,542,236.9,540.4z M238.4,542.2
				c1.8-1.5,3.6-3,5.3-4.4l1.3,1.6c-1.7,1.4-3.5,2.9-5.3,4.4c-1.9,1.6-3.8,3.2-5.5,4.6l-1.3-1.6
				C234.5,545.4,236.5,543.8,238.4,542.2z M239.8,544c1.8-1.5,3.6-3,5.3-4.4l1.3,1.6c-1.6,1.4-3.5,2.9-5.2,4.3
				c-1.9,1.6-3.8,3.2-5.6,4.6l-1.3-1.6C236,547.2,237.9,545.6,239.8,544z M241.3,545.8c1.8-1.5,3.6-3,5.2-4.3l1.3,1.6
				c-1.7,1.4-3.5,2.9-5.2,4.4c-1.9,1.6-3.8,3.2-5.5,4.6l-1.3-1.6C237.4,549,239.4,547.3,241.3,545.8z M242.7,547.6
				c1.8-1.5,3.6-3,5.2-4.4l1.3,1.6c-1.7,1.4-3.5,2.9-5.2,4.4c-1.9,1.6-3.8,3.2-5.5,4.6l-1.3-1.6
				C238.9,550.8,240.8,549.2,242.7,547.6z M244.1,549.4c1.8-1.5,3.6-3,5.2-4.4l1.3,1.6c-1.7,1.4-3.5,2.9-5.2,4.4
				c-1.9,1.6-3.8,3.2-5.5,4.6l-1.3-1.6C240.3,552.6,242.2,551,244.1,549.4z M245.5,551.2c1.8-1.5,3.6-3,5.2-4.4l1.3,1.6
				c-1.7,1.4-3.5,2.9-5.3,4.4c-1.9,1.6-3.8,3.2-5.5,4.6l-1.3-1.6C241.7,554.4,243.7,552.8,245.5,551.2z M247,553
				c1.8-1.5,3.6-3,5.2-4.4l1.3,1.6c-1.6,1.4-3.4,2.9-5.2,4.4c-1.9,1.6-3.8,3.2-5.5,4.6l-1.3-1.6C243.2,556.2,245.1,554.6,247,553z
				 M248.4,554.8c1.8-1.5,3.6-3,5.2-4.4l1.3,1.6c-1.6,1.4-3.5,2.9-5.2,4.4c-1.9,1.6-3.8,3.2-5.5,4.6l-1.3-1.6
				C244.6,558,246.6,556.3,248.4,554.8z M249.9,556.6c1.8-1.5,3.6-3,5.2-4.4l1.3,1.6c-1.6,1.4-3.4,2.9-5.2,4.4
				c-1.9,1.6-3.8,3.2-5.5,4.6l-1.3-1.6C246.1,559.8,248,558.1,249.9,556.6z M251.3,558.3c1.8-1.5,3.6-3,5.2-4.4l1.3,1.6l-10.7,9
				l-1.3-1.6C247.5,561.6,249.4,559.9,251.3,558.3z M258,555.8l11.1,13.9l-10.8,8.8l-11-13.7L258,555.8z M269.2,569.9l1.3,1.6
				l-10.8,8.8l-1.3-1.6L269.2,569.9z M270.6,571.7l1.3,1.6l-10.8,8.8l-1.3-1.6L270.6,571.7z M272.1,573.4l1.3,1.6l-10.8,8.8
				l-1.3-1.6L272.1,573.4z M273.5,575.2l1.3,1.6l-10.8,8.8l-1.3-1.6L273.5,575.2z M274.9,577l1.3,1.6l-10.8,8.8l-1.3-1.6L274.9,577z
				 M276.4,578.8l1.3,1.6l-10.8,8.8l-1.3-1.6L276.4,578.8z M277.8,580.6l1.3,1.6l-10.8,8.8l-1.3-1.6L277.8,580.6z M279.2,582.4
				l1.3,1.6c-3.6,2.9-7.2,5.9-10.7,8.8l-1.3-1.6L279.2,582.4z M280.7,584.2l1.3,1.6l-10.7,8.9l-1.3-1.6
				C273.5,590.1,277.1,587.2,280.7,584.2z M282.1,586l1.3,1.6c-3.6,3-7.1,5.9-10.7,8.9l-1.3-1.6L282.1,586z M216.7,493.5l-4.4-5.5
				c3.1-2.4,7.6-2.1,10.3,0.7L216.7,493.5z M279.6,442.1c-1-1.5-1.4-3.3-1.2-5.1c0.2-2,1.2-3.9,2.8-5.2l4.3,5.4L279.6,442.1z
				 M293.6,430.6l-4.6-5.8c3.3-2.5,7.9-2.1,10.6,1L293.6,430.6z M366.6,372.9l87.1,109l-74.5,60.9l-87.1-109L366.6,372.9z
				 M356.5,379.2c-2.4-3.4-1.8-8,1.4-10.6l4.5,5.7L356.5,379.2z M481.4,519.6l-12.5-3.1l0.5-2l12.5,3.1L481.4,519.6z M482,517.3
				l-12.5-3.1l0.5-2l12.5,3.1L482,517.3z M482.5,515.1L470,512l0.5-2l12.5,3.1L482.5,515.1z M483,512.8l-12.5-3.1l0.5-2l12.5,3.1
				L483,512.8z M483.5,510.6l-12.5-3.1l0.5-2l12.5,3L483.5,510.6z M484,508.3l-12.5-3l0.5-2l12.5,3L484,508.3z M484.5,506.1l-12.5-3
				l0.5-2l12.5,3L484.5,506.1z M485,503.8l-12.5-3l0.5-2l12.5,3L485,503.8z M485.6,501.6l-12.5-3l0.5-2l12.5,3L485.6,501.6z
				 M486.1,499.3l-12.5-3l0.5-2l12.4,2.9L486.1,499.3z M486.6,497.1l-12.4-2.9l0.5-2L487,495L486.6,497.1z M487.1,494.8l-12.4-2.9
				l0.5-2l12.4,2.9L487.1,494.8z M487.6,492.6l-12.4-2.9l0.4-1.8c0.3-1.1-0.2-2.2-1.2-2.8c-1-0.6-2.2-0.5-3,0.2l-1.4,1.1l-7.8-9.5
				l3.1-2.5c5.3-2.8,11.5-2.8,16.3,0.2C487.3,478.2,489.6,484.9,487.6,492.6z M462,477l7.8,9.5l-1.6,1.3l-7.8-9.5L462,477z
				 M460.2,478.4l7.8,9.5l-1.6,1.3l-7.8-9.6L460.2,478.4z M458.5,479.9l7.8,9.6l-1.6,1.3l-7.8-9.6L458.5,479.9z M456.7,481.3
				l7.8,9.6l-1.6,1.3l-7.8-9.6L456.7,481.3z M454.9,482.8l7.8,9.6l-1.6,1.3l-7.7-9.6L454.9,482.8z M448.5,503.9l-7.7-9.6l1.6-1.3
				l7.7,9.6L448.5,503.9z M450.3,502.4l-7.7-9.6l1.6-1.3l7.7,9.6L450.3,502.4z M452.1,501l-7.7-9.6l1.6-1.3l7.7,9.6L452.1,501z
				 M453.9,499.5l-7.7-9.6l1.6-1.3l7.7,9.6L453.9,499.5z M455.7,498.1l-7.7-9.6l1.6-1.3l7.7,9.6L455.7,498.1z M457.5,496.6l-7.7-9.6
				l1.6-1.3l7.7,9.6L457.5,496.6z M459.3,495.1l-7.7-9.6l1.6-1.3l7.7,9.6L459.3,495.1z M500.6,443.5l-45.8,37.4l-87.1-109l77.3-63.2
				l67.1,84L500.6,443.5z M370.6,367.7l-4.7-5.9c3.3-2.5,7.9-2.1,10.7,1L370.6,367.7z M433.4,316.3c-1.2-1.6-1.7-3.5-1.4-5.5
				c0.2-2.1,1.2-3.9,2.8-5.2l4.6,5.8L433.4,316.3z M277.4,633.8l5.7-4.8c2.6,3.2,2.3,7.8-0.6,10.7L277.4,633.8z M294.8,656.3v5
				l-59.4,0.1l37.1-31L294.8,656.3z M226.7,594.7l-4.8-6.1c3.3-2.6,8.2-2,10.8,1.2l-4.5,3.7L226.7,594.7z M214.2,581.3
				c3.4-2.5,8.2-2,10.8,1.3l-6,4.8L214.2,581.3z M209.3,560.4c2.5,3.4,1.9,8.1-1.3,10.8l-4.7-5.9L209.3,560.4z M123.3,528.9
				c-2,1.5-4.4,2.2-6.9,2c-2.5-0.3-4.8-1.5-6.4-3.4l7.3-6L123.3,528.9z M116.9,521c-2,1.5-4.4,2.2-6.8,2c-2.5-0.3-4.8-1.5-6.4-3.4
				l7.3-5.9L116.9,521z M103.4,519.4L103.4,519.4l0,0.2c1.7,2,4,3.3,6.6,3.6c0.3,0,0.7,0.1,1,0.1c2.2,0,4.3-0.7,6-2.1l0.2,0.2
				l-7.4,6l-0.1,0.1l0.1,0.1c1.7,2,4,3.3,6.6,3.6c0.3,0,0.7,0.1,1,0.1c2.2,0,4.3-0.7,6-2.1l0.4,0.5c-1.9,1.6-3.2,3.9-3.4,6.4
				c-0.3,2.6,0.4,5.2,2.1,7.2l0.1,0.1l7.5-6l0.3,0.3c-2,1.6-3.2,3.9-3.5,6.5c-0.3,2.6,0.4,5.2,2.1,7.2l0.1,0.1l7.6-6l1.2,1.4
				l-8.5,6.8c-12.5-9.7-25.9-18.1-40.2-25.1l20.6-16.6l1.2,1.4L103.4,519.4z M130,537.2l-7.4,5.9c-1.6-2-2.3-4.5-2-7
				c0.3-2.5,1.5-4.7,3.4-6.3L130,537.2z M136.5,545.3l-7.4,5.9c-1.6-2-2.3-4.5-2-7c0.3-2.5,1.5-4.7,3.4-6.3L136.5,545.3z
				 M138.3,546.4l-28.1-34.9l22.7-18.3l1.2,1.5l-7.3,5.9l-0.1,0.1l0.1,0.1c1.9,2.4,4.8,3.6,7.7,3.6c2.1,0,4.1-0.6,5.9-2l0.2,0.3
				l-7.3,5.9l-0.1,0.1l0.1,0.1c1.7,2,4,3.3,6.6,3.6c0.4,0,0.7,0.1,1,0.1c2.1,0,4.1-0.7,5.8-1.9l0.4,0.5c-3.9,3.5-4.4,9.4-1.1,13.5
				l0.1,0.1l7.3-5.9l0.3,0.3c-1.8,1.6-3,3.8-3.2,6.3c-0.3,2.6,0.5,5.2,2.1,7.2l0.1,0.1l7.3-5.9l1.2,1.4L138.3,546.4z M159.7,526.5
				l-7.1,5.7c-1.6-2-2.3-4.5-2-7c0.3-2.4,1.4-4.6,3.2-6.2L159.7,526.5z M153.2,518.4l-7.1,5.7c-3.2-4-2.6-9.8,1.1-13.1L153.2,518.4z
				 M146.6,510.3c-1.9,1.4-4.3,2.1-6.7,1.8c-2.5-0.3-4.8-1.5-6.4-3.4l7.2-5.8L146.6,510.3z M140.1,502.2c-4.1,3.1-9.9,2.4-13.2-1.6
				l7.2-5.8L140.1,502.2z M130.5,554.6l43.8-35.3l3.2,4.3l2.9-2.4l29.9,37.4l-9.2,7.5l24.3,30.6l9.3-7.5l33.9,42.5l-35.6,29.8
				l-26.3,0.1C191.8,618.6,165.1,581.8,130.5,554.6z M462.2,611.4L402,661.1l-17.7,0l0-15.6h7.3v-0.1c0-4.2-3.2-7.6-7.3-7.9l0-2.6
				l-34.3-43.3l6.1-4.9l4.9,5.8l0.1,0.1l0.1-0.1c3.3-2.8,3.8-7.6,1.3-10.9l14.7-12l46.3,57.9l1.2-0.9l-46.3-57.9l13.9-11.2
				c1.4,1.4,3.1,2.2,5.1,2.4c0.2,0,0.5,0,0.7,0c1.9,0,3.7-0.7,5.2-1.9l0.1-0.1l-4.7-5.5l7.6-6.1l34.8,42.3l25.3,5.8L462.2,611.4z
				 M512.7,390.9l-71.3-89.2l5.9-4.7l4.7,5.9l0.1-0.1c3.4-2.7,4-7.5,1.6-11l31.3-25.3l0.7,0.9l53.8-43.4l9.3,9.3L512.7,390.9z
				 M484.9,254.4c2.5,0.3,4.8,1.5,6.4,3.4l-7.4,6l-6-7.4C479.9,254.8,482.4,254.1,484.9,254.4z M478.4,246.4
				c2.5,0.3,4.8,1.5,6.4,3.4l-7.4,6l-6-7.4C473.5,246.8,475.9,246.1,478.4,246.4z M472.2,234.3c1.6,2,2.3,4.5,2,7
				c-0.3,2.5-1.4,4.7-3.3,6.3l-6-7.4L472.2,234.3z M464.4,239.5l-6-7.4l7.3-5.9C468.9,230.3,468.3,236.2,464.4,239.5z"/>
			<path class="wireColor" d="M531.2,7.5V0h-0.1c-4.2,0-7.7,3.3-7.9,7.4h-1.9C521,3.3,517.6,0,513.3,0h-0.1v7.5H512V7.2h-7.2v0.2h-6.2
				v16.8c-4.1,0.3-7.4,3.7-7.4,7.9v0.1h7.4V43l76.4,94.3L604.3,7.5H531.2z M531,0.2v7.2h-7.6C523.7,3.5,526.9,0.3,531,0.2z
				 M513.4,0.2c4.1,0.1,7.4,3.2,7.6,7.2h-7.6V0.2z M506.3,8.7h4.2v4.1h-4.2V8.7z M491.4,32.1c0.1-4,3.2-7.3,7.2-7.6v7.6H491.4z
				 M573,128.9l-70.6-87.2V11.2h2.5v3.1h7.2v-3.1h87.6L573,128.9z"/>
			<path class="wireColor" d="M130.3,466.1l0.1-0.3l-20.3-8.6l-0.1,0.4c-4.6,12.8-17.4,21.8-31.1,21.8c-18.3,0-33.1-14.9-33.1-33.1
				c0-3.5,0.1-5.5,1.2-8.8l0.1-0.4l-21.6-4.6l-0.1,0.4c-1.1,4.4-1.7,8.9-1.7,13.4c0,30.4,24.7,55.1,55.1,55.1
				C101.5,501.4,122.2,487.2,130.3,466.1z M60.6,474.7c0.4,0.3,0.8,0.5,1.2,0.8l-10.1,17.8c-0.8-0.5-1.6-1-2.4-1.5L60.6,474.7z
				 M48.7,491.4c-0.8-0.5-1.5-1.1-2.3-1.6l12.4-16.4c0.4,0.3,0.8,0.6,1.2,0.8L48.7,491.4z M62.5,475.9c0.4,0.2,0.9,0.5,1.3,0.7
				l-9,18.4c-0.8-0.4-1.7-0.8-2.5-1.3L62.5,475.9z M64.5,476.9c0.4,0.2,0.9,0.4,1.3,0.6l-7.7,19c-0.9-0.4-1.7-0.7-2.5-1.1
				L64.5,476.9z M66.5,477.7c0.4,0.2,0.9,0.3,1.4,0.5l-6.5,19.4c-0.9-0.3-1.7-0.6-2.6-1L66.5,477.7z M68.6,478.5
				c0.5,0.1,0.9,0.3,1.4,0.4l-5.2,19.8c-0.9-0.2-1.8-0.5-2.7-0.8L68.6,478.5z M70.7,479.1c0.5,0.1,0.9,0.2,1.4,0.3l-3.9,20.1
				c-0.9-0.2-1.8-0.4-2.7-0.6L70.7,479.1z M72.8,479.6c0.5,0.1,1,0.2,1.4,0.2l-2.6,20.3c-0.9-0.1-1.8-0.3-2.7-0.4L72.8,479.6z
				 M75,479.9c0.5,0.1,1,0.1,1.4,0.1l-1.3,20.5c-0.9-0.1-1.9-0.2-2.8-0.3L75,479.9z M77.2,480.1c0.5,0,1,0,1.5,0l0.1,20.5
				c-0.9,0-1.9,0-2.8-0.1L77.2,480.1z M112.6,488.9c-0.8,0.6-1.6,1.2-2.4,1.8l-11.7-16.8c0.4-0.3,0.8-0.6,1.2-0.9L112.6,488.9z
				 M100.4,472.4c0.4-0.3,0.8-0.7,1.2-1l13.9,15.1c-0.7,0.7-1.5,1.3-2.2,1.9L100.4,472.4z M109.6,491c-0.8,0.6-1.6,1.1-2.5,1.6
				L96.6,475c0.4-0.3,0.9-0.5,1.3-0.8L109.6,491z M106.5,493c-8.1,4.8-17.4,7.5-27.1,7.6l-0.1-20.5c5.9-0.1,11.6-1.8,16.6-4.7
				L106.5,493z M126.8,472c-0.5,0.9-1,1.7-1.5,2.5l-17.4-10.8c0.3-0.4,0.5-0.9,0.8-1.3L126.8,472z M109,461.8
				c0.2-0.5,0.5-0.9,0.7-1.4l18.7,8.3c-0.4,0.9-0.8,1.8-1.3,2.6L109,461.8z M124.9,475.2c-0.5,0.8-1.1,1.6-1.6,2.4l-16.6-12
				c0.3-0.4,0.6-0.8,0.9-1.3L124.9,475.2z M122.8,478.3c-0.6,0.8-1.2,1.6-1.8,2.3l-15.8-13.1c0.3-0.4,0.6-0.8,0.9-1.2L122.8,478.3z
				 M120.5,481.2c-0.6,0.7-1.3,1.5-2,2.2l-14.9-14.1c0.4-0.4,0.7-0.8,1-1.2L120.5,481.2z M110.6,458.2l18.9,8
				c-0.2,0.6-0.5,1.2-0.8,1.9l-18.7-8.4C110.2,459.2,110.4,458.7,110.6,458.2z M103.2,469.8l14.9,14.1c-0.7,0.7-1.4,1.4-2.1,2.1
				l-13.9-15.1C102.5,470.5,102.8,470.2,103.2,469.8z M45.2,442.2c0,0.4-0.1,0.9-0.1,1.4l-20.4-1.4c0.1-0.9,0.1-1.8,0.3-2.7
				L45.2,442.2z M25.1,438.8c0.1-0.9,0.3-1.8,0.4-2.6l20,3.9c-0.1,0.5-0.2,0.9-0.2,1.4L25.1,438.8z M45.1,444.3c0,0.4,0,0.9,0,1.4
				l-20.5-0.1c0-0.9,0-1.8,0.1-2.7L45.1,444.3z M45.1,446.5c0,0.5,0,0.9,0,1.4L24.6,449c0-0.9-0.1-1.8-0.1-2.7L45.1,446.5z
				 M45.1,448.6c0,0.5,0.1,0.9,0.1,1.4l-20.3,2.5c-0.1-0.9-0.2-1.8-0.2-2.7L45.1,448.6z M45.4,450.7c0.1,0.5,0.1,0.9,0.2,1.4
				l-20.1,3.8c-0.2-0.9-0.3-1.8-0.4-2.6L45.4,450.7z M45.7,452.8c0.1,0.5,0.2,0.9,0.3,1.4l-19.9,5c-0.2-0.9-0.4-1.7-0.6-2.6
				L45.7,452.8z M46.2,454.9c0.1,0.4,0.2,0.9,0.4,1.3L27,462.5c-0.3-0.8-0.5-1.7-0.7-2.6L46.2,454.9z M46.8,456.9
				c0.1,0.4,0.3,0.9,0.5,1.3l-19.1,7.5c-0.3-0.8-0.6-1.7-0.9-2.5L46.8,456.9z M46.1,437.7c-0.2,0.6-0.3,1.2-0.5,1.7l-20-3.9
				c0.1-0.7,0.3-1.4,0.4-2.1L46.1,437.7z M28.5,466.4l19.1-7.5c2.3,5.6,6,10.4,10.7,14.1l-12.4,16.3
				C38.2,483.5,32.1,475.6,28.5,466.4z"/>
		</g>
	</g>
</g>
<g id="eventSpot">
	<path id="aula" class="eventColor" d="M124.9,189c-53,43.1-69.4,115-38.1,167.3c0.1,0.2,6.7,12.3,20.5,24.9c44.5,40.6,117.9,39,170.6-3.9
		c42.3-34.4,62.2-87.4,50.9-135.6l-0.9,0.6l-5.2-7.5l-48.7-60l-6.8-7.2l0.6-0.8C223.1,146.1,167.1,154.7,124.9,189z"/>
	<path id="hol" class="eventColor" d="M270.2,403c-0.3,0.2-0.6,0.4-0.9,0.5l-0.4-0.6c0.1-0.1,0.2-0.1,0.3-0.2l-7.1-11.5
		c0,0-0.8,0.5-2.3,1.3c-21.7,12.7-46,19.9-70.3,20.4c-1.1,0-2.1,0-3.2,0c-30.8,0-59.3-10.6-80.7-30.1c-14.2-12.9-20.7-25-20.9-25.5
		c-15.4-25.8-20-57.3-12.9-88.7c5.6-24.8,18.3-48.1,36.3-67.3l-9.8-9.3c-0.1,0.1-0.2,0.2-0.2,0.2l-0.5-0.5c0.2-0.2,0.4-0.4,0.7-0.7
		l-17.7-16.9l-68.2,55.6v275.9c10.2,1.2,20.4,3.1,30.4,5.6c15.9,4,31.1,9.6,45.5,16.6l57.3-46.2l0.5,0.6l-12.7,10.2l28.1,34.9
		l13-10.5l3.2,4.3l2.8-2.4l30.9-21.4l79.1-64.6L270.2,403z M79.6,500.6c-30.2,0.5-55.1-23.2-55.6-53c-0.1-5.4,0.6-9.8,2-14.7
		c7,1.1,13.7,3.2,20.6,4.7c-0.9,3-0.9,4.6-0.9,7.9c0,19,15,34.4,33.5,34.4c14.8,0,26.9-8.7,31.4-22.4c6.5,2.8,13.2,5.2,19.5,8.4
		C122.3,486.1,102.8,500.2,79.6,500.6z"/>
	<polygon id="sala1" class="eventColor" points="213.6,497.9 291,434.7 378,543.7 300.7,606.9 	"/>
	<polygon id="sala2" class="eventColor" points="366.6,372.9 292.1,433.7 379.2,542.7 453.7,481.9 	"/>
	<polygon id="sala3" class="eventColor" points="445.1,308.7 367.8,371.9 454.8,480.9 500.6,443.5 512.2,392.8 	"/>
	<polygon id="sala6" class="eventColor" points="65.1,88 97.3,61.7 159.6,61.7 182.7,90.2 113.2,146.9 	"/>
</g>
<g id="guideSpot">
	<circle id="CW-0-D04" class="wireColor" cx="154.1" cy="122.4" r="5.1"/>
	<circle id="CW-0-D03" class="wireColor" cx="262.5" cy="611.9" r="5.1"/>
	<circle id="CW-0-D02" class="wireColor" cx="399.1" cy="335" r="5.1"/>
	<circle id="CW-0-D01" class="wireColor" cx="181.6" cy="452.7" r="5.1"/>
</g>
</svg>
