<?xml version="1.0" encoding="utf-8"?>
<!-- Generator: Adobe Illustrator 20.0.0, SVG Export Plug-In . SVG Version: 6.00 Build 0)  -->
<svg version="1.1" id="Warstwa_1" xmlns="http://www.w3.org/2000/svg" xmlns:xlink="http://www.w3.org/1999/xlink" x="0px" y="0px"
	 viewBox="0 0 598.2 658.1" style="enable-background:new 0 0 598.2 658.1;" xml:space="preserve">
<style type="text/css">.wireColor{fill: #777777;}.nofloorColor{fill: #F2F2F2;}.arrowColor{fill: #EA5906;}.eventColor{opacity: 0.3; fill: #F59E16; transition: 1s fill;}.wcColor{opacity: 0.3; fill: #3693B2;}.stairsColor{opacity: 0.3; fill: #73cc15;}.transparentObject{fill: 0;}.riverColor{fill: #B9DDEF;}.mapElements{fill: #E2E2E2;}.tramColor{fill: #73CC15;}.mapArrows{fill: #BFBFBF;}.buildingFill{fill: #E5E5E5;}.eventColor.active{opacity: 0.3; fill: red; -webkit-animation: alertOpacity 2s infinite alternate; animation: alertOpacity 2s infinite alternate;}@-webkit-keyframes alertOpacity{0%{opacity: 0.3;}50%{opacity: 0.5;}100%{opacity: 0.3;}}@keyframes alertOpacity{0%{opacity: 0.3;}50%{opacity: 0.5;}100%{opacity: 0.3;}}#guideSpot .eventColor.active{fill: red; opacity: 1; r: 10; transform-origin: 150px 150px; -webkit-transform-origin: 50% 50%; -webkit-animation: alertScale 2s infinite alternate; animation: alertScale 2s infinite alternate;}@-webkit-keyframes alertScale{0%{-webkit-transform: scale(1, 1);}50%{-webkit-transform: scale(2, 2);}100%{-webkit-transform: scale(1, 1);}}@keyframes alertScale{0%{transform: scale(1, 1);}50%{transform: scale(2, 2);}100%{transform: scale(1, 1);}}</style>
<g id="wire">
	<g id="description">
		<g>
			<path class="wireColor" d="M106.2,62.3v0.4h-1.4v-0.4c0-1.2-0.5-1.9-1.5-1.9s-1.5,0.7-1.5,1.9c0,3,4.5,3.3,4.5,7c0,2-1,3.3-3,3.3
				c-2,0-3-1.3-3-3.3v-0.8h1.4v0.8c0,1.2,0.5,1.9,1.6,1.9s1.6-0.7,1.6-1.9c0-3-4.4-3.2-4.4-7c0-2,0.9-3.3,2.9-3.3
				C105.2,59,106.2,60.3,106.2,62.3z"/>
			<path class="wireColor" d="M109,69.8l-0.5,2.7h-1.4l2.5-13.3h2.1l2.5,13.3h-1.5l-0.5-2.7H109z M109.2,68.5h3l-1.5-7.7L109.2,68.5z"/>
			<path class="wireColor" d="M115.5,72.4V59.2h1.5v11.9h3.8v1.3H115.5z"/>
			<path class="wireColor" d="M123.4,69.8l-0.5,2.7h-1.4l2.5-13.3h2.1l2.5,13.3h-1.5l-0.5-2.7H123.4z M123.6,68.5h3l-1.5-7.7L123.6,68.5z"
				/>
		</g>
		<g>
			<path class="wireColor" d="M108.2,87.4c-0.9,0.6-2.1,1-3.4,1v-2.2c2.7-0.1,3.6-1.5,4.2-3.3h1.9v24.5h-2.7V87.4z"/>
			<path class="wireColor" d="M125.9,88.9v0.6c0,2.5-1,4.3-3,5c2.1,0.8,3,2.6,3,5.1v1.9c0,3.7-1.8,6.2-5.5,6.2c-3.7,0-5.5-2.5-5.5-6.2
				v-1.7h2.6v1.9c0,2.2,0.9,3.5,2.9,3.5c2,0,2.9-1.3,2.9-3.8v-1.9c0-2.4-1-3.6-3.1-3.6h-1.5v-2.5h1.6c1.8-0.1,2.9-1.2,2.9-3.4V89
				c0-2.5-0.9-3.8-2.9-3.8c-2,0-2.9,1.4-2.9,3.6V90h-2.6v-1.1c0-3.7,1.8-6.2,5.5-6.2C124.1,82.7,125.9,85.1,125.9,88.9z"/>
		</g>
		<g>
			<path class="wireColor" d="M32.6,122.7v0.4h-1.4v-0.4c0-1.2-0.5-1.9-1.5-1.9s-1.5,0.7-1.5,1.9c0,3,4.5,3.3,4.5,7c0,2-1,3.3-3,3.3
				c-2,0-3-1.3-3-3.3v-0.8H28v0.8c0,1.2,0.5,1.9,1.6,1.9s1.6-0.7,1.6-1.9c0-3-4.4-3.2-4.4-7c0-2,0.9-3.3,2.9-3.3
				C31.6,119.4,32.6,120.7,32.6,122.7z"/>
			<path class="wireColor" d="M35.4,130.1l-0.5,2.7h-1.4l2.5-13.3h2.1l2.5,13.3h-1.5l-0.5-2.7H35.4z M35.6,128.9h3l-1.5-7.7L35.6,128.9z"
				/>
			<path class="wireColor" d="M41.9,132.8v-13.3h1.5v11.9h3.8v1.3H41.9z"/>
			<path class="wireColor" d="M49.8,130.1l-0.5,2.7h-1.4l2.5-13.3h2.1l2.5,13.3h-1.5l-0.5-2.7H49.8z M50,128.9h3l-1.5-7.7L50,128.9z"/>
		</g>
		<g>
			<path class="wireColor" d="M34.6,147.8c-0.9,0.6-2.1,1-3.4,1v-2.2c2.7-0.1,3.6-1.5,4.2-3.3h1.9v24.5h-2.7V147.8z"/>
			<path class="wireColor" d="M52.4,149.3c0,7.4-8.3,10-8.3,15.7v0.4h8.1v2.5H41.4v-2.1c0-7.9,8.3-9.5,8.3-16.3c0-2.5-0.8-3.8-2.9-3.8
				c-2,0-2.9,1.4-2.9,3.6v2.2h-2.6v-2c0-3.7,1.7-6.2,5.5-6.2C50.7,143.1,52.4,145.5,52.4,149.3z"/>
		</g>
		<g>
			<path class="wireColor" d="M440.5,377.7v0.4h-1.6v-0.5c0-1.4-0.5-2.2-1.7-2.2s-1.7,0.8-1.7,2.2c0,3.4,5.1,3.7,5.1,8
				c0,2.3-1.1,3.8-3.4,3.8c-2.3,0-3.4-1.5-3.4-3.8v-0.9h1.6v1c0,1.4,0.6,2.2,1.8,2.2s1.8-0.8,1.8-2.2c0-3.4-5.1-3.7-5.1-8
				c0-2.3,1.1-3.8,3.4-3.8C439.4,373.8,440.5,375.3,440.5,377.7z"/>
			<path class="wireColor" d="M443.7,386.2l-0.6,3.1h-1.6l2.9-15.2h2.5l2.9,15.2h-1.7l-0.6-3.1H443.7z M443.9,384.7h3.4l-1.7-8.8
				L443.9,384.7z"/>
			<path class="wireColor" d="M451.1,389.2V374h1.7v13.7h4.3v1.5H451.1z"/>
			<path class="wireColor" d="M460.2,386.2l-0.6,3.1H458l2.9-15.2h2.5l2.9,15.2h-1.7l-0.6-3.1H460.2z M460.4,384.7h3.4l-1.7-8.8
				L460.4,384.7z"/>
		</g>
		<g>
			<path class="wireColor" d="M456.3,408v14.3c0,4.5-2,7.3-6.5,7.3c-4.3,0-6.3-2.8-6.3-7.1V422h2.9v0.7c0,2.5,1.1,4,3.3,4
				c2.4,0,3.4-1.5,3.4-4.5V416c-0.8,1.9-2.3,3-4.5,3c-3.6,0-5.2-2.6-5.2-6.6V408c0-4.3,2.1-7.1,6.4-7.1
				C454.2,401,456.3,403.7,456.3,408z M446.5,407.9v4.2c0,2.5,1.1,4,3.3,4c2.3,0,3.3-1.5,3.3-4v-4.2c0-2.6-1-4.1-3.3-4.1
				C447.6,403.8,446.5,405.3,446.5,407.9z"/>
		</g>
		<g>
			<path class="wireColor" d="M289.4,502.2v0.4h-1.6v-0.5c0-1.4-0.5-2.2-1.7-2.2c-1.2,0-1.7,0.8-1.7,2.2c0,3.4,5.1,3.7,5.1,8
				c0,2.3-1.1,3.8-3.4,3.8s-3.4-1.5-3.4-3.8v-0.9h1.6v1c0,1.4,0.6,2.2,1.8,2.2s1.8-0.8,1.8-2.2c0-3.4-5.1-3.7-5.1-8
				c0-2.3,1.1-3.8,3.4-3.8C288.4,498.4,289.4,499.9,289.4,502.2z"/>
			<path class="wireColor" d="M292.7,510.7l-0.6,3.1h-1.6l2.9-15.2h2.5l2.9,15.2h-1.7l-0.6-3.1H292.7z M292.9,509.3h3.4l-1.7-8.8
				L292.9,509.3z"/>
			<path class="wireColor" d="M300.1,513.8v-15.2h1.7v13.7h4.3v1.5H300.1z"/>
			<path class="wireColor" d="M309.2,510.7l-0.6,3.1H307l2.9-15.2h2.5l2.9,15.2h-1.7l-0.6-3.1H309.2z M309.4,509.3h3.4l-1.7-8.8
				L309.4,509.3z"/>
		</g>
		<g>
			<path class="wireColor" d="M302,528.6h-9.5v-2.8h12.7v2.7l-7.2,25.3h-3.1L302,528.6z"/>
		</g>
		<g>
			<path class="wireColor" d="M183.8,595.3h-2.7l-2.4-17.6h1.9l2.1,15l2-14.9h1.9l1.9,15l2-15h1.7l-2.4,17.6h-2.6l-1.7-11.9L183.8,595.3z"
				/>
			<path class="wireColor" d="M201.5,581.9v1.6h-1.9v-1.7c0-1.6-0.6-2.5-2.1-2.5c-1.4,0-2.1,1-2.1,2.5v9.3c0,1.6,0.7,2.5,2.1,2.5
				c1.4,0,2.1-1,2.1-2.5v-2.3h1.9v2.2c0,2.7-1.3,4.4-4,4.4c-2.7,0-3.9-1.8-3.9-4.4v-9.1c0-2.7,1.3-4.4,3.9-4.4
				C200.3,577.5,201.5,579.3,201.5,581.9z"/>
		</g>
	</g>
	<g id="colums">
		<path class="wireColor" d="M7.2,0H0v7.1h7.2V0z M5.7,5.6H1.5V1.5h4.2V5.6z"/>
		<path class="wireColor" d="M62.3,0h-7.2v7.1h7.2V0z M60.8,5.6h-4.2V1.5h4.2V5.6z"/>
		<path class="wireColor" d="M111.6,0h-7.2v7.1h7.2V0z M110.1,5.6h-4.2V1.5h4.2V5.6z"/>
		<path class="wireColor" d="M160.9,0h-7.2v7.1h7.2V0z M159.4,5.6h-4.2V1.5h4.2V5.6z"/>
		<path class="wireColor" d="M210.2,0H203v7.1h7.2V0z M208.7,5.6h-4.2V1.5h4.2V5.6z"/>
		<path class="wireColor" d="M259.4,0h-7.2v7.1h7.2V0z M257.9,5.6h-4.2V1.5h4.2V5.6z"/>
		<path class="wireColor" d="M308.7,0h-7.2v7.1h7.2V0z M307.2,5.6H303V1.5h4.2V5.6z"/>
		<path class="wireColor" d="M358,0h-7.2v7.1h7.2V0z M356.5,5.6h-4.2V1.5h4.2V5.6z"/>
		<path class="wireColor" d="M407.3,0h-7.2v7.1h7.2V0z M405.8,5.6h-4.2V1.5h4.2V5.6z"/>
		<path class="wireColor" d="M456.6,0h-7.2v7.1h7.2V0z M455.1,5.6h-4.2V1.5h4.2V5.6z"/>
	</g>
	<g id="empty">
		<path class="nofloorColor" d="M140,426.4l-6.2,17c22.7,12.2,44,27,63.2,44.2l29.8-24.2l-27.6-33.8C178.9,432.3,159,431.2,140,426.4z"/>
		<path class="nofloorColor" d="M18.6,435.7c-0.1,0.9-0.1,1.8-0.1,2.7"/>
		<path class="nofloorColor" d="M39,438.5c0-0.5,0-0.9,0.1-1.4"/>
		<path class="nofloorColor" d="M18.5,439.1c0,0.9,0,1.8,0.1,2.7"/>
		<path class="nofloorColor" d="M39,440.6c0-0.5,0-0.9,0-1.4"/>
		<path class="nofloorColor" d="M39.7,432.1c0.1-0.6,0.2-1.1,0.4-1.7"/>
		<path class="nofloorColor" d="M20,426.1c-0.2,0.7-0.3,1.4-0.5,2.1"/>
		<path class="nofloorColor" d="M18.6,442.5c0.1,0.9,0.1,1.8,0.2,2.7"/>
		<path class="nofloorColor" d="M39.2,442.7c-0.1-0.5-0.1-0.9-0.1-1.4"/>
		<path class="nofloorColor" d="M19.4,428.9c-0.2,0.9-0.3,1.8-0.4,2.6"/>
		<path class="nofloorColor" d="M39.3,434.2c0.1-0.5,0.1-0.9,0.2-1.4"/>
		<path class="nofloorColor" d="M18.9,446c0.1,0.9,0.2,1.8,0.4,2.6"/>
		<path class="nofloorColor" d="M39.5,444.8c-0.1-0.5-0.1-0.9-0.2-1.4"/>
		<path class="nofloorColor" d="M20.2,452.7c0.2,0.9,0.5,1.7,0.7,2.6"/>
		<path class="nofloorColor" d="M40.5,449c-0.1-0.4-0.3-0.9-0.4-1.3"/>
		<path class="nofloorColor" d="M21.2,456c0.3,0.8,0.6,1.7,0.9,2.5"/>
		<path class="nofloorColor" d="M41.2,451c-0.2-0.4-0.3-0.9-0.5-1.3"/>
		<path class="nofloorColor" d="M19.5,449.3c0.2,0.9,0.4,1.7,0.6,2.6"/>
		<path class="nofloorColor" d="M39.9,446.9c-0.1-0.4-0.2-0.9-0.3-1.4"/>
		<path class="nofloorColor" d="M104.3,449.4c-15.9-7.1-32.4-12.8-49.3-17.1c-4.8-1.2-9.4-2.3-13.7-3.2c-1,3.2-1.5,6.6-1.5,10
			c0,18.3,14.9,33.1,33.1,33.1C87.2,472.1,99.8,463,104.3,449.4z"/>
		<path class="nofloorColor" d="M18.9,432.3c-0.1,0.9-0.2,1.8-0.2,2.7"/>
		<path class="nofloorColor" d="M39.1,436.3c0-0.5,0.1-0.9,0.2-1.4"/>
		<polygon class="nofloorColor" points="423.5,246.7 450.6,280.1 455.5,276.2 428.5,242.7 		"/>
		<path class="nofloorColor" d="M146.2,409.3c18.8,4.8,38.6,5.4,58.7,1.9h0.2l0.1,0.2l34.5,41.6l134.5-108.5l-18.8-42.7l-1.9,1.5l-0.5-0.6
			l-0.3,0.2l-2.7-3.3l-14.4,11.6l-10.3-12.6c-8.5,29.2-25.9,55.1-50.5,75.1c-27.7,22.5-61.3,34.5-94.4,34.5c-11,0-21.9-1.3-32.5-4
			L146.2,409.3z"/>
		<path class="nofloorColor" d="M273.9,372.7c24.7-20,42-46.1,50.3-75.3l-1.1-1.4c-7.8,28.5-25,55.3-50,75.6c-33.8,25.7-81.7,34.5-122.1,22.5
			l-2.6,8.8C190.5,413.6,237.4,402.4,273.9,372.7z"/>
		<polygon class="nofloorColor" points="496.3,132 496.3,127.3 492.5,127.3 		"/>
		<path class="nofloorColor" d="M8.8,424v75c9.3,1.1,17.1,2.6,27.9,5.3c32,8.1,61.3,22.6,86.5,42.1l45.3-36.5l0.2,0.3l13.7-11.1
			c-17.8-15.5-37.4-29-58.3-40.1c-8.2,21-28.8,35.1-51.3,35.1c-30.4,0-55.1-24.7-55.1-55.1c0-4.5,0.6-9.1,1.7-13.4l0.1-0.4"/>
		<path class="nofloorColor" d="M40.3,429.7c0.1-0.3,0.1-0.6,0.2-0.8"/>
		<path class="nofloorColor" d="M451.2,221"/>
		<polygon class="nofloorColor" points="412.8,255.4 371.2,289 390.2,331.6 434.5,295.8 433.2,294.2 439.8,288.9 		"/>
		<path class="nofloorColor" d="M115.8,178.1c24.7-20.1,53.5-31.3,81.9-33.9l-0.4-5c-30,2.9-59.9,15.4-84.2,35.2
			c-38.3,31.2-59.9,77-57.9,122.8l4.9-1C58,252.2,78.8,208.2,115.8,178.1z"/>
		<path class="nofloorColor" d="M134.9,385.3c-15-7.1-27.8-17.1-38-29.8c-10.1-12.5-17.3-26.9-21.2-42.7L64,316c3.8,17.8,11.7,34.4,22.9,48.2
			c11.3,13.9,25.4,24.6,42.1,32L134.9,385.3z"/>
		<path class="nofloorColor" d="M117.6,180.4c43.2-35.1,100.6-43.6,146.3-21.8c0.9,0.4,22.5,10.6,37.5,29.2c15.9,19.6,22.7,44.6,22.8,44.8
			c5,20,4.6,40.9-0.5,61l1.9-1.6c9.1-37.9,1.1-75.9-21.8-104.1c-43.3-53.3-127.3-57.2-187.1-8.5c-37,30.1-57.6,74.2-55.2,118.2
			l8.5-1.7C65.7,250.1,83.4,207,117.6,180.4z"/>
		<path class="nofloorColor" d="M85.6,365.1c-11-13.6-18.9-29.9-22.8-47.3l-4.9,1.1c4,18.5,12,35.2,23.8,49.7c11.6,14.3,26.1,25.5,43.2,33.2
			l2.6-4.6C111.1,389.8,96.7,378.7,85.6,365.1z"/>
		<path class="nofloorColor" d="M8.8,405.7c16.3,1.4,31.7,4.1,50.6,8.9c16.6,4.2,33.1,9.8,48.9,16.6l7.5-13.3c-19.2-8.8-35.6-21.4-48.7-37.5
			c-15.9-19.6-26-43.7-29.1-69.6c-3.1-25.8,0.8-52.9,11.2-78.3L27,206L8.8,220.8V405.7z"/>
	</g>
	<g id="hotSpot">
		<polygon class="stairsColor" points="223.1,536.3 234.5,526.8 280.3,584.2 269,593.5 		"/>
		<polygon class="stairsColor" points="324.3,295.1 337.3,283.9 333.9,278.5 385.2,237.1 404.3,260.3 352.9,301.9 349.5,298.8 335.9,309.2
					"/>
		<path class="stairsColor" d="M104.8,449.2c-4.5,13.6-17,23.4-31.7,23.4c-18.5,0-33.5-15.4-33.5-34.4c0-3.3,0.5-6.6,1.3-9.6
			c-6.9-1.5-13.8-2.8-20.9-3.8c-1.4,5-2.2,10.2-2.1,15.6c0.5,29.8,25.4,53.5,55.6,53c23.2-0.4,42.8-14.9,50.4-35.1
			C117.6,455,111.3,452,104.8,449.2z"/>
		<polygon class="stairsColor" points="199.7,67.3 216.7,88.3 247.9,62.8 230.8,42.1 		"/>
		<path class="wcColor" d="M200.7,654.3l26.3-0.1l35.6-29.8l-33.9-42.5l-9.3,7.5L195,558.9l9.2-7.5L174.4,514l-3,2.7l-3.2-4.5
			l-43.8,35.3C159,574.6,185.7,611.4,200.7,654.3z"/>
		<polygon class="wcColor" points="227.8,101.9 246.7,124.9 277.4,100.5 264.6,84.8 248.8,85 		"/>
		<path class="stairsColor" d="M434.8,487l24.4-19.9c0,0,8.3-5.6,17.1,0.7c8.8,6.3,5.8,15.5,5.3,17.5s-6.3,27.7-6.3,27.7l-12.6-2.7l6.9-29.7
			c0,0,0.1-1.6-1.3-2.5s-3,0.4-3,0.4l-22.8,18.2L434.8,487"/>
	</g>
	<path class="wireColor" d="M432.9,178.2l49.5-40l-23-29.7l-50.3,40.8L432.9,178.2z M411.2,149.4l23.7-19.2l21.6,27l-7.6,6.1
		c-1.3-1.4-3-2.4-5-2.6c-2.1-0.3-4.2,0.3-5.9,1.6l-0.1,0.1l4.7,5.9l-9.5,7.7L411.2,149.4z M442.8,168.2l-4.5-5.8
		c1.6-1.2,3.6-1.8,5.6-1.5c1.9,0.2,3.6,1.1,4.8,2.5L442.8,168.2z M465.3,150c-2.3-3.3-1.8-7.8,1.3-10.4l4.6,5.6L465.3,150z
		 M480.3,137.9l-9,7.3l-4.7-5.8l-0.1,0.1c-3.3,2.7-3.9,7.4-1.5,10.8l-8.1,6.5l-21.6-27l23.7-19.2L480.3,137.9z"/>
	<path class="wireColor" d="M395.4,131.5l50-41l-6.3-8.1h-54.5l-16.8,13.1l11.5,15.6L395.4,131.5z M443.4,90.2l-22.5,18.5L411.2,97
		c3.1-2.8,3.6-7.6,0.9-10.9L412,86l-5.9,4.8l-1-1.2l6.4-5.7h26.9L443.4,90.2z M406.2,90.9l5.7-4.7c2.5,3.2,2.1,7.8-0.9,10.6
		L406.2,90.9z M381.3,86.8l4.3,5.5c-1.6,1.2-3.6,1.8-5.6,1.5c-1.8-0.2-3.5-1.1-4.7-2.4L381.3,86.8z M375.2,91.6
		c1.3,1.4,3,2.2,4.9,2.5c0.3,0,0.7,0.1,1,0.1c1.8,0,3.5-0.6,4.9-1.7l0.1-0.1l-4.5-5.7l3.6-2.8h25.3l-6.3,5.6l16.1,19.7l-24.6,20.2
		l-15.2-19.3l-10.6-14.4L375.2,91.6z"/>
	<path class="wireColor" d="M505.9,0.2V0h-7.2v0.2h-6.2v35.5l76.4,94.3L598.2,0.2H505.9z M574.5,72.4c-1.1,4-5,6.4-9.1,5.6l1.6-7.3
		L574.5,72.4z M564.6,69.4l-46.5-56.8V4h75.4L578,72.4L564.6,69.4z M522,47.7c-2.4-3.3-1.8-8,1.4-10.6l4.5,5.8L522,47.7z
		 M536.8,36.7l12.3,15l-23.5,19l-12.2-15.1L536.8,36.7z M540.7,59.4c2.4,3.3,1.8,8-1.4,10.6l-4.5-5.8L540.7,59.4z M534.6,64.4
		l4.6,5.8l0.1,0.1l0.1-0.1c3.4-2.6,4.1-7.5,1.6-10.9l8.7-7.1L564,69.8l-3.4,13.8l-14.8,12l-19.7-24.3L534.6,64.4z M500.2,1.5h4.2
		v4.1h-4.2V1.5z M496.3,4h2.5v3.1h7.2V4h11.5v8.9l19,23.2l-8.3,6.7l-4.6-5.9l-0.1-0.1l-0.1,0.1c-1.7,1.3-2.7,3.2-3,5.3
		c-0.3,2,0.3,4.1,1.5,5.7l-8.9,7.2l-16.7-20.6L496.3,4L496.3,4z M566.9,121.7l-20.6-25.5l15-12.1l3.4-13.9l2.2,0.5l-1.7,7.4v0.1h0.1
		c0.6,0.1,1.2,0.2,1.8,0.2c3.5,0,6.7-2.4,7.7-5.9l3.2,0.7L566.9,121.7z"/>
	<path class="wireColor" d="M199.7,429l-0.1-0.2h-0.2c-20.4,2.7-40.4,1.6-59.5-3.3l-0.3-0.1l-6.7,18.3l0.3,0.2
		c22.9,12.2,44.3,27.2,63.6,44.5l0.2,0.2l30.9-25.1L199.7,429z M133.7,443.4l6.2-17c19,4.8,39,5.9,59.2,3.2l27.6,33.8L197,487.6
		C177.7,470.5,156.5,455.6,133.7,443.4z"/>
	<path class="wireColor" d="M477.9,256.6l-25.6-31.7l101.2-81.2L464.6,32.4h-37.7c-28.9-21-58.8-21-89,0H139.1L129.8,20l-15.6,12.4H5.1
		v470l1.7,0.2c9.9,1.1,17.8,2.6,29.1,5.4c75.9,19.2,136.3,74.8,161.8,148.8l0.4,1.3l198.6-0.5h0.7l62.3-51.3l87-380.4l0.2-1
		l-13.1-13.1L477.9,256.6z M477.3,257.1l-0.2,0.1l0.7,0.9L456,275.7l-27-33.4l21.9-17.7L477.3,257.1z M434.5,295.8l-44.3,35.7
		l-19-42.5l41.5-33.6l27,33.4l-6.6,5.3L434.5,295.8z M354,291.4L354,291.4l4.6,5.9l-5.8,4.7l-19-23.4l51.3-41.4l17.3,21.1l-10.6,8.6
		l-8.2-9.9l0.5-0.4l-0.9-1.2l-0.5,0.4l-7.5-9.1l-0.2,0.1l7.5,9.1l-1.6,1.3c-2.5-3.1-5-6.1-7.5-9.2l-0.2,0.1c2.5,3.1,5,6.1,7.5,9.2
		l-1.6,1.3l-7.6-9.2l-0.2,0.1l7.6,9.2l-1.6,1.3l-7.6-9.2l-0.2,0.1l7.6,9.2l-1.6,1.3l-7.6-9.2l-0.2,0.1l7.6,9.2l-1.6,1.3l-7.6-9.3
		l-0.2,0.1l7.6,9.3l-1.6,1.3c-2.5-3.1-5.1-6.2-7.6-9.3l-0.2,0.1c2.5,3.1,5.1,6.2,7.6,9.3l-1.6,1.3l-7.6-9.3l-0.2,0.1l7.6,9.3
		l-1.6,1.3l-7.6-9.4l-0.2,0.1l7.6,9.4l-1.6,1.3l-7.7-9.4l-0.2,0.1l7.7,9.4l-1.6,1.3c-2.6-3.1-5.1-6.3-7.7-9.4l-0.2,0.1
		c2.6,3.1,5.1,6.3,7.7,9.4l-1.6,1.3l-7.7-9.4l-0.2,0.1l7.7,9.4l-1.6,1.3l0.9,1.2l1.6-1.3l8.1,9.9l-1.6,1.3l-16.7-20.5l-0.2,0.1
		l17.2,21.1l0.1-0.1l0.5,0.6l33.4-27l-19-22.9l-0.3,0.2l-8.8-10.7l20.6-16.4l-0.2-0.3l0.8-0.6l1.4,1.7l-5.9,4.9l0.1,0.1
		c1.6,1.9,3.8,2.9,6.1,2.9c1.7,0,3.4-0.5,4.8-1.6l1.1,1.3l-0.3,0.2l21.2,26.2l-6.3,5.1c-2.8-3-7.6-3.3-10.8-0.7l-0.1,0.1l4.6,5.7
		l-48.5,39.2C362.1,289.1,357.3,288.7,354,291.4z M364.8,292.3l-5.9,4.8l-4.6-5.6C357.4,288.9,362,289.3,364.8,292.3z M135.5,387.2
		l1.4-2.6l-0.7-0.3c-15.1-7-27.9-17-38.2-29.7c-10.2-12.5-17.3-26.9-21.1-42.9l-0.2-0.8l-2.9,0.8c-1.1-4.8-2-9.7-2.5-14.6l0.4-0.1
		l-0.1-0.7c-4.5-45.5,13-88.4,47-114.8c42.8-34.7,99.5-43.2,144.7-21.6c0.9,0.4,22.1,10.4,37,28.8c15.9,19.6,22.4,44,22.5,44.2
		c12.1,48.7-7.8,102.7-50.6,137.5c-33.7,25.6-81.3,34.2-121.5,22.1l-0.7-0.2l-0.1,0.3C144.9,391.1,140.1,389.3,135.5,387.2z
		 M146.9,392.5c-1,2.4-2.8,4.3-5.1,5.3c-2.4,1.1-5,1.1-7.5,0.2l3.5-9C140.8,390.3,143.8,391.5,146.9,392.5z M86.8,364.2
		C75.6,350.4,67.7,333.7,64,316l11.7-3.2c3.9,15.9,11.1,30.3,21.2,42.7c10.3,12.6,23.1,22.6,38,29.8l-6,11
		C112.2,388.8,98.1,378,86.8,364.2z M127.4,397.2l-2.6,4.6c-17.1-7.8-31.6-19-43.2-33.2c-11.8-14.5-19.8-31.2-23.8-49.7l4.9-1.1
		c3.9,17.4,11.8,33.8,22.8,47.3C96.7,378.7,111.1,389.8,127.4,397.2z M70,295.8l-8.5,1.7c-2.4-44,18.2-88.1,55.2-118.2
		c59.8-48.6,143.8-44.8,187.1,8.5c22.9,28.2,30.9,66.2,21.8,104.1l-1.9,1.6c5.1-20.1,5.4-41,0.5-61c-0.1-0.2-6.9-25.2-22.8-44.8
		c-15.1-18.6-36.6-28.7-37.5-29.2c-45.7-21.9-103.1-13.3-146.3,21.8C83.4,207,65.7,250.1,70,295.8z M60,296.2l-4.9,1
		c-2-45.8,19.6-91.6,57.9-122.8c24.3-19.8,54.2-32.3,84.2-35.2l0.4,5c-28.4,2.6-57.2,13.8-81.9,33.9C78.8,208.2,58,252.2,60,296.2z
		 M243,146v-0.1c0.3-2.1-0.2-4.2-1.5-5.9c-1.2-1.6-3-2.7-5-3.1l0.2-1.5c17.9,3.2,34.6,9.8,49.1,19.4c-0.9,1.6-1.2,3.5-0.9,5.4
		c0.4,2.1,1.6,3.9,3.4,5.1l0.1,0.1l4-5.9c3.2,2.4,6.2,4.9,9.1,7.6c0.4,0.4,0.8,0.7,1.2,1.1c0.6,0.6,1.3,1.2,1.9,1.9
		c0.7,0.7,1.3,1.3,2,2c0.3,0.3,0.7,0.7,1,1c0.9,0.9,1.7,1.9,2.6,2.8c0.2,0.2,0.4,0.5,0.6,0.7c0.9,1.1,1.8,2.1,2.7,3.2
		c1,1.3,2,2.6,3,3.9c0.2,0.2,0.4,0.5,0.5,0.8c0.8,1.1,1.6,2.2,2.3,3.3c0.1,0.2,0.3,0.4,0.4,0.7c0.8,1.2,1.6,2.3,2.3,3.5
		c0.1,0.2,0.2,0.3,0.3,0.5c0.8,1.3,1.5,2.5,2.3,3.8c0.1,0.1,0.1,0.2,0.2,0.3c0.3,0.5,0.6,1.1,0.9,1.6l-6.5,3.4v0.1
		c1.4,2.7,4.2,4.3,7.1,4.3c1,0,2-0.2,3-0.6c0.7,1.4,1.3,2.9,1.9,4.3c0,0.1,0.1,0.1,0.1,0.2c0.6,1.5,1.2,2.9,1.7,4.4
		c4.4,11.8,7.1,24.3,7.9,37.3l0,0l-10.7,0.5c-1.8-24-10.4-46.6-25.5-65.1c-17.9-22-42.6-35.7-69.6-40.8l0.2-1.1L243,146z
		 M235.5,144.7l1-7.6c1.9,0.4,3.6,1.4,4.8,3s1.7,3.6,1.5,5.6L235.5,144.7z M236.8,112.9l30.5-24.5l9.7,11.9l-0.3,0.2l0.2,0.3
		l-30.3,24.1L236.8,112.9z M245.4,124.5l-5.8,4.7c-2.5-3.2-2.1-7.8,0.9-10.5L245.4,124.5z M227.8,101.9l21-16.9h15.8l2.3,2.8
		l-30.5,24.5L227.8,101.9z M232.9,109.3c-3.3,2.4-7.9,1.9-10.5-1.2l5.7-4.7L232.9,109.3z M255.4,81c-4.1-0.2-7.3-3.5-7.4-7.6h7.4V81
		z M296.1,85l-18.5,14.8l-12-14.8H296.1z M277.4,83.5v-7c4,0.1,7.2,3.1,7.6,7H277.4z M314.7,92.2h0.1V85h23.5l4.4,5.3L318.6,110
		l-19.7-24.7l0.3-0.3h7.6C307.2,89.1,310.6,92.2,314.7,92.2z M307,85h7.6v7C310.7,92,307.4,88.9,307,85z M352.7,102.6l-7.8,6.4
		l-3.8-4.7c3.1-2.8,3.5-7.7,0.8-11l-0.1-0.1L336,98l-0.5-0.7l7.8-6.3L352.7,102.6z M345.2,91l5.5-4.4c2.4,3.1,2.1,7.5-0.6,10.3
		L345.2,91z M362,125.4L362,125.4v0.2c1.3,1.7,3.2,2.7,5.3,3c0.3,0,0.6,0.1,0.9,0.1c1.6,0,3.2-0.5,4.5-1.5l17.6,21.5L365.5,169
		l-28.2-35.4l24.5-19.7l5.8,7.1L362,125.4z M367.8,121l4.8,5.9c-1.5,1.1-3.4,1.6-5.3,1.4c-2-0.2-3.8-1.2-5.1-2.8L367.8,121z
		 M400.4,172.5L400.4,172.5c1.4,1.7,3.4,2.7,5.5,2.9c0.2,0,0.5,0,0.7,0c1.6,0,3.2-0.5,4.6-1.5l9.7,11.9l-25.2,20.7L366,169.3
		l24.8-20.3l15.2,18.6L400.4,172.5z M406.2,168l4.8,5.9c-1.5,1.1-3.3,1.6-5.1,1.4c-2-0.2-3.9-1.1-5.2-2.7L406.2,168z M361.8,111.3
		l-4.8-5.9c3.3-2.2,7.7-1.6,10.3,1.4L361.8,111.3z M361.4,113.2l-24.5,19.7l-8-10l24.3-19.7L361.4,113.2z M344.3,109.4l-15.9,12.9
		l-9.4-11.7l15.8-12.8L344.3,109.4z M336.1,98.1l5.6-4.7c2.6,3.2,2.2,7.9-0.8,10.6L336.1,98.1z M338.2,138.2l55.6,69.6l-17.4,13.9
		L280,100.9l17.2-13.7L338.2,138.2z M370.5,230.7L370.5,230.7c1.6,2,3.9,3,6.2,3c1.7,0,3.4-0.5,4.9-1.7l3,3.7L333,277.4l-2.8-3.4
		c0.7-7.1,0.8-14.2,0.3-21.2l1.3-0.1l0.4,7.5v0.1h0.1c2.1-0.1,4.1-1,5.5-2.6c1.3-1.5,2-3.4,2-5.4l1.8-0.1l0.4,0.5l33.7-27.7l0.6,0.8
		L370.5,230.7z M376.6,225.9l4.8,5.9c-3.3,2.5-7.9,2-10.6-1.1L376.6,225.9z M327.5,290.3c1.1-5.1,2-10.2,2.5-15.3l6.3,7.8
		L327.5,290.3z M337.3,283.9l11.9,14.6l-13.3,10.7L324.2,295L337.3,283.9z M332,252.7l7.6-0.4c0,1.9-0.7,3.8-2,5.2
		c-1.4,1.5-3.2,2.4-5.2,2.5L332,252.7z M334.7,213.6c-0.6-1.5-1.1-3-1.7-4.4c0-0.1-0.1-0.2-0.1-0.3c-0.6-1.5-1.3-3-2-4.4
		c0-0.1-0.1-0.1-0.1-0.2c-0.7-1.4-1.4-2.9-2.1-4.3c0-0.1-0.1-0.2-0.1-0.2c-0.7-1.4-1.5-2.7-2.2-4.1c-0.1-0.1-0.1-0.2-0.2-0.3
		c-0.7-1.3-1.5-2.5-2.3-3.8c-0.1-0.2-0.2-0.4-0.3-0.5c-0.7-1.2-1.5-2.3-2.3-3.5c-0.2-0.2-0.3-0.5-0.5-0.7c-0.8-1.1-1.5-2.2-2.3-3.3
		c-0.2-0.3-0.4-0.5-0.6-0.8c-0.9-1.2-1.8-2.3-2.7-3.5l15.4-11.4l28.6,35.8l-21.9,17.5C336.5,218.6,335.7,216.1,334.7,213.6
		L334.7,213.6C334.7,213.7,334.7,213.7,334.7,213.6z M329.5,205c-3.6,1.5-7.9,0-9.8-3.5l6.3-3.3c0.4,0.8,0.8,1.5,1.2,2.3
		c0,0.1,0.1,0.1,0.1,0.2C328.1,202.1,328.8,203.5,329.5,205L329.5,205z M286,153L286,153c-3.8-2.4-7.7-4.6-11.7-6.7l24-19l32,40
		l-15.4,11.4c-0.9-1.1-1.8-2.1-2.7-3.2c-0.2-0.2-0.4-0.5-0.6-0.7c-0.9-1-1.7-1.9-2.6-2.9c-0.3-0.3-0.7-0.7-1-1
		c-0.7-0.7-1.4-1.4-2.1-2.1c-0.6-0.6-1.3-1.2-1.9-1.8c-0.4-0.4-0.8-0.8-1.2-1.2C297.5,161.2,291.9,156.8,286,153z M292.3,159.3
		l-3.9,5.7c-3.3-2.3-4.3-6.7-2.4-10.1C288.2,156.3,290.3,157.8,292.3,159.3z M359.7,204.4l15.4,19.2l-32.5,26.7
		c-0.7-9.7-2.4-19.2-5.1-28.2L359.7,204.4z M277.9,101.9l19.8,24.8l-24.2,19.2c-4-2-8.1-3.8-12.4-5.4l2.5-7h-0.1
		c-2-0.7-4.2-0.6-6.1,0.3c-1.8,0.8-3.1,2.3-3.9,4.1c-5.2-1.6-10.5-2.9-15.9-3.9L277.9,101.9z M260.9,140.5c-2.4-0.9-4.8-1.7-7.2-2.5
		c0.7-1.7,2.1-3.1,3.8-3.9c1.8-0.9,3.9-1,5.8-0.3L260.9,140.5z M72.5,309.5c-2.5,0.4-5-0.2-7.1-1.7s-3.6-3.7-4.1-6.3l9.5-1.7
		C71.3,303.2,71.8,306.4,72.5,309.5z M150.9,394.2c40.4,12,88.3,3.2,122.1-22.5c25-20.3,42.3-47.1,50-75.6l1.1,1.4
		c-8.3,29.3-25.6,55.3-50.3,75.3c-36.5,29.7-83.4,40.9-125.6,30.2L150.9,394.2z M180.4,408.4c33.1,0,66.7-12,94.4-34.5
		c24.6-20,42-46,50.5-75.1l10.3,12.6l14.4-11.6l2.7,3.3l0.3-0.2l0.5,0.6l1.9-1.5l18.8,42.7L239.7,452.9l-34.5-41.6l-0.1-0.2h-0.2
		c-20.1,3.5-39.8,2.9-58.7-1.9l1.8-4.9C158.6,407.1,169.5,408.4,180.4,408.4z M365.9,271.4l1.6-1.3l8.1,9.9l-1.6,1.3
		C371.3,278,368.6,274.7,365.9,271.4z M373.8,281.4l-1.6,1.3l-8.1-9.9l1.6-1.3C368.4,274.8,371.1,278.1,373.8,281.4z M367.7,269.9
		l1.6-1.3l8.1,9.9l-1.6,1.3L367.7,269.9z M369.4,268.5l1.6-1.3l8.1,9.9l-1.6,1.3L369.4,268.5z M371.2,267l1.6-1.3
		c2.7,3.3,5.4,6.6,8.1,9.9l-1.6,1.3L371.2,267z M373,265.6l1.6-1.3l8.1,9.9l-1.6,1.3C378.4,272.2,375.7,268.9,373,265.6z
		 M374.8,264.1l1.6-1.3l8.1,9.9l-1.6,1.3L374.8,264.1z M376.6,262.6l1.6-1.3l8.2,9.9l-1.6,1.3L376.6,262.6z M378.4,261.2l1.6-1.3
		l8.2,9.9l-1.6,1.3L378.4,261.2z M380.1,259.7l1.6-1.3c1.2,1.5,2.4,3,3.7,4.5l4.5,5.5l-1.6,1.3L380.1,259.7z M385.6,262.7
		c-1.2-1.5-2.4-3-3.7-4.5l1.6-1.3l8.2,9.9l-1.6,1.3L385.6,262.7z M399,209l4.8,5.9c-3.3,2.5-7.9,2-10.6-1.2L399,209z M423,213.4
		L423,213.4c3.3-2.7,3.9-7.4,1.5-10.8l6.5-5.3l19.6,24.2l-1,0.8l1.2,1.5l-0.5-0.6L427.1,242l-20.3-25.1l11.4-9.2L423,213.4z
		 M418.4,207.5l5.9-4.8c2.3,3.2,1.8,7.8-1.3,10.4L418.4,207.5z M440.3,288.4l-27-33.4l9.6-7.8l27.1,33.4L440.3,288.4z M448.7,283.6
		c1,1.5,1.5,3.3,1.3,5.1c-0.2,2-1.2,3.9-2.7,5.2l-4.5-5.5L448.7,283.6z M413.6,252.8l-4.5-5.5c3.1-2.5,7.7-2.2,10.4,0.7L413.6,252.8
		z M423.5,246.7l5-4l27,33.4l-4.9,4L423.5,246.7z M442.6,288.5l4.7,5.7l0.1-0.1c1.6-1.3,2.7-3.3,2.9-5.4c0.2-1.9-0.3-3.7-1.4-5.3
		l20.5-16.5l14.1,17.5l-3.6,15.9l-24.3,19.4l-20.2-25.3L442.6,288.5z M451.2,221l-19.6-24.2l13.8-11.2l4.7,5.7l0.1-0.1
		c3.2-2.7,3.8-7.3,1.5-10.7l8-6.5l19.7,24.3L451.2,221z M445.6,185.5l5.9-4.8c2.3,3.2,1.7,7.7-1.3,10.3L445.6,185.5z M480,197.9
		l-19.7-24.3l16.8-13.6l4.6,5.6l0.1-0.1c1.6-1.4,2.7-3.3,2.9-5.4c0.2-1.9-0.3-3.7-1.3-5.2l9-7.2l19.7,24.4L480,197.9z M477.3,159.9
		l5.9-4.8c1,1.5,1.5,3.2,1.3,5.1c-0.2,2-1.2,3.9-2.7,5.2L477.3,159.9z M548.2,143.1l-35.5,28.5L493,147.2l1.1-0.9l4.6,5.6l0.1-0.1
		c1.6-1.4,2.7-3.3,2.9-5.4c0.2-1.9-0.3-3.7-1.3-5.2l1-0.8l1.1,1.3l0.6-0.4l0.2,0.3l26.9-21.5L548.2,143.1z M494.2,146.3l5.9-4.8
		c1,1.5,1.5,3.3,1.3,5.1c-0.2,2-1.2,3.9-2.7,5.2L494.2,146.3z M529.5,119.7l-26.3,21l-13.5-16.8l5.6-4.3l0.1-0.1l-0.1-0.1
		c-1.3-1.7-3.2-2.7-5.3-3c-1.9-0.2-3.7,0.2-5.3,1.2l-6.2-7.8l26.4-21.1L529.5,119.7z M489.5,123.7l-4.8-5.9
		c3.3-2.1,7.7-1.4,10.2,1.7L489.5,123.7z M504.3,88.1L478,109.2l-12-15l26.4-21.1L504.3,88.1z M491.9,72.5l-26.4,21.1l-4.7-5.8
		l5.6-4.3l0.1-0.1l-0.1-0.1c-1.3-1.7-3.2-2.7-5.3-3c-1.9-0.2-3.8,0.2-5.3,1.2L446.5,70l16.4-33.8L491.9,72.5z M460.6,87.6l-4.8-5.9
		c1.5-1,3.3-1.4,5.2-1.2c2,0.3,3.8,1.3,5.1,2.8L460.6,87.6z M425.4,35.9l0.3,0.2h36.4l-16.3,33.5h-20.5V35.9H425.4z M395.6,21.7
		c9.7,2.1,19.4,6.7,29.1,13.7l0,0v34.3h-10.1c-0.4-4.1-3.8-7.3-7.9-7.3h-0.1v7.3h-10.9v-48H395.6z M414.3,69.7h-7.6v-7.1
		C410.7,62.7,413.9,65.8,414.3,69.7z M365.6,22.9c9.8-2.9,19.6-3.3,29.3-1.3v48.1h-10.3c-0.4-4.1-3.8-7.3-7.9-7.3h-0.1v7.3h-10.9
		V22.9H365.6z M384.3,69.7h-7.6v-7.1C380.7,62.7,383.9,65.8,384.3,69.7z M336,36.1h3.2l0.5-0.3c8.5-6,16.9-10.2,25.2-12.7v46.6
		h-10.5c-0.4-4.1-3.8-7.3-7.9-7.3h-0.1v7.3H336V36.1z M354.1,69.7h-7.6v-7.1C350.5,62.7,353.7,65.8,354.1,69.7z M296.2,36.1h39v33.5
		h-20.4c-0.3-4.1-3.8-7.3-7.9-7.3h-0.1v7.3h-10.6V36.1z M314.6,69.7H307v-7.1C311,62.7,314.2,65.7,314.6,69.7z M259,36.1h36.5v33.5
		h-10.2c-0.3-4.1-3.8-7.3-7.9-7.3h-0.1v7.3H259V36.1z M285,69.7h-7.6v-7.1C281.4,62.7,284.7,65.7,285,69.7z M256.1,71.2h189.4
		l54.7,68.2l-94.7,76.5l-7.6-9.2l24.4-20.1l0.6-0.5l-61.1-74.7l5.6-4.6l-0.1-0.1c-2.6-3.2-7.3-3.9-10.7-1.6l-6.7-8.2
		c2.9-2.8,3.2-7.4,0.6-10.7l-0.1-0.1l-5.6,4.5l-5.8-7l-0.2-0.3H285c-0.4-4-3.8-7.2-7.9-7.2H277v7.2h-21.1V71.2H256.1z M255.2,36.1
		v5.4l-24.1-0.2l-4.3-5.1h28.4V36.1z M226.6,60.7L225,62l-7.4-9.1l1.6-1.3L226.6,60.7z M219.3,51.5l1.6-1.3l7.4,9l-1.6,1.3
		L219.3,51.5z M224.8,62.1l-1.6,1.3l-7.4-9.1l1.6-1.3L224.8,62.1z M223,63.6l-1.6,1.3l-7.4-9.1l1.6-1.3L223,63.6z M221.2,65
		l-1.6,1.3l-7.4-9.1l1.6-1.3L221.2,65z M219.4,66.5l-1.6,1.3l-7.4-9.1l1.6-1.3L219.4,66.5z M217.7,67.9l-1.6,1.3l-7.4-9.1l1.6-1.3
		L217.7,67.9z M215.9,69.4l-1.6,1.3l-7.4-9.1l1.6-1.3L215.9,69.4z M214.1,70.8l-1.6,1.3L205,63l1.6-1.3L214.1,70.8z M212.3,72.3
		l-1.6,1.3l-7.5-9.1l1.6-1.3L212.3,72.3z M210.5,73.7l-1.6,1.3l-7.5-9.2l1.6-1.3L210.5,73.7z M208.7,75.2l-1.6,1.3l0.9,1.2l1.6-1.3
		l8.5,10.4l-1.6,1.3l-16.8-20.7l1.6-1.3L208.7,75.2z M209.9,76.2l1.6-1.3l8.5,10.4l-1.6,1.3L209.9,76.2z M211.6,74.8l1.6-1.3
		l8.5,10.4l-1.6,1.3L211.6,74.8z M213.4,73.3L215,72l8.5,10.4l-1.6,1.3L213.4,73.3z M215.2,71.9l1.6-1.3l8.5,10.4l-1.6,1.3
		L215.2,71.9z M217,70.4l1.6-1.3l8.5,10.4l-1.6,1.3L217,70.4z M218.8,69l1.6-1.3l8.5,10.4l-1.6,1.3L218.8,69z M220.5,67.5l1.6-1.3
		l8.6,10.4l-1.6,1.3L220.5,67.5z M222.3,66l1.6-1.3l8.6,10.4l-1.6,1.3L222.3,66z M224.1,64.6l1.6-1.3l8.6,10.4l-1.6,1.3L224.1,64.6z
		 M225.9,63.1l1.6-1.3l8.6,10.4l-1.6,1.3L225.9,63.1z M227.7,61.7l1.6-1.3l8.6,10.4l-1.6,1.3L227.7,61.7z M229.5,60.2l0.5-0.4
		l-0.9-1.2l-0.5,0.4l-7.4-9l9.8-7.9l17.1,20.6l-9.8,7.9L229.5,60.2z M231.7,42l23.5,0.2v27.4h-0.5v0.2L231.7,42z M225.9,36.1l3.3,4
		L185,75.7c-1.3-1.5-3.1-2.4-5.1-2.6c-2.1-0.2-4.2,0.4-5.8,1.7l-0.1,0.1l4.7,5.9l-1.8,1.4L154.1,54l-13.5-17.9H225.9z M184.8,75.8
		l-6,4.8l-4.6-5.7C177.5,72.4,182.1,72.8,184.8,75.8z M114.5,36.1h1l13.7-10.8l8.1,10.8h1.4l14.2,18.8l22.6,27.9l-68.3,55.8
		L59.8,80.5L114.5,36.1z M171.2,88.3l4.5,5.4c-3.1,2.5-7.6,2.2-10.4-0.6L171.2,88.3z M116.7,132.8c1,1.5,1.5,3.3,1.3,5.1
		c-0.2,2-1.1,3.9-2.7,5.2l-4.5-5.4L116.7,132.8z M106.1,139.6l-5.1,4.2L53.5,85.6l5.1-4.1L106.1,139.6z M55.2,73
		c3.2-2.5,7.8-2.2,10.5,0.8l-5.9,4.8L55.2,73z M8.8,36.1h103.3L65.9,73.6c-2.8-3.1-7.6-3.4-10.9-0.7L54.9,73l4.7,5.8l-10.1,8.1
		L45,81.3l-0.1-0.1l-0.1,0.1c-3.2,2.6-3.8,7.3-1.5,10.7L8.8,119.8V36.1z M49.4,87l-5.9,4.8c-2.2-3.2-1.7-7.7,1.4-10.3L49.4,87z
		 M8.8,121.8l43.5-35.3l47.5,58.2l-71.9,58.7l-10.8-13.5c1.6-1.3,2.5-3.2,2.7-5.3s-0.4-4.2-1.8-5.8l-0.1-0.1l-5.9,4.9l-0.9-1.1
		l-0.1-0.1H8.8V121.8z M97.6,148.4l4.5,5.5c-3.1,2.5-7.7,2.2-10.4-0.6L97.6,148.4z M43.1,192.9c1.1,1.5,1.5,3.3,1.4,5.2
		c-0.2,2-1.1,3.9-2.7,5.2l-4.6-5.5L43.1,192.9z M16.9,189.7l-4.8-6l5.8-4.7c1.3,1.6,1.9,3.6,1.7,5.6
		C19.4,186.6,18.4,188.4,16.9,189.7z M8.8,183.1h1.8l16.7,20.8l-18.5,15V183.1z M8.8,220.8L27,206l22.2,26.5
		C38.8,257.9,34.9,285,38,310.8c3.1,25.9,13.2,49.9,29.1,69.6c13.1,16.1,29.4,28.7,48.7,37.5l-7.5,13.3
		c-15.8-6.8-32.2-12.4-48.9-16.6c-19-4.8-34.3-7.5-50.6-8.9C8.8,405.7,8.8,220.8,8.8,220.8z M8.8,411.1h7.4c0,2-0.8,3.9-2.2,5.4
		c-1.4,1.4-3.2,2.2-5.2,2.3C8.8,418.8,8.8,411.1,8.8,411.1z M36.7,504.3c-10.8-2.7-18.6-4.2-27.9-5.3v-75c3.6,0.3,7.1,0.7,10.7,1.2
		l-0.1,0.3c-1.1,4.4-1.7,8.9-1.7,13.4c0,30.4,24.7,55.1,55.1,55.1c22.5,0,43.1-14.1,51.3-35.1c20.9,11.1,40.5,24.5,58.3,40.1
		l-13.7,11.1l-0.2-0.3l-45.3,36.5C98,526.9,68.7,512.4,36.7,504.3z M90.6,467.9c0.4-0.3,0.9-0.6,1.3-0.9l11.7,16.8
		c-0.8,0.6-1.6,1.1-2.5,1.6L90.6,467.9z M100.5,485.8c-8.1,4.8-17.4,7.5-27.1,7.6l-0.1-20.5c6-0.1,11.7-1.7,16.6-4.6L100.5,485.8z
		 M92.5,466.6c0.4-0.3,0.8-0.6,1.2-0.9l12.8,15.9c-0.8,0.6-1.6,1.2-2.4,1.8L92.5,466.6z M94.3,465.2c0.4-0.3,0.8-0.7,1.2-1l13.8,15
		c-0.7,0.7-1.5,1.3-2.2,1.9L94.3,465.2z M96.1,463.7c0.4-0.4,0.7-0.7,1.1-1.1l14.8,14.1c-0.7,0.7-1.4,1.4-2.1,2.1L96.1,463.7z
		 M97.7,462c0.4-0.4,0.7-0.8,1-1.2l15.8,13c-0.6,0.7-1.3,1.5-2,2.2L97.7,462z M99.2,460.3c0.3-0.4,0.7-0.8,1-1.2l16.6,11.9
		c-0.6,0.8-1.2,1.6-1.8,2.3L99.2,460.3z M100.6,458.5c0.3-0.4,0.6-0.8,0.9-1.3l17.4,10.8c-0.5,0.8-1.1,1.6-1.6,2.4L100.6,458.5z
		 M101.8,456.5c0.3-0.4,0.5-0.9,0.8-1.3l18.1,9.6c-0.5,0.9-1,1.7-1.5,2.5L101.8,456.5z M103,454.5c0.2-0.5,0.4-0.9,0.7-1.4l18.7,8.4
		c-0.4,0.9-0.8,1.8-1.3,2.6L103,454.5z M103.9,452.5c0.4-0.9,0.8-1.8,1.1-2.8c6.3,2.8,12.5,5.8,18.5,9c-0.3,0.7-0.6,1.4-0.9,2.1
		L103.9,452.5z M72.9,472.1c-18.3,0-33.1-14.9-33.1-33.1c0-3.4,0.5-6.7,1.5-10c4.3,0.9,8.9,2,13.7,3.2c16.9,4.3,33.4,10,49.3,17.1
		C99.8,463,87.2,472.1,72.9,472.1z M39.1,437.1c0,0.5,0,0.9-0.1,1.4l-20.5-0.1c0-0.9,0-1.8,0.1-2.7L39.1,437.1z M18.7,435
		c0.1-0.9,0.1-1.8,0.2-2.7l20.4,2.7c-0.1,0.5-0.1,0.9-0.2,1.4L18.7,435z M39,439.2c0,0.5,0,0.9,0,1.4l-20.5,1.2
		c0-0.9-0.1-1.8-0.1-2.7L39,439.2z M39.1,441.4c0,0.5,0.1,0.9,0.1,1.4l-20.3,2.5c-0.1-0.9-0.2-1.8-0.2-2.7L39.1,441.4z M39.3,443.5
		c0.1,0.5,0.1,0.9,0.2,1.4l-20.1,3.8c-0.2-0.9-0.3-1.8-0.4-2.6L39.3,443.5z M39.6,445.6c0.1,0.5,0.2,0.9,0.3,1.4L20,452
		c-0.2-0.9-0.4-1.7-0.6-2.6L39.6,445.6z M40.1,447.7c0.1,0.4,0.2,0.9,0.4,1.3L21,455.3c-0.3-0.8-0.5-1.7-0.7-2.6L40.1,447.7z
		 M40.7,449.7c0.1,0.4,0.3,0.9,0.5,1.3l-19.1,7.5c-0.3-0.8-0.6-1.7-0.9-2.5L40.7,449.7z M41.5,451.7c2.3,5.6,6,10.4,10.7,14.1
		l-12.4,16.3c-7.7-5.9-13.8-13.8-17.4-23L41.5,451.7z M52.7,466.2c0.4,0.3,0.8,0.6,1.2,0.8l-11.3,17.1c-0.8-0.5-1.5-1.1-2.3-1.6
		L52.7,466.2z M54.6,467.5c0.4,0.3,0.8,0.5,1.2,0.8l-10.1,17.8c-0.8-0.5-1.6-1-2.4-1.5L54.6,467.5z M56.4,468.6
		c0.4,0.2,0.9,0.5,1.3,0.7l-9,18.4c-0.8-0.4-1.7-0.8-2.5-1.3L56.4,468.6z M58.4,469.6c0.4,0.2,0.9,0.4,1.3,0.6l-7.7,19
		c-0.9-0.4-1.7-0.7-2.5-1.1L58.4,469.6z M60.4,470.5c0.4,0.2,0.9,0.3,1.4,0.5l-6.5,19.4c-0.9-0.3-1.7-0.6-2.6-1L60.4,470.5z
		 M62.5,471.3c0.5,0.1,0.9,0.3,1.4,0.4l-5.2,19.8c-0.9-0.2-1.8-0.5-2.7-0.8L62.5,471.3z M64.6,471.9c0.5,0.1,0.9,0.2,1.4,0.3
		l-3.9,20.1c-0.9-0.2-1.8-0.4-2.7-0.6L64.6,471.9z M66.8,472.3c0.5,0.1,1,0.2,1.4,0.2l-2.6,20.3c-0.9-0.1-1.8-0.3-2.7-0.4
		L66.8,472.3z M68.9,472.6c0.5,0.1,1,0.1,1.4,0.1L69,493.2c-0.9-0.1-1.9-0.2-2.8-0.3L68.9,472.6z M71.1,472.8c0.5,0,1,0,1.5,0
		l0.1,20.5c-0.9,0-1.9,0-2.8-0.1L71.1,472.8z M40.3,429.7l-20.5-4.4h-0.1c6.7,0.9,13.5,2.1,20.8,3.6
		C40.5,429.2,40.4,429.4,40.3,429.7z M20,426.1l20.1,4.4c-0.1,0.6-0.3,1.1-0.4,1.7l-20.1-3.9C19.7,427.5,19.9,426.8,20,426.1z
		 M39.6,432.9c-0.1,0.5-0.2,0.9-0.2,1.4L19,431.6c0.1-0.9,0.3-1.8,0.4-2.6L39.6,432.9z M200.7,654.3c-15-42.9-41.7-79.7-76.3-106.9
		l43.8-35.3l3.2,4.5l3-2.7l29.9,37.4l-9.2,7.5l24.3,30.6l9.3-7.5l33.9,42.5L227,654.2L200.7,654.3z M203.2,553.1
		c1.2,1.6,1.7,3.5,1.5,5.5s-1.2,3.8-2.7,5.1l-4.7-5.8L203.2,553.1z M207.6,573.4c3.3-2.5,8-2,10.7,1.2l-5.9,4.8L207.6,573.4z
		 M220.9,587.2l-4.7-5.8c1.6-1.3,3.6-1.8,5.6-1.6s3.7,1.1,5,2.6L220.9,587.2z M288.7,654.1l-59.4,0.1l37.1-31l22.4,25.9v5H288.7z
		 M271.2,626.5l5.4-4.7c1.3,1.6,1.9,3.5,1.8,5.5c-0.1,1.9-0.9,3.6-2.2,4.9L271.2,626.5z M290.2,654.1v-5.5l-13.9-16.1
		c1.3-1.3,2.2-3.1,2.3-5c0.2-2.1-0.5-4.2-1.9-5.8l-0.1-0.1l-5.6,4.8l-4.5-5.2l-2.8,2.3l-39.3-49.2l-1.2,0.9l5,6.2l-1.2,1
		c-1.3-1.5-3.1-2.5-5.2-2.7c-2.1-0.2-4.2,0.4-5.8,1.7l-0.1,0.1l4.8,6l-1.2,1l-7-8.8l6-4.9l0.1-0.1l-0.1-0.1c-2.7-3.4-7.6-3.9-11-1.3
		L196.1,559l1.1-0.9l4.8,6l0.1-0.1c1.7-1.3,2.7-3.2,2.9-5.4c0.2-2-0.4-4-1.6-5.6l1.3-1.1l9.3,11.6l1.2-0.9l-40.6-50.8l-2.9,2.6
		l-2.5-3.5l14.5-11.7l-0.3-0.3c-36.6-32.1-80.9-55.4-128.1-67.3c-17.9-4.5-31.4-7-46.3-8.3V419c2-0.1,3.9-0.9,5.3-2.3
		c1.5-1.5,2.3-3.5,2.3-5.6V411H9v-4.4c16.3,1.4,31.5,4.1,50.5,8.9c16.7,4.2,33.2,9.8,49.1,16.7l0.3,0.1l8.2-14.6l-0.4-0.2
		c-19.3-8.7-35.7-21.3-48.8-37.4c-32.1-39.5-38.8-96-17.7-147.3l0.1-0.2l-22.5-26.9l9.4-7.7l4.6,5.6l0.1,0.1l0.1-0.1
		c1.6-1.4,2.7-3.3,2.9-5.4c0.2-1.9-0.3-3.8-1.4-5.3l48.3-39.4c1.5,1.6,3.6,2.4,5.7,2.4c1.8,0,3.6-0.6,5.1-1.8l0.1-0.1l-4.7-5.6
		l9.2-7.5l0,0l1.2-0.9l0,0l2.5-2l4.6,5.5l0.1,0.1l0.1-0.1c1.6-1.4,2.7-3.3,2.9-5.4c0.2-1.9-0.3-3.7-1.3-5.2l48.3-39.4
		c1.3,1.3,3,2.2,4.9,2.3c0.2,0,0.5,0,0.7,0c1.9,0,3.6-0.6,5.1-1.8l0.1-0.1l-4.6-5.5l6.2-5.1l-0.2-0.3l52.3-42.1l0.7,0.8L199.6,67
		l0.2,0.3l-0.1,0.1l17.1,21l-21.8,17l0.5,0.6l52.9-42.7l6.4,7.7v0.2h0.7v1.9h-7.6v0.1c0,4.3,3.4,7.8,7.6,7.9v2.3h-7.1l-32.5,26.1
		l3.7,5l1.2-0.9l-2.9-3.9l9.3-7.5l0.7,0.8l-5.9,5l0.1,0.1c1.6,1.9,3.9,2.9,6.2,2.9c1.7,0,3.3-0.5,4.8-1.6l7.5,9.1
		c-3.1,2.8-3.6,7.6-0.9,10.9l0.1,0.1l5.9-4.8l0.5,0.7l-10.4,8.3l-3.3-4.4l-1.2,0.9l4.2,5.6l0.6-0.5l0,0l-1.4,10.6
		c-11.8-2.2-24-2.7-36.2-1.7l-0.5-5.8h-0.4c-30.3,2.8-60.5,15.4-85,35.4C74,205.2,52.3,251.5,54.5,297.6v0.4l5.5-1
		c0,0.5,0,1,0.1,1.4l0.1,0.9l10.4-2c0.1,0.8,0.2,1.6,0.3,2.5l-9.8,1.7v0.1c0.5,2.7,2,5,4.2,6.5c1.7,1.2,3.7,1.8,5.7,1.8
		c0.5,0,1,0,1.5-0.1c0.2,0.7,0.3,1.4,0.5,2.2l-10.8,3l0.1,0.7c0.1,0.5,0.2,1,0.3,1.4l-5.7,1.3l0.1,0.4c4,18.7,12.1,35.7,24,50.4
		c11.7,14.5,26.4,25.8,43.7,33.6l0.3,0.1l3-5.3c0.3,0.1,0.6,0.3,0.8,0.4l0.6,0.3L135,388c0.8,0.4,1.6,0.7,2.4,1.1l-3.5,9.1v0.1h0.1
		c1.2,0.5,2.4,0.7,3.6,0.7c1.4,0,2.8-0.3,4.1-0.9c2.4-1.1,4.3-3,5.3-5.4c0.8,0.3,1.7,0.5,2.5,0.8l-3.1,10.6l0.7,0.2l0,0l-2,5.6
		l0.4,0.1c19,4.9,38.9,5.6,59.2,2.1l34.9,42l135.3-109.2l0.2-0.2L356,301.3l14.6-11.8l19.2,43.3l45.1-36.4l23.4,29.3l-3.5,2.8
		l-4.6-5.6l-0.1-0.1l-0.1,0.1c-1.7,1.3-2.7,3.2-2.9,5.4c-0.2,1.9,0.3,3.8,1.4,5.4l-58.6,47.9c-2.8-2.9-7.5-3.2-10.7-0.6l-0.1,0.1
		l4.5,5.6l-6.4,5.2l-4.7-5.6l-0.1,0.1c-3.2,2.6-3.7,7.3-1.5,10.6l-57.4,46.9c-1.3-1.4-3-2.2-4.9-2.4c-2.1-0.2-4.2,0.4-5.8,1.7
		l-0.1,0.1l4.6,5.7l-7.2,5.9l-4.6-5.5l-0.1,0.1c-1.6,1.4-2.6,3.3-2.8,5.4c-0.2,1.8,0.3,3.6,1.3,5.1l-57.4,46.9
		c-2.8-2.9-7.5-3.2-10.7-0.6l-0.1,0.1l4.5,5.6l-4.2,3.4l-0.6,0.5l8.8,11l-11.4,9.4l45.9,57.2l11.3-9.3l14.1,17.6l2.6-2.1l44.1,54.3
		L290.2,654.1z M454.7,328.7l-5.9,4.8c-1.1-1.5-1.6-3.4-1.4-5.2c0.2-2,1.2-3.8,2.7-5.1L454.7,328.7z M389.9,381.6l-5.9,4.8l-4.4-5.5
		C382.7,378.5,387.2,378.9,389.9,381.6z M463.4,507l0.5-2c4.2,1,8.3,2.1,12.5,3.1l-0.5,2C471.7,509.1,467.5,508,463.4,507z
		 M475.8,510.3l-0.5,2l-12.5-3.1l0.5-2C467.5,508.2,471.6,509.3,475.8,510.3z M463.9,504.8l0.5-2l12.5,3.1l-0.5,2
		C472.2,506.8,468.1,505.8,463.9,504.8z M464.4,502.5l0.5-2l12.5,3.1l-0.5,2L464.4,502.5z M464.9,500.3l0.5-2l12.5,3l-0.5,2
		L464.9,500.3z M465.4,498.1l0.5-2c4.2,1,8.3,2,12.5,3l-0.5,2L465.4,498.1z M466,495.8l0.5-2c4.2,1,8.3,2,12.5,3l-0.5,2
		C474.3,497.8,470.1,496.8,466,495.8z M466.5,493.6l0.5-2c4.2,1,8.3,2,12.5,3l-0.5,2C474.8,495.6,470.6,494.6,466.5,493.6z
		 M467,491.4l0.5-2c4.2,1,8.3,2,12.5,3l-0.5,2C475.3,493.4,471.2,492.4,467,491.4z M467.5,489.1l0.5-2l12.4,2.9l-0.5,2
		C475.8,491.1,471.7,490.1,467.5,489.1z M468,486.9l0.5-2c4.1,1,8.3,2,12.4,2.9l-0.5,2L468,486.9z M468.6,484.7l0.5-2l12.4,2.9
		l-0.5,2C476.9,486.6,472.7,485.6,468.6,484.7z M469.1,482.4l0.4-1.8c0.3-1.1-0.2-2.2-1.2-2.8c-1-0.6-2.2-0.5-3,0.2l-1.4,1.1
		l-7.8-9.5l3.1-2.5c5.3-2.8,11.5-2.8,16.3,0.2c5.7,3.6,8,10.3,6,18L469.1,482.4z M463.7,479.3l-1.6,1.3l-7.8-9.5l1.6-1.3
		L463.7,479.3z M461.9,480.7l-1.6,1.3l-7.8-9.6l1.6-1.3L461.9,480.7z M460.1,482.2l-1.6,1.3l-7.8-9.6l1.6-1.3L460.1,482.2z
		 M458.4,483.7l-1.6,1.3l-7.8-9.6l1.6-1.3L458.4,483.7z M456.6,485.1l-1.6,1.3l-7.7-9.6l1.6-1.3L456.6,485.1z M436.6,485.6l1.6-1.3
		l7.7,9.6l-1.6,1.3L436.6,485.6z M444.1,495.3l-1.6,1.3l-7.7-9.6l1.6-1.3L444.1,495.3z M438.3,484.1l1.6-1.3l7.7,9.6l-1.6,1.3
		L438.3,484.1z M440.1,482.7l1.6-1.3l7.7,9.6l-1.6,1.3L440.1,482.7z M441.9,481.2l1.6-1.3c2.6,3.2,5.1,6.4,7.7,9.6l-1.6,1.3
		L441.9,481.2z M443.7,479.8l1.6-1.3l7.7,9.6l-1.6,1.3C448.8,486.2,446.2,483,443.7,479.8z M445.4,478.3l1.6-1.3l7.7,9.6l-1.6,1.3
		L445.4,478.3z M373.1,535.5l-66.8-83.6l74.5-60.9l66.8,83.6L373.1,535.5z M230.8,533.2c1.8-1.5,3.6-3,5.3-4.4l1.3,1.6
		c-1.7,1.4-3.5,2.9-5.3,4.4c-1.9,1.6-3.8,3.2-5.5,4.6l-1.3-1.6C227,536.3,228.9,534.7,230.8,533.2z M225.1,537.6l-1.3-1.6l10.8-8.9
		l1.3,1.6c-1.7,1.4-3.5,2.9-5.3,4.4S226.9,536.2,225.1,537.6z M232.2,535c1.8-1.5,3.6-3,5.3-4.4l1.3,1.6c-1.7,1.4-3.5,2.9-5.3,4.4
		c-1.9,1.6-3.8,3.2-5.5,4.6l-1.3-1.6C228.5,538.1,230.4,536.5,232.2,535z M233.7,536.8c1.8-1.5,3.6-3,5.3-4.4l1.3,1.6
		c-1.7,1.4-3.5,2.9-5.3,4.4c-1.9,1.6-3.8,3.2-5.5,4.6l-1.3-1.6C229.9,539.9,231.8,538.3,233.7,536.8z M235.1,538.6
		c1.8-1.5,3.6-3,5.3-4.4l1.3,1.6c-1.7,1.4-3.5,2.9-5.2,4.4c-1.9,1.6-3.8,3.2-5.5,4.6l-1.3-1.6C231.3,541.7,233.3,540.1,235.1,538.6z
		 M236.6,540.4c1.8-1.5,3.6-3,5.2-4.4l1.3,1.6c-1.6,1.4-3.5,2.9-5.2,4.4c-1.9,1.6-3.8,3.2-5.5,4.6l-1.3-1.6
		C232.8,543.5,234.7,541.9,236.6,540.4z M238,542.1c1.8-1.5,3.6-3,5.2-4.4l1.3,1.6c-1.6,1.4-3.5,2.9-5.2,4.4
		c-1.9,1.6-3.8,3.2-5.5,4.6l-1.3-1.6C234.2,545.3,236.2,543.7,238,542.1z M239.5,543.9c1.8-1.5,3.6-3,5.2-4.4l1.3,1.6
		c-1.7,1.4-3.5,2.9-5.2,4.4c-1.9,1.6-3.8,3.2-5.5,4.6l-1.3-1.6C235.7,547.1,237.6,545.5,239.5,543.9z M240.9,545.8
		c1.8-1.5,3.6-3,5.2-4.4l1.3,1.6c-1.6,1.4-3.5,2.9-5.2,4.4c-1.9,1.6-3.8,3.2-5.5,4.6l-1.3-1.6C237.1,548.9,239,547.3,240.9,545.8z
		 M242.3,547.5c1.8-1.5,3.6-3,5.2-4.4l1.3,1.6c-1.7,1.4-3.5,2.9-5.2,4.4c-1.9,1.6-3.8,3.2-5.5,4.6l-1.3-1.6
		C238.5,550.7,240.5,549.1,242.3,547.5z M243.8,549.4c1.8-1.5,3.6-3,5.2-4.4l1.3,1.6c-1.6,1.4-3.5,2.9-5.2,4.4
		c-1.9,1.6-3.8,3.2-5.5,4.6l-1.3-1.6C240,552.5,241.9,550.9,243.8,549.4z M245.2,551.2c1.8-1.5,3.6-3,5.2-4.4l1.3,1.6l-10.7,9
		l-1.3-1.6C241.4,554.3,243.3,552.7,245.2,551.2z M251.9,548.6l11.1,13.9l-10.8,8.8l-11-13.7L251.9,548.6z M263.1,562.6l1.3,1.6
		l-10.8,8.8l-1.3-1.6L263.1,562.6z M264.5,564.4l1.3,1.6l-10.8,8.8l-1.3-1.6L264.5,564.4z M266,566.2l1.3,1.6l-10.8,8.8l-1.3-1.6
		L266,566.2z M267.4,568l1.3,1.6l-10.8,8.8l-1.3-1.6L267.4,568z M268.8,569.8l1.3,1.6l-10.8,8.8l-1.3-1.6L268.8,569.8z M270.3,571.6
		l1.3,1.6c-3.6,2.9-7.2,5.9-10.8,8.8l-1.3-1.6L270.3,571.6z M271.7,573.4l1.3,1.6l-10.7,8.8l-1.3-1.6
		C264.5,579.3,268.1,576.3,271.7,573.4z M273.1,575.2l1.3,1.6c-3.6,2.9-7.2,5.9-10.7,8.8l-1.3-1.6L273.1,575.2z M274.6,577l1.3,1.6
		l-10.7,8.8l-1.3-1.6C267.4,582.9,271,579.9,274.6,577z M276,578.8l1.3,1.6l-10.7,8.9l-1.3-1.6L276,578.8z M277.4,580.6l1.3,1.6
		c-3.6,3-7.1,5.9-10.7,8.9l-1.3-1.6L277.4,580.6z M278.9,582.4l1.3,1.6l-10.7,8.9l-1.3-1.6C271.7,588.3,275.3,585.3,278.9,582.4z
		 M227.8,516l77.3-63.2l66.8,83.6l-77.3,63.2L227.8,516z M230.6,511.8l-4.4-5.5c3.1-2.5,7.6-2.1,10.3,0.7L230.6,511.8z M294.3,459.8
		c-1-1.5-1.4-3.2-1.2-4.9c0.2-2,1.1-3.9,2.7-5.2l4.5,5.3L294.3,459.8z M307.7,448.8l-4.5-5.6c1.6-1.3,3.6-1.8,5.6-1.6
		c1.8,0.2,3.5,1,4.8,2.4L307.7,448.8z M371.4,396.8c-2.2-3.2-1.7-7.6,1.3-10.2l4.5,5.4L371.4,396.8z M358.6,623.1l-25.1,19.2
		L320.2,626l24.3-20.2L358.6,623.1z M346.8,606.1c1.5-1,3.2-1.5,5-1.3c2,0.2,3.9,1.1,5.2,2.6l-5.4,4.6L346.8,606.1z M343.7,604.6
		l-24.3,20.2l-10.1-12.4l24.6-19.9L343.7,604.6z M338.9,596.4c1.4-1,3.1-1.4,4.9-1.3c2,0.1,3.9,1.1,5.2,2.6l-5.3,4.6L338.9,596.4z
		 M378.1,629.9l7-0.1c0,2-0.8,3.9-2.2,5.4c-1.3,1.3-2.9,2.1-4.7,2.3L378.1,629.9z M456.1,604.1l-60.2,49.7h-17.7v-16.1
		c1.9-0.2,3.6-1,4.9-2.3c1.5-1.5,2.3-3.5,2.3-5.7v-0.1l-7.2,0.1v-2l-34.3-43.3l5.8-4.7l4.6,5.6l0.1,0.1l0.1-0.1
		c1.6-1.4,2.6-3.3,2.8-5.4c0.2-1.9-0.3-3.7-1.4-5.3l15.1-12.3l46.3,57.9l1.2-0.9l-46.3-57.9l14.2-11.5c1.5,1.6,3.6,2.5,5.8,2.5
		c1.8,0,3.5-0.6,5-1.8l0.1-0.1l-4.6-5.7l7.3-5.9l34.8,42.3l25.3,5.8L456.1,604.1z M366.3,615.1l-5.7,4.4c-1.2-1.6-1.8-3.6-1.5-5.6
		c0.2-1.8,1.1-3.5,2.5-4.8L366.3,615.1z M349.8,579.5l5.9-4.8c1,1.5,1.5,3.3,1.3,5.1c-0.2,2-1.1,3.9-2.7,5.2L349.8,579.5z
		 M386.5,549.7l5.9-4.8l4.5,5.6C393.7,552.9,389.2,552.6,386.5,549.7z M460.4,585.4l-24.8-5.7l-34.5-41.9l8.5-6.9l4.7,5.6l0.1,0.1
		l0.1-0.1c1.6-1.4,2.6-3.3,2.8-5.4c0.2-1.9-0.3-3.8-1.4-5.3l19.2-15.5l26.8,33.1l7.8,1.8L460.4,585.4z M409.7,530.9l5.9-4.8
		c1.1,1.5,1.5,3.3,1.4,5.1c-0.2,2-1.1,3.9-2.7,5.2L409.7,530.9z M469.9,543.9l-7.3-1.7l-27.4-33.9l-92.9,75.3l-0.6,0.5l19.7,24.8
		c-3.1,2.8-3.5,7.5-1,10.8l0.1,0.1l5.9-4.5l10.2,12.9l0.1,25.7l-33.6,0.1l-8.6-10.6l26.3-20.1l-9-11.1l5.5-4.6l0.1-0.1l-0.1-0.1
		c-2.7-3.1-7.2-3.7-10.6-1.4l-2.9-3.5l5.4-4.7l0.1-0.1l-0.1-0.1c-1.4-1.6-3.3-2.6-5.4-2.7c-1.8-0.1-3.5,0.3-5,1.3l-4.8-5.9
		l-25.7,20.9l-10.1-12.5l136.5-111.6l7.9,10l0.1-0.1l0.2,0.3l22.9-18.7c0.6-0.5,1.5-0.6,2.2-0.1c0.7,0.4,1,1.2,0.8,2l-6.9,29.7
		l0.7,0.2l0.2-0.9l12.5,3.1l-0.1,0.5l0.7,0.2l6.3-27.6c2.1-8-0.3-15.1-6.3-18.9c-4.3-2.7-9.7-3.1-14.6-1.4l32.7-26.7L469.9,543.9z
		 M494.5,436.2l-45.8,37.4L381.9,390l77.3-63.2l46.8,58.6L494.5,436.2z M506.6,383.7L456,320.3l24.5-19.6l3.6-16l10.1,2.1l32.7,7.5
		L506.6,383.7z M485.6,284.3c1-4,4.9-6.5,8.9-5.8l-1.5,7.3L485.6,284.3z M527.1,293.7l-32.3-7.4l2.5-8.6l22.1-17.7l0.1-0.1l1.8-6.1
		l14.2,3.2L527.1,293.7z M535.7,256.4l-14.2-3.2l1.8-6l18.6-17.7L535.7,256.4z M542.1,228l-19.5,18.6l-0.1,0.1l-3.8,12.8l-22.2,17.7
		l-2.6,8.9l-0.8-0.2l1.5-7.6h-0.1c-2.1-0.4-4.2,0-6,1.2c-1.7,1.1-2.9,2.8-3.3,4.7L484,284l-14.2-17.5l8.9-7.2l0.7,0.9l30.9-25l6.4,8
		l0.6-0.5l-6.4-8l22.3-18l9.3,9.3L542.1,228z"/>
</g>
<g id="eventSpot">
	<polygon id="sala13" class="eventColor" points="137.3,36.1 129.1,25.4 115.5,36.1 114.5,36.1 59.8,80.5 107.2,138.6 175.5,82.9
		152.9,54.9 138.7,36.1 	"/>
	<polygon id="sala12" class="eventColor" points="52.3,86.5 8.8,121.8 8.8,182.3 11,182.3 27.9,203.4 99.8,144.7 	"/>
	<polygon id="sala7" class="eventColor" points="371.9,536.5 305.2,452.9 227.8,516 294.6,599.7 	"/>
	<polygon id="sala9" class="eventColor" points="506.1,385.5 459.3,326.9 381.9,390.1 448.7,473.7 494.5,436.2 	"/>
</g>
<g id="guideSpot">

		<ellipse id="CW-1-D16" transform="matrix(0.6354 -0.7722 0.7722 0.6354 -137.8645 442.7917)" class="wireColor" cx="400" cy="367.4" rx="3" ry="3"/>

		<ellipse id="CW-1-D15" transform="matrix(0.6354 -0.7722 0.7722 0.6354 -376.3719 424.1201)" class="wireColor" cx="260.9" cy="610.6" rx="3" ry="3"/>

		<ellipse id="CW-1-D14" transform="matrix(0.6354 -0.7722 0.7722 0.6354 -331.8555 330.8756)" class="wireColor" cx="184.4" cy="516.8" rx="3" ry="3"/>

		<ellipse id="CW-1-D13" transform="matrix(0.6354 -0.7722 0.7722 0.6354 -269.0926 237.3858)" class="wireColor" cx="116.8" cy="403.6" rx="3" ry="3"/>

		<ellipse id="CW-1-D12" transform="matrix(0.6354 -0.7722 0.7722 0.6354 -149.9363 132.5)" class="wireColor" cx="65.3" cy="225" rx="3" ry="3"/>

		<ellipse id="CW-1-D11" transform="matrix(0.6354 -0.7722 0.7722 0.6354 -36.0542 194.463)" class="wireColor" cx="187.9" cy="135.4" rx="3" ry="3"/>
</g>
</svg>
