<?xml version="1.0" encoding="utf-8"?>
<!-- Generator: Adobe Illustrator 20.0.0, SVG Export Plug-In . SVG Version: 6.00 Build 0)  -->
<svg version="1.1" xmlns="http://www.w3.org/2000/svg" xmlns:xlink="http://www.w3.org/1999/xlink" x="0px" y="0px"
	 viewBox="0 0 1301.4 771.7" style="enable-background:new 0 0 1301.4 771.7;" xml:space="preserve">
<style type="text/css">.wireColor{fill: #777777;}.nofloorColor{fill: #F2F2F2;}.arrowColor{fill: #EA5906;}.eventColor{opacity: 0.3; fill: #F59E16; transition: 1s fill;}.wcColor{opacity: 0.3; fill: #3693B2;}.stairsColor{opacity: 0.3; fill: #73cc15;}.transparentObject{fill: 0;}.riverColor{fill: #B9DDEF;}.mapElements{fill: #E2E2E2;}.tramColor{fill: #73CC15;}.mapArrows{fill: #BFBFBF;}.buildingFill{fill: #E5E5E5;}.eventColor.active{opacity: 0.3; fill: red; -webkit-animation: alertOpacity 2s infinite alternate; animation: alertOpacity 2s infinite alternate;}@-webkit-keyframes alertOpacity{0%{opacity: 0.3;}50%{opacity: 0.5;}100%{opacity: 0.3;}}@keyframes alertOpacity{0%{opacity: 0.3;}50%{opacity: 0.5;}100%{opacity: 0.3;}}#guideSpot .eventColor.active{fill: red; opacity: 1; r: 10; transform-origin: 150px 150px; -webkit-transform-origin: 50% 50%; -webkit-animation: alertScale 2s infinite alternate; animation: alertScale 2s infinite alternate;}@-webkit-keyframes alertScale{0%{-webkit-transform: scale(1, 1);}50%{-webkit-transform: scale(2, 2);}100%{-webkit-transform: scale(1, 1);}}@keyframes alertScale{0%{transform: scale(1, 1);}50%{transform: scale(2, 2);}100%{transform: scale(1, 1);}}</style>
<g id="description">
	<g id="wc_2_">
		<path class="wireColor" d="M415.4,57.1h-5.3l-4.8-35h3.8l4.1,29.8l3.9-29.7h3.8l3.8,29.8l3.9-29.8h3.4l-4.7,35h-5.1l-3.3-23.7
			L415.4,57.1z"/>
		<path class="wireColor" d="M450.7,30.6v3.1H447v-3.3c0-3.1-1.2-5-4.1-5c-2.8,0-4.1,1.9-4.1,5v18.5c0,3.1,1.3,5,4.1,5
			c2.8,0,4.1-1.9,4.1-5v-4.5h3.7v4.3c0,5.3-2.5,8.8-7.9,8.8c-5.3,0-7.8-3.5-7.8-8.8V30.6c0-5.3,2.5-8.8,7.8-8.8
			C448.2,21.8,450.7,25.3,450.7,30.6z"/>
	</g>
	<g id="wc_1_">
		<path class="wireColor" d="M486.1,57.1h-5.3l-4.8-35h3.8l4.1,29.8l3.9-29.7h3.8l3.8,29.8l3.9-29.8h3.4l-4.7,35h-5.1l-3.3-23.7
			L486.1,57.1z"/>
		<path class="wireColor" d="M521.4,30.6v3.1h-3.7v-3.3c0-3.1-1.2-5-4.1-5c-2.8,0-4.1,1.9-4.1,5v18.5c0,3.1,1.3,5,4.1,5
			c2.8,0,4.1-1.9,4.1-5v-4.5h3.7v4.3c0,5.3-2.5,8.8-7.9,8.8c-5.3,0-7.8-3.5-7.8-8.8V30.6c0-5.3,2.5-8.8,7.8-8.8
			C518.9,21.8,521.4,25.3,521.4,30.6z"/>
	</g>
	<g id="łącznik_1_">
		<path class="wireColor" d="M589.3,573.8H605v-14.3h5.1v19.8h-14.8l3.6,3.6h-5.1l-3.6-3.6h-30v-5.5h24.1l-8.1-7.8h5.1L589.3,573.8z"/>
		<path class="wireColor" d="M610,531.5c1.4,1.7,3.6,2.6,4.9,2.6c1.5-0.1,2.1-1.3,2.1-2.6s-0.3-2.1-0.6-2.9h2.9c0.6,1.4,0.9,2.6,0.9,4.4
			c0,3.1-1.3,5.3-4,5.4c-2,0.1-4.1-1.2-5.7-3.4L600,537v12.6l10.1,1.9v5.1l-50-9.6V539l50-9.6V531.5z M595.2,548.9v-11.1l-28.8,5.6
			L595.2,548.9z"/>
		<path class="wireColor" d="M572.1,503.1h4.5v5.3h-4.8c-4.5,0-7.2,1.8-7.2,5.9c0,4,2.7,5.9,7.2,5.9h26.4c4.5,0,7.2-1.9,7.2-5.9
			c0-4.1-2.7-5.9-7.2-5.9h-6.5v-5.3h6.2c7.6,0,12.6,3.6,12.6,11.3c0,7.6-5,11.2-12.6,11.2h-25.8c-7.6,0-12.6-3.6-12.6-11.2
			C559.6,506.6,564.6,503.1,572.1,503.1z"/>
		<path class="wireColor" d="M610,476.1v22.7h-5l-39.9-17.1V498h-5.1v-22.1h5l39.9,17.2v-17.1H610z"/>
		<path class="wireColor" d="M610,466v5h-50v-7.1l36.1-11.6h-36.1v-4.9h50v5.8L569.6,466H610z"/>
		<path class="wireColor" d="M560.1,436.2h50v5.6h-50V436.2z"/>
		<path class="wireColor" d="M588.3,422l4.9,2.9H610v5.6h-50v-5.6h24.1l-24.1-13.3V406l22.8,12.6l27.2-13.1v5.7L588.3,422z"/>
	</g>
	<g id="BMenter">
		<path class="wireColor" d="M619.9,691.9H618l-1.7-12.2h1.3l1.4,10.4l1.4-10.3h1.3l1.3,10.4l1.4-10.4h1.2l-1.7,12.2h-1.8l-1.2-8.3
			L619.9,691.9z"/>
		<path class="wireColor" d="M631.1,685.2v1.2h-3v4.3h3.7v1.2h-5v-12.2h5v1.2h-3.7v4.2H631.1z"/>
		<path class="wireColor" d="M632.7,690.7c0.2,0,0.5,0,0.7,0c0.9-0.1,1.4-0.5,1.4-1.7v-9.3h1.3v9.2c0,2.3-1.1,3-2.6,3c-0.3,0-0.6,0-0.9,0
			V690.7z"/>
		<path class="wireColor" d="M642.7,682.7v0.3h-1.3v-0.4c0-1.1-0.4-1.7-1.4-1.7c-1,0-1.4,0.6-1.4,1.7c0,2.7,4.1,3,4.1,6.4
			c0,1.8-0.9,3-2.7,3s-2.7-1.2-2.7-3v-0.7h1.3v0.8c0,1.1,0.5,1.7,1.4,1.7c1,0,1.4-0.6,1.4-1.7c0-2.7-4.1-3-4.1-6.4
			c0-1.9,0.9-3,2.7-3C641.9,679.6,642.7,680.8,642.7,682.7z M641.8,677.2l-1.6,1.8h-0.9l1.2-1.8H641.8z"/>
		<path class="wireColor" d="M649.3,682.7v1.1H648v-1.2c0-1.1-0.4-1.8-1.4-1.8c-1,0-1.4,0.7-1.4,1.8v6.4c0,1.1,0.5,1.8,1.4,1.8
			c1,0,1.4-0.7,1.4-1.8v-1.6h1.3v1.5c0,1.8-0.9,3.1-2.7,3.1c-1.9,0-2.7-1.2-2.7-3.1v-6.3c0-1.8,0.9-3.1,2.7-3.1
			C648.4,679.6,649.3,680.9,649.3,682.7z"/>
		<path class="wireColor" d="M651.9,679.8v12.2h-1.4v-12.2H651.9z"/>
		<path class="wireColor" d="M657.6,685.2v1.2h-3v4.3h3.7v1.2h-5v-12.2h5v1.2h-3.7v4.2H657.6z"/>
		<path class="wireColor" d="M665.1,679.8c1.9,0,2.8,1.1,2.8,3v6.1c0,1.9-0.9,3-2.8,3h-2.9v-12.2H665.1z M665.1,690.7c1,0,1.4-0.6,1.4-1.7
			v-6.3c0-1.1-0.5-1.7-1.5-1.7h-1.5v9.7H665.1z"/>
		<path class="wireColor" d="M669,682.7c0-1.9,0.9-3.1,2.8-3.1c1.9,0,2.8,1.2,2.8,3.1v6.3c0,1.8-0.9,3.1-2.8,3.1c-1.9,0-2.8-1.2-2.8-3.1
			V682.7z M670.4,689.1c0,1.1,0.5,1.8,1.4,1.8c1,0,1.4-0.6,1.4-1.8v-6.4c0-1.1-0.5-1.8-1.4-1.8c-1,0-1.4,0.7-1.4,1.8V689.1z"/>
		<path class="wireColor" d="M619.4,700.6c1.9,0,2.6,0.9,2.6,2.7v0.6c0,1.3-0.4,2.1-1.4,2.4c1.2,0.3,1.6,1.3,1.6,2.6v1
			c0,1.8-0.9,2.9-2.8,2.9h-2.8v-12.2H619.4z M619,705.8c1.1,0,1.6-0.3,1.6-1.6v-0.7c0-1.1-0.4-1.6-1.3-1.6H618v3.9H619z
			 M619.4,711.6c1,0,1.4-0.5,1.4-1.7v-1.1c0-1.4-0.5-1.8-1.7-1.8H618v4.5H619.4z"/>
		<path class="wireColor" d="M624.7,709.9c0,1.1,0.4,1.8,1.4,1.8c1,0,1.4-0.7,1.4-1.8v-9.3h1.3v9.2c0,1.8-0.9,3.1-2.7,3.1
			c-1.9,0-2.7-1.2-2.7-3.1v-9.2h1.3V709.9z"/>
		<path class="wireColor" d="M633,700.6c1.9,0,2.8,1.1,2.8,3v6.1c0,1.9-0.9,3-2.8,3h-2.9v-12.2H633z M633,711.6c1,0,1.4-0.6,1.4-1.7v-6.3
			c0-1.1-0.5-1.7-1.5-1.7h-1.5v9.7H633z"/>
		<path class="wireColor" d="M639,708.5l-2.6-7.8h1.4l1.9,6l1.9-6h1.3l-2.6,7.8v4.4H639V708.5z"/>
		<path class="wireColor" d="M645.1,712.8h-1.2v-12.2h1.7l2.8,8.8v-8.8h1.2v12.2h-1.4l-3.1-9.8V712.8z"/>
		<path class="wireColor" d="M653.1,707.5l-0.7,1.2v4.1H651v-12.2h1.4v5.9l3.2-5.9h1.4l-3.1,5.5l3.2,6.6h-1.4L653.1,707.5z"/>
		<path class="wireColor" d="M659.3,709.9c0,1.1,0.4,1.8,1.4,1.8c1,0,1.4-0.7,1.4-1.8v-9.3h1.3v9.2c0,1.8-0.9,3.1-2.7,3.1
			c-1.9,0-2.7-1.2-2.7-3.1v-9.2h1.3V709.9z"/>
		<path class="wireColor" d="M670.7,712.8h-1.9l-1.7-12.2h1.3l1.4,10.4l1.4-10.4h1.3l1.3,10.4l1.4-10.4h1.2l-1.7,12.2h-1.8l-1.2-8.3
			L670.7,712.8z"/>
		<path class="wireColor" d="M679.8,708.5l-2.6-7.8h1.4l1.9,6l1.9-6h1.3l-2.6,7.8v4.4h-1.3V708.5z"/>
		<path class="wireColor" d="M687.5,700.6c1.9,0,2.8,1.1,2.8,3v6.1c0,1.9-0.9,3-2.8,3h-2.9v-12.2H687.5z M687.5,711.6c1,0,1.4-0.6,1.4-1.7
			v-6.3c0-1.1-0.5-1.7-1.5-1.7H686v9.7H687.5z"/>
		<path class="wireColor" d="M696.9,712.8h-5.5v-1.2l4.2-9.7h-4v-1.2h5.4v1.2l-4.2,9.7h4.2V712.8z"/>
		<path class="wireColor" d="M699.5,700.6v12.2h-1.4v-12.2H699.5z"/>
		<path class="wireColor" d="M702.3,710.4l-0.5,2.5h-1.3l2.3-12.2h2l2.3,12.2h-1.4l-0.5-2.5H702.3z M702.4,709.2h2.7l-1.4-7L702.4,709.2z"
			/>
		<path class="wireColor" d="M709.8,707.8v3.8h3.5v1.2h-4.8v-3.6l-0.9,0.9v-1.3l0.9-0.9v-7.3h1.3v5.9l1.9-2v1.3L709.8,707.8z"/>
		<path class="wireColor" d="M715.6,709.9c0,1.1,0.4,1.8,1.4,1.8c1,0,1.4-0.7,1.4-1.8v-9.3h1.3v9.2c0,1.8-0.9,3.1-2.7,3.1
			c-1.9,0-2.7-1.2-2.7-3.1v-9.2h1.3V709.9z"/>
		<path class="wireColor" d="M619.4,721.5c1.9,0,2.6,0.9,2.6,2.7v0.6c0,1.3-0.4,2.1-1.4,2.4c1.2,0.3,1.6,1.3,1.6,2.6v1
			c0,1.8-0.9,2.9-2.8,2.9h-2.8v-12.2H619.4z M619,726.7c1.1,0,1.6-0.3,1.6-1.6v-0.7c0-1.1-0.4-1.6-1.3-1.6H618v3.9H619z
			 M619.4,732.5c1,0,1.4-0.5,1.4-1.7v-1.1c0-1.4-0.5-1.8-1.7-1.8H618v4.5H619.4z"/>
		<path class="wireColor" d="M624.7,730.8c0,1.1,0.4,1.8,1.4,1.8c1,0,1.4-0.7,1.4-1.8v-9.3h1.3v9.2c0,1.8-0.9,3.1-2.7,3.1
			c-1.9,0-2.7-1.2-2.7-3.1v-9.2h1.3V730.8z"/>
		<path class="wireColor" d="M633,721.5c1.9,0,2.8,1.1,2.8,3v6.1c0,1.9-0.9,3-2.8,3h-2.9v-12.2H633z M633,732.5c1,0,1.4-0.6,1.4-1.7v-6.3
			c0-1.1-0.5-1.7-1.5-1.7h-1.5v9.7H633z"/>
		<path class="wireColor" d="M637,724.5c0-1.9,0.9-3.1,2.8-3.1c1.9,0,2.8,1.2,2.8,3.1v6.3c0,1.8-0.9,3.1-2.8,3.1c-1.9,0-2.8-1.2-2.8-3.1
			V724.5z M638.3,730.8c0,1.1,0.5,1.8,1.4,1.8c1,0,1.4-0.6,1.4-1.8v-6.4c0-1.1-0.5-1.8-1.4-1.8c-1,0-1.4,0.7-1.4,1.8V730.8z"/>
		<path class="wireColor" d="M647.1,733.7h-1.9l-1.7-12.2h1.3l1.4,10.4l1.4-10.3h1.3l1.3,10.4l1.4-10.4h1.2l-1.7,12.2h-1.8l-1.2-8.3
			L647.1,733.7z"/>
		<path class="wireColor" d="M656.1,729.3l-2.6-7.8h1.4l1.9,6l1.9-6h1.3l-2.6,7.8v4.4h-1.3V729.3z"/>
		<path class="wireColor" d="M668.2,733.7h-1.3l-2-9.7v9.7h-1.2v-12.2h1.9l2,9.7l1.9-9.7h1.9v12.2h-1.3v-9.8L668.2,733.7z"/>
		<path class="wireColor" d="M674.2,731.2l-0.5,2.5h-1.3l2.3-12.2h2l2.3,12.2h-1.4l-0.5-2.5H674.2z M674.4,730.1h2.7l-1.4-7L674.4,730.1z"
			/>
		<path class="wireColor" d="M685.4,724.4v0.3h-1.3v-0.4c0-1.1-0.4-1.7-1.4-1.7c-1,0-1.4,0.6-1.4,1.7c0,2.7,4.1,3,4.1,6.4
			c0,1.8-0.9,3-2.7,3s-2.7-1.2-2.7-3v-0.7h1.3v0.8c0,1.1,0.5,1.7,1.4,1.7c1,0,1.4-0.6,1.4-1.7c0-2.7-4.1-3-4.1-6.4
			c0-1.9,0.9-3,2.7-3C684.6,721.4,685.4,722.6,685.4,724.4z"/>
		<path class="wireColor" d="M692,733.7h-5.5v-1.2l4.2-9.7h-4v-1.2h5.4v1.2l-4.2,9.7h4.2V733.7z"/>
		<path class="wireColor" d="M695.4,729.3l-2.6-7.8h1.4l1.9,6l1.9-6h1.3l-2.6,7.8v4.4h-1.3V729.3z"/>
		<path class="wireColor" d="M701.5,733.7h-1.2v-12.2h1.7l2.8,8.8v-8.8h1.2v12.2h-1.4l-3.1-9.8V733.7z"/>
		<path class="wireColor" d="M711.5,721.5v12.2h-1.4v-12.2H711.5z"/>
		<path class="wireColor" d="M720.9,733.7h-5.5v-1.2l4.2-9.7h-4v-1.2h5.4v1.2l-4.2,9.7h4.2V733.7z"/>
		<path class="wireColor" d="M723.5,731.2l-0.5,2.5h-1.3l2.3-12.2h2l2.3,12.2h-1.4l-0.5-2.5H723.5z M723.7,730.1h2.7l-1.4-7L723.7,730.1z"
			/>
		<path class="wireColor" d="M732.2,721.5c1.9,0,2.7,1,2.7,2.8v1c0,1.3-0.5,2.2-1.5,2.5c1.1,0.3,1.5,1.2,1.5,2.5v1.9c0,0.5,0,1,0.2,1.5
			h-1.4c-0.2-0.3-0.2-0.7-0.2-1.5v-1.9c0-1.4-0.6-1.8-1.8-1.8h-1v5.2h-1.4v-12.2H732.2z M731.9,727.3c1.1,0,1.7-0.3,1.7-1.7v-1.2
			c0-1.1-0.4-1.7-1.4-1.7h-1.3v4.5H731.9z"/>
		<path class="wireColor" d="M741.7,733.7h-5.5v-1.2l4.2-9.7h-4v-1.2h5.4v1.2l-4.2,9.7h4.2V733.7z"/>
		<path class="wireColor" d="M748.7,733.7c-0.4,0.3-0.6,0.9-0.6,1.2c0,0.4,0.3,0.5,0.6,0.5c0.3,0,0.5-0.1,0.7-0.2v0.7
			c-0.3,0.2-0.6,0.2-1.1,0.2c-0.8,0-1.3-0.3-1.3-1c0-0.5,0.3-1,0.8-1.4l-0.5-2.6h-3.1l-0.5,2.5h-1.3l2.3-12.2h2l2.3,12.2H748.7z
			 M744.5,730.1h2.7l-1.4-7L744.5,730.1z"/>
		<path class="wireColor" d="M753.1,721.5c1.9,0,2.8,1.1,2.8,3v6.1c0,1.9-0.9,3-2.8,3h-2.9v-12.2H753.1z M753.1,732.5c1,0,1.4-0.6,1.4-1.7
			v-6.3c0-1.1-0.5-1.7-1.5-1.7h-1.5v9.7H753.1z"/>
		<path class="wireColor" d="M762.5,733.7H757v-1.2l4.2-9.7h-4v-1.2h5.4v1.2l-4.2,9.7h4.2V733.7z"/>
		<path class="wireColor" d="M765.1,731.2l-0.5,2.5h-1.3l2.3-12.2h2l2.3,12.2h-1.4l-0.5-2.5H765.1z M765.3,730.1h2.7l-1.4-7L765.3,730.1z"
			/>
		<path class="wireColor" d="M772.3,733.7h-1.2v-12.2h1.7l2.8,8.8v-8.8h1.2v12.2h-1.4l-3.1-9.8V733.7z"/>
		<path class="wireColor" d="M779.6,721.5v12.2h-1.4v-12.2H779.6z"/>
		<path class="wireColor" d="M782.3,731.2l-0.5,2.5h-1.3l2.3-12.2h2l2.3,12.2h-1.4l-0.5-2.5H782.3z M782.5,730.1h2.7l-1.4-7L782.5,730.1z"
			/>
	</g>
	<polygon id="arrowBM" class="wireColor" points="581.5,729.4 594.9,706.1 588.5,706.1 588.4,685.5 574.2,685.6 574.3,706.1 567.9,706.2
		"/>
	<polygon id="arrowE" class="arrowColor" points="33.4,91.5 15.6,81.4 15.6,86.2 0,86.2 0,97.1 15.7,97 15.7,101.8 	"/>
</g>
<g id="hotSpot">

		<rect id="schody1" x="187" y="3" transform="matrix(-1 -1.224647e-16 1.224647e-16 -1 417.9256 75.8547)" class="stairsColor" width="43.9" height="69.8"/>

		<rect id="schody2" x="601.5" y="3" transform="matrix(-1 -1.224647e-16 1.224647e-16 -1 1246.9125 75.8547)" class="stairsColor" width="43.9" height="69.8"/>

		<rect id="schody3" x="1021.5" y="3" transform="matrix(-1 -1.224647e-16 1.224647e-16 -1 2086.9126 75.8547)" class="stairsColor" width="43.9" height="69.8"/>
	<rect id="windy1" x="1065.4" y="37.6" class="stairsColor" width="45.5" height="35.8"/>

		<rect id="wc" x="365.6" y="1.9" transform="matrix(-1 -1.224647e-16 1.224647e-16 -1 930.8418 75.2597)" class="wcColor" width="199.7" height="71.5"/>
	<rect id="winda2" x="230.9" y="38.2" class="stairsColor" width="25.2" height="35.2"/>
</g>
<g id="wire">
	<path class="wireColor" d="M1301.4,182.7V0H43.3v75.1h-8.9v0.4c0,5.2,3.9,9.5,8.9,10.1v12.2c-5,0.6-8.9,4.9-8.9,10.1v0.4h8.9v74.6h515.9
		v145.1H362.1v136.9h123.4V526H362.1v130.3h193.2v115.4h3.8V652.5h-21.6v-321h25.5V182.7h44.9v148.6h31.6v319.1h-35.8v121.3h3.8
		V654.2h205.8V327.6H611.6V182.7H1301.4z M365.9,652.5V529.8h123.4v-1.1H536v123.9H365.9z M489.3,463.5H536v63.6h-46.7V463.5z
		 M536,462h-46.7v-1.1H365.9V331.5H536V462z M640.9,465.6h36.8v61.5h-36.8V465.6z M640.9,650.4V528.6h38.3v-31.5h130.2v153.3H640.9z
		 M809.5,495.6H679.2v-31.5h-38.3V331.3h168.5V495.6z M583.1,178.8c0.2-6.5,5.4-11.8,11.9-11.9v11.9H583.1z M595.5,166.1
		c-7.1,0-12.9,5.7-13.1,12.8H582c-0.1-7.1-5.9-12.8-13.1-12.8h-0.4v12.8H566v-26.7h31.8v26.7h-1.9v-12.8H595.5z M569.3,178.8v-11.9
		c6.5,0.2,11.8,5.4,11.9,11.9H569.3z M149.4,110.5v22.2h-34v-22.2H149.4z M115.4,133.4h27.5v39.1h6.6v6.4h-34V133.4z M143.6,171.8
		v-38.4h6.6v-22.9h31.7v8.5h5.5v-9.6h-3.3V109H95.8v-0.9V97.6v-12V75.1v-0.9h92v-0.9h0.6h7.9h9.9h7.9h7.1h7.9h0.9v0.9h26.7v-9.8h8
		v-0.4c0-4.2-3-7.8-7-8.6c4-0.8,7-4.3,7-8.6v-0.4h-8V39h23.7v35.2h43.5v0.9h-9.8v0.4c0,5.5,4.3,9.9,9.8,10.1v12.1
		c-5.4,0.2-9.8,4.6-9.8,10.1v0.4h9.8v0.9h-0.4v69.9H150.2v-7.1H143.6z M182.6,110.5h1.5v-0.4h2.5v8.1h-4V110.5z M390.8,14V3.8h72.5
		v68.9h-72.5V25.4h-0.8v47.2H366V3.8h24.1V14H390.8z M531.9,14V3.8h33v68.9h-33V25.4h-0.8v47.2h-66.3V3.8h66.3V14H531.9z
		 M841.9,134.3v44.6h-67.3V106h103.2v5.6v0.8v66.6h-35.1v-44.6H841.9z M597.8,151.3v0.2h-1.9v-12.9h-0.4c-7.1,0-12.9,5.7-13.1,12.9
		H582c-0.1-7.1-5.9-12.9-13.1-12.9h-0.4v12.9H566V109h-8.3v-3h12.7v-0.4c0-7.1-5.7-12.9-12.7-13.1v-0.4c7-0.2,12.7-6,12.7-13.1v-0.4
		h-12.7v-4.7h44.9v-1.3h0.6h7.9h9.9h7.9h7.1h7.9h0.3v1.3h50.6v3.3v9.5v5v9.5v3.1h-1.6V118L597.8,151.3z M583.1,151.3
		c0.2-6.5,5.4-11.8,11.9-11.9v11.9H583.1z M569.3,151.3v-11.9c6.5,0.2,11.8,5.4,11.9,11.9H569.3z M324.8,109v-0.9V97.6v-12V75.1
		v-0.9h55.8c0.4,4.3,4,7.6,8.4,7.6h0.4v-7.6h157.4c0.4,4.3,4,7.6,8.4,7.6h0.4v-7.6h1.5v4.7v13.5v0.3v13.5v3H324.8z M324.1,107.4h-9
		c0.2-4.9,4.1-8.8,9-9V107.4z M324.1,84.8c-4.9-0.2-8.8-4.1-9-9h9V84.8z M388.6,74.1V81c-3.8-0.2-6.9-3.1-7.2-6.9H388.6z
		 M554.7,74.1V81c-3.8-0.2-6.9-3.1-7.2-6.9H554.7z M557.7,79.6h11.9c-0.2,6.5-5.4,11.8-11.9,11.9V79.6z M557.7,93.4
		c6.5,0.2,11.8,5.4,11.9,11.9h-11.9V93.4z M602.6,18.9h20.1v2.8h-20.1V18.9z M693.1,72.6h-23.3V43.9h23.3V72.6z M669.1,72.6h-23.3
		V43.9h23.3V72.6z M644.3,53.7h-20.1V51h20.1V53.7z M644.3,43.2h-20.1v-2.8h20.1V43.2z M644.3,39.6h-20.1v-3.1h20.1V39.6z
		 M644.3,35.7h-20.1v-2.6h20.1V35.7z M644.3,32.4h-20.1v-2.8h20.1V32.4z M644.3,28.8h-20.1v-3h20.1V28.8z M644.3,25.1h-20.1v-2.6
		h20.1V25.1z M644.3,50.2h-20.1v-3h20.1V50.2z M644.3,46.5h-20.1v-2.6h20.1V46.5z M644.3,21.7h-20.1v-2.8h20.1V21.7z M602.6,22.5
		h20.1v2.6h-20.1V22.5z M602.6,25.8h20.1v3h-20.1V25.8z M602.6,29.5h20.1v2.8h-20.1V29.5z M602.6,33.1h20.1v2.6h-20.1V33.1z
		 M602.6,36.4h20.1v3.1h-20.1V36.4z M602.6,40.3h20.1v2.8h-20.1V40.3z M602.6,43.9h20.1v2.6h-20.1V43.9z M602.6,47.2h20.1v3h-20.1
		V47.2z M602.6,51h20.1v2.7h-20.1V51z M602.6,54.4h20.1v2.7h-20.1V54.4z M602.6,57.8h20.1v0.1h1.5v-3.5h20.1v17.7H644V65h-0.4
		c-4,0-7.3,3.2-7.5,7.2H629c-0.2-4-3.5-7.2-7.5-7.2h-0.4v7.2h-9.9c-0.2-4-3.5-7.2-7.5-7.2h-0.4v7.2h-0.6V57.8z M643.3,72.1h-6.4
		c0.2-3.5,3-6.2,6.4-6.4V72.1z M628.2,72.1h-6.4v-6.4C625.3,65.9,628,68.7,628.2,72.1z M610.4,72.1H604v-6.4
		C607.4,65.9,610.2,68.7,610.4,72.1z M695.7,78.2h7.9c-0.2,4.3-3.7,7.8-7.9,7.9V78.2z M695.7,92.7c4.3,0.2,7.8,3.7,7.9,7.9h-7.9
		V92.7z M694.8,119.1V106h0.1v3.8h0.8V106h78.2v72.9H637.6V139L694.8,119.1z M879.3,112.3h346.5v66.6H879.3V112.3z M879.3,110.8
		v-6.3H695.7v-3.1h8.7V101c0-4.9-3.9-8.9-8.7-9.1v-5.1c4.8-0.2,8.7-4.2,8.7-9.1v-0.4h-8.7v-3.3h326.9v-1h0.6h7.9h9.9h7.9h7.1h7.9
		h0.6v1h7.1c0.4,5.5,5,9.9,10.6,9.9h0.4v-9.9h12.4c0.4,5.5,5,9.9,10.6,9.9h0.4v-9.9h141.2v13.8h-11.2v0.4c0,6.2,5,11.3,11.2,11.5
		v10.9H879.3z M789.3,35.6h18.5v37h-18.5V35.6z M841.9,72.6h-33.4v-37h33.4V72.6z M1022.6,19.3h20.1v2.8h-20.1V19.3z M1064.6,54.1
		h-20.4v-2.7h20.4V54.1z M1064.6,50.6h-20.4v-3h20.4V50.6z M1064.6,46.9h-20.4v-2.6h20.4V46.9z M1064.6,43.6h-20.4v-2.8h20.4V43.6z
		 M1064.6,40h-20.4v-3.1h20.4V40z M1064.6,36.1h-20.4v-2.6h20.4V36.1z M1064.6,32.8h-20.4v-2.8h20.4V32.8z M1064.6,29.2h-20.4v-3
		h20.4V29.2z M1064.6,25.5h-20.4v-2.6h20.4V25.5z M1064.6,22.1h-20.4v-2.8h20.4V22.1z M1022.6,22.9h20.1v2.6h-20.1V22.9z
		 M1022.6,26.2h20.1v3h-20.1V26.2z M1022.6,29.9h20.1v2.8h-20.1V29.9z M1022.6,33.5h20.1v2.6h-20.1V33.5z M1022.6,36.8h20.1V40
		h-20.1V36.8z M1022.6,40.7h20.1v2.8h-20.1V40.7z M1022.6,44.3h20.1v2.6h-20.1V44.3z M1022.6,47.6h20.1v3h-20.1V47.6z M1022.6,51.4
		h20.1v2.7h-20.1V51.4z M1022.6,54.8h20.1v2.7h-20.1V54.8z M1022.6,58.2h20.1v0.1h1.5v-3.5h20.4v17.5h-0.6v-7.2h-0.4
		c-4,0-7.3,3.2-7.5,7.2h-7.2c-0.2-4-3.5-7.2-7.5-7.2h-0.4v7.2h-9.9c-0.2-4-3.5-7.2-7.5-7.2h-0.4v7.2h-0.6V58.2z M1063.3,72.4h-6.4
		c0.2-3.5,3-6.2,6.4-6.4V72.4z M1048.2,72.4h-6.4v-6.4C1045.3,66.1,1048,68.9,1048.2,72.4z M1030.4,72.4h-6.4v-6.4
		C1027.4,66.1,1030.2,68.9,1030.4,72.4z M1110.1,72.6h-21.3V38.4h21.3V72.6z M1105.3,74.1v9.1c-5-0.2-9.1-4.1-9.4-9.1H1105.3z
		 M1087.4,72.6h-21.3V38.4h21.3V72.6z M1081.9,74.1v9.1c-5-0.2-9.1-4.1-9.4-9.1H1081.9z M1247.3,99.1c-5.7-0.2-10.2-4.8-10.4-10.4
		h10.4V99.1z M1248,99.9V87.9V74.1h49.6v36.7H1248V99.9z M1228.6,72.6V51.3h35.2v21.4H1228.6z M1263.8,50.5h-35.2V3.8h35.2V50.5z
		 M1227.1,72.6h-33.4V3.8h33.4V72.6z M1192.9,72.6h-34.2V3.8h34.2V72.6z M1157.2,72.6h-45.6V36.9h-45.5V3.8h91.1V72.6z M1064.6,18.5
		h-20.4v-0.2h-1.5v0.2h-20.1V3.8h42V18.5z M1021.1,72.6h-66.9V3.8h66.9V72.6z M953.5,72.6h-73.2V3.8h73.2V72.6z M879.5,72.6h-36.8
		V3.8h36.8V72.6z M841.9,34.9h-52.6V3.8h52.6V34.9z M788.6,72.6h-49.5V3.8h49.5V72.6z M737.6,72.6h-42.9V42.4h-48.8V3.8h91.7V72.6z
		 M644.3,18.1h-20.1v-0.2h-1.5v0.2h-20.1V3.8h41.7V18.1z M601.1,72.6h-35.5V3.8h35.5V72.6z M365.2,72.6h-42V3.8h42V72.6z
		 M322.5,72.6h-40.4V37.5h-50.4V3.8h90.8V72.6z M256.9,56c3.9,0.4,7.1,3.6,7.2,7.6h-7.2V56z M256.9,47.2h7.2c-0.2,4-3.3,7.2-7.2,7.6
		V47.2z M231.7,39h23.7v33.7h-23.7V39z M230.2,72.4h-0.9v-7.2h-0.4c-4,0-7.3,3.2-7.5,7.2h-7.2c-0.2-4-3.5-7.2-7.5-7.2h-0.4v7.2h-9.9
		c-0.2-4-3.5-7.2-7.5-7.2h-0.4v7.2h-0.6V58.2h20.1v0.1h1.5v-3.5h20.8V72.4z M228.5,72.4h-6.4c0.2-3.5,3-6.2,6.4-6.4V72.4z
		 M213.4,72.4H207V66C210.4,66.2,213.2,69,213.4,72.4z M195.6,72.4h-6.4V66C192.6,66.2,195.4,69,195.6,72.4z M187.8,19.2h20.1V22
		h-20.1V19.2z M187.8,22.8h20.1v2.6h-20.1V22.8z M187.8,26.1h20.1v3h-20.1V26.1z M187.8,29.8h20.1v2.8h-20.1V29.8z M187.8,33.4h20.1
		V36h-20.1V33.4z M187.8,36.8h20.1v3.1h-20.1V36.8z M187.8,40.6h20.1v2.8h-20.1V40.6z M187.8,44.2h20.1v2.6h-20.1V44.2z M187.8,47.6
		h20.1v3h-20.1V47.6z M187.8,51.3h20.1V54h-20.1V51.3z M187.8,54.7h20.1v2.7h-20.1V54.7z M230.2,54h-20.8v-2.7h20.8V54z M230.2,50.5
		h-20.8v-3h20.8V50.5z M230.2,46.8h-20.8v-2.6h20.8V46.8z M230.2,43.5h-20.8v-2.8h20.8V43.5z M230.2,39.9h-20.8v-3.1h20.8V39.9z
		 M230.2,36h-20.8v-2.6h20.8V36z M230.2,32.7h-20.8v-2.8h20.8V32.7z M230.2,29.1h-20.8v-3h20.8V29.1z M230.2,25.4h-20.8v-2.6h20.8
		V25.4z M230.2,22h-20.8v-2.8h20.8V22z M230.2,18.5h-20.8v-0.2h-1.5v0.2h-20.1V3.8h42.4V18.5z M149.8,72.6h-34V3.8h34V72.6z
		 M150.5,3.8h35.7v68.9h-35.7V3.8z M115,39H80.7V3.8H115V39z M115,39.7v32.9h-68V39.7H115z M69.6,74.1v0.9h-9.9v0.4
		c0,5.5,4.4,10,9.9,10.1v12.1c-5.5,0.1-9.9,4.6-9.9,10.1v0.4h9.9v0.9H47.1V74.1H69.6z M69.4,75.8v9c-4.9-0.2-8.8-4.1-9-9H69.4z
		 M69.4,98.4v9h-9C60.6,102.5,64.5,98.6,69.4,98.4z M70.3,74.1H95v0.9h-9.8v0.4c0,5.5,4.3,9.9,9.8,10.1v12.1
		c-5.4,0.2-9.8,4.6-9.8,10.1v0.4H95v0.9H70.3V74.1z M95,107.4h-9c0.2-4.9,4.1-8.8,9-9V107.4z M95,84.8c-4.9-0.2-8.8-4.1-9-9h9V84.8z
		 M325.2,110.5h32.7v68.4h-32.7V110.5z M358.6,110.5h33.7v68.4h-33.7V110.5z M393.1,110.5h70.2v68.4h-70.2V110.5z M464.8,110.5h99.7
		v68.4h-99.7V110.5z M599.3,152.3l37.6-13.1v39.7h-37.6V152.3z M1227.3,178.9v-66.6h70.4v66.6H1227.3z M1297.6,72.6h-33.1V3.8h33.1
		V72.6z M79.9,3.8V39H47.1V3.8H79.9z M35.1,75.8h8.2v8.9C38.8,84.2,35.3,80.4,35.1,75.8z M35.1,107.4c0.2-4.6,3.7-8.4,8.2-8.9v8.9
		H35.1z M47.1,110.5h66.8v68.4H47.1V110.5z"/>
	<path class="wireColor" d="M256.5,109.4H251v9.6h5.5V109.4z M255.7,118.3h-4v-8.1h4V118.3z"/>
	<path class="wireColor" d="M599.6,118.1h6.3v-6.3h-6.3V118.1z M600.3,112.5h4.8v4.8h-4.8V112.5z"/>
	<path class="wireColor" d="M666.4,118.1h6.3v-6.3h-6.3V118.1z M667.2,112.5h4.8v4.8h-4.8V112.5z"/>
</g>
<g id="eventSpot">
	<polygon id="lacznik" class="eventColor" points="603.6,650.4 639.4,650.4 639.4,331.3 607.8,331.3 607.8,329.4 562.9,329.4
		562.9,331.5 537.5,331.5 537.5,652.3 603.6,652.3 	"/>
</g>
<g id="guideSpot">
	<circle id="E--1-D-13" class="wireColor" cx="1043.5" cy="96.7" r="5.1"/>
	<circle id="E--1-D-12" class="wireColor" cx="634.3" cy="120" r="5.1"/>
	<circle id="E--1-D-11" class="wireColor" cx="166.7" cy="92.9" r="5.1"/>
</g>
</svg>
