<?xml version="1.0" encoding="utf-8"?>
<!-- Generator: Adobe Illustrator 20.0.0, SVG Export Plug-In . SVG Version: 6.00 Build 0)  -->
<svg version="1.1" xmlns="http://www.w3.org/2000/svg" xmlns:xlink="http://www.w3.org/1999/xlink" x="0px" y="0px"
	 viewBox="0 0 1258.1 182.7" style="enable-background:new 0 0 1258.1 182.7;" xml:space="preserve">
<style type="text/css">.wireColor{fill: #777777;}.nofloorColor{fill: #F2F2F2;}.arrowColor{fill: #EA5906;}.eventColor{opacity: 0.3; fill: #F59E16; transition: 1s fill;}.wcColor{opacity: 0.3; fill: #3693B2;}.stairsColor{opacity: 0.3; fill: #73cc15;}.transparentObject{fill: 0;}.riverColor{fill: #B9DDEF;}.mapElements{fill: #E2E2E2;}.tramColor{fill: #73CC15;}.mapArrows{fill: #BFBFBF;}.buildingFill{fill: #E5E5E5;}.eventColor.active{opacity: 0.3; fill: red; -webkit-animation: alertOpacity 2s infinite alternate; animation: alertOpacity 2s infinite alternate;}@-webkit-keyframes alertOpacity{0%{opacity: 0.3;}50%{opacity: 0.5;}100%{opacity: 0.3;}}@keyframes alertOpacity{0%{opacity: 0.3;}50%{opacity: 0.5;}100%{opacity: 0.3;}}#guideSpot .eventColor.active{fill: red; opacity: 1; r: 10; transform-origin: 150px 150px; -webkit-transform-origin: 50% 50%; -webkit-animation: alertScale 2s infinite alternate; animation: alertScale 2s infinite alternate;}@-webkit-keyframes alertScale{0%{-webkit-transform: scale(1, 1);}50%{-webkit-transform: scale(2, 2);}100%{-webkit-transform: scale(1, 1);}}@keyframes alertScale{0%{transform: scale(1, 1);}50%{transform: scale(2, 2);}100%{transform: scale(1, 1);}}</style>
<g id="description">
	<g id="wc3">
		<path class="wireColor" d="M669.7,54.3h-2.2l-2-14.5h1.6l1.7,12.3l1.6-12.3h1.6l1.6,12.3l1.6-12.3h1.4l-2,14.5h-2.1l-1.4-9.8L669.7,54.3
			z"/>
		<path class="wireColor" d="M684.3,43.4v1.3h-1.5v-1.4c0-1.3-0.5-2.1-1.7-2.1c-1.2,0-1.7,0.8-1.7,2.1v7.6c0,1.3,0.5,2.1,1.7,2.1
			c1.2,0,1.7-0.8,1.7-2.1V49h1.5v1.8c0,2.2-1,3.6-3.3,3.6c-2.2,0-3.2-1.4-3.2-3.6v-7.5c0-2.2,1-3.6,3.2-3.6
			C683.3,39.7,684.3,41.2,684.3,43.4z"/>
	</g>
	<g id="wc2">
		<path class="wireColor" d="M255.4,54.3h-2.2l-2-14.5h1.6l1.7,12.3l1.6-12.3h1.6l1.6,12.3l1.6-12.3h1.4l-2,14.5h-2.1l-1.4-9.8L255.4,54.3
			z"/>
		<path class="wireColor" d="M270,43.4v1.3h-1.5v-1.4c0-1.3-0.5-2.1-1.7-2.1c-1.2,0-1.7,0.8-1.7,2.1v7.6c0,1.3,0.5,2.1,1.7,2.1
			c1.2,0,1.7-0.8,1.7-2.1V49h1.5v1.8c0,2.2-1,3.6-3.3,3.6c-2.2,0-3.2-1.4-3.2-3.6v-7.5c0-2.2,1-3.6,3.2-3.6
			C269,39.7,270,41.2,270,43.4z"/>
	</g>
	<g id="wc1">
		<path class="wireColor" d="M1090.3,54.3h-2.2l-2-14.5h1.6l1.7,12.3l1.6-12.3h1.6l1.6,12.3l1.6-12.3h1.4l-2,14.5h-2.1l-1.4-9.8
			L1090.3,54.3z"/>
		<path class="wireColor" d="M1104.9,43.4v1.3h-1.5v-1.4c0-1.3-0.5-2.1-1.7-2.1c-1.2,0-1.7,0.8-1.7,2.1v7.6c0,1.3,0.5,2.1,1.7,2.1
			c1.2,0,1.7-0.8,1.7-2.1V49h1.5v1.8c0,2.2-1,3.6-3.3,3.6c-2.2,0-3.2-1.4-3.2-3.6v-7.5c0-2.2,1-3.6,3.2-3.6
			C1103.8,39.7,1104.9,41.2,1104.9,43.4z"/>
	</g>
</g>
<g id="hotSpot">
	<rect x="1022" y="38.6" class="stairsColor" width="45.5" height="35.8"/>
	<rect x="978.5" y="1.9" class="stairsColor" width="43.2" height="70.9"/>
	<rect x="143.7" y="1.9" class="stairsColor" width="43.2" height="70.9"/>
	<polygon class="wcColor" points="186.9,1.9 186.9,38.2 244.5,38.2 244.5,75.2 278.4,75.2 278.4,38.2 278.4,1.9 	"/>
	<polygon class="wcColor" points="1060.5,1.9 1060.5,25.8 1067.1,25.7 1067.1,38.6 1067.5,38.6 1067.5,74.4 1113.2,74.3 1113.2,38.2
		1113.2,1.9 	"/>
	<rect x="602.6" y="38.6" class="stairsColor" width="45.5" height="35.8"/>
	<polygon class="wcColor" points="641.1,1.9 641.1,25.8 647.7,25.7 647.7,38.6 648,38.6 648,74.4 693.8,74.3 693.8,38.2 693.8,1.9 	"/>
	<rect x="558.5" y="2.8" class="stairsColor" width="43.2" height="69.7"/>
	<rect x="186.9" y="38.5" class="stairsColor" width="25.2" height="35.2"/>
</g>
<g id="wire">
	<path class="wireColor" d="M0,0v182.7h1258.1V0H0z M1254.3,73.5H1216V3.8h38.3V73.5z M70.5,114.1v64.8H37.1v-64.8H70.5z M71.3,114.1h68
		v64.8h-68V114.1z M140,114.1h102v64.8H140V114.1z M242.7,114.1h102v64.8h-102V114.1z M345.4,114.1h34.7v64.8h-34.7V114.1z
		 M380.9,114.1H416v64.8h-35.1V114.1z M417.5,114.1h36v64.8h-36V114.1z M454.3,114.1h34.5v64.8h-34.5V114.1z M489.5,114.1H522v64.8
		h-32.5V114.1z M694.5,133.8H522.8v-19.7h171.8V133.8z M522.8,134.5h34v44.4h-34V134.5z M557.5,134.5h34v44.4h-34V134.5z
		 M592.3,134.5h33.4v44.4h-33.4V134.5z M626.4,134.5h33.7v44.4h-33.7V134.5z M660.8,134.5h33.7v44.4h-33.7V134.5z M695.3,114.1h34.3
		v64.8h-34.3V114.1z M730.3,114.1h34.5v64.8h-34.5V114.1z M765.5,114.1H798v64.8h-32.5V114.1z M798.8,114.1h34.7v64.8h-34.7V114.1z
		 M835,114.1h36.3v64.8H835V114.1z M872,114.1h33.3v64.8H872V114.1z M906,114.1h68.3v64.8H906V114.1z M975,114.1h68.3v64.8H975
		V114.1z M1044,114.1h67.8v64.8H1044V114.1z M1112.5,114.1h68v64.8h-68V114.1z M28.2,112.6V75.9h116.3v-2.7h1.6h7.9h8.9h7.9h6.1h7.9
		h1.3v1.3h26.7v-9.8h8v-0.4c0-4.2-3-7.8-7-8.6c4-0.8,7-4.3,7-8.6v-0.4h-8V39h20c0.2,5,4.4,9,9.4,9h0.4v-9h1.1v36.2h0v0.8H266
		c0.4,4.9,4.5,8.7,9.4,8.7h0.4v-8.7h283.5v-3.1h2.5h7.9h8h7.9h5.8h7.9h1.6v3.1h7.9c0.3,5.6,4.9,10,10.6,10h0.4v-10h12.4
		c0.3,5.6,4.9,10,10.6,10h0.4v-10h6.3v8.8h0.4c5,0,9.1-3.9,9.4-8.8h22.1c0.4,4.9,4.5,8.7,9.4,8.7h0.4v-8.7h288.1v-2.8h1.6h7.9h8.9
		h7.9h6.1h7.9h1.3V75h7.3c0.3,5.5,4.9,10,10.6,10h0.4V75h12.4c0.3,5.5,4.9,10,10.6,10h0.4V75h6.3v8.7h0.4c5,0,9-3.8,9.4-8.7h22.1
		c0.4,4.8,4.5,8.6,9.4,8.6h0.4V75h143.7v37.6H28.2z M3.8,112.6V75.9h23.7v36.7H3.8z M227.1,25.4V3.8h33.3v21.6h-16.5v12.1h-56.1V3.8
		h38.6v22.4h7v-0.8H227.1z M647.3,37.9h-44.8v1.5h22v35h1.5v-35h21.3v35h1.5V37.9H648V25.4h-6.6V3.8h34.3v21.6h-16.5v49h0.8V26.1
		h16.5V3.8h16.7v70.7h-90.7V3.8h38.2v22.4h6.6V37.9z M835,74.3V3.8h70.3v70.7H765.5V3.8h68v70.5H835z M1181.2,73.5V3.8h34.1v69.8
		H1181.2z M1180.5,73.5h-33.3V3.8h33.3V73.5z M1146.5,73.5h-32.9V3.8h32.9V73.5z M1112.8,73.5h-33.4V26.1h16.5V3.8h16.9V73.5z
		 M1109.9,75v7.9c-4.3-0.2-7.9-3.6-8.3-7.9H1109.9z M1069.8,75h8.3c-0.4,4.3-3.9,7.7-8.3,7.9V75z M1095.2,25.4h-16.5v48.2h-10.4
		V37.9h-0.7V25.4h-6.6V3.8h34.3V25.4z M1061.9,75v9.2c-5-0.2-9.1-4.2-9.4-9.2H1061.9z M1045.5,73.5V39.4h21.3v34.1H1045.5z
		 M1038.5,75v9.2c-5-0.2-9.1-4.2-9.4-9.2H1038.5z M1022.5,73.5V39.4h21.4v34.1H1022.5z M1066.7,26.1v11.8h-44.2V3.8h37.6v22.4
		H1066.7z M1021,72.4h-1.3v-7.2h-0.4c-4,0-7.3,3.2-7.5,7.2h-6.2c-0.2-4-3.5-7.2-7.5-7.2h-0.4v7.2h-8.9c-0.2-4-3.5-7.2-7.5-7.2h-0.4
		v7.2h-1.6V58.2h20.1v0.1h1.5v-3.5h20.1V72.4z M1019,72.4h-6.4c0.2-3.5,3-6.2,6.4-6.4V72.4z M1004.9,72.4h-6.4v-6.4
		C1002,66.1,1004.7,68.9,1004.9,72.4z M988.1,72.4h-6.4v-6.4C985.1,66.1,987.9,68.9,988.1,72.4z M979.3,19.3h20.1v2.8h-20.1V19.3z
		 M979.3,22.9h20.1v2.6h-20.1V22.9z M979.3,26.2h20.1v3h-20.1V26.2z M979.3,29.9h20.1v2.8h-20.1V29.9z M979.3,33.5h20.1v2.6h-20.1
		V33.5z M979.3,36.8h20.1V40h-20.1V36.8z M979.3,40.7h20.1v2.8h-20.1V40.7z M979.3,44.3h20.1v2.6h-20.1V44.3z M979.3,47.6h20.1v3
		h-20.1V47.6z M979.3,51.4h20.1v2.7h-20.1V51.4z M979.3,54.8h20.1v2.7h-20.1V54.8z M1021,54.1h-20.1v-2.7h20.1V54.1z M1021,50.6
		h-20.1v-3h20.1V50.6z M1021,46.9h-20.1v-2.6h20.1V46.9z M1021,43.6h-20.1v-2.8h20.1V43.6z M1021,40h-20.1v-3.1h20.1V40z M1021,36.1
		h-20.1v-2.6h20.1V36.1z M1021,32.8h-20.1v-2.8h20.1V32.8z M1021,29.2h-20.1v-3h20.1V29.2z M1021,25.5h-20.1v-2.6h20.1V25.5z
		 M1021,22.1h-20.1v-2.8h20.1V22.1z M1021,18.5h-20.1v-0.2h-1.5v0.2h-20.1V3.8h41.7V18.5z M906,3.8h71.8v70.7H906V3.8z M764.8,74.4
		h-70.8v-0.1h0.2V3.8h70.6V74.4z M690.5,75.9v7.9c-4.4-0.2-7.9-3.6-8.3-7.9H690.5z M650.3,75.9h8.3c-0.3,4.4-3.9,7.8-8.3,8V75.9z
		 M642.5,75.9v9.3c-5.1-0.2-9.2-4.2-9.5-9.3H642.5z M619.1,75.9v9.3c-5.1-0.2-9.2-4.2-9.5-9.3H619.1z M601,72.1h-1.6V65h-0.4
		c-4,0-7.3,3.2-7.5,7.2h-5.9c-0.2-4-3.5-7.2-7.5-7.2h-0.4v7.2h-8.1c-0.2-4-3.5-7.2-7.5-7.2h-0.4v7.2h-2.5V57.8h20.1v0.1h1.5v-3.5
		H601V72.1z M598.7,72.1h-6.4c0.2-3.5,3-6.2,6.4-6.4V72.1z M584.9,72.1h-6.4v-6.4C582,65.9,584.7,68.7,584.9,72.1z M569,72.1h-6.4
		v-6.4C566,65.9,568.8,68.7,569,72.1z M559.3,18.9h20.1v2.8h-20.1V18.9z M559.3,22.5h20.1v2.6h-20.1V22.5z M559.3,25.8h20.1v3h-20.1
		V25.8z M559.3,29.5h20.1v2.8h-20.1V29.5z M559.3,33.1h20.1v2.6h-20.1V33.1z M559.3,36.4h20.1v3.1h-20.1V36.4z M559.3,40.3h20.1v2.8
		h-20.1V40.3z M559.3,43.9h20.1v2.6h-20.1V43.9z M559.3,47.2h20.1v3h-20.1V47.2z M559.3,51h20.1v2.7h-20.1V51z M559.3,54.4h20.1v2.7
		h-20.1V54.4z M601,53.7h-20.1V51H601V53.7z M601,50.2h-20.1v-3H601V50.2z M601,46.5h-20.1v-2.6H601V46.5z M601,43.2h-20.1v-2.8H601
		V43.2z M601,39.6h-20.1v-3.1H601V39.6z M601,35.7h-20.1v-2.6H601V35.7z M601,32.4h-20.1v-2.8H601V32.4z M601,28.8h-20.1v-3H601
		V28.8z M601,25.1h-20.1v-2.6H601V25.1z M601,21.7h-20.1v-2.8H601V21.7z M601,18.1h-20.1v-0.2h-1.5v0.2h-20.1V3.8H601V18.1z
		 M488.8,74.4h-69.4V3.8h69.4V74.4z M489.5,3.8h68.3v70.7h-68.3V3.8z M417.8,74.4h-36.9V3.8h36.9V74.4z M380.2,74.4h-34.7V3.8h34.7
		V74.4z M344.7,74.4h-66V3.8h66V74.4z M278,74.4h-33.4V26.1h16.5V3.8H278V74.4z M275.1,75.9v7.9c-4.4-0.2-7.9-3.6-8.3-7.9H275.1z
		 M242,39v8.3c-4.5-0.2-8.1-3.8-8.3-8.3H242z M212.9,56.3c3.9,0.4,7.1,3.6,7.2,7.6h-7.2V56.3z M212.9,47.5h7.2
		c-0.2,4-3.3,7.2-7.2,7.6V47.5z M186.2,72.4h-1.3v-7.2h-0.4c-4,0-7.3,3.2-7.5,7.2h-6.2c-0.2-4-3.5-7.2-7.5-7.2h-0.4v7.2H154
		c-0.2-4-3.5-7.2-7.5-7.2h-0.4v7.2h-1.6V58.1h20.1v0.1h1.5v-3.5h20.1V72.4z M184.2,72.4h-6.4c0.2-3.5,3-6.2,6.4-6.4V72.4z
		 M170.1,72.4h-6.4V66C167.1,66.2,169.9,69,170.1,72.4z M153.3,72.4h-6.4V66C150.3,66.2,153.1,69,153.3,72.4z M144.5,19.2h20.1V22
		h-20.1V19.2z M186.2,32.7h-20.1v-2.8h20.1V32.7z M186.2,29.1h-20.1v-3h20.1V29.1z M186.2,25.4h-20.1v-2.6h20.1V25.4z M166.1,33.4
		h20.1V36h-20.1V33.4z M186.2,22h-20.1v-2.8h20.1V22z M144.5,22.8h20.1v2.6h-20.1V22.8z M144.5,26.1h20.1v3h-20.1V26.1z M144.5,29.8
		h20.1v2.8h-20.1V29.8z M144.5,33.4h20.1V36h-20.1V33.4z M144.5,36.8h20.1v3.1h-20.1V36.8z M144.5,40.6h20.1v2.8h-20.1V40.6z
		 M144.5,44.2h20.1v2.6h-20.1V44.2z M144.5,47.6h20.1v3h-20.1V47.6z M144.5,51.3h20.1V54h-20.1V51.3z M144.5,54.7h20.1v2.7h-20.1
		V54.7z M186.2,54h-20.1v-2.7h20.1V54z M186.2,50.5h-20.1v-3h20.1V50.5z M186.2,46.8h-20.1v-2.6h20.1V46.8z M186.2,43.5h-20.1v-2.8
		h20.1V43.5z M186.2,39.9h-20.1v-3.1h20.1V39.9z M187.7,39h23.7v34h-23.7V39z M186.2,18.5h-20.1v-0.2h-1.5v0.2h-20.1V3.8h41.7V18.5z
		 M73.2,74.4V3.8H143v70.7H73.2z M72.4,3.8v70.7H3.8V3.8H72.4z M3.8,114.1h32.6v64.8H3.8V114.1z M1181.2,178.9v-64.8h73.1v64.8
		H1181.2z"/>
</g>
<g id="guideSpot">
	<circle id="E-1-D13" class="wireColor" cx="984.9" cy="98" r="5.1"/>
	<circle id="E-1-D12" class="wireColor" cx="542.9" cy="85.6" r="5.1"/>
	<circle id="E-1-D11" class="wireColor" cx="189.6" cy="98.6" r="5.1"/>
</g>
</svg>
