<?xml version="1.0" encoding="utf-8"?>
<!-- Generator: Adobe Illustrator 20.0.0, SVG Export Plug-In . SVG Version: 6.00 Build 0)  -->
<svg version="1.1" xmlns="http://www.w3.org/2000/svg" xmlns:xlink="http://www.w3.org/1999/xlink" x="0px" y="0px"
	 viewBox="0 0 1257.6 182.7" style="enable-background:new 0 0 1257.6 182.7;" xml:space="preserve">
<style type="text/css">.wireColor{fill: #777777;}.nofloorColor{fill: #F2F2F2;}.arrowColor{fill: #EA5906;}.eventColor{opacity: 0.3; fill: #F59E16; transition: 1s fill;}.wcColor{opacity: 0.3; fill: #3693B2;}.stairsColor{opacity: 0.3; fill: #73cc15;}.transparentObject{fill: 0;}.riverColor{fill: #B9DDEF;}.mapElements{fill: #E2E2E2;}.tramColor{fill: #73CC15;}.mapArrows{fill: #BFBFBF;}.buildingFill{fill: #E5E5E5;}.eventColor.active{opacity: 0.3; fill: red; -webkit-animation: alertOpacity 2s infinite alternate; animation: alertOpacity 2s infinite alternate;}@-webkit-keyframes alertOpacity{0%{opacity: 0.3;}50%{opacity: 0.5;}100%{opacity: 0.3;}}@keyframes alertOpacity{0%{opacity: 0.3;}50%{opacity: 0.5;}100%{opacity: 0.3;}}#guideSpot .eventColor.active{fill: red; opacity: 1; r: 10; transform-origin: 150px 150px; -webkit-transform-origin: 50% 50%; -webkit-animation: alertScale 2s infinite alternate; animation: alertScale 2s infinite alternate;}@-webkit-keyframes alertScale{0%{-webkit-transform: scale(1, 1);}50%{-webkit-transform: scale(2, 2);}100%{-webkit-transform: scale(1, 1);}}@keyframes alertScale{0%{transform: scale(1, 1);}50%{transform: scale(2, 2);}100%{transform: scale(1, 1);}}</style>
<g id="description">
	<g id="wc">
		<path class="wireColor" d="M669.2,54.3H667l-2-14.5h1.6l1.7,12.3l1.6-12.3h1.6l1.6,12.3l1.6-12.3h1.4l-2,14.5H672l-1.4-9.8L669.2,54.3z"
			/>
		<path class="wireColor" d="M683.8,43.4v1.3h-1.5v-1.4c0-1.3-0.5-2.1-1.7-2.1c-1.2,0-1.7,0.8-1.7,2.1v7.6c0,1.3,0.5,2.1,1.7,2.1
			c1.2,0,1.7-0.8,1.7-2.1V49h1.5v1.8c0,2.2-1,3.6-3.3,3.6c-2.2,0-3.2-1.4-3.2-3.6v-7.5c0-2.2,1-3.6,3.2-3.6
			C682.8,39.7,683.8,41.2,683.8,43.4z"/>
	</g>
	<g id="wc_1_">
		<path class="wireColor" d="M254.9,54.3h-2.2l-2-14.5h1.6l1.7,12.3l1.6-12.3h1.6l1.6,12.3l1.6-12.3h1.4l-2,14.5h-2.1l-1.4-9.8L254.9,54.3
			z"/>
		<path class="wireColor" d="M269.5,43.4v1.3H268v-1.4c0-1.3-0.5-2.1-1.7-2.1c-1.2,0-1.7,0.8-1.7,2.1v7.6c0,1.3,0.5,2.1,1.7,2.1
			c1.2,0,1.7-0.8,1.7-2.1V49h1.5v1.8c0,2.2-1,3.6-3.3,3.6c-2.2,0-3.2-1.4-3.2-3.6v-7.5c0-2.2,1-3.6,3.2-3.6
			C268.5,39.7,269.5,41.2,269.5,43.4z"/>
	</g>
	<g id="wc_2_">
		<path class="wireColor" d="M1089.8,54.3h-2.2l-2-14.5h1.6l1.7,12.3l1.6-12.3h1.6l1.6,12.3l1.6-12.3h1.4l-2,14.5h-2.1l-1.4-9.8
			L1089.8,54.3z"/>
		<path class="wireColor" d="M1104.4,43.4v1.3h-1.5v-1.4c0-1.3-0.5-2.1-1.7-2.1c-1.2,0-1.7,0.8-1.7,2.1v7.6c0,1.3,0.5,2.1,1.7,2.1
			c1.2,0,1.7-0.8,1.7-2.1V49h1.5v1.8c0,2.2-1,3.6-3.3,3.6c-2.2,0-3.2-1.4-3.2-3.6v-7.5c0-2.2,1-3.6,3.2-3.6
			C1103.3,39.7,1104.4,41.2,1104.4,43.4z"/>
	</g>
</g>
<g id="hotSpot">
	<rect id="windy" x="1021.5" y="38.6" class="stairsColor" width="45.5" height="35.8"/>
	<rect id="schody" x="978" y="1.9" class="stairsColor" width="43.2" height="70.9"/>
	<rect id="schody_1_" x="143.2" y="1.9" class="stairsColor" width="43.2" height="70.9"/>
	<polygon id="wc_3_" class="wcColor" points="186.4,1.9 186.4,38.2 244,38.2 244,75.2 277.9,75.2 277.9,38.2 277.9,1.9 	"/>
	<polygon id="wc_4_" class="wcColor" points="1060,1.9 1060,25.8 1066.6,25.7 1066.6,38.6 1067,38.6 1067,74.4 1112.7,74.3 1112.7,38.2
		1112.7,1.9 	"/>
	<rect id="windy_1_" x="602.1" y="38.6" class="stairsColor" width="45.5" height="35.8"/>
	<polygon id="wc_5_" class="wcColor" points="640.6,1.9 640.6,25.8 647.2,25.7 647.2,38.6 647.5,38.6 647.5,74.4 693.3,74.3 693.3,38.2
		693.3,1.9 	"/>
	<rect id="schody_2_" x="558" y="2.8" class="stairsColor" width="43.2" height="69.7"/>
	<rect id="winda" x="186.4" y="38.5" class="stairsColor" width="25.2" height="35.2"/>
</g>
<g id="wire">
	<path class="wireColor" d="M-0.5,0v182.7h1258.1V0H-0.5z M1253.8,73.5h-73.1V3.8h73.1V73.5z M106,114.1v64.8H70.8v-64.8H106z
		 M106.8,114.1h32v64.8h-32V114.1z M139.5,114.1h34.4v64.8h-34.4V114.1z M174.6,114.1H209v64.8h-34.4V114.1z M209.8,114.1h34.7v64.8
		h-34.7V114.1z M245.2,114.1H312v64.8h-66.8V114.1z M312.8,114.1h34.4v64.8h-34.4V114.1z M347.9,114.1h67.6v64.8h-67.6V114.1z
		 M417,114.1h104.5v64.8H417V114.1z M522.3,114.1h102.9v64.8H522.3V114.1z M625.9,114.1H833v64.8H625.9V114.1z M834.5,114.1h211.3
		v64.8H834.5V114.1z M27.7,112.6V75.9H144v-2.7h1.6h7.9h8.9h7.9h6.1h7.9h1.3v1.3h26.7v-9.8h8v-0.4c0-4.2-3-7.8-7-8.6
		c4-0.8,7-4.3,7-8.6v-0.4h-8V39h20c0.2,5,4.4,9,9.4,9h0.4v-9h1.1v36.2h0v0.8h22.2c0.4,4.9,4.5,8.7,9.4,8.7h0.4v-8.7h283.5v-3.1h2.5
		h7.9h8h7.9h5.8h7.9h1.6v3.1h7.9c0.3,5.6,4.9,10,10.6,10h0.4v-10h12.4c0.3,5.6,4.9,10,10.6,10h0.4v-10h6.3v8.8h0.4
		c5,0,9.1-3.9,9.4-8.8h22.1c0.4,4.9,4.5,8.7,9.4,8.7h0.4v-8.7h288.1v-2.8h1.6h7.9h8.9h7.9h6.1h7.9h1.3V75h7.3
		c0.3,5.5,4.9,10,10.6,10h0.4V75h12.4c0.3,5.5,4.9,10,10.6,10h0.4V75h6.3v8.7h0.4c5,0,9-3.8,9.4-8.7h22v0.2c0,5.2,4.2,9.4,9.4,9.4
		h0.4V75h143.7v37.6H27.7z M226.6,25.4V3.8h33.3v21.6h-16.5v12.1h-56.1V3.8h38.6v22.4h7v-0.8H226.6z M646.8,37.9H602v1.5h22v35h1.5
		v-35h21.3v35h1.5V37.9h-0.7V25.4H641V3.8h34.3v21.6h-16.5v49h0.8V26.1H676V3.8h16.7v70.7H602V3.8h38.2v22.4h6.6V37.9z M834.5,74.3
		V3.8h74v70.7H765V3.8h68v70.5H834.5z M1113.1,73.5V3.8h66.9v69.8H1113.1z M1112.3,73.5h-33.4V26.1h16.5V3.8h16.9V73.5z
		 M1109.4,75.6v8.3c-4.5-0.2-8.1-3.8-8.3-8.3H1109.4z M1069.3,75h8.3c-0.4,4.3-3.9,7.7-8.3,7.9V75z M1094.7,25.4h-16.5v48.2h-10.4
		V37.9h-0.7V25.4h-6.6V3.8h34.3V25.4z M1061.4,75v9.2c-5-0.2-9.1-4.2-9.4-9.2H1061.4z M1045,73.5V39.4h21.3v34.1H1045z M1038,75v9.2
		c-5-0.2-9.1-4.2-9.4-9.2H1038z M1022,73.5V39.4h21.4v34.1H1022z M1066.2,26.1v11.8H1022V3.8h37.6v22.4H1066.2z M1020.5,72.4h-1.3
		v-7.2h-0.4c-4,0-7.3,3.2-7.5,7.2h-6.2c-0.2-4-3.5-7.2-7.5-7.2h-0.4v7.2h-8.9c-0.2-4-3.5-7.2-7.5-7.2h-0.4v7.2h-1.6V58.2h20.1v0.1
		h1.5v-3.5h20.1V72.4z M1018.5,72.4h-6.4c0.2-3.5,3-6.2,6.4-6.4V72.4z M1004.4,72.4H998v-6.4C1001.5,66.1,1004.2,68.9,1004.4,72.4z
		 M987.6,72.4h-6.4v-6.4C984.6,66.1,987.4,68.9,987.6,72.4z M978.8,19.3h20.1v2.8h-20.1V19.3z M978.8,22.9h20.1v2.6h-20.1V22.9z
		 M978.8,26.2h20.1v3h-20.1V26.2z M978.8,29.9h20.1v2.8h-20.1V29.9z M978.8,33.5h20.1v2.6h-20.1V33.5z M978.8,36.8h20.1V40h-20.1
		V36.8z M978.8,40.7h20.1v2.8h-20.1V40.7z M978.8,44.3h20.1v2.6h-20.1V44.3z M978.8,47.6h20.1v3h-20.1V47.6z M978.8,51.4h20.1v2.7
		h-20.1V51.4z M978.8,54.8h20.1v2.7h-20.1V54.8z M1020.5,54.1h-20.1v-2.7h20.1V54.1z M1020.5,50.6h-20.1v-3h20.1V50.6z M1020.5,46.9
		h-20.1v-2.6h20.1V46.9z M1020.5,43.6h-20.1v-2.8h20.1V43.6z M1020.5,40h-20.1v-3.1h20.1V40z M1020.5,36.1h-20.1v-2.6h20.1V36.1z
		 M1020.5,32.8h-20.1v-2.8h20.1V32.8z M1020.5,29.2h-20.1v-3h20.1V29.2z M1020.5,25.5h-20.1v-2.6h20.1V25.5z M1020.5,22.1h-20.1
		v-2.8h20.1V22.1z M1020.5,18.5h-20.1v-0.2h-1.5v0.2h-20.1V3.8h41.7V18.5z M909.3,3.8h68v70.7h-68V3.8z M764.3,74.4h-70.8v-0.1h0.2
		V3.8h70.6V74.4z M690,75.9v7.9c-4.4-0.2-7.9-3.6-8.3-7.9H690z M649.8,75.9h8.3c-0.3,4.4-3.9,7.8-8.3,8V75.9z M642,75.9v9.3
		c-5.1-0.2-9.2-4.2-9.5-9.3H642z M618.6,75.9v9.3c-5.1-0.2-9.2-4.2-9.5-9.3H618.6z M600.5,72.1H599V65h-0.4c-4,0-7.3,3.2-7.5,7.2
		h-5.9c-0.2-4-3.5-7.2-7.5-7.2h-0.4v7.2h-8.1c-0.2-4-3.5-7.2-7.5-7.2h-0.4v7.2h-2.5V57.8h20.1v0.1h1.5v-3.5h20.1V72.1z M598.2,72.1
		h-6.4c0.2-3.5,3-6.2,6.4-6.4V72.1z M584.4,72.1H578v-6.4C581.5,65.9,584.2,68.7,584.4,72.1z M568.5,72.1H562v-6.4
		C565.5,65.9,568.3,68.7,568.5,72.1z M558.8,18.9h20.1v2.8h-20.1V18.9z M558.8,22.5h20.1v2.6h-20.1V22.5z M558.8,25.8h20.1v3h-20.1
		V25.8z M558.8,29.5h20.1v2.8h-20.1V29.5z M558.8,33.1h20.1v2.6h-20.1V33.1z M558.8,36.4h20.1v3.1h-20.1V36.4z M558.8,40.3h20.1v2.8
		h-20.1V40.3z M558.8,43.9h20.1v2.6h-20.1V43.9z M558.8,47.2h20.1v3h-20.1V47.2z M558.8,51h20.1v2.7h-20.1V51z M558.8,54.4h20.1v2.7
		h-20.1V54.4z M600.5,53.7h-20.1V51h20.1V53.7z M600.5,50.2h-20.1v-3h20.1V50.2z M600.5,46.5h-20.1v-2.6h20.1V46.5z M600.5,43.2
		h-20.1v-2.8h20.1V43.2z M600.5,39.6h-20.1v-3.1h20.1V39.6z M600.5,35.7h-20.1v-2.6h20.1V35.7z M600.5,32.4h-20.1v-2.8h20.1V32.4z
		 M600.5,28.8h-20.1v-3h20.1V28.8z M600.5,25.1h-20.1v-2.6h20.1V25.1z M600.5,21.7h-20.1v-2.8h20.1V21.7z M600.5,18.1h-20.1v-0.2
		h-1.5v0.2h-20.1V3.8h41.7V18.1z M417.4,74.4h-69.4V3.8h69.4V74.4z M418.9,3.8h138.4v70.7H418.9V3.8z M347.2,74.4h-69V3.8h69V74.4z
		 M277.5,74.4h-33.4V26.1h16.5V3.8h16.9V74.4z M274.6,75.9v7.9c-4.4-0.2-7.9-3.6-8.3-7.9H274.6z M241.5,39v8.3
		c-4.5-0.2-8.1-3.8-8.3-8.3H241.5z M212.4,56.3c3.9,0.4,7.1,3.6,7.2,7.6h-7.2V56.3z M212.4,47.5h7.2c-0.2,4-3.3,7.2-7.2,7.6V47.5z
		 M185.7,72.4h-1.3v-7.2H184c-4,0-7.3,3.2-7.5,7.2h-6.2c-0.2-4-3.5-7.2-7.5-7.2h-0.4v7.2h-8.9c-0.2-4-3.5-7.2-7.5-7.2h-0.4v7.2H144
		V58.1h20.1v0.1h1.5v-3.5h20.1V72.4z M183.7,72.4h-6.4c0.2-3.5,3-6.2,6.4-6.4V72.4z M169.6,72.4h-6.4V66
		C166.6,66.2,169.4,69,169.6,72.4z M152.8,72.4h-6.4V66C149.8,66.2,152.6,69,152.8,72.4z M144,19.2h20.1V22H144V19.2z M185.7,32.7
		h-20.1v-2.8h20.1V32.7z M185.7,29.1h-20.1v-3h20.1V29.1z M185.7,25.4h-20.1v-2.6h20.1V25.4z M165.6,33.4h20.1V36h-20.1V33.4z
		 M185.7,22h-20.1v-2.8h20.1V22z M144,22.8h20.1v2.6H144V22.8z M144,26.1h20.1v3H144V26.1z M144,29.8h20.1v2.8H144V29.8z M144,33.4
		h20.1V36H144V33.4z M144,36.8h20.1v3.1H144V36.8z M144,40.6h20.1v2.8H144V40.6z M144,44.2h20.1v2.6H144V44.2z M144,47.6h20.1v3H144
		V47.6z M144,51.3h20.1V54H144V51.3z M144,54.7h20.1v2.7H144V54.7z M185.7,54h-20.1v-2.7h20.1V54z M185.7,50.5h-20.1v-3h20.1V50.5z
		 M185.7,46.8h-20.1v-2.6h20.1V46.8z M185.7,43.5h-20.1v-2.8h20.1V43.5z M185.7,39.9h-20.1v-3.1h20.1V39.9z M187.2,39h23.7v34h-23.7
		V39z M185.7,18.5h-20.1v-0.2h-1.5v0.2H144V3.8h41.7V18.5z M71.9,74.4H22.3V3.8h49.7V74.4z M72.7,3.8h69.8v70.7H72.7V3.8z
		 M26.9,75.9v36.7H3.3V75.9H26.9z M21.5,3.8v70.7H3.3V3.8H21.5z M3.3,114.1H70v64.8H3.3V114.1z M1046.5,178.9v-64.8h207.3v64.8
		H1046.5z"/>
</g>
<g id="guideSpot">
	<circle id="E-2-D23" class="wireColor" cx="985.9" cy="99.4" r="5.1"/>
	<circle id="E-2-D22" class="wireColor" cx="568.8" cy="101.9" r="5.1"/>
	<circle id="E-2-D21" class="wireColor" cx="189.1" cy="98.6" r="5.1"/>
</g>
</svg>
