<?xml version="1.0" encoding="utf-8"?>
<!-- Generator: Adobe Illustrator 20.0.0, SVG Export Plug-In . SVG Version: 6.00 Build 0)  -->
<svg version="1.1" xmlns="http://www.w3.org/2000/svg" xmlns:xlink="http://www.w3.org/1999/xlink" x="0px" y="0px"
	 viewBox="0 0 1258.2 182.7" style="enable-background:new 0 0 1258.2 182.7;" xml:space="preserve">
<style type="text/css">.wireColor{fill: #777777;}.nofloorColor{fill: #F2F2F2;}.arrowColor{fill: #EA5906;}.eventColor{opacity: 0.3; fill: #F59E16; transition: 1s fill;}.wcColor{opacity: 0.3; fill: #3693B2;}.stairsColor{opacity: 0.3; fill: #73cc15;}.transparentObject{fill: 0;}.riverColor{fill: #B9DDEF;}.mapElements{fill: #E2E2E2;}.tramColor{fill: #73CC15;}.mapArrows{fill: #BFBFBF;}.buildingFill{fill: #E5E5E5;}.eventColor.active{opacity: 0.3; fill: red; -webkit-animation: alertOpacity 2s infinite alternate; animation: alertOpacity 2s infinite alternate;}@-webkit-keyframes alertOpacity{0%{opacity: 0.3;}50%{opacity: 0.5;}100%{opacity: 0.3;}}@keyframes alertOpacity{0%{opacity: 0.3;}50%{opacity: 0.5;}100%{opacity: 0.3;}}#guideSpot .eventColor.active{fill: red; opacity: 1; r: 10; transform-origin: 150px 150px; -webkit-transform-origin: 50% 50%; -webkit-animation: alertScale 2s infinite alternate; animation: alertScale 2s infinite alternate;}@-webkit-keyframes alertScale{0%{-webkit-transform: scale(1, 1);}50%{-webkit-transform: scale(2, 2);}100%{-webkit-transform: scale(1, 1);}}@keyframes alertScale{0%{transform: scale(1, 1);}50%{transform: scale(2, 2);}100%{transform: scale(1, 1);}}</style>
<g id="description">
	<g id="wc">
		<path class="wireColor" d="M669.9,54.2h-2.2l-2-14.5h1.6l1.7,12.3l1.6-12.3h1.6l1.6,12.3l1.6-12.3h1.4l-2,14.5h-2.1l-1.4-9.8L669.9,54.2
			z"/>
		<path class="wireColor" d="M684.5,43.2v1.3h-1.5v-1.4c0-1.3-0.5-2.1-1.7-2.1c-1.2,0-1.7,0.8-1.7,2.1v7.6c0,1.3,0.5,2.1,1.7,2.1
			c1.2,0,1.7-0.8,1.7-2.1v-1.9h1.5v1.8c0,2.2-1,3.6-3.3,3.6c-2.2,0-3.2-1.4-3.2-3.6v-7.5c0-2.2,1-3.6,3.2-3.6
			C683.4,39.5,684.5,41,684.5,43.2z"/>
	</g>
	<g id="wc_1_">
		<path class="wireColor" d="M255.6,54.2h-2.2l-2-14.5h1.6l1.7,12.3l1.6-12.3h1.6l1.6,12.3l1.6-12.3h1.4l-2,14.5h-2.1l-1.4-9.8L255.6,54.2
			z"/>
		<path class="wireColor" d="M270.2,43.2v1.3h-1.5v-1.4c0-1.3-0.5-2.1-1.7-2.1c-1.2,0-1.7,0.8-1.7,2.1v7.6c0,1.3,0.5,2.1,1.7,2.1
			c1.2,0,1.7-0.8,1.7-2.1v-1.9h1.5v1.8c0,2.2-1,3.6-3.3,3.6c-2.2,0-3.2-1.4-3.2-3.6v-7.5c0-2.2,1-3.6,3.2-3.6
			C269.1,39.5,270.2,41,270.2,43.2z"/>
	</g>
	<g id="wc_2_">
		<path class="wireColor" d="M1090.4,54.2h-2.2l-2-14.5h1.6l1.7,12.3l1.6-12.3h1.6l1.6,12.3l1.6-12.3h1.4l-2,14.5h-2.1l-1.4-9.8
			L1090.4,54.2z"/>
		<path class="wireColor" d="M1105,43.2v1.3h-1.5v-1.4c0-1.3-0.5-2.1-1.7-2.1c-1.2,0-1.7,0.8-1.7,2.1v7.6c0,1.3,0.5,2.1,1.7,2.1
			c1.2,0,1.7-0.8,1.7-2.1v-1.9h1.5v1.8c0,2.2-1,3.6-3.3,3.6c-2.2,0-3.2-1.4-3.2-3.6v-7.5c0-2.2,1-3.6,3.2-3.6
			C1104,39.5,1105,41,1105,43.2z"/>
	</g>
</g>
<g id="hotSpot">
	<rect id="winda1" x="1022.1" y="38.5" class="stairsColor" width="45.5" height="35.8"/>
	<rect id="schody1" x="978.7" y="1.7" class="stairsColor" width="43.2" height="70.9"/>
	<rect id="schody2" x="143.9" y="1.7" class="stairsColor" width="43.2" height="70.9"/>
	<polygon id="wc1" class="wcColor" points="187.1,1.7 187.1,38 244.6,38 244.6,75 278.5,75 278.5,38 278.5,1.7 	"/>
	<polygon id="wc2" class="wcColor" points="1060.7,1.7 1060.7,25.7 1067.3,25.6 1067.3,38.5 1067.6,38.5 1067.6,74.2 1113.3,74.1
		1113.3,38 1113.3,1.7 	"/>
	<rect id="windy2" x="602.7" y="38.5" class="stairsColor" width="45.5" height="35.8"/>
	<polygon id="wc3" class="wcColor" points="641.2,1.7 641.2,25.7 647.8,25.6 647.8,38.5 648.2,38.5 648.2,74.2 693.9,74.1 693.9,38
		693.9,1.7 	"/>
	<rect id="schody3" x="558.7" y="2.7" class="stairsColor" width="43.2" height="69.7"/>
	<rect id="winda3" x="187.1" y="38.4" class="stairsColor" width="25.2" height="35.2"/>
</g>
<g id="wire">
	<path class="wireColor" d="M0.1-0.2v182.7h1258.1V-0.2H0.1z M1254.5,73.3h-36.3V3.6h36.3V73.3z M3.9,112.4V75.8h23.7v36.7H3.9z
		 M28.3,75.8h113.6v36.7H28.3V75.8z M227.2,25.2V3.6h33.3v21.6H244v12.1h-56.1V3.6h38.6v22.4h7v-0.8H227.2z M1181.4,73.3V3.6h36
		v69.8H1181.4z M1180.6,73.3h-66.9V3.6h66.9V73.3z M1113,73.3h-33.4V25.9h16.5V3.6h16.9V73.3z M1110,75.4v8.3
		c-4.5-0.2-8.1-3.8-8.3-8.3H1110z M1069.9,74.8h8.3c-0.4,4.3-3.9,7.7-8.3,7.9V74.8z M1095.3,25.2h-16.5v48.2h-10.4V37.7h-0.7V25.2
		h-6.6V3.6h34.3V25.2z M1062.1,74.8v9.2c-5-0.2-9.1-4.2-9.4-9.2H1062.1z M1045.6,73.3V39.2h21.3v34.1H1045.6z M1038.7,74.8v9.2
		c-5-0.2-9.1-4.2-9.4-9.2H1038.7z M1022.7,73.3V39.2h21.4v34.1H1022.7z M1066.9,25.9v11.8h-44.2V3.6h37.6v22.4H1066.9z M1021.2,72.2
		h-1.3V65h-0.4c-4,0-7.3,3.2-7.5,7.2h-6.2c-0.2-4-3.5-7.2-7.5-7.2h-0.4v7.2H989c-0.2-4-3.5-7.2-7.5-7.2h-0.4v7.2h-1.6V58.1h20.1v0.1
		h1.5v-3.5h20.1V72.2z M1019.1,72.2h-6.4c0.2-3.5,3-6.2,6.4-6.4V72.2z M1005.1,72.2h-6.4v-6.4C1002.1,66,1004.9,68.7,1005.1,72.2z
		 M988.2,72.2h-6.4v-6.4C985.3,66,988,68.7,988.2,72.2z M979.4,19.1h20.1V22h-20.1V19.1z M979.4,22.7h20.1v2.6h-20.1V22.7z
		 M979.4,26h20.1v3h-20.1V26z M979.4,29.8h20.1v2.8h-20.1V29.8z M979.4,33.3h20.1v2.6h-20.1V33.3z M979.4,36.7h20.1v3.1h-20.1V36.7z
		 M979.4,40.6h20.1v2.8h-20.1V40.6z M979.4,44.1h20.1v2.6h-20.1V44.1z M979.4,47.5h20.1v3h-20.1V47.5z M979.4,51.2h20.1v2.7h-20.1
		V51.2z M979.4,54.6h20.1v2.7h-20.1V54.6z M1021.2,53.9H1001v-2.7h20.1V53.9z M1021.2,50.4H1001v-3h20.1V50.4z M1021.2,46.7H1001
		v-2.6h20.1V46.7z M1021.2,43.4H1001v-2.8h20.1V43.4z M1021.2,39.8H1001v-3.1h20.1V39.8z M1021.2,35.9H1001v-2.6h20.1V35.9z
		 M1021.2,32.6H1001v-2.8h20.1V32.6z M1021.2,29H1001v-3h20.1V29z M1021.2,25.3H1001v-2.6h20.1V25.3z M1021.2,22H1001v-2.8h20.1V22z
		 M1021.2,18.4H1001v-0.2h-1.5v0.2h-20.1V3.6h41.7V18.4z M909.1,74.3h-74V3.6h74V74.3z M909.9,3.6h68v70.7h-68V3.6z M833.6,74.3h-68
		V3.6h68V74.3z M764.9,74.3h-0.4v1.5h215v-2.8h1.6h7.9h8.9h7.9h6.1h7.9h1.3v1.9h7.3c0.3,5.5,4.9,10,10.6,10h0.4v-10h12.4
		c0.3,5.5,4.9,10,10.6,10h0.4v-10h6.3v8.7h0.4c5,0,9-3.8,9.4-8.7h22V75c0,5.2,4.2,9.4,9.4,9.4h0.4v-9.6h3.3v37.6H142.7V75.8h1.9V73
		h1.6h7.9h8.9h7.9h6.1h7.9h1.3v1.3H213v-9.8h8v-0.4c0-4.2-3-7.8-7-8.6c4-0.8,7-4.3,7-8.6v-0.4h-8v-7.8h20c0.2,5,4.4,9,9.4,9h0.4v-9
		h1.1V75h0v0.8h22.2c0.4,4.9,4.5,8.7,9.4,8.7h0.4v-8.7h283.5v-3.1h2.5h7.9h8h7.9h5.8h7.9h1.6v3.1h7.9c0.3,5.6,4.9,10,10.6,10h0.4
		v-10h12.4c0.3,5.6,4.9,10,10.6,10h0.4v-10h6.3v8.8h0.4c5,0,9.1-3.9,9.4-8.8h22.1c0.4,4.9,4.5,8.7,9.4,8.7h0.4v-8.7h3.6v-1.5h-0.7
		V3.6h70.6V74.3z M144.6,19h20.1v2.8h-20.1V19z M213,56.1c3.9,0.4,7.1,3.6,7.2,7.6H213V56.1z M213,47.3h7.2c-0.2,4-3.3,7.2-7.2,7.6
		V47.3z M187.8,38.8h23.7v34h-23.7V38.8z M186.3,53.8h-20.1v-2.7h20.1V53.8z M186.3,35.8h-20.1v-2.6h20.1V35.8z M186.3,32.5h-20.1
		v-2.8h20.1V32.5z M186.3,28.9h-20.1v-3h20.1V28.9z M186.3,25.2h-20.1v-2.6h20.1V25.2z M186.3,50.4h-20.1v-3h20.1V50.4z M186.3,46.6
		h-20.1v-2.6h20.1V46.6z M186.3,43.3h-20.1v-2.8h20.1V43.3z M186.3,39.7h-20.1v-3.1h20.1V39.7z M186.3,21.9h-20.1V19h20.1V21.9z
		 M144.6,22.6h20.1v2.6h-20.1V22.6z M144.6,25.9h20.1v3h-20.1V25.9z M144.6,29.7h20.1v2.8h-20.1V29.7z M144.6,33.3h20.1v2.6h-20.1
		V33.3z M144.6,36.6h20.1v3.1h-20.1V36.6z M144.6,40.5h20.1v2.8h-20.1V40.5z M144.6,44.1h20.1v2.6h-20.1V44.1z M144.6,47.4h20.1v3
		h-20.1V47.4z M144.6,51.1h20.1v2.7h-20.1V51.1z M144.6,54.6h20.1v2.7h-20.1V54.6z M144.6,58h20.1V58h1.5v-3.5h20.1v17.7h-1.3v-7.2
		h-0.4c-4,0-7.3,3.2-7.5,7.2H171c-0.2-4-3.5-7.2-7.5-7.2h-0.4v7.2h-8.9c-0.2-4-3.5-7.2-7.5-7.2h-0.4v7.2h-1.6V58z M184.3,72.3h-6.4
		c0.2-3.5,3-6.2,6.4-6.4V72.3z M170.3,72.3h-6.4v-6.4C167.3,66,170.1,68.8,170.3,72.3z M153.4,72.3H147v-6.4
		C150.4,66,153.2,68.8,153.4,72.3z M242.1,38.8V47c-4.5-0.2-8.1-3.8-8.3-8.3H242.1z M275.2,75.8v7.9c-4.4-0.2-7.9-3.6-8.3-7.9H275.2
		z M559.4,18.7h20.1v2.8h-20.1V18.7z M601.2,53.5H581v-2.7h20.1V53.5z M601.2,50H581v-3h20.1V50z M601.2,46.3H581v-2.6h20.1V46.3z
		 M601.2,43H581v-2.8h20.1V43z M601.2,39.4H581v-3.1h20.1V39.4z M601.2,35.5H581v-2.6h20.1V35.5z M601.2,32.2H581v-2.8h20.1V32.2z
		 M601.2,28.6H581v-3h20.1V28.6z M601.2,24.9H581v-2.6h20.1V24.9z M601.2,21.6H581v-2.8h20.1V21.6z M559.4,22.3h20.1v2.6h-20.1V22.3
		z M559.4,25.6h20.1v3h-20.1V25.6z M559.4,29.3h20.1v2.8h-20.1V29.3z M559.4,32.9h20.1v2.6h-20.1V32.9z M559.4,36.3h20.1v3.1h-20.1
		V36.3z M559.4,40.2h20.1V43h-20.1V40.2z M559.4,43.7h20.1v2.6h-20.1V43.7z M559.4,47.1h20.1v3h-20.1V47.1z M559.4,50.8h20.1v2.7
		h-20.1V50.8z M559.4,54.2h20.1v2.7h-20.1V54.2z M559.4,57.7h20.1v0.1h1.5v-3.5h20.1V72h-1.6v-7.2h-0.4c-4,0-7.3,3.2-7.5,7.2h-5.9
		c-0.2-4-3.5-7.2-7.5-7.2h-0.4V72h-8.1c-0.2-4-3.5-7.2-7.5-7.2h-0.4V72h-2.5V57.7z M598.8,72h-6.4c0.2-3.5,3-6.2,6.4-6.4V72z
		 M585.1,72h-6.4v-6.4C582.1,65.7,584.9,68.5,585.1,72z M569.1,72h-6.4v-6.4C566.1,65.7,568.9,68.5,569.1,72z M619.2,75.8v9.3
		c-5.1-0.2-9.2-4.2-9.5-9.3H619.2z M647.4,39.2v35.1h-21.3V39.2H647.4z M642.6,75.8v9.3c-5.1-0.2-9.2-4.2-9.5-9.3H642.6z
		 M650.5,75.8h8.3c-0.3,4.4-3.9,7.8-8.3,8V75.8z M690.6,75.8v7.9c-4.4-0.2-7.9-3.6-8.3-7.9H690.6z M693.3,74.3h-33.2V25.9h16.5V3.6
		h16.7V74.3z M675.9,25.2h-16.5v49.1h-10.4V37.7h-0.7V25.2h-6.6V3.6h34.3V25.2z M647.4,25.9v11.8h-44.8v1.5h22v35.1h-22V3.6h38.2
		v22.4H647.4z M601.2,18H581v-0.2h-1.5V18h-20.1V3.6h41.7V18z M557.9,74.3H419.5V3.6h138.4V74.3z M418,74.3h-69.4V3.6H418V74.3z
		 M347.8,74.3h-69V3.6h69V74.3z M278.1,74.3h-33.4V25.9h16.5V3.6h16.9V74.3z M186.3,18.3h-20.1V18h-1.5v0.2h-20.1V3.6h41.7V18.3z
		 M143.1,74.3h-36.5V3.6h36.5V74.3z M105.9,74.3H73.3V3.6h32.6V74.3z M55.7,113.9h15v64.8H39v-46h16.6V113.9z M71.4,113.9h68v64.8
		h-68V113.9z M140.2,113.9h140v64.8h-140V113.9z M280.9,113.9h101.3v64.8H280.9V113.9z M382.9,113.9h33.2v64.8h-33.2V113.9z
		 M417.7,113.9h104.5v64.8H417.7V113.9z M522.9,113.9h102.9v64.8H522.9V113.9z M626.5,113.9H731v64.8H626.5V113.9z M731.8,113.9
		h101.9v64.8H731.8V113.9z M835.1,113.9H977v64.8H835.1V113.9z M977.8,113.9h136.3v64.8H977.8V113.9z M1114.9,113.9h34v64.8h-34
		V113.9z M1149.6,113.9h33v64.8h-33V113.9z M1114.9,112.4V74.8h139.6v37.6H1114.9z M72.6,3.6v70.7H3.9V3.6H72.6z M3.9,113.9h51v18
		H38.3v46.8H3.9V113.9z M1183.4,178.7v-64.8h71.1v64.8H1183.4z"/>
</g>
<g id="guideSpot">
	<circle id="E-3-D33" class="wireColor" cx="986.5" cy="99.2" r="5.1"/>
	<circle id="E-3-D32" class="wireColor" cx="569.5" cy="98.8" r="5.1"/>
	<circle id="E-3-D31" class="wireColor" cx="189.8" cy="98.4" r="5.1"/>
</g>
</svg>
