<?xml version="1.0" encoding="utf-8"?>
<!-- Generator: Adobe Illustrator 20.0.0, SVG Export Plug-In . SVG Version: 6.00 Build 0)  -->
<svg version="1.1" xmlns="http://www.w3.org/2000/svg" xmlns:xlink="http://www.w3.org/1999/xlink" x="0px" y="0px"
	 viewBox="0 0 1258.1 182.7" style="enable-background:new 0 0 1258.1 182.7;" xml:space="preserve">
<style type="text/css">.wireColor{fill: #777777;}.nofloorColor{fill: #F2F2F2;}.arrowColor{fill: #EA5906;}.eventColor{opacity: 0.3; fill: #F59E16; transition: 1s fill;}.wcColor{opacity: 0.3; fill: #3693B2;}.stairsColor{opacity: 0.3; fill: #73cc15;}.transparentObject{fill: 0;}.riverColor{fill: #B9DDEF;}.mapElements{fill: #E2E2E2;}.tramColor{fill: #73CC15;}.mapArrows{fill: #BFBFBF;}.buildingFill{fill: #E5E5E5;}.eventColor.active{opacity: 0.3; fill: red; -webkit-animation: alertOpacity 2s infinite alternate; animation: alertOpacity 2s infinite alternate;}@-webkit-keyframes alertOpacity{0%{opacity: 0.3;}50%{opacity: 0.5;}100%{opacity: 0.3;}}@keyframes alertOpacity{0%{opacity: 0.3;}50%{opacity: 0.5;}100%{opacity: 0.3;}}#guideSpot .eventColor.active{fill: red; opacity: 1; r: 10; transform-origin: 150px 150px; -webkit-transform-origin: 50% 50%; -webkit-animation: alertScale 2s infinite alternate; animation: alertScale 2s infinite alternate;}@-webkit-keyframes alertScale{0%{-webkit-transform: scale(1, 1);}50%{-webkit-transform: scale(2, 2);}100%{-webkit-transform: scale(1, 1);}}@keyframes alertScale{0%{transform: scale(1, 1);}50%{transform: scale(2, 2);}100%{transform: scale(1, 1);}}</style>
<g id="description">
	<g id="wc_2_">
		<path class="wireColor" d="M669.7,54.3h-2.2l-2-14.5h1.6l1.7,12.3l1.6-12.3h1.6l1.6,12.3l1.6-12.3h1.4l-2,14.5h-2.1l-1.4-9.8L669.7,54.3
			z"/>
		<path class="wireColor" d="M684.3,43.4v1.3h-1.5v-1.4c0-1.3-0.5-2.1-1.7-2.1c-1.2,0-1.7,0.8-1.7,2.1v7.6c0,1.3,0.5,2.1,1.7,2.1
			c1.2,0,1.7-0.8,1.7-2.1V49h1.5v1.8c0,2.2-1,3.6-3.3,3.6c-2.2,0-3.2-1.4-3.2-3.6v-7.5c0-2.2,1-3.6,3.2-3.6
			C683.3,39.7,684.3,41.2,684.3,43.4z"/>
	</g>
	<g id="wc_1_">
		<path class="wireColor" d="M255.4,54.3h-2.2l-2-14.5h1.6l1.7,12.3l1.6-12.3h1.6l1.6,12.3l1.6-12.3h1.4l-2,14.5h-2.1l-1.4-9.8L255.4,54.3
			z"/>
		<path class="wireColor" d="M270,43.4v1.3h-1.5v-1.4c0-1.3-0.5-2.1-1.7-2.1c-1.2,0-1.7,0.8-1.7,2.1v7.6c0,1.3,0.5,2.1,1.7,2.1
			c1.2,0,1.7-0.8,1.7-2.1V49h1.5v1.8c0,2.2-1,3.6-3.3,3.6c-2.2,0-3.2-1.4-3.2-3.6v-7.5c0-2.2,1-3.6,3.2-3.6
			C269,39.7,270,41.2,270,43.4z"/>
	</g>
	<g id="_x34_24">
		<path class="wireColor" d="M284.3,129.8v0.4h-1.5v-0.5c0-1.3-0.5-2.1-1.7-2.1s-1.7,0.8-1.7,2c0,3.2,4.9,3.6,4.9,7.6
			c0,2.2-1.1,3.6-3.3,3.6s-3.2-1.4-3.2-3.6v-0.8h1.5v0.9c0,1.3,0.5,2.1,1.7,2.1s1.7-0.8,1.7-2.1c0-3.2-4.8-3.5-4.8-7.6
			c0-2.2,1-3.6,3.2-3.6C283.2,126.1,284.3,127.6,284.3,129.8z"/>
		<path class="wireColor" d="M287.3,137.8l-0.6,2.9h-1.5l2.8-14.5h2.3l2.8,14.5h-1.6l-0.6-2.9H287.3z M287.5,136.5h3.2l-1.6-8.4
			L287.5,136.5z"/>
		<path class="wireColor" d="M294.4,140.8v-14.5h1.6v13h4.1v1.5H294.4z"/>
		<path class="wireColor" d="M303,137.8l-0.6,2.9H301l2.8-14.5h2.3l2.8,14.5h-1.6l-0.6-2.9H303z M303.2,136.5h3.2l-1.6-8.4L303.2,136.5z"
			/>
		<path class="wireColor" d="M285.1,164.5v4.2h-2.3v-4.2h-6.8v-2.1l6.5-14.6h2.5v14.6h1.7v2.1H285.1z M278.2,162.4h4.6v-10.3L278.2,162.4z
			"/>
		<path class="wireColor" d="M298.1,152.9c0,6.3-7.1,8.6-7.1,13.4v0.3h6.9v2.1h-9.2V167c0-6.8,7.1-8.1,7.1-14c0-2.2-0.7-3.3-2.5-3.3
			c-1.7,0-2.5,1.2-2.5,3.1v1.9h-2.2v-1.7c0-3.2,1.5-5.3,4.7-5.3C296.6,147.5,298.1,149.6,298.1,152.9z"/>
		<path class="wireColor" d="M308.7,164.5v4.2h-2.3v-4.2h-6.8v-2.1l6.5-14.6h2.5v14.6h1.7v2.1H308.7z M301.8,162.4h4.6v-10.3L301.8,162.4z
			"/>
	</g>
	<g id="_x34_24y">
		<path class="wireColor" d="M220.5,138.3v0.2h-0.8v-0.3c0-0.7-0.3-1.1-0.9-1.1c-0.6,0-0.9,0.4-0.9,1.1c0,1.8,2.7,1.9,2.7,4.2
			c0,1.2-0.6,2-1.8,2s-1.8-0.8-1.8-2V142h0.8v0.5c0,0.7,0.3,1.1,0.9,1.1s0.9-0.4,0.9-1.1c0-1.8-2.6-1.9-2.6-4.2c0-1.2,0.6-2,1.8-2
			C219.9,136.3,220.5,137.1,220.5,138.3z"/>
		<path class="wireColor" d="M222.1,142.7l-0.3,1.6H221l1.5-7.9h1.3l1.5,7.9h-0.9l-0.3-1.6H222.1z M222.3,142h1.8l-0.9-4.6L222.3,142z"/>
		<path class="wireColor" d="M226,144.3v-7.9h0.9v7.1h2.3v0.8H226z"/>
		<path class="wireColor" d="M230.7,142.7l-0.3,1.6h-0.8l1.5-7.9h1.3l1.5,7.9H233l-0.3-1.6H230.7z M230.8,142h1.8l-0.9-4.6L230.8,142z"/>
		<path class="wireColor" d="M217.6,157.3v2.3h-1.2v-2.3h-3.7v-1.2l3.6-8h1.4v8h0.9v1.2H217.6z M213.9,156.2h2.5v-5.6L213.9,156.2z"/>
		<path class="wireColor" d="M224.7,150.9c0,3.5-3.9,4.7-3.9,7.3v0.2h3.8v1.2h-5v-1c0-3.7,3.9-4.4,3.9-7.7c0-1.2-0.4-1.8-1.3-1.8
			c-0.9,0-1.3,0.7-1.3,1.7v1h-1.2V151c0-1.8,0.8-2.9,2.6-2.9C223.9,148,224.7,149.2,224.7,150.9z"/>
		<path class="wireColor" d="M230.5,157.3v2.3h-1.2v-2.3h-3.7v-1.2l3.6-8h1.4v8h0.9v1.2H230.5z M226.8,156.2h2.5v-5.6L226.8,156.2z"/>
		<path class="wireColor" d="M234.5,155.5l-2.4-7.4h1.3l1.8,5.6l1.8-5.6h1.2l-2.4,7.4v4.1h-1.3V155.5z"/>
	</g>
	<g id="_x34_24x">
		<path class="wireColor" d="M359.5,138.3v0.2h-0.8v-0.3c0-0.7-0.3-1.1-0.9-1.1c-0.6,0-0.9,0.4-0.9,1.1c0,1.8,2.7,1.9,2.7,4.2
			c0,1.2-0.6,2-1.8,2s-1.8-0.8-1.8-2V142h0.8v0.5c0,0.7,0.3,1.1,0.9,1.1s0.9-0.4,0.9-1.1c0-1.8-2.6-1.9-2.6-4.2c0-1.2,0.6-2,1.8-2
			C358.9,136.3,359.5,137.1,359.5,138.3z"/>
		<path class="wireColor" d="M361.2,142.7l-0.3,1.6H360l1.5-7.9h1.3l1.5,7.9h-0.9l-0.3-1.6H361.2z M361.3,142h1.8l-0.9-4.6L361.3,142z"/>
		<path class="wireColor" d="M365,144.3v-7.9h0.9v7.1h2.3v0.8H365z"/>
		<path class="wireColor" d="M369.7,142.7l-0.3,1.6h-0.8l1.5-7.9h1.3l1.5,7.9h-0.9l-0.3-1.6H369.7z M369.9,142h1.8l-0.9-4.6L369.9,142z"/>
		<path class="wireColor" d="M356.4,157.3v2.3h-1.2v-2.3h-3.7v-1.2l3.6-8h1.4v8h0.9v1.2H356.4z M352.6,156.2h2.5v-5.6L352.6,156.2z"/>
		<path class="wireColor" d="M363.5,150.9c0,3.5-3.9,4.7-3.9,7.3v0.2h3.8v1.2h-5v-1c0-3.7,3.9-4.4,3.9-7.7c0-1.2-0.4-1.8-1.3-1.8
			c-0.9,0-1.3,0.7-1.3,1.7v1h-1.2V151c0-1.8,0.8-2.9,2.6-2.9C362.7,148,363.5,149.2,363.5,150.9z"/>
		<path class="wireColor" d="M369.3,157.3v2.3h-1.2v-2.3h-3.7v-1.2l3.6-8h1.4v8h0.9v1.2H369.3z M365.5,156.2h2.5v-5.6L365.5,156.2z"/>
		<path class="wireColor" d="M374.1,154.7l-1.9,5h-1.2l2.3-5.9l-2.2-5.6h1.3l1.8,4.6l1.8-4.6h1.2l-2.1,5.6l2.3,5.9H376L374.1,154.7z"/>
	</g>
	<g id="wc">
		<path class="wireColor" d="M1090.3,54.3h-2.2l-2-14.5h1.6l1.7,12.3l1.6-12.3h1.6l1.6,12.3l1.6-12.3h1.4l-2,14.5h-2.1l-1.4-9.8
			L1090.3,54.3z"/>
		<path class="wireColor" d="M1104.9,43.4v1.3h-1.5v-1.4c0-1.3-0.5-2.1-1.7-2.1c-1.2,0-1.7,0.8-1.7,2.1v7.6c0,1.3,0.5,2.1,1.7,2.1
			c1.2,0,1.7-0.8,1.7-2.1V49h1.5v1.8c0,2.2-1,3.6-3.3,3.6c-2.2,0-3.2-1.4-3.2-3.6v-7.5c0-2.2,1-3.6,3.2-3.6
			C1103.8,39.7,1104.9,41.2,1104.9,43.4z"/>
	</g>
</g>
<g id="hotSpot">
	<rect x="1022" y="38.6" class="stairsColor" width="45.5" height="35.8"/>
	<rect x="978.5" y="1.9" class="stairsColor" width="43.2" height="70.9"/>
	<rect x="143.7" y="1.9" class="stairsColor" width="43.2" height="70.9"/>
	<polygon class="wcColor" points="226.7,1.9 226.7,25.7 233.3,25.7 233.3,38.2 244.5,38.2 244.5,75.2 278.4,75.2 278.4,38.2 278.4,1.9
		"/>
	<polygon class="wcColor" points="1060.5,1.9 1060.5,25.8 1067.1,25.7 1067.1,38.6 1067.5,38.6 1067.5,74.4 1113.2,74.3 1113.2,38.2
		1113.2,1.9 	"/>
	<rect x="602.6" y="38.6" class="stairsColor" width="45.5" height="35.8"/>
	<polygon class="wcColor" points="641.1,1.9 641.1,25.8 647.7,25.7 647.7,38.6 648,38.6 648,74.4 693.8,74.3 693.8,38.2 693.8,1.9 	"/>
	<rect x="558.5" y="2.8" class="stairsColor" width="43.2" height="69.7"/>
	<rect x="186.9" y="38.5" class="stairsColor" width="25.2" height="35.2"/>
</g>
<g id="wire">
	<path class="wireColor" d="M0,0v182.7h1258.1V0H0z M1254.3,73.5H1218V3.8h36.3V73.5z M1044.4,140.6v38.3h-66.7v-64.8H1114v64.8h-68.9
		v-38.3H1044.4z M1181.2,73.5V3.8h36v69.8H1181.2z M1114.7,112.6V75h87.3v37.6H1114.7z M976.9,134.7h-16.6v-20.6h16.6V134.7z
		 M836.8,112.6V75.9h142.5v-2.8h1.6h7.9h8.9h7.9h6.1h7.9h1.3V75h7.3c0.3,5.5,4.9,10,10.6,10h0.4V75h12.4c0.3,5.5,4.9,10,10.6,10h0.4
		V75h6.3v8.7h0.4c5,0,9-3.8,9.4-8.7h22v0.2c0,5.2,4.2,9.4,9.4,9.4h0.4V75h3.3v37.6H836.8z M979.3,19.3h20.1v2.8h-20.1V19.3z
		 M1021,54.1h-20.1v-2.7h20.1V54.1z M1021,50.6h-20.1v-3h20.1V50.6z M1021,46.9h-20.1v-2.6h20.1V46.9z M1021,43.6h-20.1v-2.8h20.1
		V43.6z M1021,40h-20.1v-3.1h20.1V40z M1021,36.1h-20.1v-2.6h20.1V36.1z M1021,32.8h-20.1v-2.8h20.1V32.8z M1021,29.2h-20.1v-3h20.1
		V29.2z M1021,25.5h-20.1v-2.6h20.1V25.5z M1021,22.1h-20.1v-2.8h20.1V22.1z M979.3,22.9h20.1v2.6h-20.1V22.9z M979.3,26.2h20.1v3
		h-20.1V26.2z M979.3,29.9h20.1v2.8h-20.1V29.9z M979.3,33.5h20.1v2.6h-20.1V33.5z M979.3,36.8h20.1V40h-20.1V36.8z M979.3,40.7
		h20.1v2.8h-20.1V40.7z M979.3,44.3h20.1v2.6h-20.1V44.3z M979.3,47.6h20.1v3h-20.1V47.6z M979.3,51.4h20.1v2.7h-20.1V51.4z
		 M979.3,54.8h20.1v2.7h-20.1V54.8z M979.3,58.2h20.1v0.1h1.5v-3.5h20.1v17.5h-1.3v-7.2h-0.4c-4,0-7.3,3.2-7.5,7.2h-6.2
		c-0.2-4-3.5-7.2-7.5-7.2h-0.4v7.2h-8.9c-0.2-4-3.5-7.2-7.5-7.2h-0.4v7.2h-1.6V58.2z M1019,72.4h-6.4c0.2-3.5,3-6.2,6.4-6.4V72.4z
		 M1004.9,72.4h-6.4v-6.4C1002,66.1,1004.7,68.9,1004.9,72.4z M988.1,72.4h-6.4v-6.4C985.1,66.1,987.9,68.9,988.1,72.4z
		 M1066.7,73.5h-21.3V39.4h21.3V73.5z M1061.9,75v9.2c-5-0.2-9.1-4.2-9.4-9.2H1061.9z M1044,73.5h-21.4V39.4h21.4V73.5z M1038.5,75
		v9.2c-5-0.2-9.1-4.2-9.4-9.2H1038.5z M1069.8,75h8.3c-0.4,4.3-3.9,7.7-8.3,7.9V75z M1109.9,75.6v8.3c-4.5-0.2-8.1-3.8-8.3-8.3
		H1109.9z M1180.5,73.5h-66.9V3.8h66.9V73.5z M1112.8,73.5h-33.4V26.1h16.5V3.8h16.9V73.5z M1095.2,25.4h-16.5v48.2h-10.4V37.9h-0.7
		V25.4h-6.6V3.8h34.3V25.4z M1066.7,26.1v11.8h-44.2V3.8h37.6v22.4H1066.7z M1021,18.5h-20.1v-0.2h-1.5v0.2h-20.1V3.8h41.7V18.5z
		 M977.8,74.4h-35.5V3.8h35.5V74.4z M941.5,74.4h-31.8V3.8h31.8V74.4z M909,74.4h-36.8V3.8H909V74.4z M871.4,74.4H835V3.8h36.4V74.4
		z M833.5,74.4h-33.4V3.8h33.4V74.4z M799.3,74.4h-33.8V3.8h33.8V74.4z M764.8,74.4h-0.4v1.5H836v36.7H421V75.9h138.3v-3.1h2.5h7.9
		h8h7.9h5.8h7.9h1.6v3.1h7.9c0.3,5.6,4.9,10,10.6,10h0.4v-10h12.4c0.3,5.6,4.9,10,10.6,10h0.4v-10h6.3v8.8h0.4c5,0,9.1-3.9,9.4-8.8
		h22.1c0.4,4.9,4.5,8.7,9.4,8.7h0.4v-8.7h3.6v-1.5h-0.7V3.8h70.6V74.4z M559.3,18.9h20.1v2.8h-20.1V18.9z M601,53.7h-20.1V51H601
		V53.7z M601,50.2h-20.1v-3H601V50.2z M601,46.5h-20.1v-2.6H601V46.5z M601,43.2h-20.1v-2.8H601V43.2z M601,39.6h-20.1v-3.1H601
		V39.6z M601,35.7h-20.1v-2.6H601V35.7z M601,32.4h-20.1v-2.8H601V32.4z M601,28.8h-20.1v-3H601V28.8z M601,25.1h-20.1v-2.6H601
		V25.1z M601,21.7h-20.1v-2.8H601V21.7z M559.3,22.5h20.1v2.6h-20.1V22.5z M559.3,25.8h20.1v3h-20.1V25.8z M559.3,29.5h20.1v2.8
		h-20.1V29.5z M559.3,33.1h20.1v2.6h-20.1V33.1z M559.3,36.4h20.1v3.1h-20.1V36.4z M559.3,40.3h20.1v2.8h-20.1V40.3z M559.3,43.9
		h20.1v2.6h-20.1V43.9z M559.3,47.2h20.1v3h-20.1V47.2z M559.3,51h20.1v2.7h-20.1V51z M559.3,54.4h20.1v2.7h-20.1V54.4z M559.3,57.8
		h20.1v0.1h1.5v-3.5H601v17.7h-1.6V65h-0.4c-4,0-7.3,3.2-7.5,7.2h-5.9c-0.2-4-3.5-7.2-7.5-7.2h-0.4v7.2h-8.1c-0.2-4-3.5-7.2-7.5-7.2
		h-0.4v7.2h-2.5V57.8z M598.7,72.1h-6.4c0.2-3.5,3-6.2,6.4-6.4V72.1z M584.9,72.1h-6.4v-6.4C582,65.9,584.7,68.7,584.9,72.1z
		 M569,72.1h-6.4v-6.4C566,65.9,568.8,68.7,569,72.1z M619.1,75.9v9.3c-5.1-0.2-9.2-4.2-9.5-9.3H619.1z M647.3,39.4v35.1H626V39.4
		H647.3z M642.5,75.9v9.3c-5.1-0.2-9.2-4.2-9.5-9.3H642.5z M650.3,75.9h8.3c-0.3,4.4-3.9,7.8-8.3,8V75.9z M690.5,75.9v7.9
		c-4.4-0.2-7.9-3.6-8.3-7.9H690.5z M693.2,74.4H660V26.1h16.5V3.8h16.7V74.4z M675.7,25.4h-16.5v49.1h-10.4V37.9H648V25.4h-6.6V3.8
		h34.3V25.4z M647.3,26.1v11.8h-44.8v1.5h22v35.1h-22V3.8h38.2v22.4H647.3z M601,18.1h-20.1v-0.2h-1.5v0.2h-20.1V3.8H601V18.1z
		 M557.8,74.4h-68.8V3.8h68.8V74.4z M488.2,74.4h-32.4V3.8h32.4V74.4z M455,74.4h-35.7V3.8H455V74.4z M417.8,74.4H381V3.8h36.8V74.4
		z M380.3,74.4h-31.8V3.8h31.8V74.4z M347.7,74.4h-69V3.8h69V74.4z M278,74.4h-33.4V26.1h16.5V3.8H278V74.4z M275.1,75.9v7.9
		c-4.4-0.2-7.9-3.6-8.3-7.9H275.1z M260.3,25.4h-16.5v12.1h-10.2V25.4h-6.6V3.8h33.3V25.4z M242,39v8.3c-4.5-0.2-8.1-3.8-8.3-8.3
		H242z M232.9,26.1v11.3h-45.2V3.8h38.6v22.4H232.9z M212.9,56.3c3.9,0.4,7.1,3.6,7.2,7.6h-7.2V56.3z M212.9,47.5h7.2
		c-0.2,4-3.3,7.2-7.2,7.6V47.5z M186.2,72.4h-1.3v-7.2h-0.4c-4,0-7.3,3.2-7.5,7.2h-6.2c-0.2-4-3.5-7.2-7.5-7.2h-0.4v7.2H154
		c-0.2-4-3.5-7.2-7.5-7.2h-0.4v7.2h-1.6V58.1h20.1v0.1h1.5v-3.5h20.1V72.4z M184.2,72.4h-6.4c0.2-3.5,3-6.2,6.4-6.4V72.4z
		 M170.1,72.4h-6.4V66C167.1,66.2,169.9,69,170.1,72.4z M153.3,72.4h-6.4V66C150.3,66.2,153.1,69,153.3,72.4z M144.5,19.2h20.1V22
		h-20.1V19.2z M186.2,32.7h-20.1v-2.8h20.1V32.7z M186.2,29.1h-20.1v-3h20.1V29.1z M186.2,25.4h-20.1v-2.6h20.1V25.4z M166.1,33.4
		h20.1V36h-20.1V33.4z M186.2,22h-20.1v-2.8h20.1V22z M144.5,22.8h20.1v2.6h-20.1V22.8z M144.5,26.1h20.1v3h-20.1V26.1z M144.5,29.8
		h20.1v2.8h-20.1V29.8z M144.5,33.4h20.1V36h-20.1V33.4z M144.5,36.8h20.1v3.1h-20.1V36.8z M144.5,40.6h20.1v2.8h-20.1V40.6z
		 M144.5,44.2h20.1v2.6h-20.1V44.2z M144.5,47.6h20.1v3h-20.1V47.6z M144.5,51.3h20.1V54h-20.1V51.3z M144.5,54.7h20.1v2.7h-20.1
		V54.7z M186.2,54h-20.1v-2.7h20.1V54z M186.2,50.5h-20.1v-3h20.1V50.5z M186.2,46.8h-20.1v-2.6h20.1V46.8z M186.2,43.5h-20.1v-2.8
		h20.1V43.5z M186.2,39.9h-20.1v-3.1h20.1V39.9z M187.7,39h23.7v34h-23.7V39z M186.2,18.5h-20.1v-0.2h-1.5v0.2h-20.1V3.8h41.7V18.5z
		 M144.5,75.9v-2.7h1.6h7.9h8.9h7.9h6.1h7.9h1.3v1.3h26.7v-9.8h8v-0.4c0-4.2-3-7.8-7-8.6c4-0.8,7-4.3,7-8.6v-0.4h-8V39h20
		c0.2,5,4.4,9,9.4,9h0.4v-9h1.1v36.2h0v0.8H266c0.4,4.9,4.5,8.7,9.4,8.7h0.4v-8.7h144.4v36.7h-349V75.9H144.5z M70.5,112.6H3.8V75.9
		h66.8V112.6z M70.5,114.1v64.8H36.3v-64.8H70.5z M71.3,114.1h68v64.8h-68V114.1z M140,114.1h33.5v64.8H140V114.1z M174.3,114.1H208
		v64.8h-33.8V114.1z M208.8,114.1H242v64.8h-33.2V114.1z M242.7,114.1H346v64.8H242.7V114.1z M346.8,114.1H382v64.8h-35.3V114.1z
		 M382.8,114.1H416v64.8h-33.2V114.1z M417.5,114.1H455v64.8h-37.5V114.1z M455.8,114.1h32.8v64.8h-32.8V114.1z M489.3,114.1H522
		v64.8h-32.8V114.1z M522.8,114.1h35.4v64.8h-35.4V114.1z M558.9,114.1h33v64.8h-33V114.1z M592.6,114.1h33v64.8h-33V114.1z
		 M626.4,114.1h35v64.8h-35V114.1z M662.1,114.1h32.3v64.8h-32.3V114.1z M695.2,114.1h35.7v64.8h-35.7V114.1z M731.6,114.1h31.6
		v64.8h-31.6V114.1z M764,114.1h17.3V139h18.1v39.9H764V114.1z M782,138.2v-24.1h51.5v64.8h-33.4v-40.7H782z M835,114.1h72.3v64.8
		H835V114.1z M908,114.1h33.5v64.8H908V114.1z M942.3,114.1h17.3v21.4h17.4v43.4h-34.6V114.1z M1114.7,114.1h34v64.8h-34V114.1z
		 M1149.5,114.1h33v64.8h-33V114.1z M1183.3,114.1h34v64.8h-34V114.1z M1202.8,112.6V75h51.6v37.6H1202.8z M143,3.8v70.7H3.8V3.8
		H143z M3.8,114.1h31.8v64.8H3.8V114.1z M1218,178.9v-64.8h36.3v64.8H1218z"/>
</g>
<g id="eventSpot">
	<path id="sale424" class="eventColor" d="M382,114.1v64.8h-35.3v-64.8H382z M208.8,178.9H242v-64.8h-33.2V178.9z M242.7,178.9H346v-64.8
		H242.7V178.9z"/>
</g>
<g id="guideSpot">
	<circle id="E-4-D43" class="wireColor" cx="1042.9" cy="99" r="5.1"/>
	<circle id="E-4-D42" class="wireColor" cx="592.3" cy="98.6" r="5.1"/>
	<circle id="E-4-D41" class="wireColor" cx="173.9" cy="98.6" r="5.1"/>
</g>
</svg>
