<?xml version="1.0" encoding="utf-8"?>
<!-- Generator: Adobe Illustrator 20.0.0, SVG Export Plug-In . SVG Version: 6.00 Build 0)  -->
<svg version="1.1" id="Warstwa_1" xmlns="http://www.w3.org/2000/svg" xmlns:xlink="http://www.w3.org/1999/xlink" x="0px" y="0px"
	 viewBox="0 0 1258.1 182.7" style="enable-background:new 0 0 1258.1 182.7;" xml:space="preserve">
<style type="text/css">.wireColor{fill: #777777;}.nofloorColor{fill: #F2F2F2;}.arrowColor{fill: #EA5906;}.eventColor{opacity: 0.3; fill: #F59E16; transition: 1s fill;}.wcColor{opacity: 0.3; fill: #3693B2;}.stairsColor{opacity: 0.3; fill: #73cc15;}.transparentObject{fill: 0;}.riverColor{fill: #B9DDEF;}.mapElements{fill: #E2E2E2;}.tramColor{fill: #73CC15;}.mapArrows{fill: #BFBFBF;}.buildingFill{fill: #E5E5E5;}.eventColor.active{opacity: 0.3; fill: red; -webkit-animation: alertOpacity 2s infinite alternate; animation: alertOpacity 2s infinite alternate;}@-webkit-keyframes alertOpacity{0%{opacity: 0.3;}50%{opacity: 0.5;}100%{opacity: 0.3;}}@keyframes alertOpacity{0%{opacity: 0.3;}50%{opacity: 0.5;}100%{opacity: 0.3;}}#guideSpot .eventColor.active{fill: red; opacity: 1; r: 10; transform-origin: 150px 150px; -webkit-transform-origin: 50% 50%; -webkit-animation: alertScale 2s infinite alternate; animation: alertScale 2s infinite alternate;}@-webkit-keyframes alertScale{0%{-webkit-transform: scale(1, 1);}50%{-webkit-transform: scale(2, 2);}100%{-webkit-transform: scale(1, 1);}}@keyframes alertScale{0%{transform: scale(1, 1);}50%{transform: scale(2, 2);}100%{transform: scale(1, 1);}}</style>
<g id="description">
	<g id="wc_2_">
		<path class="wireColor" d="M669.7,54.3h-2.2l-2-14.5h1.6l1.7,12.3l1.6-12.3h1.6l1.6,12.3l1.6-12.3h1.4l-2,14.5h-2.1l-1.4-9.8L669.7,54.3
			z"/>
		<path class="wireColor" d="M684.3,43.4v1.3h-1.5v-1.4c0-1.3-0.5-2.1-1.7-2.1s-1.7,0.8-1.7,2.1v7.6c0,1.3,0.5,2.1,1.7,2.1
			s1.7-0.8,1.7-2.1V49h1.5v1.8c0,2.2-1,3.6-3.3,3.6c-2.2,0-3.2-1.4-3.2-3.6v-7.5c0-2.2,1-3.6,3.2-3.6
			C683.3,39.7,684.3,41.2,684.3,43.4z"/>
	</g>
	<g id="wc_1_">
		<path class="wireColor" d="M255.4,54.3h-2.2l-2-14.5h1.6l1.7,12.3l1.6-12.3h1.6l1.6,12.3l1.6-12.3h1.4l-2,14.5h-2.1l-1.4-9.8L255.4,54.3
			z"/>
		<path class="wireColor" d="M270,43.4v1.3h-1.5v-1.4c0-1.3-0.5-2.1-1.7-2.1s-1.7,0.8-1.7,2.1v7.6c0,1.3,0.5,2.1,1.7,2.1s1.7-0.8,1.7-2.1
			V49h1.5v1.8c0,2.2-1,3.6-3.3,3.6c-2.2,0-3.2-1.4-3.2-3.6v-7.5c0-2.2,1-3.6,3.2-3.6C269,39.7,270,41.2,270,43.4z"/>
	</g>
	<g id="_x35_16">
		<path class="wireColor" d="M564.9,129.8v0.4h-1.5v-0.5c0-1.3-0.5-2.1-1.7-2.1s-1.7,0.8-1.7,2c0,3.2,4.9,3.6,4.9,7.6
			c0,2.2-1.1,3.6-3.3,3.6s-3.2-1.4-3.2-3.6v-0.8h1.5v0.9c0,1.3,0.5,2.1,1.7,2.1s1.7-0.8,1.7-2.1c0-3.2-4.8-3.5-4.8-7.6
			c0-2.2,1-3.6,3.2-3.6C563.9,126.1,564.9,127.6,564.9,129.8z"/>
		<path class="wireColor" d="M568,137.8l-0.6,2.9h-1.5l2.8-14.5h2.3l2.8,14.5h-1.6l-0.6-2.9H568z M568.2,136.5h3.2l-1.6-8.4L568.2,136.5z"
			/>
		<path class="wireColor" d="M575.1,140.8v-14.5h1.6v13h4.1v1.5H575.1z"/>
		<path class="wireColor" d="M583.7,137.8l-0.6,2.9h-1.5l2.8-14.5h2.3l2.8,14.5h-1.6l-0.6-2.9H583.7z M583.9,136.5h3.2l-1.6-8.4
			L583.9,136.5z"/>
		<path class="wireColor" d="M560.7,156.3c0.7-1.1,1.7-1.7,3.1-1.7c2.7,0,3.9,2,3.9,5v4.1c0,3.2-1.5,5.3-4.7,5.3s-4.7-2.1-4.7-5.3v-1.4
			h2.2v1.6c0,1.9,0.8,3,2.5,3s2.5-1.1,2.5-3v-4.1c0-1.9-0.8-3-2.5-3c-1.3,0-2.2,0.7-2.4,2.3v0.5h-2.2l0.6-11.7h8.3v2.1H561
			L560.7,156.3z"/>
		<path class="wireColor" d="M574.3,151.6c-0.8,0.5-1.8,0.8-2.9,0.9v-1.9c2.3-0.1,3.1-1.3,3.6-2.8h1.6v21h-2.3L574.3,151.6L574.3,151.6z"
			/>
		<path class="wireColor" d="M589.5,152.8v0.4h-2.2v-0.5c0-1.9-0.8-3-2.5-3c-1.8,0-2.6,1.1-2.6,3.4v4.7c0.6-1.4,1.7-2.2,3.4-2.2
			c2.7,0,3.9,1.9,3.9,5v3.2c0,3.2-1.6,5.3-4.8,5.3s-4.8-2.1-4.8-5.3v-10.7c0-3.3,1.5-5.4,4.8-5.4C588,147.5,589.5,149.6,589.5,152.8
			z M582.3,160.7v3.1c0,1.9,0.8,3,2.5,3s2.5-1.1,2.5-3v-3.1c0-1.9-0.8-3-2.5-3C583.1,157.6,582.3,158.8,582.3,160.7z"/>
	</g>
	<g id="_x35_16x">
		<path class="wireColor" d="M501.1,138.3v0.2h-0.8v-0.3c0-0.7-0.3-1.1-0.9-1.1s-0.9,0.4-0.9,1.1c0,1.8,2.7,1.9,2.7,4.2c0,1.2-0.6,2-1.8,2
			s-1.8-0.8-1.8-2V142h0.8v0.5c0,0.7,0.3,1.1,0.9,1.1s0.9-0.4,0.9-1.1c0-1.8-2.6-1.9-2.6-4.2c0-1.2,0.6-2,1.8-2
			S501.1,137.1,501.1,138.3z"/>
		<path class="wireColor" d="M502.8,142.7l-0.3,1.6h-0.8l1.5-7.9h1.3l1.5,7.9h-0.9l-0.3-1.6H502.8z M502.9,142h1.8l-0.9-4.6L502.9,142z"/>
		<path class="wireColor" d="M506.7,144.3v-7.9h0.9v7.1h2.3v0.8L506.7,144.3L506.7,144.3z"/>
		<path class="wireColor" d="M511.4,142.7l-0.3,1.6h-0.8l1.5-7.9h1.3l1.5,7.9h-0.9l-0.3-1.6H511.4z M511.5,142h1.8l-0.9-4.6L511.5,142z"/>
		<path class="wireColor" d="M495.3,152.8c0.4-0.6,0.9-1,1.7-1c1.5,0,2.1,1.1,2.1,2.7v2.2c0,1.8-0.8,2.9-2.6,2.9c-1.8,0-2.6-1.1-2.6-2.9
			v-0.8h1.2v0.9c0,1,0.4,1.7,1.3,1.7s1.3-0.6,1.3-1.7v-2.2c0-1-0.4-1.7-1.3-1.7c-0.7,0-1.2,0.4-1.3,1.2v0.3H494l0.3-6.4h4.5v1.1
			h-3.4L495.3,152.8z"/>
		<path class="wireColor" d="M502.7,150.2c-0.4,0.3-1,0.5-1.6,0.5v-1c1.2,0,1.7-0.7,2-1.5h0.9v11.5h-1.3V150.2z"/>
		<path class="wireColor" d="M511,150.9v0.2h-1.2v-0.3c0-1-0.4-1.6-1.4-1.6s-1.4,0.6-1.4,1.9v2.6c0.3-0.8,0.9-1.2,1.9-1.2
			c1.5,0,2.1,1.1,2.1,2.7v1.7c0,1.8-0.9,2.9-2.6,2.9c-1.8,0-2.6-1.1-2.6-2.9V151c0-1.8,0.8-3,2.6-3S511,149.2,511,150.9z
			 M507.1,155.2v1.7c0,1,0.4,1.7,1.4,1.7c0.9,0,1.4-0.6,1.4-1.7v-1.7c0-1-0.4-1.7-1.4-1.7C507.5,153.6,507.1,154.2,507.1,155.2z"/>
		<path class="wireColor" d="M515.1,154.7l-1.9,5H512l2.3-5.9l-2.2-5.6h1.3l1.8,4.6l1.8-4.6h1.2l-2.1,5.6l2.3,5.9H517L515.1,154.7z"/>
	</g>
	<g id="wc">
		<path class="wireColor" d="M1090.3,54.3h-2.2l-2-14.5h1.6l1.7,12.3l1.6-12.3h1.6l1.6,12.3l1.6-12.3h1.4l-2,14.5h-2.1l-1.4-9.8
			L1090.3,54.3z"/>
		<path class="wireColor" d="M1104.9,43.4v1.3h-1.5v-1.4c0-1.3-0.5-2.1-1.7-2.1s-1.7,0.8-1.7,2.1v7.6c0,1.3,0.5,2.1,1.7,2.1
			s1.7-0.8,1.7-2.1V49h1.5v1.8c0,2.2-1,3.6-3.3,3.6c-2.2,0-3.2-1.4-3.2-3.6v-7.5c0-2.2,1-3.6,3.2-3.6
			C1103.8,39.7,1104.9,41.2,1104.9,43.4z"/>
	</g>
	<g>
		<path class="wireColor" d="M285.3,130v0.4h-1.5v-0.5c0-1.3-0.5-2.1-1.7-2.1s-1.7,0.8-1.7,2.1c0,3.3,4.9,3.6,4.9,7.7
			c0,2.2-1.1,3.6-3.3,3.6s-3.3-1.4-3.3-3.6v-0.8h1.5v0.9c0,1.3,0.5,2.1,1.7,2.1s1.7-0.8,1.7-2.1c0-3.2-4.9-3.6-4.9-7.7
			c0-2.2,1-3.6,3.2-3.6C284.3,126.3,285.3,127.7,285.3,130z"/>
		<path class="wireColor" d="M288.4,138.1l-0.6,2.9h-1.5l2.8-14.6h2.4l2.8,14.6h-1.6l-0.6-2.9H288.4z M288.6,136.7h3.2l-1.6-8.4
			L288.6,136.7z"/>
		<path class="wireColor" d="M295.6,141v-14.6h1.6v13.1h4.2v1.5H295.6z"/>
		<path class="wireColor" d="M304.2,138.1l-0.6,2.9h-1.5l2.8-14.6h2.4l2.8,14.6h-1.6l-0.6-2.9H304.2z M304.4,136.7h3.2l-1.6-8.4
			L304.4,136.7z"/>
		<path class="wireColor" d="M273.8,155.8c0.7-1.2,1.8-1.8,3.2-1.8c2.8,0,4.1,2.1,4.1,5.2v4.3c0,3.3-1.6,5.5-4.9,5.5s-4.9-2.2-4.9-5.5V162
			h2.3v1.6c0,2,0.8,3.2,2.6,3.2s2.6-1.2,2.6-3.2v-4.2c0-2-0.8-3.2-2.6-3.2c-1.3,0-2.2,0.7-2.5,2.3v0.5h-2.3l0.6-12.1h8.6v2.2h-6.4
			L273.8,155.8z"/>
		<path class="wireColor" d="M287.9,150.9c-0.8,0.5-1.9,0.9-3,0.9v-2c2.4-0.1,3.2-1.4,3.7-2.9h1.7v21.8h-2.4L287.9,150.9L287.9,150.9z"/>
		<path class="wireColor" d="M304,152.1v0.7c0,2.2-0.8,3.8-2.5,4.5c1.8,0.7,2.5,2.4,2.5,4.6v1.6c0,3.4-1.7,5.5-5.1,5.5s-5.1-2.1-5.1-5.5
			v-1.6c0-2.2,0.7-3.9,2.5-4.6c-1.8-0.7-2.5-2.3-2.5-4.5v-0.7c0-3.4,1.8-5.4,5.1-5.4S304,148.7,304,152.1z M296.1,152.2v1.1
			c0,2.1,1,3.1,2.7,3.1s2.7-0.9,2.7-3.1v-1.1c0-2.2-1-3.3-2.7-3.3C297.2,148.9,296.1,149.9,296.1,152.2z M296.1,161.6v1.8
			c0,2.2,1,3.3,2.7,3.3s2.7-1.1,2.7-3.3v-1.8c0-2.1-0.9-3.2-2.7-3.2C297.1,158.5,296.1,159.5,296.1,161.6z"/>
		<path class="wireColor" d="M311.7,159.3l-3.7,9.4h-2.3l4.4-11.3l-4.1-10.6h2.5l3.4,8.7l3.4-8.7h2.3l-4.1,10.6l4.4,11.3h-2.6L311.7,159.3
			z"/>
	</g>
</g>
<g id="hotSpot">
	<rect x="1022" y="38.6" class="stairsColor" width="45.5" height="35.8"/>
	<rect x="978.5" y="1.9" class="stairsColor" width="43.2" height="70.9"/>
	<rect x="143.7" y="1.9" class="stairsColor" width="43.2" height="70.9"/>
	<polygon class="wcColor" points="225.1,1.9 225.1,38.2 244.5,38.2 244.5,75.2 278.4,75.2 278.4,38.2 278.4,1.9 	"/>
	<polygon class="wcColor" points="1060.5,1.9 1060.5,25.8 1067.1,25.7 1067.1,38.6 1067.5,38.6 1067.5,74.4 1113.2,74.3 1113.2,38.2
		1113.2,1.9 	"/>
	<rect x="602.6" y="38.6" class="stairsColor" width="45.5" height="35.8"/>
	<polygon class="wcColor" points="641.1,1.9 641.1,25.8 647.7,25.7 647.7,38.6 648,38.6 648,74.4 693.8,74.3 693.8,38.2 693.8,1.9 	"/>
	<rect x="558.5" y="2.8" class="stairsColor" width="43.2" height="69.7"/>
	<rect x="186.9" y="38.5" class="stairsColor" width="25.2" height="35.2"/>
</g>
<g id="wire">
	<path class="wireColor" d="M0,0v182.7h1258.1V0H0z M1181.2,3.8h36v69.8h-36V3.8z M1202,75v37.6h-87.3V75H1202z M1113.6,3.8h66.9v69.8
		h-66.9V3.8z M1095.9,3.8h16.9v69.8h-33.4V26.1h16.5V3.8z M1109.9,75.6v8.3c-4.5-0.2-8.1-3.8-8.3-8.3H1109.9z M1060.9,3.8h34.3v21.6
		h-16.5v48.2h-10.4V37.9h-0.7V25.4h-6.6V3.8H1060.9z M1078,75c-0.4,4.3-3.9,7.7-8.3,7.9V75H1078z M1022.5,3.8h37.6v22.4h6.6V38
		h-44.2L1022.5,3.8L1022.5,3.8z M1045.5,73.5V39.4h21.3v34.1H1045.5z M1061.9,75v9.2c-5-0.2-9.1-4.2-9.4-9.2H1061.9z M1022.5,39.4
		h21.4v34.1h-21.4V39.4z M1038.5,75v9.2c-5-0.2-9.1-4.2-9.4-9.2H1038.5z M979.3,3.8h41.7v14.8h-20.1v-0.2h-1.5v0.2h-20.1L979.3,3.8
		L979.3,3.8z M1000.9,50.6v-3h20.1v3H1000.9z M1021,51.4v2.7h-20.1v-2.7H1021z M1000.9,46.9v-2.6h20.1v2.6H1000.9z M1000.9,43.6
		v-2.8h20.1v2.8H1000.9z M1000.9,40v-3.1h20.1V40H1000.9z M1000.9,36.1v-2.6h20.1v2.6H1000.9z M1000.9,32.8V30h20.1v2.8H1000.9z
		 M1000.9,29.2v-3h20.1v3H1000.9z M1000.9,25.5v-2.6h20.1v2.6H1000.9z M1000.9,22.1v-2.8h20.1v2.8H1000.9z M979.3,19.3h20.1v2.8
		h-20.1V19.3z M979.3,22.9h20.1v2.6h-20.1V22.9z M979.3,26.2h20.1v3h-20.1V26.2z M979.3,29.9h20.1v2.8h-20.1V29.9z M979.3,33.5h20.1
		v2.6h-20.1V33.5z M979.3,36.8h20.1V40h-20.1V36.8z M979.3,40.7h20.1v2.8h-20.1V40.7z M979.3,44.3h20.1v2.6h-20.1V44.3z M979.3,47.6
		h20.1v3h-20.1V47.6z M979.3,51.4h20.1v2.7h-20.1V51.4z M979.3,54.8h20.1v2.7h-20.1V54.8z M979.3,58.2h20.1v0.1h1.5v-3.5h20.1v17.5
		h-1.3v-7.2h-0.4c-4,0-7.3,3.2-7.5,7.2h-6.2c-0.2-4-3.5-7.2-7.5-7.2h-0.4v7.2h-8.9c-0.2-4-3.5-7.2-7.5-7.2h-0.4v7.2h-1.6L979.3,58.2
		L979.3,58.2z M1019,65.9v6.4h-6.4C1012.8,68.9,1015.5,66.1,1019,65.9z M1004.9,72.4h-6.4V66C1002,66.1,1004.7,68.9,1004.9,72.4z
		 M988.1,72.4h-6.4V66C985.1,66.1,987.9,68.9,988.1,72.4z M942.3,3.8h35.5v70.7h-35.5V3.8z M909.8,3.8h31.8v70.7h-31.8V3.8z
		 M872.2,3.8H909v70.7h-36.8V3.8z M835,3.8h36.4v70.7H835V3.8z M800.1,3.8h33.4v70.7h-33.4V3.8z M765.5,3.8h33.8v70.7h-33.8V3.8z
		 M676.5,3.8h16.7v70.7H660V26.1h16.5V3.8z M690.5,75.9v7.9c-4.4-0.2-7.9-3.6-8.3-7.9H690.5z M641.5,3.8h34.3v21.6h-16.5v49.1h-10.4
		V37.9H648V25.4h-6.6L641.5,3.8L641.5,3.8z M658.6,75.9c-0.3,4.4-3.9,7.8-8.3,8v-8H658.6z M602.5,3.8h38.2v22.4h6.6V38h-44.8v1.5h22
		v35.1h-22V3.8z M626,74.4v-35h21.3v35.1L626,74.4L626,74.4z M642.5,75.9v9.3c-5.1-0.2-9.2-4.2-9.5-9.3H642.5z M619.1,75.9v9.3
		c-5.1-0.2-9.2-4.2-9.5-9.3H619.1z M559.3,3.8H601v14.4h-20.1V18h-1.5v0.2h-20.1L559.3,3.8L559.3,3.8z M580.9,50.2v-3H601v3H580.9z
		 M601,51v2.7h-20.1V51H601z M580.9,46.5v-2.6H601v2.6H580.9z M580.9,43.2v-2.8H601v2.8H580.9z M580.9,39.6v-3.1H601v3.1H580.9z
		 M580.9,35.7v-2.6H601v2.6H580.9z M580.9,32.4v-2.8H601v2.8H580.9z M580.9,28.8v-3H601v3H580.9z M580.9,25.1v-2.6H601v2.6H580.9z
		 M580.9,21.7v-2.8H601v2.8H580.9z M559.3,18.9h20.1v2.8h-20.1V18.9z M559.3,22.5h20.1v2.6h-20.1V22.5z M559.3,25.8h20.1v3h-20.1
		V25.8z M559.3,29.5h20.1v2.8h-20.1V29.5z M559.3,33.1h20.1v2.6h-20.1V33.1z M559.3,36.4h20.1v3.1h-20.1V36.4z M559.3,40.3h20.1v2.8
		h-20.1V40.3z M559.3,43.9h20.1v2.6h-20.1V43.9z M559.3,47.2h20.1v3h-20.1V47.2z M559.3,51h20.1v2.7h-20.1V51z M559.3,54.4h20.1v2.7
		h-20.1V54.4z M559.3,57.8h20.1v0.1h1.5v-3.5H601v17.7h-1.6V65H599c-4,0-7.3,3.2-7.5,7.2h-5.9c-0.2-4-3.5-7.2-7.5-7.2h-0.4v7.2h-8.1
		c-0.2-4-3.5-7.2-7.5-7.2h-0.4v7.2h-2.5V57.8H559.3z M598.7,65.7v6.4h-6.4C592.5,68.7,595.2,65.9,598.7,65.7z M584.9,72.1h-6.4v-6.4
		C582,65.9,584.7,68.7,584.9,72.1z M569,72.1h-6.4v-6.4C566,65.9,568.8,68.7,569,72.1z M488.9,3.8h68.8v70.7h-68.8L488.9,3.8
		L488.9,3.8z M455.8,3.8h32.4v70.7h-32.4V3.8z M419.3,3.8H455v70.7h-35.7V3.8z M381,3.8h36.8v70.7H381V3.8z M348.4,3.8h31.8v70.7
		h-31.8V3.8z M278.7,3.8h69v70.7h-69V3.8z M261.1,3.8H278v70.7h-33.4V26.1h16.5V3.8z M275.1,75.9v7.9c-4.4-0.2-7.9-3.6-8.3-7.9
		H275.1z M225.5,3.8h34.8v21.6h-16.5v12.1h-18.3L225.5,3.8L225.5,3.8z M242,39v8.3c-4.5-0.2-8.1-3.8-8.3-8.3H242z M187.7,3.8h37.1
		v33.7h-37.1L187.7,3.8L187.7,3.8z M212.9,47.5h7.2c-0.2,4-3.3,7.2-7.2,7.6V47.5z M220.1,63.9h-7.2v-7.6
		C216.8,56.7,220,59.9,220.1,63.9z M187.7,39h23.7v34h-23.7V39z M144.5,3.8h41.7v14.7h-20.1v-0.2h-1.5v0.2h-20.1L144.5,3.8
		L144.5,3.8z M166.1,50.5v-3h20.1v3H166.1z M186.2,51.3V54h-20.1v-2.7H186.2z M166.1,46.8v-2.6h20.1v2.6H166.1z M166.1,43.5v-2.8
		h20.1v2.8H166.1z M166.1,39.9v-3.1h20.1v3.1H166.1z M166.1,36v-2.6h20.1V36H166.1z M166.1,32.7v-2.8h20.1v2.8H166.1z M166.1,29.1
		v-3h20.1v3H166.1z M166.1,25.4v-2.6h20.1v2.6H166.1z M166.1,22v-2.8h20.1V22H166.1z M144.5,19.2h20.1V22h-20.1V19.2z M144.5,22.8
		h20.1v2.6h-20.1V22.8z M144.5,26.1h20.1v3h-20.1V26.1z M144.5,29.8h20.1v2.8h-20.1V29.8z M144.5,33.4h20.1V36h-20.1V33.4z
		 M144.5,36.8h20.1v3.1h-20.1V36.8z M144.5,40.6h20.1v2.8h-20.1V40.6z M144.5,44.2h20.1v2.6h-20.1V44.2z M144.5,47.6h20.1v3h-20.1
		V47.6z M144.5,51.3h20.1V54h-20.1V51.3z M144.5,54.7h20.1v2.7h-20.1V54.7z M144.5,58.1h20.1v0.1h1.5v-3.5h20.1v17.7h-1.3v-7.2h-0.4
		c-4,0-7.3,3.2-7.5,7.2h-6.2c-0.2-4-3.5-7.2-7.5-7.2h-0.4v7.2H154c-0.2-4-3.5-7.2-7.5-7.2h-0.4v7.2h-1.6V58.1z M184.2,66v6.4h-6.4
		C177.9,69,180.7,66.2,184.2,66z M170.1,72.4h-6.4V66C167.1,66.2,169.9,69,170.1,72.4z M153.3,72.4h-6.4V66
		C150.3,66.2,153.1,69,153.3,72.4z M144.5,73.2h1.6h7.9h8.9h7.9h6.1h7.9h1.3v1.3h26.7v-9.8h8v-0.4c0-4.2-3-7.8-7-8.6
		c4-0.8,7-4.3,7-8.6v-0.4h-8V39h20c0.2,5,4.4,9,9.4,9h0.4v-9h1.1v36.2l0,0V76H266c0.4,4.9,4.5,8.7,9.4,8.7h0.4V76h283.5v-3.1h2.5
		h7.9h8h7.9h5.8h7.9h1.6V76h7.9c0.3,5.6,4.9,10,10.6,10h0.4V76h12.4c0.3,5.6,4.9,10,10.6,10h0.4V76h6.3v8.8h0.4c5,0,9.1-3.9,9.4-8.8
		h22.1c0.4,4.9,4.5,8.7,9.4,8.7h0.4V76h3.6v-1.5h-0.7V3.8h70.6v70.7h-0.4V76h215v-2.8h1.6h7.9h8.9h7.9h6.1h7.9h1.3V75h7.3
		c0.3,5.5,4.9,10,10.6,10h0.4V75h12.4c0.3,5.5,4.9,10,10.6,10h0.4V75h6.3v8.7h0.4c5,0,9-3.8,9.4-8.7h22v0.2c0,5.2,4.2,9.4,9.4,9.4
		h0.4V75h3.3v37.6H33.3V75.9h111.2V73.2z M781.1,114.1v19.6h-17.7v-19.6H781.1z M104.3,3.8H143v70.7h-38.6L104.3,3.8L104.3,3.8z
		 M71.3,3.8h32.3v70.7H71.3V3.8z M36.3,3.8h34.3v70.7H36.3V3.8z M3.8,3.8h31.8v70.7H3.8V3.8z M3.8,75.9h28.8v36.7H3.8V75.9z
		 M35.5,178.9H3.8v-64.8h31.8L35.5,178.9L35.5,178.9z M70.5,178.9H36.3v-64.8h34.3L70.5,178.9L70.5,178.9z M139.3,178.9h-68v-64.8
		h68V178.9z M173.5,178.9H140v-64.8h33.5V178.9z M208,178.9h-33.8v-64.8H208V178.9z M242,178.9h-33.2v-64.8H242V178.9z M346,178.9
		H242.7v-64.8H346V178.9z M382,178.9h-35.3v-64.8H382V178.9z M416,178.9h-33.2v-64.8H416V178.9z M488.2,178.9h-70.7v-64.8h70.7
		V178.9z M522.3,178.9H489v-64.8h33.3V178.9z M626.3,178.9H523v-64.8h103.3V178.9z M694.4,178.9H627v-64.8h67.4V178.9z M762.6,178.9
		h-67.4v-64.8h67.4V178.9z M798.3,178.9h-34.9v-44.4h18.5v-20.4h16.4V178.9z M833.5,178.9H799v-64.8h34.5V178.9z M871.4,178.9H835
		v-64.8h36.4V178.9z M906.3,178.9h-34.1v-64.8h34.1V178.9z M941.5,178.9H907v-64.8h34.5V178.9z M975,178.9h-32.7v-64.8H975V178.9z
		 M1010.1,178.9h-34.4v-64.8h34.4V178.9z M1060.2,178.9h-49.3v-64.8h49.3V178.9z M1112.8,178.9h-51.9v-64.8h51.9V178.9z
		 M1147.8,178.9h-34.2v-64.8h34.2V178.9z M1254.3,178.9h-105.8v-64.8h105.8V178.9z M1254.3,112.6h-51.6V75h51.6V112.6z M1254.3,73.5
		H1218V3.8h36.3V73.5z"/>
</g>
<g id="eventSpot">
	<path id="sala516" class="eventColor" d="M523,178.9v-64.8h103.3v64.8H523z M522.3,178.9v-64.8H489v64.8H522.3z"/>
	<path id="sala518x" class="eventColor" d="M242.7,114.1H346v64.8H242.7V114.1z M382,114.1h-35.3v64.8H382V114.1z M416,114.1h-33.2v64.8
		H416V114.1z"/>
</g>
<g id="guideSpot">
	<circle id="E-5-D53" class="wireColor" cx="1033.8" cy="99" r="5.1"/>
	<circle id="E-5-D52" class="wireColor" cx="585.6" cy="98.6" r="5.1"/>
	<circle id="E-5-D51" class="wireColor" cx="173.9" cy="98.6" r="5.1"/>
</g>
</svg>
