<?xml version="1.0" encoding="utf-8"?>
<!-- Generator: Adobe Illustrator 20.0.0, SVG Export Plug-In . SVG Version: 6.00 Build 0)  -->
<svg version="1.1" id="Warstwa_1" xmlns="http://www.w3.org/2000/svg" xmlns:xlink="http://www.w3.org/1999/xlink" x="0px" y="0px"
	 viewBox="0 0 1258.1 182.7" style="enable-background:new 0 0 1258.1 182.7;" xml:space="preserve">
<style type="text/css">.wireColor{fill: #777777;}.nofloorColor{fill: #F2F2F2;}.arrowColor{fill: #EA5906;}.eventColor{opacity: 0.3; fill: #F59E16; transition: 1s fill;}.wcColor{opacity: 0.3; fill: #3693B2;}.stairsColor{opacity: 0.3; fill: #73cc15;}.transparentObject{fill: 0;}.riverColor{fill: #B9DDEF;}.mapElements{fill: #E2E2E2;}.tramColor{fill: #73CC15;}.mapArrows{fill: #BFBFBF;}.buildingFill{fill: #E5E5E5;}.eventColor.active{opacity: 0.3; fill: red; -webkit-animation: alertOpacity 2s infinite alternate; animation: alertOpacity 2s infinite alternate;}@-webkit-keyframes alertOpacity{0%{opacity: 0.3;}50%{opacity: 0.5;}100%{opacity: 0.3;}}@keyframes alertOpacity{0%{opacity: 0.3;}50%{opacity: 0.5;}100%{opacity: 0.3;}}#guideSpot .eventColor.active{fill: red; opacity: 1; r: 10; transform-origin: 150px 150px; -webkit-transform-origin: 50% 50%; -webkit-animation: alertScale 2s infinite alternate; animation: alertScale 2s infinite alternate;}@-webkit-keyframes alertScale{0%{-webkit-transform: scale(1, 1);}50%{-webkit-transform: scale(2, 2);}100%{-webkit-transform: scale(1, 1);}}@keyframes alertScale{0%{transform: scale(1, 1);}50%{transform: scale(2, 2);}100%{transform: scale(1, 1);}}</style>
<g id="description">
	<g id="wc_2_">
		<path class="wireColor" d="M669.7,54.3h-2.2l-2-14.5h1.6l1.7,12.3l1.6-12.3h1.6l1.6,12.3l1.6-12.3h1.4l-2,14.5h-2.1l-1.4-9.8L669.7,54.3
			z"/>
		<path class="wireColor" d="M684.3,43.4v1.3h-1.5v-1.4c0-1.3-0.5-2.1-1.7-2.1s-1.7,0.8-1.7,2.1v7.6c0,1.3,0.5,2.1,1.7,2.1
			s1.7-0.8,1.7-2.1V49h1.5v1.8c0,2.2-1,3.6-3.3,3.6c-2.2,0-3.2-1.4-3.2-3.6v-7.5c0-2.2,1-3.6,3.2-3.6
			C683.3,39.7,684.3,41.2,684.3,43.4z"/>
	</g>
	<g id="wc_1_">
		<path class="wireColor" d="M255.4,54.3h-2.2l-2-14.5h1.6l1.7,12.3l1.6-12.3h1.6l1.6,12.3l1.6-12.3h1.4l-2,14.5h-2.1l-1.4-9.8L255.4,54.3
			z"/>
		<path class="wireColor" d="M270,43.4v1.3h-1.5v-1.4c0-1.3-0.5-2.1-1.7-2.1s-1.7,0.8-1.7,2.1v7.6c0,1.3,0.5,2.1,1.7,2.1s1.7-0.8,1.7-2.1
			V49h1.5v1.8c0,2.2-1,3.6-3.3,3.6c-2.2,0-3.2-1.4-3.2-3.6v-7.5c0-2.2,1-3.6,3.2-3.6C269,39.7,270,41.2,270,43.4z"/>
	</g>
	<g id="_x36_12">
		<path class="wireColor" d="M1012.6,130v0.4h-1.6V130c0-1.4-0.5-2.2-1.7-2.2s-1.7,0.8-1.7,2.1c0,3.4,5.1,3.7,5.1,8c0,2.3-1.1,3.8-3.4,3.8
			c-2.3,0-3.4-1.5-3.4-3.8V137h1.6v1c0,1.4,0.6,2.2,1.8,2.2s1.8-0.8,1.8-2.2c0-3.4-5.1-3.7-5.1-7.9c0-2.3,1.1-3.8,3.3-3.8
			C1011.5,126.3,1012.6,127.8,1012.6,130z"/>
		<path class="wireColor" d="M1015.8,138.5l-0.6,3h-1.6l2.9-15.1h2.4l2.9,15.1h-1.7l-0.6-3H1015.8z M1016,137h3.4l-1.7-8.7L1016,137z"/>
		<path class="wireColor" d="M1023.2,141.5v-15.1h1.7V140h4.3v1.5H1023.2z"/>
		<path class="wireColor" d="M1032.2,138.5l-0.6,3h-1.6l2.9-15.1h2.4l2.9,15.1h-1.7l-0.6-3H1032.2z M1032.4,137h3.4l-1.7-8.7L1032.4,137z"
			/>
		<path class="wireColor" d="M1015.6,154.1v0.4h-2.3v-0.6c0-2-0.8-3.1-2.6-3.1s-2.7,1.2-2.7,3.5v4.9c0.6-1.5,1.8-2.3,3.5-2.3
			c2.8,0,4.1,2,4.1,5.2v3.3c0,3.4-1.7,5.5-5,5.5c-3.4,0-5-2.2-5-5.5v-11.2c0-3.5,1.6-5.6,5-5.6
			C1014,148.6,1015.6,150.8,1015.6,154.1z M1008,162.3v3.3c0,2,0.8,3.2,2.6,3.2s2.6-1.2,2.6-3.2v-3.3c0-2-0.8-3.2-2.6-3.2
			C1008.9,159.1,1008,160.3,1008,162.3z"/>
		<path class="wireColor" d="M1022.4,152.8c-0.8,0.5-1.9,0.9-3,0.9v-2c2.4-0.1,3.2-1.4,3.8-2.9h1.7v21.9h-2.4L1022.4,152.8L1022.4,152.8z"
			/>
		<path class="wireColor" d="M1038.4,154.2c0,6.6-7.4,9-7.5,14v0.3h7.2v2.2h-9.6v-1.9c0-7.1,7.4-8.5,7.4-14.6c0-2.3-0.8-3.4-2.6-3.4
			c-1.8,0-2.6,1.3-2.6,3.2v1.9h-2.3v-1.8c0-3.4,1.5-5.6,4.9-5.6C1036.9,148.6,1038.4,150.8,1038.4,154.2z"/>
	</g>
	<g id="_x36_12X">
		<path class="wireColor" d="M939.7,138.3v0.2h-0.8v-0.3c0-0.7-0.3-1.1-0.9-1.1c-0.6,0-0.9,0.4-0.9,1.1c0,1.8,2.7,1.9,2.7,4.2
			c0,1.2-0.6,2-1.8,2s-1.8-0.8-1.8-2V142h0.8v0.5c0,0.7,0.3,1.1,0.9,1.1c0.6,0,0.9-0.4,0.9-1.1c0-1.8-2.6-1.9-2.6-4.2
			c0-1.2,0.6-2,1.8-2C939.2,136.3,939.7,137.1,939.7,138.3z"/>
		<path class="wireColor" d="M941.4,142.7l-0.3,1.6h-0.8l1.5-7.9h1.3l1.5,7.9h-0.9l-0.3-1.6H941.4z M941.5,142h1.8l-0.9-4.6L941.5,142z"/>
		<path class="wireColor" d="M945.3,144.3v-7.9h0.9v7.1h2.3v0.8L945.3,144.3L945.3,144.3z"/>
		<path class="wireColor" d="M950,142.7l-0.3,1.6h-0.8l1.5-7.9h1.3l1.5,7.9h-0.9l-0.3-1.6H950z M950.1,142h1.8l-0.9-4.6L950.1,142z"/>
		<path class="wireColor" d="M937.7,150.9v0.2h-1.2v-0.3c0-1-0.4-1.6-1.4-1.6s-1.4,0.6-1.4,1.9v2.6c0.3-0.8,0.9-1.2,1.9-1.2
			c1.5,0,2.1,1.1,2.1,2.7v1.7c0,1.8-0.9,2.9-2.6,2.9c-1.8,0-2.6-1.1-2.6-2.9V151c0-1.8,0.8-3,2.6-3
			C936.9,148,937.7,149.2,937.7,150.9z M933.8,155.2v1.7c0,1,0.4,1.7,1.4,1.7c0.9,0,1.4-0.6,1.4-1.7v-1.7c0-1-0.4-1.7-1.4-1.7
			C934.2,153.6,933.8,154.2,933.8,155.2z"/>
		<path class="wireColor" d="M941.3,150.2c-0.4,0.3-1,0.5-1.6,0.5v-1c1.2,0,1.7-0.7,2-1.5h0.9v11.5h-1.3L941.3,150.2L941.3,150.2z"/>
		<path class="wireColor" d="M949.7,150.9c0,3.5-3.9,4.7-3.9,7.3v0.2h3.8v1.2h-5v-1c0-3.7,3.9-4.4,3.9-7.7c0-1.2-0.4-1.8-1.3-1.8
			c-0.9,0-1.3,0.7-1.3,1.7v1h-1.2V151c0-1.8,0.8-2.9,2.6-2.9C948.9,148,949.7,149.2,949.7,150.9z"/>
		<path class="wireColor" d="M953.7,154.7l-1.9,5h-1.2l2.3-5.9l-2.2-5.6h1.3l1.8,4.6l1.8-4.6h1.2l-2.1,5.6l2.3,5.9h-1.3L953.7,154.7z"/>
	</g>
	<g id="wc">
		<path class="wireColor" d="M1090.3,54.3h-2.2l-2-14.5h1.6l1.7,12.3l1.6-12.3h1.6l1.6,12.3l1.6-12.3h1.4l-2,14.5h-2.1l-1.4-9.8
			L1090.3,54.3z"/>
		<path class="wireColor" d="M1104.9,43.4v1.3h-1.5v-1.4c0-1.3-0.5-2.1-1.7-2.1s-1.7,0.8-1.7,2.1v7.6c0,1.3,0.5,2.1,1.7,2.1
			s1.7-0.8,1.7-2.1V49h1.5v1.8c0,2.2-1,3.6-3.3,3.6c-2.2,0-3.2-1.4-3.2-3.6v-7.5c0-2.2,1-3.6,3.2-3.6
			C1103.8,39.7,1104.9,41.2,1104.9,43.4z"/>
	</g>
</g>
<g id="hotSpot">
	<rect x="1022" y="38.6" class="stairsColor" width="45.5" height="35.8"/>
	<rect x="978.5" y="1.9" class="stairsColor" width="43.2" height="70.9"/>
	<rect x="143.7" y="1.9" class="stairsColor" width="43.2" height="70.9"/>
	<polygon class="wcColor" points="227.4,1.9 227.4,25.7 244.2,25.7 244.5,75.2 278.4,75.2 278.4,38.2 278.4,1.9 	"/>
	<polygon class="wcColor" points="1060.5,1.9 1060.5,25.8 1067.1,25.7 1067.1,38.6 1067.5,38.6 1067.5,74.4 1113.2,74.3 1113.2,38.2
		1113.2,1.9 	"/>
	<rect x="602.6" y="38.6" class="stairsColor" width="45.5" height="35.8"/>
	<polygon class="wcColor" points="641.1,1.9 641.1,25.8 647.7,25.7 647.7,38.6 648,38.6 648,74.4 693.8,74.3 693.8,38.2 693.8,1.9 	"/>
	<rect x="558.5" y="2.8" class="stairsColor" width="43.2" height="69.7"/>
	<rect x="186.9" y="38.5" class="stairsColor" width="25.2" height="35.2"/>
</g>
<g id="wire">
	<path class="wireColor" d="M0,0v182.7h1258.1V0H0z M1254.3,73.5h-71.1V3.8h71.1V73.5z M800.3,124.1v54.8h-34.9v-64.8h68.1v64.8H801v-54.8
		C801,124.1,800.3,124.1,800.3,124.1z M3.8,112.6V75.9h49.6v36.7C53.4,112.6,3.8,112.6,3.8,112.6z M54.1,75.9h90.4v-2.7h1.6h7.9h8.9
		h7.9h6.1h7.9h1.3v1.3h26.7v-9.8h8v-0.4c0-4.2-3-7.8-7-8.6c4-0.8,7-4.3,7-8.6v-0.4h-8V39h20c0.2,5,4.4,9,9.4,9h0.4v-9h1.1v36.2l0,0
		V76H266c0.4,4.9,4.5,8.7,9.4,8.7h0.4V76h283.5v-3.1h2.5h7.9h8h7.9h5.8h7.9h1.6V76h7.9c0.3,5.6,4.9,10,10.6,10h0.4V76h12.4
		c0.3,5.6,4.9,10,10.6,10h0.4V76h6.3v8.8h0.4c5,0,9.1-3.9,9.4-8.8h22.1c0.4,4.9,4.5,8.7,9.4,8.7h0.4V76h3.6v-1.5h-0.7V3.8h70.6v70.7
		h-0.4V76h215v-2.8h1.6h7.9h8.9h7.9h6.1h7.9h1.3V75h7.3c0.3,5.5,4.9,10,10.6,10h0.4V75h12.4c0.3,5.5,4.9,10,10.6,10h0.4V75h6.3v8.7
		h0.4c5,0,9-3.8,9.4-8.7h22v0.2c0,5.2,4.2,9.4,9.4,9.4h0.4V75h93.9v37.6h-149.9c-0.4-6.6-5.9-11.8-12.5-11.8h-0.4v11.8h-71.7v-11.8
		h-0.4c-6.7,0-12.1,5.2-12.5,11.8H54L54.1,75.9L54.1,75.9z M693.2,74.4H660V26.1h16.5V3.8h16.7V74.4z M690.5,75.9v7.9
		c-4.4-0.2-7.9-3.6-8.3-7.9H690.5z M650.3,75.9h8.3c-0.3,4.4-3.9,7.8-8.3,8V75.9z M675.7,25.4h-16.5v49.1h-10.4V37.9H648V25.4h-6.6
		V3.8h34.3V25.4z M642.5,75.9v9.3c-5.1-0.2-9.2-4.2-9.5-9.3H642.5z M626,74.4v-35h21.3v35.1L626,74.4L626,74.4z M647.3,26.1v11.8
		h-44.8v1.5h22v35.1h-22V3.8h38.2v22.4L647.3,26.1L647.3,26.1z M619.1,75.9v9.3c-5.1-0.2-9.2-4.2-9.5-9.3H619.1z M601,72.1h-1.6V65
		H599c-4,0-7.3,3.2-7.5,7.2h-5.9c-0.2-4-3.5-7.2-7.5-7.2h-0.4v7.2h-8.1c-0.2-4-3.5-7.2-7.5-7.2h-0.4v7.2h-2.5V57.8h20.1v0.1h1.5
		v-3.5H601V72.1z M598.7,72.1h-6.4c0.2-3.5,3-6.2,6.4-6.4V72.1z M584.9,72.1h-6.4v-6.4C582,65.9,584.7,68.7,584.9,72.1z M569,72.1
		h-6.4v-6.4C566,65.9,568.8,68.7,569,72.1z M559.3,18.9h20.1v2.8h-20.1V18.9z M559.3,22.5h20.1v2.6h-20.1V22.5z M559.3,25.8h20.1v3
		h-20.1V25.8z M559.3,29.5h20.1v2.8h-20.1V29.5z M559.3,33.1h20.1v2.6h-20.1V33.1z M559.3,36.4h20.1v3.1h-20.1V36.4z M559.3,40.3
		h20.1v2.8h-20.1V40.3z M559.3,43.9h20.1v2.6h-20.1V43.9z M559.3,47.2h20.1v3h-20.1V47.2z M559.3,51h20.1v2.7h-20.1V51z M559.3,54.4
		h20.1v2.7h-20.1V54.4z M601,53.7h-20.1V51H601V53.7z M601,50.2h-20.1v-3H601V50.2z M601,46.5h-20.1v-2.6H601V46.5z M601,43.2h-20.1
		v-2.8H601V43.2z M601,39.6h-20.1v-3.1H601V39.6z M601,35.7h-20.1v-2.6H601V35.7z M601,32.4h-20.1v-2.8H601V32.4z M601,28.8h-20.1
		v-3H601V28.8z M601,25.1h-20.1v-2.6H601V25.1z M601,21.7h-20.1v-2.8H601V21.7z M601,18.1h-20.1v-0.2h-1.5v0.2h-20.1V3.8H601V18.1z
		 M488.2,74.4h-32.4V3.8h32.4V74.4z M488.9,3.8h68.8v70.7h-68.8L488.9,3.8L488.9,3.8z M455,74.4h-35.7V3.8H455V74.4z M417.8,74.4
		H381V3.8h36.8V74.4z M380.3,74.4h-31.8V3.8h31.8V74.4z M347.7,74.4h-69V3.8h69V74.4z M278,74.4h-33.4V26.1h16.5V3.8H278V74.4z
		 M275.1,75.9v7.9c-4.4-0.2-7.9-3.6-8.3-7.9H275.1z M242,39v8.3c-4.5-0.2-8.1-3.8-8.3-8.3H242z M231.3,37.5V26.1h1.6
		c0.2,5,4.3,9.1,9.4,9.1h0.4v-9.1h1.1v11.3L231.3,37.5L231.3,37.5z M233.7,26.1h8.3v8.3C237.5,34.2,233.9,30.6,233.7,26.1z
		 M260.3,25.4h-16.1h-0.4h-1.1h-9.8h-5.2V3.8h32.6V25.4z M230.6,26.1v11.3h-42.9V3.8H227v22.4L230.6,26.1L230.6,26.1z M212.9,56.3
		c3.9,0.4,7.1,3.6,7.2,7.6h-7.2V56.3z M212.9,47.5h7.2c-0.2,4-3.3,7.2-7.2,7.6V47.5z M186.2,72.4h-1.3v-7.2h-0.4
		c-4,0-7.3,3.2-7.5,7.2h-6.2c-0.2-4-3.5-7.2-7.5-7.2h-0.4v7.2H154c-0.2-4-3.5-7.2-7.5-7.2h-0.4v7.2h-1.6V58.1h20.1v0.1h1.5v-3.5
		h20.1L186.2,72.4L186.2,72.4z M184.2,72.4h-6.4c0.2-3.5,3-6.2,6.4-6.4V72.4z M170.1,72.4h-6.4V66C167.1,66.2,169.9,69,170.1,72.4z
		 M153.3,72.4h-6.4V66C150.3,66.2,153.1,69,153.3,72.4z M144.5,19.2h20.1V22h-20.1V19.2z M186.2,32.7h-20.1v-2.8h20.1V32.7z
		 M186.2,29.1h-20.1v-3h20.1V29.1z M186.2,25.4h-20.1v-2.6h20.1V25.4z M166.1,33.4h20.1V36h-20.1V33.4z M186.2,22h-20.1v-2.8h20.1
		V22z M144.5,22.8h20.1v2.6h-20.1V22.8z M144.5,26.1h20.1v3h-20.1V26.1z M144.5,29.8h20.1v2.8h-20.1V29.8z M144.5,33.4h20.1V36
		h-20.1V33.4z M144.5,36.8h20.1v3.1h-20.1V36.8z M144.5,40.6h20.1v2.8h-20.1V40.6z M144.5,44.2h20.1v2.6h-20.1V44.2z M144.5,47.6
		h20.1v3h-20.1V47.6z M144.5,51.3h20.1V54h-20.1V51.3z M144.5,54.7h20.1v2.7h-20.1V54.7z M186.2,54h-20.1v-2.7h20.1V54z M186.2,50.5
		h-20.1v-3h20.1V50.5z M186.2,46.8h-20.1v-2.6h20.1V46.8z M186.2,43.5h-20.1v-2.8h20.1V43.5z M186.2,39.9h-20.1v-3.1h20.1V39.9z
		 M187.7,39h23.7v34h-23.7V39z M186.2,18.5h-20.1v-0.2h-1.5v0.2h-20.1V3.8h41.7L186.2,18.5L186.2,18.5z M106.6,74.4H74.3V3.8h32.3
		C106.6,3.8,106.6,74.4,106.6,74.4z M107.3,3.8H143v70.7h-35.6L107.3,3.8L107.3,3.8z M1113.6,73.5V3.8h68.9v69.8h-68.9V73.5z
		 M1112.8,73.5h-33.4V26.1h16.5V3.8h16.9V73.5z M1109.9,75.6v8.3c-4.5-0.2-8.1-3.8-8.3-8.3H1109.9z M1069.8,75h8.3
		c-0.4,4.3-3.9,7.7-8.3,7.9V75z M1095.2,25.4h-16.5v48.2h-10.4V37.9h-0.7V25.4h-6.6V3.8h34.3v21.6H1095.2z M1061.9,75v9.2
		c-5-0.2-9.1-4.2-9.4-9.2H1061.9z M1045.5,73.5V39.4h21.3v34.1H1045.5z M1038.5,75v9.2c-5-0.2-9.1-4.2-9.4-9.2H1038.5z M1022.5,73.5
		V39.4h21.4v34.1H1022.5z M1066.7,26.1v11.8h-44.2V3.8h37.6v22.4L1066.7,26.1L1066.7,26.1z M1021,72.4h-1.3v-7.2h-0.4
		c-4,0-7.3,3.2-7.5,7.2h-6.2c-0.2-4-3.5-7.2-7.5-7.2h-0.4v7.2h-8.9c-0.2-4-3.5-7.2-7.5-7.2h-0.4v7.2h-1.6V58.2h20.1v0.1h1.5v-3.5
		h20.1L1021,72.4L1021,72.4z M1019,72.4h-6.4c0.2-3.5,3-6.2,6.4-6.4V72.4z M1004.9,72.4h-6.4V66C1002,66.1,1004.7,68.9,1004.9,72.4z
		 M988.1,72.4h-6.4V66C985.1,66.1,987.9,68.9,988.1,72.4z M979.3,19.3h20.1v2.8h-20.1V19.3z M979.3,22.9h20.1v2.6h-20.1V22.9z
		 M979.3,26.2h20.1v3h-20.1V26.2z M979.3,29.9h20.1v2.8h-20.1V29.9z M979.3,33.5h20.1v2.6h-20.1V33.5z M979.3,36.8h20.1V40h-20.1
		V36.8z M979.3,40.7h20.1v2.8h-20.1V40.7z M979.3,44.3h20.1v2.6h-20.1V44.3z M979.3,47.6h20.1v3h-20.1V47.6z M979.3,51.4h20.1v2.7
		h-20.1V51.4z M979.3,54.8h20.1v2.7h-20.1V54.8z M1021,54.1h-20.1v-2.7h20.1V54.1z M1021,50.6h-20.1v-3h20.1V50.6z M1021,46.9h-20.1
		v-2.6h20.1V46.9z M1021,43.6h-20.1v-2.8h20.1V43.6z M1021,40h-20.1v-3.1h20.1V40z M1021,36.1h-20.1v-2.6h20.1V36.1z M1021,32.8
		h-20.1V30h20.1V32.8z M1021,29.2h-20.1v-3h20.1V29.2z M1021,25.5h-20.1v-2.6h20.1V25.5z M1021,22.1h-20.1v-2.8h20.1V22.1z
		 M1021,18.5h-20.1v-0.2h-1.5v0.2h-20.1V3.8h41.7L1021,18.5L1021,18.5z M941.5,74.4h-31.8V3.8h31.8V74.4z M942.3,3.8h35.5v70.7
		h-35.5V3.8z M909,74.4h-36.8V3.8H909V74.4z M871.4,74.4H835V3.8h36.4V74.4z M833.5,74.4h-33.4V3.8h33.4V74.4z M799.3,74.4h-33.8
		V3.8h33.8V74.4z M1042.4,112.6v-11.1c6.1,0.2,11,5,11.4,11.1H1042.4z M969.2,112.6h-11.4c0.4-6,5.3-10.9,11.4-11.1V112.6z
		 M906.3,130.2h-33.1v-16.1h33.1V130.2z M175.5,114.1v64.8H142v-64.8C142,114.1,175.5,114.1,175.5,114.1z M176.3,114.1H244v64.8
		h-67.7V114.1z M244.7,114.1H279v64.8h-34.2v-64.8H244.7z M279.7,114.1h33.8v64.8h-33.8V114.1z M314.2,114.1H347v64.8h-32.8V114.1z
		 M347.8,114.1H382v64.8h-34.3L347.8,114.1L347.8,114.1z M382.8,114.1H416v64.8h-33.2V114.1z M417.5,114.1h38.6v64.8h-38.6V114.1z
		 M456.9,114.1h67.3v64.8h-67.3L456.9,114.1L456.9,114.1z M525,114.1h69.2v64.8H525V114.1z M594.9,114.1h33.3v64.8h-33.3V114.1z
		 M629,114.1h33.9v64.8H629V114.1z M663.6,114.1h32.8v64.8h-32.8V114.1z M697.2,114.1h34.4v64.8h-34.4V114.1z M732.3,114.1h32.3
		v64.8h-32.3V114.1z M835,114.1h37.4v64.8H835V114.1z M873.2,131h33.1v47.9h-33.1V131z M907,114.1h69v64.8h-69V114.1z M976.7,114.1
		h85.4v64.8h-85.4L976.7,114.1L976.7,114.1z M1062.9,114.1h50.9v64.8h-50.9V114.1z M1114.6,114.1h33.2v64.8h-33.2V114.1z
		 M1148.5,114.1h35.3v64.8h-35.3V114.1z M1184.5,114.1h32.8v64.8h-32.8V114.1z M1205.3,112.6V75h49.1v37.6H1205.3z M73.5,3.8v70.7
		H3.8V3.8H73.5z M3.8,114.1h137.5v64.8H3.8V114.1z M1218,178.9v-64.8h36.3v64.8H1218z"/>
</g>
<g id="eventSpot">
	<rect id="sala612" x="906.6" y="113.4" class="eventColor" width="155.7" height="67.4"/>
</g>
<g id="guideSpot">
	<circle id="E-6-D63" class="wireColor" cx="1007.1" cy="99" r="5.1"/>
	<circle id="E-6-D62" class="wireColor" cx="592.3" cy="98.6" r="5.1"/>
	<circle id="E-6-D61" class="wireColor" cx="173.9" cy="98.6" r="5.1"/>
</g>
</svg>
