<?xml version="1.0" encoding="utf-8"?>
<!-- Generator: Adobe Illustrator 20.0.0, SVG Export Plug-In . SVG Version: 6.00 Build 0)  -->
<svg version="1.1" xmlns="http://www.w3.org/2000/svg" xmlns:xlink="http://www.w3.org/1999/xlink" x="0px" y="0px"
	 viewBox="0 0 460 508.7" style="enable-background:new 0 0 460 508.7;" xml:space="preserve">
<style type="text/css">.wireColor{fill: #777777;}.nofloorColor{fill: #F2F2F2;}.arrowColor{fill: #EA5906;}.eventColor{opacity: 0.3; fill: #F59E16; transition: 1s fill;}.wcColor{opacity: 0.3; fill: #3693B2;}.stairsColor{opacity: 0.3; fill: #73cc15;}.transparentObject{fill: 0;}.riverColor{fill: #B9DDEF;}.mapElements{fill: #E2E2E2;}.tramColor{fill: #73CC15;}.mapArrows{fill: #BFBFBF;}.buildingFill{fill: #E5E5E5;}.eventColor.active{opacity: 0.3; fill: red; -webkit-animation: alertOpacity 2s infinite alternate; animation: alertOpacity 2s infinite alternate;}@-webkit-keyframes alertOpacity{0%{opacity: 0.3;}50%{opacity: 0.5;}100%{opacity: 0.3;}}@keyframes alertOpacity{0%{opacity: 0.3;}50%{opacity: 0.5;}100%{opacity: 0.3;}}#guideSpot .eventColor.active{fill: red; opacity: 1; r: 10; transform-origin: 150px 150px; -webkit-transform-origin: 50% 50%; -webkit-animation: alertScale 2s infinite alternate; animation: alertScale 2s infinite alternate;}@-webkit-keyframes alertScale{0%{-webkit-transform: scale(1, 1);}50%{-webkit-transform: scale(2, 2);}100%{-webkit-transform: scale(1, 1);}}@keyframes alertScale{0%{transform: scale(1, 1);}50%{transform: scale(2, 2);}100%{transform: scale(1, 1);}}</style>
<g id="map_1_">
	<g id="map">
		<g>
			<rect y="477" class="riverColor" width="460" height="14.7"/>
		</g>
		<g>
			<rect x="111.1" class="mapElements" width="72.7" height="67.8"/>
		</g>
		<g>
			<rect x="389.8" y="450" class="mapElements" width="17.3" height="58.7"/>
		</g>
		<g>
			<path class="mapElements" d="M444.6,143v-16.5h-28.1V0H407v126.5h-33l-65.7-17.2V0h-7.9v107.2l-91.8-24V0h-8v83.5L109,98.8l1.5,9.1
				l95-15.9l131.7,34.5H90V0H75.5v127H28v15.5h43.5l69,178v130H151v-95.2h242.5v142.2h10V352.8l56.5-19.3v-11l-55,16.8V143H444.6z
				 M392,343.3H151V319L83,143.5h309V343.3z"/>
		</g>
		<g>
			<polygon class="mapArrows" points="83,125.7 25.7,125.7 25.7,118.7 7.1,135.8 25.7,152.9 25.7,145.8 83,145.8 			"/>
		</g>
		<g>
			<polygon class="mapArrows" points="379.7,145.8 436.9,145.8 436.9,152.9 455.6,135.8 436.9,118.7 436.9,125.7 379.7,125.7 			"/>
		</g>
		<rect x="412.9" y="264" class="mapElements" width="30.5" height="51.6"/>
		<rect x="361.5" y="75.4" class="mapElements" width="30.5" height="32.6"/>
	</g>
	<g id="description_map">
		<g>
			<path class="wireColor" d="M129.8,17.6v1.2h-1.5v-1.3c0-1.2-0.5-2-1.6-2c-1.1,0-1.6,0.7-1.6,2v7.3c0,1.2,0.5,2,1.6,2
				c1.1,0,1.6-0.7,1.6-2V22h-1.4v-1.4h2.9v4c0,2.1-1,3.5-3.1,3.5c-2.1,0-3.1-1.4-3.1-3.5v-7.1c0-2.1,1-3.5,3.1-3.5
				C128.8,14.1,129.8,15.5,129.8,17.6z"/>
			<path class="wireColor" d="M132.7,25.2l-0.5,2.8h-1.4l2.6-13.7h2.2l2.6,13.7h-1.5l-0.5-2.8H132.7z M132.9,23.9h3.1l-1.5-7.9L132.9,23.9
				z"/>
			<path class="wireColor" d="M139.5,28V14.2h1.5v12.3h3.9V28H139.5z"/>
			<path class="wireColor" d="M151,20.3v1.4h-3.4v4.9h4.1V28h-5.7V14.2h5.7v1.4h-4.1v4.7H151z"/>
			<path class="wireColor" d="M156.2,14.2c2.2,0,3.1,1.1,3.1,3.1v1.1c0,1.5-0.5,2.5-1.7,2.8c1.3,0.4,1.7,1.4,1.7,2.9v2.1
				c0,0.6,0,1.2,0.3,1.6H158c-0.2-0.4-0.3-0.7-0.3-1.7v-2.2c0-1.5-0.7-2-2-2h-1.1V28h-1.5V14.2H156.2z M155.8,20.7
				c1.2,0,1.9-0.4,1.9-1.9v-1.3c0-1.2-0.5-1.9-1.6-1.9h-1.5v5.1H155.8z"/>
			<path class="wireColor" d="M162.4,14.2V28h-1.5V14.2H162.4z"/>
			<path class="wireColor" d="M165.5,25.2L165,28h-1.4l2.6-13.7h2.2l2.6,13.7h-1.5l-0.5-2.8H165.5z M165.7,23.9h3.1l-1.5-7.9L165.7,23.9z"
				/>
			<path class="wireColor" d="M133.6,48h-1.5L129.9,37V48h-1.3V34.2h2.1l2.3,11l2.2-11h2.1V48h-1.5v-11L133.6,48z"/>
			<path class="wireColor" d="M140.4,45.2l-0.5,2.8h-1.4l2.6-13.7h2.2l2.6,13.7h-1.5l-0.5-2.8H140.4z M140.6,43.9h3.1l-1.5-7.9L140.6,43.9
				z"/>
			<path class="wireColor" d="M147.1,48V34.2h1.5v12.3h3.9V48H147.1z"/>
			<path class="wireColor" d="M154.7,48V35.6h-2.5v-1.4h6.6v1.4h-2.5V48H154.7z"/>
			<path class="wireColor" d="M160.7,45.2l-0.5,2.8h-1.4l2.6-13.7h2.2l2.6,13.7h-1.5l-0.5-2.8H160.7z M160.9,43.9h3.1l-1.5-7.9L160.9,43.9
				z"/>
		</g>
		<g>
			<path class="wireColor" d="M80.6,29.9c-0.8,0-1.2,0.3-1.2,1c0,0.7,0.5,1,1.2,1H87v0.9h-6.3c-1.3,0-2.1-0.6-2.1-1.9
				c0-1.3,0.8-1.9,2.1-1.9H87v0.9H80.6z"/>
			<path class="wireColor" d="M78.6,33.6H87v0.9h-7.5v2.4h-0.8V33.6z"/>
			<path class="wireColor" d="M79.8,38.5h-1.2v-0.9h1.2V38.5z"/>
			<path class="wireColor" d="M87,43.2c0,1.3-0.6,1.8-1.8,1.8h-0.4c-0.9,0-1.4-0.3-1.7-1c-0.2,0.8-0.9,1.1-1.8,1.1h-0.7
				c-1.3,0-2-0.6-2-1.9v-1.9H87V43.2z M79.5,43.2c0,0.7,0.4,1,1.1,1h0.7c0.9,0,1.2-0.4,1.2-1.2v-0.8h-3.1V43.2z M83.4,43
				c0,0.7,0.2,1.1,1.1,1.1H85c0.7,0,1.1-0.3,1.1-0.9v-0.9h-2.7V43z"/>
			<path class="wireColor" d="M80.3,46.9l-1.7-0.3v-0.9l8.3,1.6v1.3l-8.3,1.6v-0.9l1.7-0.3V46.9z M81.1,47.1v1.9l4.8-0.9L81.1,47.1z"/>
			<path class="wireColor" d="M87,52.9c0,1.3-0.7,1.9-1.9,1.9h-0.7c-0.9,0-1.5-0.3-1.7-1c-0.2,0.8-0.8,1-1.7,1h-1.3c-0.4,0-0.7,0-1,0.2V54
				c0.2-0.1,0.5-0.2,1-0.2H81c0.9,0,1.2-0.4,1.2-1.2V52h-3.6V51H87V52.9z M83.1,52.6c0,0.7,0.2,1.2,1.1,1.2H85c0.8,0,1.1-0.3,1.1-1
				V52h-3.1V52.6z"/>
			<path class="wireColor" d="M80.3,56.7l-1.7-0.3v-0.9l8.3,1.6v1.3L78.6,60v-0.9l1.7-0.3V56.7z M81.1,56.8v1.9l4.8-0.9L81.1,56.8z"/>
			<path class="wireColor" d="M78.6,61.6v-0.8H87v1.2l-6,1.9h6v0.8h-8.3v-1l6.7-2.1H78.6z"/>
			<path class="wireColor" d="M87,66.6h-8.3v-0.9H87V66.6z"/>
			<path class="wireColor" d="M80.3,68.5l-1.7-0.3v-0.9l8.3,1.6v1.3l-8.3,1.6v-0.9l1.7-0.3V68.5z M81.1,68.6v1.9l4.8-0.9L81.1,68.6z"/>
			<path class="wireColor" d="M82.3,74l-0.8-0.5h-2.8v-0.9H87v0.9h-4l4,2.2v0.9l-3.8-2.1l-4.5,2.2v-1L82.3,74z"/>
			<path class="wireColor" d="M80.3,78.4L78.6,78v-0.9l8.3,1.6v1.3l-8.3,1.6v-0.9l1.7-0.3V78.4z M81.1,78.5v1.9l4.8-0.9L81.1,78.5z"/>
		</g>
		<g>
			<path class="wireColor" d="M179.4,137.4c0,0.8,0.3,1.2,1,1.2c0.7,0,1-0.5,1-1.2V131h0.9v6.3c0,1.3-0.6,2.1-1.9,2.1
				c-1.3,0-1.9-0.8-1.9-2.1V131h0.9V137.4z"/>
			<path class="wireColor" d="M183.1,139.4V131h0.9v7.5h2.4v0.8H183.1z"/>
			<path class="wireColor" d="M188,138.2v1.2h-0.9v-1.2H188z"/>
			<path class="wireColor" d="M190.6,138.5c0.2,0,0.3,0,0.5,0c0.6,0,1-0.3,1-1.2V131h0.9v6.3c0,1.6-0.8,2-1.8,2.1c-0.2,0-0.4,0-0.6,0
				V138.5z"/>
			<path class="wireColor" d="M194.8,137.7l-0.3,1.7h-0.9l1.6-8.3h1.3l1.6,8.3h-0.9l-0.3-1.7H194.8z M194.9,136.9h1.9l-0.9-4.8
				L194.9,136.9z"/>
			<path class="wireColor" d="M199.7,139.4h-0.8V131h1.2l1.9,6v-6h0.8v8.3h-1l-2.1-6.7V139.4z"/>
			<path class="wireColor" d="M204.7,137.7l-0.3,1.7h-0.9l1.6-8.3h1.3l1.6,8.3h-0.9l-0.3-1.7H204.7z M204.8,136.9h1.9l-0.9-4.8
				L204.8,136.9z"/>
			<path class="wireColor" d="M212.5,131c1.3,0,1.9,0.8,1.9,2v1c0,1.3-0.6,2-1.9,2h-0.8v3.3h-0.9V131H212.5z M212.4,135.2
				c0.7,0,1-0.3,1-1.1V133c0-0.8-0.3-1.1-1-1.1h-0.9v3.4H212.4z"/>
			<path class="wireColor" d="M215.9,137.7l-0.3,1.7h-0.9l1.6-8.3h1.3l1.6,8.3h-0.9l-0.3-1.7H215.9z M216,136.9h1.9l-0.9-4.8L216,136.9z"
				/>
			<path class="wireColor" d="M222.2,139.4h-1.3l-1.1-8.3h0.9l1,7.1l0.9-7.1h0.9l0.9,7.1l0.9-7.1h0.8l-1.1,8.3h-1.2l-0.8-5.7L222.2,139.4z
				"/>
			<path class="wireColor" d="M228,135.9v2.6h2.4v0.8h-3.3v-2.5l-0.6,0.6v-0.9l0.6-0.6v-5h0.9v4l1.3-1.3v0.9L228,135.9z"/>
			<path class="wireColor" d="M232,137.7l-0.3,1.7h-0.9l1.6-8.3h1.3l1.6,8.3h-0.9l-0.3-1.7H232z M232.1,136.9h1.9l-0.9-4.8L232.1,136.9z"
				/>
			<path class="wireColor" d="M238.9,131v8.3H238V131H238.9z"/>
			<path class="wireColor" d="M240.8,131v8.3h-0.9V131H240.8z"/>
		</g>
		<g>
			<path class="wireColor" d="M100.4,206.4c-0.5,0.2-0.7,0.5-0.6,1c0.2,0.5,0.6,0.5,1.1,0.3l4.3-1.7l0.2,0.6l-4.3,1.6
				c-0.9,0.3-1.6,0.2-1.9-0.7c-0.3-0.9,0.1-1.5,1-1.8l4.3-1.6l0.2,0.6L100.4,206.4z"/>
			<path class="wireColor" d="M100.1,209.5l5.7-2.2l0.2,0.6l-5.1,1.9l0.6,1.6l-0.6,0.2L100.1,209.5z"/>
			<path class="wireColor" d="M102.1,212.5l-0.8,0.3l-0.2-0.6l0.8-0.3L102.1,212.5z"/>
			<path class="wireColor" d="M108.2,213.8c0.3,0.9,0,1.4-0.8,1.7l-0.3,0.1c-0.6,0.2-1,0.2-1.4-0.2c0.1,0.6-0.3,1-0.9,1.2l-0.5,0.2
				c-0.9,0.3-1.5,0.1-1.8-0.8l-0.5-1.3l5.7-2.2L108.2,213.8z M103.1,215.8c0.2,0.5,0.5,0.6,1,0.4l0.5-0.2c0.6-0.2,0.7-0.6,0.5-1.1
				l-0.2-0.6l-2.1,0.8L103.1,215.8z M105.8,214.6c0.2,0.5,0.5,0.7,1,0.5l0.3-0.1c0.5-0.2,0.7-0.5,0.5-0.9l-0.2-0.6l-1.8,0.7
				L105.8,214.6z"/>
			<path class="wireColor" d="M107.2,218.7l-0.6,0.2l-0.5-1.4l-2,0.8l0.7,1.7l-0.6,0.2l-0.9-2.3l5.7-2.2l0.9,2.3l-0.6,0.2l-0.7-1.7
				l-1.9,0.7L107.2,218.7z"/>
			<path class="wireColor" d="M110.5,219.9c0.3,0.9,0,1.4-0.8,1.8l-0.5,0.2c-0.6,0.2-1.1,0.2-1.4-0.3c0,0.6-0.3,0.9-0.9,1.2l-0.9,0.3
				c-0.3,0.1-0.5,0.2-0.6,0.4l-0.2-0.6c0.1-0.1,0.3-0.2,0.6-0.4l0.9-0.3c0.6-0.2,0.7-0.6,0.5-1.1l-0.2-0.4l-2.4,0.9l-0.2-0.6
				l5.7-2.2L110.5,219.9z M107.8,220.8c0.2,0.5,0.5,0.7,1.1,0.5l0.5-0.2c0.5-0.2,0.7-0.5,0.5-1l-0.2-0.6l-2.1,0.8L107.8,220.8z"/>
			<path class="wireColor" d="M111.8,223.2c0.3,0.9,0,1.5-0.9,1.8l-2.9,1.1c-0.9,0.3-1.6,0.1-1.9-0.8l-0.5-1.3l5.7-2.2L111.8,223.2z
				 M106.7,225.1c0.2,0.5,0.5,0.6,1.1,0.4l2.9-1.1c0.5-0.2,0.7-0.5,0.5-1l-0.3-0.7l-4.5,1.7L106.7,225.1z"/>
			<path class="wireColor" d="M109.2,227.3l3.2-2.6l0.3,0.7l-2.5,1.9l3.1-0.2l0.2,0.6l-4.1,0.2l-2,0.8l-0.2-0.6L109.2,227.3z"/>
			<path class="wireColor" d="M113.3,231.1l-0.5,0.2l-0.2-0.6l0.5-0.2c0.5-0.2,0.7-0.5,0.6-1c-0.2-0.5-0.6-0.5-1.1-0.4l-3,1.1
				c-0.5,0.2-0.7,0.5-0.6,1c0.2,0.5,0.6,0.5,1.1,0.4l0.7-0.3l0.2,0.6l-0.7,0.3c-0.9,0.3-1.6,0.1-1.9-0.7c-0.3-0.9,0.1-1.5,0.9-1.8
				l2.9-1.1c0.9-0.3,1.6-0.1,1.9,0.7C114.5,230.2,114.1,230.8,113.3,231.1z"/>
			<path class="wireColor" d="M112,233l-2.6,1l-0.2-0.6l5.7-2.2l0.2,0.6l-2.6,1l0.5,1.4l2.6-1l0.2,0.6l-5.7,2.2l-0.2-0.6l2.6-1L112,233z"
				/>
			<path class="wireColor" d="M114.7,235c0.9-0.3,1.6-0.1,1.9,0.8c0.3,0.9-0.1,1.5-0.9,1.8l-2.9,1.1c-0.9,0.3-1.6,0.1-1.9-0.8
				c-0.3-0.9,0.1-1.5,0.9-1.8L114.7,235z M112,236.7c-0.5,0.2-0.7,0.5-0.6,1c0.2,0.5,0.6,0.6,1.1,0.4l3-1.1c0.5-0.2,0.7-0.5,0.6-1
				c-0.2-0.5-0.6-0.6-1.1-0.4L112,236.7z"/>
			<path class="wireColor" d="M112.2,241.3l-0.3-0.9l5.4-2.9l0.2,0.6l-4.6,2.5l5.1-1.2l0.2,0.6l-4.6,2.5l5.1-1.2l0.2,0.6l-6,1.4l-0.3-0.8
				l3.6-2L112.2,241.3z"/>
			<path class="wireColor" d="M117.7,242.8c0.9-0.3,1.6-0.1,1.9,0.8c0.3,0.9-0.1,1.5-0.9,1.9l-2.9,1.1c-0.9,0.3-1.6,0.1-1.9-0.8
				c-0.3-0.9,0.1-1.5,0.9-1.8L117.7,242.8z M115,244.6c-0.5,0.2-0.7,0.5-0.6,1c0.2,0.5,0.6,0.6,1.1,0.4l3-1.1c0.5-0.2,0.7-0.5,0.6-1
				c-0.2-0.5-0.6-0.6-1.1-0.4L115,244.6z"/>
		</g>
		<g>
			<path class="wireColor" d="M23.8,131.5c1.4,0,2,0.7,2,2v0.7c0,1-0.3,1.6-1.1,1.8c0.8,0.2,1.1,0.9,1.1,1.8v1.4c0,0.4,0,0.8,0.2,1.1h-1
				c-0.1-0.3-0.2-0.5-0.2-1.1v-1.4c0-1-0.5-1.3-1.3-1.3h-0.7v3.8h-1v-8.9H23.8z M23.6,135.7c0.8,0,1.3-0.3,1.3-1.2v-0.8
				c0-0.8-0.3-1.2-1-1.2h-1v3.3H23.6z"/>
			<path class="wireColor" d="M26.7,133.6c0-1.4,0.7-2.2,2-2.2c1.4,0,2,0.9,2,2.2v4.6c0,1.3-0.7,2.2-2,2.2c-1.4,0-2-0.9-2-2.2V133.6z
				 M27.7,138.3c0,0.8,0.3,1.3,1,1.3c0.7,0,1-0.5,1-1.3v-4.7c0-0.8-0.3-1.3-1-1.3c-0.7,0-1,0.5-1,1.3V138.3z"/>
			<path class="wireColor" d="M32.6,140.4h-0.9v-8.9H33l2,6.4v-6.4h0.9v8.9h-1l-2.3-7.2V140.4z"/>
			<path class="wireColor" d="M39,131.5c1.4,0,2,0.8,2,2.2v4.5c0,1.4-0.6,2.2-2,2.2h-2.1v-8.9H39z M39,139.5c0.7,0,1-0.4,1-1.3v-4.6
				c0-0.8-0.3-1.3-1.1-1.3h-1.1v7.1H39z"/>
			<path class="wireColor" d="M41.8,133.6c0-1.4,0.7-2.2,2-2.2c1.4,0,2,0.9,2,2.2v4.6c0,1.3-0.7,2.2-2,2.2c-1.4,0-2-0.9-2-2.2V133.6z
				 M42.8,138.3c0,0.8,0.3,1.3,1,1.3c0.7,0,1-0.5,1-1.3v-4.7c0-0.8-0.3-1.3-1-1.3c-0.7,0-1,0.5-1,1.3V138.3z"/>
			<path class="wireColor" d="M52.6,133.6v0.2h-0.9v-0.3c0-0.8-0.3-1.3-1-1.3c-0.7,0-1,0.5-1,1.3c0,2,3,2.2,3,4.7c0,1.3-0.6,2.2-2,2.2
				s-2-0.9-2-2.2v-0.5h0.9v0.6c0,0.8,0.3,1.3,1,1.3c0.7,0,1-0.5,1-1.3c0-2-3-2.2-3-4.7c0-1.4,0.6-2.2,2-2.2
				C52,131.4,52.6,132.3,52.6,133.6z M51.9,129.7l-1.2,1.3h-0.7l0.9-1.3H51.9z"/>
			<path class="wireColor" d="M55.5,131.5c1.4,0,2,0.7,2,2v0.7c0,1-0.3,1.6-1.1,1.8c0.8,0.2,1.1,0.9,1.1,1.8v1.4c0,0.4,0,0.8,0.2,1.1h-1
				c-0.1-0.3-0.2-0.5-0.2-1.1v-1.4c0-1-0.5-1.3-1.3-1.3h-0.7v3.8h-1v-8.9H55.5z M55.2,135.7c0.8,0,1.3-0.3,1.3-1.2v-0.8
				c0-0.8-0.3-1.2-1-1.2h-1v3.3H55.2z"/>
			<path class="wireColor" d="M62.5,133.6v4.6c0,1.3-0.7,2.2-2,2.2c-1.4,0-2-0.9-2-2.2v-4.6c0-1.4,0.7-2.2,2-2.2
				C61.8,131.4,62.5,132.3,62.5,133.6z M59.4,133.6v4.7c0,0.8,0.3,1.3,1,1.3c0.7,0,1-0.5,1-1.3v-4.7c0-0.8-0.3-1.3-1-1.3
				C59.7,132.3,59.4,132.8,59.4,133.6z M61.7,129.7l-1.2,1.3h-0.7l0.9-1.3H61.7z"/>
			<path class="wireColor" d="M65.5,131.5c1.4,0,2,0.8,2,2.2v4.5c0,1.4-0.6,2.2-2,2.2h-2.1v-8.9H65.5z M65.5,139.5c0.7,0,1-0.4,1-1.3v-4.6
				c0-0.8-0.3-1.3-1.1-1.3h-1.1v7.1H65.5z"/>
			<path class="wireColor" d="M69.9,136.5l-0.5,0.9v3h-1v-8.9h1v4.3l2.4-4.3h1l-2.2,4l2.3,4.8h-1L69.9,136.5z"/>
			<path class="wireColor" d="M74.6,138.6l-0.3,1.8h-0.9l1.7-8.9h1.4l1.7,8.9h-1l-0.3-1.8H74.6z M74.7,137.7h2l-1-5.1L74.7,137.7z"/>
		</g>
		<g>
			<path class="wireColor" d="M389.3,131.5c1.4,0,2,0.7,2,2v0.7c0,1-0.3,1.6-1.1,1.8c0.8,0.2,1.1,0.9,1.1,1.8v1.4c0,0.4,0,0.8,0.2,1.1h-1
				c-0.1-0.3-0.2-0.5-0.2-1.1v-1.4c0-1-0.5-1.3-1.3-1.3h-0.7v3.8h-1v-8.9H389.3z M389.1,135.7c0.8,0,1.3-0.3,1.3-1.2v-0.8
				c0-0.8-0.3-1.2-1-1.2h-1v3.3H389.1z"/>
			<path class="wireColor" d="M392.3,133.6c0-1.4,0.7-2.2,2-2.2c1.4,0,2,0.9,2,2.2v4.6c0,1.3-0.7,2.2-2,2.2c-1.4,0-2-0.9-2-2.2V133.6z
				 M393.2,138.3c0,0.8,0.3,1.3,1,1.3c0.7,0,1-0.5,1-1.3v-4.7c0-0.8-0.3-1.3-1-1.3c-0.7,0-1,0.5-1,1.3V138.3z"/>
			<path class="wireColor" d="M398.1,140.4h-0.9v-8.9h1.3l2,6.4v-6.4h0.9v8.9h-1l-2.3-7.2V140.4z"/>
			<path class="wireColor" d="M404.5,131.5c1.4,0,2,0.8,2,2.2v4.5c0,1.4-0.6,2.2-2,2.2h-2.1v-8.9H404.5z M404.5,139.5c0.7,0,1-0.4,1-1.3
				v-4.6c0-0.8-0.3-1.3-1.1-1.3h-1.1v7.1H404.5z"/>
			<path class="wireColor" d="M407.4,133.6c0-1.4,0.7-2.2,2-2.2c1.4,0,2,0.9,2,2.2v4.6c0,1.3-0.7,2.2-2,2.2c-1.4,0-2-0.9-2-2.2V133.6z
				 M408.3,138.3c0,0.8,0.3,1.3,1,1.3c0.7,0,1-0.5,1-1.3v-4.7c0-0.8-0.3-1.3-1-1.3c-0.7,0-1,0.5-1,1.3V138.3z"/>
			<path class="wireColor" d="M416.3,131.5c1.4,0,2,0.7,2,2v0.7c0,1-0.3,1.6-1.1,1.8c0.8,0.2,1.1,0.9,1.1,1.8v1.4c0,0.4,0,0.8,0.2,1.1h-1
				c-0.1-0.3-0.2-0.5-0.2-1.1v-1.4c0-1-0.5-1.3-1.3-1.3h-0.7v3.8h-1v-8.9H416.3z M416,135.7c0.8,0,1.3-0.3,1.3-1.2v-0.8
				c0-0.8-0.3-1.2-1-1.2h-1v3.3H416z"/>
			<path class="wireColor" d="M420.3,138.6l-0.3,1.8H419l1.7-8.9h1.4l1.7,8.9h-1l-0.3-1.8H420.3z M420.4,137.7h2l-1-5.1L420.4,137.7z"/>
			<path class="wireColor" d="M425.9,140.4v-8h-1.6v-0.9h4.3v0.9h-1.6v8H425.9z"/>
			<path class="wireColor" d="M429.7,138.6l-0.3,1.8h-0.9l1.7-8.9h1.4l1.7,8.9h-1l-0.3-1.8H429.7z M429.9,137.7h2l-1-5.1L429.9,137.7z"/>
			<path class="wireColor" d="M433.8,139.5c0.2,0,0.3,0,0.5,0c0.6,0,1-0.3,1-1.2v-6.7h1v6.7c0,1.7-0.8,2.2-1.9,2.2c-0.2,0-0.4,0-0.6,0
				V139.5z"/>
			<path class="wireColor" d="M440.5,135.4v0.9h-2.2v3.1h2.7v0.9h-3.6v-8.9h3.6v0.9h-2.7v3H440.5z"/>
		</g>
		<g>
			<path class="wireColor" d="M249.4,351.3c0,0.6,0.3,1,0.8,1c0.6,0,0.8-0.4,0.8-1v-5.5h0.7v5.4c0,1.1-0.5,1.8-1.6,1.8
				c-1.1,0-1.6-0.7-1.6-1.8v-5.4h0.8V351.3z"/>
			<path class="wireColor" d="M252.6,353v-7.2h0.8v6.4h2v0.7H252.6z"/>
			<path class="wireColor" d="M256.8,352v1H256v-1H256.8z"/>
			<path class="wireColor" d="M260.8,345.8c1.1,0,1.6,0.7,1.6,1.8v0.9c0,1.1-0.5,1.7-1.7,1.7H260v2.8h-0.8v-7.2H260.8z M260.7,349.4
				c0.6,0,0.9-0.3,0.9-1v-1c0-0.7-0.2-1-0.8-1H260v2.9H260.7z"/>
			<path class="wireColor" d="M263.8,345.8v7.2H263v-7.2H263.8z"/>
			<path class="wireColor" d="M264.6,347.6c0-1.1,0.5-1.8,1.6-1.8c1.1,0,1.6,0.7,1.6,1.8v3.7c0,1.1-0.5,1.8-1.6,1.8
				c-1.1,0-1.6-0.7-1.6-1.8V347.6z M265.4,351.3c0,0.7,0.3,1,0.8,1c0.6,0,0.8-0.4,0.8-1v-3.8c0-0.6-0.3-1-0.8-1
				c-0.6,0-0.8,0.4-0.8,1V351.3z"/>
			<path class="wireColor" d="M269.7,353v-6.4h-1.3v-0.7h3.4v0.7h-1.3v6.4H269.7z"/>
			<path class="wireColor" d="M274,345.8c1.1,0,1.6,0.6,1.6,1.6v0.6c0,0.8-0.3,1.3-0.9,1.5c0.7,0.2,0.9,0.7,0.9,1.5v1.1
				c0,0.3,0,0.6,0.1,0.9h-0.8c-0.1-0.2-0.1-0.4-0.1-0.9V351c0-0.8-0.4-1.1-1-1.1h-0.6v3.1h-0.8v-7.2H274z M273.8,349.2
				c0.6,0,1-0.2,1-1v-0.7c0-0.6-0.2-1-0.8-1h-0.8v2.7H273.8z"/>
			<path class="wireColor" d="M276.3,347.6c0-1.1,0.5-1.8,1.6-1.8c1.1,0,1.6,0.7,1.6,1.8v3.7c0,1.1-0.5,1.8-1.6,1.8
				c-1.1,0-1.6-0.7-1.6-1.8V347.6z M277.1,351.3c0,0.7,0.3,1,0.8,1c0.6,0,0.8-0.4,0.8-1v-3.8c0-0.6-0.3-1-0.8-1
				c-0.6,0-0.8,0.4-0.8,1V351.3z"/>
			<path class="wireColor" d="M282.3,353h-1.1l-1-7.2h0.8l0.8,6.1l0.8-6.1h0.8l0.8,6.1l0.8-6.1h0.7l-1,7.2h-1.1l-0.7-4.9L282.3,353z"/>
			<path class="wireColor" d="M286.3,347.6c0-1.1,0.5-1.8,1.6-1.8c1.1,0,1.6,0.7,1.6,1.8v3.7c0,1.1-0.5,1.8-1.6,1.8
				c-1.1,0-1.6-0.7-1.6-1.8V347.6z M287.1,351.3c0,0.7,0.3,1,0.8,1c0.6,0,0.8-0.4,0.8-1v-3.8c0-0.6-0.3-1-0.8-1
				c-0.6,0-0.8,0.4-0.8,1V351.3z"/>
		</g>
		<g>
			<path class="wireColor" d="M402.7,503.1v0.8l-5.7,1.2h5.7v0.7h-7.2v-1.1l5.7-1.2l-5.7-1.1v-1.1h7.2v0.8h-5.8L402.7,503.1z"/>
			<path class="wireColor" d="M397.3,500.4c-1.1,0-1.8-0.5-1.8-1.6c0-1.1,0.7-1.6,1.8-1.6h3.7c1.1,0,1.8,0.5,1.8,1.6
				c0,1.1-0.7,1.6-1.8,1.6H397.3z M401,499.7c0.7,0,1-0.3,1-0.8c0-0.6-0.4-0.8-1-0.8h-3.8c-0.6,0-1,0.3-1,0.8c0,0.6,0.4,0.8,1,0.8
				H401z"/>
			<path class="wireColor" d="M397.3,493.3h0.2v0.8h-0.2c-0.6,0-1,0.2-1,0.8c0,0.6,0.4,0.8,1,0.8c1.6,0,1.8-2.4,3.8-2.4
				c1.1,0,1.8,0.5,1.8,1.6s-0.7,1.6-1.8,1.6h-0.4v-0.7h0.5c0.6,0,1-0.3,1-0.8s-0.4-0.8-1-0.8c-1.6,0-1.8,2.4-3.8,2.4
				c-1.1,0-1.8-0.5-1.8-1.6C395.5,493.8,396.2,493.3,397.3,493.3z"/>
			<path class="wireColor" d="M402.7,491.5h-6.4v1.3h-0.7v-3.4h0.7v1.3h6.4V491.5z"/>
			<path class="wireColor" d="M394.1,484.7l1.1,1v0.6l-1.1-0.7V484.7z M397.3,484.2h0.2v0.8h-0.2c-0.6,0-1,0.2-1,0.8c0,0.6,0.4,0.8,1,0.8
				c1.6,0,1.8-2.4,3.8-2.4c1.1,0,1.8,0.5,1.8,1.6s-0.7,1.6-1.8,1.6h-0.4v-0.7h0.5c0.6,0,1-0.3,1-0.8s-0.4-0.8-1-0.8
				c-1.6,0-1.8,2.4-3.8,2.4c-1.1,0-1.8-0.5-1.8-1.6C395.5,484.7,396.2,484.2,397.3,484.2z"/>
			<path class="wireColor" d="M402.7,481.6v1.1l-7.2,1v-0.8l6.1-0.8l-6.1-0.8v-0.8l6.1-0.8l-6.1-0.8v-0.7l7.2,1v1.1l-4.9,0.7L402.7,481.6z
				"/>
			<path class="wireColor" d="M401.7,477.1h1v0.8h-1V477.1z"/>
			<path class="wireColor" d="M395.5,473.1c0-1.1,0.6-1.6,1.6-1.6h0.6c0.8,0,1.3,0.3,1.5,0.9c0.2-0.7,0.7-0.9,1.5-0.9h1.1
				c0.3,0,0.6,0,0.9-0.1v0.8c-0.2,0.1-0.4,0.1-0.9,0.1h-1.1c-0.8,0-1.1,0.4-1.1,1v0.6h3.1v0.8h-7.2V473.1z M398.9,473.3
				c0-0.6-0.2-1-1-1h-0.7c-0.6,0-1,0.2-1,0.8v0.8h2.7V473.3z"/>
			<path class="wireColor" d="M397.3,470.8c-1.1,0-1.8-0.5-1.8-1.6c0-1.1,0.7-1.6,1.8-1.6h3.7c1.1,0,1.8,0.5,1.8,1.6
				c0,1.1-0.7,1.6-1.8,1.6H397.3z M401,470c0.7,0,1-0.3,1-0.8c0-0.6-0.4-0.8-1-0.8h-3.8c-0.6,0-1,0.3-1,0.8c0,0.6,0.4,0.8,1,0.8H401
				z"/>
			<path class="wireColor" d="M397.3,463.6h0.6v0.8h-0.7c-0.6,0-1,0.3-1,0.8c0,0.6,0.4,0.8,1,0.8h3.8c0.6,0,1-0.3,1-0.8
				c0-0.6-0.4-0.8-1-0.8h-0.9v-0.8h0.9c1.1,0,1.8,0.5,1.8,1.6c0,1.1-0.7,1.6-1.8,1.6h-3.7c-1.1,0-1.8-0.5-1.8-1.6
				C395.5,464.1,396.2,463.6,397.3,463.6z"/>
			<path class="wireColor" d="M399.5,462h3.2v0.8h-7.2V462h3.2v-1.8h-3.2v-0.8h7.2v0.8h-3.2V462z"/>
			<path class="wireColor" d="M401.3,457.8l1.4,0.3v0.7l-7.2-1.4v-1.2l7.2-1.4v0.8l-1.4,0.3V457.8z M400.6,457.7v-1.6l-4.1,0.8
				L400.6,457.7z"/>
		</g>
		<g>
			<path class="wireColor" d="M305.6,74.9c0.3,0,0.5-0.1,0.5-0.4c0-0.3-0.2-0.4-0.5-0.4h-2.9v-0.4h2.8c0.6,0,0.9,0.3,0.9,0.8
				c0,0.6-0.4,0.8-0.9,0.8h-2.8v-0.4H305.6z"/>
			<path class="wireColor" d="M306.5,73.2h-3.7v-0.4h3.4v-1.1h0.4V73.2z"/>
			<path class="wireColor" d="M306,71h0.5v0.4H306V71z"/>
			<path class="wireColor" d="M302.8,68.9c0-0.6,0.3-0.8,0.9-0.8h0.4c0.6,0,0.9,0.3,0.9,0.9v0.4h1.5v0.4h-3.7V68.9z M304.6,68.9
				c0-0.3-0.1-0.5-0.5-0.5h-0.5c-0.3,0-0.5,0.1-0.5,0.4v0.4h1.5V68.9z"/>
			<path class="wireColor" d="M303.7,67.7c-0.6,0-0.9-0.3-0.9-0.9c0-0.6,0.4-0.9,0.9-0.9h1.9c0.6,0,0.9,0.3,0.9,0.9c0,0.6-0.4,0.9-0.9,0.9
				H303.7z M305.6,67.3c0.3,0,0.5-0.1,0.5-0.4c0-0.3-0.2-0.4-0.5-0.4h-2c-0.3,0-0.5,0.1-0.5,0.4c0,0.3,0.2,0.4,0.5,0.4H305.6z"/>
			<path class="wireColor" d="M306.5,65.6h-3.7v-0.4h3.4v-1.1h0.4V65.6z"/>
			<path class="wireColor" d="M305.7,63.4l0.8,0.1v0.4l-3.7-0.7v-0.6l3.7-0.7v0.4l-0.8,0.1V63.4z M305.4,63.3v-0.8l-2.2,0.4L305.4,63.3z"
				/>
			<path class="wireColor" d="M306.5,61.2v0.4h-3.7V61l2.7-0.9h-2.7v-0.4h3.7v0.4l-3,1H306.5z"/>
			<path class="wireColor" d="M304.9,58.7l0.4,0.2h1.3v0.4h-3.7V59h1.8l-1.8-1v-0.4l1.7,0.9l2-1v0.4L304.9,58.7z"/>
			<path class="wireColor" d="M305.7,56.8l0.8,0.1v0.4l-3.7-0.7V56l3.7-0.7v0.4l-0.8,0.1V56.8z M305.4,56.7v-0.8l-2.2,0.4L305.4,56.7z"/>
		</g>
		<g>
			<path class="wireColor" d="M236.4,96.7c-0.1,0.4,0,0.7,0.3,0.7c0.3,0.1,0.6-0.1,0.7-0.5l0.8-3.3l0.4,0.1l-0.8,3.3
				c-0.2,0.7-0.6,1-1.2,0.9c-0.7-0.2-0.9-0.7-0.7-1.3l0.8-3.3l0.5,0.1L236.4,96.7z"/>
			<path class="wireColor" d="M238,98.2l1.1-4.3l0.5,0.1l-1,3.9l1.2,0.3l-0.1,0.4L238,98.2z"/>
			<path class="wireColor" d="M240.7,98.2l-0.1,0.6l-0.5-0.1l0.1-0.6L240.7,98.2z"/>
			<path class="wireColor" d="M243.2,97.5l-0.4,0.4l-0.4,1.4l-0.5-0.1l1.1-4.3l0.5,0.1l-0.5,2.1l1.7-1.8l0.5,0.1l-1.6,1.7l0.5,2.6
				l-0.5-0.1L243.2,97.5z"/>
			<path class="wireColor" d="M245.3,99.1l-0.4,0.8l-0.4-0.1l1.9-4.1l0.7,0.2l-0.2,4.5l-0.5-0.1l0-0.9L245.3,99.1z M245.4,98.7l1,0.2
				l0.1-2.6L245.4,98.7z"/>
			<path class="wireColor" d="M247.2,100.5l1.1-4.3l0.5,0.1l-1,3.9l1.2,0.3l-0.1,0.4L247.2,100.5z"/>
			<path class="wireColor" d="M250.8,96.8l-1.1,4.3l-0.5-0.1l1.1-4.3L250.8,96.8z"/>
			<path class="wireColor" d="M252.9,98.4l0,0.1l-0.5-0.1l0-0.1c0.1-0.4,0-0.7-0.3-0.7c-0.3-0.1-0.5,0.1-0.6,0.5c-0.2,1,1.2,1.4,0.9,2.6
				c-0.2,0.7-0.6,1-1.2,0.8c-0.7-0.2-0.9-0.7-0.7-1.3l0.1-0.2l0.4,0.1l-0.1,0.3c-0.1,0.4,0,0.7,0.4,0.7c0.3,0.1,0.6-0.1,0.7-0.5
				c0.2-1-1.2-1.4-0.9-2.6c0.2-0.7,0.6-1,1.2-0.8C252.8,97.2,253,97.8,252.9,98.4z"/>
			<path class="wireColor" d="M253.7,100.1l-0.4,0.4l-0.4,1.4l-0.5-0.1l1.1-4.3l0.5,0.1l-0.5,2.1l1.7-1.8l0.5,0.1l-1.6,1.7l0.5,2.6
				l-0.5-0.1L253.7,100.1z"/>
			<path class="wireColor" d="M255.7,101.7l-0.4,0.8l-0.4-0.1l1.9-4.1l0.7,0.2l-0.2,4.5l-0.5-0.1l0-0.9L255.7,101.7z M255.9,101.3l1,0.2
				l0.1-2.6L255.9,101.3z"/>
		</g>
		<g>
			<path class="wireColor" d="M401,256.8c0.6,0,1-0.3,1-0.8c0-0.6-0.4-0.8-1-0.8h-5.5v-0.7h5.4c1.1,0,1.8,0.5,1.8,1.6
				c0,1.1-0.7,1.6-1.8,1.6h-5.4v-0.8H401z"/>
			<path class="wireColor" d="M402.7,253.6h-7.2v-0.8h6.4v-2h0.7V253.6z"/>
			<path class="wireColor" d="M401.7,249.4h1v0.8h-1V249.4z"/>
			<path class="wireColor" d="M399.6,245.8l0.7,0.4h2.4v0.8h-7.2v-0.8h3.5l-3.5-1.9v-0.8l3.3,1.8l3.9-1.9v0.8L399.6,245.8z"/>
			<path class="wireColor" d="M394,240.3l1.1,1v0.6L394,241V240.3z M397.3,239.6h3.7c1.1,0,1.8,0.5,1.8,1.6c0,1.1-0.7,1.6-1.8,1.6h-3.7
				c-1.1,0-1.8-0.5-1.8-1.6C395.5,240.2,396.2,239.6,397.3,239.6z M397.2,242.1h3.8c0.7,0,1-0.3,1-0.8c0-0.6-0.4-0.8-1-0.8h-3.8
				c-0.6,0-1,0.3-1,0.8C396.2,241.8,396.6,242.1,397.2,242.1z"/>
			<path class="wireColor" d="M395.5,237.3c0-1.1,0.6-1.6,1.6-1.6h0.6c0.8,0,1.3,0.3,1.5,0.9c0.2-0.7,0.7-0.9,1.5-0.9h1.1
				c0.3,0,0.6,0,0.9-0.1v0.8c-0.2,0.1-0.4,0.1-0.9,0.1h-1.1c-0.8,0-1.1,0.4-1.1,1v0.6h3.1v0.8h-7.2V237.3z M398.9,237.5
				c0-0.6-0.2-1-1-1h-0.7c-0.6,0-1,0.2-1,0.8v0.8h2.7V237.5z"/>
			<path class="wireColor" d="M402.7,234.1v0.7h-7.2v-1l5.2-1.7h-5.2v-0.7h7.2v0.8l-5.8,1.8H402.7z"/>
			<path class="wireColor" d="M395.5,229.8h7.2v0.8h-7.2V229.8z"/>
			<path class="wireColor" d="M397.3,225.9h0.6v0.8h-0.7c-0.6,0-1,0.3-1,0.8c0,0.6,0.4,0.8,1,0.8h3.8c0.6,0,1-0.3,1-0.8
				c0-0.6-0.4-0.8-1-0.8h-0.9v-0.8h0.9c1.1,0,1.8,0.5,1.8,1.6c0,1.1-0.7,1.6-1.8,1.6h-3.7c-1.1,0-1.8-0.5-1.8-1.6
				C395.5,226.4,396.2,225.9,397.3,225.9z"/>
			<path class="wireColor" d="M399.6,223.9l0.7,0.4h2.4v0.8h-7.2v-0.8h3.5l-3.5-1.9v-0.8l3.3,1.8l3.9-1.9v0.8L399.6,223.9z"/>
			<path class="wireColor" d="M401.3,220.1l1.4,0.3v0.7l-7.2-1.4v-1.2l7.2-1.4v0.8l-1.4,0.3V220.1z M400.6,220v-1.6l-4.1,0.8L400.6,220z"
				/>
		</g>
	</g>
	<g id="tram">
		<g>
			<g id="Layer_1_79_">
				<path class="tramColor" d="M413.1,94h-1v-0.9h2.2c0.1,0,0.2,0.1,0.2,0.2c0,0.2,0.2,0.3,0.4,0.3s0.4-0.2,0.4-0.3c0-0.5-0.4-0.9-0.9-0.9
					h-5.1c-0.5,0-0.9,0.4-0.9,0.9c0,0.2,0.2,0.3,0.4,0.3c0.2,0,0.3-0.2,0.3-0.3c0-0.1,0.1-0.2,0.2-0.2h2.2V94h-1
					c-1.1,0-2.1,0.9-2.1,2.1v4.2c0,0.5,0.3,0.9,0.8,0.9l-0.7,1.3c-0.1,0.2,0,0.5,0.2,0.6c0.1,0,0.1,0,0.2,0c0.2,0,0.3-0.1,0.4-0.3
					l0.1-0.3h4.6l0.1,0.3c0.1,0.2,0.3,0.3,0.4,0.3c0.1,0,0.1,0,0.2,0c0.2-0.1,0.3-0.4,0.2-0.6l-0.7-1.3c0.4-0.1,0.8-0.5,0.8-0.9
					v-4.2C415.2,94.9,414.2,94,413.1,94z M413.7,100.4c-0.4,0-0.7-0.3-0.7-0.7c0-0.4,0.3-0.7,0.7-0.7c0.4,0,0.7,0.3,0.7,0.7
					C414.3,100,414,100.4,413.7,100.4z M409.2,96.3c0-0.7,0.6-1.3,1.3-1.3h2.6c0.7,0,1.3,0.6,1.3,1.3v1.1c0,0.3-0.2,0.4-0.5,0.4
					h-4.3c-0.3,0-0.5-0.2-0.5-0.4C409.2,97.5,409.2,96.3,409.2,96.3z M409.8,99c0.4,0,0.7,0.3,0.7,0.7c0,0.4-0.3,0.7-0.7,0.7
					s-0.7-0.3-0.7-0.7C409.2,99.3,409.5,99,409.8,99z M409.8,101.9l0.4-0.7h3.2l0.4,0.7H409.8z"/>
			</g>
		</g>
		<g>
			<g id="Layer_1_1_">
				<path class="tramColor" d="M364.3,130.7h-1v-0.9h2.2c0.1,0,0.2,0.1,0.2,0.2c0,0.2,0.2,0.3,0.3,0.3s0.4-0.2,0.4-0.3
					c0-0.5-0.4-0.9-0.9-0.9h-5.1c-0.5,0-0.9,0.4-0.9,0.9c0,0.2,0.2,0.3,0.4,0.3s0.4-0.2,0.4-0.3c0-0.1,0.1-0.2,0.2-0.2h2.2v0.9h-1
					c-1.1,0-2.1,0.9-2.1,2.1v4.2c0,0.5,0.3,0.9,0.8,0.9l-0.7,1.3c-0.1,0.2,0,0.5,0.2,0.6c0.1,0,0.1,0,0.2,0c0.2,0,0.3-0.1,0.4-0.3
					l0.1-0.3h4.6l0.1,0.3c0.1,0.2,0.3,0.3,0.4,0.3c0.1,0,0.1,0,0.2,0c0.2-0.1,0.3-0.4,0.2-0.6l-0.7-1.3c0.4-0.1,0.8-0.5,0.8-0.9
					v-4.2C366.4,131.6,365.5,130.7,364.3,130.7z M364.9,137.1c-0.4,0-0.7-0.3-0.7-0.7c0-0.4,0.3-0.7,0.7-0.7c0.4,0,0.7,0.3,0.7,0.7
					C365.6,136.8,365.3,137.1,364.9,137.1z M360.4,133c0-0.7,0.6-1.3,1.3-1.3h2.6c0.7,0,1.3,0.6,1.3,1.3v1.1c0,0.3-0.2,0.4-0.5,0.4
					h-4.3c-0.3,0-0.5-0.2-0.5-0.4C360.4,134.2,360.4,133,360.4,133z M361.1,135.7c0.4,0,0.7,0.3,0.7,0.7c0,0.4-0.3,0.7-0.7,0.7
					c-0.4,0-0.7-0.3-0.7-0.7C360.4,136,360.7,135.7,361.1,135.7z M361,138.7l0.4-0.7h3.2l0.4,0.7H361z"/>
			</g>
		</g>
		<g>
			<g id="Layer_1_3_">
				<path class="tramColor" d="M55.8,111.7h-1v-0.9h2.2c0.1,0,0.2,0.1,0.2,0.2c0,0.2,0.2,0.3,0.4,0.3c0.2,0,0.3-0.2,0.3-0.3
					c0-0.5-0.4-0.9-0.9-0.9h-5.1c-0.5,0-0.9,0.4-0.9,0.9c0,0.2,0.2,0.3,0.3,0.3c0.2,0,0.4-0.2,0.4-0.3c0-0.1,0.1-0.2,0.2-0.2h2.2
					v0.9h-1c-1.1,0-2.1,0.9-2.1,2.1v4.2c0,0.5,0.3,0.9,0.8,0.9l-0.7,1.3c-0.1,0.2,0,0.5,0.2,0.6c0.1,0,0.1,0,0.2,0
					c0.2,0,0.3-0.1,0.4-0.3l0.1-0.3h4.6l0.1,0.3c0.1,0.2,0.3,0.3,0.4,0.3c0.1,0,0.1,0,0.2,0c0.2-0.1,0.3-0.4,0.2-0.6l-0.7-1.3
					c0.4-0.1,0.8-0.5,0.8-0.9v-4.2C57.9,112.6,57,111.7,55.8,111.7z M56.4,118c-0.4,0-0.7-0.3-0.7-0.7c0-0.4,0.3-0.7,0.7-0.7
					c0.4,0,0.7,0.3,0.7,0.7C57.1,117.7,56.8,118,56.4,118z M51.9,114c0-0.7,0.6-1.3,1.3-1.3h2.6c0.7,0,1.3,0.6,1.3,1.3v1.1
					c0,0.3-0.2,0.4-0.5,0.4h-4.3c-0.3,0-0.5-0.2-0.5-0.4C51.9,115.1,51.9,114,51.9,114z M52.6,116.6c0.4,0,0.7,0.3,0.7,0.7
					c0,0.4-0.3,0.7-0.7,0.7c-0.4,0-0.7-0.3-0.7-0.7C51.9,116.9,52.2,116.6,52.6,116.6z M52.5,119.6l0.4-0.7h3.2l0.4,0.7H52.5z"/>
			</g>
		</g>
		<path class="tramColor" d="M399.9,307.2h-1.1v-1h2.4c0.1,0,0.3,0.1,0.3,0.3c0,0.2,0.2,0.4,0.4,0.4s0.4-0.2,0.4-0.4c0-0.6-0.5-1-1-1h-5.6
			c-0.6,0-1,0.5-1,1c0,0.2,0.2,0.4,0.4,0.4s0.4-0.2,0.4-0.4c0-0.2,0.1-0.3,0.3-0.3h2.4v1h-1.1c-1.3,0-2.3,1-2.3,2.3v4.6
			c0,0.5,0.4,0.9,0.9,1l-0.7,1.4c-0.1,0.3,0,0.6,0.2,0.7c0.1,0.1,0.2,0.1,0.2,0.1c0.2,0,0.4-0.1,0.5-0.3l0.2-0.3h5.1l0.2,0.3
			c0.1,0.2,0.3,0.3,0.5,0.3c0.1,0,0.2,0,0.2-0.1c0.3-0.1,0.4-0.4,0.2-0.7l-0.7-1.4c0.5-0.1,0.9-0.5,0.9-1v-4.6
			C402.2,308.2,401.2,307.2,399.9,307.2z M400.5,314.2c-0.4,0-0.7-0.3-0.7-0.7c0-0.4,0.3-0.7,0.7-0.7c0.4,0,0.7,0.3,0.7,0.7
			C401.3,313.8,400.9,314.2,400.5,314.2z M395.6,309.7c0-0.8,0.6-1.4,1.4-1.4h2.8c0.8,0,1.4,0.6,1.4,1.4v1.3c0,0.3-0.2,0.5-0.5,0.5
			h-4.7c-0.3,0-0.5-0.2-0.5-0.5C395.6,311,395.6,309.7,395.6,309.7z M396.3,312.7c0.4,0,0.7,0.3,0.7,0.7c0,0.4-0.3,0.7-0.7,0.7
			s-0.7-0.3-0.7-0.7C395.6,313,395.9,312.7,396.3,312.7z M396.3,315.9l0.4-0.8h3.5l0.4,0.8H396.3z"/>
	</g>
</g>
<g id="PP_1_">
	<g>
		<polygon class="buildingFill" points="326.3,152.1 326.3,166.3 326.3,180.6 343.8,180.6 343.8,166.3 385,166.3 385,152.1 		"/>
		<path class="wireColor" d="M344.3,181.1h-18.5v-29.5h59.7v15.2h-41.2V181.1z M326.8,180.1h16.5v-14.3h41.2v-13.2h-57.7V180.1z"/>
	</g>
	<g>
		<rect x="324.8" y="192.4" class="buildingFill" width="60.3" height="14.3"/>
		<path class="wireColor" d="M385.6,207.2h-61.3v-15.3h61.3V207.2z M325.3,206.2h59.3v-13.3h-59.3V206.2z"/>
	</g>
	<g>
		<rect x="324.8" y="223.4" class="buildingFill" width="60.3" height="14.3"/>
		<path class="wireColor" d="M385.6,238.2h-61.3v-15.3h61.3V238.2z M325.3,237.2h59.3v-13.3h-59.3V237.2z"/>
	</g>
	<g>
		<polygon class="buildingFill" points="365.6,263.3 365.6,269.4 367.5,269.4 367.5,283.7 342.3,283.7 342.3,269.4 344.1,269.4 344.1,263.3
			328,263.3 328,269.4 328,283.7 328,297.9 381.8,297.9 381.8,283.7 381.8,269.4 381.8,263.3 		"/>
		<path class="wireColor" d="M382.3,298.4h-54.8v-35.6h17.1v7.1h-1.8v13.3H367v-13.3h-1.9v-7.1h17.2V298.4z M328.5,297.4h52.8v-33.6h-15.2
			v5.1h1.9v15.3h-26.2v-15.3h1.8v-5.1h-15.1V297.4z"/>
	</g>
	<g>
		<path class="wireColor" d="M322.6,260.3h-15V247h15V260.3z M308.6,259.3h13V248h-13V259.3z"/>
	</g>
	<g>
		<path class="wireColor" d="M255.1,237.5h-24v-19.1h24V237.5z M232.1,236.5h22v-17.1h-22V236.5z"/>
	</g>
	<g>
		<rect x="223.6" y="152.9" class="buildingFill" width="59.8" height="15.9"/>
		<path class="wireColor" d="M283.9,169.3h-60.8v-16.9h60.8V169.3z M224.1,168.3h58.8v-14.9h-58.8V168.3z"/>
	</g>
	<rect x="156" y="195.5" class="buildingFill" width="46" height="15.3"/>
	<path class="wireColor" d="M194.2,230.1h-0.9h-14.7v33.4v1.1v29.9v1v33h14.7h0.9h14.7v-33v-1v-29.9v-1.1v-33.4H194.2z M179.6,231.1h13.6
		v32.4h-13.6V231.1z M179.6,264.6h13.6v29.9h-13.6V264.6z M193.2,327.5h-13.6v-32h13.6V327.5z M207.9,327.5h-13.6v-32h13.6V327.5z
		 M207.9,294.5h-13.6v-29.9h13.6V294.5z M194.3,263.5v-32.4h13.6v32.4H194.3z"/>
	<g>
		<rect x="270.5" y="212.1" class="buildingFill" width="23.3" height="12.7"/>
		<path class="wireColor" d="M308.8,188.8h-40.7H267h-36.2v23.8H267h1.1h1.9v12.7h24.3v-12.7h14.5V188.8z M267,211.6h-35.2v-21.8H267
			V211.6z M293.3,224.3H271v-11.7h22.3V224.3z M307.8,211.6h-13.5H270h-1.9v-21.8h39.7V211.6z"/>
	</g>
	<g>
		<rect x="280.3" y="400.2" class="buildingFill" width="55" height="25"/>
		<path class="wireColor" d="M335.8,425.6h-56v-25.9h56V425.6z M280.8,424.7h54v-24h-54V424.7z"/>
	</g>
	<g>
		<rect x="354.9" y="408.1" class="mapElements" width="30.5" height="14.6"/>
	</g>
	<g>
		<rect x="347.4" y="424.6" class="mapElements" width="18.4" height="10.6"/>
	</g>
	<g>
		<rect x="354.9" y="390.9" class="mapElements" width="30.5" height="14.6"/>
	</g>
	<g id="WETborder_1_">
		<g>
			<path class="wireColor" d="M294.8,39v52.7h-31.3V71.8h12.3L275.5,39C294.8,39,294.8,39,294.8,39 M295.8,38h-1h-19.3h-1v1l0.3,31.8
				h-11.3h-1v1v19.8v1h1h31.3h1v-1V39V38L295.8,38z"/>
		</g>
	</g>
	<path class="wireColor" d="M206.9,179.3l-5.5-24.4l-0.1-1.1l-1,0.2L138,168.3l-0.8,0.2v0.8v24.3v1.2l1.2-0.2l16.5-3.4v3.9v1h0.6v15.2h47
		v-15.2h0.4v-1v-13.7l3.3-0.9l0.9-0.3L206.9,179.3z M156.5,210.3v-14.2h45v14.2H156.5z M202,180.5V195h-46v-5.1l-17.8,3.6v-24.3
		l62.3-14.2l5.5,24.4L202,180.5z"/>
	<g id="BTborder_2_">
		<g>
			<path class="wireColor" d="M137.6,398.2v14.4h-15.9l3,27.8h7.5l-3.7,14.4H68.9v-14.4h37.9l-1.8-7.8l-20.8,3.3l-2-12.5l20-3.2l-1.7-7.6
				H68.9v-14.4L137.6,398.2 M138.6,397.2h-1H68.9h-1v1v14.4v1h1h30.9l1.3,5.8l-19,3l-1,0.2l0.2,1l2,12.5l0.2,1l1-0.2l19.9-3.1
				l1.3,5.7H68.9h-1v1v14.4v1h1h59.7h0.8l0.2-0.8l3.7-14.4l0.3-1.2h-1.3h-6.6l-2.8-25.8h14.8h1v-1v-14.4L138.6,397.2L138.6,397.2z"
				/>
		</g>
	</g>
	<path class="wireColor" d="M300.9,253.2h-72.8h-1v1v15.5v1h1h10.7V286h0h-4.8h-5.8h-1v1v15.5v1h1h72.8h1v-1V287v-1h-1H266h0v-15.3h34.9h1
		v-1v-15.5v-1H300.9z M300.8,287v15.5H228V287h37h0.3H300.8z M300.9,269.7H266h-1v1V286h-25.2v-15.3v-1h-1h-10.7v-15.5h72.8V269.7z"
		/>
	<path class="wireColor" d="M265.9,399.2h-29.2h-1v1c0,13.3-10.8,24.2-24.2,24.2h-0.9c-13.3,0-24.2-10.8-24.2-24.2v-1h-0.9h-29.2h-1v1
		v56.2v1h1h54.2h0.1h0.9h0.1h54.3h1v-1v-56.2v-1H265.9z M156.4,456.4v-56.2h29.1c0,13.8,11.2,25.1,25,25.2v0v31H156.4z M265.9,456.4
		h-54.3v-31c13.9,0,25.2-11.3,25.2-25.2h29.1V456.4z"/>
</g>
<g id="description">
	<g>
		<path class="wireColor" d="M183,304.9v1.6h-0.4V303h0.4v1.6h0.9V303h0.4v3.6h-0.4v-1.6H183z"/>
		<path class="wireColor" d="M185,305.8l-0.1,0.7h-0.4l0.7-3.6h0.6l0.7,3.6h-0.4l-0.1-0.7H185z M185.1,305.5h0.8l-0.4-2.1L185.1,305.5z"/>
		<path class="wireColor" d="M186.8,306.5V303h0.4v3.2h1v0.4H186.8z"/>
		<path class="wireColor" d="M188.9,305.8l-0.1,0.7h-0.4l0.7-3.6h0.6l0.7,3.6h-0.4l-0.1-0.7H188.9z M188.9,305.5h0.8l-0.4-2.1L188.9,305.5
			z"/>
		<path class="wireColor" d="M184.1,310.7c-0.3,0.2-0.8,0.4-1.2,0.4v-0.8c1,0,1.3-0.6,1.5-1.2h0.7v8.9h-1V310.7z"/>
		<path class="wireColor" d="M190.6,311.2v4.5c0,1.4-0.6,2.3-2.1,2.3c-1.4,0-2-0.9-2-2.2v-0.2h0.9v0.2c0,0.8,0.3,1.3,1.1,1.3
			c0.8,0,1.1-0.5,1.1-1.4v-2c-0.2,0.6-0.7,0.9-1.4,0.9c-1.1,0-1.7-0.8-1.7-2.1v-1.4c0-1.4,0.7-2.2,2-2.2S190.6,309.9,190.6,311.2z
			 M187.5,311.2v1.3c0,0.8,0.3,1.3,1.1,1.3c0.7,0,1.1-0.5,1.1-1.3v-1.3c0-0.8-0.3-1.3-1.1-1.3C187.8,309.9,187.5,310.4,187.5,311.2z
			"/>
	</g>
	<g>
		<path class="wireColor" d="M197.6,304.9v1.6h-0.4v-3.6h0.4v1.6h0.9v-1.6h0.4v3.6h-0.4v-1.6H197.6z"/>
		<path class="wireColor" d="M199.7,305.8l-0.1,0.7h-0.4l0.7-3.6h0.6l0.7,3.6h-0.4l-0.1-0.7H199.7z M199.7,305.4h0.8l-0.4-2.1L199.7,305.4
			z"/>
		<path class="wireColor" d="M201.4,306.5v-3.6h0.4v3.2h1v0.4H201.4z"/>
		<path class="wireColor" d="M203.5,305.8l-0.1,0.7H203l0.7-3.6h0.6l0.7,3.6h-0.4l-0.1-0.7H203.5z M203.6,305.4h0.8l-0.4-2.1L203.6,305.4z
			"/>
		<path class="wireColor" d="M200.6,311.2c0,2.7-3,3.6-3,5.7v0.1h2.9v0.9h-3.9v-0.8c0-2.9,3-3.4,3-5.9c0-0.9-0.3-1.4-1-1.4
			c-0.7,0-1,0.5-1,1.3v0.8h-0.9v-0.7c0-1.4,0.6-2.3,2-2.3C199.9,308.9,200.6,309.8,200.6,311.2z"/>
		<path class="wireColor" d="M205.1,316.1v1.8h-1v-1.8h-2.9v-0.9l2.8-6.2h1.1v6.2h0.7v0.9H205.1z M202.2,315.2h2v-4.3L202.2,315.2z"/>
	</g>
	<g>
		<path class="wireColor" d="M183,274.6v1.6h-0.4v-3.6h0.4v1.6h0.9v-1.6h0.4v3.6h-0.4v-1.6H183z"/>
		<path class="wireColor" d="M185,275.5l-0.1,0.7h-0.4l0.7-3.6h0.6l0.7,3.6h-0.4l-0.1-0.7H185z M185.1,275.2h0.8l-0.4-2.1L185.1,275.2z"/>
		<path class="wireColor" d="M186.8,276.2v-3.6h0.4v3.2h1v0.4H186.8z"/>
		<path class="wireColor" d="M188.9,275.5l-0.1,0.7h-0.4l0.7-3.6h0.6l0.7,3.6h-0.4l-0.1-0.7H188.9z M188.9,275.2h0.8l-0.4-2.1L188.9,275.2
			z"/>
		<path class="wireColor" d="M186,280.9c0,2.7-3,3.6-3,5.7v0.1h2.9v0.9H182v-0.8c0-2.9,3-3.4,3-5.9c0-0.9-0.3-1.4-1-1.4
			c-0.7,0-1,0.5-1,1.3v0.8H182v-0.7c0-1.4,0.6-2.3,2-2.3C185.4,278.7,186,279.6,186,280.9z"/>
		<path class="wireColor" d="M186.8,280.9c0-1.4,0.7-2.2,2-2.2c1.4,0,2,0.9,2,2.2v4.6c0,1.4-0.7,2.2-2,2.2c-1.4,0-2-0.9-2-2.2V280.9z
			 M187.8,285.5c0,0.8,0.3,1.3,1.1,1.3c0.7,0,1.1-0.5,1.1-1.3v-4.7c0-0.8-0.3-1.3-1.1-1.3c-0.7,0-1.1,0.5-1.1,1.3V285.5z"/>
	</g>
	<g>
		<path class="wireColor" d="M197.6,274.6v1.6h-0.4v-3.6h0.4v1.6h0.9v-1.6h0.4v3.6h-0.4v-1.6H197.6z"/>
		<path class="wireColor" d="M199.7,275.4l-0.1,0.7h-0.4l0.7-3.6h0.6l0.7,3.6h-0.4l-0.1-0.7H199.7z M199.7,275.1h0.8l-0.4-2.1L199.7,275.1
			z"/>
		<path class="wireColor" d="M201.4,276.2v-3.6h0.4v3.2h1v0.4H201.4z"/>
		<path class="wireColor" d="M203.5,275.4l-0.1,0.7H203l0.7-3.6h0.6l0.7,3.6h-0.4l-0.1-0.7H203.5z M203.6,275.1h0.8L204,273L203.6,275.1z"
			/>
		<path class="wireColor" d="M200.6,280.8c0,2.7-3,3.6-3,5.7v0.1h2.9v0.9h-3.9v-0.8c0-2.9,3-3.4,3-5.9c0-0.9-0.3-1.4-1-1.4
			c-0.7,0-1,0.5-1,1.3v0.8h-0.9v-0.7c0-1.4,0.6-2.3,2-2.3C200,278.6,200.6,279.5,200.6,280.8z"/>
		<path class="wireColor" d="M205.5,280.8v0.2c0,0.9-0.4,1.6-1.1,1.8c0.7,0.3,1.1,1,1.1,1.8v0.7c0,1.4-0.6,2.2-2,2.2c-1.4,0-2-0.9-2-2.2
			v-0.6h0.9v0.7c0,0.8,0.3,1.3,1,1.3c0.7,0,1-0.5,1-1.4v-0.7c0-0.9-0.4-1.3-1.1-1.3h-0.5v-0.9h0.6c0.7,0,1.1-0.4,1.1-1.2v-0.4
			c0-0.9-0.3-1.4-1-1.4c-0.7,0-1,0.5-1,1.3v0.5h-0.9v-0.4c0-1.4,0.6-2.2,2-2.2C204.9,278.6,205.5,279.5,205.5,280.8z"/>
	</g>
	<g>
		<path class="wireColor" d="M183,241.7v1.6h-0.4v-3.6h0.4v1.6h0.9v-1.6h0.4v3.6h-0.4v-1.6H183z"/>
		<path class="wireColor" d="M185,242.6l-0.1,0.7h-0.4l0.7-3.6h0.6l0.7,3.6h-0.4l-0.1-0.7H185z M185.1,242.3h0.8l-0.4-2.1L185.1,242.3z"/>
		<path class="wireColor" d="M186.8,243.3v-3.6h0.4v3.2h1v0.4H186.8z"/>
		<path class="wireColor" d="M188.9,242.6l-0.1,0.7h-0.4l0.7-3.6h0.6l0.7,3.6h-0.4l-0.1-0.7H188.9z M188.9,242.3h0.8l-0.4-2.1L188.9,242.3
			z"/>
		<path class="wireColor" d="M186.3,248c0,2.7-3,3.6-3,5.7v0.1h2.9v0.9h-3.9V254c0-2.9,3-3.4,3-5.9c0-0.9-0.3-1.4-1-1.4
			c-0.7,0-1,0.5-1,1.3v0.8h-0.9v-0.7c0-1.4,0.6-2.3,2-2.3C185.7,245.8,186.3,246.7,186.3,248z"/>
		<path class="wireColor" d="M189,247.5c-0.3,0.2-0.8,0.4-1.2,0.4v-0.8c1,0,1.3-0.6,1.5-1.2h0.7v8.9h-1V247.5z"/>
	</g>
	<g>
		<path class="wireColor" d="M197.6,241.7v1.6h-0.4v-3.6h0.4v1.6h0.9v-1.6h0.4v3.6h-0.4v-1.6H197.6z"/>
		<path class="wireColor" d="M199.7,242.6l-0.1,0.7h-0.4l0.7-3.6h0.6l0.7,3.6h-0.4l-0.1-0.7H199.7z M199.7,242.2h0.8l-0.4-2.1L199.7,242.2
			z"/>
		<path class="wireColor" d="M201.4,243.3v-3.6h0.4v3.2h1v0.4H201.4z"/>
		<path class="wireColor" d="M203.5,242.6l-0.1,0.7H203l0.7-3.6h0.6l0.7,3.6h-0.4l-0.1-0.7H203.5z M203.6,242.2h0.8l-0.4-2.1L203.6,242.2z
			"/>
		<path class="wireColor" d="M200.6,248c0,2.7-3,3.6-3,5.7v0.1h2.9v0.9h-3.9v-0.8c0-2.9,3-3.4,3-5.9c0-0.9-0.3-1.4-1-1.4
			c-0.7,0-1,0.5-1,1.3v0.8h-0.9V248c0-1.4,0.6-2.3,2-2.3C200,245.7,200.6,246.6,200.6,248z"/>
		<path class="wireColor" d="M205.6,248c0,2.7-3,3.6-3,5.7v0.1h2.9v0.9h-3.9v-0.8c0-2.9,3-3.4,3-5.9c0-0.9-0.3-1.4-1-1.4
			c-0.7,0-1,0.5-1,1.3v0.8h-0.9V248c0-1.4,0.6-2.3,2-2.3C204.9,245.7,205.6,246.6,205.6,248z"/>
	</g>
	<g>
		<path class="wireColor" d="M245.3,194.5v1.9h-0.5v-4.3h0.5v1.9h1v-1.9h0.5v4.3h-0.5v-1.9H245.3z"/>
		<path class="wireColor" d="M247.8,195.5l-0.2,0.9h-0.4l0.8-4.3h0.7l0.8,4.3H249l-0.2-0.9H247.8z M247.8,195.1h1l-0.5-2.5L247.8,195.1z"
			/>
		<path class="wireColor" d="M249.9,196.4v-4.3h0.5v3.8h1.2v0.4H249.9z"/>
		<path class="wireColor" d="M252.4,195.5l-0.2,0.9h-0.4l0.8-4.3h0.7l0.8,4.3h-0.5l-0.2-0.9H252.4z M252.5,195.1h1l-0.5-2.5L252.5,195.1z"
			/>
		<path class="wireColor" d="M246.7,201.4c-0.4,0.2-0.9,0.4-1.5,0.5v-1c1.2,0,1.6-0.7,1.8-1.4h0.8v10.7h-1.2V201.4z"/>
		<path class="wireColor" d="M254.4,202v0.2h-1.1v-0.3c0-1-0.4-1.5-1.3-1.5c-0.9,0-1.3,0.6-1.3,1.7v2.4c0.3-0.7,0.9-1.1,1.7-1.1
			c1.4,0,2,1,2,2.5v1.6c0,1.6-0.8,2.7-2.4,2.7c-1.6,0-2.5-1.1-2.5-2.7v-5.4c0-1.7,0.8-2.7,2.5-2.7
			C253.6,199.3,254.4,200.4,254.4,202z M250.7,206v1.6c0,1,0.4,1.5,1.3,1.5c0.9,0,1.3-0.6,1.3-1.5V206c0-1-0.4-1.5-1.3-1.5
			C251.1,204.5,250.7,205,250.7,206z"/>
	</g>
	<g>
		<path class="wireColor" d="M284,194.8v1.8h-0.5v-4.1h0.5v1.8h1v-1.8h0.5v4.1H285v-1.8H284z"/>
		<path class="wireColor" d="M286.4,195.8l-0.2,0.8h-0.4l0.8-4.1h0.7l0.8,4.1h-0.5l-0.2-0.8H286.4z M286.5,195.4h0.9l-0.5-2.3L286.5,195.4
			z"/>
		<path class="wireColor" d="M288.4,196.7v-4.1h0.5v3.7h1.2v0.4H288.4z"/>
		<path class="wireColor" d="M290.8,195.8l-0.2,0.8h-0.4l0.8-4.1h0.7l0.8,4.1H292l-0.2-0.8H290.8z M290.9,195.4h0.9l-0.5-2.3L290.9,195.4z
			"/>
		<path class="wireColor" d="M285.3,201.4c-0.4,0.2-0.9,0.4-1.4,0.4v-0.9c1.1,0,1.5-0.6,1.7-1.4h0.8v10.2h-1.1V201.4z"/>
		<path class="wireColor" d="M291.6,200.6h-3.5v-1h4.6v1l-2.6,9.2H289L291.6,200.6z"/>
	</g>
	<g>
		<path class="wireColor" d="M240,223v1.4h-0.4v-3.2h0.4v1.4h0.8v-1.4h0.4v3.2h-0.4V223H240z"/>
		<path class="wireColor" d="M241.9,223.8l-0.1,0.6h-0.3l0.6-3.2h0.5l0.6,3.2h-0.4l-0.1-0.6H241.9z M241.9,223.5h0.7l-0.4-1.8L241.9,223.5
			z"/>
		<path class="wireColor" d="M243.4,224.4v-3.2h0.4v2.9h0.9v0.3H243.4z"/>
		<path class="wireColor" d="M245.3,223.8l-0.1,0.6h-0.3l0.6-3.2h0.5l0.6,3.2h-0.4l-0.1-0.6H245.3z M245.4,223.5h0.7l-0.4-1.8L245.4,223.5
			z"/>
		<path class="wireColor" d="M241.1,228.1c-0.3,0.2-0.7,0.3-1.1,0.3v-0.7c0.9,0,1.2-0.5,1.4-1.1h0.6v7.9h-0.9V228.1z"/>
		<path class="wireColor" d="M244.2,229.9c0.2-0.4,0.6-0.7,1.2-0.7c1,0,1.5,0.7,1.5,1.9v1.6c0,1.2-0.6,2-1.8,2c-1.2,0-1.8-0.8-1.8-2v-0.5
			h0.8v0.6c0,0.7,0.3,1.1,0.9,1.1s0.9-0.4,0.9-1.1v-1.5c0-0.7-0.3-1.1-0.9-1.1c-0.5,0-0.8,0.3-0.9,0.8v0.2h-0.8l0.2-4.4h3.1v0.8
			h-2.3L244.2,229.9z"/>
	</g>
	<g>
		<path class="wireColor" d="M313,250.5v1h-0.2v-2.1h0.2v1h0.5v-1h0.2v2.1h-0.2v-1H313z"/>
		<path class="wireColor" d="M314.3,251.1l-0.1,0.4H314l0.4-2.1h0.3l0.4,2.1h-0.2l-0.1-0.4H314.3z M314.3,250.9h0.5l-0.2-1.2L314.3,250.9z
			"/>
		<path class="wireColor" d="M315.3,251.5v-2.1h0.2v1.9h0.6v0.2H315.3z"/>
		<path class="wireColor" d="M316.6,251.1l-0.1,0.4h-0.2l0.4-2.1h0.3l0.4,2.1h-0.2l-0.1-0.4H316.6z M316.6,250.9h0.5l-0.2-1.2L316.6,250.9
			z"/>
		<path class="wireColor" d="M316.3,254.3L316.3,254.3l-0.6,0.1v-0.1c0-0.5-0.2-0.8-0.6-0.8c-0.4,0-0.6,0.3-0.6,0.9v1.2
			c0.1-0.4,0.4-0.6,0.9-0.6c0.7,0,1,0.5,1,1.3v0.8c0,0.8-0.4,1.3-1.2,1.3c-0.8,0-1.2-0.5-1.2-1.3v-2.7c0-0.8,0.4-1.4,1.2-1.4
			C315.9,253,316.3,253.5,316.3,254.3z M314.5,256.3v0.8c0,0.5,0.2,0.8,0.6,0.8c0.4,0,0.6-0.3,0.6-0.8v-0.8c0-0.5-0.2-0.8-0.6-0.8
			C314.7,255.5,314.5,255.8,314.5,256.3z"/>
	</g>
	<g>
		<path class="wireColor" d="M248.2,255.8c0.5,0,0.8,0.3,0.8,0.8v0.2c0,0.4-0.1,0.6-0.4,0.7c0.3,0.1,0.5,0.4,0.5,0.8v0.3
			c0,0.5-0.3,0.8-0.8,0.8h-0.8v-3.5H248.2z M248.1,257.3c0.3,0,0.5-0.1,0.5-0.5v-0.2c0-0.3-0.1-0.5-0.4-0.5h-0.4v1.1H248.1z
			 M248.2,258.9c0.3,0,0.4-0.2,0.4-0.5v-0.3c0-0.4-0.2-0.5-0.5-0.5h-0.3v1.3H248.2z"/>
		<path class="wireColor" d="M249.7,258.5c0,0.3,0.1,0.5,0.4,0.5c0.3,0,0.4-0.2,0.4-0.5v-2.7h0.4v2.7c0,0.5-0.2,0.9-0.8,0.9
			c-0.5,0-0.8-0.4-0.8-0.9v-2.7h0.4V258.5z"/>
		<path class="wireColor" d="M252.1,255.8c0.5,0,0.8,0.3,0.8,0.9v1.8c0,0.5-0.3,0.9-0.8,0.9h-0.8v-3.5H252.1z M252.1,258.9
			c0.3,0,0.4-0.2,0.4-0.5v-1.8c0-0.3-0.1-0.5-0.4-0.5h-0.4v2.8H252.1z"/>
		<path class="wireColor" d="M253.9,258l-0.7-2.3h0.4l0.5,1.7l0.6-1.7h0.4l-0.7,2.3v1.3h-0.4V258z"/>
		<path class="wireColor" d="M255.6,259.3h-0.4v-3.5h0.5l0.8,2.5v-2.5h0.3v3.5h-0.4l-0.9-2.8V259.3z"/>
		<path class="wireColor" d="M258.6,257.3v0.4h-0.9v1.3h1.1v0.4h-1.4v-3.5h1.4v0.4h-1.1v1.2H258.6z"/>
		<path class="wireColor" d="M259.7,257.8l-0.2,0.3v1.2h-0.4v-3.5h0.4v1.7l0.9-1.7h0.4l-0.9,1.6l0.9,1.9h-0.4L259.7,257.8z"/>
		<path class="wireColor" d="M262.9,259.3h-0.5l-0.5-3.5h0.4l0.4,3l0.4-3h0.4l0.4,3l0.4-3h0.3l-0.5,3.5h-0.5l-0.3-2.4L262.9,259.3z"/>
		<path class="wireColor" d="M265.5,258l-0.7-2.3h0.4l0.5,1.7l0.6-1.7h0.4l-0.7,2.3v1.3h-0.4V258z"/>
		<path class="wireColor" d="M267.7,255.8c0.5,0,0.8,0.3,0.8,0.9v1.8c0,0.5-0.3,0.9-0.8,0.9h-0.8v-3.5H267.7z M267.7,258.9
			c0.3,0,0.4-0.2,0.4-0.5v-1.8c0-0.3-0.1-0.5-0.4-0.5h-0.4v2.8H267.7z"/>
		<path class="wireColor" d="M270.5,259.3h-1.6v-0.4l1.2-2.8h-1.1v-0.4h1.6v0.4l-1.2,2.8h1.2V259.3z"/>
		<path class="wireColor" d="M271.2,255.8v3.5h-0.4v-3.5H271.2z"/>
		<path class="wireColor" d="M272,258.6l-0.1,0.7h-0.4l0.7-3.5h0.6l0.7,3.5H273l-0.1-0.7H272z M272.1,258.3h0.8l-0.4-2L272.1,258.3z"/>
		<path class="wireColor" d="M274.2,257.8v1.1h1v0.4h-1.4v-1l-0.3,0.3v-0.4l0.3-0.3v-2.1h0.4v1.7l0.5-0.6v0.4L274.2,257.8z"/>
		<path class="wireColor" d="M275.8,258.5c0,0.3,0.1,0.5,0.4,0.5c0.3,0,0.4-0.2,0.4-0.5v-2.7h0.4v2.7c0,0.5-0.2,0.9-0.8,0.9
			c-0.5,0-0.8-0.4-0.8-0.9v-2.7h0.4V258.5z"/>
		<path class="wireColor" d="M243.8,264.4v0.6h-1.5v2.1h1.8v0.6h-2.4v-5.9h2.4v0.6h-1.8v2H243.8z"/>
		<path class="wireColor" d="M244.8,267.7v-5.9h0.7v5.3h1.7v0.6H244.8z"/>
		<path class="wireColor" d="M249.8,264.4v0.6h-1.5v2.1h1.8v0.6h-2.4v-5.9h2.4v0.6h-1.8v2H249.8z"/>
		<path class="wireColor" d="M251.7,265.1l-0.3,0.6v2h-0.7v-5.9h0.7v2.9l1.6-2.9h0.7l-1.5,2.7l1.6,3.2H253L251.7,265.1z"/>
		<path class="wireColor" d="M255,267.7v-5.3h-1.1v-0.6h2.9v0.6h-1.1v5.3H255z"/>
		<path class="wireColor" d="M258.6,261.7c0.9,0,1.3,0.5,1.3,1.4v0.5c0,0.7-0.2,1.1-0.7,1.2c0.5,0.2,0.7,0.6,0.7,1.2v0.9
			c0,0.3,0,0.5,0.1,0.7h-0.7c-0.1-0.2-0.1-0.3-0.1-0.7V266c0-0.7-0.3-0.9-0.9-0.9h-0.5v2.5h-0.7v-5.9H258.6z M258.4,264.5
			c0.5,0,0.8-0.2,0.8-0.8v-0.6c0-0.5-0.2-0.8-0.7-0.8h-0.6v2.2H258.4z"/>
		<path class="wireColor" d="M261.6,265.5l-1.3-3.8h0.7l0.9,2.9l0.9-2.9h0.6l-1.3,3.8v2.1h-0.7V265.5z"/>
		<path class="wireColor" d="M266.5,263.2v0.5h-0.6v-0.6c0-0.5-0.2-0.9-0.7-0.9c-0.5,0-0.7,0.3-0.7,0.9v3.1c0,0.5,0.2,0.9,0.7,0.9
			c0.5,0,0.7-0.3,0.7-0.9v-0.8h0.6v0.7c0,0.9-0.4,1.5-1.3,1.5c-0.9,0-1.3-0.6-1.3-1.5v-3.1c0-0.9,0.4-1.5,1.3-1.5
			C266,261.7,266.5,262.3,266.5,263.2z"/>
		<path class="wireColor" d="M269.7,267.7H267v-0.6l2-4.8h-1.9v-0.6h2.6v0.6l-2,4.8h2V267.7z"/>
		<path class="wireColor" d="M270.9,267.7h-0.6v-5.9h0.8l1.4,4.3v-4.3h0.6v5.9h-0.7l-1.5-4.8V267.7z"/>
		<path class="wireColor" d="M275.9,264.4v0.6h-1.5v2.1h1.8v0.6h-2.4v-5.9h2.4v0.6h-1.8v2H275.9z"/>
		<path class="wireColor" d="M279.4,263.2v0.5h-0.6v-0.5c0-0.5-0.2-0.9-0.7-0.9c-0.5,0-0.7,0.3-0.7,0.9v3.1c0,0.5,0.2,0.9,0.7,0.9
			c0.5,0,0.7-0.3,0.7-0.9v-1.2h-0.6v-0.6h1.2v1.8c0,0.9-0.4,1.5-1.3,1.5c-0.9,0-1.3-0.6-1.3-1.5v-3.1c0-0.9,0.4-1.5,1.3-1.5
			C279,261.7,279.4,262.3,279.4,263.2z"/>
		<path class="wireColor" d="M280,263.2c0-0.9,0.5-1.5,1.4-1.5c0.9,0,1.4,0.6,1.4,1.5v3.1c0,0.9-0.5,1.5-1.4,1.5c-0.9,0-1.4-0.6-1.4-1.5
			V263.2z M280.7,266.3c0,0.5,0.2,0.9,0.7,0.9c0.5,0,0.7-0.3,0.7-0.9v-3.1c0-0.5-0.2-0.9-0.7-0.9c-0.5,0-0.7,0.3-0.7,0.9V266.3z"/>
	</g>
	<g>
		<path class="wireColor" d="M162.8,167.1l0.1,0.4l-0.4,0.1l-0.1-0.4c-0.1-0.4-0.3-0.6-0.6-0.5c-0.3,0.1-0.4,0.3-0.3,0.7l0.5,2.2
			c0.1,0.4,0.3,0.6,0.6,0.5c0.3-0.1,0.4-0.3,0.3-0.7l-0.1-0.5l0.4-0.1l0.1,0.5c0.1,0.6-0.1,1.1-0.7,1.2c-0.6,0.1-1-0.2-1.1-0.8
			l-0.5-2.1c-0.1-0.6,0.1-1.1,0.7-1.2C162.3,166.1,162.7,166.5,162.8,167.1z"/>
		<path class="wireColor" d="M164.9,167.5l0.1,0.4l-1,0.2l0.3,1.5l1.2-0.3l0.1,0.4l-1.7,0.4L163,166l1.7-0.4l0.1,0.4l-1.2,0.3l0.3,1.4
			L164.9,167.5z"/>
		<path class="wireColor" d="M166.5,169.5l-0.4,0.1l-0.9-4.1l0.6-0.1l1.6,2.7l-0.7-3l0.4-0.1l0.9,4.1l-0.5,0.1l-1.8-3.1L166.5,169.5z"/>
		<path class="wireColor" d="M169.1,169l-0.8-3.7l-0.8,0.2l-0.1-0.4l2-0.4l0.1,0.4l-0.8,0.2l0.8,3.7L169.1,169z"/>
		<path class="wireColor" d="M170.6,164.3c0.6-0.1,1,0.1,1.1,0.7l0.1,0.3c0.1,0.5,0,0.8-0.3,1c0.4,0,0.6,0.3,0.7,0.7l0.1,0.6
			c0,0.2,0.1,0.3,0.2,0.5l-0.5,0.1c-0.1-0.1-0.1-0.2-0.2-0.5l-0.1-0.6c-0.1-0.5-0.4-0.6-0.7-0.5l-0.3,0.1l0.4,1.8l-0.5,0.1l-0.9-4.1
			L170.6,164.3z M170.9,166.3c0.4-0.1,0.6-0.2,0.5-0.7l-0.1-0.4c-0.1-0.4-0.3-0.5-0.6-0.5l-0.4,0.1l0.3,1.5L170.9,166.3z"/>
		<path class="wireColor" d="M173.1,167c0.1,0.4,0.3,0.6,0.6,0.5c0.3-0.1,0.4-0.3,0.3-0.7l-0.7-3.1l0.4-0.1l0.7,3.1
			c0.1,0.6-0.1,1.1-0.7,1.2c-0.6,0.1-1-0.2-1.1-0.8L172,164l0.5-0.1L173.1,167z"/>
		<path class="wireColor" d="M176.7,167.2l-0.4,0.1l-1.4-3.1l0.7,3.3l-0.4,0.1l-0.9-4.1l0.6-0.1l1.4,3.1l-0.1-3.4l0.6-0.1l0.9,4.1
			l-0.4,0.1l-0.7-3.3L176.7,167.2z"/>
		<path class="wireColor" d="M142.5,182.1l-0.5,0.1l-1.7-3.7l0.9,3.9l-0.5,0.1l-1.1-4.9l0.8-0.2l1.7,3.7l-0.1-4.1l0.8-0.2l1.1,4.9
			l-0.5,0.1l-0.9-3.9L142.5,182.1z"/>
		<path class="wireColor" d="M145.5,178.6l0.1,0.5l-1.2,0.3l0.4,1.7l1.5-0.3l0.1,0.5l-2,0.4l-1.1-4.9l2-0.4l0.1,0.5l-1.5,0.3l0.4,1.7
			L145.5,178.6z"/>
		<path class="wireColor" d="M148.2,176.9l0.1,0.4l-0.5,0.1l-0.1-0.5c-0.1-0.4-0.3-0.7-0.7-0.6c-0.4,0.1-0.5,0.4-0.4,0.8l0.6,2.6
			c0.1,0.4,0.3,0.7,0.7,0.6c0.4-0.1,0.5-0.4,0.4-0.8l-0.1-0.6l0.5-0.1l0.1,0.6c0.2,0.7-0.1,1.3-0.8,1.5c-0.7,0.2-1.2-0.2-1.4-1
			l-0.6-2.5c-0.2-0.7,0.1-1.3,0.8-1.5C147.5,175.8,148,176.2,148.2,176.9z"/>
		<path class="wireColor" d="M149.5,178.2l0.5,2.2l-0.5,0.1l-1.1-4.9l0.5-0.1l0.5,2.2l1.2-0.3l-0.5-2.2l0.5-0.1l1.1,4.9l-0.5,0.1l-0.5-2.2
			L149.5,178.2z"/>
		<path class="wireColor" d="M152.7,178.8l0,1l-0.5,0.1l-0.2-5.1l0.8-0.2l2,4.7l-0.5,0.1l-0.4-0.9L152.7,178.8z M152.6,178.3l1.1-0.2
			l-1.2-2.7L152.6,178.3z"/>
		<path class="wireColor" d="M156,179.1l-1-4.4l-0.9,0.2l-0.1-0.5l2.3-0.5l0.1,0.5l-0.9,0.2l1,4.4L156,179.1z"/>
		<path class="wireColor" d="M157.8,173.6c0.8-0.2,1.2,0.1,1.3,0.9l0.1,0.4c0.1,0.5,0,0.9-0.4,1.1c0.5,0,0.7,0.4,0.8,0.9l0.2,0.8
			c0,0.2,0.1,0.4,0.2,0.6l-0.5,0.1c-0.1-0.1-0.1-0.2-0.2-0.6l-0.2-0.8c-0.1-0.6-0.4-0.7-0.9-0.6l-0.4,0.1l0.5,2.1l-0.5,0.1l-1.1-4.9
			L157.8,173.6z M158.2,175.9c0.4-0.1,0.7-0.3,0.5-0.8l-0.1-0.5c-0.1-0.4-0.3-0.6-0.7-0.5l-0.5,0.1l0.4,1.8L158.2,175.9z"/>
		<path class="wireColor" d="M159.7,174.4c-0.2-0.7,0.1-1.3,0.8-1.5c0.8-0.2,1.2,0.2,1.4,1l0.6,2.5c0.2,0.7-0.1,1.3-0.8,1.5
			c-0.7,0.2-1.2-0.2-1.4-1L159.7,174.4z M160.8,176.8c0.1,0.4,0.3,0.7,0.7,0.6c0.4-0.1,0.5-0.4,0.4-0.8l-0.6-2.6
			c-0.1-0.4-0.3-0.7-0.7-0.6c-0.4,0.1-0.5,0.4-0.4,0.8L160.8,176.8z"/>
		<path class="wireColor" d="M163.7,177.3l-0.5,0.1l-1.1-4.9l0.7-0.2l1.9,3.3l-0.8-3.5l0.5-0.1l1.1,4.9l-0.6,0.1l-2.1-3.7L163.7,177.3z"/>
		<path class="wireColor" d="M165.6,171.8l1.1,4.9l-0.5,0.1l-1.1-4.9L165.6,171.8z"/>
		<path class="wireColor" d="M167.6,174.3l-0.2,0.5l0.4,1.6l-0.5,0.1l-1.1-4.9l0.5-0.1l0.5,2.4l0.8-2.6l0.6-0.1l-0.7,2.5l1.9,2.4l-0.6,0.1
			L167.6,174.3z"/>
		<path class="wireColor" d="M169.5,170.9l1.1,4.9l-0.5,0.1l-1.1-4.9L169.5,170.9z"/>
		<path class="wireColor" d="M171.4,175.6l-0.2,0l-0.2-0.7l0.5-0.1l0.1,0.6l-0.1,0.7l-0.2,0L171.4,175.6z"/>
		<path class="wireColor" d="M173.4,170.1c0.8-0.2,1.1,0.1,1.3,0.8l0.1,0.2c0.1,0.5,0,0.9-0.4,1.1c0.5,0,0.8,0.4,0.9,0.9l0.1,0.4
			c0.2,0.7-0.1,1.2-0.9,1.4l-1.1,0.3l-1.1-4.9L173.4,170.1z M173.7,172.2c0.4-0.1,0.6-0.3,0.5-0.8l-0.1-0.3
			c-0.1-0.4-0.3-0.6-0.7-0.5l-0.5,0.1l0.4,1.6L173.7,172.2z M174.4,174.5c0.4-0.1,0.5-0.3,0.4-0.8l-0.1-0.4
			c-0.1-0.5-0.4-0.7-0.8-0.6l-0.5,0.1l0.4,1.8L174.4,174.5z"/>
		<path class="wireColor" d="M175.6,169.6l1.1,4.9l-0.5,0.1l-1.1-4.9L175.6,169.6z"/>
		<path class="wireColor" d="M176.3,170.7c-0.2-0.7,0.1-1.3,0.8-1.5c0.8-0.2,1.2,0.2,1.4,1l0.6,2.5c0.2,0.7-0.1,1.3-0.8,1.5
			c-0.7,0.2-1.2-0.2-1.4-1L176.3,170.7z M177.4,173.1c0.1,0.4,0.3,0.7,0.7,0.6c0.4-0.1,0.5-0.4,0.4-0.8l-0.6-2.6
			c-0.1-0.4-0.3-0.7-0.7-0.6c-0.4,0.1-0.5,0.4-0.4,0.8L177.4,173.1z"/>
		<path class="wireColor" d="M181.7,173.3l-0.5,0.1l-1.7-3.7l0.9,3.9l-0.5,0.1l-1.1-4.9l0.8-0.2l1.7,3.7l-0.1-4.1l0.8-0.2l1.1,4.9
			l-0.5,0.1l-0.9-3.9L181.7,173.3z"/>
		<path class="wireColor" d="M184.7,169.8l0.1,0.5l-1.2,0.3l0.4,1.7l1.5-0.3l0.1,0.5l-2,0.4l-1.1-4.9l2-0.4l0.1,0.5l-1.5,0.3l0.4,1.7
			L184.7,169.8z"/>
		<path class="wireColor" d="M187.4,168.2l0.1,0.4l-0.5,0.1l-0.1-0.5c-0.1-0.4-0.3-0.7-0.7-0.6c-0.4,0.1-0.5,0.4-0.4,0.8l0.6,2.6
			c0.1,0.4,0.3,0.7,0.7,0.6c0.4-0.1,0.5-0.4,0.4-0.8l-0.1-0.6l0.5-0.1l0.1,0.6c0.2,0.7-0.1,1.3-0.8,1.5c-0.7,0.2-1.2-0.2-1.4-1
			l-0.6-2.5c-0.2-0.7,0.1-1.3,0.8-1.5C186.8,167,187.2,167.4,187.4,168.2z"/>
		<path class="wireColor" d="M188.8,169.5l0.5,2.2l-0.5,0.1l-1.1-4.9l0.5-0.1l0.5,2.2l1.2-0.3l-0.5-2.2l0.5-0.1l1.1,4.9l-0.5,0.1l-0.5-2.2
			L188.8,169.5z"/>
		<path class="wireColor" d="M191.9,170l0,1l-0.5,0.1l-0.2-5.1l0.8-0.2l2,4.7l-0.5,0.1l-0.4-0.9L191.9,170z M191.9,169.5l1.1-0.2l-1.2-2.7
			L191.9,169.5z"/>
		<path class="wireColor" d="M195,170.4l-0.5,0.1l-1.1-4.9l0.7-0.2l1.9,3.3l-0.8-3.5l0.5-0.1l1.1,4.9l-0.6,0.1l-2.1-3.7L195,170.4z"/>
		<path class="wireColor" d="M196.8,164.8l1.1,4.9l-0.5,0.1l-1.1-4.9L196.8,164.8z"/>
		<path class="wireColor" d="M198.8,167.3l-0.2,0.5l0.4,1.6l-0.5,0.1l-1.1-4.9l0.5-0.1l0.5,2.4l0.8-2.6l0.5-0.1l-0.7,2.5l1.9,2.4l-0.6,0.1
			L198.8,167.3z"/>
		<path class="wireColor" d="M200.8,164l1.1,4.9l-0.5,0.1l-1.1-4.9L200.8,164z"/>
		<path class="wireColor" d="M155.3,181.3l1.1,4.9l-0.5,0.1l-1.1-4.9L155.3,181.3z"/>
		<path class="wireColor" d="M158.6,185.7l-0.5,0.1l-1.1-4.9l0.7-0.2l1.9,3.3l-0.8-3.5l0.5-0.1l1.1,4.9l-0.6,0.1l-2.1-3.7L158.6,185.7z"/>
		<path class="wireColor" d="M161.3,184.1l0,1l-0.5,0.1l-0.2-5.1l0.8-0.2l2,4.7l-0.5,0.1l-0.4-0.9L161.3,184.1z M161.2,183.6l1.1-0.2
			l-1.2-2.7L161.2,183.6z"/>
		<path class="wireColor" d="M164.4,184.4l-0.5,0.1l-1.1-4.9l0.7-0.2l1.9,3.3l-0.8-3.5l0.5-0.1l1.1,4.9l-0.6,0.1l-2.1-3.7L164.4,184.4z"/>
		<path class="wireColor" d="M165.9,180.2c-0.2-0.7,0.1-1.3,0.8-1.5c0.8-0.2,1.2,0.2,1.4,1l0.6,2.5c0.2,0.7-0.1,1.3-0.8,1.5
			c-0.7,0.2-1.2-0.2-1.4-1L165.9,180.2z M167,182.6c0.1,0.4,0.3,0.7,0.7,0.6c0.4-0.1,0.5-0.4,0.4-0.8l-0.6-2.6
			c-0.1-0.4-0.3-0.7-0.7-0.6c-0.4,0.1-0.5,0.4-0.4,0.8L167,182.6z"/>
		<path class="wireColor" d="M168.9,178.3l1.1,4.9l-0.5,0.1l-1.1-4.9L168.9,178.3z"/>
		<path class="wireColor" d="M171,182.9l-0.5,0.1l-1.1-4.9l0.7-0.2l1.9,3.3l-0.8-3.5l0.5-0.1l1.1,4.9l-0.6,0.1l-2.1-3.7L171,182.9z"/>
		<path class="wireColor" d="M175.5,181.9l-2.2,0.5l-0.1-0.5l0.8-4.3l-1.6,0.4l-0.1-0.5l2.2-0.5l0.1,0.5l-0.8,4.3l1.7-0.4L175.5,181.9z
			 M173.4,176.3l0.1,0.6l-0.5,0.1l-0.1-0.6L173.4,176.3z"/>
		<path class="wireColor" d="M176.5,179.9l-1.7-2.9l0.6-0.1l1.3,2.2l0.2-2.6l0.5-0.1l-0.3,3.4l0.4,1.7l-0.5,0.1L176.5,179.9z"/>
		<path class="wireColor" d="M179.3,181.1l-0.5,0.1l-1.1-4.9l0.7-0.2l1.9,3.3l-0.8-3.5l0.5-0.1l1.1,4.9l-0.6,0.1l-2.1-3.7L179.3,181.1z"/>
		<path class="wireColor" d="M181.2,175.5l1.1,4.9l-0.5,0.1l-1.1-4.9L181.2,175.5z"/>
		<path class="wireColor" d="M183.9,177.2l0.1,0.5l-1.2,0.3l0.4,1.7l1.5-0.3l0.1,0.5l-2,0.4l-1.1-4.9l2-0.4l0.1,0.5l-1.5,0.3l0.4,1.7
			L183.9,177.2z"/>
		<path class="wireColor" d="M185.3,174.6c0.8-0.2,1.2,0.1,1.3,0.9l0.1,0.4c0.1,0.5,0,0.9-0.4,1.1c0.5,0,0.7,0.4,0.8,0.9l0.2,0.8
			c0,0.2,0.1,0.4,0.2,0.6l-0.5,0.1c-0.1-0.1-0.2-0.2-0.2-0.6l-0.2-0.8c-0.1-0.6-0.4-0.7-0.9-0.6l-0.4,0.1l0.5,2.1l-0.5,0.1l-1.1-4.9
			L185.3,174.6z M185.7,177c0.4-0.1,0.7-0.3,0.5-0.8l-0.1-0.5c-0.1-0.4-0.3-0.6-0.7-0.5l-0.5,0.1l0.4,1.8L185.7,177z"/>
		<path class="wireColor" d="M187.5,174.1l1.1,4.9l-0.5,0.1l-1.1-4.9L187.5,174.1z"/>
		<path class="wireColor" d="M188.6,173.9l1.1,4.9l-0.5,0.1l-1.1-4.9L188.6,173.9z"/>
	</g>
	<g>
		<path class="wireColor" d="M248.2,288.5c0.5,0,0.8,0.3,0.8,0.8v0.2c0,0.4-0.1,0.6-0.4,0.7c0.3,0.1,0.5,0.4,0.5,0.8v0.3
			c0,0.5-0.3,0.8-0.8,0.8h-0.8v-3.5H248.2z M248.1,290c0.3,0,0.5-0.1,0.5-0.5v-0.2c0-0.3-0.1-0.5-0.4-0.5h-0.4v1.1H248.1z
			 M248.2,291.7c0.3,0,0.4-0.2,0.4-0.5v-0.3c0-0.4-0.2-0.5-0.5-0.5h-0.3v1.3H248.2z"/>
		<path class="wireColor" d="M249.7,291.2c0,0.3,0.1,0.5,0.4,0.5c0.3,0,0.4-0.2,0.4-0.5v-2.7h0.4v2.7c0,0.5-0.2,0.9-0.8,0.9
			c-0.5,0-0.8-0.4-0.8-0.9v-2.7h0.4V291.2z"/>
		<path class="wireColor" d="M252.1,288.5c0.5,0,0.8,0.3,0.8,0.9v1.8c0,0.5-0.3,0.9-0.8,0.9h-0.8v-3.5H252.1z M252.1,291.7
			c0.3,0,0.4-0.2,0.4-0.5v-1.8c0-0.3-0.1-0.5-0.4-0.5h-0.4v2.8H252.1z"/>
		<path class="wireColor" d="M253.9,290.8l-0.7-2.3h0.4l0.5,1.7l0.6-1.7h0.4l-0.7,2.3v1.3h-0.4V290.8z"/>
		<path class="wireColor" d="M255.6,292h-0.4v-3.5h0.5l0.8,2.5v-2.5h0.3v3.5h-0.4l-0.9-2.8V292z"/>
		<path class="wireColor" d="M258.6,290.1v0.4h-0.9v1.3h1.1v0.4h-1.4v-3.5h1.4v0.4h-1.1v1.2H258.6z"/>
		<path class="wireColor" d="M259.7,290.5l-0.2,0.3v1.2h-0.4v-3.5h0.4v1.7l0.9-1.7h0.4l-0.9,1.6l0.9,1.9h-0.4L259.7,290.5z"/>
		<path class="wireColor" d="M262.9,292h-0.5l-0.5-3.5h0.4l0.4,3l0.4-3h0.4l0.4,3l0.4-3h0.3l-0.5,3.5h-0.5l-0.3-2.4L262.9,292z"/>
		<path class="wireColor" d="M265.5,290.8l-0.7-2.3h0.4l0.5,1.7l0.6-1.7h0.4l-0.7,2.3v1.3h-0.4V290.8z"/>
		<path class="wireColor" d="M267.7,288.5c0.5,0,0.8,0.3,0.8,0.9v1.8c0,0.5-0.3,0.9-0.8,0.9h-0.8v-3.5H267.7z M267.7,291.7
			c0.3,0,0.4-0.2,0.4-0.5v-1.8c0-0.3-0.1-0.5-0.4-0.5h-0.4v2.8H267.7z"/>
		<path class="wireColor" d="M270.5,292h-1.6v-0.4l1.2-2.8h-1.1v-0.4h1.6v0.4l-1.2,2.8h1.2V292z"/>
		<path class="wireColor" d="M271.2,288.5v3.5h-0.4v-3.5H271.2z"/>
		<path class="wireColor" d="M272,291.3l-0.1,0.7h-0.4l0.7-3.5h0.6l0.7,3.5H273l-0.1-0.7H272z M272.1,291h0.8l-0.4-2L272.1,291z"/>
		<path class="wireColor" d="M274.2,290.6v1.1h1v0.4h-1.4v-1l-0.3,0.3v-0.4l0.3-0.3v-2.1h0.4v1.7l0.5-0.6v0.4L274.2,290.6z"/>
		<path class="wireColor" d="M275.8,291.2c0,0.3,0.1,0.5,0.4,0.5c0.3,0,0.4-0.2,0.4-0.5v-2.7h0.4v2.7c0,0.5-0.2,0.9-0.8,0.9
			c-0.5,0-0.8-0.4-0.8-0.9v-2.7h0.4V291.2z"/>
		<path class="wireColor" d="M241.7,294.5c0.9,0,1.3,0.4,1.3,1.3v0.3c0,0.6-0.2,1-0.7,1.2c0.6,0.2,0.8,0.6,0.8,1.3v0.5
			c0,0.9-0.4,1.4-1.4,1.4h-1.4v-5.9H241.7z M241.6,297c0.5,0,0.8-0.2,0.8-0.8v-0.3c0-0.5-0.2-0.8-0.7-0.8h-0.7v1.9H241.6z
			 M241.8,299.8c0.5,0,0.7-0.3,0.7-0.8v-0.5c0-0.7-0.3-0.9-0.8-0.9h-0.6v2.2H241.8z"/>
		<path class="wireColor" d="M244.3,299c0,0.5,0.2,0.9,0.7,0.9c0.5,0,0.7-0.3,0.7-0.9v-4.5h0.6v4.5c0,0.9-0.4,1.5-1.3,1.5
			c-0.9,0-1.3-0.6-1.3-1.5v-4.5h0.7V299z"/>
		<path class="wireColor" d="M248.4,294.5c0.9,0,1.4,0.6,1.4,1.5v3c0,0.9-0.4,1.5-1.4,1.5H247v-5.9H248.4z M248.4,299.8
			c0.5,0,0.7-0.3,0.7-0.8v-3.1c0-0.5-0.2-0.8-0.7-0.8h-0.7v4.7H248.4z"/>
		<path class="wireColor" d="M250.3,295.9c0-0.9,0.5-1.5,1.4-1.5c0.9,0,1.4,0.6,1.4,1.5v3.1c0,0.9-0.5,1.5-1.4,1.5c-0.9,0-1.4-0.6-1.4-1.5
			V295.9z M251,299c0,0.5,0.2,0.9,0.7,0.9c0.5,0,0.7-0.3,0.7-0.9v-3.1c0-0.5-0.2-0.9-0.7-0.9c-0.5,0-0.7,0.3-0.7,0.9V299z"/>
		<path class="wireColor" d="M255.3,300.4h-0.9l-0.8-5.9h0.6l0.7,5.1l0.7-5.1h0.7l0.7,5.1l0.7-5.1h0.6l-0.8,5.9h-0.9l-0.6-4L255.3,300.4z"
			/>
		<path class="wireColor" d="M259.7,298.3l-1.3-3.8h0.7l0.9,2.9l0.9-2.9h0.6l-1.3,3.8v2.1h-0.7V298.3z"/>
		<path class="wireColor" d="M265.6,300.4h-0.6l-1-4.7v4.7h-0.6v-5.9h0.9l1,4.8l0.9-4.8h0.9v5.9h-0.6v-4.8L265.6,300.4z"/>
		<path class="wireColor" d="M268.5,299.2l-0.2,1.2h-0.6l1.1-5.9h1l1.1,5.9h-0.7l-0.2-1.2H268.5z M268.6,298.6h1.3l-0.7-3.4L268.6,298.6z"
			/>
		<path class="wireColor" d="M274,295.9v0.2h-0.6v-0.2c0-0.5-0.2-0.8-0.7-0.8s-0.7,0.3-0.7,0.8c0,1.3,2,1.5,2,3.1c0,0.9-0.4,1.5-1.3,1.5
			s-1.3-0.6-1.3-1.5v-0.3h0.6v0.4c0,0.5,0.2,0.8,0.7,0.8c0.5,0,0.7-0.3,0.7-0.8c0-1.3-2-1.5-2-3.1c0-0.9,0.4-1.5,1.3-1.5
			C273.6,294.4,274,295,274,295.9z"/>
		<path class="wireColor" d="M277.2,300.4h-2.7v-0.6l2-4.8h-1.9v-0.6h2.6v0.6l-2,4.8h2V300.4z"/>
		<path class="wireColor" d="M278.8,298.3l-1.3-3.8h0.7l0.9,2.9l0.9-2.9h0.6l-1.3,3.8v2.1h-0.7V298.3z"/>
		<path class="wireColor" d="M281.8,300.4h-0.6v-5.9h0.8l1.4,4.3v-4.3h0.6v5.9h-0.7l-1.5-4.8V300.4z"/>
	</g>
	<g>
		<path class="wireColor" d="M172,431v0.7h-0.8V431c0-0.7-0.3-1.1-0.9-1.1c-0.6,0-0.9,0.4-0.9,1.1v3.9c0,0.7,0.3,1.1,0.9,1.1
			c0.6,0,0.9-0.4,0.9-1.1v-1h0.8v0.9c0,1.1-0.5,1.9-1.7,1.9c-1.1,0-1.7-0.7-1.7-1.9V431c0-1.1,0.5-1.9,1.7-1.9
			C171.4,429.2,172,429.9,172,431z"/>
		<path class="wireColor" d="M175.3,432.5v0.7h-1.8v2.6h2.2v0.8h-3v-7.4h3v0.8h-2.2v2.5H175.3z"/>
		<path class="wireColor" d="M177.2,436.7h-0.7v-7.4h1l1.7,5.3v-5.3h0.7v7.4h-0.9l-1.9-6V436.7z"/>
		<path class="wireColor" d="M181.9,436.7V430h-1.4v-0.8h3.5v0.8h-1.4v6.6H181.9z"/>
		<path class="wireColor" d="M186.3,429.3c1.2,0,1.6,0.6,1.6,1.7v0.6c0,0.8-0.3,1.3-0.9,1.5c0.7,0.2,0.9,0.7,0.9,1.5v1.2
			c0,0.3,0,0.6,0.1,0.9h-0.8c-0.1-0.2-0.1-0.4-0.1-0.9v-1.2c0-0.8-0.4-1.1-1.1-1.1h-0.6v3.2h-0.8v-7.4H186.3z M186.1,432.7
			c0.7,0,1-0.2,1-1V431c0-0.7-0.2-1-0.9-1h-0.8v2.7H186.1z"/>
		<path class="wireColor" d="M189.6,434.9c0,0.7,0.3,1.1,0.9,1.1c0.6,0,0.9-0.4,0.9-1.1v-5.6h0.8v5.6c0,1.1-0.5,1.9-1.7,1.9
			c-1.1,0-1.6-0.7-1.6-1.9v-5.6h0.8V434.9z"/>
		<path class="wireColor" d="M195.6,436.6h-0.8l-1.2-5.9v5.9h-0.7v-7.4h1.2l1.2,5.9l1.2-5.9h1.2v7.4h-0.8v-5.9L195.6,436.6z"/>
		<path class="wireColor" d="M165,447.2h-1.1l-1-7.4h0.8l0.9,6.3l0.8-6.3h0.8l0.8,6.3l0.8-6.3h0.7l-1,7.4h-1.1l-0.7-5L165,447.2z"/>
		<path class="wireColor" d="M170.5,444.6l-1.6-4.7h0.9l1.2,3.6l1.2-3.6h0.8l-1.6,4.7v2.7h-0.8V444.6z"/>
		<path class="wireColor" d="M174.7,444l-0.4,0.7v2.5h-0.8v-7.4h0.8v3.6l2-3.6h0.8l-1.9,3.4l1.9,4h-0.8L174.7,444z"/>
		<path class="wireColor" d="M178.7,444.1v2.3h2.1v0.8h-2.9V445l-0.5,0.5v-0.8l0.5-0.5v-4.4h0.8v3.6l1.2-1.2v0.8L178.7,444.1z"/>
		<path class="wireColor" d="M182.3,445.7l-0.3,1.5h-0.8l1.4-7.4h1.2l1.4,7.4h-0.8l-0.3-1.5H182.3z M182.4,445h1.6l-0.8-4.3L182.4,445z"/>
		<path class="wireColor" d="M187.6,439.8c1.2,0,1.7,0.7,1.7,1.8v3.7c0,1.1-0.5,1.8-1.7,1.8h-1.7v-7.4H187.6z M187.6,446.5
			c0.6,0,0.9-0.4,0.9-1v-3.8c0-0.7-0.3-1-0.9-1h-0.9v5.9H187.6z"/>
		<path class="wireColor" d="M190,441.6c0-1.1,0.6-1.9,1.7-1.9c1.1,0,1.7,0.7,1.7,1.9v3.8c0,1.1-0.6,1.9-1.7,1.9c-1.1,0-1.7-0.7-1.7-1.9
			V441.6z M190.8,445.5c0,0.7,0.3,1.1,0.9,1.1c0.6,0,0.9-0.4,0.9-1.1v-3.9c0-0.7-0.3-1.1-0.9-1.1c-0.6,0-0.9,0.4-0.9,1.1V445.5z"/>
		<path class="wireColor" d="M196.1,447.2H195l-1-7.4h0.8l0.9,6.3l0.8-6.3h0.8l0.8,6.3l0.8-6.3h0.7l-1,7.4h-1.1l-0.7-5L196.1,447.2z"/>
		<path class="wireColor" d="M202.9,443.1v0.7h-1.8v2.6h2.2v0.8h-3v-7.4h3v0.8h-2.2v2.5H202.9z"/>
	</g>
	<g>
		<path class="wireColor" d="M81.9,369.2c0.7,0,0.9,0.3,0.9,1v0.2c0,0.5-0.1,0.7-0.5,0.9c0.4,0.1,0.6,0.5,0.6,0.9v0.4c0,0.7-0.3,1-1,1h-1
			v-4.4H81.9z M81.8,371c0.4,0,0.6-0.1,0.6-0.6v-0.3c0-0.4-0.1-0.6-0.5-0.6h-0.5v1.4H81.8z M82,373.1c0.4,0,0.5-0.2,0.5-0.6v-0.4
			c0-0.5-0.2-0.6-0.6-0.6h-0.4v1.6H82z"/>
		<path class="wireColor" d="M83.9,372.5c0,0.4,0.2,0.6,0.5,0.6c0.3,0,0.5-0.2,0.5-0.6v-3.3h0.5v3.3c0,0.7-0.3,1.1-1,1.1
			c-0.7,0-1-0.4-1-1.1v-3.3h0.5V372.5z"/>
		<path class="wireColor" d="M86.8,369.2c0.7,0,1,0.4,1,1.1v2.2c0,0.7-0.3,1.1-1,1.1h-1v-4.4H86.8z M86.8,373.1c0.3,0,0.5-0.2,0.5-0.6
			v-2.2c0-0.4-0.2-0.6-0.5-0.6h-0.5v3.5H86.8z"/>
		<path class="wireColor" d="M89,372l-0.9-2.8h0.5l0.7,2.1l0.7-2.1h0.5l-0.9,2.8v1.6H89V372z"/>
		<path class="wireColor" d="M91.2,373.5h-0.4v-4.4h0.6l1,3.2v-3.2h0.4v4.4h-0.5l-1.1-3.5V373.5z"/>
		<path class="wireColor" d="M94.8,371.1v0.4h-1.1v1.6h1.3v0.4h-1.8v-4.4h1.8v0.4h-1.3v1.5H94.8z"/>
		<path class="wireColor" d="M96.3,371.6l-0.3,0.4v1.5h-0.5v-4.4H96v2.1l1.2-2.1h0.5l-1.1,2l1.1,2.4h-0.5L96.3,371.6z"/>
		<path class="wireColor" d="M100.1,369.2c0.7,0,1,0.4,1,1.1v2.2c0,0.7-0.3,1.1-1,1.1h-1v-4.4H100.1z M100.1,373.1c0.3,0,0.5-0.2,0.5-0.6
			v-2.2c0-0.4-0.2-0.6-0.5-0.6h-0.5v3.5H100.1z"/>
		<path class="wireColor" d="M102.2,372l-0.9-2.8h0.5l0.7,2.1l0.7-2.1h0.5l-0.9,2.8v1.6h-0.5V372z"/>
		<path class="wireColor" d="M105,369.2c0.7,0,1,0.4,1,1.1v2.2c0,0.7-0.3,1.1-1,1.1h-1v-4.4H105z M105,373.1c0.3,0,0.5-0.2,0.5-0.6v-2.2
			c0-0.4-0.2-0.6-0.5-0.6h-0.5v3.5H105z"/>
		<path class="wireColor" d="M106.9,372.7l-0.2,0.9h-0.4l0.8-4.4h0.7l0.8,4.4h-0.5l-0.2-0.9H106.9z M107,372.2h1l-0.5-2.5L107,372.2z"/>
		<path class="wireColor" d="M109.8,371.6l-0.3,0.4v1.5h-0.5v-4.4h0.5v2.1l1.2-2.1h0.5l-1.1,2l1.1,2.4h-0.5L109.8,371.6z"/>
		<path class="wireColor" d="M112.3,373.5v-3.9h-0.8v-0.4h2.1v0.4h-0.8v3.9H112.3z"/>
		<path class="wireColor" d="M114.7,372l-0.9-2.8h0.5l0.7,2.1l0.7-2.1h0.5l-0.9,2.8v1.6h-0.5V372z"/>
		<path class="wireColor" d="M118.2,370.2v0.4h-0.5v-0.4c0-0.4-0.2-0.6-0.5-0.6c-0.3,0-0.5,0.2-0.5,0.6v2.3c0,0.4,0.2,0.6,0.5,0.6
			c0.4,0,0.5-0.2,0.5-0.6v-0.6h0.5v0.5c0,0.7-0.3,1.1-1,1.1c-0.7,0-1-0.4-1-1.1v-2.3c0-0.7,0.3-1.1,1-1.1
			C117.9,369.1,118.2,369.6,118.2,370.2z"/>
		<path class="wireColor" d="M120.6,373.5h-2v-0.4l1.5-3.5h-1.4v-0.4h1.9v0.4l-1.5,3.5h1.5V373.5z"/>
		<path class="wireColor" d="M121.5,373.5h-0.4v-4.4h0.6l1,3.2v-3.2h0.4v4.4h-0.5l-1.1-3.5V373.5z"/>
		<path class="wireColor" d="M124.4,372l-0.9-2.8h0.5l0.7,2.1l0.7-2.1h0.5l-0.9,2.8v1.6h-0.5V372z"/>
		<path class="wireColor" d="M72.6,383h-1l-0.9-6.6h0.7l0.8,5.6l0.7-5.6h0.7l0.7,5.6l0.7-5.6h0.6l-0.9,6.6h-1l-0.6-4.5L72.6,383z"/>
		<path class="wireColor" d="M77.5,380.6l-1.4-4.2h0.8l1,3.2l1-3.2h0.7l-1.4,4.2v2.4h-0.7V380.6z"/>
		<path class="wireColor" d="M81.7,376.4c1,0,1.5,0.6,1.5,1.6v3.3c0,1-0.5,1.6-1.5,1.6h-1.5v-6.6H81.7z M81.7,382.3c0.5,0,0.8-0.3,0.8-0.9
			V378c0-0.6-0.3-0.9-0.8-0.9h-0.8v5.3H81.7z"/>
		<path class="wireColor" d="M86.8,383h-3v-0.7l2.3-5.3h-2.2v-0.7h2.9v0.7l-2.3,5.3h2.3V383z"/>
		<path class="wireColor" d="M88.2,376.4v6.6h-0.7v-6.6H88.2z"/>
		<path class="wireColor" d="M89.7,381.6l-0.3,1.3h-0.7l1.3-6.6h1.1l1.3,6.6h-0.7l-0.3-1.3H89.7z M89.8,381h1.5l-0.7-3.8L89.8,381z"/>
		<path class="wireColor" d="M93.8,380.2v2.1h1.9v0.7h-2.6v-2l-0.5,0.5v-0.7l0.5-0.5v-4h0.7v3.2l1-1.1v0.7L93.8,380.2z"/>
		<path class="wireColor" d="M96.9,381.4c0,0.6,0.2,1,0.8,1c0.5,0,0.8-0.4,0.8-1v-5h0.7v5c0,1-0.5,1.7-1.5,1.7c-1,0-1.5-0.7-1.5-1.7v-5
			h0.7V381.4z"/>
		<path class="wireColor" d="M102.3,383V377h-1.2v-0.7h3.2v0.7H103v5.9H102.3z"/>
		<path class="wireColor" d="M107.1,379.3v0.7h-1.6v2.3h2v0.7h-2.7v-6.6h2.7v0.7h-2v2.3H107.1z"/>
		<path class="wireColor" d="M111,378v0.6h-0.7v-0.6c0-0.6-0.2-1-0.8-1c-0.5,0-0.8,0.4-0.8,1v3.5c0,0.6,0.2,1,0.8,1c0.5,0,0.8-0.4,0.8-1
			v-0.9h0.7v0.8c0,1-0.5,1.7-1.5,1.7c-1,0-1.5-0.7-1.5-1.7V378c0-1,0.5-1.7,1.5-1.7C110.6,376.3,111,377,111,378z"/>
		<path class="wireColor" d="M112.4,380v3h-0.7v-6.6h0.7v3h1.6v-3h0.7v6.6h-0.7v-3H112.4z"/>
		<path class="wireColor" d="M116.2,383h-0.7v-6.6h0.9l1.5,4.8v-4.8h0.6v6.6h-0.8l-1.7-5.3V383z"/>
		<path class="wireColor" d="M119.3,378c0-1,0.5-1.7,1.5-1.7c1,0,1.5,0.6,1.5,1.7v3.4c0,1-0.5,1.7-1.5,1.7c-1,0-1.5-0.7-1.5-1.7V378z
			 M120.1,381.4c0,0.6,0.3,1,0.8,1c0.5,0,0.8-0.3,0.8-1v-3.5c0-0.6-0.2-1-0.8-1c-0.5,0-0.8,0.4-0.8,1V381.4z"/>
		<path class="wireColor" d="M123.1,383v-6.6h0.7v5.9h1.9v0.7H123.1z"/>
		<path class="wireColor" d="M126.2,378c0-1,0.5-1.7,1.5-1.7c1,0,1.5,0.6,1.5,1.7v3.4c0,1-0.5,1.7-1.5,1.7c-1,0-1.5-0.7-1.5-1.7V378z
			 M126.9,381.4c0,0.6,0.3,1,0.8,1c0.5,0,0.8-0.3,0.8-1v-3.5c0-0.6-0.2-1-0.8-1c-0.5,0-0.8,0.4-0.8,1V381.4z"/>
		<path class="wireColor" d="M132.8,378v0.6h-0.7v-0.6c0-0.6-0.2-1-0.8-1c-0.5,0-0.8,0.4-0.8,1v3.5c0,0.6,0.2,1,0.8,1c0.5,0,0.8-0.4,0.8-1
			v-1.3h-0.7v-0.7h1.4v1.9c0,1-0.5,1.7-1.5,1.7c-1,0-1.5-0.7-1.5-1.7V378c0-1,0.5-1.7,1.5-1.7C132.3,376.3,132.8,377,132.8,378z"/>
		<path class="wireColor" d="M134.2,376.4v6.6h-0.7v-6.6H134.2z"/>
		<path class="wireColor" d="M135.7,376.4v6.6H135v-6.6H135.7z"/>
		<path class="wireColor" d="M89.6,387.4v0.6h-0.7v-0.6c0-0.6-0.2-1-0.8-1c-0.5,0-0.8,0.4-0.8,1v3.5c0,0.6,0.2,1,0.8,1
			c0.5,0,0.8-0.4,0.8-1V390h0.7v0.8c0,1-0.5,1.7-1.5,1.7c-1,0-1.5-0.7-1.5-1.7v-3.4c0-1,0.5-1.7,1.5-1.7
			C89.1,385.7,89.6,386.4,89.6,387.4z"/>
		<path class="wireColor" d="M91,389.4v3h-0.7v-6.6H91v3h1.6v-3h0.7v6.6h-0.7v-3H91z"/>
		<path class="wireColor" d="M96.4,388.7v0.7h-1.6v2.3h2v0.7h-2.7v-6.6h2.7v0.7h-2v2.3H96.4z"/>
		<path class="wireColor" d="M99.9,392.4h-0.7l-1.1-5.2v5.3h-0.6v-6.6h1l1.1,5.3l1-5.3h1v6.6H101v-5.3L99.9,392.4z"/>
		<path class="wireColor" d="M103.1,385.8v6.6h-0.7v-6.6H103.1z"/>
		<path class="wireColor" d="M106.8,387.4v0.6h-0.7v-0.6c0-0.6-0.2-1-0.8-1c-0.5,0-0.8,0.4-0.8,1v3.5c0,0.6,0.2,1,0.8,1
			c0.5,0,0.8-0.4,0.8-1V390h0.7v0.8c0,1-0.5,1.7-1.5,1.7c-1,0-1.5-0.7-1.5-1.7v-3.4c0-1,0.5-1.7,1.5-1.7
			C106.3,385.7,106.8,386.4,106.8,387.4z"/>
		<path class="wireColor" d="M110.4,392.4h-3v-0.7l2.3-5.3h-2.2v-0.7h2.9v0.7l-2.3,5.3h2.3V392.4z"/>
		<path class="wireColor" d="M111.7,392.4H111v-6.6h0.9l1.5,4.8v-4.8h0.6v6.6h-0.8l-1.7-5.3V392.4z"/>
		<path class="wireColor" d="M117.2,388.7v0.7h-1.6v2.3h2v0.7h-2.7v-6.6h2.7v0.7h-2v2.3H117.2z"/>
		<path class="wireColor" d="M118.1,391.7c0.1,0,0.3,0,0.4,0c0.5,0,0.8-0.3,0.8-0.9v-5h0.7v5c0,1.2-0.6,1.6-1.4,1.6c-0.2,0-0.3,0-0.5,0
			V391.7z"/>
	</g>
	<g>
		<path class="wireColor" d="M237.6,47.5c0.6,0,0.8,0.3,0.8,0.8v0.2c0,0.4-0.1,0.6-0.4,0.7c0.4,0.1,0.5,0.4,0.5,0.8v0.3
			c0,0.5-0.3,0.8-0.8,0.8h-0.8v-3.6H237.6z M237.5,49c0.3,0,0.5-0.1,0.5-0.5v-0.2c0-0.3-0.1-0.5-0.4-0.5h-0.4V49H237.5z M237.6,50.7
			c0.3,0,0.4-0.2,0.4-0.5v-0.3c0-0.4-0.2-0.5-0.5-0.5h-0.4v1.3H237.6z"/>
		<path class="wireColor" d="M239.2,50.2c0,0.3,0.1,0.5,0.4,0.5c0.3,0,0.4-0.2,0.4-0.5v-2.8h0.4v2.7c0,0.5-0.3,0.9-0.8,0.9
			c-0.6,0-0.8-0.4-0.8-0.9v-2.7h0.4V50.2z"/>
		<path class="wireColor" d="M241.6,47.5c0.6,0,0.8,0.3,0.8,0.9v1.8c0,0.6-0.3,0.9-0.8,0.9h-0.8v-3.6H241.6z M241.6,50.7
			c0.3,0,0.4-0.2,0.4-0.5v-1.9c0-0.3-0.1-0.5-0.4-0.5h-0.4v2.9H241.6z"/>
		<path class="wireColor" d="M243.4,49.8l-0.8-2.3h0.4l0.6,1.8l0.6-1.8h0.4l-0.8,2.3v1.3h-0.4V49.8z"/>
		<path class="wireColor" d="M245.2,51.1h-0.4v-3.6h0.5l0.8,2.6v-2.6h0.4v3.6h-0.4l-0.9-2.9V51.1z"/>
		<path class="wireColor" d="M248.2,49.1v0.4h-0.9v1.3h1.1v0.4h-1.5v-3.6h1.5v0.4h-1.1v1.2H248.2z"/>
		<path class="wireColor" d="M249.4,49.5l-0.2,0.4v1.2h-0.4v-3.6h0.4v1.7l1-1.7h0.4l-0.9,1.6l0.9,2h-0.4L249.4,49.5z"/>
		<path class="wireColor" d="M218.3,58.9h-0.8l-0.7-5.4h0.6l0.6,4.6l0.6-4.6h0.6l0.6,4.6l0.6-4.6h0.5l-0.7,5.4h-0.8l-0.5-3.7L218.3,58.9z"
			/>
		<path class="wireColor" d="M222.3,56.9l-1.1-3.5h0.6l0.8,2.7l0.9-2.7h0.6l-1.2,3.5v1.9h-0.6V56.9z"/>
		<path class="wireColor" d="M225.8,53.4c0.8,0,1.2,0.5,1.2,1.4v2.7c0,0.8-0.4,1.3-1.2,1.3h-1.3v-5.4H225.8z M225.8,58.3
			c0.4,0,0.6-0.3,0.6-0.8v-2.8c0-0.5-0.2-0.8-0.7-0.8h-0.7v4.3H225.8z"/>
		<path class="wireColor" d="M230,58.9h-2.5v-0.5l1.9-4.3h-1.8v-0.6h2.4V54l-1.9,4.3h1.9V58.9z"/>
		<path class="wireColor" d="M231.1,53.4v5.4h-0.6v-5.4H231.1z"/>
		<path class="wireColor" d="M232.4,57.8l-0.2,1.1h-0.6l1-5.4h0.9l1,5.4H234l-0.2-1.1H232.4z M232.5,57.2h1.2l-0.6-3.1L232.5,57.2z"/>
		<path class="wireColor" d="M235.7,56.6v1.7h1.6v0.6h-2.2v-1.6l-0.4,0.4v-0.6l0.4-0.4v-3.3h0.6V56l0.8-0.9v0.6L235.7,56.6z"/>
		<path class="wireColor" d="M238.3,57.6c0,0.5,0.2,0.8,0.6,0.8c0.4,0,0.6-0.3,0.6-0.8v-4.2h0.6v4.1c0,0.8-0.4,1.4-1.2,1.4
			c-0.8,0-1.2-0.6-1.2-1.4v-4.1h0.6V57.6z"/>
		<path class="wireColor" d="M243.9,55.8v0.5h-1.3v1.9h1.6v0.6H242v-5.4h2.2V54h-1.6v1.9H243.9z"/>
		<path class="wireColor" d="M244.7,58.9v-5.4h0.6v4.9h1.6v0.6H244.7z"/>
		<path class="wireColor" d="M249.3,55.8v0.5H248v1.9h1.6v0.6h-2.2v-5.4h2.2V54H248v1.9H249.3z"/>
		<path class="wireColor" d="M251.1,56.5l-0.3,0.5v1.8h-0.6v-5.4h0.6v2.6l1.4-2.6h0.6l-1.4,2.5l1.4,3h-0.6L251.1,56.5z"/>
		<path class="wireColor" d="M254.1,58.9V54h-1v-0.6h2.6V54h-1v4.9H254.1z"/>
		<path class="wireColor" d="M256.1,54.7c0-0.8,0.4-1.4,1.2-1.4c0.8,0,1.3,0.5,1.3,1.4v2.8c0,0.8-0.4,1.4-1.3,1.4c-0.8,0-1.2-0.5-1.2-1.4
			V54.7z M256.7,57.6c0,0.5,0.2,0.8,0.6,0.8c0.4,0,0.6-0.3,0.6-0.8v-2.9c0-0.5-0.2-0.8-0.6-0.8c-0.4,0-0.6,0.3-0.6,0.8V57.6z"/>
		<path class="wireColor" d="M260.4,53.4c0.9,0,1.2,0.4,1.2,1.2v0.4c0,0.6-0.2,1-0.7,1.1c0.5,0.1,0.7,0.6,0.7,1.1v0.8c0,0.2,0,0.5,0.1,0.7
			h-0.6c-0.1-0.2-0.1-0.3-0.1-0.7v-0.9c0-0.6-0.3-0.8-0.8-0.8h-0.4v2.3h-0.6v-5.4H260.4z M260.2,56c0.5,0,0.8-0.2,0.8-0.7v-0.5
			c0-0.5-0.2-0.7-0.6-0.7h-0.6v2H260.2z"/>
		<path class="wireColor" d="M262.8,58.9h-0.5v-5.4h0.8l1.3,3.9v-3.9h0.5v5.4h-0.6l-1.4-4.4V58.9z"/>
		<path class="wireColor" d="M266,53.4v5.4h-0.6v-5.4H266z"/>
		<path class="wireColor" d="M267.6,56.5l-0.3,0.5v1.8h-0.6v-5.4h0.6v2.6l1.4-2.6h0.6l-1.4,2.5l1.4,3h-0.6L267.6,56.5z"/>
		<path class="wireColor" d="M270.4,53.4v5.4h-0.6v-5.4H270.4z"/>
		<path class="wireColor" d="M222.7,61.2v5.4h-0.6v-5.4H222.7z"/>
		<path class="wireColor" d="M225.3,66.6v-4.9h-1v-0.6h2.6v0.6h-1v4.9H225.3z"/>
		<path class="wireColor" d="M229.3,63.6v0.5H228v1.9h1.6v0.6h-2.2v-5.4h2.2v0.6H228v1.9H229.3z"/>
		<path class="wireColor" d="M230.1,66.6v-5.4h0.6v4.9h1.6v0.6H230.1z"/>
		<path class="wireColor" d="M234.7,63.6v0.5h-1.3v1.9h1.6v0.6h-2.2v-5.4h2.2v0.6h-1.6v1.9H234.7z"/>
		<path class="wireColor" d="M236.5,64.3l-0.3,0.5v1.8h-0.6v-5.4h0.6v2.6l1.4-2.6h0.6l-1.4,2.5l1.4,3h-0.6L236.5,64.3z"/>
		<path class="wireColor" d="M238.6,62.5c0-0.8,0.4-1.4,1.2-1.4c0.8,0,1.3,0.5,1.3,1.4v2.8c0,0.8-0.4,1.4-1.3,1.4c-0.8,0-1.2-0.5-1.2-1.4
			V62.5z M239.2,65.3c0,0.5,0.2,0.8,0.6,0.8c0.4,0,0.6-0.3,0.6-0.8v-2.9c0-0.5-0.2-0.8-0.6-0.8c-0.4,0-0.6,0.3-0.6,0.8V65.3z"/>
		<path class="wireColor" d="M243.7,66.6h-0.6l-0.9-4.3v4.3h-0.5v-5.4h0.8l0.9,4.3l0.9-4.3h0.8v5.4h-0.6v-4.4L243.7,66.6z"/>
		<path class="wireColor" d="M246.3,65.3c0,0.5,0.2,0.8,0.6,0.8c0.4,0,0.6-0.3,0.6-0.8v-4.2h0.6v4.1c0,0.8-0.4,1.4-1.2,1.4
			c-0.8,0-1.2-0.6-1.2-1.4v-4.1h0.6V65.3z"/>
		<path class="wireColor" d="M249.3,66.6h-0.5v-5.4h0.8l1.3,3.9v-3.9h0.5v5.4h-0.6l-1.4-4.4V66.6z"/>
		<path class="wireColor" d="M252.5,61.2v5.4h-0.6v-5.4H252.5z"/>
		<path class="wireColor" d="M254.1,64.3l-0.3,0.5v1.8h-0.6v-5.4h0.6v2.6l1.4-2.6h0.6l-1.4,2.5l1.4,3h-0.6L254.1,64.3z"/>
		<path class="wireColor" d="M257,65.5l-0.2,1.1h-0.6l1-5.4h0.9l1,5.4h-0.6l-0.2-1.1H257z M257,65h1.2l-0.6-3.1L257,65z"/>
		<path class="wireColor" d="M262,62.5V63h-0.6v-0.5c0-0.5-0.2-0.8-0.6-0.8c-0.4,0-0.6,0.3-0.6,0.8v2.9c0,0.5,0.2,0.8,0.6,0.8
			c0.4,0,0.6-0.3,0.6-0.8v-0.7h0.6v0.7c0,0.8-0.4,1.4-1.2,1.4c-0.8,0-1.2-0.5-1.2-1.4v-2.8c0-0.8,0.4-1.4,1.2-1.4
			C261.6,61.1,262,61.7,262,62.5z"/>
		<path class="wireColor" d="M262.4,66.1c0.1,0,0.2,0,0.3,0c0.4,0,0.6-0.2,0.6-0.8v-4.1h0.6v4.1c0,1-0.5,1.3-1.2,1.4c-0.1,0-0.2,0-0.4,0
			V66.1z"/>
		<path class="wireColor" d="M265.2,61.2v5.4h-0.6v-5.4H265.2z"/>
	</g>
	<g>
		<path class="wireColor" d="M221.7,429.3c1.2,0,1.6,0.5,1.6,1.6v0.3c0,0.8-0.2,1.3-0.9,1.5c0.7,0.2,1,0.8,1,1.6v0.6
			c0,1.1-0.5,1.7-1.7,1.7h-1.7v-7.4H221.7z M221.5,432.4c0.7,0,1-0.2,1-1V431c0-0.7-0.2-1-0.8-1h-0.8v2.4H221.5z M221.8,435.9
			c0.6,0,0.9-0.3,0.9-1v-0.7c0-0.8-0.3-1.1-1-1.1h-0.7v2.8H221.8z"/>
		<path class="wireColor" d="M225,429.3v7.4h-0.8v-7.4H225z"/>
		<path class="wireColor" d="M227.5,429.3c1.2,0,1.6,0.5,1.6,1.6v0.3c0,0.8-0.2,1.3-0.9,1.5c0.7,0.2,1,0.8,1,1.6v0.6
			c0,1.1-0.5,1.7-1.7,1.7h-1.7v-7.4H227.5z M227.3,432.4c0.7,0,1-0.2,1-1V431c0-0.7-0.2-1-0.8-1h-0.8v2.4H227.3z M227.6,435.9
			c0.6,0,0.9-0.3,0.9-1v-0.7c0-0.8-0.3-1.1-1-1.1h-0.7v2.8H227.6z"/>
		<path class="wireColor" d="M230,436.7v-7.4h0.8v6.6h2.1v0.8H230z"/>
		<path class="wireColor" d="M234.4,429.3v7.4h-0.8v-7.4H234.4z"/>
		<path class="wireColor" d="M235.2,431c0-1.1,0.6-1.9,1.7-1.9c1.1,0,1.7,0.7,1.7,1.9v3.8c0,1.1-0.6,1.9-1.7,1.9c-1.1,0-1.7-0.7-1.7-1.9
			V431z M236,434.9c0,0.7,0.3,1.1,0.9,1.1c0.6,0,0.9-0.4,0.9-1.1V431c0-0.7-0.3-1.1-0.9-1.1c-0.6,0-0.9,0.4-0.9,1.1V434.9z"/>
		<path class="wireColor" d="M240.4,436.7V430h-1.4v-0.8h3.5v0.8h-1.4v6.6H240.4z"/>
		<path class="wireColor" d="M245.8,432.5v0.7H244v2.6h2.2v0.8h-3v-7.4h3v0.8H244v2.5H245.8z"/>
		<path class="wireColor" d="M248.2,433.4l-0.4,0.7v2.5H247v-7.4h0.8v3.6l2-3.6h0.8l-1.9,3.4l1.9,4h-0.8L248.2,433.4z"/>
		<path class="wireColor" d="M252.1,435.2l-0.3,1.5h-0.8l1.4-7.4h1.2l1.4,7.4h-0.8l-0.3-1.5H252.1z M252.2,434.5h1.6l-0.8-4.3L252.2,434.5
			z"/>
		<path class="wireColor" d="M219.6,447.2v-6.6h-1.4v-0.8h3.5v0.8h-1.4v6.6H219.6z"/>
		<path class="wireColor" d="M225,443.1v0.7h-1.8v2.6h2.2v0.8h-3v-7.4h3v0.8h-2.2v2.5H225z"/>
		<path class="wireColor" d="M229.5,441.6v0.7h-0.8v-0.7c0-0.7-0.3-1.1-0.9-1.1c-0.6,0-0.9,0.4-0.9,1.1v3.9c0,0.7,0.3,1.1,0.9,1.1
			c0.6,0,0.9-0.4,0.9-1.1v-1h0.8v0.9c0,1.1-0.5,1.9-1.7,1.9c-1.1,0-1.7-0.7-1.7-1.9v-3.8c0-1.1,0.5-1.9,1.7-1.9
			C228.9,439.7,229.5,440.5,229.5,441.6z"/>
		<path class="wireColor" d="M231,443.9v3.3h-0.8v-7.4h0.8v3.3h1.8v-3.3h0.8v7.4h-0.8v-3.3H231z"/>
		<path class="wireColor" d="M235.2,447.2h-0.7v-7.4h1l1.7,5.3v-5.3h0.7v7.4h-0.9l-1.9-6V447.2z"/>
		<path class="wireColor" d="M239.7,439.8v7.4h-0.8v-7.4H239.7z"/>
		<path class="wireColor" d="M243.8,441.6v0.7H243v-0.7c0-0.7-0.3-1.1-0.9-1.1c-0.6,0-0.9,0.4-0.9,1.1v3.9c0,0.7,0.3,1.1,0.9,1.1
			c0.6,0,0.9-0.4,0.9-1.1v-1h0.8v0.9c0,1.1-0.5,1.9-1.7,1.9c-1.1,0-1.7-0.7-1.7-1.9v-3.8c0-1.1,0.5-1.9,1.7-1.9
			C243.2,439.7,243.8,440.5,243.8,441.6z"/>
		<path class="wireColor" d="M247.7,447.2h-3.4v-0.7l2.5-5.9h-2.4v-0.8h3.3v0.7l-2.5,5.9h2.5V447.2z"/>
		<path class="wireColor" d="M249.2,447.2h-0.7v-7.4h1l1.7,5.3v-5.3h0.7v7.4h-0.9l-1.9-6V447.2z"/>
		<path class="wireColor" d="M253.7,445.7l-0.3,1.5h-0.8l1.4-7.4h1.2l1.4,7.4h-0.8l-0.3-1.5H253.7z M253.8,445h1.6l-0.8-4.3L253.8,445z"/>
	</g>
</g>
<g id="eventSpot_1_">
	<rect id="H16" x="231.8" y="189.8" class="eventColor" width="35.2" height="21.8"/>
	<rect id="H17" x="268.1" y="189.8" class="eventColor" width="39.7" height="21.8"/>
	<rect id="H15" x="232.1" y="219.4" class="eventColor" width="22" height="17.1"/>
	<rect id="H6" x="308.6" y="248" class="eventColor" width="13" height="11.3"/>
	<path id="WEIT" class="eventColor" d="M294.8,39c0,0,0,0-19.3,0l0.3,32.8h-12.3v19.9h31.3V39z"/>
	<polygon id="E" class="eventColor" points="228.1,254.2 228.1,269.7 239.8,269.7 239.8,286 265,286 265,269.7 300.9,269.7 300.9,254.2
		"/>
	<polygon id="BM" class="eventColor" points="228,302.6 300.9,302.5 300.9,287 228,287 	"/>
	<polygon id="CMP" class="mapElements" points="134.7,152 94.8,152 122,232.9 147.2,232.9 147.2,203.5 134.7,203.5 	"/>
	<rect id="H22" x="194.3" y="231.1" class="eventColor" width="13.6" height="32.5"/>
	<rect id="H21" x="179.6" y="231.1" class="eventColor" width="13.6" height="32.5"/>
	<rect id="H23" x="194.3" y="264.6" class="eventColor" width="13.6" height="29.9"/>
	<rect id="H20" x="179.6" y="264.6" class="eventColor" width="13.6" height="29.9"/>
	<rect id="H24" x="194.3" y="295.5" class="eventColor" width="13.5" height="32"/>
	<rect id="H19" x="179.6" y="295.5" class="eventColor" width="13.5" height="32"/>
	<path id="CW" class="eventColor" d="M210.5,425.4L210.5,425.4c-13.8-0.1-25-11.4-25-25.2h-29.1v56.2h54.1V425.4z"/>
	<polygon id="CMBIN" class="eventColor" points="200.5,155 138.2,169.2 138.2,193.5 156,189.9 156,195 202,195 202,180.5 206,179.4 	"/>
	<polygon id="WTCH" class="eventColor" points="68.9,412.6 100.5,412.6 102.2,420.2 82.2,423.4 84.2,435.9 105,432.6 106.8,440.4
		68.9,440.4 68.9,454.8 128.5,454.8 132.2,440.4 124.7,440.4 121.7,412.6 137.6,412.6 137.6,398.2 137.6,398.2 68.9,398.2 	"/>
	<path id="BT" class="eventColor" d="M265.9,400.2h-29.1c0,13.9-11.3,25.2-25.2,25.2v31h54.3V400.2z"/>
</g>
<g id="guideSpot">
	<circle id="K-D06" class="wireColor" cx="111.3" cy="199.6" r="3.2"/>
	<circle id="K-D05" class="wireColor" cx="313.8" cy="143.5" r="3.2"/>
	<circle id="K-D04" class="wireColor" cx="391.4" cy="182.6" r="3.2"/>
	<circle id="K-D03" class="wireColor" cx="391.4" cy="342.6" r="3.2"/>
	<circle id="K-D02" class="wireColor" cx="391.4" cy="302.5" r="3.2"/>
	<circle id="K-D01" class="wireColor" cx="289.6" cy="338.1" r="3.2"/>
</g>
</svg>
