<?xml version="1.0" encoding="utf-8"?>
<!-- Generator: Adobe Illustrator 20.0.0, SVG Export Plug-In . SVG Version: 6.00 Build 0)  -->
<svg version="1.1" id="Warstwa_1" xmlns="http://www.w3.org/2000/svg" xmlns:xlink="http://www.w3.org/1999/xlink" x="0px" y="0px"
	 viewBox="0 0 1073.1 940.5" style="enable-background:new 0 0 1073.1 940.5;" xml:space="preserve">
<style type="text/css">.wireColor{fill: #777777;}.nofloorColor{fill: #F2F2F2;}.arrowColor{fill: #EA5906;}.eventColor{opacity: 0.3; fill: #F59E16; transition: 1s fill;}.wcColor{opacity: 0.3; fill: #3693B2;}.stairsColor{opacity: 0.3; fill: #73cc15;}.transparentObject{fill: 0;}.riverColor{fill: #B9DDEF;}.mapElements{fill: #E2E2E2;}.tramColor{fill: #73CC15;}.mapArrows{fill: #BFBFBF;}.buildingFill{fill: #E5E5E5;}.eventColor.active{opacity: 0.3; fill: red; -webkit-animation: alertOpacity 2s infinite alternate; animation: alertOpacity 2s infinite alternate;}@-webkit-keyframes alertOpacity{0%{opacity: 0.3;}50%{opacity: 0.5;}100%{opacity: 0.3;}}@keyframes alertOpacity{0%{opacity: 0.3;}50%{opacity: 0.5;}100%{opacity: 0.3;}}#guideSpot .eventColor.active{fill: red; opacity: 1; r: 10; transform-origin: 150px 150px; -webkit-transform-origin: 50% 50%; -webkit-animation: alertScale 2s infinite alternate; animation: alertScale 2s infinite alternate;}@-webkit-keyframes alertScale{0%{-webkit-transform: scale(1, 1);}50%{-webkit-transform: scale(2, 2);}100%{-webkit-transform: scale(1, 1);}}@keyframes alertScale{0%{transform: scale(1, 1);}50%{transform: scale(2, 2);}100%{transform: scale(1, 1);}}</style>
<g id="description">
	<g>
		<path class="wireColor" d="M821,810.7v0.9h-3.5v-1.1c0-3-1.1-4.8-3.8-4.8s-3.8,1.8-3.8,4.7c0,7.5,11.2,8.2,11.2,17.5
			c0,5-2.4,8.3-7.5,8.3s-7.5-3.3-7.5-8.3V826h3.5v2.1c0,3,1.2,4.8,3.9,4.8s3.9-1.8,3.9-4.8c0-7.4-11.1-8.1-11.1-17.5
			c0-5.1,2.4-8.3,7.4-8.3C818.6,802.4,821,805.7,821,810.7z"/>
		<path class="wireColor" d="M828,829.3l-1.3,6.7h-3.4l6.4-33.3h5.4l6.4,33.3h-3.7l-1.3-6.7H828z M828.5,826.1h7.4l-3.8-19.2L828.5,826.1z
			"/>
		<path class="wireColor" d="M844.3,836v-33.3h3.7v29.9h9.5v3.4L844.3,836L844.3,836z"/>
		<path class="wireColor" d="M864.1,829.3l-1.3,6.7h-3.4l6.4-33.3h5.4l6.4,33.3h-3.7l-1.3-6.7H864.1z M864.5,826.1h7.4l-3.8-19.2
			L864.5,826.1z"/>
		<path class="wireColor" d="M813,863.6c0,14.4-16.2,19.6-16.3,30.6v0.8h15.7v4.8h-21v-4.1c0-15.4,16.2-18.4,16.2-31.9
			c0-4.9-1.6-7.5-5.6-7.5c-3.9,0-5.6,2.8-5.6,7v4.2h-5v-3.9c0-7.3,3.3-12.2,10.7-12.2C809.6,851.5,813,856.3,813,863.6z"/>
		<path class="wireColor" d="M827.7,860.6c-1.8,1.1-4.1,1.9-6.6,2v-4.4c5.2-0.2,7-3,8.2-6.4h3.7v47.8h-5.3L827.7,860.6L827.7,860.6z"/>
		<path class="wireColor" d="M860.4,890.1v9.6h-5.2v-9.6h-15.4v-4.8l14.8-33.3h5.8v33.3h3.8v4.8H860.4z M844.7,885.3h10.5v-23.4
			L844.7,885.3z"/>
		<path class="wireColor" d="M873.7,890.1l-1.8,9.6H867l9.2-47.8h7.7l9.2,47.8h-5.3l-1.8-9.6H873.7z M874.4,885.6H885l-5.4-27.6
			L874.4,885.6z"/>
	</g>
	<g>
		<path class="wireColor" d="M323,207.3h-3.8l-3.4-24.8h2.7l2.9,21.1l2.8-21.1h2.7l2.7,21.1l2.8-21.1h2.4l-3.4,24.8h-3.6l-2.4-16.8
			L323,207.3z"/>
		<path class="wireColor" d="M348,188.5v2.2h-2.6v-2.4c0-2.2-0.9-3.6-2.9-3.6s-2.9,1.3-2.9,3.6v13.1c0,2.2,0.9,3.6,2.9,3.6
			s2.9-1.3,2.9-3.6v-3.2h2.6v3.1c0,3.8-1.8,6.2-5.6,6.2c-3.8,0-5.6-2.5-5.6-6.2v-12.8c0-3.8,1.8-6.2,5.6-6.2
			C346.2,182.3,348,184.8,348,188.5z"/>
	</g>
	<g>
		<path class="wireColor" d="M423.9,805.5h-3l-2.7-19.5h2.1l2.3,16.6l2.2-16.6h2.1l2.1,16.6l2.2-16.6h1.9l-2.6,19.5h-2.9l-1.9-13.2
			L423.9,805.5z"/>
		<path class="wireColor" d="M443.6,790.7v1.8h-2.1v-1.9c0-1.8-0.7-2.8-2.3-2.8c-1.6,0-2.3,1.1-2.3,2.8v10.3c0,1.8,0.7,2.8,2.3,2.8
			c1.6,0,2.3-1.1,2.3-2.8v-2.5h2.1v2.4c0,3-1.4,4.9-4.4,4.9s-4.4-2-4.4-4.9v-10.1c0-3,1.4-4.9,4.4-4.9S443.6,787.8,443.6,790.7z"/>
	</g>
	<g>
		<path class="wireColor" d="M458.1,771.9h-3l-2.7-19.5h2.1l2.3,16.6l2.2-16.6h2.1l2.1,16.6l2.2-16.6h1.9l-2.6,19.5h-2.9l-1.9-13.2
			L458.1,771.9z"/>
		<path class="wireColor" d="M477.8,757.1v1.8h-2.1V757c0-1.8-0.7-2.8-2.3-2.8c-1.6,0-2.3,1.1-2.3,2.8v10.3c0,1.8,0.7,2.8,2.3,2.8
			c1.6,0,2.3-1.1,2.3-2.8v-2.5h2.1v2.4c0,3-1.4,4.9-4.4,4.9s-4.4-2-4.4-4.9v-10.1c0-3,1.4-4.9,4.4-4.9S477.8,754.2,477.8,757.1z"/>
	</g>
	<g>
		<path class="wireColor" d="M225.2,207.3h-3.8l-3.4-24.8h2.7l2.9,21.1l2.8-21.1h2.7l2.7,21.1l2.8-21.1h2.4l-3.4,24.8H230l-2.4-16.8
			L225.2,207.3z"/>
		<path class="wireColor" d="M250.2,188.5v2.2h-2.6v-2.4c0-2.2-0.9-3.6-2.9-3.6s-2.9,1.3-2.9,3.6v13.1c0,2.2,0.9,3.6,2.9,3.6
			s2.9-1.3,2.9-3.6v-3.2h2.6v3.1c0,3.8-1.8,6.2-5.6,6.2s-5.6-2.5-5.6-6.2v-12.8c0-3.8,1.8-6.2,5.6-6.2
			C248.4,182.3,250.2,184.8,250.2,188.5z"/>
	</g>
</g>
<g id="hotSpot">
	<polygon class="stairsColor" points="128.9,75.3 178.8,75.3 178.8,156.6 109.6,156.6 	"/>
	<polygon class="stairsColor" points="416.8,277.1 437.4,272.5 455.5,362.9 435.7,367.1 	"/>
	<polygon class="stairsColor" points="474.8,549.3 494.6,545.1 513.5,635.2 492.9,639.8 	"/>
	<polygon class="stairsColor" points="120.7,790.2 205.5,790.2 205.5,812.2 236.1,812.2 236.1,833.1 130.5,833.1 	"/>
	<rect x="1018.3" y="693" class="stairsColor" width="51.9" height="81.6"/>
	<polygon class="stairsColor" points="369.2,421.3 397.3,415.5 409.6,475.4 381.6,481.3 	"/>
	<polygon class="stairsColor" points="997.5,123.1 963.4,123.1 963.4,135.9 951.5,135.9 951.5,241.1 997.5,241.1 	"/>
	<polygon class="wcColor" points="452.9,813.8 394.1,813.8 394.1,776.1 414.2,776.1 414.2,735.8 483,735.8 495.1,785.2 453.1,785.2 	"/>
	<path class="wcColor" d="M201.2,176h171.6c0,0,0,26.7,0,39.3s-7.8,20-23.1,20s-48,0-48,0V212h-54.1v22.6h-46.3L201.2,176z"/>
</g>
<g id="wire">
	<path class="wireColor" d="M1073.1,243.1V16.6h-51.4V0.2L453.7,0h-1.9v9.6h-54.9v8.1h-57.6V9.5h-94.5h-89.7c-19,0-23.8,10.9-26.2,22.7
		c-2.5,12.4-38.8,176.9-44.7,200.1c-2.4,9.2-0.9,17.6,4.3,24.2c6.5,8.3,17.2,12.1,25,12.1h27.2l86.4,414.8H79.5
		c-2.2-0.2-44.6-3.9-59.8-6.2c-7.9-1.2-12.5,1.1-15,3.2C1.7,683,0,687,0,691.6v211.7c0,5.7,2.3,15.2,17.5,15.9l0,0h437.6v21.2h553.2
		v-22.3h64.7v-227H583L562.5,595l66.8-13.6l-42.4-204.2l-66.6,14.3l-31.9-149.3l582.8,1L1073.1,243.1z M551.5,692h-2.4l0.2,1
		c0.3,1.6,7.4,39.4,9.6,46.2c0.1,0.4,0.3,0.8,0.4,1.2c2,6.4,3.7,11.9,21.1,11.9h421.3v-8.5h16.8v59.3L1017,828h-0.2v0.8h0.1
		l-1.5,24.2h-14.3v-68.6h-73.3v-5.6h-23.4v5.6h-68v-5.6h-24.1v5.6h-68v-5.6H720v5.6h-68.5V779h-24.4v5.4h-66.6v-5.6h-24.2v5.6h-39.5
		l-12.3-49.8h-79.2c-10.8,0-11.1,9.4-11.1,10.5v3.9h1.8v-3.9c0-1.5,0.4-8.8,9.3-8.8h9.5v11.6h-12v0.4c0,6.7,5.4,12.2,12,12.4v7.4
		v0.4v7.3h-1.6v-12h-0.4c-6.7,0-12.2,5.4-12.4,12H396v-7.9h-1.8v36.6H261.3v-15.4H99.7l2.3,7.8H65.2v-43.6h166h0.1
		c0.3,0,27.6-4.6,38.1-7.8c11.1-3.4,14.3-9.4,11.4-21.2c-2.7-11.1-7.4-36.2-7.5-36.7l-7.3-51.5c10.7,0.1,103.8,1.2,122.3,1.2
		c7,0,12-1.8,14.8-5.2c4.1-5.1,2.5-12.5,1.7-16.1c-1.3-5.8-19.2-83.5-21.3-92.7l36.4-7.1l-0.2-0.9c-0.4-1.8-36-175.7-41.6-200.7
		c-5.5-24.6-10.6-34.5-28.3-32.1C339,284,231.1,306.1,220,308.3l-7.6-53.7h4.7v-19.1h32.3V228c6.4-0.5,11.5-5.8,11.5-12.4v-0.4
		h-11.5v-2.4h26.1v11.5h0.4c6.6,0,11.9-5.1,12.4-11.5h13.5v2.4h-11.5v0.4c0,6.6,5.1,11.9,11.5,12.4v8.1h51
		c17.3,0,21.9-13.1,21.9-20.9v-40.1h-194v-38.4h77.6v5.6h37.3v-5.6H537v5.1h23.8v-5.1H627v6.1h24.4v-6.1h66.1v6.3h25.6v-6.3h67.4
		v6.4h24.6v-6.4h67.5v6h25.8v-6h23.3v29.8H483.8v4.7h-36.6c-2.5,0-4.4,0.7-5.6,2c-1.1,1.2-1.5,3-1.3,5.1
		c0.7,5.6,11.9,59.3,12.3,61.6l0.1,0.7h4.5L551.5,692z M916.6,914.6V780.4h9.5v5.6h73.3v67.8v0.9v59.8L916.6,914.6z M538,785.2v-4.8
		h20.7v4.8l-0.1,8.2H538v-7.3V785.2z M559.2,795.1v120.2h-21.7V795.1H559.2z M559.9,795.1h0.5l0.1-9h66.6v10.1h11.8v119l-79,0.1
		L559.9,795.1L559.9,795.1z M649.7,785.2v0.9v8.3h-20.9v-8.3v-0.9v-4.6h20.9V785.2z M639.6,796.1h11.8V786H720v9h10.5v120l-90.9,0.2
		V796.1z M742.6,785.2v0.9v7.3h-20.8v-7.3v-0.9v-4.8h20.8V785.2z M731.2,795.1h13.1v-9h32v128.8l-45.1,0.1V795.1z M777.1,786.1h21.8
		c0.5,6.4,5.8,11.5,12.4,11.5h0.4v-11.5h2.5v-5.6h20.6v5.6H891c0.5,6.4,5.8,11.5,12.4,11.5h0.4v-11.5h2.4v-5.6h9.6v134.2L777,915
		L777.1,786.1L777.1,786.1z M810.9,786.1v10.8c-6-0.2-10.8-4.9-11.3-10.8H810.9z M903.1,786.1v10.8c-6-0.2-10.8-4.9-11.3-10.8H903.1
		z M1001.1,854.7h16l1.6-26h21v8.7h29.7v33.3h-68.2L1001.1,854.7L1001.1,854.7z M1040.4,836.7V828h-21.7l1.5-24.8v-0.8h49.1v34.3
		H1040.4z M1020.2,718.3h24.3v2.4h-24.3V718.3z M1069.3,750.2h-23v-2.5h23V750.2z M1020.2,756.3c5.9,0.4,10.6,5.3,10.8,11.3h-10.8
		V756.3z M1020.2,744.5h24.3v2.4h-24.3V744.5z M1020.2,747.7h24.3v2.5h-24.3V747.7z M1069.3,747h-23v-2.4h23V747z M1069.3,743.8h-23
		v-2.6h23V743.8z M1069.3,740.5h-23v-2.9h23V740.5z M1069.3,736.9h-23v-2.5h23V736.9z M1069.3,733.6h-23v-2.4h23V733.6z
		 M1069.3,730.5h-23v-2.6h23V730.5z M1069.3,727.1h-23v-2.4h23V727.1z M1069.3,724h-23v-2.5h23V724z M1069.3,720.7h-23v-2.4h23
		V720.7z M1020.2,721.5h24.3v2.5h-24.3V721.5z M1020.2,724.7h24.3v2.4h-24.3V724.7z M1020.2,727.9h24.3v2.6h-24.3V727.9z
		 M1020.2,731.2h24.3v2.4h-24.3V731.2z M1020.2,734.4h24.3v2.5h-24.3V734.4z M1020.2,737.6h24.3v2.9h-24.3V737.6z M1020.2,742v-0.8
		h24.3v2.6h-24.3v-0.9V742z M1020.2,800.6v-25.1h49.1v25.1H1020.2z M1020.2,773.8v-5.4h11.5V768c0-6.6-5.1-11.9-11.5-12.4V751h24.3
		v1.1h1.8V751h23v22.8H1020.2z M1069.3,717.6h-23V715h23V717.6z M1044.5,717.6h-24.3V715h24.3V717.6z M1018.5,742h-18.6v8.5h-34.5
		v-55.7h53.1V742z M964.6,750.6h-49.4v-55.7h49.4V750.6z M914.5,750.6h-50.3v-20.8h9.2v-34.9h41L914.5,750.6L914.5,750.6z
		 M872.7,729h-9.2v21.5h-40.3v-55.7h49.5V729z M822.4,750.6h-49.9v-20.8h9.2v-34.9h40.7V750.6z M780.9,729h-9.2v21.5h-39.2v-55.7
		h48.4V729z M731.8,750.6h-47.9v-55.7h47.9V750.6z M683.2,750.6h-31.3v-55.7h31.3V750.6z M102.4,798.6l11.1,44.6h64.3v72.3H84.5
		V798.6H102.4z M131.3,790.8h11.3c-0.3,6-5.2,10.9-11.3,11.1V790.8z M130.9,802.7c6.6,0,12.1-5.2,12.4-11.8h5.1v20.4h-0.8v1.8h0.8
		v19.2h-16.8l-8.9-41.4h7.8v11.8H130.9z M259.5,805.3l-0.4,36.2H238v-30.2h-31.1v-20.4h52.6V805.3z M133.6,841.5L132,834h104.3v7.5
		H133.6z M151.7,813v19.2h-2.6V813H151.7z M236.2,832.2h-3.1V813h3.1V832.2z M232.3,832.2h-2.5V813h2.5V832.2z M229.1,832.2h-2.4
		V813h2.4V832.2z M225.9,832.2h-2.6V813h2.6V832.2z M222.6,832.2h-2.9V813h2.9V832.2z M219,832.2h-2.5V813h2.5V832.2z M215.7,832.2
		h-2.4V813h2.4V832.2z M212.6,832.2H210V813h2.6V832.2z M209.3,832.2h-2.4V813h2.4V832.2z M206.1,813v19.2h-2.5V813h1.5H206.1
		L206.1,813z M202.9,832.2H185V813h17.8L202.9,832.2L202.9,832.2z M184.3,832.2h-2.5V813h2.5V832.2z M181,832.2h-2.4V813h2.4V832.2z
		 M177.9,832.2h-2.6V813h2.6V832.2z M174.6,832.2h-2.9V813h2.9V832.2z M170.9,832.2h-2.5V813h2.5V832.2z M167.7,832.2h-2.4V813h2.4
		V832.2z M164.5,832.2H162V813h2.6v19.2H164.5z M161.2,832.2h-2.4V813h2.4V832.2z M158.1,832.2h-2.5V813h2.5V832.2z M154.8,832.2
		h-2.4V813h2.4V832.2z M205.1,811.3H185v-20.4h20.1V811.3z M184.3,811.3h-2.5v-20.4h2.5V811.3z M181,811.3h-2.4v-20.4h2.4V811.3z
		 M177.9,811.3h-2.6v-20.4h2.6V811.3z M174.6,811.3h-2.9v-20.4h2.9V811.3z M170.9,811.3h-2.5v-20.4h2.5V811.3z M167.7,811.3h-2.4
		v-20.4h2.4V811.3z M164.5,811.3H162v-20.4h2.6v20.4H164.5z M161.2,811.3h-2.4v-20.4h2.4V811.3z M158.1,811.3h-2.5v-20.4h2.5V811.3z
		 M154.8,811.3h-2.4v-20.4h2.4V811.3z M151.7,811.3h-2.6v-20.4h2.6V811.3z M120.9,790.8l10.8,50.7h-16.9l-10.7-42.9l0,0l-2.3-7.8
		H120.9z M178.6,843.3h82.3l0.4-37.1h42.2v109.3H178.6V843.3z M304.2,806.2h61.7v109.3h-61.7V806.2z M366.7,806.2h27.6v8.4H453
		v100.9h-86.4V806.2H366.7z M396,776.5h4.4h12.8h1.6v21.1c-6.7,0.2-12,5.7-12,12.4v0.4h12v2.6H396v-6.7v-0.9V776.5z M412.4,775.7
		h-11.3c0.2-6.1,5.2-11.1,11.3-11.3V775.7z M414.8,759.9c-6.1-0.2-11.1-5.2-11.3-11.3h11.3V759.9z M415.5,760.7v-12.8v-11.6h31.3
		v18.3c-6.7,0.2-12.1,5.7-12.1,12.4v0.4h12.1v7.4h-14.6v-6.6h-16.6L415.5,760.7L415.5,760.7z M453,812.9h-37.5v-2.6v-12.8v-28.7
		h15.9v6.6h15.4v10.1h6.3L453,812.9L453,812.9z M414.8,809.6h-11.3c0.2-6.1,5.2-11.1,11.3-11.3V809.6z M446.8,755.3v11.3h-11.3
		C435.7,760.5,440.6,755.5,446.8,755.3z M453,784.3v0.5h-5.5v-48.5h35.6l11.9,48H453z M63.4,797.2H21.3v-44.4h42.2L63.4,797.2
		L63.4,797.2z M63.4,751.6v0.5H21.3v-56.2h65.4v35.5h8.6v20.2H63.4z M293.8,135v5.6H260V135h-9.9V78.1h26.1V21.4h48.1V135H293.8z
		 M212.9,78.1h11.5V135h-20.2V86.2L212.9,78.1z M225.1,78.1h24.3V135h-24.3V78.1z M275.5,77.3h-50.4V21.4h19.7h30.8v55.9H275.5z
		 M224.3,77.3h-11.2V21.4h11.2V77.3z M212.3,77.5l-9,8.3V135h-22.7V55.7H136c2.9-12.7,4.9-21.4,5.3-23.3c2.1-8.5,5.2-11.1,13.6-11.1
		h25.8h31.7v56.2H212.3z M178.9,151.6h-10.6c0.2-5.9,4.8-10.7,10.6-11.2V151.6z M178.9,126.6h-27.7v-2.4h27.7V126.6z M178.9,123.4
		h-27.7v-2.6h27.7V123.4z M178.9,120.1h-27.7v-2.9h27.7V120.1z M178.9,116.5h-27.7V114h27.7V116.5z M178.9,113.2h-27.7v-2.4h27.7
		V113.2z M178.9,110h-27.7v-2.6h27.7V110z M178.9,106.7h-27.7v-2.4h27.7V106.7z M178.9,103.6h-27.7v-2.5h27.7V103.6z M178.9,100.3
		h-27.7v-2.4h27.7V100.3z M178.9,97.2h-27.7v-2.6h27.7V97.2z M151.2,127.3h27.7v2.5h-27.7V127.3z M135.6,57.5H179v16.9h-47.2
		C133.1,68.3,134.4,62.6,135.6,57.5z M131.3,76.1h47.6v17.7h-27.7v-1.7h-1.8v1.7h-22.1C128.7,87.7,130.1,81.7,131.3,76.1z
		 M127.2,94.6h22.3v2.6h-22.9C126.8,96.3,127,95.4,127.2,94.6z M126.4,97.9h23v2.4h-23.6C126,99.5,126.2,98.7,126.4,97.9z
		 M125.7,101.1h23.7v2.5h-24.3C125.3,102.7,125.5,101.9,125.7,101.1z M125,104.3h24.5v2.4h-25C124.6,105.9,124.8,105.1,125,104.3z
		 M124.2,107.5h25.2v2.6h-25.8C123.9,109.2,124,108.3,124.2,107.5z M123.5,110.8h25.9v2.4h-26.5
		C123.1,112.4,123.3,111.6,123.5,110.8z M122.8,114h26.6v2.5h-27.2C122.4,115.6,122.6,114.8,122.8,114z M122,117.2h27.4v2.9h-28
		C121.6,119.1,121.8,118.2,122,117.2z M121.2,120.8h28.2v2.6h-28.8C120.8,122.5,121,121.7,121.2,120.8z M120.5,124.1h28.9v2.4h-29.5
		C120.1,125.7,120.3,124.9,120.5,124.1z M119.8,127.3h29.7v2.5h-30.2C119.4,129,119.6,128.1,119.8,127.3z M118.1,134.5
		c0.3-1.3,0.6-2.6,0.9-3.9h30.4v1.5h1.8v-1.5h27.7v4.4v0.9v3.7c-6.3,0.6-11.3,5.9-11.3,12.4v0.4h11.3v3.4h-65.6
		C114.9,148.7,116.5,141.6,118.1,134.5z M112.9,157.5h66v19.4h22.4v56.9v0.9v22h-84.7c-8.1,0-14.4-2.5-18-7.1
		c-3.3-4.2-4.3-9.8-2.8-16C97,228.2,104.5,194.7,112.9,157.5z M301.8,227.2c-5.9-0.4-10.6-5.3-10.8-11.3h10.8V227.2z M303.5,213.6
		h38.3c0.2,6.7,5.7,12,12.4,12h0.4v-12h18.3v1.7c0,2-0.6,19.1-20.1,19.1h-49.3L303.5,213.6L303.5,213.6z M342.6,213.6h11.3v11.3
		C347.7,224.7,342.8,219.7,342.6,213.6z M372.9,212.8h-18.3h-12.8h-38.3v-1.7H296v-34.3h76.9V212.8z M295.2,211.1h-24.6v-34.3h24.6
		V211.1z M276.3,212.9h11.3c-0.4,5.9-5.3,10.6-11.3,10.8V212.9z M269.9,211.1h-22.3v1.7h-24.5h-12.8H203v-36h66.9V211.1z M203,233.7
		v-20.2h7.3v12h0.4c6.7,0,12.2-5.4,12.4-12h24.5v20.2H203z M211.1,213.6h11.3c-0.2,6.1-5.2,11.1-11.3,11.3V213.6z M249.4,216h10.8
		c-0.2,6-4.9,10.8-10.8,11.3L249.4,216L249.4,216z M203,235.5h12.4v17.4h-5l38,269.6l0.1,0.7l23,163.7h-29.2l-0.1-1.7l-37.8-428.6
		H203V235.5z M250.2,522.8L360.9,500l-0.1-0.7l-110.7,22.8l-11-78.4l82.8-17.6l1.2,5.9l21.2-4.3l19.8,88.7l15.6-3.7l1.8,9.3l0,0
		l0.2,0.9c0.2,0.9,20.2,87.4,21.5,93.6c0.7,3.3,2.2,10.2-1.4,14.6c-2.5,3-7,4.6-13.4,4.6c-18.6,0-113.2-1.1-122.5-1.2L250.2,522.8z
		 M369.5,422.4c4.2,18.3,11.7,51.9,12.2,58.2l-22.8,4.8l-13-58.1L369.5,422.4z M383.2,521.6l-1.8-9.3l16.2-3.4l1.9,9.5L383.2,521.6z
		 M401.2,518.1l-1.9-9.6l16.6-3.5c1,4.9,1.7,8.3,2,9.8L401.2,518.1z M381.1,510.6L381.1,510.6l-15.7,3.7l-6.1-27.1l50.7-10.6
		c2.2,10.8,4.1,20,5.5,26.9L381.1,510.6z M383.5,480.2c-0.4-4.1-2.8-15.6-5.3-27.4l25.9-5.5c2,9.7,3.9,18.9,5.6,27.3L383.5,480.2z
		 M377.8,451.2c-2.8-12.9-5.7-25.6-6.5-29.1l26.4-5.5c2,9.9,4.1,19.7,6,29.2L377.8,451.2z M344.7,425.8L344.7,425.8l-20.3,4.2
		l-2.5-12.3l71.9-19.6c1.2,5.6,2.3,11.2,3.5,16.9L344.7,425.8z M319.8,416.3l1.7,8.1L238.8,442l-18.6-131.9
		c10.4-2.1,119.1-24.3,129.9-25.8c15-2,20.4,4.3,26.3,30.7c2.2,10,9.3,44,17,81.2L319.8,416.3z M242.4,688.6h29.4
		c0.8,4.2,4.9,25.9,7.4,36.1c2.6,10.8-0.1,16-10.2,19.1s-36.3,7.5-37.8,7.8h-8.6v-55.7h20.2L242.4,688.6z M221.8,751.6H188v-21h-8.6
		v-34.7h42.5L221.8,751.6L221.8,751.6z M187.2,731.3v20.2H138v-55.7h40.6v35.5H187.2z M137.3,751.6H96.1v-21h-8.6v-34.7h49.8V751.6z
		 M535.5,21.2V135h-82.1V21.3L535.5,21.2z M823.4,141.3V20.7l174.3-0.3v68.3h-48.3V135h-22.7v6h-22.3v-6h-71v6.4h-21.1V135h-70.9
		v6.3h-10V20.9l91.3-0.2v120.6H823.4z M1069.3,181.2h-45.6v-24.6h45.6V181.2z M1069.3,154.9h-45.6v-52.1h45.6V154.9z M1069.3,101.1
		h-45.6V85h45.6V101.1z M1069.3,83.2h-69.9V41.1h69.9V83.2z M997.7,212.4h-21.3v-2.5h21.3V212.4z M953.4,142.8h10.8
		c-0.2,6-4.9,10.8-10.8,11.3V142.8z M951.1,135V90.5h46.6v31.8h-34.2V135h-10.1h-0.9H951.1z M953.4,167.9h21.3v2.6h-21.3v-2.2V167.9
		z M953.4,171.2h21.3v2.4h-21.3V171.2z M953.4,174.4h21.3v2.5h-21.3V174.4z M953.4,177.6h21.3v2.4h-21.3V177.6z M953.4,180.8h21.3
		v2.6h-21.3V180.8z M953.4,184.1h21.3v2.4h-21.3V184.1z M953.4,187.3h21.3v2.5h-21.3V187.3z M953.4,190.5h21.3v2.9h-21.3V190.5z
		 M953.4,194.2h21.3v2.6h-21.3V194.2z M953.4,197.5h21.3v2.4h-21.3V197.5z M953.4,200.6h21.3v2.5h-21.3V200.6z M953.4,203.9h21.3
		v2.1h-21.3V203.9z M953.4,206.8h21.3v2.4h-21.3V206.8z M953.4,209.9h21.3v2.5h-21.3V209.9z M997.7,209.2h-21.3v-2.4h21.3V209.2z
		 M997.7,206h-21.3v-2.1h21.3V206z M997.7,203.1h-21.3v-2.5h21.3V203.1z M997.7,199.9h-21.3v-2.4h21.3V199.9z M997.7,196.7h-21.3
		v-2.6h21.3V196.7z M997.7,193.4h-21.3v-2.9h21.3V193.4z M997.7,189.8h-21.3v-2.5h21.3V189.8z M997.7,186.5h-21.3v-2.4h21.3V186.5z
		 M997.7,183.4h-21.3v-2.6h21.3V183.4z M997.7,180.1h-21.3v-2.4h21.3V180.1z M997.7,176.9h-21.3v-2.5h21.3V176.9z M997.7,173.7
		h-21.3v-2.4h21.3V173.7z M997.7,170.5h-21.3v-4.3h-1.8v1h-21.3v-12.3c6.4-0.5,11.5-5.8,11.5-12.4v-0.4h-11.5v-5.3h11.8V124h32.4
		v46.5H997.7z M730.7,141.2h-11.4V135h-69.6v6.1h-9.9V21l90.9-0.2V141.2z M639,141.1h-10.2V135h-66.4V21.1L639,21V141.1z M561.7,135
		h-2.8v5.1h-20.3V135h-2.4V21.2h25.4L561.7,135L561.7,135z M457,238.9h-2.7c-1.3-6.5-11.6-55.5-12.2-60.7c-0.2-1.7,0.1-2.9,0.8-3.8
		c0.8-0.9,2.3-1.4,4.3-1.4h38.4v-4.7h61.7v70.2l-63.5-0.1l0.1,0.5H458H457z M548,168.3h42.7v70.3l-42.7-0.1V168.3z M591.5,168.3
		h50.4v70.4l-50.4-0.1V168.3z M642.7,168.3H684v70.4l-41.3-0.1V168.3z M684.7,168.3h49.2v70.5l-49.2-0.1V168.3z M734.6,168.3h43.6
		v70.6l-43.6-0.1V168.3z M778.9,168.3h45.6V239l-45.6-0.1V168.3z M825.2,168.3h42.6V239l-42.6-0.1V168.3z M868.6,168.3h42.7v70.8
		l-42.7-0.1V168.3z M912.1,168.3h39.6v70.9l-39.6-0.1V168.3z M953.4,213.2h21.3v0.5h1.8v-0.5h21.3v26.1l-44.3-0.1L953.4,213.2
		L953.4,213.2z M999.4,124v-0.9V85h22.6v112.9h-22.6V124z M1023.7,183h45.6v14.9h-45.6L1023.7,183L1023.7,183z M1069.3,20.4v19
		h-69.9v-19h20.4C1019.8,20.4,1069.3,20.4,1069.3,20.4z M455.6,13.3V3.7l562.3,0.2v12.7l-617.3,1v-4.4L455.6,13.3L455.6,13.3z
		 M400.6,21.4L400.6,21.4l52-0.1V135h-86.3V21.4H400.6z M339.3,21.4h26.4V135h-40.4V21.4h12.2H339.3z M3.8,903.3V691.6
		c0-3.5,1.2-6.4,3.4-8.3c2.7-2.3,6.8-3.1,12-2.4c15.7,2.3,59.7,6.2,60.1,6.2h152.4l-88-422.3h-30.2c-6.9,0-16.4-3.3-22.1-10.6
		c-4.5-5.8-5.7-12.8-3.6-21C93.8,210,130,45.4,132.5,33c2.5-12.2,7.1-19.7,22.5-19.7h89.7h90.7v4.4h-90.7h-64.1h-25.8
		c-10.1,0-14.7,3.8-17.2,13.9c-1.2,4.8-12.3,54.2-23.1,102.1c-10.3,45.5-20.9,92.6-22.4,99c-1.7,7.3-0.5,14.1,3.5,19.2
		c3.1,3.9,9.2,8.5,21,8.5H201l37.5,425.1l0.3,6.7H17.5v223.3C8.3,915,3.8,911,3.8,903.3z M21.3,797.9h42.2v0.7h20.4v116.9H21.3
		V797.9z M454.8,915.5V786.1h40.6h0.7h40.2v9h0.5v120.2l-79.7,0.2H454.8z M458.9,936.7v-17.5l545.7-1v18.5H458.9z M1004.6,914.5
		L1004.6,914.5h-3.5v-24h27.1v24H1004.6z M1029,914.5v-24.7h-27.9v-18.2h68.2v43L1029,914.5L1029,914.5z M1069.3,714.2h-23v-1h-1.8
		v1h-24.3v-19.4h49.1V714.2z M651.1,694.9v55.7h-70.8c-16.1,0-17.5-4.5-19.4-10.7c-0.1-0.4-0.2-0.8-0.4-1.2
		c-1.9-6-8.1-38.6-9.3-44.9l28.6,0.2l0.2,1L651.1,694.9L651.1,694.9z M579.4,692.1l-26.1-0.1l-19-91.3l24.6-5L579.4,692.1z
		 M584,381.6l40.9,196.9l-65.2,13.3l-26.2,5.3l-40.8-195.4l26.6-6.1L584,381.6z M516.6,392.3l-24.7,5.6l-32.8-157.3h25.1
		L516.6,392.3z M999.4,239.3v-39.6h69.9v39.7L999.4,239.3z"/>
	<rect x="258.2" y="248.5" class="wireColor" width="31.4" height="1.8"/>
	<path class="wireColor" d="M416.8,276.4L436,368l1.7-0.4l-0.4-2.1l18.1-4l0.3,1.7l1.7-0.3l-18.3-91.4L416.8,276.4z M435.8,358.5l-0.5-2.5
		l18.2-4.1l0.5,2.5L435.8,358.5z M454.1,355.2l0.4,2.1l-18.1,4.1l-0.4-2.1L454.1,355.2z M435.1,355.3l-0.6-2.7l18.2-4.1l0.5,2.7
		L435.1,355.3z M434.4,351.9l-0.6-2.6l18.2-4.1l0.5,2.6L434.4,351.9z M433.7,348.5l-0.5-2.6l18.3-4.1l0.5,2.6L433.7,348.5z
		 M433,345.2l-0.5-2.3l18.3-4.1l0.5,2.3L433,345.2z M432.3,342.2l-0.5-2.4l18.3-4.1l0.5,2.4L432.3,342.2z M431.7,339l-0.5-2.4
		l18.3-4.1l0.5,2.4L431.7,339z M431,335.9l-0.5-2.6l18.4-4.1l0.5,2.6L431,335.9z M430.3,332.6l-0.5-2.5l18.4-4.1l0.5,2.5
		L430.3,332.6z M429.7,329.4l-3.5-16.9l18.6-4.2l3.4,16.9L429.7,329.4z M426,311.7l-0.4-2.1l18.6-4.2l0.4,2.1L426,311.7z
		 M425.4,308.9l-0.5-2.5l18.6-4.2l0.5,2.5L425.4,308.9z M424.7,305.7l-0.6-2.7l18.6-4.2l0.5,2.7L424.7,305.7z M424,302.3l-0.6-2.6
		l18.7-4.2l0.5,2.6L424,302.3z M423.3,298.9l-0.5-2.6l18.7-4.2l0.5,2.6L423.3,298.9z M422.6,295.6l-0.5-2.3l18.7-4.2l0.5,2.3
		L422.6,295.6z M422,292.5l-0.5-2.4l18.8-4.2l0.5,2.4L422,292.5z M421.3,289.4l-0.5-2.4l18.8-4.2l0.5,2.4L421.3,289.4z M420.6,286.3
		l-0.5-2.6l18.8-4.2l0.5,2.6L420.6,286.3z M419.9,283l-0.5-2.5l18.9-4.2l0.5,2.5L419.9,283z M437.7,273.5l0.4,2l-18.9,4.2l-0.4-2
		L437.7,273.5z M437.1,364.8l-0.6-2.6l18.1-4.1l0.5,2.7L437.1,364.8z"/>
	<path class="wireColor" d="M515.5,635.8l-19.2-91.6l-1.7,0.4l0.4,2.1l-18.1,4l-0.3-1.7l-1.7,0.3l18.3,91.4L515.5,635.8z M496.5,553.7
		l0.5,2.5l-18.2,4.1l-0.5-2.5L496.5,553.7z M478.3,557l-0.4-2.1l18.1-4.1l0.4,2.1L478.3,557z M497.2,556.9l0.6,2.7l-18.2,4.1
		L479,561L497.2,556.9z M497.9,560.3l0.6,2.6l-18.2,4.1l-0.5-2.6L497.9,560.3z M498.6,563.7l0.5,2.6l-18.3,4.1l-0.5-2.6L498.6,563.7
		z M499.3,567l0.5,2.3l-18.3,4.1l-0.5-2.3L499.3,567z M500,570.1l0.5,2.4l-18.3,4.1l-0.5-2.4L500,570.1z M500.6,573.2l0.5,2.4
		l-18.3,4.1l-0.5-2.4L500.6,573.2z M501.3,576.3l0.5,2.6l-18.4,4.1l-0.5-2.6L501.3,576.3z M502,579.6l0.5,2.5l-18.4,4.1l-0.5-2.5
		L502,579.6z M502.7,582.9l3.5,16.9l-18.6,4.2l-3.4-16.9L502.7,582.9z M506.3,600.5l0.4,2.1l-18.6,4.2l-0.4-2.1L506.3,600.5z
		 M506.9,603.3l0.5,2.5l-18.6,4.2l-0.5-2.5L506.9,603.3z M507.6,606.5l0.6,2.7l-18.6,4.2l-0.5-2.7L507.6,606.5z M508.3,610l0.6,2.6
		l-18.7,4.2l-0.5-2.6L508.3,610z M509,613.3l0.5,2.6l-18.7,4.2l-0.5-2.6L509,613.3z M509.7,616.6l0.5,2.3l-18.7,4.2l-0.5-2.3
		L509.7,616.6z M510.4,619.7l0.5,2.4l-18.8,4.2l-0.5-2.4L510.4,619.7z M511,622.9l0.5,2.4l-18.8,4.2l-0.5-2.4L511,622.9z M511.7,626
		l0.5,2.6l-18.8,4.2l-0.5-2.6L511.7,626z M512.4,629.3l0.5,2.5L494,636l-0.5-2.5L512.4,629.3z M494.6,638.7l-0.4-2l18.9-4.2l0.4,2
		L494.6,638.7z M495.2,547.5l0.6,2.6l-18.1,4.1l-0.5-2.7L495.2,547.5z"/>
</g>
<g id="eventSpot">
	<path id="sala214A" class="eventColor" d="M799.6,786.1h11.3v10.8C804.9,796.7,800,792,799.6,786.1z M777.1,786.1v128.8l138.8-0.3V780.4
		h-9.6v5.6h-2.4v11.5h-0.4c-6.6,0-11.9-5.1-12.4-11.5h-56.3v-5.6h-20.6v5.6h-2.5v11.5h-0.4c-6.6,0-11.9-5.1-12.4-11.5L777.1,786.1
		L777.1,786.1z M903.1,796.9v-10.8h-11.3C892.2,792,897.1,796.7,903.1,796.9z"/>
</g>
<g id="guideSpot">
	<circle id="WTCH-2-D25" class="wireColor" cx="1043.5" cy="763.4" r="7"/>
	<circle id="WTCH-2-D24" class="wireColor" cx="159.6" cy="764.1" r="7"/>
	<circle id="WTCH-2-D23" class="wireColor" cx="483.9" cy="439.6" r="7"/>
	<circle id="WTCH-2-D22" class="wireColor" cx="978" cy="135.9" r="7"/>
	<circle id="WTCH-2-D21" class="wireColor" cx="143.5" cy="143.4" r="7"/>
</g>
</svg>
