<?xml version="1.0" encoding="utf-8"?>
<!-- Generator: Adobe Illustrator 20.0.0, SVG Export Plug-In . SVG Version: 6.00 Build 0)  -->
<svg version="1.1" xmlns="http://www.w3.org/2000/svg" xmlns:xlink="http://www.w3.org/1999/xlink" x="0px" y="0px"
	 viewBox="0 0 1060.6 978.7" style="enable-background:new 0 0 1060.6 978.7;" xml:space="preserve">
<style type="text/css">.wireColor{fill: #777777;}.nofloorColor{fill: #F2F2F2;}.arrowColor{fill: #EA5906;}.eventColor{opacity: 0.3; fill: #F59E16; transition: 1s fill;}.wcColor{opacity: 0.3; fill: #3693B2;}.stairsColor{opacity: 0.3; fill: #73cc15;}.transparentObject{fill: 0;}.riverColor{fill: #B9DDEF;}.mapElements{fill: #E2E2E2;}.tramColor{fill: #73CC15;}.mapArrows{fill: #BFBFBF;}.buildingFill{fill: #E5E5E5;}.eventColor.active{opacity: 0.3; fill: red; -webkit-animation: alertOpacity 2s infinite alternate; animation: alertOpacity 2s infinite alternate;}@-webkit-keyframes alertOpacity{0%{opacity: 0.3;}50%{opacity: 0.5;}100%{opacity: 0.3;}}@keyframes alertOpacity{0%{opacity: 0.3;}50%{opacity: 0.5;}100%{opacity: 0.3;}}#guideSpot .eventColor.active{fill: red; opacity: 1; r: 10; transform-origin: 150px 150px; -webkit-transform-origin: 50% 50%; -webkit-animation: alertScale 2s infinite alternate; animation: alertScale 2s infinite alternate;}@-webkit-keyframes alertScale{0%{-webkit-transform: scale(1, 1);}50%{-webkit-transform: scale(2, 2);}100%{-webkit-transform: scale(1, 1);}}@keyframes alertScale{0%{transform: scale(1, 1);}50%{transform: scale(2, 2);}100%{transform: scale(1, 1);}}</style>
<g id="description">
	<g id="arrowCW">
		<polygon class="arrowColor" points="312.5,868.2 297.5,894.3 304.6,894.3 304.6,917.3 320.5,917.3 320.5,894.3 327.6,894.3 		"/>
	</g>
	<g id="arrowCW_1_">
		<polygon class="arrowColor" points="228.2,779.7 202.1,764.7 202.1,771.8 179.1,771.8 179.1,787.7 202.1,787.7 202.1,794.8 		"/>
	</g>
	<g>
		<path class="wireColor" d="M622.8,443.8V460h-4v-36.1h4v16.3h8.9v-16.3h4V460h-4v-16.3H622.8z"/>
		<path class="wireColor" d="M643.9,452.7l-1.4,7.3h-3.7l6.9-36.1h5.8l6.9,36.1h-4l-1.4-7.3H643.9z M644.4,449.3h8l-4.1-20.8L644.4,449.3z
			"/>
		<path class="wireColor" d="M661.6,460v-36.1h4v32.5h10.3v3.7H661.6z"/>
		<path class="wireColor" d="M683,452.7l-1.4,7.3h-3.7l6.9-36.1h5.8l6.9,36.1h-4l-1.4-7.3H683z M683.5,449.3h8l-4.1-20.8L683.5,449.3z"/>
		<path class="wireColor" d="M531.7,510v-32.5h-6.7v-3.7h17.3v3.7h-6.7V510H531.7z"/>
		<path class="wireColor" d="M558,489.9v3.6h-8.8v12.8h10.8v3.7h-14.9v-36.1h14.9v3.7h-10.8v12.3H558z"/>
		<path class="wireColor" d="M579.7,482.6v3.3h-3.8v-3.5c0-3.3-1.3-5.2-4.2-5.2c-2.9,0-4.2,2-4.2,5.2v19.1c0,3.3,1.3,5.2,4.2,5.2
			c2.9,0,4.2-2,4.2-5.2v-4.7h3.8v4.5c0,5.5-2.6,9.1-8.2,9.1c-5.5,0-8.1-3.6-8.1-9.1v-18.7c0-5.5,2.6-9.1,8.1-9.1
			C577.1,473.5,579.7,477.1,579.7,482.6z"/>
		<path class="wireColor" d="M587.4,493.8V510h-4v-36.1h4v16.3h8.9v-16.3h4V510h-4v-16.3H587.4z"/>
		<path class="wireColor" d="M608,510h-3.6v-36.1h5.1l8.4,26.1v-26.1h3.6V510h-4.2l-9.2-29.2V510z"/>
		<path class="wireColor" d="M625.2,482.6c0-5.5,2.7-9.1,8.3-9.1c5.6,0,8.3,3.6,8.3,9.1v18.7c0,5.5-2.7,9.1-8.3,9.1
			c-5.5,0-8.3-3.6-8.3-9.1V482.6z M629.2,501.5c0,3.3,1.4,5.2,4.3,5.2c2.9,0,4.3-1.9,4.3-5.2v-19.1c0-3.3-1.3-5.2-4.3-5.2
			c-2.9,0-4.3,2-4.3,5.2V501.5z"/>
		<path class="wireColor" d="M645.6,510v-36.1h4v32.5h10.3v3.7H645.6z"/>
		<path class="wireColor" d="M662.7,482.6c0-5.5,2.7-9.1,8.3-9.1c5.6,0,8.3,3.6,8.3,9.1v18.7c0,5.5-2.7,9.1-8.3,9.1
			c-5.5,0-8.3-3.6-8.3-9.1V482.6z M666.6,501.5c0,3.3,1.4,5.2,4.3,5.2c2.9,0,4.3-1.9,4.3-5.2v-19.1c0-3.3-1.3-5.2-4.3-5.2
			c-2.9,0-4.3,2-4.3,5.2V501.5z"/>
		<path class="wireColor" d="M699,482.6v3.1h-3.8v-3.3c0-3.3-1.3-5.2-4.2-5.2c-2.9,0-4.2,2-4.2,5.2v19.1c0,3.3,1.3,5.2,4.2,5.2
			c2.9,0,4.2-2,4.2-5.2v-7.2h-3.7v-3.6h7.5v10.6c0,5.5-2.6,9.1-8.2,9.1c-5.5,0-8.1-3.6-8.1-9.1v-18.7c0-5.5,2.6-9.1,8.1-9.1
			C696.4,473.5,699,477.1,699,482.6z"/>
		<path class="wireColor" d="M706.8,473.9V510h-4v-36.1H706.8z"/>
		<path class="wireColor" d="M726.9,482.6v3.3h-3.8v-3.5c0-3.3-1.3-5.2-4.2-5.2c-2.9,0-4.2,2-4.2,5.2v19.1c0,3.3,1.3,5.2,4.2,5.2
			c2.9,0,4.2-2,4.2-5.2v-4.7h3.8v4.5c0,5.5-2.6,9.1-8.2,9.1c-5.5,0-8.1-3.6-8.1-9.1v-18.7c0-5.5,2.6-9.1,8.1-9.1
			C724.3,473.5,726.9,477.1,726.9,482.6z"/>
		<path class="wireColor" d="M746.4,510H730v-3.6l12.4-28.8h-11.8v-3.7h15.9v3.6l-12.4,28.8h12.3V510z"/>
		<path class="wireColor" d="M753.7,510h-3.6v-36.1h5.1l8.4,26.1v-26.1h3.6V510h-4.2l-9.2-29.2V510z"/>
		<path class="wireColor" d="M775.3,502.7l-1.4,7.3h-3.7l6.9-36.1h5.8l6.9,36.1h-4l-1.4-7.3H775.3z M775.8,499.3h8l-4.1-20.8L775.8,499.3z
			"/>
	</g>
	<g>
		<path class="wireColor" d="M289.9,577.7v0.5h-1.8v-0.6c0-1.5-0.6-2.4-1.9-2.4s-1.9,0.9-1.9,2.4c0,3.8,5.7,4.2,5.7,8.9
			c0,2.6-1.2,4.2-3.8,4.2c-2.6,0-3.8-1.7-3.8-4.2v-1h1.8v1.1c0,1.5,0.6,2.4,2,2.4c1.4,0,2-0.9,2-2.4c0-3.8-5.7-4.1-5.7-8.9
			c0-2.6,1.2-4.2,3.8-4.2C288.6,573.5,289.9,575.2,289.9,577.7z"/>
		<path class="wireColor" d="M299,590.6h-7.7v-1.7l5.8-13.5h-5.5v-1.7h7.5v1.7l-5.8,13.5h5.8V590.6z"/>
		<path class="wireColor" d="M302.6,587.2l-0.7,3.4h-1.7l3.2-17h2.7l3.2,17h-1.9l-0.7-3.4H302.6z M302.9,585.6h3.8l-1.9-9.8L302.9,585.6z"
			/>
		<path class="wireColor" d="M313.4,590.6v-15.2h-3.1v-1.7h8.1v1.7h-3.1v15.2H313.4z"/>
		<path class="wireColor" d="M321.4,590.6h-1.7v-17h2.4l3.9,12.3v-12.3h1.7v17h-2l-4.3-13.7V590.6z"/>
		<path class="wireColor" d="M331.5,573.7v17h-1.9v-17H331.5z"/>
		<path class="wireColor" d="M335.3,587.2l-0.7,3.4h-1.7l3.2-17h2.7l3.2,17h-1.9l-0.7-3.4H335.3z M335.6,585.6h3.8l-1.9-9.8L335.6,585.6z"
			/>
	</g>
	<g>
		<path class="wireColor" d="M318.4,220.3h-3.7l-3.3-24h2.6l2.8,20.5l2.7-20.4h2.6l2.6,20.5l2.7-20.5h2.3l-3.3,24H323l-2.3-16.3
			L318.4,220.3z"/>
		<path class="wireColor" d="M342.6,202.1v2.2h-2.5v-2.3c0-2.2-0.9-3.5-2.8-3.5c-1.9,0-2.8,1.3-2.8,3.5v12.7c0,2.2,0.9,3.5,2.8,3.5
			c2,0,2.8-1.3,2.8-3.5v-3.1h2.5v3c0,3.6-1.7,6-5.4,6c-3.7,0-5.4-2.4-5.4-6v-12.4c0-3.6,1.7-6,5.4-6
			C340.9,196,342.6,198.4,342.6,202.1z"/>
	</g>
	<g>
		<path class="wireColor" d="M222.1,220.3h-3.7l-3.3-24h2.6l2.8,20.5l2.7-20.4h2.6l2.6,20.5l2.7-20.5h2.3l-3.3,24h-3.5l-2.3-16.3
			L222.1,220.3z"/>
		<path class="wireColor" d="M246.3,202.1v2.2h-2.5v-2.3c0-2.2-0.9-3.5-2.8-3.5c-1.9,0-2.8,1.3-2.8,3.5v12.7c0,2.2,0.9,3.5,2.8,3.5
			c2,0,2.8-1.3,2.8-3.5v-3.1h2.5v3c0,3.6-1.7,6-5.4,6c-3.7,0-5.4-2.4-5.4-6v-12.4c0-3.6,1.7-6,5.4-6
			C244.6,196,246.3,198.4,246.3,202.1z"/>
	</g>
	<g>
		<path class="wireColor" d="M26.4,911h-3.6l-3.3-23.8h2.6l2.8,20.3l2.7-20.2h2.6l2.6,20.3l2.7-20.3h2.3L34.5,911H31l-2.3-16.2L26.4,911z"
			/>
		<path class="wireColor" d="M48.4,897.7v2.4h-5.8v8.5h7.1v2.4h-9.8v-23.8h9.8v2.4h-7.1v8.1H48.4z"/>
		<path class="wireColor" d="M51.5,908.6c0.4,0,0.9,0,1.3,0c1.7-0.1,2.8-0.9,2.8-3.3v-18.1h2.6v17.9c0,4.5-2.2,5.9-5.1,5.9
			c-0.6,0-1.1,0-1.7,0V908.6z"/>
		<path class="wireColor" d="M71.1,892.9v0.6h-2.5v-0.8c0-2.1-0.8-3.4-2.7-3.4c-1.9,0-2.7,1.3-2.7,3.4c0,5.3,8,5.9,8,12.6
			c0,3.6-1.7,6-5.4,6c-3.6,0-5.3-2.3-5.3-6v-1.4h2.5v1.5c0,2.1,0.9,3.4,2.8,3.4c1.9,0,2.8-1.3,2.8-3.4c0-5.3-8-5.8-8-12.5
			c0-3.7,1.7-6,5.3-6C69.4,886.9,71.1,889.3,71.1,892.9z M69.3,882.2l-3.2,3.5h-1.8l2.3-3.5H69.3z"/>
		<path class="wireColor" d="M84,892.9v2.1h-2.5v-2.3c0-2.1-0.9-3.4-2.8-3.4c-1.9,0-2.8,1.3-2.8,3.4v12.6c0,2.1,0.9,3.4,2.8,3.4
			c1.9,0,2.8-1.3,2.8-3.4v-3.1H84v3c0,3.6-1.7,6-5.4,6c-3.6,0-5.3-2.4-5.3-6v-12.3c0-3.6,1.7-6,5.3-6C82.3,886.9,84,889.3,84,892.9z
			"/>
		<path class="wireColor" d="M89.1,887.2V911h-2.7v-23.8H89.1z"/>
		<path class="wireColor" d="M100.3,897.7v2.4h-5.8v8.5h7.1v2.4h-9.8v-23.8h9.8v2.4h-7.1v8.1H100.3z"/>
		<path class="wireColor" d="M25.6,920.9c3.7,0,5.4,2.2,5.4,5.9v12c0,3.6-1.7,5.9-5.4,5.9h-5.6v-23.8H25.6z M25.6,942.3
			c1.9,0,2.8-1.2,2.8-3.4v-12.3c0-2.2-0.9-3.4-2.9-3.4h-2.9v19H25.6z"/>
		<path class="wireColor" d="M33.3,926.7c0-3.6,1.8-6,5.4-6c3.7,0,5.5,2.3,5.5,6V939c0,3.6-1.8,6-5.5,6c-3.6,0-5.4-2.4-5.4-6V926.7z
			 M35.9,939.1c0,2.2,0.9,3.4,2.8,3.4c1.9,0,2.8-1.3,2.8-3.4v-12.6c0-2.1-0.9-3.4-2.8-3.4c-1.9,0-2.8,1.3-2.8,3.4V939.1z"/>
		<path class="wireColor" d="M57.4,920.9c3.7,0,5.2,1.8,5.2,5.3v1.1c0,2.5-0.7,4.1-2.8,4.7c2.3,0.6,3.2,2.5,3.2,5.1v2
			c0,3.6-1.7,5.6-5.4,5.6H52v-23.8H57.4z M56.7,931c2.1,0,3.2-0.7,3.2-3.2v-1.4c0-2.1-0.7-3.1-2.6-3.1h-2.6v7.7H56.7z M57.5,942.3
			c1.9,0,2.8-1,2.8-3.2V937c0-2.7-1.1-3.5-3.3-3.5h-2.3v8.9H57.5z"/>
		<path class="wireColor" d="M67.9,939.1c0,2.1,0.9,3.4,2.8,3.4c1.9,0,2.8-1.3,2.8-3.4v-18.2h2.5V939c0,3.6-1.7,6-5.3,6
			c-3.6,0-5.3-2.4-5.3-6v-18.1h2.6V939.1z"/>
		<path class="wireColor" d="M84.1,920.9c3.7,0,5.4,2.2,5.4,5.9v12c0,3.6-1.7,5.9-5.4,5.9h-5.6v-23.8H84.1z M84.1,942.3
			c1.9,0,2.8-1.2,2.8-3.4v-12.3c0-2.2-0.9-3.4-2.9-3.4h-2.9v19H84.1z"/>
		<path class="wireColor" d="M95.7,936.2l-5-15.3h2.8l3.7,11.7l3.7-11.7h2.5l-5.1,15.3v8.5h-2.6V936.2z"/>
		<path class="wireColor" d="M107.7,944.7h-2.4v-23.8h3.4l5.5,17.2v-17.2h2.3v23.8h-2.8l-6.1-19.3V944.7z"/>
		<path class="wireColor" d="M123.3,934.4l-1.4,2.3v8h-2.7v-23.8h2.7v11.5l6.3-11.5h2.7l-6,10.9l6.2,13h-2.7L123.3,934.4z"/>
		<path class="wireColor" d="M135.6,939.1c0,2.1,0.9,3.4,2.8,3.4c1.9,0,2.8-1.3,2.8-3.4v-18.2h2.5V939c0,3.6-1.7,6-5.3,6
			c-3.6,0-5.3-2.4-5.3-6v-18.1h2.6V939.1z"/>
		<path class="wireColor" d="M23.5,978.5v-21.4h-4.4v-2.4h11.4v2.4h-4.4v21.4H23.5z"/>
		<path class="wireColor" d="M40.9,965.2v2.4h-5.8v8.5h7.1v2.4h-9.8v-23.8h9.8v2.4h-7.1v8.1H40.9z"/>
		<path class="wireColor" d="M55.2,960.4v2.1h-2.5v-2.3c0-2.1-0.9-3.4-2.8-3.4c-1.9,0-2.8,1.3-2.8,3.4v12.6c0,2.1,0.9,3.4,2.8,3.4
			c1.9,0,2.8-1.3,2.8-3.4v-3.1h2.5v3c0,3.6-1.7,6-5.4,6c-3.6,0-5.3-2.4-5.3-6v-12.3c0-3.6,1.7-6,5.3-6
			C53.5,954.4,55.2,956.8,55.2,960.4z"/>
		<path class="wireColor" d="M60.2,967.7v10.7h-2.7v-23.8h2.7v10.7h5.9v-10.7h2.7v23.8h-2.7v-10.7H60.2z"/>
		<path class="wireColor" d="M73.8,978.5h-2.4v-23.8h3.4l5.5,17.2v-17.2h2.3v23.8h-2.8l-6.1-19.3V978.5z"/>
		<path class="wireColor" d="M85.2,960.4c0-3.6,1.8-6,5.4-6c3.7,0,5.5,2.3,5.5,6v12.3c0,3.6-1.8,6-5.5,6c-3.6,0-5.4-2.4-5.4-6V960.4z
			 M87.8,972.8c0,2.2,0.9,3.4,2.8,3.4c1.9,0,2.8-1.3,2.8-3.4v-12.6c0-2.1-0.9-3.4-2.8-3.4c-1.9,0-2.8,1.3-2.8,3.4V972.8z"/>
		<path class="wireColor" d="M98.6,978.5v-23.8h2.7V976h6.8v2.4H98.6z"/>
		<path class="wireColor" d="M109.9,960.4c0-3.6,1.8-6,5.4-6c3.7,0,5.5,2.3,5.5,6v12.3c0,3.6-1.8,6-5.5,6c-3.6,0-5.4-2.4-5.4-6V960.4z
			 M112.5,972.8c0,2.2,0.9,3.4,2.8,3.4c1.9,0,2.8-1.3,2.8-3.4v-12.6c0-2.1-0.9-3.4-2.8-3.4c-1.9,0-2.8,1.3-2.8,3.4V972.8z"/>
		<path class="wireColor" d="M133.9,960.4v2h-2.5v-2.2c0-2.1-0.9-3.4-2.8-3.4c-1.9,0-2.8,1.3-2.8,3.4v12.6c0,2.1,0.9,3.4,2.8,3.4
			c1.9,0,2.8-1.3,2.8-3.4v-4.8h-2.4v-2.4h5v7c0,3.6-1.7,6-5.4,6c-3.6,0-5.3-2.4-5.3-6v-12.3c0-3.6,1.7-6,5.3-6
			C132.1,954.4,133.9,956.8,133.9,960.4z"/>
		<path class="wireColor" d="M139,954.6v23.8h-2.7v-23.8H139z"/>
		<path class="wireColor" d="M144.4,954.6v23.8h-2.7v-23.8H144.4z"/>
		<path class="wireColor" d="M162.9,960.4v2.1h-2.5v-2.3c0-2.1-0.9-3.4-2.8-3.4c-1.9,0-2.8,1.3-2.8,3.4v12.6c0,2.1,0.9,3.4,2.8,3.4
			c1.9,0,2.8-1.3,2.8-3.4v-3.1h2.5v3c0,3.6-1.7,6-5.4,6c-3.6,0-5.3-2.4-5.3-6v-12.3c0-3.6,1.7-6,5.3-6
			C161.2,954.4,162.9,956.8,162.9,960.4z"/>
		<path class="wireColor" d="M168,967.7v10.7h-2.7v-23.8h2.7v10.7h5.9v-10.7h2.7v23.8h-2.7v-10.7H168z"/>
		<path class="wireColor" d="M187.7,965.2v2.4h-5.8v8.5h7.1v2.4h-9.8v-23.8h9.8v2.4h-7.1v8.1H187.7z"/>
		<path class="wireColor" d="M200.2,978.4h-2.6l-3.9-19v19h-2.3v-23.8h3.7l3.9,19l3.8-19h3.7v23.8H204v-19.2L200.2,978.4z"/>
		<path class="wireColor" d="M211.9,954.6v23.8h-2.7v-23.8H211.9z"/>
		<path class="wireColor" d="M225.2,960.4v2.1h-2.5v-2.3c0-2.1-0.9-3.4-2.8-3.4c-1.9,0-2.8,1.3-2.8,3.4v12.6c0,2.1,0.9,3.4,2.8,3.4
			c1.9,0,2.8-1.3,2.8-3.4v-3.1h2.5v3c0,3.6-1.7,6-5.4,6c-3.6,0-5.3-2.4-5.3-6v-12.3c0-3.6,1.7-6,5.3-6
			C223.5,954.4,225.2,956.8,225.2,960.4z"/>
		<path class="wireColor" d="M238,978.5h-10.8v-2.4l8.2-19h-7.8v-2.4h10.5v2.4l-8.2,19h8.1V978.5z"/>
		<path class="wireColor" d="M242.8,978.5h-2.4v-23.8h3.4l5.5,17.2v-17.2h2.3v23.8h-2.8l-6.1-19.3V978.5z"/>
		<path class="wireColor" d="M262.9,965.2v2.4H257v8.5h7.1v2.4h-9.8v-23.8h9.8v2.4H257v8.1H262.9z"/>
		<path class="wireColor" d="M266,976c0.4,0,0.9,0,1.3,0c1.7-0.1,2.8-0.9,2.8-3.3v-18.1h2.6v17.9c0,4.5-2.2,5.9-5.1,5.9
			c-0.6,0-1.1,0-1.7,0V976z"/>
	</g>
	<g>
		<path class="wireColor" d="M453,783.6h-3.2l-2.8-20.7h2.3l2.4,17.7l2.3-17.6h2.3l2.3,17.7l2.3-17.7h2l-2.8,20.7H457l-2-14.1L453,783.6z"
			/>
		<path class="wireColor" d="M473.9,767.9v1.9h-2.2v-2c0-1.9-0.7-3-2.4-3c-1.7,0-2.4,1.1-2.4,3v11c0,1.9,0.8,3,2.4,3c1.7,0,2.4-1.1,2.4-3
			V776h2.2v2.6c0,3.1-1.5,5.2-4.7,5.2c-3.2,0-4.6-2.1-4.6-5.2v-10.7c0-3.1,1.5-5.2,4.6-5.2C472.4,762.7,473.9,764.7,473.9,767.9z"/>
	</g>
	<g>
		<path class="wireColor" d="M418.1,819.3h-3.2l-2.8-20.7h2.3l2.4,17.7l2.3-17.6h2.3l2.3,17.7l2.3-17.7h2l-2.8,20.7h-3.1l-2-14.1
			L418.1,819.3z"/>
		<path class="wireColor" d="M439,803.6v1.9h-2.2v-2c0-1.9-0.7-3-2.4-3c-1.7,0-2.4,1.1-2.4,3v11c0,1.9,0.8,3,2.4,3c1.7,0,2.4-1.1,2.4-3
			v-2.7h2.2v2.6c0,3.1-1.5,5.2-4.7,5.2c-3.2,0-4.6-2.1-4.6-5.2v-10.7c0-3.1,1.5-5.2,4.6-5.2C437.5,798.4,439,800.5,439,803.6z"/>
	</g>
</g>
<g id="hotSpot">
	<polygon class="wcColor" points="488.5,798.3 476.1,749.2 407.1,749.2 407.1,789.8 388.2,789.8 388.2,826 447,826 447,798.3 	"/>
	<path class="wcColor" d="M199.8,187.1h168.1c0,0,0,27.6,0,39.3c0,11.7-3.7,21.6-20.5,21.6s-51.2,0-51.2,0v-22.7h-53.7v22.5h-42.7V187.1
		z"/>
	<polygon class="stairsColor" points="404.9,490.4 375.8,496.4 363.4,436.1 392.4,430 	"/>
	<polygon class="stairsColor" points="1011.8,703.2 1058.7,703.2 1058.7,787.7 1012,787.7 	"/>
	<polygon class="stairsColor" points="991.2,136.7 957.4,136.7 957.4,150.5 943.9,150.5 943.9,250.5 991.2,250.5 	"/>
	<polygon class="stairsColor" points="479,602.8 498.7,598.5 506.6,636.1 486.9,640.3 	"/>
	<polygon class="stairsColor" points="415.4,300 435.1,295.8 443,333.3 423.3,337.6 	"/>
	<polygon class="stairsColor" points="170.4,87.6 117.4,87.6 97.8,170.7 170.6,170.7 	"/>
</g>
<g id="wire">
	<path class="wireColor" d="M905.4,577.1H1059l-0.8-195.2H905.4V577.1z M909.1,385.6h145.3l0.8,187.7H909.1V385.6z"/>
	<path class="wireColor" d="M79.2,717.2c-2.8,0-5.1,2.3-5.1,5.1s2.3,5.1,5.1,5.1s5.1-2.3,5.1-5.1S82,717.2,79.2,717.2z M79.2,725.8
		c-2,0-3.6-1.6-3.6-3.6s1.6-3.6,3.6-3.6s3.6,1.6,3.6,3.6S81.2,725.8,79.2,725.8z"/>
	<path class="wireColor" d="M171.6,727.3c2.8,0,5.1-2.3,5.1-5.1s-2.3-5.1-5.1-5.1s-5.1,2.3-5.1,5.1S168.8,727.3,171.6,727.3z M171.6,718.7
		c2,0,3.6,1.6,3.6,3.6s-1.6,3.6-3.6,3.6s-3.6-1.6-3.6-3.6S169.7,718.7,171.6,718.7z"/>
	<path class="wireColor" d="M263.7,717.2c-2.8,0-5.1,2.3-5.1,5.1s2.3,5.1,5.1,5.1s5.1-2.3,5.1-5.1S266.5,717.2,263.7,717.2z M263.7,725.8
		c-2,0-3.6-1.6-3.6-3.6s1.6-3.6,3.6-3.6s3.6,1.6,3.6,3.6S265.6,725.8,263.7,725.8z"/>
	<path class="wireColor" d="M447.3,717.2c-2.8,0-5.1,2.3-5.1,5.1s2.3,5.1,5.1,5.1c2.8,0,5.1-2.3,5.1-5.1S450.1,717.2,447.3,717.2z
		 M447.3,725.8c-2,0-3.6-1.6-3.6-3.6s1.6-3.6,3.6-3.6c2,0,3.6,1.6,3.6,3.6S449.2,725.8,447.3,725.8z"/>
	<path class="wireColor" d="M447.3,694.8c-2.8,0-5.1,2.3-5.1,5.1s2.3,5.1,5.1,5.1c2.8,0,5.1-2.3,5.1-5.1S450.1,694.8,447.3,694.8z
		 M447.3,703.4c-2,0-3.6-1.6-3.6-3.6s1.6-3.6,3.6-3.6c2,0,3.6,1.6,3.6,3.6S449.2,703.4,447.3,703.4z"/>
	<path class="wireColor" d="M435.8,637.7c-2.8,0-5.1,2.3-5.1,5.1s2.3,5.1,5.1,5.1s5.1-2.3,5.1-5.1S438.6,637.7,435.8,637.7z M435.8,646.3
		c-2,0-3.6-1.6-3.6-3.6s1.6-3.6,3.6-3.6s3.6,1.6,3.6,3.6S437.7,646.3,435.8,646.3z"/>
	<path class="wireColor" d="M465.3,336.9c-2.8,0-5.1,2.3-5.1,5.1s2.3,5.1,5.1,5.1s5.1-2.3,5.1-5.1S468.1,336.9,465.3,336.9z M465.3,345.5
		c-2,0-3.6-1.6-3.6-3.6s1.6-3.6,3.6-3.6s3.6,1.6,3.6,3.6S467.3,345.5,465.3,345.5z"/>
	<path class="wireColor" d="M376.9,365.5c2.8,0,5.1-2.3,5.1-5.1s-2.3-5.1-5.1-5.1s-5.1,2.3-5.1,5.1S374.1,365.5,376.9,365.5z M376.9,356.8
		c2,0,3.6,1.6,3.6,3.6s-1.6,3.6-3.6,3.6s-3.6-1.6-3.6-3.6S374.9,356.8,376.9,356.8z"/>
	<path class="wireColor" d="M268.8,308.4c0,2.8,2.3,5.1,5.1,5.1s5.1-2.3,5.1-5.1s-2.3-5.1-5.1-5.1S268.8,305.6,268.8,308.4z M277.5,308.4
		c0,2-1.6,3.6-3.6,3.6s-3.6-1.6-3.6-3.6s1.6-3.6,3.6-3.6S277.5,306.4,277.5,308.4z"/>
	<path class="wireColor" d="M212.9,315.5c-2.8,0-5.1,2.3-5.1,5.1s2.3,5.1,5.1,5.1s5.1-2.3,5.1-5.1S215.7,315.5,212.9,315.5z M212.9,324.1
		c-2,0-3.6-1.6-3.6-3.6s1.6-3.6,3.6-3.6s3.6,1.6,3.6,3.6S214.8,324.1,212.9,324.1z"/>
	<path class="wireColor" d="M223.8,387c-2.8,0-5.1,2.3-5.1,5.1c0,2.8,2.3,5.1,5.1,5.1c2.8,0,5.1-2.3,5.1-5.1
		C228.8,389.2,226.6,387,223.8,387z M223.8,395.6c-2,0-3.6-1.6-3.6-3.6c0-2,1.6-3.6,3.6-3.6c2,0,3.6,1.6,3.6,3.6
		C227.3,394,225.7,395.6,223.8,395.6z"/>
	<path class="wireColor" d="M288.9,383.6c2.8,0,5.1-2.3,5.1-5.1s-2.3-5.1-5.1-5.1s-5.1,2.3-5.1,5.1S286.1,383.6,288.9,383.6z M288.9,375
		c2,0,3.6,1.6,3.6,3.6s-1.6,3.6-3.6,3.6s-3.6-1.6-3.6-3.6S286.9,375,288.9,375z"/>
	<path class="wireColor" d="M356.7,289.8c0,2.8,2.3,5.1,5.1,5.1s5.1-2.3,5.1-5.1s-2.3-5.1-5.1-5.1S356.7,287,356.7,289.8z M361.8,286.2
		c2,0,3.6,1.6,3.6,3.6s-1.6,3.6-3.6,3.6s-3.6-1.6-3.6-3.6S359.8,286.2,361.8,286.2z"/>
	<path class="wireColor" d="M450.4,266.7c-2.8,0-5.1,2.3-5.1,5.1s2.3,5.1,5.1,5.1s5.1-2.3,5.1-5.1S453.2,266.7,450.4,266.7z M450.4,275.3
		c-2,0-3.6-1.6-3.6-3.6s1.6-3.6,3.6-3.6s3.6,1.6,3.6,3.6S452.4,275.3,450.4,275.3z"/>
	<path class="wireColor" d="M355,262.5c2.8,0,5.1-2.3,5.1-5.1s-2.3-5.1-5.1-5.1s-5.1,2.3-5.1,5.1S352.3,262.5,355,262.5z M355,253.9
		c2,0,3.6,1.6,3.6,3.6S357,261,355,261s-3.6-1.6-3.6-3.6S353.1,253.9,355,253.9z"/>
	<path class="wireColor" d="M355,139.3c-2.8,0-5.1,2.3-5.1,5.1s2.3,5.1,5.1,5.1s5.1-2.3,5.1-5.1S357.8,139.3,355,139.3z M355,147.9
		c-2,0-3.6-1.6-3.6-3.6s1.6-3.6,3.6-3.6s3.6,1.6,3.6,3.6S357,147.9,355,147.9z"/>
	<path class="wireColor" d="M355,45.2c-2.8,0-5.1,2.3-5.1,5.1s2.3,5.1,5.1,5.1s5.1-2.3,5.1-5.1S357.8,45.2,355,45.2z M355,53.8
		c-2,0-3.6-1.6-3.6-3.6s1.6-3.6,3.6-3.6s3.6,1.6,3.6,3.6S357,53.8,355,53.8z"/>
	<path class="wireColor" d="M23,717.2c-2.8,0-5.1,2.3-5.1,5.1s2.3,5.1,5.1,5.1s5.1-2.3,5.1-5.1S25.8,717.2,23,717.2z M23,725.8
		c-2,0-3.6-1.6-3.6-3.6s1.6-3.6,3.6-3.6s3.6,1.6,3.6,3.6S25,725.8,23,725.8z"/>
	<path class="wireColor" d="M79.2,800.7c-2.8,0-5.1,2.3-5.1,5.1s2.3,5.1,5.1,5.1s5.1-2.3,5.1-5.1S82,800.7,79.2,800.7z M79.2,809.3
		c-2,0-3.6-1.6-3.6-3.6s1.6-3.6,3.6-3.6s3.6,1.6,3.6,3.6S81.2,809.3,79.2,809.3z"/>
	<path class="wireColor" d="M171.6,810.8c2.8,0,5.1-2.3,5.1-5.1s-2.3-5.1-5.1-5.1s-5.1,2.3-5.1,5.1S168.8,810.8,171.6,810.8z M171.6,802.2
		c2,0,3.6,1.6,3.6,3.6s-1.6,3.6-3.6,3.6s-3.6-1.6-3.6-3.6S169.7,802.2,171.6,802.2z"/>
	<path class="wireColor" d="M263.8,800.7c-2.8,0-5.1,2.3-5.1,5.1s2.3,5.1,5.1,5.1s5.1-2.3,5.1-5.1S266.6,800.7,263.8,800.7z M263.8,809.3
		c-2,0-3.6-1.6-3.6-3.6s1.6-3.6,3.6-3.6s3.6,1.6,3.6,3.6S265.8,809.3,263.8,809.3z"/>
	<path class="wireColor" d="M23,800.7c-2.8,0-5.1,2.3-5.1,5.1s2.3,5.1,5.1,5.1s5.1-2.3,5.1-5.1S25.8,800.7,23,800.7z M23,809.3
		c-2,0-3.6-1.6-3.6-3.6s1.6-3.6,3.6-3.6s3.6,1.6,3.6,3.6S25,809.3,23,809.3z"/>
	<path class="wireColor" d="M79.2,895.2c-2.8,0-5.1,2.3-5.1,5.1s2.3,5.1,5.1,5.1s5.1-2.3,5.1-5.1S82,895.2,79.2,895.2z M79.2,903.9
		c-2,0-3.6-1.6-3.6-3.6s1.6-3.6,3.6-3.6s3.6,1.6,3.6,3.6S81.2,903.9,79.2,903.9z"/>
	<path class="wireColor" d="M171.6,905.4c2.8,0,5.1-2.3,5.1-5.1s-2.3-5.1-5.1-5.1s-5.1,2.3-5.1,5.1S168.8,905.4,171.6,905.4z M171.6,896.7
		c2,0,3.6,1.6,3.6,3.6s-1.6,3.6-3.6,3.6s-3.6-1.6-3.6-3.6S169.7,896.7,171.6,896.7z"/>
	<path class="wireColor" d="M263.8,895.2c-2.8,0-5.1,2.3-5.1,5.1s2.3,5.1,5.1,5.1s5.1-2.3,5.1-5.1S266.6,895.2,263.8,895.2z M263.8,903.9
		c-2,0-3.6-1.6-3.6-3.6s1.6-3.6,3.6-3.6s3.6,1.6,3.6,3.6S265.8,903.9,263.8,903.9z"/>
	<path class="wireColor" d="M356.3,895.2c-2.8,0-5.1,2.3-5.1,5.1s2.3,5.1,5.1,5.1s5.1-2.3,5.1-5.1S359.1,895.2,356.3,895.2z M356.3,903.9
		c-2,0-3.6-1.6-3.6-3.6s1.6-3.6,3.6-3.6s3.6,1.6,3.6,3.6S358.2,903.9,356.3,903.9z"/>
	<path class="wireColor" d="M23,895.2c-2.8,0-5.1,2.3-5.1,5.1s2.3,5.1,5.1,5.1s5.1-2.3,5.1-5.1S25.8,895.2,23,895.2z M23,903.9
		c-2,0-3.6-1.6-3.6-3.6s1.6-3.6,3.6-3.6s3.6,1.6,3.6,3.6S25,903.9,23,903.9z"/>
	<rect x="301.6" y="610.4" class="wireColor" width="22.1" height="1.5"/>
	<rect x="248.7" y="262.9" class="wireColor" width="34.3" height="1.5"/>
	<path class="wireColor" d="M435.8,295l-1.5,0.3l0,0.2l-18.2,3.9l-0.1-0.4l-1.5,0.3l8.1,39.1l21.2-4.6L435.8,295z M435.6,301.5l0.5,2.3
		l-18.2,3.9l-0.5-2.3L435.6,301.5z M417.3,304.7l-0.4-2l18.2-3.9l0.4,2L417.3,304.7z M418.1,308.5l18.2-3.9l0.5,2.4l-18.2,3.9
		L418.1,308.5z M436.9,307.8l0.4,2.2l-18.2,3.9l-0.4-2.2L436.9,307.8z M437.5,310.7l0.5,2.3l-18.2,3.9l-0.5-2.3L437.5,310.7z
		 M438.2,313.7l0.5,2.6l-18.2,3.9l-0.5-2.6L438.2,313.7z M438.8,317l0.5,2.5l-18.2,3.9l-0.5-2.5L438.8,317z M439.5,320.2l0.5,2.4
		l-18.2,3.9l-0.5-2.4L439.5,320.2z M440.2,323.3l0.4,2.2l-18.2,3.9l-0.4-2.2L440.2,323.3z M440.8,326.3l0.5,2.5l-18.2,3.9l-0.5-2.5
		L440.8,326.3z M434.6,296.3l0.4,1.7l-18.2,3.9l-0.4-1.7L434.6,296.3z M423.9,336.7l-0.7-3.3l18.2-3.9l0.7,3.3L423.9,336.7z"/>
	<path class="wireColor" d="M486.2,641.1l1.5-0.3l0-0.2l18.2-3.9l0.1,0.4l1.5-0.3l-8.1-39.1l-21.2,4.6L486.2,641.1z M486.3,634.6l-0.5-2.3
		l18.2-3.9l0.5,2.3L486.3,634.6z M504.7,631.4l0.4,2l-18.2,3.9l-0.4-2L504.7,631.4z M503.9,627.6l-18.2,3.9l-0.5-2.4l18.2-3.9
		L503.9,627.6z M485.1,628.3l-0.4-2.2l18.2-3.9l0.4,2.2L485.1,628.3z M484.4,625.4l-0.5-2.3l18.2-3.9l0.5,2.3L484.4,625.4z
		 M483.8,622.4l-0.5-2.6l18.2-3.9l0.5,2.6L483.8,622.4z M483.1,619.1l-0.5-2.5l18.2-3.9l0.5,2.5L483.1,619.1z M482.5,615.9l-0.5-2.4
		l18.2-3.9l0.5,2.4L482.5,615.9z M481.8,612.8l-0.4-2.2l18.2-3.9l0.4,2.2L481.8,612.8z M481.2,609.8l-0.5-2.5l18.2-3.9l0.5,2.5
		L481.2,609.8z M487.4,639.8l-0.4-1.7l18.2-3.9l0.4,1.7L487.4,639.8z M498.1,599.4l0.7,3.3l-18.2,3.9l-0.7-3.3L498.1,599.4z"/>
	<path class="wireColor" d="M417.1,545L393,429.1l-162.8,34.4l20.4,147.7l0.7-0.1l-0.4,0.1l2.8,20.4H362v0.4h28.6v-76.3l21-4.8
		c0.4,2.4,2.5,4.1,5,4.1c2.8,0,5.1-2.3,5.1-5.1C421.5,547.4,419.6,545.3,417.1,545z M352,502l52.4-10.7l5.7,27.5l-52.3,10.5L352,502
		z M330.3,483.8l-8.2-38.2l15.6-3.3l8.2,38.4L330.3,483.8z M339.2,442l23.6-5l12.1,58.7l-23.3,4.8L339.2,442z M376.4,495.5
		l-5.9-28.6l27.5-5.9l6,28.9L376.4,495.5z M391.1,523.4l1.9,8.6l-18.4,3.5l-1.9-8.4L391.1,523.4z M393.7,531.9l-1.9-8.6l18.5-3.7
		l1.9,8.9L393.7,531.9z M397.8,459.5l-27.5,5.9l-5.9-28.6l27.5-5.8L397.8,459.5z M321.4,445.8l8.2,38.2l-6.6,1.3l0.1,0.7l22.9-4.6
		l4.1,19.4L240,523.8l-8.2-59.1L321.4,445.8z M362,630.5v0.4H254.4l-2.6-19h47.5v-1.5H252l-11.8-85.1l110.3-23l12.5,58.8l18.1-3.6
		v52.9h-46.8v1.5h48.3v-54.7l6.3-1.2v74.5H362z M411.4,549.4l-21.8,5l-25.4,5L358,530l14-2.8l2.1,9.1l38.2-7.2l3.3,15.9
		C413.4,545.4,411.7,547.2,411.4,549.4z M416.4,553.5c-2,0-3.6-1.6-3.6-3.6s1.6-3.6,3.6-3.6s3.6,1.6,3.6,3.6
		S418.4,553.5,416.4,553.5z"/>
	<path class="wireColor" d="M1060.6,26.8h-51.4V0H722.3v2.1H324.5v17.6h-92.2h-89.7c-19,0-23.8,10.9-26.2,22.7
		c-2.5,12.4-38.8,176.9-44.7,200.1c-2.4,9.2-0.9,17.5,4.3,24.2c6.5,8.3,17.2,12.1,25,12.1h27.2l86.7,416.3H0v243.2h442.6v12.3h553.2
		v-22.3h64.7v-241h-479l-13.8-69.5l269-57l-5.8-57.2l0-0.2c-0.2-0.8-16.9-78.7-24.6-115.3c-7.5-35.9,5.7-60.7,5.8-61l1.9-3.5
		l-295.8,61l-24.1-117h461v-14.8h2.3v8.5h0.4c4.7,0,8.6-3.2,9.8-7.5c1.2,4.3,5.1,7.5,9.8,7.5h0.4v-8.5h4.5v14.8h78.3V26.8z
		 M910.9,249v-66.3h32.2V249L910.9,249z M505.9,515.9c-3.3,0.6-6.6,0-9.4-1.9c-2.8-1.8-4.8-4.6-5.5-7.8l12.3-2.6L505.9,515.9z
		 M506,516.6l2.6,12.3l-12.3,2.6C495.1,524.8,499.4,518.3,506,516.6z M502.8,501.7l-12.3,2.6c-0.6-3.3,0-6.6,1.9-9.4
		c1.8-2.8,4.6-4.8,7.8-5.5l0.9,4.3L502.8,501.7z M500,488.6c-6.7,1.2-13.3-3-14.9-9.6l12.2-2.6L500,488.6z M484.2,478.4l0.1,0.4
		c1.4,6.3,6.9,10.7,13.1,10.8c-2.3,1.1-4.2,2.8-5.6,4.9c-2,3.1-2.7,6.7-1.9,10.3l0.1,0.4l13-2.8l0.1,0.5l-13,2.8l0.1,0.4
		c0.8,3.6,2.9,6.6,6,8.6c2.2,1.4,4.6,2.1,7.2,2.2c-5.6,2.7-8.9,8.9-7.5,15.2l0.1,0.4l13.1-2.8l17.3,79.4l6.7-1.4l19.5,94.8h-12.9
		l0.2,0.9c0.1,0.4,7.6,37.2,12,49.1c4.5,12,9.3,13.9,22.6,13.9h436.9v31.1H488.5H488l-11.3-49.1h-80.2c-6.1,0-10.7,3.8-10.7,8.9v5.2
		h1.5v-5.2c0-4.2,4-7.4,9.2-7.4h10.2V761h-12.2v0.4c0,6.8,5.4,12.3,12.2,12.5v8.5v0.4v6.6h-1.6v-12.2h-0.4
		c-6.8,0-12.3,5.4-12.5,12.2h-4v-6.6h-1.5v42.5h-27.6l-4.3-14.5c0,0,0.1,0,0.1,0c2.8,0,5.1-2.3,5.1-5.1s-2.3-5.1-5.1-5.1
		c-1,0-2,0.3-2.8,0.9l-12.7-43.3h-85.2v-1.1h-19.8c-7.6,0-15.6-4.7-15.6-13.5c0-8.2,0.3-30.9,0.4-37.5h10.9l-0.6-12.4h-0.1
		l-37.4-424.3l8.4-0.2v-20.5h42.7v-5.3c7.2-0.4,12.9-6.4,12.9-13.7v-0.4h-12.9v-3h24.5v12.9h0.4c7.3,0,13.3-5.7,13.7-12.9h13.7v3
		h-12.9v0.4c0,7.3,5.7,13.3,12.9,13.7v5.5h50.7c15.8,0,22.5-6.7,22.5-22.5v-40H171.4v-35.1h63.1h0.8h87V31.6h2.6h1.9h61.4v0l12.7,0
		l25.6,119.6h516.7v30H443c-4.3,0-6.9,0.9-8.4,2.9c-2.2,2.8-2,7.8,0.5,16.6c4.1,14.5,10.6,49.5,10.7,49.9l0.1,0.6h25.9l32.2,150.4
		l-21.9,4.5l15.1,69.5L484.2,478.4z M566.9,702.5h-13l-19.5-95.1l11.7-2.5L566.9,702.5z M1056.8,727.4h-20.8h-0.4h-23.1v-22.3h44.2
		V727.4z M949.9,924.8V799h34.9v23.5h5.4v102.2L949.9,924.8z M309.8,846.2h12.4c-0.9,6.1-6.1,10.9-12.4,11.1V846.2z M335.7,846.2
		v11.1c-6.3-0.2-11.5-4.9-12.4-11.1H335.7z M252.4,842.5v15.2h-5.6v59.1H185v-59.9h-79.6l-9.9-52.2h19.3l4.9,22.8l134.7-25.6v-42
		h26.9v12.9h0.4c6.5,0,11.9-4.5,13.3-10.6c1.4,6,6.8,10.6,13.3,10.6h0.4v-12.9h0.5v12.9h0.4c6.5,0,11.9-4.5,13.3-10.6
		c1.4,6,6.8,10.6,13.3,10.6h0.4v-12.9h1.9l12.6,43c-0.6,0.8-1,1.9-1,3c0,2.2,1.4,4,3.3,4.7l9.4,32H252.4z M281.9,846.2h12.4
		c-0.9,6.1-6.1,10.9-12.4,11.1V846.2z M307.8,846.2v11.1c-6.3-0.2-11.5-4.9-12.4-11.1H307.8z M276.3,920.5v9.6H157.9v-9.6H276.3z
		 M250.5,779.2c-6.1-0.9-10.9-6.1-11.1-12.4h11.1V779.2z M250.5,792.7h-11.1c0.2-6.3,4.9-11.5,11.1-12.4V792.7z M281.9,759.8h12.5
		c-0.4,6.7-5.8,12-12.5,12.2V759.8z M307.8,759.8V772c-6.7-0.2-12.2-5.5-12.5-12.2H307.8z M309.8,759.8h12.5
		c-0.4,6.7-5.8,12-12.5,12.2V759.8z M335.7,759.8V772c-6.7-0.2-12.2-5.5-12.5-12.2H335.7z M352.6,808.4c-0.7-0.7-1.2-1.6-1.2-2.6
		c0-0.3,0.1-0.6,0.1-0.9L352.6,808.4z M352.6,803.1c0.6-0.6,1.5-0.9,2.4-0.9c2,0,3.6,1.6,3.6,3.6s-1.6,3.6-3.6,3.6
		c-0.2,0-0.4,0-0.6-0.1L352.6,803.1z M364.2,842.5l-4.6-15.7h27.1h0.8h58.8v98.9l-1.8,0h-52.7l-26.4-83.2H364.2z M405.2,790.2h1.6
		v21.1c-6.7,0.2-12.2,5.7-12.2,12.5v0.4h12.2v1.1h-18.5v-35.1h4H405.2z M404.4,789.4H393c0.2-6.2,5.2-11.2,11.4-11.4V789.4z
		 M406.7,773.1c-6.2-0.2-11.2-5.2-11.4-11.4h11.4V773.1z M407.5,773.9V761v-11.1h33.6v18.4c-6.7,0.2-12.2,5.7-12.2,12.5v0.4h12.2
		v6.6h-16.3v-5.4h-17.3V773.9z M406.7,823.4h-11.4c0.2-6.2,5.2-11.2,11.4-11.4V823.4z M407.5,811.3v-28.1H424v5.4h17v10.1h5.2v26.6
		h-38.8v-1.1V811.3z M441.1,780.5h-11.4c0.2-6.2,5.2-11.2,11.4-11.4V780.5z M446.3,797.5v0.4h-4.4v-16.7v-12.9v-18.4h33.7l10.9,47.6
		H446.3z M447.8,826.8V826v-27h40.7H539v126.5l-91.3,0.2V826.8z M539.8,799h90.9v126.3l-90.9,0.2V799z M631.5,799h90.9v126.2
		l-90.9,0.2V799z M723.2,799h92v126l-92,0.2V799z M815.9,799h44.8v125.9l-44.8,0.1V799z M861.5,799h44.8v125.8l-44.8,0.1V799z
		 M907.1,799h42v125.7l-42,0.1V799z M986.3,821v-22h24.8v22H986.3z M1012.6,772.9c5.6,0.3,10.1,4.8,10.3,10.4h-10.3V772.9z
		 M1012.6,784.1h11v-0.4c0-6.2-4.9-11.3-11-11.5v-6.5v-0.8v-1h23.1h21.1v23h-44.2V784.1z M1012.6,732.8h22.7v4.4h-22.7V732.8z
		 M1012.6,737.9h22.7v4.5h-22.7V737.9z M1012.6,743.2h22.7v4.5h-22.7V743.2z M1012.6,748.5h22.7v4.9h-22.7V748.5z M1012.6,754.1
		h22.7v4h-22.7V754.1z M1012.6,758.9h22.7v4.2h-22.7V758.9z M1035.3,732h-22.7v-3.8h22.7V732z M1036.1,763.2v-4.2h20.8v4.2H1036.1z
		 M1036.1,758.2v-4h20.8v4H1036.1z M1036.1,753.4v-4.9h20.8v4.9H1036.1z M1036.1,747.7v-4.5h20.8v4.5H1036.1z M1036.1,742.4v-4.5
		h20.8v4.5H1036.1z M1036.1,737.2v-4.4h20.8v4.4H1036.1z M1036.1,732v-3.8h20.8v3.8H1036.1z M1011.1,764.9H953v-59.8h58.1V764.9z
		 M952.2,764.9h-50v-18.9h8.2v-40.9h41.7V764.9z M909.7,745.3h-8.2v19.6h-40v-59.8h48.2V745.3z M860.8,764.9h-50.9v-18.9h8.2v-40.9
		h42.7V764.9z M817.3,745.3h-8.2v19.6h-42.4v-59.8h50.6V745.3z M765.9,764.9h-48.5v-18.9h8.2v-40.9h40.3V764.9z M724.9,745.3h-8.2
		v19.6h-42.4v-59.8h50.6V745.3z M673.5,764.9h-99.3c-12.9,0-17-1.6-21.2-13c-4-10.7-10.5-42.2-11.7-48h25.9l0.2,1.1h106.1V764.9z
		 M173,48.9V31.6h59.2h30.1v109.1H254v8.9h-18.7v-8.9h-63.9V87.6v-0.8V69.2h-48.7c3.3-14.5,5.6-24.5,6.1-26.5
		c2.1-8.5,5.2-11.1,13.6-11.1h25.8h3.4v17.3H173z M296.6,142.3v7.4h-41.2v-7.4H296.6z M263.8,140.8V31.6h57v118.1h-22.6v-8.9H263.8z
		 M141.1,139.9h2.5h26.3v3.8h-26.3h-2.5V139.9z M143.6,108.7h26.3v4.2h-26.3h-2.5v-4.2H143.6z M143.6,113.7h26.3v4h-26.3h-2.5v-4
		H143.6z M143.6,118.5h26.3v4.9h-26.3h-2.5v-4.9H143.6z M143.6,124.2h26.3v4.5h-26.3h-2.5v-4.5H143.6z M143.6,129.5h26.3v4.5h-26.3
		h-2.5v-4.5H143.6z M143.6,134.8h26.3v4.4h-26.3h-2.5v-4.4H143.6z M169.9,166h-11.4c0.2-6.2,5.2-11.3,11.4-11.6V166z M171.4,142.3
		h62.4v7.4h-62.4V142.3z M122.3,70.7h47.5v16.2h-51.2C120,81.1,121.2,75.6,122.3,70.7z M118.3,88.4h51.5V108h-26.3h-29.7
		C115.4,101.2,116.9,94.6,118.3,88.4z M113.7,108.7h26.6v4.2h-27.6C113.1,111.6,113.4,110.1,113.7,108.7z M112.6,113.7h27.7v4h-28.7
		C112,116.4,112.3,115.1,112.6,113.7z M111.5,118.5h28.8v4.9h-29.9C110.8,121.8,111.1,120.2,111.5,118.5z M110.2,124.2h30.1v4.5
		h-31.1C109.6,127.2,109.9,125.7,110.2,124.2z M109,129.5h31.3v4.5H108C108.4,132.5,108.7,131,109,129.5z M107.9,134.8h32.5v4.4
		h-33.5C107.2,137.7,107.5,136.2,107.9,134.8z M106.7,139.9h33.6v3.8h-34.5C106.1,142.4,106.4,141.2,106.7,139.9z M105.6,144.7
		c0-0.1,0-0.1,0-0.2h34.7h3.2h26.3v9.2c-6.8,0.3-12.2,5.9-12.2,12.7v0.4h12.2v3.2h-70C101.8,161.6,103.7,153.1,105.6,144.7z
		 M99.6,171.4h70.3v14.9h-7.5v80.5H104c-8.1,0-14.4-2.5-18-7.1c-3.3-4.2-4.3-9.8-2.8-16C84.4,238.6,91.5,207.2,99.6,171.4z
		 M163.9,187.9H199v59.3v0.8v19.8l-7,0.2l-0.1-1.1h-28V187.9z M295.4,242.6c-6.7-0.4-12-5.8-12.2-12.5h12.2V242.6z M296.9,226.8
		h36.8c0.2,7.4,6.3,13.3,13.7,13.3h0.4v-13.3h19.4c-0.1,14.6-6.2,20.5-21,20.5h-49.2V226.8z M334.4,226.8h12.6v12.6
		C340.1,239.2,334.5,233.6,334.4,226.8z M367.1,226h-19.4h-14.1h-36.7v-1.2h-8.4v-37h78.6V226z M287.7,224.9h-25.2v-37h25.2V224.9z
		 M268.4,226.4h12.5c-0.4,6.7-5.8,12-12.5,12.2V226.4z M261.8,224.9h-20.1v1.2h-24.3h-14.1h-2.8v-38.2h61.3V224.9z M200.5,226.8h2.8
		v13.3h0.4c7.4,0,13.5-5.9,13.7-13.3h24.3v20.3h-41.2V226.8z M204,226.8h12.6c-0.2,6.8-5.7,12.4-12.6,12.6V226.8z M243.2,230.1h12.2
		c-0.2,6.7-5.5,12.2-12.2,12.5V230.1z M354.2,27.9h-12.4c0.9-6.1,6.1-10.9,12.4-11.1V27.9z M328.3,27.9V16.8
		c6.3,0.2,11.5,4.9,12.4,11.1H328.3z M382.9,27.9h-12.4c0.9-6.1,6.1-10.9,12.4-11.1V27.9z M357,27.9V16.8
		c6.3,0.2,11.5,4.9,12.4,11.1H357z M1056.8,98.3h-64.9V68.2h64.9V98.3z M990.4,220.8h-22.4v-2.7h22.4V220.8z M990.4,105.1v30.9
		h-34.7v13.8h-11.1v-44.7H990.4z M957.2,151.2v-13.8h33.2v64.4h-22.4v-20.3h-23.5v-14c7.3-0.3,13.1-6.3,13.1-13.7v-0.4h-13.1v-2.3
		H957.2z M944.6,186.9h22.7v4.4h-22.7V186.9z M944.6,192.1h22.7v4.5h-22.7V192.1z M944.6,197.3h22.7v4.5h-22.7V197.3z M944.6,202.6
		h22.7v4.9h-22.7V202.6z M944.6,208.3h22.7v4h-22.7V208.3z M944.6,213.1h22.7v4.2h-22.7V213.1z M944.6,154.3H957
		c-0.2,6.8-5.6,12.3-12.4,12.5V154.3z M944.6,182.3h22.7v3.8h-22.7v-3.5V182.3z M944.6,218.1h22.7v2.7h-22.7V218.1z M990.4,217.3
		h-22.4v-4.2h22.4V217.3z M990.4,212.3h-22.4v-4h22.4V212.3z M990.4,207.5h-22.4v-4.9h22.4V207.5z M990.4,103.6h-40.4V68.2h40.4
		V103.6z M949.3,103.6h-6.2v46.2h-81.5V30.8l85.4-0.1v37.5h2.3V103.6z M860.9,149.7h-20.4V99h20.4V149.7z M860.9,98.3h-21.1v51.4
		h-26.2V30.9l47.3-0.1V98.3z M770.7,119V99h42.2v50.7h-91.7V119H770.7z M812.8,98.3h-42.2V31l42.2-0.1V98.3z M769.9,98.7V99v19.2
		h-48.8V31.1l48.8-0.1V98.7z M720.3,118.6v0.4v30.7h-91.1V31.2l91.1-0.2V118.6z M628.5,149.7h-43.3V31.3l43.3-0.1V149.7z
		 M584.4,149.7h-89.5V31.5l89.5-0.2V149.7z M494.2,149.7h-66.5L402.4,31.6l91.8-0.2V149.7z M471.4,249.8h-24.3
		c-0.9-4.8-6.8-35.9-10.6-49.4c-2.3-8.2-2.5-12.9-0.7-15.3c1.2-1.6,3.4-2.3,7.2-2.3h93.6v66l-65.4-0.1L471.4,249.8z M537.3,182.7
		h45.2v66l-45.2,0V182.7z M583.3,182.7h45.2v66.1l-45.2,0V182.7z M629.2,182.7h50.9v66.1l-50.9,0V182.7z M680.9,182.7h39.4v66.1
		l-39.4,0V182.7z M721.1,182.7h101.3v27.4h-28.1v0.4h-0.4v38.4l-72.8-0.1V182.7z M794.6,210.9h18.2v38.1l-18.2,0V210.9z
		 M813.6,210.9h13.8v38.1l-13.8,0V210.9z M823.1,210.1v-27.4h87.1V249l-82-0.1v-38.8H823.1z M944.6,221.5h22.7v4.2h-22.7V221.5z
		 M968.1,221.5h22.4v4.2h-22.4V221.5z M991.9,99h21v114.7h-21V99z M1013.7,197.3h43.1v16.4h-43.1V197.3z M1013.7,196.6v-26h43.1v26
		H1013.7z M1013.7,169.8v-20h43.1v20H1013.7z M1013.7,149v-33.7h43.1V149H1013.7z M1013.7,114.5V99h43.1v15.5H1013.7z M1056.8,30.6
		v36.1H948.6v-36l58.7-0.1H1056.8z M726.1,3.8h279.3v23.1l-617.3,1v-4.4h54.9v-9.6h283V3.8z M325.2,2.9h397.1v7.3h-283v9.6h-54.9
		v8.1h-0.7V16.1h-0.4c-6.5,0-11.9,4.5-13.3,10.6c-1.4-6-6.8-10.6-13.3-10.6h-0.4v11.8H355V16.1h-0.4c-6.5,0-11.9,4.5-13.3,10.6
		c-1.4-6-6.8-10.6-13.3-10.6h-0.4v11.8h-0.9v-8.1h-1.5V2.9z M100.9,275.1c-6.9,0-16.4-3.3-22.1-10.6c-4.5-5.8-5.7-12.8-3.6-21
		c6-23.3,42.3-187.9,44.8-200.3c2.5-12.2,7.1-19.7,22.5-19.7h89.7H323v4.4h-90.7h-64.1h-25.8c-10.1,0-14.7,3.8-17.2,13.9
		c-1.2,4.8-12.3,54.2-23.1,102.1c-10.3,45.5-20.9,92.6-22.4,99c-1.7,7.3-0.5,14.1,3.5,19.2c3.1,3.9,9.2,8.5,21,8.5h84.4l37.3,423.1
		h-7.5l-87.2-418.5H100.9z M0.8,937.6V695.9H215l0.3,1.5h10.8l0.2,4.9h-10.7l0,1.8c0,0.3-0.4,29.7-0.4,39.4
		c0,11.2,10,17.3,19.4,17.3h16v5.2h-11.8v0.4c0,6.5,4.5,11.9,10.6,13.3c-6,1.4-10.6,6.8-10.6,13.3v0.4h11.8v5.2l-128,24.3l-4.7-22.2
		H90.9l11.3,59.7h79v56.2h-27.1v17.1h125.9v-17.1h-29.6v-55.4h5.6v-15.2h25V858h0.4c6.5,0,11.9-4.5,13.3-10.6
		c1.4,6,6.8,10.6,13.3,10.6h0.4v-11.8h0.5V858h0.4c6.5,0,11.9-4.5,13.3-10.6c1.4,6,6.8,10.6,13.3,10.6h0.4v-11.8h26.1l26.4,83.2
		h53.6v8.2H0.8z M446.4,947v-17.5l545.7-1V947H446.4z M992.1,924.7L992.1,924.7l-1.1,0V822.5h21.7V799v-0.8v-9.9h44.2v136.3H992.1z
		 M832.7,557.9L563.3,615l15.1,76.2h478.3v10.2H570.5L550,605.2c20.6-4.2,206-42.1,236.2-48.1c12.5-2.5,23.3-10.1,31.2-22
		c5.4-8.1,8.8-17.2,10.4-25.5L832.7,557.9z M804.5,397.4c6.1,28.9,15.6,73.5,20.2,94.8l0,0c1.9,9.6-1,26.7-10.4,40.9
		c-5.1,7.7-14.3,17.5-28.8,20.4c-31.9,6.4-236,48.1-238.1,48.5l-1.9,0.4l0.2,1.1l-18.4,3.9l-43.5-200l20.4-4.2l0.6,3l1.8-0.4
		c2.1-0.4,211-43.7,239.1-49.5C773.4,350.6,799.4,377.3,804.5,397.4z M951.5,263.9H489.7l25.8,125.2l291.8-60.2
		c-3.2,7.5-9.6,26.7-5.9,52.7c-11.2-17.6-33.3-33.8-56.5-29c-26.7,5.5-216.5,44.8-237.2,49.1l-31.9-149.3l475.7,0.4V263.9z
		 M958.3,260.6v-7.8h8.9C966.4,257.1,962.7,260.4,958.3,260.6z M977.1,260.6c-4.5-0.2-8.1-3.5-8.9-7.8h8.9V260.6z M953.6,249.1
		l-8.9,0v-22.5h23.1h22.7v22.6l-8.1-0.1v0H953.6z M1056.8,263.9H986v-11.1l70.8,0.5V263.9z M991.9,249.1v-34.7h64.9v35.1
		L991.9,249.1z"/>
</g>
<g id="eventSpot">
	<path id="HT" class="eventColor" d="M504.9,406.1l-0.6-3l-20.4,4.2l43.5,200l18.4-3.9l-0.2-1.1l1.9-0.4c2.1-0.4,206.2-42.1,238.1-48.5
		c14.6-2.9,23.7-12.7,28.8-20.4c9.4-14.1,12.3-31.3,10.4-40.9l0,0c-4.6-21.3-14.1-65.8-20.2-94.8c-5.1-20.1-31.1-46.8-58.7-41.1
		c-28.1,5.8-236.9,49-239.1,49.5L504.9,406.1z"/>
</g>
<g id="guideSpot">
	<circle id="WTCH-0-D05" class="wireColor" cx="1036.1" cy="775.4" r="7.9"/>
	<circle id="WTCH-0-D04" class="wireColor" cx="974.3" cy="151.2" r="7.9"/>
	<circle id="WTCH-0-D03" class="wireColor" cx="134.2" cy="157.4" r="7.9"/>
	<circle id="WTCH-0-D02" class="wireColor" cx="323.1" cy="263.7" r="7.9"/>
	<circle id="WTCH-0-D01" class="wireColor" cx="312.7" cy="685.6" r="7.9"/>
</g>
</svg>
