<?xml version="1.0" encoding="utf-8"?>
<!-- Generator: Adobe Illustrator 20.0.0, SVG Export Plug-In . SVG Version: 6.00 Build 0)  -->
<svg version="1.1" id="Warstwa_1" xmlns="http://www.w3.org/2000/svg" xmlns:xlink="http://www.w3.org/1999/xlink" x="0px" y="0px"
	 viewBox="0 0 1073.1 950.7" style="enable-background:new 0 0 1073.1 950.7;" xml:space="preserve">
<style type="text/css">.wireColor{fill: #777777;}.nofloorColor{fill: #F2F2F2;}.arrowColor{fill: #EA5906;}.eventColor{opacity: 0.3; fill: #F59E16; transition: 1s fill;}.wcColor{opacity: 0.3; fill: #3693B2;}.stairsColor{opacity: 0.3; fill: #73cc15;}.transparentObject{fill: 0;}.riverColor{fill: #B9DDEF;}.mapElements{fill: #E2E2E2;}.tramColor{fill: #73CC15;}.mapArrows{fill: #BFBFBF;}.buildingFill{fill: #E5E5E5;}.eventColor.active{opacity: 0.3; fill: red; -webkit-animation: alertOpacity 2s infinite alternate; animation: alertOpacity 2s infinite alternate;}@-webkit-keyframes alertOpacity{0%{opacity: 0.3;}50%{opacity: 0.5;}100%{opacity: 0.3;}}@keyframes alertOpacity{0%{opacity: 0.3;}50%{opacity: 0.5;}100%{opacity: 0.3;}}#guideSpot .eventColor.active{fill: red; opacity: 1; r: 10; transform-origin: 150px 150px; -webkit-transform-origin: 50% 50%; -webkit-animation: alertScale 2s infinite alternate; animation: alertScale 2s infinite alternate;}@-webkit-keyframes alertScale{0%{-webkit-transform: scale(1, 1);}50%{-webkit-transform: scale(2, 2);}100%{-webkit-transform: scale(1, 1);}}@keyframes alertScale{0%{transform: scale(1, 1);}50%{transform: scale(2, 2);}100%{transform: scale(1, 1);}}</style>
<g id="description">
	<g>
		<path class="wireColor" d="M285.2,381.7v0.6H283v-0.7c0-1.9-0.7-3-2.4-3s-2.4,1.1-2.4,2.9c0,4.7,7,5.1,7,10.9c0,3.1-1.5,5.2-4.7,5.2
			s-4.7-2-4.7-5.2v-1.2h2.2v1.3c0,1.9,0.8,3,2.4,3s2.4-1.1,2.4-3c0-4.6-6.9-5.1-6.9-10.9c0-3.2,1.5-5.2,4.6-5.2
			C283.7,376.5,285.2,378.5,285.2,381.7z"/>
		<path class="wireColor" d="M289.6,393.3l-0.8,4.2h-2.1l4-20.8h3.4l4,20.8h-2.3l-0.8-4.2H289.6z M289.9,391.3h4.6l-2.3-12L289.9,391.3z"
			/>
		<path class="wireColor" d="M299.8,397.5v-20.8h2.3v18.6h5.9v2.1L299.8,397.5L299.8,397.5z"/>
		<path class="wireColor" d="M312.1,393.3l-0.8,4.2h-2.1l4-20.8h3.4l4,20.8h-2.3l-0.8-4.2H312.1z M312.4,391.3h4.6l-2.3-12L312.4,391.3z"
			/>
		<path class="wireColor" d="M274,412.8c-1.1,0.7-2.6,1.2-4.1,1.3v-2.7c3.2-0.1,4.3-1.9,5.1-4h2.3v29.8H274V412.8z"/>
		<path class="wireColor" d="M282.1,414.6c0-4.6,2.3-7.5,6.8-7.5c4.6,0,6.9,2.9,6.9,7.5V430c0,4.6-2.3,7.5-6.9,7.5s-6.8-3-6.8-7.5V414.6z
			 M285.4,430.2c0,2.7,1.2,4.3,3.5,4.3c2.4,0,3.5-1.6,3.5-4.3v-15.8c0-2.7-1.1-4.3-3.5-4.3s-3.5,1.6-3.5,4.3V430.2z"/>
		<path class="wireColor" d="M312.3,414.6c0,9-10.1,12.2-10.1,19.1v0.5h9.8v3h-13.1v-2.6c0-9.6,10.1-11.5,10.1-19.9c0-3.1-1-4.7-3.5-4.7
			c-2.4,0-3.5,1.7-3.5,4.4v2.6h-3.1v-2.4c0-4.6,2.1-7.6,6.7-7.6C310.2,407.1,312.3,410.1,312.3,414.6z"/>
		<path class="wireColor" d="M328.6,414.6v2.7h-3.2v-2.9c0-2.7-1.1-4.3-3.5-4.3s-3.5,1.6-3.5,4.3v15.8c0,2.7,1.1,4.3,3.5,4.3
			s3.5-1.6,3.5-4.3v-3.9h3.2v3.7c0,4.5-2.1,7.5-6.7,7.5s-6.7-3-6.7-7.5v-15.4c0-4.5,2.1-7.5,6.7-7.5
			C326.4,407.1,328.6,410.1,328.6,414.6z"/>
	</g>
	<g>
		<path class="wireColor" d="M806.1,831.6v0.7h-2.6v-0.8c0-2.3-0.9-3.6-2.9-3.6s-2.9,1.3-2.9,3.5c0,5.6,8.4,6.2,8.4,13.2
			c0,3.8-1.8,6.3-5.7,6.3c-3.8,0-5.6-2.5-5.6-6.3v-1.4h2.6v1.6c0,2.3,0.9,3.6,2.9,3.6s2.9-1.3,2.9-3.6c0-5.6-8.4-6.1-8.4-13.2
			c0-3.9,1.8-6.3,5.5-6.3C804.3,825.4,806.1,827.8,806.1,831.6z"/>
		<path class="wireColor" d="M811.4,845.6l-1,5h-2.6l4.8-25h4l4.8,25h-2.8l-1-5H811.4z M811.8,843.2h5.6l-2.8-14.5L811.8,843.2z"/>
		<path class="wireColor" d="M823.7,850.7v-25h2.8v22.5h7.2v2.5H823.7z"/>
		<path class="wireColor" d="M838.6,845.6l-1,5H835l4.8-25h4l4.8,25h-2.8l-1-5H838.6z M838.9,843.2h5.6l-2.8-14.5L838.9,843.2z"/>
		<path class="wireColor" d="M792.8,869.2c-1.3,0.8-3.1,1.4-5,1.5v-3.3c3.9-0.2,5.2-2.3,6.2-4.8h2.8v36h-4V869.2z"/>
		<path class="wireColor" d="M810.2,869.2c-1.3,0.8-3.1,1.4-5,1.5v-3.3c3.9-0.2,5.2-2.3,6.2-4.8h2.8v36h-4V869.2z"/>
		<path class="wireColor" d="M836.2,871.3v0.9c0,3.7-1.5,6.3-4.4,7.4c3,1.1,4.4,3.9,4.4,7.5v2.8c0,5.5-2.6,9.1-8.1,9.1s-8.1-3.6-8.1-9.1
			v-2.5h3.8v2.7c0,3.2,1.3,5.2,4.2,5.2s4.2-1.9,4.2-5.6V887c0-3.5-1.5-5.2-4.5-5.3h-2.2v-3.6h2.4c2.7-0.1,4.3-1.8,4.3-4.9v-1.6
			c0-3.7-1.3-5.6-4.2-5.6s-4.2,2-4.2,5.2v1.9H820v-1.6c0-5.5,2.6-9.1,8.1-9.1C833.7,862.3,836.2,865.8,836.2,871.3z"/>
		<path class="wireColor" d="M844.2,891.4l-1.4,7.3h-3.7l6.9-36h5.8l6.9,36h-4l-1.4-7.3H844.2z M844.7,888h8l-4.1-20.8L844.7,888z"/>
	</g>
	<g>
		<path class="wireColor" d="M390.1,56v0.7h-2.6v-0.8c0-2.3-0.9-3.6-2.9-3.6s-2.9,1.3-2.9,3.5c0,5.6,8.4,6.2,8.4,13.2
			c0,3.8-1.8,6.3-5.7,6.3c-3.8,0-5.6-2.5-5.6-6.3v-1.4h2.6v1.6c0,2.3,0.9,3.6,2.9,3.6s2.9-1.3,2.9-3.6c0-5.6-8.4-6.1-8.4-13.2
			c0-3.9,1.8-6.3,5.5-6.3C388.4,49.7,390.1,52.2,390.1,56z"/>
		<path class="wireColor" d="M395.4,70l-1,5h-2.6l4.8-25.1h4l4.8,25.1h-2.8l-1-5H395.4z M395.8,67.6h5.6l-2.8-14.5L395.8,67.6z"/>
		<path class="wireColor" d="M407.7,75V50h2.8v22.5h7.2V75H407.7z"/>
		<path class="wireColor" d="M422.6,70l-1,5H419l4.8-25.1h4l4.8,25.1h-2.8l-1-5H422.6z M423,67.6h5.6l-2.8-14.5L423,67.6z"/>
		<path class="wireColor" d="M376,93.6c-1.3,0.8-3.1,1.4-5,1.5v-3.3c3.9-0.2,5.2-2.3,6.2-4.8h2.8v36h-4V93.6z"/>
		<path class="wireColor" d="M385.7,95.7c0-5.5,2.7-9.1,8.2-9.1c5.6,0,8.3,3.6,8.3,9.1v18.6c0,5.5-2.7,9.1-8.3,9.1c-5.5,0-8.2-3.6-8.2-9.1
			V95.7z M389.7,114.6c0,3.2,1.4,5.2,4.3,5.2s4.3-2,4.3-5.2v-19c0-3.3-1.3-5.2-4.3-5.2c-2.9,0-4.3,2-4.3,5.2V114.6z"/>
		<path class="wireColor" d="M420.7,115.8v7.3h-3.9v-7.3h-11.6v-3.7L416.3,87h4.4v25.1h2.9v3.7C423.6,115.8,420.7,115.8,420.7,115.8z
			 M408.8,112.1h7.9V94.6L408.8,112.1z"/>
		<path class="wireColor" d="M434.7,87c5.6,0,7.8,2.7,7.8,8v1.7c0,3.8-1.1,6.2-4.2,7.2c3.5,1,4.8,3.8,4.8,7.7v3c0,5.4-2.6,8.4-8.2,8.4
			h-8.3V87H434.7z M433.7,102.3c3.2,0,4.8-1,4.8-4.8v-2.1c0-3.2-1.1-4.7-4-4.7h-4v11.6H433.7z M434.9,119.4c2.9,0,4.3-1.5,4.3-4.9
			v-3.2c0-4-1.6-5.4-5-5.4h-3.5v13.4L434.9,119.4L434.9,119.4z"/>
	</g>
	<g>
		<path class="wireColor" d="M325,217.5h-3.8l-3.4-24.8h2.7l2.9,21.1l2.8-21.1h2.7l2.7,21.1l2.8-21.1h2.4l-3.4,24.8h-3.6l-2.4-16.8
			L325,217.5z"/>
		<path class="wireColor" d="M350,198.7v2.2h-2.6v-2.4c0-2.2-0.9-3.6-2.9-3.6s-2.9,1.3-2.9,3.6v13.1c0,2.2,0.9,3.6,2.9,3.6
			s2.9-1.3,2.9-3.6v-3.2h2.6v3.1c0,3.8-1.8,6.2-5.6,6.2c-3.8,0-5.6-2.5-5.6-6.2v-12.8c0-3.8,1.8-6.2,5.6-6.2
			C348.2,192.5,350,195,350,198.7z"/>
	</g>
	<g>
		<path class="wireColor" d="M425.9,815.8h-3l-2.7-19.5h2.1l2.3,16.6l2.2-16.6h2.1l2.1,16.6l2.2-16.6h1.9l-2.6,19.5h-2.9l-1.9-13.2
			L425.9,815.8z"/>
		<path class="wireColor" d="M445.6,801v1.8h-2.1v-1.9c0-1.8-0.7-2.8-2.3-2.8c-1.6,0-2.3,1.1-2.3,2.8v10.3c0,1.8,0.7,2.8,2.3,2.8
			c1.6,0,2.3-1.1,2.3-2.8v-2.5h2.1v2.4c0,3-1.4,4.9-4.4,4.9s-4.4-2-4.4-4.9V801c0-3,1.4-4.9,4.4-4.9C444.2,796,445.6,798,445.6,801z
			"/>
	</g>
	<g>
		<path class="wireColor" d="M460.1,781.1h-3l-2.7-19.5h2.1l2.3,16.6l2.2-16.6h2.1l2.1,16.6l2.2-16.6h1.9l-2.6,19.5h-2.9l-1.9-13.2
			L460.1,781.1z"/>
		<path class="wireColor" d="M479.8,766.3v1.8h-2.1v-1.9c0-1.8-0.7-2.8-2.3-2.8c-1.6,0-2.3,1.1-2.3,2.8v10.3c0,1.8,0.7,2.8,2.3,2.8
			c1.6,0,2.3-1.1,2.3-2.8V774h2.1v2.4c0,3-1.4,4.9-4.4,4.9s-4.4-2-4.4-4.9v-10.1c0-3,1.4-4.9,4.4-4.9S479.8,763.4,479.8,766.3z"/>
	</g>
	<g>
		<path class="wireColor" d="M227.2,217.5h-3.8l-3.4-24.8h2.7l2.9,21.1l2.8-21.1h2.7l2.7,21.1l2.8-21.1h2.4l-3.4,24.8H232l-2.4-16.8
			L227.2,217.5z"/>
		<path class="wireColor" d="M252.2,198.7v2.2h-2.6v-2.4c0-2.2-0.9-3.6-2.9-3.6s-2.9,1.3-2.9,3.6v13.1c0,2.2,0.9,3.6,2.9,3.6
			s2.9-1.3,2.9-3.6v-3.2h2.6v3.1c0,3.8-1.8,6.2-5.6,6.2s-5.6-2.5-5.6-6.2v-12.8c0-3.8,1.8-6.2,5.6-6.2
			C250.4,192.5,252.2,195,252.2,198.7z"/>
	</g>
</g>
<g id="hotSpot">
	<polygon class="stairsColor" points="129.9,85.5 179.8,85.5 179.8,166.8 110.6,166.8 	"/>
	<polygon class="stairsColor" points="417.8,287.3 438.4,282.7 456.5,373.2 436.7,377.3 	"/>
	<polygon class="stairsColor" points="475.8,559.5 495.6,555.3 514.5,645.4 493.9,650 	"/>
	<polygon class="stairsColor" points="121.7,800.5 206.5,800.5 206.5,822.4 237.1,822.4 237.1,843.3 131.5,843.3 	"/>
	<rect x="1019.3" y="703.2" class="stairsColor" width="51.9" height="81.6"/>
	<polygon class="stairsColor" points="370.2,431.6 398.3,425.7 410.6,485.6 382.6,491.5 	"/>
	<polygon class="stairsColor" points="998.5,133.3 964.4,133.3 964.4,146.1 952.5,146.1 952.5,251.3 998.5,251.3 	"/>
	<polygon class="wcColor" points="453.9,824 395.1,824 395.1,786.3 415.2,786.3 415.2,746 484,746 496.1,795.4 454.1,795.4 	"/>
	<path class="wcColor" d="M202.2,186.2h171.6c0,0,0,26.7,0,39.3s-7.8,20-23.1,20s-48,0-48,0v-23.3h-54.1v22.6h-46.3L202.2,186.2z"/>
</g>
<g id="wire">
	<rect x="258.2" y="258.7" class="wireColor" width="31.4" height="1.8"/>
	<path class="wireColor" d="M416.8,286.6l19.2,91.6l1.7-0.4l-0.4-2.1l18.1-4l0.3,1.7l1.7-0.3l-18.3-91.4L416.8,286.6z M435.8,368.8
		l-0.5-2.5l18.2-4.1l0.5,2.5L435.8,368.8z M454.1,365.4l0.4,2.1l-18.1,4.1l-0.4-2.1L454.1,365.4z M435.1,365.6l-0.6-2.7l18.2-4.1
		l0.5,2.7L435.1,365.6z M434.4,362.1l-0.6-2.6l18.2-4.1l0.5,2.6L434.4,362.1z M433.7,358.8l-0.5-2.6l18.3-4.1l0.5,2.6L433.7,358.8z
		 M433,355.5l-0.5-2.3l18.3-4.1l0.5,2.3L433,355.5z M432.3,352.4l-0.5-2.4l18.3-4.1l0.5,2.4L432.3,352.4z M431.7,349.2l-0.5-2.4
		l18.3-4.1l0.5,2.4L431.7,349.2z M431,346.1l-0.5-2.6l18.4-4.1l0.5,2.6L431,346.1z M430.3,342.8l-0.5-2.5l18.4-4.1l0.5,2.5
		L430.3,342.8z M429.7,339.6l-3.5-16.9l18.6-4.2l3.4,16.9L429.7,339.6z M426,322l-0.4-2.1l18.6-4.2l0.4,2.1L426,322z M425.4,319.1
		l-0.5-2.5l18.6-4.2l0.5,2.5L425.4,319.1z M424.7,315.9l-0.6-2.7l18.6-4.2l0.5,2.7L424.7,315.9z M424,312.5l-0.6-2.6l18.7-4.2
		l0.5,2.6L424,312.5z M423.3,309.1l-0.5-2.6l18.7-4.2l0.5,2.6L423.3,309.1z M422.6,305.8l-0.5-2.3l18.7-4.2l0.5,2.3L422.6,305.8z
		 M422,302.8l-0.5-2.4l18.8-4.2l0.5,2.4L422,302.8z M421.3,299.6l-0.5-2.4l18.8-4.2l0.5,2.4L421.3,299.6z M420.6,296.5l-0.5-2.6
		l18.8-4.2l0.5,2.6L420.6,296.5z M419.9,293.2l-0.5-2.5l18.9-4.2l0.5,2.5L419.9,293.2z M437.7,283.7l0.4,2l-18.9,4.2l-0.4-2
		L437.7,283.7z M437.1,375l-0.6-2.6l18.1-4.1l0.5,2.7L437.1,375z"/>
	<path class="wireColor" d="M494.6,554.9l0.4,2.1l-18.1,4l-0.3-1.7l-1.7,0.3l18.3,91.4l22.3-5l-19.2-91.6L494.6,554.9z M495.2,557.7
		l0.6,2.6l-18.1,4.1l-0.5-2.7L495.2,557.7z M493.4,643l-0.5-2.6l18.8-4.2l0.5,2.6L493.4,643z M512.4,639.5l0.5,2.5l-18.9,4.2
		l-0.5-2.5L512.4,639.5z M492.7,639.7l-0.5-2.4l18.8-4.2l0.5,2.4L492.7,639.7z M492.1,636.6l-0.5-2.4l18.7-4.2l0.5,2.4L492.1,636.6z
		 M491.5,633.4l-0.5-2.3l18.7-4.2l0.5,2.3L491.5,633.4z M490.9,630.3l-0.5-2.6l18.7-4.2l0.5,2.6L490.9,630.3z M490.2,627l-0.5-2.6
		l18.7-4.2l0.6,2.6L490.2,627z M489.5,623.6l-0.5-2.7l18.6-4.2l0.6,2.7L489.5,623.6z M488.8,620.2l-0.5-2.5l18.6-4.2l0.5,2.5
		L488.8,620.2z M488.2,617l-0.4-2.1l18.6-4.2l0.4,2.1L488.2,617z M487.6,614.1l-3.4-16.9l18.4-4.1l3.5,16.9L487.6,614.1z
		 M484.1,596.5l-0.5-2.5l18.4-4.1l0.5,2.5L484.1,596.5z M483.4,593.2l-0.5-2.6l18.3-4.1l0.5,2.6L483.4,593.2z M482.8,589.9l-0.5-2.4
		l18.3-4.1l0.5,2.4L482.8,589.9z M482.2,586.8l-0.5-2.4l18.3-4.1l0.5,2.4L482.2,586.8z M481.5,583.7l-0.5-2.3l18.3-4.1l0.5,2.3
		L481.5,583.7z M480.9,580.6l-0.5-2.6l18.2-4.1l0.5,2.6L480.9,580.6z M480.3,577.3l-0.5-2.6l18.2-4.1l0.6,2.6L480.3,577.3z
		 M479.6,573.9l-0.5-2.7l18.2-4.1l0.6,2.7L479.6,573.9z M478.9,570.5l-0.5-2.5l18.1-4.1l0.5,2.5L478.9,570.5z M478.3,567.3l-0.4-2.1
		l18.1-4.1l0.4,2.1L478.3,567.3z M494.6,649l-0.4-2l18.9-4.2l0.4,2L494.6,649z"/>
	<path class="wireColor" d="M1073.1,253.4V26.8h-51.4V0H734.9v10.2h-283v9.6H397v8.1h-57.6v-8.1h-94.5h-89.7c-19,0-23.8,10.9-26.2,22.7
		c-2.5,12.4-38.8,176.9-44.7,200.1c-2.4,9.2-0.9,17.6,4.3,24.2c6.5,8.3,17.2,12.1,25,12.1h27.2l86.4,414.8H79.5
		c-2.2-0.2-44.6-3.9-59.8-6.2c-7.9-1.2-12.5,1.1-15,3.2c-3,2.6-4.7,6.6-4.7,11.2v211.7c0,5.7,2.3,15.2,17.5,15.9l0,0h437.6v21.2
		h553.2v-22.3h64.7v-227H583l-20.5-96.1c20.6-4.2,206-42.1,236.2-48.1c12.5-2.5,23.3-10.1,31.2-22c10-15,13-33.3,10.9-43.7
		c-0.1-0.6-12.6-58.2-20.2-94.9c-5.4-21.5-33.4-50-63.1-43.9c-26.7,5.5-216.5,44.8-237.2,49.1l-31.9-149.3l582.8,1L1073.1,253.4z
		 M549.3,703.2c0.3,1.6,7.4,39.4,9.6,46.2c0.1,0.4,0.3,0.8,0.4,1.2c2,6.4,3.7,11.9,21.1,11.9h421.3V754h16.8v59.3l-3,49.9h-14.3
		v-68.6h-73.3V789h-23.4v5.6h-68V789h-24.1v5.6h-68V789H720v5.6h-68.5v-5.4h-24.4v5.4h-66.6V789h-24.2v5.6h-39.5l-12.3-49.8h-79.2
		c-10.8,0-11.1,9.4-11.1,10.5v3.9h1.8v-3.9c0-1.5,0.4-8.8,9.3-8.8h9.5v11.6h-12v0.4c0,6.7,5.4,12.2,12,12.4v7.4v0.4v7.3h-1.6v-12
		h-0.4c-6.7,0-12.2,5.4-12.4,12H396v-8h-1.8v36.6H261.3v-15.4H99.7l2.3,7.8H65.2v-43.6h166h0.1c0.3,0,27.6-4.6,38.1-7.8
		c11.1-3.4,14.3-9.4,11.4-21.2c-2.7-11.1-7.4-36.2-7.5-36.7l-4.4-31.2l172.6-36l-0.1-0.8c0-0.2-3.9-22.3-7.4-32.8
		c-3.9-11.6-15.7-15.6-25.4-13.7c-7.6,1.5-12.5,2.6-14.4,3.1l-10.6-52.9l36.4-7.1l-0.2-0.9c-0.2-1-10.5-51.1-21.3-103.1l11.3-2.4
		l-0.1-0.4c-1.4-6.4-7.4-10.5-13.8-9.7c-9.3-45.1-18.4-88.7-20.9-99.8c-5.3-24-15.7-23.9-26.6-23.7c-0.9,0-1.8,0-2.6,0H215.5
		l-3-21.6h4.7v-19.1h32.3v-7.5c6.4-0.5,11.5-5.8,11.5-12.4v-0.4h-11.5v-2.4h26.1v11.5h0.4c6.6,0,11.9-5.1,12.4-11.5h13.5v2.4h-11.5
		v0.4c0,6.6,5.1,11.9,11.5,12.4v8.1h51c17.3,0,21.9-13.1,21.9-20.9v-40.1h-194V147h77.6v5.6h37.3V147h241.4v5.1h23.8V147H627v6.1
		h24.4V147h66.1v6.3h25.6V147h67.4v6.4h24.6V147h67.5v6h25.8v-6h23.3v29.8H483.8v4.7h-36.6c-2.5,0-4.4,0.7-5.6,2
		c-1.1,1.2-1.5,3-1.3,5.1c0.7,5.6,11.9,59.3,12.3,61.6l0.1,0.7h4.5l94.1,451.3h-2.4L549.3,703.2z M1017.7,855l2.5-41.6v-0.8h49.1
		v51.1h-28.9V855H1017.7z M1020.2,728.5h24.3v2.4h-24.3V728.5z M1069.3,760.4h-23v-2.5h23V760.4z M1020.2,766.6
		c5.9,0.4,10.6,5.3,10.8,11.3h-10.8V766.6z M1020.2,754.8h24.3v2.4h-24.3V754.8z M1020.2,757.9h24.3v2.5h-24.3V757.9z M1069.3,757.2
		h-23v-2.4h23V757.2z M1069.3,754h-23v-2.6h23V754z M1069.3,750.7h-23v-2.9h23V750.7z M1069.3,747.1h-23v-2.5h23V747.1z
		 M1069.3,743.8h-23v-2.4h23V743.8z M1069.3,740.7h-23v-2.6h23V740.7z M1069.3,737.4h-23V735h23V737.4z M1069.3,734.2h-23v-2.5h23
		V734.2z M1069.3,731h-23v-2.4h23V731z M1020.2,731.7h24.3v2.5h-24.3V731.7z M1020.2,734.9h24.3v2.4h-24.3V734.9z M1020.2,738.1
		h24.3v2.6h-24.3V738.1z M1020.2,741.4h24.3v2.4h-24.3V741.4z M1020.2,744.6h24.3v2.5h-24.3V744.6z M1020.2,747.8h24.3v2.9h-24.3
		V747.8z M1020.2,752.3v-0.8h24.3v2.6h-24.3v-0.9V752.3z M1020.2,810.8v-25.1h49.1v25.1H1020.2z M1020.2,784v-5.4h11.5v-0.4
		c0-6.6-5.1-11.9-11.5-12.4v-4.6h24.3v1.1h1.8v-1.1h23V784H1020.2z M1069.3,727.8h-23v-2.6h23V727.8z M1044.5,727.8h-24.3v-2.6h24.3
		V727.8z M1018.5,752.3h-18.6v8.5h-34v-55.7h52.5L1018.5,752.3L1018.5,752.3z M965.2,760.8h-49.1v-55.7h49.1V760.8z M915.3,760.8
		h-51.9v-22.4h9v-33.3h42.9V760.8z M871.7,737.6h-9v23.2h-38.3v-55.7h47.3V737.6z M823.7,760.8h-44.4v-22.7h-11.7v-33h56.1
		L823.7,760.8L823.7,760.8z M778.5,738.9v21.9h-50.8v-55.7h39.1v33.8H778.5z M727,760.8h-43.3v-21.9H695v-33.8h32V760.8z
		 M694.3,738.1H683v22.7h-33.3v-55.7h44.7v33H694.3z M999.4,864.9v59.8l-41.8,0.1V796.3h41.8v67.8V864.9z M538,796.3v-0.9v-4.8h20.7
		v4.8l-0.1,8.2H538V796.3z M560.4,805.3l0.1-9h66.6v10.1h11.8v119l-88.7,0.2V805.3H560.4z M649.7,795.4v0.9v8.3h-20.9v-8.3v-0.9
		v-4.6h20.9V795.4z M639.6,806.4h11.8v-10.1H720v9h10.5v119.9l-90.9,0.2V806.4z M742.6,795.4v0.9v7.3h-20.8v-7.3v-0.9v-4.8h20.8
		V795.4z M731.2,805.3h13.1v-9h32v128.8l-45.1,0.1V805.3z M777.1,796.3h21.8c0.5,6.4,5.8,11.5,12.4,11.5h0.4v-11.5h2.5v-5.6h20.6
		v5.6h33.5V925l-91.1,0.2V796.3H777.1z M810.9,796.3v10.8c-6-0.2-10.8-4.9-11.3-10.8H810.9z M868.9,796.3h37.3v-5.6h19.9v5.6h30.7
		v128.5l-87.9,0.2V796.3z M102,801.1h19l10.8,50.7h-16.9l-10.7-42.9l0,0L102,801.1z M131.3,801.1h11.3c-0.3,6-5.2,10.9-11.3,11.1
		V801.1z M130.9,812.9c6.6,0,12.1-5.2,12.4-11.8h5.1v20.4h-0.8v1.8h0.8v19.2h-16.8l-8.9-41.4h7.8v11.8H130.9z M259.5,815.5
		l-0.4,36.2H238v-30.2h-31.1v-20.4h52.6V815.5z M151.7,823.3v19.2h-2.6v-19.2H151.7z M152.4,823.3h2.4v19.2h-2.4V823.3z
		 M155.6,823.3h2.5v19.2h-2.5V823.3z M158.8,823.3h2.4v19.2h-2.4V823.3z M162,823.3h2.6v19.2H162V823.3z M165.3,823.3h2.4v19.2h-2.4
		V823.3z M168.5,823.3h2.5v19.2h-2.5V823.3z M171.7,823.3h2.9v19.2h-2.9V823.3z M175.3,823.3h2.6v19.2h-2.6V823.3z M178.6,823.3h2.4
		v19.2h-2.4V823.3z M181.8,823.3h2.5v19.2h-2.5V823.3z M185,823.3h17.8v19.2H185V823.3z M203.6,823.3h1.5h0.9h0.1v19.2h-2.5V823.3z
		 M206.8,823.3h2.4v19.2h-2.4V823.3z M210,823.3h2.6v19.2H210V823.3z M213.3,823.3h2.4v19.2h-2.4V823.3z M216.5,823.3h2.5v19.2h-2.5
		V823.3z M219.7,823.3h2.9v19.2h-2.9V823.3z M223.3,823.3h2.6v19.2h-2.6V823.3z M226.7,823.3h2.4v19.2h-2.4V823.3z M229.8,823.3h2.5
		v19.2h-2.5V823.3z M233.1,823.3h3.1v19.2h-3.1V823.3z M205.1,821.5H185v-20.4h20.1V821.5z M184.3,821.5h-2.5v-20.4h2.5V821.5z
		 M181,821.5h-2.4v-20.4h2.4V821.5z M177.9,821.5h-2.6v-20.4h2.6V821.5z M174.6,821.5h-2.9v-20.4h2.9V821.5z M170.9,821.5h-2.5
		v-20.4h2.5V821.5z M167.7,821.5h-2.4v-20.4h2.4V821.5z M164.5,821.5H162v-20.4h2.6v20.4H164.5z M161.2,821.5h-2.4v-20.4h2.4V821.5z
		 M158.1,821.5h-2.5v-20.4h2.5V821.5z M154.8,821.5h-2.4v-20.4h2.4V821.5z M151.7,821.5h-2.6v-20.4h2.6V821.5z M133.6,851.7
		l-1.6-7.5h104.3v7.5H133.6z M260.9,853.5l0.4-37.1h46v109.3H178.6v-72.3L260.9,853.5L260.9,853.5z M308,816.4h86.2v8.4H453v100.9
		H308V816.4z M396,786.7h4.4h12.8h1.6v21.1c-6.7,0.2-12,5.7-12,12.4v0.4h12v2.6H396v-6.7v-0.9V786.7z M412.4,786h-11.3
		c0.2-6.1,5.2-11.1,11.3-11.3V786z M414.8,770.2c-6.1-0.2-11.1-5.2-11.3-11.3h11.3V770.2z M415.5,770.9v-12.8v-11.6h31.3v18.3
		c-6.7,0.2-12.1,5.7-12.1,12.4v0.4h12.1v7.4h-14.6v-6.6h-16.6L415.5,770.9L415.5,770.9z M453,823.1h-37.5v-2.6v-12.8V779h15.9v6.6
		h15.4v10.1h6.3L453,823.1L453,823.1z M414.8,819.8h-11.3c0.2-6.1,5.2-11.1,11.3-11.3V819.8z M446.8,765.5v11.3h-11.3
		C435.7,770.7,440.6,765.7,446.8,765.5z M453,794.5v0.5h-5.5v-48.5h35.6l11.9,48H453z M63.4,807.4H21.3V763h42.2L63.4,807.4
		L63.4,807.4z M63.4,761.8v0.5H21.3v-56.2h61.1v35.5H91v20.2H63.4z M180.7,145.2V66H136c2.9-12.7,4.9-21.4,5.3-23.3
		c2.1-8.5,5.2-11.1,13.6-11.1h25.8h43.7v113.6H180.7z M178.9,161.8h-10.6c0.2-5.9,4.8-10.7,10.6-11.2V161.8z M178.9,136.8h-27.7
		v-2.4h27.7V136.8z M178.9,133.6h-27.7V131h27.7V133.6z M178.9,130.3h-27.7v-2.9h27.7V130.3z M178.9,126.7h-27.7v-2.5h27.7V126.7z
		 M178.9,123.4h-27.7V121h27.7V123.4z M178.9,120.3h-27.7v-2.6h27.7V120.3z M178.9,117h-27.7v-2.4h27.7V117z M178.9,113.8h-27.7
		v-2.5h27.7V113.8z M178.9,110.5h-27.7v-2.4h27.7V110.5z M178.9,107.4h-27.7v-2.6h27.7V107.4z M151.2,137.5h27.7v2.5h-27.7V137.5z
		 M135.6,67.7H179v16.9h-47.2C133.1,78.5,134.4,72.8,135.6,67.7z M131.3,86.4h47.6v17.7h-27.7v-1.7h-1.8v1.7h-22.1
		C128.7,97.9,130.1,92,131.3,86.4z M127.2,104.8h22.3v2.6h-22.9C126.8,106.5,127,105.7,127.2,104.8z M126.4,108.1h23v2.4h-23.6
		C126,109.7,126.2,108.9,126.4,108.1z M125.7,111.3h23.7v2.5h-24.3C125.3,113,125.5,112.1,125.7,111.3z M125,114.5h24.5v2.4h-25
		C124.6,116.1,124.8,115.3,125,114.5z M124.2,117.7h25.2v2.6h-25.8C123.9,119.4,124,118.6,124.2,117.7z M123.5,121h25.9v2.4h-26.5
		C123.1,122.6,123.3,121.8,123.5,121z M122.8,124.2h26.6v2.5h-27.2C122.4,125.8,122.6,125,122.8,124.2z M122,127.4h27.4v2.9h-28
		C121.6,129.3,121.8,128.4,122,127.4z M121.2,131h28.2v2.6h-28.8C120.8,132.8,121,131.9,121.2,131z M120.5,134.4h28.9v2.4h-29.5
		C120.1,136,120.3,135.2,120.5,134.4z M119.8,137.5h29.7v2.5h-30.2C119.4,139.2,119.6,138.4,119.8,137.5z M118.1,144.7
		c0.3-1.3,0.6-2.6,0.9-3.9h30.4v1.5h1.8v-1.5h27.7v4.4v0.9v3.7c-6.3,0.6-11.3,5.9-11.3,12.4v0.4h11.3v3.4h-65.6
		C114.9,158.9,116.5,151.8,118.1,144.7z M112.9,167.7h66v19.4h22.4V244v0.9v22h-84.7c-8.1,0-14.4-2.5-18-7.1
		c-3.3-4.2-4.3-9.8-2.8-16C97,238.4,104.5,205,112.9,167.7z M301.8,237.5c-5.9-0.4-10.6-5.3-10.8-11.3h10.8V237.5z M303.5,223.8
		h38.3c0.2,6.7,5.7,12,12.4,12h0.4v-12h18.3v1.7c0,2-0.6,19.1-20.1,19.1h-49.3L303.5,223.8L303.5,223.8z M342.6,223.8h11.3v11.3
		C347.7,234.9,342.8,229.9,342.6,223.8z M372.9,223h-18.3h-12.8h-38.3v-1.7H296V187h76.9V223z M295.2,221.3h-24.6V187h24.6V221.3z
		 M276.3,223.1h11.3c-0.4,5.9-5.3,10.6-11.3,10.8V223.1z M269.9,221.3h-22.3v1.7h-24.5h-12.8H203v-36h66.9V221.3z M203,244v-20.2
		h7.3v12h0.4c6.7,0,12.2-5.4,12.4-12h24.5V244H203z M211.1,223.8h11.3c-0.2,6.1-5.2,11.1-11.3,11.3V223.8z M249.4,226.2h10.8
		c-0.2,6-4.9,10.8-10.8,11.3L249.4,226.2L249.4,226.2z M203,245.7h12.4v17.4h-5l61.1,434h-29.2l-0.1-1.7l-37.8-428.6H203V245.7z
		 M262,616.9l79.4-17.2l10,48l-82.6,17.2L262,616.9z M336.1,565.9l6.7,31.7l-38.9,8.4l-6.8-31.9L336.1,565.9z M296.3,574.3l6.8,31.9
		l-41.4,9l-4.6-32.6L296.3,574.3z M353,647.3l-10-48l49.8-10.8l0,0l0.9-0.2c0.1,0,5.4-1.3,15.2-3.2c8.9-1.8,19.8,1.9,23.4,12.5
		c3.1,9.2,6.5,27.5,7.2,31.7L353,647.3z M343.5,597.4l-6.7-31.7l49.3-10.4l6.3,31.5L343.5,597.4z M256.9,580.8l-8.1-57.8l109.5-22.3
		l5.8,25.8l15.6-3.7l1.8,9.3l0,0l0.2,0.9l0,0l0,0l4.1,20.6L256.9,580.8z M358.1,500l-109.4,22.3l-8.5-60.6l104.5-21.8L358.1,500z
		 M369.5,432.6c4.2,18.3,11.7,51.9,12.2,58.2l-22.8,4.8l-13-58.1L369.5,432.6z M383.2,531.8l-1.8-9.3l16.2-3.4l1.9,9.5L383.2,531.8z
		 M401.2,528.3l-1.9-9.6l16.6-3.5c1,4.9,1.7,8.3,2,9.8L401.2,528.3z M381.1,520.8L381.1,520.8l-15.7,3.7l-6.1-27.1l50.7-10.6
		c2.2,10.8,4.1,20.1,5.5,26.9L381.1,520.8z M383.5,490.4c-0.4-4.1-2.8-15.6-5.3-27.4l25.8-5.4c2,9.7,3.9,19,5.6,27.3L383.5,490.4z
		 M377.8,461.4c-2.8-12.9-5.7-25.6-6.5-29.1l26.4-5.5c2.1,9.9,4.1,19.8,6,29.2L377.8,461.4z M396.1,410.7c5.8-0.8,11.4,3,12.8,8.7
		l-10.5,2.3C397.6,418,396.8,414.4,396.1,410.7z M397.2,425l-53.4,11.1l0.7,3.1L240,461l-11.1-79l70.2-14.6l87.2,5
		C389.8,388.9,393.5,407.1,397.2,425z M225.7,358.9l63.4-13c2.2,10.3,4,18.3,4.5,20.8l-64.9,13.5L225.7,358.9z M299.1,365.6H299
		l-3.8,0.8c-0.4-2.1-1.5-7.3-4.4-20.8L377,328c2.3,11.1,5.4,26,8.9,42.6L299.1,365.6z M290.4,343.9c-1-4.6-2.2-10.1-3.6-16.8
		c-3.7-17.2-7.5-34.5-8.5-38.9h67.5c0.9,0,1.8,0,2.7,0c10.6-0.2,19.8-0.3,24.9,22.3c0.7,3,1.8,8.5,3.4,15.7L290.4,343.9z
		 M276.5,288.2c3.4,15.6,8.4,38.7,12.2,56l-63.3,12.9l-9.7-69h60.8V288.2z M242.4,698.9h29.4c0.8,4.2,4.9,25.9,7.4,36.1
		c2.6,10.8-0.1,16-10.2,19.1s-36.3,7.5-37.8,7.8h-12.9v-55.7h24.5L242.4,698.9z M217.5,761.8h-33.9v-21H175v-34.7h42.5V761.8z
		 M182.9,741.6v20.2h-49.2v-55.7h40.6v35.5H182.9z M133,761.8H91.8v-21h-8.6v-34.7H133V761.8z M449.1,145.2h-11.3
		c0.4-5.9,5.3-10.6,11.3-10.8V145.2z M535.5,31.4v113.8h-82.1V31.5L535.5,31.4z M823.4,151.5V30.9l91.4-0.2v120.4h-10.4v-6h-71v6.4
		h-21.1v-6.4h-70.9v6.3h-10V31.1l91.3-0.2v120.6H823.4z M1069.3,191.5h-45.6v-24.6h45.6V191.5z M1069.3,165.1h-45.6V113h45.6V165.1z
		 M1069.3,111.3h-45.6V95.2h45.6V111.3z M1069.3,93.5h-69.9V51.4h69.9V93.5z M997.7,222.6h-21.3v-2.5h21.3V222.6z M953.4,153h10.8
		c-0.2,6-4.9,10.8-10.8,11.3V153z M951.1,145.2v-44.5h46.6v31.8h-34.2v12.8h-10.1h-0.9h-1.4V145.2z M953.4,178.2h21.3v2.6h-21.3
		v-2.2V178.2z M953.4,181.5h21.3v2.4h-21.3V181.5z M953.4,184.6h21.3v2.5h-21.3V184.6z M953.4,187.9h21.3v2.4h-21.3V187.9z
		 M953.4,191h21.3v2.6h-21.3V191z M953.4,194.4h21.3v2.4h-21.3V194.4z M953.4,197.5h21.3v2.5h-21.3V197.5z M953.4,200.8h21.3v2.9
		h-21.3V200.8z M953.4,204.4h21.3v2.6h-21.3V204.4z M953.4,207.7h21.3v2.4h-21.3V207.7z M953.4,210.9h21.3v2.5h-21.3V210.9z
		 M953.4,214.1h21.3v2.1h-21.3V214.1z M953.4,217h21.3v2.4h-21.3V217z M953.4,220.2h21.3v2.5h-21.3V220.2z M997.7,219.4h-21.3V217
		h21.3V219.4z M997.7,216.2h-21.3v-2.1h21.3V216.2z M997.7,213.3h-21.3v-2.5h21.3V213.3z M997.7,210.1h-21.3v-2.4h21.3V210.1z
		 M997.7,206.9h-21.3v-2.6h21.3V206.9z M997.7,203.6h-21.3v-2.9h21.3V203.6z M997.7,200h-21.3v-2.5h21.3V200z M997.7,196.8h-21.3
		v-2.4h21.3V196.8z M997.7,193.6h-21.3V191h21.3V193.6z M997.7,190.3h-21.3v-2.4h21.3V190.3z M997.7,187.1h-21.3v-2.5h21.3V187.1z
		 M997.7,183.9h-21.3v-2.4h21.3V183.9z M997.7,180.7h-21.3v-4.3h-1.8v1h-21.3v-12.3c6.4-0.5,11.5-5.8,11.5-12.4v-0.4h-11.5V147h11.8
		v-12.8h32.4v46.5H997.7z M997.7,99h-48.3v46.3h-22.7v6h-11.1V30.8l82.1-0.1V99z M730.7,151.5h-11.4v-6.3h-33.7v-114l45.1-0.1
		L730.7,151.5L730.7,151.5z M684.8,145.2h-35.2v6.1h-9.9V31.2l45.1-0.1L684.8,145.2L684.8,145.2z M639,151.3h-10.2v-6.1h-66.4V31.4
		l76.6-0.1L639,151.3L639,151.3z M561.7,145.2h-2.8v5.1h-20.3v-5.1h-2.4V31.4h25.4L561.7,145.2L561.7,145.2z M457,249.1h-2.7
		c-1.3-6.5-11.6-55.5-12.2-60.7c-0.2-1.7,0.1-2.9,0.8-3.8c0.8-0.9,2.3-1.4,4.3-1.4h38.4v-4.7h61.7v70.2l-63.5-0.1l0.1,0.5H458H457z
		 M548,178.5h42.7v70.3l-42.7-0.1V178.5z M591.5,178.5h50.4v70.4l-50.4-0.1V178.5z M642.7,178.5H684V249l-41.3-0.1V178.5z
		 M684.7,178.5h49.2V249l-49.2-0.1V178.5z M734.6,178.5h43.6v70.6l-43.6-0.1V178.5z M778.9,178.5h45.6v70.7l-45.6-0.1V178.5z
		 M825.2,178.5h42.6v70.7l-42.6-0.1V178.5z M868.6,178.5h42.7v70.8l-42.7-0.1V178.5z M912.1,178.5h39.6v70.9l-39.6-0.1V178.5z
		 M953.4,223.4h21.3v0.5h1.8v-0.5h21.3v26.1l-44.3-0.1L953.4,223.4L953.4,223.4z M999.4,134.2v-0.9V95.2h22.6v112.9h-22.6V134.2z
		 M1023.7,193.2h45.6v14.9h-45.6L1023.7,193.2L1023.7,193.2z M1069.3,30.6v19h-69.9v-19h20.4C1019.8,30.6,1069.3,30.6,1069.3,30.6z
		 M455.6,23.5v-9.6h283V3.8h279.3v23.1l-617.3,1v-4.4H455.6z M400.6,31.6L400.6,31.6l52-0.1v113.7h-2.9v-11.5h-0.4
		c-6.6,0-11.9,5.1-12.4,11.5h-74.1V31.6H400.6z M339.3,31.6h22.9v113.6h-68.4v5.6H260v-5.6h-35V31.6h19.7h92.6H339.3z M3.8,913.6
		V701.9c0-3.5,1.2-6.4,3.4-8.3c2.7-2.3,6.8-3.1,12-2.4c15.7,2.3,59.7,6.2,60.1,6.2h152.4l-88-422.3h-30.2c-6.9,0-16.4-3.3-22.1-10.6
		c-4.5-5.8-5.7-12.8-3.6-21c6-23.3,42.3-187.9,44.8-200.3c2.5-12.2,7.1-19.7,22.5-19.7h89.7h90.7v4.4h-90.7h-64.1h-25.8
		c-10.1,0-14.7,3.8-17.2,13.9c-1.2,4.8-12.3,54.2-23.1,102.1c-10.3,45.5-20.9,92.6-22.4,99c-1.7,7.3-0.5,14.1,3.5,19.2
		c3.1,3.9,9.2,8.5,21,8.5H201l37.5,425.1l0.3,6.7H17.5v223.3C8.3,925.2,3.8,921.2,3.8,913.6z M21.3,808.2h42.2v0.7h39l11.1,44.6
		h64.3v72.3H21.3V808.2z M454.8,925.7V796.3h40.6h0.7h40.2v9h13.2v120.2l-92.4,0.2H454.8z M458.9,947v-17.5l545.7-1V947H458.9z
		 M1004.6,924.7L1004.6,924.7h-3.5v-59.8h16l0.6-9.2h22v8.7h29.7v60.3H1004.6z M1069.3,724.5h-23v-1h-1.8v1h-24.3v-19.4h49.1V724.5z
		 M648.9,705.1v55.7h-68.6c-16.1,0-17.5-4.5-19.4-10.7c-0.1-0.4-0.2-0.8-0.4-1.2c-1.9-6-8.1-38.6-9.3-44.9l28.6,0.2l0.2,1
		L648.9,705.1L648.9,705.1z M517.4,406.1l1.8-0.4c2.1-0.4,211-43.7,239.1-49.5c27.7-5.7,53.7,21,58.7,41.1
		c7.6,36.6,20.1,94.3,20.2,94.8c1.9,9.6-1,26.7-10.4,40.9c-5.1,7.7-14.3,17.5-28.8,20.4c-31.9,6.4-236,48.1-238.1,48.5l-1.9,0.4
		l21.4,100.1l-26.1-0.1L459.2,251h25.1L517.4,406.1z M999.4,249.5v-39.6h69.9v39.7L999.4,249.5z"/>
</g>
<g id="eventSpot">
	<path id="sala104B" class="eventColor" d="M449.8,145.2v-11.5h-0.4c-6.6,0-11.9,5.1-12.4,11.5h-74.1V31.6h37.7l0,0l52-0.1v113.7H449.8z
		 M449.1,145.2v-10.8c-6,0.2-10.8,4.9-11.3,10.8H449.1z"/>
	<path id="sala102C" class="eventColor" d="M299.1,367.4L228.9,382l11.1,79l104.5-21.8l-0.7-3.1l53.4-11.1c-3.7-17.9-7.5-36.1-10.9-52.7
		L299.1,367.4z"/>
	<path id="sala113A" class="eventColor" d="M799.6,796.3h11.3v10.8C804.9,806.9,800,802.2,799.6,796.3z M777.1,796.3v128.8l91.1-0.2V796.3
		h-33.5v-5.6h-20.6v5.6h-2.5v11.5h-0.4c-6.6,0-11.9-5.1-12.4-11.5H777.1z"/>
</g>
<g id="guideSpot">
	<circle id="WTCH-1-D15" class="wireColor" cx="1045.5" cy="773.6" r="7"/>
	<circle id="WTCH-1-D14" class="wireColor" cx="161.6" cy="774.3" r="7"/>
	<circle id="WTCH-1-D13" class="wireColor" cx="485.9" cy="449.9" r="7"/>
	<circle id="WTCH-1-D12" class="wireColor" cx="980" cy="146.1" r="7"/>
	<circle id="WTCH-1-D11" class="wireColor" cx="145.5" cy="153.6" r="7"/>
</g>
</svg>
